<svg xmlns="http://www.w3.org/2000/svg">
<defs>
<font horiz-adv-x="158" id="ywftsvg"><font-face ascent="800" bbox="-344 -280 1310 940" cap-height="700" descent="-200" font-family="" font-stretch="normal" font-weight="400" panose-1="0 0 0 0 0 0 0 0 0 0" underline-position="0" underline-thickness="0" unicode-range="U+000D-FB03" units-per-em="1000" x-height="500"/><missing-glyph d="M348 23l50 188h64q-1 -14 -5 -43.5t-6 -44.5l35 88h63l-50 -188h-43l34 127l-51 -127h-30l15 124l-33 -124h-43zM237 101l9 32q6 21 10 32t12.5 24.5t22 19.5t33.5 6q38 0 43 -24.5t-8 -57.5l-9 -32q-7 -27 -13 -42t-22.5 -27.5t-42.5 -12.5q-38 0 -43 24.5t8 57.5z M102 90l15 55q9 35 26 52.5t52 17.5q37 0 42.5 -22.5t-7.5 -57.5l-1 -6h-49l7 26q4 16 5 25l-6 3l-9 -4l-7 -19l-23 -87l-3 -18l6 -4l8 4q8 18 13 43h49l-2 -7q-9 -36 -26 -54t-52 -18q-34 0 -41.5 19t3.5 52zM405 242h-49l51 189h49q31 0 44 -13q4 -18 -4 -49 q-8 -24 -13 -34q-17 -17 -57 -17zM402 498h-42l20 129h32l-17 -88q14 40 33 88h35q-4 -25 -17 -92q13 41 33 92h33l-49 -129h-42q4 44 8 68zM561 242h-85l50 189h82l-10 -38h-33l-9 -36h30l-9 -36h-31l-11 -41h36zM198 242h-49l40 151h-29l10 38h107l-10 -38h-29zM276 268 q19 69 7 163h45q-5 -58 -8 -75q10 25 34 75h44q-80 -121 -86 -189h-45q6 14 9 26zM276 551l6 22q7 29 17.5 42.5t36.5 13.5t29.5 -16.5t-5.5 -39.5l-6 -22q-7 -28 -17.5 -41.5t-36.5 -13.5t-29.5 16t5.5 39zM169 453l6 23h449l-6 -23h-449zM589 498h-34l35 129h34 q22 0 29.5 -7t1.5 -27q-3 -11 -9 -22q-10 -5 -17 -6q7 -1 12 -6l2 -8l-4 -19l-9 -34h-31l9 32q4 16 4 24l-8 2zM182 498l34 129h34q20 0 29 -9q4 -11 -2 -33q-2 -11 -9 -23q-11 -12 -39 -12l-14 -52h-33zM544 498h-60l35 129h59l-8 -30h-26l-6 -20h27l-8 -29h-26l-5 -19h26z M275 55l5 -4l8 4l7 21l23 87l3 17l-5 3l-7 -3q-5 -14 -6 -17l-24 -88zM72 23h-36l10 38h36zM302 520l4 -3l5 3l5 15l16 59l2 11l-4 3l-4 -2q-4 -8 -5 -12zM447 398l-13 -48h4l10 4q6 11 6 13l5 16v12zM235 572h2l7 2q0 1 2 4.5t2 5.5l3 10q1 2 1 5v4l-9 2zM609 576l9 2 q0 2 2 5t3 5l2 7v8l-8 2z" horiz-adv-x="526"/><glyph d="M348 23l50 188h64q-1 -14 -5 -43.5t-6 -44.5l35 88h63l-50 -188h-43l34 127l-51 -127h-30l15 124l-33 -124h-43zM237 101l9 32q6 21 10 32t12.5 24.5t22 19.5t33.5 6q38 0 43 -24.5t-8 -57.5l-9 -32q-7 -27 -13 -42t-22.5 -27.5t-42.5 -12.5q-38 0 -43 24.5t8 57.5z M102 90l15 55q9 35 26 52.5t52 17.5q37 0 42.5 -22.5t-7.5 -57.5l-1 -6h-49l7 26q4 16 5 25l-6 3l-9 -4l-7 -19l-23 -87l-3 -18l6 -4l8 4q8 18 13 43h49l-2 -7q-9 -36 -26 -54t-52 -18q-34 0 -41.5 19t3.5 52zM405 242h-49l51 189h49q31 0 44 -13q4 -18 -4 -49 q-8 -24 -13 -34q-17 -17 -57 -17zM402 498h-42l20 129h32l-17 -88q14 40 33 88h35q-4 -25 -17 -92q13 41 33 92h33l-49 -129h-42q4 44 8 68zM561 242h-85l50 189h82l-10 -38h-33l-9 -36h30l-9 -36h-31l-11 -41h36zM198 242h-49l40 151h-29l10 38h107l-10 -38h-29zM276 268 q19 69 7 163h45q-5 -58 -8 -75q10 25 34 75h44q-80 -121 -86 -189h-45q6 14 9 26zM276 551l6 22q7 29 17.5 42.5t36.5 13.5t29.5 -16.5t-5.5 -39.5l-6 -22q-7 -28 -17.5 -41.5t-36.5 -13.5t-29.5 16t5.5 39zM169 453l6 23h449l-6 -23h-449zM589 498h-34l35 129h34 q22 0 29.5 -7t1.5 -27q-3 -11 -9 -22q-10 -5 -17 -6q7 -1 12 -6l2 -8l-4 -19l-9 -34h-31l9 32q4 16 4 24l-8 2zM182 498l34 129h34q20 0 29 -9q4 -11 -2 -33q-2 -11 -9 -23q-11 -12 -39 -12l-14 -52h-33zM544 498h-60l35 129h59l-8 -30h-26l-6 -20h27l-8 -29h-26l-5 -19h26z M275 55l5 -4l8 4l7 21l23 87l3 17l-5 3l-7 -3q-5 -14 -6 -17l-24 -88zM72 23h-36l10 38h36zM302 520l4 -3l5 3l5 15l16 59l2 11l-4 3l-4 -2q-4 -8 -5 -12zM447 398l-13 -48h4l10 4q6 11 6 13l5 16v12zM235 572h2l7 2q0 1 2 4.5t2 5.5l3 10q1 2 1 5v4l-9 2zM609 576l9 2 q0 2 2 5t3 5l2 7v8l-8 2z" glyph-name=".notdef" horiz-adv-x="526"/><glyph glyph-name="glyph1" horiz-adv-x="0"/><glyph glyph-name="glyph1" horiz-adv-x="0"/><glyph glyph-name="space" horiz-adv-x="200" unicode=" "/><glyph d="M141 179l16 206l85 315h97l-84 -315l-94 -206h-20zM43 -8h117l27 101h-117z" glyph-name="exclam" horiz-adv-x="206" unicode="!"/><glyph d="M212 472h-26l7 173l14 55h105l-14 -55zM383 472h-26l7 173l15 55h105l-15 -55z" glyph-name="quotedbl" horiz-adv-x="317" unicode="&quot;"/><glyph d="M65 197l58 92h125l76 138h-129l58 92h125l100 181h104l-100 -181h150l101 181h103l-100 -181h174l-59 -92h-169l-76 -138h173l-58 -92h-169l-108 -197h-103l108 197h-151l-108 -197h-104l108 197h-129zM352 289h151l75 138h-151z" glyph-name="numbersign" horiz-adv-x="785" unicode="#"/><glyph d="M92 202l96 11q-11 -54 18.5 -85t94.5 -37l65 241q-30 5 -49.5 8.5t-43.5 10.5t-39 15.5t-29.5 22t-20.5 30.5t-6 41t8 53q24 90 103.5 140.5t177.5 55.5l9 35h99l-10 -36q93 -6 137.5 -55t30.5 -130l-95 -11q8 46 -16 74.5t-81 32.5l-57 -213q34 -4 61 -10t54.5 -16.5 t45 -24t32 -33.5t15 -45.5t-6.5 -59.5q-56 -208 -311 -221l-11 -42h-98l11 42q-222 15 -184 206zM461 321l-61 -231q73 5 120.5 37.5t61.5 87.5q13 49 -18.5 71t-102.5 35zM389 419l54 200q-61 -5 -104.5 -34.5t-56.5 -78.5q-10 -39 17 -58t90 -29z" glyph-name="dollar" horiz-adv-x="666" unicode="$"/><glyph d="M626 290q95 0 121 -68q22 -59 -20 -126q-47 -76 -137 -92q-20 -4 -41 -4q-95 0 -121 68q-22 59 20 126q47 76 137 92q20 4 41 4zM372 700q95 0 121 -68q22 -59 -20 -126q-48 -76 -138 -92q-20 -4 -41 -4q-95 0 -120 68q-22 59 20 126q47 76 138 92q19 4 40 4zM47 0 l700 700h127l-700 -700h-127zM312 476q58 0 89 51q27 44 8 79q-15 28 -55 28q-57 0 -89 -51q-27 -44 -8 -79q15 -28 55 -28zM567 67q59 0 90 51q27 45 7 79q-16 26 -55 26q-59 0 -91 -51q-27 -45 -6 -79q15 -26 55 -26z" glyph-name="percent" horiz-adv-x="731" unicode="%"/><glyph d="M280 0q-111 0 -163.5 55t-28.5 145q15 54 51 91t78 54.5t100 28.5q-76 13 -103.5 58t-12.5 101q19 71 99 119t190 48q89 0 138.5 -16.5t91.5 -58.5l-72 -59q-62 58 -178 58q-59 0 -108 -29t-61 -75q-13 -46 18 -78.5t88 -31.5l221 -2l25 94l91 -21l-19 -71l97 1l-19 -75 h-97l-91 -337h-97l43 161q-87 -160 -281 -160zM185 200q-15 -53 15 -87.5t99 -34.5q109 0 191.5 61.5t105.5 150.5l13 46h-159q-231 -7 -265 -136z" glyph-name="ampersand" horiz-adv-x="722" unicode="&amp;"/><glyph d="M186 472l6 173l15 55h105l-15 -55l-86 -173h-25z" glyph-name="quotesingle" horiz-adv-x="144" unicode="'"/><glyph d="M147 -84q-4 6 -11.5 17.5t-22.5 50t-23.5 81t-6.5 108.5t20 135t51 134.5t67 110t65 79.5t51 52l20 16h93q-7 -6 -20 -17.5t-48.5 -50t-66 -81t-64 -108.5t-51.5 -135t-20.5 -134.5t6.5 -110t21 -79.5t23 -52l10 -16h-93z" glyph-name="parenleft" horiz-adv-x="296" unicode="("/><glyph d="M91 -84h-94q8 6 20.5 17.5t48 50t66 81t64.5 108.5t52 135t20.5 134.5t-6.5 110t-21 79.5t-23 52l-10 16h94q4 -6 11 -17.5t22.5 -50t23.5 -81t6.5 -108.5t-19.5 -135t-51.5 -134.5t-67.5 -110t-65 -79.5t-51 -52z" glyph-name="parenright" horiz-adv-x="297" unicode=")"/><glyph d="M510 668l36 -70l-145 -52l118 -54l-71 -64l-79 82l-15 -134v-2h-98l61 136l-130 -79l-35 61l152 54l-124 52l75 70l82 -83l9 123h97l-54 -123z" glyph-name="asterisk" horiz-adv-x="407" unicode="*"/><glyph d="M292 242h-200l25 92h199l49 182h98l-49 -182h198l-25 -92h-198l-50 -189h-98z" glyph-name="plus" horiz-adv-x="549" unicode="+"/><glyph d="M7 -106l11 41h16q54 0 69 57h-70l28 104h112l-28 -104q-14 -54 -41 -76t-81 -22h-16z" glyph-name="comma" horiz-adv-x="183" unicode=","/><glyph d="M91 229l27 98h371l-27 -98h-371z" glyph-name="hyphen" horiz-adv-x="431" unicode="-"/><glyph d="M151 -8h-118l27 101h118z" glyph-name="period" horiz-adv-x="189" unicode="."/><glyph d="M-11 -95l610 795h109l-609 -795h-110z" glyph-name="slash" horiz-adv-x="536" unicode="/"/><glyph d="M283 -10q-51 0 -89 13.5t-59.5 34.5t-32.5 53t-13.5 62t1.5 69t10 66t15 60t17.5 60t25 66t35 69t47 62t61 53t77.5 34.5t97 13.5q51 0 89 -13.5t59.5 -34.5t32.5 -53.5t13.5 -62t-2 -68.5t-10.5 -66t-15 -60q-13 -49 -26.5 -87t-43 -92.5t-65.5 -90.5t-94.5 -62 t-129.5 -26zM213 348q-15 -59 -19.5 -102t3 -80t36 -56t77.5 -19q165 0 234 257q70 257 -96 257q-91 0 -146.5 -66.5t-88.5 -190.5z" glyph-name="zero" horiz-adv-x="571" unicode="0"/><glyph d="M145 486l25 92q154 0 187 122h97l-187 -700h-98l140 521q9 36 30 74l-2 1q-28 -57 -45 -70q-45 -40 -147 -40z" glyph-name="one" horiz-adv-x="288" unicode="1"/><glyph d="M542 0h-520l5 20q22 81 69.5 144t103 98.5t117.5 66t113.5 50.5t89.5 48t47 62q34 128 -117 128q-67 0 -118.5 -33t-71.5 -100l-96 8q72 214 314 214q117 0 169 -52.5t25 -153.5q-16 -59 -56 -100.5t-93 -67t-108.5 -49.5t-115 -64t-99.5 -95q-25 -31 -61 -51l1 -2 q38 21 74 21h353z" glyph-name="two" horiz-adv-x="559" unicode="2"/><glyph d="M293 -6q-119 0 -177 52.5t-36 156.5l98 6q-14 -55 26.5 -88.5t107.5 -33.5q70 0 126.5 35t72.5 95q16 57 -17.5 83.5t-117.5 27.5h-44l16 69h47q145 0 175 112q15 56 -18.5 86t-95.5 30q-59 0 -111.5 -35t-69.5 -86l-94 8q30 96 110 145t192 48q106 -1 155 -47t25 -137 q-16 -61 -65 -100t-112 -44l-1 -2q47 4 71 -9q40 -20 52 -55.5t-4 -103.5q-28 -103 -111.5 -158t-199.5 -55z" glyph-name="three" horiz-adv-x="574" unicode="3"/><glyph d="M67 193l17 66l418 441h136l-112 -418h128l-10 -89h-103q-36 0 -57 28l-2 -1q21 -29 10 -65l-41 -155h-99l52 193h-337zM518 620l-297 -334h208z" glyph-name="four" horiz-adv-x="616" unicode="4"/><glyph d="M293 -4q-120 0 -178 54t-33 168l98 5q-8 -43 -2 -72t28 -46t48.5 -24t59.5 -7q174 0 215 152q20 75 -17 114t-103 39q-51 0 -99.5 -23t-73.5 -62h-132l127 406h497l-25 -85h-412l-53 -195q-11 -36 -35 -66l2 -1q25 35 52 52q87 51 183 51q102 0 159 -60.5t28 -169.5 q-32 -118 -122.5 -174t-211.5 -56z" glyph-name="five" horiz-adv-x="589" unicode="5"/><glyph d="M297 -4q-128 0 -180.5 79.5t-10.5 237.5q46 172 152.5 282t251.5 110q51 0 90 -12t60 -32t35 -45t14.5 -50.5t-2.5 -49.5l-103 -12q-2 25 -10 47.5t-35.5 43.5t-69.5 21q-45 0 -92 -23t-97 -84t-81 -151q-11 -34 -30 -69l1 -1q24 44 42 63q42 42 101.5 65t119.5 23 q97 0 152.5 -56.5t27.5 -160.5q-21 -78 -75 -130.5t-119.5 -74t-141.5 -21.5zM189 222q-19 -70 17 -108t114 -38q177 0 215 146q18 65 -13 105.5t-116 41.5q-64 1 -132.5 -41.5t-84.5 -105.5z" glyph-name="six" horiz-adv-x="596" unicode="6"/><glyph d="M193 -2h-113l487 581q22 26 59 44l-1 2q-36 -17 -72 -17h-374l25 92h528l-23 -86z" glyph-name="seven" horiz-adv-x="563" unicode="7"/><glyph d="M297 -6q-122 0 -185.5 53t-36.5 153q28 107 137 157q30 14 72 8l1 2q-49 6 -69 26q-46 45 -25 125q25 91 106 139.5t190 47.5q110 -1 165 -49t31 -138q-23 -86 -102 -131q-25 -16 -72 -16v-2q47 0 72 -17q76 -49 48 -152q-27 -99 -119 -152.5t-213 -53.5zM176 210 q-17 -65 22 -98.5t121 -33.5q78 0 137.5 32.5t77.5 99.5q17 65 -23.5 91t-124.5 27q-178 2 -210 -118zM284 511q-15 -58 18.5 -85.5t102.5 -27.5q151 0 181 113q17 63 -16 90.5t-103 27.5q-151 0 -183 -118z" glyph-name="eight" horiz-adv-x="596" unicode="8"/><glyph d="M273 -4q-120 0 -167 53t-35 129l106 14q-3 -60 26.5 -85t99.5 -24q65 1 140 70t118 185q14 38 30 69l-1 1q-26 -47 -41 -64q-41 -46 -96.5 -70.5t-113.5 -24.5q-99 0 -158 62.5t-31 167.5q32 117 125.5 171.5t217.5 54.5q133 0 179.5 -76.5t3.5 -240.5q-28 -102 -83 -189 t-139.5 -145t-180.5 -58zM255 478q-21 -76 22 -110t120 -36q59 -1 120 43.5t76 102.5q14 54 -16.5 102t-100.5 48q-49 0 -91 -13t-78.5 -48t-51.5 -89z" glyph-name="nine" horiz-adv-x="603" unicode="9"/><glyph d="M227 313h-108l27 100h108zM146 9h-108l27 101h108z" glyph-name="colon" horiz-adv-x="179" unicode=":"/><glyph d="M23 -89l11 41h16q54 0 69 57h-70l28 104h112l-28 -104q-14 -54 -41 -76t-81 -22h-16zM242 313h-112l27 100h112z" glyph-name="semicolon" horiz-adv-x="176" unicode=";"/><glyph d="M100 324l370 155l-26 -97l-255 -106l198 -106l-26 -96l-287 155z" glyph-name="less" horiz-adv-x="352" unicode="&lt;"/><glyph d="M122 344l25 92h496l-25 -92h-496zM66 133l24 92h496l-25 -92h-495z" glyph-name="equal" horiz-adv-x="559" unicode="="/><glyph d="M430 324l-25 -95l-370 -155l26 96l254 106l-197 106l26 97z" glyph-name="greater" horiz-adv-x="359" unicode=">"/><glyph d="M149 500q25 95 105.5 150.5t186.5 55.5q107 0 154.5 -51.5t19.5 -154.5q-12 -44 -41.5 -75.5t-65 -51t-71.5 -39.5t-66.5 -54.5t-43.5 -83.5l-5 -17h-98l5 17q16 62 49.5 106.5t70 69t71.5 43t62 41t35 50.5q16 58 -9 90.5t-88 32.5q-67 0 -112 -36.5t-61 -92.5h-98z M169 6l27 101h117l-27 -101h-117z" glyph-name="question" horiz-adv-x="534" unicode="?"/><glyph d="M751 -44q-192 -54 -333 -54q-201 0 -283 107t-27 311q47 175 193 283t343 108q201 0 279 -105.5t29 -285.5q-33 -123 -100.5 -185t-136.5 -62q-41 0 -69.5 21t-33.5 58q-4 23 16 71l-2 1q-18 -42 -42 -61q-66 -49 -140 -49q-77 0 -119 50.5t-20 132.5q23 85 93.5 138.5 t145.5 53.5q73 0 112 -31q15 -13 25 -62l2 1q-7 34 1 66l4 13h90l-60 -224q-9 -38 -0.5 -60.5t29.5 -22.5q28 0 60.5 43.5t55.5 129.5q33 126 -26.5 202.5t-203.5 76.5q-160 0 -275 -81t-152 -220q-44 -164 28 -248.5t238 -84.5q130 0 301 51zM398 297q-15 -56 10.5 -87 t85.5 -31q47 0 89.5 32t59.5 97q31 116 -83 116q-55 0 -100.5 -34t-61.5 -93z" glyph-name="at" horiz-adv-x="886" unicode="@"/><glyph d="M127 0h-106l452 700h143l76 -700h-105l-20 167h-332zM519 612l-230 -358q151 0 184 -4q74 -7 93 -73l-46 435h-1z" glyph-name="A" horiz-adv-x="714" unicode="A"/><glyph d="M28 0l187 700h286q118 0 167.5 -44.5t25.5 -135.5q-7 -26 -38.5 -61t-78.5 -55q-17 -8 -54 -10v-2q38 2 55 -3q59 -17 77 -65.5t1 -112.5q-57 -211 -312 -211h-316zM150 92h224q66 0 119 32t69 92q13 49 -14 74.5t-90 25.5h-247zM289 610l-57 -213h234q109 0 138 105 q15 55 -20 81.5t-100 26.5h-195z" glyph-name="B" horiz-adv-x="621" unicode="B"/><glyph d="M116 350q47 176 166 267.5t271 89.5q125 -2 197.5 -64t68.5 -182l-102 -26q2 79 -47 126t-144 47q-115 1 -197.5 -68t-114.5 -190q-33 -121 14 -190t159 -68q97 0 170.5 47t113.5 126l88 -26q-60 -120 -166 -182t-232 -64q-152 -2 -222 89.5t-23 267.5z" glyph-name="C" horiz-adv-x="717" unicode="C"/><glyph d="M311 0h-281l188 700h280q100 0 168.5 -38t97 -115.5t-3.5 -196.5q-30 -115 -101 -195.5t-159.5 -117.5t-188.5 -37zM283 577q-5 -20 -130 -485h188q47 0 94 14t92 43.5t81 81t54 119.5q26 91 2 148.5t-72 83.5t-113 26h-255q28 0 46 -7t13 -24z" glyph-name="D" horiz-adv-x="691" unicode="D"/><glyph d="M744 700l-25 -92h-428l-61 -227h414l-22 -82h-414l-55 -207h428l-25 -92h-526l188 700h526z" glyph-name="E" horiz-adv-x="583" unicode="E"/><glyph d="M30 0l188 700h515l-24 -92h-387q-30 0 -50 25l-1 -1q19 -27 12 -55l-53 -196h405l-22 -82h-372q-32 0 -52 27l-2 -1q21 -28 13 -58l-72 -267h-98z" glyph-name="F" horiz-adv-x="572" unicode="F"/><glyph d="M344 -7q-150 0 -212.5 90.5t-15.5 266.5t166.5 267.5t271.5 89.5q126 -2 199 -64t69 -182l-98 -28q-1 82 -59 131.5t-135 50.5q-100 1 -191.5 -70.5t-124.5 -194.5t14.5 -194t149.5 -71q76 0 140 66t86 134h-104l21 79h216q68 0 50 -69q-1 -2 -79 -295h-96l76 285l-22 -1 q-44 -148 -128.5 -219.5t-193.5 -71.5z" glyph-name="G" horiz-adv-x="730" unicode="G"/><glyph d="M30 0l188 700h97l-80 -301h398l81 301h98l-188 -700h-98l81 302h-398l-81 -302h-98z" glyph-name="H" horiz-adv-x="654" unicode="H"/><glyph d="M30 0l188 700h97l-187 -700h-98z" glyph-name="I" unicode="I"/><glyph d="M283 -7q-104 0 -164.5 54t-37.5 163l100 27q-11 -64 20 -108t106 -44q74 0 134 51.5t83 136.5l114 427h98l-115 -430q-38 -140 -129.5 -208.5t-208.5 -68.5z" glyph-name="J" horiz-adv-x="578" unicode="J"/><glyph d="M30 0l188 700h98l-95 -352q-9 -35 -35 -76l2 -1q25 40 57 67l415 362h129l-353 -308l190 -392h-127l-166 347l-157 -168l-48 -179h-98z" glyph-name="K" horiz-adv-x="651" unicode="K"/><glyph d="M520 0h-490l188 700h97l-152 -570q-10 -37 -45 -64l1 -1q35 27 71 27h355z" glyph-name="L" horiz-adv-x="539" unicode="L"/><glyph d="M30 0l188 700h105l89 -567q2 -17 -2 -35l2 -1q3 19 13 33l395 570h105l-187 -700h-98l116 431q15 59 46 126l-1 1q-31 -68 -67 -117l-301 -441h-98l-63 430q-11 61 -7 133l-2 1q-4 -75 -20 -133l-115 -431h-98z" glyph-name="M" horiz-adv-x="768" unicode="M"/><glyph d="M30 0l188 700h100l248 -516q17 -38 19 -79l2 1q-2 50 9 87l135 507h98l-187 -700h-101l-249 510q-16 31 -20 79l-2 -1q3 -43 -8 -88l-134 -500h-98z" glyph-name="N" horiz-adv-x="672" unicode="N"/><glyph d="M369 -7q-99 0 -165.5 39t-93.5 118t6 200q47 175 170 267t274 90q153 -2 226.5 -93t27.5 -264q-47 -174 -170 -265.5t-275 -91.5zM214 350q-32 -120 23 -192.5t157 -72.5q105 0 197 72t124 193q33 121 -22 192t-157 73q-65 1 -129.5 -29.5t-117.5 -92.5t-75 -143z" glyph-name="O" horiz-adv-x="742" unicode="O"/><glyph d="M30 0l188 700h301q122 0 174 -56t23 -166q-25 -91 -113.5 -159t-203.5 -68h-204l-67 -251h-98zM292 615l-75 -282h194q66 0 128 43t78 100q18 69 -20.5 104t-110.5 35h-194z" glyph-name="P" horiz-adv-x="612" unicode="P"/><glyph d="M369 -7q-99 0 -165.5 39t-93.5 118t6 200q47 175 170 267t274 90q98 -1 164.5 -39.5t94 -117.5t-5.5 -200q-30 -108 -100 -185.5t-173 -105.5l1 -2q43 12 73 15l152 17l-26 -96h-371zM214 350q-33 -121 20 -190t161 -69q119 0 204 71.5t116 187.5q32 121 -22 189.5 t-159 69.5q-106 1 -196.5 -68.5t-123.5 -190.5z" glyph-name="Q" horiz-adv-x="763" unicode="Q"/><glyph d="M30 0l188 700h320q123 0 176 -50t25 -153q-20 -75 -84 -120q-42 -36 -132 -51v-2q49 9 74 9q38 0 53 -16q39 -30 17 -115l-53 -202h-99l53 196q8 29 -5 42.5t-52 13.5l-315 -1l-67 -251h-99zM293 615l-74 -277h202q81 0 144 39.5t79 99.5q20 75 -15.5 106.5t-121.5 31.5 h-214z" glyph-name="R" horiz-adv-x="639" unicode="R"/><glyph d="M80 202l97 12q-11 -60 30.5 -93t126.5 -34q95 0 157 33.5t79 96.5q9 33 -12 54t-60 31t-88 17.5t-97 18t-85 27.5t-54 51.5t-4 84.5q28 101 120.5 156t214.5 53q112 -2 171.5 -50.5t43.5 -138.5l-96 -13q9 54 -25.5 82t-117.5 28q-86 0 -142 -31t-71 -86q-7 -26 9 -43.5 t47 -25.5t72 -15t84 -12.5t82.5 -18t67.5 -31.5t39.5 -53t-1.5 -82q-10 -40 -33.5 -76.5t-64 -71.5t-107.5 -56t-152 -21q-64 0 -111 12t-72 32t-39.5 46.5t-14 56t5.5 60.5z" glyph-name="S" horiz-adv-x="634" unicode="S"/><glyph d="M435 608h-252l25 92h601l-24 -92h-218q-33 0 -51 25l-2 -2q18 -23 10 -57l-154 -574h-98z" glyph-name="T" horiz-adv-x="642" unicode="T"/><glyph d="M112 304l106 396h97l-106 -397q-27 -101 14.5 -160t138.5 -59t169 58t100 161l106 397h98l-106 -396q-41 -152 -150.5 -232t-240.5 -80q-137 0 -202 79t-24 233z" glyph-name="U" horiz-adv-x="675" unicode="U"/><glyph d="M275 0l-65 700h104l57 -616q1 -15 -4 -33l2 -1q7 23 12 32l390 618h105l-441 -700h-160z" glyph-name="V" horiz-adv-x="710" unicode="V"/><glyph d="M251 0l-41 700h103l32 -586q0 -13 -4 -35h2q4 20 11 35l297 586h124l-18 -586q0 -11 -7 -34h2q6 19 14 33l348 587h104l-417 -700h-140l18 564q0 5 2 11h-2q0 -1 -1 -5t-2 -6l-286 -564h-139z" glyph-name="W" horiz-adv-x="1052" unicode="W"/><glyph d="M21 -1l362 356l-167 344h125l121 -247q6 -15 3 -32h2q3 18 15 29l262 250h127l-361 -343l184 -357h-126l-134 259q-7 15 -4 32l-2 1q-3 -18 -14 -29l-268 -263h-125z" glyph-name="X" horiz-adv-x="706" unicode="X"/><glyph d="M381 329l-178 370h121l117 -248q13 -30 3 -68h2q11 41 40 68l249 248h121l-377 -370l-88 -329h-98z" glyph-name="Y" horiz-adv-x="683" unicode="Y"/><glyph d="M22 0l24 89l593 491q30 26 72 42v2q-43 -16 -77 -16h-441l25 92h607l-24 -89l-589 -491q-30 -26 -72 -42v-2q43 16 77 16h454l-25 -92h-624z" glyph-name="Z" horiz-adv-x="668" unicode="Z"/><glyph d="M-5 -132l223 832h284l-24 -92h-149q-38 0 -60 31l-2 -2q24 -30 14 -66l-154 -574q-10 -35 -40 -59l1 -2q31 24 67 24h149l-25 -92h-284z" glyph-name="bracketleft" horiz-adv-x="345" unicode="["/><glyph d="M496 -95h-110l-183 795h110z" glyph-name="backslash" horiz-adv-x="564" unicode="\"/><glyph d="M-5 -132l24 92h149q38 0 60 -31l2 2q-24 30 -14 66l154 574q10 35 40 59l-1 2q-31 -24 -67 -24h-149l25 92h284l-223 -832h-284z" glyph-name="bracketright" horiz-adv-x="345" unicode="]"/><glyph d="M266 500h-107l224 300h190l63 -300h-106l-55 246q-5 21 0 48h-2q-6 -26 -18 -43z" glyph-name="asciicircum" horiz-adv-x="527" unicode="^"/><glyph d="M18 -121l24 92h424l-24 -92h-424z" glyph-name="underscore" horiz-adv-x="524" unicode="_"/><glyph d="M278 700l20 -142h-81l-51 142h112z" glyph-name="grave" horiz-adv-x="154" unicode="`"/><glyph d="M453 123q-36 -60 -101 -91t-134 -31q-79 0 -126.5 38t-30.5 103q16 61 66 94t110.5 40t119.5 7.5t101.5 7t47.5 28.5q12 56 -17.5 80.5t-101.5 24.5q-136 0 -176 -98l-82 12q31 84 110 125t169 40q48 0 86 -10t68.5 -32.5t38 -60t-4.5 -93.5l-49 -182q-5 -19 0 -25.5 t22 -6.5h23l-25 -93h-64q-37 0 -53.5 22.5t-8.5 56.5zM158 144q-10 -38 19.5 -57.5t81.5 -19.5q69 0 132.5 30.5t76.5 79.5l17 66q-31 -16 -87.5 -20t-102 -3t-86 -17t-51.5 -59z" glyph-name="a" horiz-adv-x="593" unicode="a"/><glyph d="M30 0l188 700h97l-71 -267q-11 -37 -30 -68l2 -1q24 41 45 60q44 36 106 59.5t113 22.5q114 -1 159 -65t10 -191q-34 -127 -113 -191.5t-193 -64.5q-49 0 -97 19.5t-74 52.5q-14 17 -21 71l-2 -1q5 -37 -5 -74l-16 -62h-98zM195 250q-21 -77 23 -124t116 -47 q91 0 142.5 41t75.5 130q23 88 -7 131t-119 44q-70 1 -140 -48.5t-91 -126.5z" glyph-name="b" horiz-adv-x="607" unicode="b"/><glyph d="M89 250q33 124 129 190.5t213 65.5q90 -1 149 -46.5t56 -129.5l-93 -14q-9 106 -134 108q-75 1 -137.5 -46t-84.5 -128q-22 -83 15 -129t114 -44q124 2 190 105l87 -13q-42 -84 -125.5 -129t-174.5 -46q-117 -1 -177 65.5t-27 190.5z" glyph-name="c" horiz-adv-x="570" unicode="c"/><glyph d="M261 -6q-114 0 -159 64.5t-11 191.5q35 127 114 191t193 65q50 1 99.5 -21t73.5 -58q12 -16 17 -66h2q-3 38 6 74l71 265h98l-187 -700h-98l16 61q9 34 33 73l-2 1q-30 -48 -52 -66q-43 -34 -103 -54.5t-111 -20.5zM189 250q-24 -89 6 -130.5t120 -41.5q72 0 141.5 47.5 t90.5 124.5t-23.5 126.5t-115.5 48.5q-91 -1 -143 -43.5t-76 -131.5z" glyph-name="d" horiz-adv-x="607" unicode="d"/><glyph d="M294 -6q-118 -1 -178 65.5t-27 190.5t129 190.5t213 65.5t174.5 -66.5t23.5 -189.5q-2 -10 -9 -28h-436q-9 -73 27 -111t107 -37q130 2 193 99l86 -12q-96 -165 -303 -167zM184 222q20 38 41.5 49t61.5 11h258q9 74 -26 110t-106 37q-74 1 -142 -54t-87 -153z" glyph-name="e" horiz-adv-x="591" unicode="e"/><glyph d="M116 0l110 412h-106l25 92h94q34 0 67 -10v2q-4 1 -15.5 4t-18.5 5t-15 6.5t-13 10.5q-21 25 -12 57q33 121 282 121l-23 -84q-153 0 -169 -55q-6 -25 16 -41t52 -16h71l-25 -92h-112l-111 -412h-97z" glyph-name="f" horiz-adv-x="345" unicode="f"/><glyph d="M-14 -53q14 53 51.5 79.5t94.5 44.5q-75 19 -58 78q15 56 94 79q0 1 -3 6.5t-7 14.5t-7.5 22t-3.5 27.5t4 31.5q15 56 63 96t103.5 56.5t112.5 16.5q48 0 106 -20q-6 27 8.5 44.5t45.5 25t61 9.5t69 1l-19 -71h-62q-11 0 -20 -1t-23 -4t-16 -9.5t3 -17.5l5 -6 q4 -5 8.5 -11.5t9.5 -18.5t8 -24t3 -29t-4 -34q-22 -81 -104.5 -124.5t-171.5 -43.5q-45 0 -82 12q-3 1 -7.5 3t-7 3t-3.5 1q-19 1 -37.5 -9t-21.5 -21q-6 -21 24.5 -33t79.5 -15t105 -11t102.5 -20.5t71 -45t11.5 -82.5q-11 -42 -47 -72.5t-85 -45.5t-96.5 -22t-96.5 -7 q-47 0 -92.5 7t-90.5 22t-67 45.5t-11 72.5zM267 -128q28 0 58 3.5t63 12t56.5 25t29.5 39.5q4 16 -2 28.5t-23.5 21.5t-33 14.5t-44 10t-42 6l-40.5 4.5q-40 4 -41 4q-44 0 -98 -24.5t-64 -64.5q-8 -29 24.5 -48t73.5 -25.5t83 -6.5zM357 238q54 0 99 22t59 72 q13 49 -20.5 71t-86.5 22q-54 0 -99.5 -22t-58.5 -72q-14 -49 20 -71t87 -22z" glyph-name="g" horiz-adv-x="600" unicode="g"/><glyph d="M31 0l187 700h98l-77 -287q-8 -29 -30 -74l2 -1q24 48 45 70q91 100 223 100q94 0 126.5 -70t4.5 -175l-71 -263h-98l71 263q19 71 -3 113t-84 42q-24 0 -54.5 -10.5t-68.5 -33.5t-71.5 -72t-51.5 -115l-50 -187h-98z" glyph-name="h" horiz-adv-x="566" unicode="h"/><glyph d="M195 615h101l22 85h-100zM32 0l134 500h97l-134 -500h-97z" glyph-name="i" horiz-adv-x="161" unicode="i"/><glyph d="M-70 -171h-22l21 79h22q51 0 81 24t45 81l131 487h98l-131 -487q-25 -96 -81.5 -140t-163.5 -44zM337 615h-98l22 85h98z" glyph-name="j" horiz-adv-x="203" unicode="j"/><glyph d="M129 0h-99l188 700h98l-110 -397q-9 -35 -36 -71l2 -1q27 36 59 59l300 210h137l-281 -199l162 -300h-28l-1 -1v1h-95l-128 240l-127 -88z" glyph-name="k" horiz-adv-x="570" unicode="k"/><glyph d="M35 0l191 714h98l-191 -714h-98z" glyph-name="l" horiz-adv-x="168" unicode="l"/><glyph d="M128 0h-98l134 500h98l-24 -88q-9 -33 -27 -71l2 -1q23 48 37 66q78 102 181 102q111 0 117 -104q1 -26 -14 -74h2q15 45 32 67q82 111 186 111q161 0 99 -229l-75 -279h-98l69 258q19 74 5 112.5t-59 38.5q-21 0 -44.5 -10t-51 -32.5t-53 -68t-42.5 -108.5l-51 -190h-98 l69 258q41 151 -49 151q-20 0 -44 -9.5t-53 -32t-55.5 -68.5t-43.5 -109z" glyph-name="m" horiz-adv-x="838" unicode="m"/><glyph d="M128 0h-98l134 500h98l-28 -103q-8 -30 -26 -67l2 -1q24 49 37 65q45 56 101.5 85t109.5 29q60 0 90 -36.5t28.5 -92.5t-17.5 -124l-69 -255h-98l69 255q20 71 4 113t-67 42q-23 0 -49.5 -9.5t-59.5 -31.5t-63 -69t-48 -113z" glyph-name="n" horiz-adv-x="521" unicode="n"/><glyph d="M297 -6q-118 0 -179.5 66t-28.5 190t130 190.5t215 65.5q119 -1 180 -66.5t28 -189.5q-34 -124 -130.5 -190t-214.5 -66zM187 250q-22 -84 16 -128t116 -44q77 0 140 44.5t85 127.5q21 81 -18 126.5t-114 46.5q-74 1 -138.5 -45.5t-86.5 -127.5z" glyph-name="o" horiz-adv-x="597" unicode="o"/><glyph d="M76 -200h-98l186 700h99l-17 -65q-9 -32 -30 -69l2 -1q25 43 45 60q43 36 105 59t113 22q114 -1 159 -65t10 -191q-34 -127 -113 -191.5t-193 -64.5q-49 0 -97 20t-73 53q-17 21 -21 71h-2q4 -43 -5 -75zM196 250q-21 -77 22.5 -126t114.5 -49q90 0 142.5 42.5 t76.5 132.5t-5 130.5t-121 41.5q-71 1 -140 -47t-90 -125z" glyph-name="p" horiz-adv-x="607" unicode="p"/><glyph d="M258 -6q-113 0 -158 64.5t-11 191.5t113 191t193 65q49 1 97.5 -20t74.5 -54q16 -22 20 -72h2q-4 43 5 75l17 65h98l-187 -700h-98l70 263q9 32 30 69l-1 2q-27 -45 -46 -61q-43 -35 -105 -57t-114 -22zM186 250q-24 -89 6 -132.5t120 -43.5q71 0 141 49.5t91 126.5 t-23 125t-116 47q-173 -1 -219 -172z" glyph-name="q" horiz-adv-x="603" unicode="q"/><glyph d="M128 0h-98l98 366q36 134 169 134h201l-25 -92l-169 -1q-43 0 -58 -12t-29 -63z" glyph-name="r" horiz-adv-x="387" unicode="r"/><glyph d="M61 144l99 17q-7 -49 25 -69.5t101 -20.5q146 0 170 91q6 22 -19 34t-66.5 15.5t-89 11t-87 18.5t-60.5 39t-9 72q14 50 50 84t83 48t80 18.5t66 4.5t65.5 -6t65.5 -19.5t50.5 -42t12.5 -67.5l-93 -13q3 40 -26.5 55.5t-97.5 15.5q-71 0 -108.5 -18t-49.5 -63 q-7 -26 29 -38.5t90.5 -17.5t108.5 -14.5t85.5 -38.5t17.5 -80q-14 -53 -52 -89.5t-87 -51.5t-83.5 -20t-68.5 -5q-22 0 -46 2.5t-56.5 12t-56 25t-37 44t-6.5 66.5z" glyph-name="s" horiz-adv-x="533" unicode="s"/><glyph d="M120 412l25 92h19q35 0 83 50.5t61 101.5l100 1q-15 -52 -56 -98q-26 -29 -51.5 -40t-73.5 -20v-2q37 7 69 7h177l-25 -92h-126l-72 -266q-8 -31 3 -42.5t37 -11.5h97l-25 -92h-91q-94 0 -117 39t4 126l66 247h-104z" glyph-name="t" horiz-adv-x="363" unicode="t"/><glyph d="M213 -6q-184 0 -117 253l69 255h98l-69 -255q-41 -154 81 -154q19 0 42.5 9t53 31t57 69t45.5 113l50 187h98l-134 -500h-98l26 96q10 35 26 67l-2 1q-34 -75 -92.5 -123.5t-133.5 -48.5z" glyph-name="u" horiz-adv-x="552" unicode="u"/><glyph d="M207 0l-53 500h106l40 -380q4 -32 -5 -75h2q9 39 28 69l244 386h104l-321 -500h-145z" glyph-name="v" horiz-adv-x="559" unicode="v"/><glyph d="M147 500h105l21 -395q2 -29 -7 -63h2q9 35 24 64l219 394h157l15 -395q2 -29 -9 -64h2q11 36 27 64l233 395h105l-298 -500h-159l-13 384q-2 35 9 74h-2q-11 -42 -29 -74l-212 -384h-160z" glyph-name="w" horiz-adv-x="920" unicode="w"/><glyph d="M18 0l263 252l-129 248h125l81 -155q8 -15 4 -35l2 -1q3 19 16 32l167 159h124l-260 -248l126 -252h-123l-81 159q-8 17 -4 36h-2q-4 -20 -16 -32l-169 -163h-124z" glyph-name="x" horiz-adv-x="555" unicode="x"/><glyph d="M48 -211h-88l21 79h51q28 0 68 17t63 53l48 80l-64 482h105l41 -328q5 -33 -6 -73h2q12 43 33 73l218 328h105l-382 -571q-47 -76 -105 -108t-110 -32z" glyph-name="y" horiz-adv-x="531" unicode="y"/><glyph d="M25 0l26 98l378 285q28 20 74 38v1q-42 -14 -77 -14h-283l25 92h471l-27 -98l-374 -284q-27 -21 -74 -39v-2q38 15 77 15h292l-25 -92h-483z" glyph-name="z" horiz-adv-x="534" unicode="z"/><glyph d="M248 -121q-30 0 -50.5 1.5t-42 6.5t-33 15.5t-19.5 27.5t-6.5 43t10.5 61l44 164q3 10 2.5 17.5t-3.5 12.5t-7.5 8.5t-10.5 5t-12 2.5t-11.5 1h-9.5h-4l25 92q48 0 66 19q10 11 15 28l44 164q11 41 28 69.5t36 44.5t47 24.5t52 11t60 2.5l-24 -91q-84 0 -106 -77 l-42 -160q-12 -45 -41 -65q-22 -16 -72 -12v-2q55 -5 67 -27q11 -20 1 -59l-42 -160q-11 -38 3.5 -57t60.5 -19z" glyph-name="braceleft" horiz-adv-x="323" unicode="{"/><glyph d="M-24 -200l242 900h97l-241 -900h-98z" glyph-name="bar" unicode="|"/><glyph d="M221 34q-11 -42 -28 -71t-36 -45.5t-46.5 -25t-52 -11t-61.5 -2.5l24 92q86 0 106 76l43 160q12 44 41 66q25 18 72 12v2q-57 7 -68 27q-12 20 -1 58l43 160q20 77 -65 77l25 91q29 0 49 -1.5t41.5 -6.5t33.5 -15.5t20.5 -27t7.5 -42t-10 -59.5l-44 -164 q-3 -10 -2.5 -17.5t3.5 -12.5t7.5 -8.5t10.5 -5t12 -2.5t11.5 -1h9.5h4l-24 -92q-48 0 -66 -19q-11 -11 -16 -28z" glyph-name="braceright" horiz-adv-x="316" unicode="}"/><glyph d="M274 386q40 1 72 -15.5t56.5 -33.5t48.5 -16q25 0 49 22t29 47l119 3q-13 -74 -72 -120t-138 -48q-39 -1 -69.5 15.5t-53 33t-42.5 14.5q-68 -4 -87 -80l-107 -3q9 68 66.5 123.5t128.5 57.5z" glyph-name="asciitilde" horiz-adv-x="565" unicode="~"/><glyph d="M290 500h-117l-26 -97h117zM192 313l-17 -206l-84 -315h-98l85 315l93 206h21z" glyph-name="exclamdown" horiz-adv-x="194" unicode="¡"/><glyph d="M266 96q-88 4 -134.5 71t-15.5 182t113.5 183t169.5 70l26 98h93l-27 -99q69 -1 114.5 -39.5t46.5 -108.5l-92 -33q-2 52 -36 73t-100 21q-171 0 -215 -165q-22 -84 16 -126t110 -41q127 1 189 99l72 -36q-39 -67 -104.5 -105.5t-133.5 -42.5l-26 -97h-92z" glyph-name="cent" horiz-adv-x="553" unicode="¢"/><glyph d="M624 0h-609l23 86q91 0 147.5 42t71.5 98q14 48 4 85h-119l44 72h62q-33 61 -14 135q25 90 107 138t195 49q109 1 164 -47t33 -145l-92 -7q9 62 -26.5 87.5t-98.5 25.5q-156 0 -185 -112q-16 -62 18 -124h167l-32 -72h-117q9 -41 -4 -85q-14 -54 -54.5 -95t-93.5 -55 l1 -2q36 12 74 12h345z" glyph-name="sterling" horiz-adv-x="642" unicode="£"/><glyph d="M70 164l84 62q-23 36 -6 99q16 62 60 98l-51 62l69 50l51 -62q50 36 119 36q68 0 96 -33l83 62l44 -54l-83 -62q25 -34 8 -97q-17 -64 -64 -102l50 -62l-69 -50l-49 62q-19 -14 -54 -24.5t-62 -10.5q-64 0 -97 34l-84 -62zM238 325q-12 -43 12 -74t68 -31t84.5 31 t51.5 74q12 43 -11.5 74t-67.5 31q-45 0 -85.5 -31t-51.5 -74z" glyph-name="currency" horiz-adv-x="517" unicode="¤"/><glyph d="M220 101l19 71h116l14 54h-115l19 74h116l12 45l-156 354h120l95 -231q14 -33 7 -72l1 -1q9 41 33 65l232 239h121l-355 -354l-12 -45h115l-20 -74h-115l-14 -54h115l-19 -71h-115l-28 -101h-97l27 101h-116z" glyph-name="yen" horiz-adv-x="711" unicode="¥"/><glyph d="M116 319l101 379h98l-102 -379h-97zM-24 -200l102 379h98l-102 -379h-98z" glyph-name="brokenbar" unicode="¦"/><glyph d="M258 -109q-44 0 -81.5 7.5t-71.5 24.5t-51.5 50.5t-12.5 79.5l99 9q-4 -98 138 -98q162 0 187 93q7 25 -20 40.5t-71.5 21.5t-96 15.5t-94.5 22t-66 41.5t-11 72q10 40 48.5 68t82 39t87.5 11v2q-47 0 -75 9q-108 35 -88 111q14 53 54.5 89.5t93 51.5t90.5 20t75 5 q40 0 77.5 -7.5t73 -24t54.5 -49.5t14 -79l-95 -12q2 31 -9.5 52.5t-34.5 31.5t-46.5 13.5t-53.5 3.5q-147 0 -171 -92q-8 -29 29 -45t93.5 -25.5t112.5 -21.5t89 -42.5t20 -78.5t-44 -70t-80 -36q-26 -10 -74 -12v-2q47 2 75 -8q90 -27 67 -115q-14 -53 -54.5 -89.5 t-93 -51.5t-90.5 -20t-75 -5zM208 282q-5 -18 3 -32t28.5 -23t38.5 -13.5t44 -8.5q30 -4 44 -4q61 0 106.5 26t55.5 62q4 15 -2.5 27.5t-16.5 20t-30 14t-31.5 9t-32.5 6.5q-20 4 -45 4q-60 0 -106 -25t-56 -63z" glyph-name="section" horiz-adv-x="579" unicode="§"/><glyph d="M260 549h-98l40 151h98zM332 549l41 151h98l-41 -151h-98z" glyph-name="dieresis" horiz-adv-x="298" unicode="¨"/><glyph d="M418 -50q-169 0 -259.5 110t-49.5 265q42 155 191.5 265t318.5 110q170 0 260.5 -110t49.5 -265q-42 -155 -191.5 -265t-319.5 -110zM187 325q-35 -127 38.5 -217t211.5 -90q137 0 258.5 90t155.5 217t-39.5 217t-210.5 90t-258.5 -90t-155.5 -217zM468 113 q-98 -1 -147.5 54t-22.5 158t106.5 158.5t177.5 54.5q75 -1 124 -39t46 -108l-84 -15q-4 86 -107 86q-138 2 -175 -137q-17 -67 11.5 -102t90.5 -35q42 1 84 23t65 59l79 -12q-34 -69 -103.5 -106.5t-144.5 -38.5z" glyph-name="copyright" horiz-adv-x="860" unicode="©"/><glyph d="M410 465q-28 -32 -70 -49.5t-85 -17.5q-53 0 -84 25.5t-19 70.5q11 41 44.5 63t74 26.5t80 5t68 5t31.5 19.5q8 37 -11 53.5t-67 16.5q-91 0 -117 -66l-58 9q21 57 74.5 84t114.5 26q32 0 58 -6.5t46.5 -21.5t26 -40t-2.5 -63l-33 -123q-3 -13 0 -17t14 -4h16l-17 -63 h-45q-25 0 -36.5 15.5t-5.5 37.5zM220 495q-7 -25 12.5 -38t53.5 -13q45 0 87.5 20.5t50.5 53.5l12 43q-24 -12 -76.5 -12.5t-91 -9.5t-48.5 -44z" glyph-name="ordfeminine" horiz-adv-x="405" unicode="ª"/><glyph d="M399 479l-28 -104l-181 -99l127 -101l-27 -101l-214 155l26 95zM640 479l-28 -104l-180 -99l127 -101l-27 -101l-214 155l26 95z" glyph-name="guillemotleft" horiz-adv-x="527" unicode="«"/><glyph d="M132 400h497l-82 -303h-98l57 211h-398z" glyph-name="logicalnot" horiz-adv-x="550" unicode="¬"/><glyph d="M301 425q-69 0 -105.5 47t-19.5 113q18 66 80 113t131 47q70 0 106.5 -47t18.5 -113q-17 -66 -79 -113t-132 -47zM217 585q-13 -50 14.5 -86t80.5 -36q52 0 99 36t60 86q14 50 -14 86t-80 36t-99 -36t-61 -86zM262 506l43 160h71q59 0 45 -50q-2 -7 -4.5 -12.5t-6 -9 l-5.5 -5.5t-7 -5t-7 -4l6 -1q15 0 10 -23l-14 -50h-29l12 41q3 12 -10 12h-61l-14 -53h-29zM327 643l-15 -59h38q35 0 43 28q8 31 -25 31h-41z" glyph-name="registered" horiz-adv-x="375" unicode="®"/><glyph d="M177 587l21 77h326l-21 -77h-326z" glyph-name="macron" horiz-adv-x="366" unicode="¯"/><glyph d="M313 433q-72 0 -111 46t-22 110q17 65 80.5 110.5t136.5 45.5q72 0 111 -46t22 -110q-18 -65 -81.5 -110.5t-135.5 -45.5zM258 589q-10 -38 11.5 -64t61.5 -26t75 26.5t45 63.5t-11 63.5t-61 26.5q-41 0 -76 -26.5t-45 -63.5z" glyph-name="degree" horiz-adv-x="394" unicode="°"/><glyph d="M470 535l21 -116l129 -54l-62 -38l-154 -40l-92 -120l-27 40l-21 120l-135 54l63 38l159 38l91 116zM360 6l-317 55l175 38l316 -55z" glyph-name="plusminus" horiz-adv-x="549" unicode="±"/><glyph d="M397 400h-268l3 10q13 49 45 85.5t68.5 55.5t71.5 33.5t61.5 31t31.5 36.5q17 65 -61 65q-77 0 -97 -68l-49 4q36 110 161 110q60 0 87 -27t13 -79q-10 -35 -38 -59.5t-59.5 -36t-71 -34t-64.5 -51.5q-29 -30 -57 -44l1 -2q36 17 72 17h163z" glyph-name="uni00B2" horiz-adv-x="312" unicode="²"/><glyph d="M265 405q-58 0 -86 25.5t-18 76.5l48 3q-6 -27 13.5 -43.5t51.5 -16.5q34 0 62 17t36 47q7 27 -9 40t-57 14h-22l8 33h23q72 0 85 55q8 27 -8.5 42t-46.5 15q-28 0 -54 -17t-35 -42l-46 3q15 47 54 71t94 24q52 -1 76 -23.5t12 -66.5q-10 -32 -35 -51q-25 -18 -71 -16v-2 q56 -2 70 -20q19 -21 7 -64q-14 -51 -54.5 -77.5t-97.5 -26.5z" glyph-name="uni00B3" horiz-adv-x="306" unicode="³"/><glyph d="M239 556h-82l96 142h113z" glyph-name="acute" horiz-adv-x="190" unicode="´"/><glyph d="M359 287q-115 0 -168.5 56t-27.5 154q25 96 109.5 152.5t199.5 56.5h97l-212 -794h-98zM551 -88h-97l212 794h98z" glyph-name="paragraph" horiz-adv-x="605" unicode="¶"/><glyph d="M219 341h-108l27 100h108z" glyph-name="periodcentered" horiz-adv-x="148" unicode="·"/><glyph d="M-55 -208l55 44q19 -42 69 -42q29 0 54.5 15.5t32.5 39.5q3 11 -2 20t-18.5 13.5t-25.5 7.5t-32.5 4.5t-29 1.5h-25.5l88 118h87l-55 -71q46 0 70.5 -24t11.5 -72q-15 -57 -61 -87t-102 -30q-41 0 -73 16.5t-44 45.5z" glyph-name="cedilla" horiz-adv-x="282" unicode="¸"/><glyph d="M192 635l12 44q73 0 89 58h47l-90 -334h-47l62 230q9 33 31 68l-2 1q-1 -2 -7 -12t-9 -14.5t-9 -11.5t-11 -11.5t-11 -7.5q-19 -10 -55 -10z" glyph-name="uni00B9" horiz-adv-x="164" unicode="¹"/><glyph d="M290 378q-81 0 -111 49t-8 130q23 82 79 131.5t136 48.5q80 0 110 -49t8 -131q-22 -81 -78 -130t-136 -49zM221 557q-16 -58 8 -93t74 -35q51 0 93.5 35t58.5 93q15 60 -9 94t-74 35q-49 1 -92 -34.5t-59 -94.5z" glyph-name="ordmasculine" horiz-adv-x="379" unicode="º"/><glyph d="M385 479l214 -155l-26 -95l-297 -155l28 101l181 101l-128 99zM143 479l214 -155l-26 -95l-296 -155l27 101l181 101l-128 99z" glyph-name="guillemotright" horiz-adv-x="548" unicode="»"/><glyph d="M200 0l537 700h96l-536 -700h-97zM572 114l10 39l247 261h81l-67 -248h76l-6 -52h-61q-22 0 -34 17l-1 -1q12 -18 6 -38l-24 -92h-59l31 114h-199zM181 564l16 59q98 0 118 77h62l-119 -444h-62l89 330q6 21 19 48h-1q-18 -35 -29 -44q-28 -26 -93 -26zM663 169h123 l53 198z" glyph-name="onequarter" horiz-adv-x="914" unicode="¼"/><glyph d="M118 0l537 700h96l-536 -700h-97zM447 -4l3 12q15 56 51 97t77.5 62.5t81.5 38t70 35t36 41.5q20 75 -69 75q-39 0 -69.5 -19t-41.5 -58l-56 4q42 126 184 126q68 0 98.5 -30.5t15.5 -90.5q-9 -35 -33 -59t-55 -39t-63.5 -29t-67 -37.5t-58.5 -55.5q-16 -19 -36 -30l1 -1 q22 12 43 12h207l-15 -54h-304zM185 577l14 53q88 0 107 70h56l-108 -401h-56l80 298q7 24 18 43h-1q-20 -34 -26 -39q-26 -24 -84 -24z" glyph-name="onehalf" horiz-adv-x="782" unicode="½"/><glyph d="M230 0l537 700h96l-536 -700h-97zM261 286q-70 0 -104 31t-22 92l58 4q-8 -32 16 -52t63 -20q41 0 74.5 20.5t42.5 56.5q9 33 -10.5 49t-68.5 16h-26l9 41h28q85 0 103 65q9 33 -11 51t-56 18q-34 0 -65 -21t-42 -50l-55 4q18 57 65 86t113 28q62 -1 91 -28t14 -81 q-9 -36 -38 -59t-66 -25v-1q27 2 42 -6q47 -22 28 -93q-16 -61 -65 -93.5t-118 -32.5zM703 102h-180l9 35l224 237h73l-60 -225h69l-6 -47h-55q-19 0 -31 15l-1 -1q11 -14 6 -34l-22 -84h-53zM606 151h111l48 180z" glyph-name="threequarters" horiz-adv-x="830" unicode="¾"/><glyph d="M191 -199q-107 0 -154.5 52t-19.5 155q12 44 41.5 75.5t65 50.5t71.5 39t66.5 55t43.5 84l5 17h98l-5 -17q-16 -62 -49.5 -107t-70 -69.5t-71.5 -43t-62 -41t-35 -50.5q-16 -58 9 -90t88 -32q67 0 111.5 36t61.5 93h98q-25 -96 -105.5 -151.5t-186.5 -55.5zM319 401 l27 100h117l-27 -100h-117z" glyph-name="questiondown" horiz-adv-x="496" unicode="¿"/><glyph d="M159 0h-106l451 700h143l77 -700h-106l-20 167h-332zM551 612l-231 -358q151 0 184 -4q74 -7 93 -73zM508 900h120l20 -142h-88z" glyph-name="Agrave" horiz-adv-x="745" unicode="À"/><glyph d="M157 0h-106l451 700h143l77 -700h-106l-20 167h-332zM549 612l-231 -358q151 0 184 -4q74 -7 93 -73zM528 758l96 142h111l-128 -142h-79z" glyph-name="Aacute" horiz-adv-x="741" unicode="Á"/><glyph d="M51 0l451 700h143l77 -700h-106l-20 167h-332l-107 -167h-106zM549 612l-231 -358q151 0 184 -4q74 -7 93 -73zM395 780l165 140h135l90 -140h-115l-55 90l-105 -90h-115z" glyph-name="Acircumflex" horiz-adv-x="741" unicode="Â"/><glyph d="M51 0l451 700h143l77 -700h-106l-20 167h-332l-107 -167h-106zM549 612l-231 -358q151 0 184 -4q74 -7 93 -73zM378 778q59 109 173 109q32 0 54 -14t38 -28.5t32 -15.5q43 -3 78 58l73 -17q-21 -50 -65 -85t-105 -33q-31 1 -50 15t-34 27.5t-35 14.5q-30 2 -56.5 -14 t-41.5 -40z" glyph-name="Atilde" horiz-adv-x="741" unicode="Ã"/><glyph d="M51 0l451 700h143l77 -700h-106l-20 167h-332l-107 -167h-106zM549 612l-231 -358q151 0 184 -4q74 -7 93 -73zM465 811l24 89h98l-24 -89h-98zM731 811h-98l24 89h98z" glyph-name="Adieresis" horiz-adv-x="741" unicode="Ä"/><glyph d="M157 0h-106l451 700h143l77 -700h-106l-20 167h-332zM549 612l-231 -358q151 0 184 -4q74 -7 93 -73zM583 743q-49 0 -75.5 29t-15.5 70t52.5 69.5t90.5 28.5t75 -28.5t15 -69.5q-10 -41 -52 -70t-90 -29zM550 842q-5 -22 8 -37.5t37 -15.5q23 0 44.5 15.5t27.5 37.5 q5 21 -8 36.5t-36 15.5q-24 0 -45.5 -15.5t-27.5 -36.5z" glyph-name="Aring" horiz-adv-x="741" unicode="Å"/><glyph d="M130 0h-105l452 700h639l-25 -92h-383l-55 -205h328l-22 -82h-328l-61 -229h383l-25 -92h-481l51 190h-246zM547 647l-233 -361h210l97 361h-74z" glyph-name="AE" horiz-adv-x="959" unicode="Æ"/><glyph d="M116 350q47 176 166 267.5t271 89.5q125 -2 197.5 -64t68.5 -182l-102 -26q2 79 -47 126t-144 47q-115 1 -197.5 -68t-114.5 -190q-33 -121 14 -190t159 -68q97 0 170.5 47t113.5 126l88 -26q-55 -109 -147.5 -170.5t-205.5 -72.5l-40 -54q46 0 70 -23.5t11 -71.5 q-15 -57 -61 -87t-102 -30q-41 0 -73 16.5t-44 45.5l54 46q7 -20 29 -32t49 -12q63 0 79 55q5 17 -5.5 27.5t-35.5 14t-39 4.5t-39 1l27 40l36 58q-133 11 -191.5 102t-14.5 254z" glyph-name="Ccedilla" horiz-adv-x="717" unicode="Ç"/><glyph d="M744 700l-25 -92h-428l-61 -227h414l-22 -82h-414l-55 -207h428l-25 -92h-526l188 700h526zM537 900l20 -142h-88l-52 142h120z" glyph-name="Egrave" horiz-adv-x="583" unicode="È"/><glyph d="M744 700l-25 -92h-428l-61 -227h414l-22 -82h-414l-55 -207h428l-25 -92h-526l188 700h526zM515 758h-80l96 142h111z" glyph-name="Eacute" horiz-adv-x="583" unicode="É"/><glyph d="M556 0h-526l188 700h526l-25 -92h-428l-61 -227h414l-22 -82h-414l-55 -207h428zM425 775h-115l165 140h135l90 -140h-114l-56 91z" glyph-name="Ecircumflex" horiz-adv-x="583" unicode="Ê"/><glyph d="M556 0h-526l188 700h526l-25 -92h-428l-61 -227h414l-22 -82h-414l-55 -207h428zM383 812l24 88h98l-24 -88h-98zM551 812l24 88h98l-24 -88h-98z" glyph-name="Edieresis" horiz-adv-x="583" unicode="Ë"/><glyph d="M30 0l188 700h97l-187 -700h-98zM331 900l20 -142h-88l-51 142h119z" glyph-name="Igrave" unicode="Ì"/><glyph d="M30 0l188 700h97l-187 -700h-98zM321 758h-79l96 142h111z" glyph-name="Iacute" unicode="Í"/><glyph d="M128 0h-98l188 700h97zM105 774l165 140h135l90 -140h-115l-55 90l-105 -90h-115z" glyph-name="Icircumflex" unicode="Î"/><glyph d="M128 0h-98l188 700h97zM447 812h-98l24 88h98zM279 812h-98l24 88h97z" glyph-name="Idieresis" unicode="Ï"/><glyph d="M165 398l81 302h280q155 0 231.5 -89.5t31.5 -260.5q-31 -115 -101.5 -195.5t-159.5 -117.5t-189 -37h-281l80 300h-68l27 98h68zM441 300h-204q-8 -31 -27.5 -102t-28.5 -106h188q47 0 94 14t92 43.5t81 81t54 119.5q26 91 2 148.5t-72 83.5t-113 26h-255q28 0 46 -7 t13 -24q-1 -5 -7.5 -28.5t-18 -67t-22.5 -83.5h204z" glyph-name="Eth" horiz-adv-x="715" unicode="Ð"/><glyph d="M30 0l188 700h100l248 -516q17 -38 19 -79l2 1q-2 50 9 87l135 507h98l-187 -700h-101l-249 510q-16 31 -20 79l-2 -1q3 -43 -8 -88l-134 -500h-98zM334 777q57 109 173 109q32 0 54 -14t37.5 -28.5t31.5 -15.5q46 -3 78 58l73 -17q-20 -50 -64.5 -85t-104.5 -33 q-40 2 -69 29t-50 28q-30 1 -57.5 -15t-41.5 -40z" glyph-name="Ntilde" horiz-adv-x="672" unicode="Ñ"/><glyph d="M369 -7q-99 0 -165.5 39t-93.5 118t6 200q47 175 170 267t274 90q153 -2 226.5 -93t27.5 -264q-47 -174 -170 -265.5t-275 -91.5zM214 350q-32 -120 23 -192.5t157 -72.5q105 0 197 72t124 193q33 121 -22 192t-157 73q-65 1 -129.5 -29.5t-117.5 -92.5t-75 -143z M483 900h120l20 -142h-88z" glyph-name="Ograve" horiz-adv-x="742" unicode="Ò"/><glyph d="M369 -7q-99 0 -165.5 39t-93.5 118t6 200q47 175 170 267t274 90q153 -2 226.5 -93t27.5 -264q-47 -174 -170 -265.5t-275 -91.5zM214 350q-32 -120 23 -192.5t157 -72.5q105 0 197 72t124 193q33 121 -22 192t-157 73q-65 1 -129.5 -29.5t-117.5 -92.5t-75 -143z M504 758l96 142h111l-127 -142h-80z" glyph-name="Oacute" horiz-adv-x="742" unicode="Ó"/><glyph d="M369 -7q-99 0 -165.5 39t-93.5 118t6 200q47 175 170 267t274 90q153 -2 226.5 -93t27.5 -264q-47 -174 -170 -265.5t-275 -91.5zM214 350q-32 -120 23 -192.5t157 -72.5q105 0 197 72t124 193q33 121 -22 192t-157 73q-65 1 -129.5 -29.5t-117.5 -92.5t-75 -143z M385 781l165 140h135l90 -140h-115l-55 90l-105 -90h-115z" glyph-name="Ocircumflex" horiz-adv-x="742" unicode="Ô"/><glyph d="M369 -7q-99 0 -165.5 39t-93.5 118t6 200q47 175 170 267t274 90q153 -2 226.5 -93t27.5 -264q-47 -174 -170 -265.5t-275 -91.5zM214 350q-32 -120 23 -192.5t157 -72.5q105 0 197 72t124 193q33 121 -22 192t-157 73q-65 1 -129.5 -29.5t-117.5 -92.5t-75 -143z M363 778q57 109 172 109q32 0 54.5 -14t38 -28.5t31.5 -15.5q45 -3 78 58l73 -17q-21 -50 -65 -85t-105 -33q-39 2 -67.5 29t-50.5 28q-31 2 -57.5 -14t-41.5 -40z" glyph-name="Otilde" horiz-adv-x="742" unicode="Õ"/><glyph d="M369 -7q-99 0 -165.5 39t-93.5 118t6 200q47 175 170 267t274 90q153 -2 226.5 -93t27.5 -264q-47 -174 -170 -265.5t-275 -91.5zM214 350q-32 -120 23 -192.5t157 -72.5q105 0 197 72t124 193q33 121 -22 192t-157 73q-65 1 -129.5 -29.5t-117.5 -92.5t-75 -143z M557 812h-98l24 88h98zM627 812l24 88h98l-24 -88h-98z" glyph-name="Odieresis" horiz-adv-x="742" unicode="Ö"/><glyph d="M380 331l205 -1l-24 -92l-205 1l-50 -186h-98l50 186l-193 -1l25 92l193 1l49 185h98z" glyph-name="multiply" horiz-adv-x="498" unicode="×"/><glyph d="M182 46q-123 93 -66 304q47 175 170 267t274 90q61 0 115 -17l40 52h109l-71 -93q115 -94 61 -299q-47 -174 -170 -265.5t-275 -91.5q-57 0 -108 14l-46 -60h-110zM253 139l355 464q-33 12 -72 12q-65 1 -129.5 -29.5t-117.5 -92.5t-75 -143q-36 -136 39 -211zM328 95 q29 -10 66 -10q105 0 197 72t124 193q36 130 -34 206z" glyph-name="Oslash" horiz-adv-x="742" unicode="Ø"/><glyph d="M112 304l106 396h97l-106 -397q-27 -101 14.5 -160t138.5 -59t169 58t100 161l106 397h98l-106 -396q-41 -152 -150.5 -232t-240.5 -80q-137 0 -202 79t-24 233zM456 900h119l20 -142h-88z" glyph-name="Ugrave" horiz-adv-x="677" unicode="Ù"/><glyph d="M112 304l106 396h97l-106 -397q-27 -101 14.5 -160t138.5 -59t169 58t100 161l106 397h98l-106 -396q-41 -152 -150.5 -232t-240.5 -80q-137 0 -202 79t-24 233zM485 758l96 142h112l-128 -142h-80z" glyph-name="Uacute" horiz-adv-x="677" unicode="Ú"/><glyph d="M112 304l106 396h97l-106 -397q-27 -101 14.5 -160t138.5 -59t169 58t100 161l106 397h98l-106 -396q-41 -152 -150.5 -232t-240.5 -80q-137 0 -202 79t-24 233zM353 779l165 140h135l90 -140h-115l-55 91l-105 -91h-115z" glyph-name="Ucircumflex" horiz-adv-x="677" unicode="Û"/><glyph d="M112 304l106 396h97l-106 -397q-27 -101 14.5 -160t138.5 -59t169 58t100 161l106 397h98l-106 -396q-41 -152 -150.5 -232t-240.5 -80q-137 0 -202 79t-24 233zM526 812h-98l23 88h98zM694 812h-98l24 88h98z" glyph-name="Udieresis" horiz-adv-x="677" unicode="Ü"/><glyph d="M381 329l-178 370h121l117 -248q13 -30 3 -68h2q11 41 40 68l249 248h121l-377 -370l-88 -329h-98zM569 758h-79l96 142h111z" glyph-name="Yacute" horiz-adv-x="684" unicode="Ý"/><glyph d="M30 0l188 700h98l-30 -110h191q126 0 180 -59.5t24 -172.5q-30 -111 -116 -171.5t-213 -60.5h-190l-34 -126h-98zM264 507l-80 -297h168q190 0 231 148q9 42 6 75t-42 53.5t-116 20.5h-167z" glyph-name="Thorn" horiz-adv-x="609" unicode="Þ"/><glyph d="M128 0h-98l141 527q21 79 102 127.5t177 48.5q126 0 180 -40.5t29 -135.5q-26 -97 -174 -139q161 -27 121 -176q-57 -212 -359 -212l22 84q99 -4 161 35t80 103q16 60 -21.5 94t-147.5 35l18 68q66 0 121.5 26.5t68.5 73.5q16 60 -14 87t-103 27q-57 0 -105 -34.5 t-63 -88.5z" glyph-name="germandbls" horiz-adv-x="573" unicode="ß"/><glyph d="M462 123q-36 -60 -101 -91t-135 -31q-79 0 -126.5 38t-29.5 103q16 61 66 94t110.5 40t119.5 7.5t101 7t47 28.5q12 56 -17 80.5t-101 24.5q-65 0 -109.5 -21.5t-66.5 -76.5l-82 12q31 84 110 125t169 40q48 0 85.5 -10t68.5 -32.5t38.5 -60t-4.5 -93.5l-49 -182 q-5 -19 0 -25.5t22 -6.5h23l-25 -93h-64q-37 0 -54 22.5t-8 56.5zM167 144q-10 -38 19.5 -57.5t81.5 -19.5q68 0 131.5 30.5t76.5 79.5l18 66q-31 -16 -87.5 -20t-102 -3t-86 -17t-51.5 -59zM405 558l-52 142h120l20 -142h-88z" glyph-name="agrave" horiz-adv-x="601" unicode="à"/><glyph d="M462 123q-36 -60 -101 -91t-135 -31q-79 0 -126.5 38t-29.5 103q16 61 66 94t110.5 40t119.5 7.5t101 7t47 28.5q12 56 -17 80.5t-101 24.5q-65 0 -109.5 -21.5t-66.5 -76.5l-82 12q31 84 110 125t169 40q48 0 85.5 -10t68.5 -32.5t38.5 -60t-4.5 -93.5l-49 -182 q-5 -19 0 -25.5t22 -6.5h23l-25 -93h-64q-37 0 -54 22.5t-8 56.5zM167 144q-10 -38 19.5 -57.5t81.5 -19.5q68 0 131.5 30.5t76.5 79.5l18 66q-31 -16 -87.5 -20t-102 -3t-86 -17t-51.5 -59zM389 558l96 142h111l-128 -142h-79z" glyph-name="aacute" horiz-adv-x="604" unicode="á"/><glyph d="M462 123q-36 -60 -101 -91t-135 -31q-79 0 -126.5 38t-29.5 103q16 61 66 94t110.5 40t119.5 7.5t101 7t47 28.5q12 56 -17 80.5t-101 24.5q-65 0 -109.5 -21.5t-66.5 -76.5l-82 12q31 84 110 125t169 40q48 0 85.5 -10t68.5 -32.5t38.5 -60t-4.5 -93.5l-49 -182 q-5 -19 0 -25.5t22 -6.5h23l-25 -93h-64q-37 0 -54 22.5t-8 56.5zM167 144q-10 -38 19.5 -57.5t81.5 -19.5q68 0 131.5 30.5t76.5 79.5l18 66q-31 -16 -87.5 -20t-102 -3t-86 -17t-51.5 -59zM249 576l164 140h136l89 -140h-114l-56 91l-105 -91h-114z" glyph-name="acircumflex" horiz-adv-x="604" unicode="â"/><glyph d="M462 123q-36 -60 -101 -91t-135 -31q-79 0 -126.5 38t-29.5 103q16 61 66 94t110.5 40t119.5 7.5t101 7t47 28.5q12 56 -17 80.5t-101 24.5q-65 0 -109.5 -21.5t-66.5 -76.5l-82 12q31 84 110 125t169 40q48 0 85.5 -10t68.5 -32.5t38.5 -60t-4.5 -93.5l-49 -182 q-5 -19 0 -25.5t22 -6.5h23l-25 -93h-64q-37 0 -54 22.5t-8 56.5zM167 144q-10 -38 19.5 -57.5t81.5 -19.5q68 0 131.5 30.5t76.5 79.5l18 66q-31 -16 -87.5 -20t-102 -3t-86 -17t-51.5 -59zM232 578q59 109 173 109q32 0 54 -14t38 -28.5t32 -15.5q43 -3 78 58l73 -17 q-21 -50 -65 -85t-105 -33q-31 1 -50 15t-34 27.5t-35 14.5q-30 2 -56.5 -14t-41.5 -40z" glyph-name="atilde" horiz-adv-x="604" unicode="ã"/><glyph d="M462 123q-36 -60 -101 -91t-135 -31q-79 0 -126.5 38t-29.5 103q16 61 66 94t110.5 40t119.5 7.5t101 7t47 28.5q12 56 -17 80.5t-101 24.5q-65 0 -109.5 -21.5t-66.5 -76.5l-82 12q31 84 110 125t169 40q48 0 85.5 -10t68.5 -32.5t38.5 -60t-4.5 -93.5l-49 -182 q-5 -19 0 -25.5t22 -6.5h23l-25 -93h-64q-37 0 -54 22.5t-8 56.5zM167 144q-10 -38 19.5 -57.5t81.5 -19.5q68 0 131.5 30.5t76.5 79.5l18 66q-31 -16 -87.5 -20t-102 -3t-86 -17t-51.5 -59zM426 612h-98l24 88h98zM594 612h-98l24 88h98z" glyph-name="adieresis" horiz-adv-x="604" unicode="ä"/><glyph d="M462 123q-36 -60 -101 -91t-135 -31q-79 0 -126.5 38t-29.5 103q16 61 66 94t110.5 40t119.5 7.5t101 7t47 28.5q12 56 -17 80.5t-101 24.5q-65 0 -109.5 -21.5t-66.5 -76.5l-82 12q31 84 110 125t169 40q48 0 85.5 -10t68.5 -32.5t38.5 -60t-4.5 -93.5l-49 -182 q-5 -19 0 -25.5t22 -6.5h23l-25 -93h-64q-37 0 -54 22.5t-8 56.5zM167 144q-10 -38 19.5 -57.5t81.5 -19.5q68 0 131.5 30.5t76.5 79.5l18 66q-31 -16 -87.5 -20t-102 -3t-86 -17t-51.5 -59zM436 544q-50 0 -76 28.5t-16 70.5q11 41 53 69t91 28t75 -28.5t15 -68.5 q-11 -42 -52.5 -70.5t-89.5 -28.5zM403 643q-6 -22 7 -37.5t38 -15.5q23 0 44.5 15.5t26.5 37.5q6 21 -7 36t-36 15q-25 0 -46 -15t-27 -36z" glyph-name="aring" horiz-adv-x="604" unicode="å"/><glyph d="M473 154q-38 -75 -112.5 -115.5t-152.5 -40.5q-77 0 -121.5 38.5t-26.5 105.5q17 64 64 99t102.5 42.5t109.5 9t93.5 9.5t46.5 33q11 39 -15.5 65t-73.5 32q-26 3 -56 -3t-63 -30t-48 -62l-92 8q21 56 68.5 93t100 51.5t109.5 13.5q67 -1 107 -36t42 -94 q32 55 106.5 94.5t153.5 38.5q112 -1 162 -66t17 -190q-2 -6 -3 -9.5t-3 -7.5t-4 -9h-430q-20 -72 21 -109.5t98 -36.5q46 1 104.5 26t87.5 66l93 -14q-41 -78 -124 -119.5t-175 -42.5q-87 -1 -137.5 42t-48.5 118zM157 148q-9 -33 16 -52.5t68 -19.5q64 0 126 44.5 t85 129.5l6 20q-19 -17 -68 -27t-95 -15t-87 -25t-51 -55zM780 429q-70 0 -134.5 -55.5t-91.5 -149.5q31 36 57 44.5t77 8.5h210q32 152 -118 152z" glyph-name="ae" horiz-adv-x="948" unicode="æ"/><glyph d="M89 250q33 124 129 190.5t213 65.5q90 -1 149 -46.5t56 -129.5l-93 -14q-9 106 -134 108q-75 1 -137.5 -46t-84.5 -128q-22 -83 15 -129t114 -44q124 2 190 105l87 -13q-37 -73 -105 -117t-147 -54l-42 -56q46 0 70 -23.5t11 -71.5q-15 -57 -61 -87t-102 -30 q-41 0 -73 16.5t-44 45.5l54 46q7 -20 29 -32t49 -12q63 0 79 55q3 11 -1 20t-16 13.5t-22 7.5t-29 4.5t-27 1.5h-24l64 100q-101 10 -149 75.5t-18 178.5z" glyph-name="ccedilla" horiz-adv-x="570" unicode="ç"/><glyph d="M294 -6q-118 -1 -178 65.5t-27 190.5t129 190.5t213 65.5t174.5 -66.5t23.5 -189.5q-2 -10 -9 -28h-436q-9 -73 27 -111t107 -37q130 2 193 99l86 -12q-96 -165 -303 -167zM413 429q-74 1 -142 -54t-87 -153q20 38 41.5 49t61.5 11h258q9 74 -26 110t-106 37zM372 700 h120l20 -142h-88z" glyph-name="egrave" horiz-adv-x="587" unicode="è"/><glyph d="M294 -6q-118 -1 -178 65.5t-27 190.5t129 190.5t213 65.5t174.5 -66.5t23.5 -189.5q-2 -10 -9 -28h-436q-9 -73 27 -111t107 -37q130 2 193 99l86 -12q-96 -165 -303 -167zM413 429q-74 1 -142 -54t-87 -153q20 38 41.5 49t61.5 11h258q9 74 -26 110t-106 37zM394 558 l96 142h111l-128 -142h-79z" glyph-name="eacute" horiz-adv-x="584" unicode="é"/><glyph d="M294 -6q-118 -1 -178 65.5t-27 190.5t129 190.5t213 65.5t174.5 -66.5t23.5 -189.5q-2 -10 -9 -28h-436q-9 -73 27 -111t107 -37q130 2 193 99l86 -12q-96 -165 -303 -167zM413 429q-74 1 -142 -54t-87 -153q20 38 41.5 49t61.5 11h258q9 74 -26 110t-106 37zM259 581 l164 140h136l89 -140h-114l-56 90l-105 -90h-114z" glyph-name="ecircumflex" horiz-adv-x="584" unicode="ê"/><glyph d="M294 -6q-118 -1 -178 65.5t-27 190.5t129 190.5t213 65.5t174.5 -66.5t23.5 -189.5q-2 -10 -9 -28h-436q-9 -73 27 -111t107 -37q130 2 193 99l86 -12q-96 -165 -303 -167zM413 429q-74 1 -142 -54t-87 -153q20 38 41.5 49t61.5 11h258q9 74 -26 110t-106 37zM597 612 h-98l24 88h98zM331 612l23 88h98l-23 -88h-98z" glyph-name="edieresis" horiz-adv-x="584" unicode="ë"/><glyph d="M30 0l134 500h98l-134 -500h-98zM264 700l20 -142h-88l-52 142h120z" glyph-name="igrave" unicode="ì"/><glyph d="M30 0l134 500h98l-134 -500h-98zM253 558h-79l96 142h111z" glyph-name="iacute" unicode="í"/><glyph d="M30 0l134 500h98l-134 -500h-98zM40 581l164 140h136l89 -140h-114l-56 90l-105 -90h-114z" glyph-name="icircumflex" unicode="î"/><glyph d="M128 0h-98l134 500h98zM209 612h-98l24 88h98zM377 612h-97l23 88h98z" glyph-name="idieresis" unicode="ï"/><glyph d="M294 -4q-55 0 -98.5 12.5t-76 39.5t-42 70t4.5 104q27 105 118 164.5t191 59.5q72 0 121.5 -32t56.5 -93q18 100 -7 202l-134 -27l-11 62l115 25q-7 19 -22 30t-26.5 13.5t-33.5 5.5q-53 7 -101 -19l-44 58q70 34 150 34q77 0 122.5 -23.5t69.5 -77.5l45 8l9 -63l-42 -7 q23 -120 -6 -229q-43 -158 -137.5 -237.5t-221.5 -79.5zM182 223q-20 -76 26.5 -110.5t123.5 -30.5q57 3 117.5 45.5t79.5 102.5q23 68 -22 108t-109 38q-78 -3 -137 -41t-79 -112z" glyph-name="eth" horiz-adv-x="591" unicode="ð"/><glyph d="M128 0h-98l134 500h98l-28 -103q-8 -30 -26 -67l2 -1q24 49 37 65q45 56 101.5 85t109.5 29q60 0 90 -36.5t28.5 -92.5t-17.5 -124l-69 -255h-98l69 255q20 71 4 113t-67 42q-23 0 -49.5 -9.5t-59.5 -31.5t-63 -69t-48 -113zM281 555l-61 23q59 109 173 109q32 0 54 -14 t38 -28.5t32 -15.5q43 -3 78 58l73 -17q-21 -50 -65 -85t-105 -33q-31 1 -50 15t-34 27.5t-35 14.5q-30 2 -56.5 -14t-41.5 -40z" glyph-name="ntilde" horiz-adv-x="520" unicode="ñ"/><glyph d="M297 -6q-118 0 -179.5 66t-28.5 190t130 190.5t215 65.5q119 -1 180 -66.5t28 -189.5q-34 -124 -130.5 -190t-214.5 -66zM187 250q-22 -84 16 -128t116 -44q77 0 140 44.5t85 127.5q21 81 -18 126.5t-114 46.5q-74 1 -138.5 -45.5t-86.5 -127.5zM366 700h120l20 -142h-88 z" glyph-name="ograve" horiz-adv-x="597" unicode="ò"/><glyph d="M297 -6q-118 0 -179.5 66t-28.5 190t130 190.5t215 65.5q119 -1 180 -66.5t28 -189.5q-34 -124 -130.5 -190t-214.5 -66zM187 250q-22 -84 16 -128t116 -44q77 0 140 44.5t85 127.5q21 81 -18 126.5t-114 46.5q-74 1 -138.5 -45.5t-86.5 -127.5zM396 558l96 142h111 l-128 -142h-79z" glyph-name="oacute" horiz-adv-x="597" unicode="ó"/><glyph d="M297 -6q-118 0 -179.5 66t-28.5 190t130 190.5t215 65.5q119 -1 180 -66.5t28 -189.5q-34 -124 -130.5 -190t-214.5 -66zM187 250q-22 -84 16 -128t116 -44q77 0 140 44.5t85 127.5q21 81 -18 126.5t-114 46.5q-74 1 -138.5 -45.5t-86.5 -127.5zM259 581l164 140h136 l89 -140h-114l-56 90l-105 -90h-114z" glyph-name="ocircumflex" horiz-adv-x="597" unicode="ô"/><glyph d="M297 -6q-118 0 -179.5 66t-28.5 190t130 190.5t215 65.5q119 -1 180 -66.5t28 -189.5q-34 -124 -130.5 -190t-214.5 -66zM187 250q-22 -84 16 -128t116 -44q77 0 140 44.5t85 127.5q21 81 -18 126.5t-114 46.5q-74 1 -138.5 -45.5t-86.5 -127.5zM307 555l-61 23 q59 109 173 109q32 0 54 -14t38 -28.5t32 -15.5q43 -3 78 58l73 -17q-21 -50 -65 -85t-105 -33q-31 1 -50 15t-34 27.5t-35 14.5q-30 2 -56.5 -14t-41.5 -40z" glyph-name="otilde" horiz-adv-x="597" unicode="õ"/><glyph d="M297 -6q-118 0 -179.5 66t-28.5 190t130 190.5t215 65.5q119 -1 180 -66.5t28 -189.5q-34 -124 -130.5 -190t-214.5 -66zM187 250q-22 -84 16 -128t116 -44q77 0 140 44.5t85 127.5q21 81 -18 126.5t-114 46.5q-74 1 -138.5 -45.5t-86.5 -127.5zM429 612h-97l23 88h98z M500 612l23 88h98l-23 -88h-98z" glyph-name="odieresis" horiz-adv-x="597" unicode="ö"/><glyph d="M228 314l-55 45l205 32l-95 30l65 54l150 -46l-27 -23l47 8l55 -45zM310 95h-17l2 8h17z" glyph-name="divide" horiz-adv-x="561" unicode="÷"/><glyph d="M144 -39h-109l89 92q-69 71 -35 197q33 124 130 190.5t215 65.5q58 0 109 -19l39 41h110l-82 -85q65 -68 32 -193q-34 -124 -130.5 -190t-214.5 -66q-57 0 -105 17zM197 129l275 284q-25 8 -60 10q-74 1 -138.5 -45.5t-86.5 -127.5q-20 -75 10 -121zM534 365l-271 -280 q24 -7 56 -7q77 0 140 44.5t85 127.5q19 70 -10 115z" glyph-name="oslash" horiz-adv-x="597" unicode="ø"/><glyph d="M213 -6q-184 0 -117 253l69 255h98l-69 -255q-41 -154 81 -154q19 0 42.5 9t53 31t57 69t45.5 113l50 187h98l-134 -500h-98l26 96q10 35 26 67l-2 1q-34 -75 -92.5 -123.5t-133.5 -48.5zM391 558l-51 142h119l20 -142h-88z" glyph-name="ugrave" horiz-adv-x="550" unicode="ù"/><glyph d="M213 -6q-184 0 -117 253l69 255h98l-69 -255q-41 -154 81 -154q19 0 42.5 9t53 31t57 69t45.5 113l50 187h98l-134 -500h-98l26 96q10 35 26 67l-2 1q-34 -75 -92.5 -123.5t-133.5 -48.5zM370 558l96 142h111l-128 -142h-79z" glyph-name="uacute" horiz-adv-x="550" unicode="ú"/><glyph d="M213 -6q-184 0 -117 253l69 255h98l-69 -255q-41 -154 81 -154q19 0 42.5 9t53 31t57 69t45.5 113l50 187h98l-134 -500h-98l26 96q10 35 26 67l-2 1q-34 -75 -92.5 -123.5t-133.5 -48.5zM354 581h-114l164 140h136l89 -140h-114l-56 90z" glyph-name="ucircumflex" horiz-adv-x="550" unicode="û"/><glyph d="M213 -6q-184 0 -117 253l69 255h98l-69 -255q-41 -154 81 -154q19 0 42.5 9t53 31t57 69t45.5 113l50 187h98l-134 -500h-98l26 96q10 35 26 67l-2 1q-34 -75 -92.5 -123.5t-133.5 -48.5zM582 612h-98l24 88h98zM316 612l24 88h98l-24 -88h-98z" glyph-name="udieresis" horiz-adv-x="550" unicode="ü"/><glyph d="M6 -211l21 79h51q27 0 67.5 17t63.5 53l47 80l-63 482h105l41 -328q5 -33 -6 -73h2q12 42 32 73l219 328h105l-382 -571q-47 -76 -105 -108t-110 -32h-88zM379 558l96 142h111l-127 -142h-80z" glyph-name="yacute" horiz-adv-x="576" unicode="ý"/><glyph d="M-21 -200l239 900h99l-67 -249q-9 -33 -31 -68l2 -2q23 39 48 58q93 69 227 67q94 -1 142 -71t17 -185q-31 -118 -116 -187t-180 -69q-120 0 -183 62q-22 22 -30 67h-2q7 -39 -1 -74l-67 -249h-97zM196 250q-23 -87 16.5 -135t117.5 -48q79 0 141.5 48.5t85.5 134.5 q23 88 -15.5 135.5t-113.5 48.5q-77 1 -142.5 -48t-89.5 -136z" glyph-name="thorn" horiz-adv-x="613" unicode="þ"/><glyph d="M6 -211l21 79h51q27 0 67.5 17t63.5 53l47 80l-63 482h105l41 -328q5 -33 -6 -73h2q12 42 32 73l219 328h105l-382 -571q-47 -76 -105 -108t-110 -32h-88zM321 611l24 89h98l-24 -89h-98zM587 611h-98l24 89h98z" glyph-name="ydieresis" horiz-adv-x="576" unicode="ÿ"/><glyph d="M53 0l451 700h143l77 -700h-106l-20 167h-332l-107 -167h-106zM551 612l-231 -358q151 0 184 -4q74 -7 93 -73zM769 791h-339l19 72h339z" glyph-name="Amacron" horiz-adv-x="745" unicode="Ā"/><glyph d="M451 123q-36 -60 -101 -91t-135 -31q-79 0 -126.5 38t-29.5 103q16 61 66 94t110.5 40t119.5 7.5t101 7t47 28.5q12 56 -17 80.5t-101 24.5q-65 0 -109.5 -21.5t-66.5 -76.5l-83 12q31 84 110.5 125t169.5 40q48 0 85.5 -10t68.5 -32.5t38.5 -60t-4.5 -93.5l-49 -182 q-5 -19 0 -25.5t21 -6.5h23l-24 -93h-64q-37 0 -54 22.5t-8 56.5zM156 144q-10 -38 19.5 -57.5t81.5 -19.5q68 0 131.5 30.5t76.5 79.5l18 66q-31 -16 -87.5 -20t-102 -3t-86 -17t-51.5 -59zM272 591l19 72h340l-20 -72h-339z" glyph-name="amacron" horiz-adv-x="591" unicode="ā"/><glyph d="M53 0l451 700h143l77 -700h-106l-20 167h-332l-107 -167h-106zM320 254q151 0 184 -4q74 -7 93 -73l-46 435zM586 748q-81 0 -112.5 49t-12.5 120h82q-11 -41 3.5 -69t58.5 -28t73.5 28t40.5 69h83q-19 -71 -77 -120t-139 -49z" glyph-name="Abreve" horiz-adv-x="745" unicode="Ă"/><glyph d="M451 123q-36 -60 -101 -91t-135 -31q-79 0 -126.5 38t-29.5 103q16 61 66 94t110.5 40t119.5 7.5t101 7t47 28.5q12 56 -17 80.5t-101 24.5q-65 0 -109.5 -21.5t-66.5 -76.5l-83 12q31 84 110.5 125t169.5 40q48 0 85.5 -10t68.5 -32.5t38.5 -60t-4.5 -93.5l-49 -182 q-5 -19 0 -25.5t21 -6.5h23l-24 -93h-64q-37 0 -54 22.5t-8 56.5zM156 144q-10 -38 19.5 -57.5t81.5 -19.5q68 0 131.5 30.5t76.5 79.5l18 66q-31 -16 -87.5 -20t-102 -3t-86 -17t-51.5 -59zM423 548q-81 0 -112.5 49t-12.5 120h82q-11 -41 3.5 -69t58.5 -28t74 28t41 69h82 q-19 -71 -77 -120t-139 -49z" glyph-name="abreve" horiz-adv-x="591" unicode="ă"/><glyph d="M159 0h-106l451 700h143l77 -700h-15q-75 -64 -92 -126q-7 -52 36 -56q20 0 53 12l32 -43q-43 -38 -114 -38q-30 0 -53 8.5t-35.5 28t-9 48t32 71.5t82.5 95h-23l-20 167h-332zM551 612l-231 -358q151 0 184 -4q74 -7 93 -73z" glyph-name="Aogonek" horiz-adv-x="745" unicode="Ą"/><glyph d="M451 123q-36 -60 -101 -91t-135 -31q-79 0 -126.5 38t-29.5 103q16 61 66 94t110.5 40t119.5 7.5t101 7t47 28.5q12 56 -17 80.5t-101 24.5q-65 0 -109.5 -21.5t-66.5 -76.5l-83 12q31 84 110.5 125t169.5 40q48 0 85.5 -10t68.5 -32.5t38.5 -60t-4.5 -93.5l-49 -182 q-5 -19 0 -25.5t21 -6.5h23l-24 -90h1l-1 -1v-2h-2q-74 -64 -89 -125q-5 -50 37 -54q21 0 52 12l33 -43q-43 -38 -114 -38q-30 0 -53 8.5t-36 28t-10 47t31 70.5t81 94q-34 2 -49 24.5t-7 54.5zM156 144q-10 -38 19.5 -57.5t81.5 -19.5q68 0 131.5 30.5t76.5 79.5l18 66 q-31 -16 -87.5 -20t-102 -3t-86 -17t-51.5 -59z" glyph-name="aogonek" horiz-adv-x="591" unicode="ą"/><glyph d="M116 350q47 176 166 267.5t271 89.5q125 -2 197.5 -64t68.5 -182l-102 -26q2 79 -47 126t-144 47q-115 1 -197.5 -68t-114.5 -190q-33 -121 14 -190t159 -68q97 0 170.5 47t113.5 126l88 -26q-60 -120 -166 -182t-232 -64q-152 -2 -222 89.5t-23 267.5zM511 758l96 142 h111l-128 -142h-79z" glyph-name="Cacute" horiz-adv-x="717" unicode="Ć"/><glyph d="M89 250q33 124 129 190.5t213 65.5q90 -1 149 -46.5t56 -129.5l-93 -14q-9 106 -134 108q-75 1 -137.5 -46t-84.5 -128q-22 -83 15 -129t114 -44q124 2 190 105l87 -13q-42 -84 -125.5 -129t-174.5 -46q-117 -1 -177 65.5t-27 190.5zM468 558h-79l96 142h111z" glyph-name="cacute" horiz-adv-x="570" unicode="ć"/><glyph d="M116 350q47 176 166 267.5t271 89.5q125 -2 197.5 -64t68.5 -182l-102 -26q2 79 -47 126t-144 47q-115 1 -197.5 -68t-114.5 -190q-33 -121 14 -190t159 -68q97 0 170.5 47t113.5 126l88 -26q-60 -120 -166 -182t-232 -64q-152 -2 -222 89.5t-23 267.5zM492 781h-115 l165 140h135l90 -140h-114l-56 90z" glyph-name="Ccircumflex" horiz-adv-x="717" unicode="Ĉ"/><glyph d="M89 250q33 124 129 190.5t213 65.5q90 -1 149 -46.5t56 -129.5l-93 -14q-9 106 -134 108q-75 1 -137.5 -46t-84.5 -128q-22 -83 15 -129t114 -44q124 2 190 105l87 -13q-42 -84 -125.5 -129t-174.5 -46q-117 -1 -177 65.5t-27 190.5zM371 581h-114l164 140h136l89 -140 h-114l-56 90z" glyph-name="ccircumflex" horiz-adv-x="570" unicode="ĉ"/><glyph d="M116 350q47 176 166 267.5t271 89.5q125 -2 197.5 -64t68.5 -182l-102 -26q2 79 -47 126t-144 47q-115 1 -197.5 -68t-114.5 -190q-33 -121 14 -190t159 -68q97 0 170.5 47t113.5 126l88 -26q-60 -120 -166 -182t-232 -64q-152 -2 -222 89.5t-23 267.5zM525 808l25 92 h110l-25 -92h-110z" glyph-name="Cdotaccent" horiz-adv-x="717" unicode="Ċ"/><glyph d="M89 250q33 124 129 190.5t213 65.5q90 -1 149 -46.5t56 -129.5l-93 -14q-9 106 -134 108q-75 1 -137.5 -46t-84.5 -128q-22 -83 15 -129t114 -44q124 2 190 105l87 -13q-42 -84 -125.5 -129t-174.5 -46q-117 -1 -177 65.5t-27 190.5zM514 608h-110l24 92h110z" glyph-name="cdotaccent" horiz-adv-x="570" unicode="ċ"/><glyph d="M116 350q47 176 166 267.5t271 89.5q125 -2 197.5 -64t68.5 -182l-102 -26q2 79 -47 126t-144 47q-115 1 -197.5 -68t-114.5 -190q-33 -121 14 -190t159 -68q97 0 170.5 47t113.5 126l88 -26q-60 -120 -166 -182t-232 -64q-152 -2 -222 89.5t-23 267.5zM416 921h114 l56 -91l105 91h114l-164 -140h-136z" glyph-name="Ccaron" horiz-adv-x="717" unicode="Č"/><glyph d="M89 250q33 124 129 190.5t213 65.5q90 -1 149 -46.5t56 -129.5l-93 -14q-9 106 -134 108q-75 1 -137.5 -46t-84.5 -128q-22 -83 15 -129t114 -44q124 2 190 105l87 -13q-42 -84 -125.5 -129t-174.5 -46q-117 -1 -177 65.5t-27 190.5zM294 721h114l57 -91l104 91h114 l-164 -140h-135z" glyph-name="ccaron" horiz-adv-x="570" unicode="č"/><glyph d="M310 0h-281l188 700h281q100 0 168.5 -38t97 -115.5t-3.5 -196.5q-31 -115 -101.5 -195.5t-159.5 -117.5t-189 -37zM282 577q-5 -20 -130 -485h188q65 0 126 24t116.5 84.5t79.5 149.5q34 128 -23.5 193t-160.5 65h-255q28 0 46 -7t13 -24zM359 921h114l56 -91l105 91 h114l-164 -140h-136z" glyph-name="Dcaron" horiz-adv-x="689" unicode="Ď"/><glyph d="M261 -6q-114 0 -159 64.5t-11 191.5q35 127 114 191t193 65q50 1 99.5 -21t73.5 -58q12 -16 17 -66h2q-3 38 6 74l71 265h98l-187 -700h-98l16 61q9 34 33 73l-2 1q-30 -48 -52 -66q-43 -34 -103 -54.5t-111 -20.5zM189 250q-24 -89 6 -130.5t120 -41.5q72 0 141.5 47.5 t90.5 124.5t-23.5 126.5t-115.5 48.5q-91 -1 -143 -43.5t-76 -131.5zM758 507h-16l39 146l23 47h56z" glyph-name="dcaron" horiz-adv-x="704" unicode="ď"/><glyph d="M167 398l81 302h280q155 0 231.5 -89.5t31.5 -260.5q-31 -115 -101.5 -195.5t-159.5 -117.5t-189 -37h-281l80 300h-68l27 98h68zM443 300h-204q-8 -31 -27.5 -102t-28.5 -106h188q47 0 94 14t92 43.5t81 81t54 119.5q26 91 2 148.5t-72 83.5t-113 26h-255q28 0 46 -7 t13 -24q-1 -5 -7.5 -28.5t-18 -67t-22.5 -83.5h204z" glyph-name="Dcroat" horiz-adv-x="719" unicode="Đ"/><glyph d="M261 -6q-114 0 -159 64.5t-11 191.5q35 127 114 191t193 65q50 1 99.5 -21t73.5 -58q12 -16 17 -66h2q-3 38 6 74l32 120h-127l20 77h128l18 68h98l-18 -68h100l-21 -77h-100l-148 -555h-98l16 61q9 34 33 73l-2 1q-30 -48 -52 -66q-43 -34 -103 -54.5t-111 -20.5z M189 250q-24 -89 6 -130.5t120 -41.5q72 0 141.5 47.5t90.5 124.5t-23.5 126.5t-115.5 48.5q-91 -1 -143 -43.5t-76 -131.5z" glyph-name="dcroat" horiz-adv-x="605" unicode="đ"/><glyph d="M744 700l-25 -92h-428l-61 -227h414l-22 -82h-414l-55 -207h428l-25 -92h-526l188 700h526zM333 791l20 72h339l-19 -72h-340z" glyph-name="Emacron" horiz-adv-x="583" unicode="Ē"/><glyph d="M294 -6q-118 -1 -178 65.5t-27 190.5t129 190.5t213 65.5t174.5 -66.5t23.5 -189.5q-2 -10 -9 -28h-436q-9 -73 27 -111t107 -37q130 2 193 99l86 -12q-96 -165 -303 -167zM413 429q-74 1 -142 -54t-87 -153q20 38 41.5 49t61.5 11h258q9 74 -26 110t-106 37zM627 591 h-340l20 72h339z" glyph-name="emacron" horiz-adv-x="584" unicode="ē"/><glyph d="M556 0h-526l188 700h526l-25 -92h-428l-61 -227h414l-22 -82h-414l-55 -207h428zM495 748q-81 0 -112.5 49t-12.5 120h82q-11 -41 3.5 -69t58.5 -28t73.5 28t40.5 69h83q-19 -71 -77 -120t-139 -49z" glyph-name="Ebreve" horiz-adv-x="583" unicode="Ĕ"/><glyph d="M294 -6q-118 -1 -178 65.5t-27 190.5t129 190.5t213 65.5t174.5 -66.5t23.5 -189.5q-2 -10 -9 -28h-436q-9 -73 27 -111t107 -37q130 2 193 99l86 -12q-96 -165 -303 -167zM184 222q20 38 41.5 49t61.5 11h258q9 74 -26 110t-106 37q-74 1 -142 -54t-87 -153zM444 547 q-81 0 -112.5 49.5t-12.5 120.5h82q-11 -41 3.5 -69t58.5 -28t73.5 28t40.5 69h82q-19 -71 -76.5 -120.5t-138.5 -49.5z" glyph-name="ebreve" horiz-adv-x="584" unicode="ĕ"/><glyph d="M744 700l-25 -92h-428l-61 -227h414l-22 -82h-414l-55 -207h428l-25 -92h-526l188 700h526zM565 808h-110l25 92h110z" glyph-name="Edotaccent" horiz-adv-x="583" unicode="Ė"/><glyph d="M294 -6q-118 -1 -178 65.5t-27 190.5t129 190.5t213 65.5t174.5 -66.5t23.5 -189.5q-2 -10 -9 -28h-436q-9 -73 27 -111t107 -37q130 2 193 99l86 -12q-96 -165 -303 -167zM413 429q-74 1 -142 -54t-87 -153q20 38 41.5 49t61.5 11h258q9 74 -26 110t-106 37zM405 608 l25 92h110l-25 -92h-110z" glyph-name="edotaccent" horiz-adv-x="584" unicode="ė"/><glyph d="M420 0h-390l188 700h526l-25 -92h-428l-61 -227h414l-22 -82h-414l-55 -207h428l-25 -92h-68q-75 -64 -92 -126q-7 -52 36 -56q20 0 53 12l32 -43q-43 -38 -114 -38q-30 0 -53 8.5t-35.5 28t-9 48t32 71.5t82.5 95z" glyph-name="Eogonek" horiz-adv-x="583" unicode="Ę"/><glyph d="M366 -182q-43 -38 -113 -38q-28 0 -50.5 7.5t-36 25t-13.5 42t20.5 61.5t62.5 82q-91 16 -133.5 80.5t-13.5 171.5q33 124 129 190.5t213 65.5t174.5 -66.5t23.5 -189.5q-2 -10 -9 -28h-436q-9 -73 27 -111t107 -37q130 2 193 99l86 -12q-94 -164 -298 -167 q-60 -66 -57 -112q2 -33 39 -33q20 0 53 12zM413 429q-74 1 -142 -54t-87 -153q20 38 41.5 49t61.5 11h258q9 74 -26 110t-106 37z" glyph-name="eogonek" horiz-adv-x="584" unicode="ę"/><glyph d="M556 0h-526l188 700h526l-25 -92h-428l-61 -227h414l-22 -82h-414l-55 -207h428zM350 921h114l57 -91l104 91h114l-164 -140h-135z" glyph-name="Ecaron" horiz-adv-x="583" unicode="Ě"/><glyph d="M294 -6q-118 -1 -178 65.5t-27 190.5t129 190.5t213 65.5t174.5 -66.5t23.5 -189.5q-2 -10 -9 -28h-436q-9 -73 27 -111t107 -37q130 2 193 99l86 -12q-96 -165 -303 -167zM184 222q20 38 41.5 49t61.5 11h258q9 74 -26 110t-106 37q-74 1 -142 -54t-87 -153zM385 581 l-89 140h114l57 -91l104 91h114l-164 -140h-136z" glyph-name="ecaron" horiz-adv-x="584" unicode="ě"/><glyph d="M344 -7q-150 0 -212.5 90.5t-15.5 266.5t166.5 267.5t271.5 89.5q126 -2 199 -64t69 -182l-98 -28q-1 82 -59 131.5t-135 50.5q-100 1 -191.5 -70.5t-124.5 -194.5t14.5 -194t149.5 -71q76 0 140 66t86 134h-104l21 79h216q68 0 50 -69q-1 -2 -79 -295h-96l76 285l-22 -1 q-44 -148 -128.5 -219.5t-193.5 -71.5zM488 781h-114l164 140h136l89 -140h-114l-56 90z" glyph-name="Gcircumflex" horiz-adv-x="730" unicode="Ĝ"/><glyph d="M-14 -53q14 53 51.5 79.5t94.5 44.5q-75 19 -58 78q15 56 94 79q0 1 -3 6.5t-7 14.5t-7.5 22t-3.5 27.5t4 31.5q15 56 63 96t103.5 56.5t112.5 16.5q48 0 106 -20q-6 27 8.5 44.5t45.5 25t61 9.5t69 1l-19 -71h-62q-11 0 -20 -1t-23 -4t-16 -9.5t3 -17.5l5 -6 q4 -5 8.5 -11.5t9.5 -18.5t8 -24t3 -29t-4 -34q-22 -81 -104.5 -124.5t-171.5 -43.5q-45 0 -82 12q-3 1 -7.5 3t-7 3t-3.5 1q-19 1 -37.5 -9t-21.5 -21q-6 -21 24.5 -33t79.5 -15t105 -11t102.5 -20.5t71 -45t11.5 -82.5q-11 -42 -47 -72.5t-85 -45.5t-96.5 -22t-96.5 -7 q-47 0 -92.5 7t-90.5 22t-67 45.5t-11 72.5zM267 -128q28 0 58 3.5t63 12t56.5 25t29.5 39.5q4 16 -2 28.5t-23.5 21.5t-33 14.5t-44 10t-42 6l-40.5 4.5q-40 4 -41 4q-44 0 -98 -24.5t-64 -64.5q-8 -29 24.5 -48t73.5 -25.5t83 -6.5zM357 238q54 0 99 22t59 72 q13 49 -20.5 71t-86.5 22q-54 0 -99.5 -22t-58.5 -72q-14 -49 20 -71t87 -22zM269 599l165 139h135l90 -139h-115l-55 90l-106 -90h-114z" glyph-name="gcircumflex" horiz-adv-x="604" unicode="ĝ"/><glyph d="M344 -7q-150 0 -212.5 90.5t-15.5 266.5t166.5 267.5t271.5 89.5q126 -2 199 -64t69 -182l-98 -28q-1 82 -59 131.5t-135 50.5q-100 1 -191.5 -70.5t-124.5 -194.5t14.5 -194t149.5 -71q76 0 140 66t86 134h-104l21 79h216q68 0 50 -69q-1 -2 -79 -295h-96l76 285l-22 -1 q-44 -148 -128.5 -219.5t-193.5 -71.5zM570 748q-81 0 -112.5 49t-12.5 120h82q-11 -41 3.5 -69t58.5 -28t73.5 28t40.5 69h82q-18 -71 -76 -120t-139 -49z" glyph-name="Gbreve" horiz-adv-x="730" unicode="Ğ"/><glyph d="M-14 -53q14 53 51.5 79.5t94.5 44.5q-75 19 -58 78q15 56 94 79q0 1 -3 6.5t-7 14.5t-7.5 22t-3.5 27.5t4 31.5q15 56 63 96t103.5 56.5t112.5 16.5q48 0 106 -20q-6 27 8.5 44.5t45.5 25t61 9.5t69 1l-19 -71h-62q-11 0 -20 -1t-23 -4t-16 -9.5t3 -17.5l5 -6 q4 -5 8.5 -11.5t9.5 -18.5t8 -24t3 -29t-4 -34q-22 -81 -104.5 -124.5t-171.5 -43.5q-45 0 -82 12q-3 1 -7.5 3t-7 3t-3.5 1q-19 1 -37.5 -9t-21.5 -21q-6 -21 24.5 -33t79.5 -15t105 -11t102.5 -20.5t71 -45t11.5 -82.5q-11 -42 -47 -72.5t-85 -45.5t-96.5 -22t-96.5 -7 q-47 0 -92.5 7t-90.5 22t-67 45.5t-11 72.5zM267 -128q28 0 58 3.5t63 12t56.5 25t29.5 39.5q4 16 -2 28.5t-23.5 21.5t-33 14.5t-44 10t-42 6l-40.5 4.5q-40 4 -41 4q-44 0 -98 -24.5t-64 -64.5q-8 -29 24.5 -48t73.5 -25.5t83 -6.5zM357 238q54 0 99 22t59 72 q13 49 -20.5 71t-86.5 22q-54 0 -99.5 -22t-58.5 -72q-14 -49 20 -71t87 -22zM322 730h83q-11 -41 3.5 -69t58.5 -28q43 0 73 28t41 69h82q-19 -71 -77 -120t-139 -49t-112 49t-13 120z" glyph-name="gbreve" horiz-adv-x="604" unicode="ğ"/><glyph d="M344 -7q-150 0 -212.5 90.5t-15.5 266.5t166.5 267.5t271.5 89.5q126 -2 199 -64t69 -182l-98 -28q-1 82 -59 131.5t-135 50.5q-100 1 -191.5 -70.5t-124.5 -194.5t14.5 -194t149.5 -71q76 0 140 66t86 134h-104l21 79h216q68 0 50 -69q-1 -2 -79 -295h-96l76 285l-22 -1 q-44 -148 -128.5 -219.5t-193.5 -71.5zM526 808l24 92h110l-24 -92h-110z" glyph-name="Gdotaccent" horiz-adv-x="730" unicode="Ġ"/><glyph d="M-14 -53q14 53 51.5 79.5t94.5 44.5q-75 19 -58 78q15 56 94 79q0 1 -3 6.5t-7 14.5t-7.5 22t-3.5 27.5t4 31.5q15 56 63 96t103.5 56.5t112.5 16.5q48 0 106 -20q-6 27 8.5 44.5t45.5 25t61 9.5t69 1l-19 -71h-62q-11 0 -20 -1t-23 -4t-16 -9.5t3 -17.5l5 -6 q4 -5 8.5 -11.5t9.5 -18.5t8 -24t3 -29t-4 -34q-22 -81 -104.5 -124.5t-171.5 -43.5q-45 0 -82 12q-3 1 -7.5 3t-7 3t-3.5 1q-19 1 -37.5 -9t-21.5 -21q-6 -21 24.5 -33t79.5 -15t105 -11t102.5 -20.5t71 -45t11.5 -82.5q-11 -42 -47 -72.5t-85 -45.5t-96.5 -22t-96.5 -7 q-47 0 -92.5 7t-90.5 22t-67 45.5t-11 72.5zM267 -128q28 0 58 3.5t63 12t56.5 25t29.5 39.5q4 16 -2 28.5t-23.5 21.5t-33 14.5t-44 10t-42 6l-40.5 4.5q-40 4 -41 4q-44 0 -98 -24.5t-64 -64.5q-8 -29 24.5 -48t73.5 -25.5t83 -6.5zM357 238q54 0 99 22t59 72 q13 49 -20.5 71t-86.5 22q-54 0 -99.5 -22t-58.5 -72q-14 -49 20 -71t87 -22zM416 635l25 92h110l-25 -92h-110z" glyph-name="gdotaccent" horiz-adv-x="604" unicode="ġ"/><glyph d="M344 -7q-150 0 -212.5 90.5t-15.5 266.5t166.5 267.5t271.5 89.5q126 -2 199 -64t69 -182l-98 -28q-1 82 -59 131.5t-135 50.5q-100 1 -191.5 -70.5t-124.5 -194.5t14.5 -194t149.5 -71q76 0 140 66t86 134h-104l21 79h216q68 0 50 -69q-1 -2 -79 -295h-96l76 285l-22 -1 q-44 -148 -128.5 -219.5t-193.5 -71.5zM227 -192l96 142h87l-115 -142h-68z" glyph-name="uni0122" horiz-adv-x="730" unicode="Ģ"/><glyph d="M-14 -53q14 53 51.5 79.5t94.5 44.5q-75 19 -58 78q15 56 94 79q0 1 -3 6.5t-7 14.5t-7.5 22t-3.5 27.5t4 31.5q15 56 63 96t103.5 56.5t112.5 16.5q48 0 106 -20q-6 27 8.5 44.5t45.5 25t61 9.5t69 1l-19 -71h-62q-11 0 -20 -1t-23 -4t-16 -9.5t3 -17.5l5 -6 q4 -5 8.5 -11.5t9.5 -18.5t8 -24t3 -29t-4 -34q-22 -81 -104.5 -124.5t-171.5 -43.5q-45 0 -82 12q-3 1 -7.5 3t-7 3t-3.5 1q-19 1 -37.5 -9t-21.5 -21q-6 -21 24.5 -33t79.5 -15t105 -11t102.5 -20.5t71 -45t11.5 -82.5q-11 -42 -47 -72.5t-85 -45.5t-96.5 -22t-96.5 -7 q-47 0 -92.5 7t-90.5 22t-67 45.5t-11 72.5zM267 -128q28 0 58 3.5t63 12t56.5 25t29.5 39.5q4 16 -2 28.5t-23.5 21.5t-33 14.5t-44 10t-42 6l-40.5 4.5q-40 4 -41 4q-44 0 -98 -24.5t-64 -64.5q-8 -29 24.5 -48t73.5 -25.5t83 -6.5zM357 238q54 0 99 22t59 72 q13 49 -20.5 71t-86.5 22q-54 0 -99.5 -22t-58.5 -72q-14 -49 20 -71t87 -22zM449 572h-53l48 181l23 47h102z" glyph-name="uni0123" horiz-adv-x="604" unicode="ģ"/><glyph d="M30 0l188 700h97l-80 -301h398l81 301h98l-188 -700h-98l81 302h-398l-81 -302h-98zM343 781l165 140h135l90 -140h-114l-56 90l-105 -90h-115z" glyph-name="Hcircumflex" horiz-adv-x="654" unicode="Ĥ"/><glyph d="M31 0l188 700h97l-77 -287q-9 -36 -30 -74l2 -1q28 50 45 70q46 50 105 75t118 25q95 0 127 -70t4 -175l-70 -263h-98l70 263q19 72 -3 113.5t-84 41.5q-23 0 -54 -10.5t-68.5 -33.5t-71.5 -72t-52 -115l-50 -187h-98zM88 761l165 140h135l90 -140h-115l-55 91l-105 -91 h-115z" glyph-name="hcircumflex" horiz-adv-x="566" unicode="ĥ"/><glyph d="M128 0h-98l131 489h-77l21 77h77l36 134h97l-36 -134h399l36 134h98l-36 -134h96l-21 -77h-96l-131 -489h-98l81 302h-398zM657 489h-398l-24 -90h398z" glyph-name="Hbar" horiz-adv-x="654" unicode="Ħ"/><glyph d="M199 627l20 73h97l-19 -73h126l-21 -77h-126l-37 -137q-9 -36 -30 -74l2 -1q28 50 45 70q46 50 105 75t118 25q95 0 127 -70t4 -175l-70 -263h-98l70 263q19 72 -3 113.5t-84 41.5q-23 0 -54 -10.5t-68.5 -33.5t-71.5 -72t-52 -115l-50 -187h-98l147 550h-101l20 77h102z " glyph-name="hbar" horiz-adv-x="566" unicode="ħ"/><glyph d="M30 0l188 700h97l-187 -700h-98zM155 755l-61 23q59 109 173 109q32 0 54 -14t38 -28.5t32 -15.5q43 -3 78 58l72 -17q-20 -49 -64.5 -84.5t-104.5 -33.5q-31 1 -50 15t-34 27.5t-35 14.5q-30 2 -56.5 -14t-41.5 -40z" glyph-name="Itilde" unicode="Ĩ"/><glyph d="M128 0h-98l134 500h98zM86 555l-61 24q59 109 173 109q32 0 54 -14t38 -28.5t32 -15.5q44 -3 78 58l72 -17q-19 -50 -63.5 -85t-105.5 -33q-40 2 -69 29t-50 28q-30 1 -57 -14.5t-41 -40.5z" glyph-name="itilde" unicode="ĩ"/><glyph d="M30 0l188 700h97l-187 -700h-98zM130 787l21 77h325l-20 -77h-326z" glyph-name="Imacron" unicode="Ī"/><glyph d="M30 0l134 500h98l-134 -500h-98zM70 591l19 72h340l-20 -72h-339z" glyph-name="imacron" horiz-adv-x="113" unicode="ī"/><glyph d="M43 0h-13l188 700h97l-187 -700h-17q-74 -65 -90 -126q-8 -51 36 -54q21 0 53 12l32 -43q-43 -38 -113 -38q-30 0 -53.5 8.5t-36 28t-9.5 47.5t31.5 71t81.5 94z" glyph-name="Iogonek" unicode="Į"/><glyph d="M47 0h-15l134 500h97l-134 -500h-13q-75 -65 -92 -126q-6 -51 36 -55q20 0 53 12l33 -43q-43 -38 -114 -38q-30 0 -53 8.5t-36 28t-9.5 47.5t31.5 71.5t82 94.5zM296 615h-101l23 85h100z" glyph-name="iogonek" horiz-adv-x="193" unicode="į"/><glyph d="M30 0l188 700h97l-187 -700h-98zM350 808h-110l24 92h110z" glyph-name="Idotaccent" unicode="İ"/><glyph d="M30 0l134 500h98l-134 -500h-98z" glyph-name="dotlessi" unicode="ı"/><glyph d="M107 -230h-139l23 83h94q77 0 133 42.5t75 113.5l185 691h98l-188 -700q-29 -110 -107.5 -170t-173.5 -60zM128 0h-98l188 700h98z" glyph-name="IJ" horiz-adv-x="602" unicode="Ĳ"/><glyph d="M108 -171h-22l21 79h22q51 0 81.5 24t45.5 81l130 487h98l-131 -487q-25 -96 -81.5 -140t-163.5 -44zM129 0h-97l134 500h97zM296 615h-101l23 85h100zM538 700l-23 -85h-98l23 85h98z" glyph-name="ij" horiz-adv-x="381" unicode="ĳ"/><glyph d="M283 -7q-104 0 -164.5 54t-37.5 163l100 27q-11 -64 20 -108t106 -44q74 0 134 51.5t83 136.5l114 427h98l-115 -430q-38 -140 -129.5 -208.5t-208.5 -68.5zM629 781h-115l165 140h135l90 -140h-115l-55 90z" glyph-name="Jcircumflex" horiz-adv-x="578" unicode="Ĵ"/><glyph d="M-55 -171h-22l21 79h22q51 0 81.5 24t45.5 81l130 487h98l-131 -487q-25 -96 -81.5 -140t-163.5 -44zM210 568h-114l164 140h136l89 -140h-114l-29 47h-77z" glyph-name="jcircumflex" horiz-adv-x="218" unicode="ĵ"/><glyph d="M30 0l188 700h98l-95 -352q-9 -35 -35 -76l2 -1q25 40 57 67l415 362h129l-353 -308l190 -392h-127l-166 347l-157 -168l-48 -179h-98zM180 -192l96 142h87l-115 -142h-68z" glyph-name="uni0136" horiz-adv-x="651" unicode="Ķ"/><glyph d="M30 0l188 700h98l-110 -397q-9 -35 -36 -71l2 -1q27 36 59 59l300 210h137l-281 -199l162 -300h-28l-1 -1v1h-95l-128 240l-127 -88l-41 -153h-99zM203 -189h-68l96 142h87z" glyph-name="uni0137" horiz-adv-x="572" unicode="ķ"/><glyph d="M516 501h106l-272 -216l148 -284h-105l-121 228l-123 -89l-38 -140h-81l134 499h81l-72 -257z" glyph-name="kgreenlandic" horiz-adv-x="522" unicode="ĸ"/><glyph d="M30 0l188 700h97l-152 -570q-10 -37 -45 -64l1 -1q35 27 71 27h355l-25 -92h-490zM326 758h-79l96 142h111z" glyph-name="Lacute" horiz-adv-x="539" unicode="Ĺ"/><glyph d="M35 0l191 714h98l-191 -714h-98zM329 765h-80l96 142h112z" glyph-name="lacute" horiz-adv-x="168" unicode="ĺ"/><glyph d="M30 0l188 700h97l-152 -570q-10 -37 -45 -64l1 -1q35 27 71 27h355l-25 -92h-490zM141 -191l96 142h88l-115 -142h-69z" glyph-name="uni013B" horiz-adv-x="539" unicode="Ļ"/><glyph d="M35 0l191 714h98l-191 -714h-98zM21 -193h-69l97 142h87z" glyph-name="uni013C" horiz-adv-x="168" unicode="ļ"/><glyph d="M520 0h-490l188 700h97l-152 -570q-10 -37 -45 -64l1 -1q35 27 71 27h355zM403 551l-5 14l90 104l-31 -57h-2z" glyph-name="Lcaron" horiz-adv-x="539" unicode="Ľ"/><glyph d="M35 0l191 714h98l-191 -714h-98zM402 565l-52 -61l-5 14l90 104l-31 -57h-2z" glyph-name="lcaron" horiz-adv-x="321" unicode="ľ"/><glyph d="M30 0l188 700h97l-152 -570q-10 -37 -45 -64l1 -1q35 27 71 27h355l-25 -92h-490zM461 328h-108l26 100h108z" glyph-name="Ldot" horiz-adv-x="539" unicode="Ŀ"/><glyph d="M35 0l191 714h98l-191 -714h-98zM381 335h-108l27 100h108z" glyph-name="ldot" horiz-adv-x="315" unicode="ŀ"/><glyph d="M-22 211l-10 91l222 76l86 322h98l-76 -285l192 66l10 -91l-230 -79l-49 -181q-9 -36 -44 -64l1 -1q34 27 71 27h354l-24 -92h-490l73 274z" glyph-name="Lslash" horiz-adv-x="596" unicode="Ł"/><glyph d="M-35 289l223 69l96 356h98l-87 -322l193 59l7 -92l-228 -71l-77 -288h-98l69 255l-190 -58z" glyph-name="lslash" horiz-adv-x="286" unicode="ł"/><glyph d="M30 0l188 700h100l248 -516q17 -38 19 -79l2 1q-2 50 9 87l135 507h98l-187 -700h-101l-249 510q-16 31 -20 79l-2 -1q3 -43 -8 -88l-134 -500h-98zM485 758l96 142h111l-127 -142h-80z" glyph-name="Nacute" horiz-adv-x="672" unicode="Ń"/><glyph d="M30 0l134 500h98l-28 -103q-8 -30 -26 -67l2 -1q24 49 37 65q45 56 101.5 85t109.5 29q60 0 90 -36.5t28.5 -92.5t-17.5 -124l-69 -255h-98l69 255q20 71 4 113t-67 42q-23 0 -49.5 -9.5t-59.5 -31.5t-63 -69t-48 -113l-50 -187h-98zM416 558h-79l96 142h111z" glyph-name="nacute" horiz-adv-x="520" unicode="ń"/><glyph d="M128 0h-98l188 700h100l248 -516q17 -38 19 -79l2 1q-2 50 9 87l135 507h98l-187 -700h-101l-249 510q-16 31 -20 79l-2 -1q3 -43 -8 -88zM274 -191h-68l96 142h87z" glyph-name="uni0145" horiz-adv-x="672" unicode="Ņ"/><glyph d="M30 0l134 500h98l-28 -103q-8 -30 -26 -67l2 -1q24 49 37 65q45 56 101.5 85t109.5 29q60 0 90 -36.5t28.5 -92.5t-17.5 -124l-69 -255h-98l69 255q20 71 4 113t-67 42q-23 0 -49.5 -9.5t-59.5 -31.5t-63 -69t-48 -113l-50 -187h-98zM126 -192l96 142h87l-115 -142h-68z " glyph-name="uni0146" horiz-adv-x="520" unicode="ņ"/><glyph d="M128 0h-98l188 700h100l248 -516q17 -38 19 -79l2 1q-2 50 9 87l135 507h98l-187 -700h-101l-249 510q-16 31 -20 79l-2 -1q3 -43 -8 -88zM393 921h114l56 -91l105 91h114l-164 -140h-136z" glyph-name="Ncaron" horiz-adv-x="672" unicode="Ň"/><glyph d="M30 0l134 500h98l-28 -103q-8 -30 -26 -67l2 -1q24 49 37 65q45 56 101.5 85t109.5 29q60 0 90 -36.5t28.5 -92.5t-17.5 -124l-69 -255h-98l69 255q20 71 4 113t-67 42q-23 0 -49.5 -9.5t-59.5 -31.5t-63 -69t-48 -113l-50 -187h-98zM273 721h115l56 -91l104 91h115 l-165 -140h-135z" glyph-name="ncaron" horiz-adv-x="520" unicode="ň"/><glyph d="M128 0h-98l134 500h98l-28 -103q-8 -30 -26 -67l2 -1q24 49 37 65q45 56 101.5 85t109.5 29q60 0 90 -36.5t28.5 -92.5t-17.5 -124l-69 -255h-98l69 255q20 71 4 113t-67 42q-23 0 -49.5 -9.5t-59.5 -31.5t-63 -69t-48 -113zM425 631l-5 14l91 104l-32 -57h-2z" glyph-name="napostrophe" horiz-adv-x="520" unicode="ŉ"/><glyph d="M369 -7q-99 0 -165.5 39t-93.5 118t6 200q47 175 170 267t274 90q153 -2 226.5 -93t27.5 -264q-47 -174 -170 -265.5t-275 -91.5zM214 350q-32 -120 23 -192.5t157 -72.5q105 0 197 72t124 193q33 121 -22 192t-157 73q-65 1 -129.5 -29.5t-117.5 -92.5t-75 -143z M758 791h-340l20 72h339z" glyph-name="Omacron" horiz-adv-x="742" unicode="Ō"/><glyph d="M297 -6q-118 0 -179.5 66t-28.5 190t130 190.5t215 65.5q119 -1 180 -66.5t28 -189.5q-34 -124 -130.5 -190t-214.5 -66zM187 250q-22 -84 16 -128t116 -44q77 0 140 44.5t85 127.5q21 81 -18 126.5t-114 46.5q-74 1 -138.5 -45.5t-86.5 -127.5zM628 591h-340l20 72h339z " glyph-name="omacron" horiz-adv-x="597" unicode="ō"/><glyph d="M369 -7q-99 0 -165.5 39t-93.5 118t6 200q47 175 170 267t274 90q153 -2 226.5 -93t27.5 -264q-47 -174 -170 -265.5t-275 -91.5zM214 350q-32 -120 23 -192.5t157 -72.5q105 0 197 72t124 193q33 121 -22 192t-157 73q-65 1 -129.5 -29.5t-117.5 -92.5t-75 -143z M571 748q-81 0 -112 49t-13 120h83q-11 -41 3.5 -69t58.5 -28q43 0 73 28t41 69h82q-19 -71 -77 -120t-139 -49z" glyph-name="Obreve" horiz-adv-x="742" unicode="Ŏ"/><glyph d="M297 -6q-118 0 -179.5 66t-28.5 190t130 190.5t215 65.5q119 -1 180 -66.5t28 -189.5q-34 -124 -130.5 -190t-214.5 -66zM187 250q-22 -84 16 -128t116 -44q77 0 140 44.5t85 127.5q21 81 -18 126.5t-114 46.5q-74 1 -138.5 -45.5t-86.5 -127.5zM445 548q-81 0 -112.5 49 t-12.5 120h82q-11 -41 3.5 -69t58.5 -28t73.5 28t40.5 69h83q-19 -71 -77 -120t-139 -49z" glyph-name="obreve" horiz-adv-x="597" unicode="ŏ"/><glyph d="M369 -7q-99 0 -165.5 39t-93.5 118t6 200q47 175 170 267t274 90q153 -2 226.5 -93t27.5 -264q-47 -174 -170 -265.5t-275 -91.5zM214 350q-32 -120 23 -192.5t157 -72.5q105 0 197 72t124 193q33 121 -22 192t-157 73q-65 1 -129.5 -29.5t-117.5 -92.5t-75 -143z M607 758l96 142h116l-142 -142h-70zM514 758h-70l96 142h116z" glyph-name="Ohungarumlaut" horiz-adv-x="742" unicode="Ő"/><glyph d="M297 -6q-118 0 -179.5 66t-28.5 190t130 190.5t215 65.5q119 -1 180 -66.5t28 -189.5q-34 -124 -130.5 -190t-214.5 -66zM187 250q-22 -84 16 -128t116 -44q77 0 140 44.5t85 127.5q21 81 -18 126.5t-114 46.5q-74 1 -138.5 -45.5t-86.5 -127.5zM480 558l96 142h116 l-142 -142h-70zM387 558h-70l96 142h116z" glyph-name="ohungarumlaut" horiz-adv-x="597" unicode="ő"/><glyph d="M377 -7q-101 0 -169.5 39t-96.5 118t5 200q47 175 172 267t281 90q81 -1 144.5 -42t85.5 -117l40 152h471l-25 -92h-379l-57 -219h319l-22 -82h-319l-57 -215h377l-25 -92h-470l38 141q-57 -66 -145.5 -107t-167.5 -41zM232 350q-34 -129 21 -205t173 -76 q99 0 193.5 77.5t128.5 203.5t-19.5 203.5t-151.5 78.5q-119 2 -214.5 -75t-130.5 -207z" glyph-name="OE" horiz-adv-x="1150" unicode="Œ"/><glyph d="M286 -6q-114 0 -172 66t-25 190t127 190.5t208 65.5q68 -1 122.5 -35t66.5 -86q33 51 111.5 86.5t147.5 34.5q111 -1 158.5 -65.5t14.5 -190.5q-1 -4 -10 -23h-427q-16 -62 20 -108t114 -45q54 1 104 25.5t79 75.5l82 -21q-45 -74 -117.5 -116.5t-154.5 -43.5 q-70 -1 -124.5 28.5t-73.5 81.5q-47 -51 -114.5 -80.5t-136.5 -29.5zM187 250q-24 -89 15.5 -133.5t120.5 -44.5q170 0 218 178q21 79 -14.5 128.5t-108.5 50.5q-76 0 -143 -50.5t-88 -128.5zM608 227q56 61 169 61h184q15 58 -16.5 99t-104.5 42q-76 1 -142 -55t-90 -147z " glyph-name="oe" horiz-adv-x="997" unicode="œ"/><glyph d="M129 0h-99l188 700h320q123 0 176 -50t25 -153q-20 -75 -84 -120q-42 -36 -132 -51v-2q49 9 74 9q38 0 53 -16q39 -30 17 -115l-53 -202h-99l53 196q8 29 -5 42.5t-52 13.5l-315 -1zM219 338h202q81 0 144 39.5t79 99.5q20 75 -15.5 106.5t-121.5 31.5h-214zM527 758h-79 l96 142h111z" glyph-name="Racute" horiz-adv-x="638" unicode="Ŕ"/><glyph d="M30 0l98 366q36 134 169 134h201l-25 -92l-169 -1q-43 0 -58 -12t-29 -63l-89 -332h-98zM279 558l96 142h111l-128 -142h-79z" glyph-name="racute" horiz-adv-x="387" unicode="ŕ"/><glyph d="M129 0h-99l188 700h320q123 0 176 -50t25 -153q-20 -75 -84 -120q-42 -36 -132 -51v-2q49 9 74 9q38 0 53 -16q39 -30 17 -115l-53 -202h-99l53 196q8 29 -5 42.5t-52 13.5l-315 -1zM219 338h202q81 0 144 39.5t79 99.5q20 75 -15.5 106.5t-121.5 31.5h-214zM255 -192 h-68l96 142h87z" glyph-name="uni0156" horiz-adv-x="638" unicode="Ŗ"/><glyph d="M128 0h-98l98 366q36 134 169 134h201l-25 -92l-169 -1q-43 0 -58 -12t-29 -63zM92 -192h-68l96 142h87z" glyph-name="uni0157" horiz-adv-x="387" unicode="ŗ"/><glyph d="M129 0h-99l188 700h320q123 0 176 -50t25 -153q-20 -75 -84 -120q-42 -36 -132 -51v-2q49 9 74 9q38 0 53 -16q39 -30 17 -115l-53 -202h-99l53 196q8 29 -5 42.5t-52 13.5l-315 -1zM219 338h202q81 0 144 39.5t79 99.5q20 75 -15.5 106.5t-121.5 31.5h-214zM357 921h114 l57 -91l104 91h114l-164 -140h-136z" glyph-name="Rcaron" horiz-adv-x="638" unicode="Ř"/><glyph d="M128 0h-98l98 366q36 134 169 134h201l-25 -92l-169 -1q-43 0 -58 -12t-29 -63zM284 581l-89 140h114l56 -91l105 91h114l-164 -140h-136z" glyph-name="rcaron" horiz-adv-x="387" unicode="ř"/><glyph d="M81 202l98 12q-11 -60 30.5 -93t126.5 -34q95 0 156.5 33.5t78.5 96.5q10 38 -19 61t-79.5 30.5t-109 19t-107.5 26t-74 52t-10 95.5q27 101 120 156t215 53q112 -2 171.5 -50.5t43.5 -138.5l-97 -13q9 53 -25 81.5t-118 28.5q-86 0 -141.5 -31t-70.5 -86 q-7 -26 8.5 -43.5t47 -25.5t72.5 -15t84 -12.5t82 -18t67.5 -31.5t40 -53t-1.5 -82q-11 -40 -34 -76.5t-63.5 -71.5t-108 -56t-152.5 -21q-64 0 -110.5 12t-71.5 32t-39.5 46.5t-14 56t4.5 60.5zM465 758l97 142h111l-128 -142h-80z" glyph-name="Sacute" horiz-adv-x="638" unicode="Ś"/><glyph d="M61 144l99 17q-7 -49 25 -69.5t101 -20.5q146 0 170 91q6 22 -19 34t-66.5 15.5t-89 11t-87 18.5t-60.5 39t-9 72q14 50 50 84t83 48t80 18.5t66 4.5t65.5 -6t65.5 -19.5t50.5 -42t12.5 -67.5l-93 -13q3 40 -26.5 55.5t-97.5 15.5q-71 0 -108.5 -18t-49.5 -63 q-7 -26 29 -38.5t90.5 -17.5t108.5 -14.5t85.5 -38.5t17.5 -80q-14 -53 -52 -89.5t-87 -51.5t-83.5 -20t-68.5 -5q-22 0 -46 2.5t-56.5 12t-56 25t-37 44t-6.5 66.5zM362 558l96 142h111l-128 -142h-79z" glyph-name="sacute" horiz-adv-x="534" unicode="ś"/><glyph d="M80 202l98 12q-12 -59 30 -92.5t126 -34.5q96 0 157.5 33.5t78.5 96.5q9 33 -11.5 54t-60 31t-88 17.5t-96.5 18t-85.5 27.5t-54.5 51.5t-3 84.5q27 101 120 156t215 53q111 -2 170.5 -50.5t43.5 -138.5l-96 -13q9 53 -25 81.5t-118 28.5q-86 0 -142 -31t-70 -86 q-8 -30 13 -48t61 -26t89 -14.5t96.5 -17.5t84.5 -29t53.5 -55t2.5 -91q-11 -40 -34 -76.5t-63.5 -71.5t-108 -56t-152.5 -21q-79 0 -132 18t-74 47.5t-28.5 66.5t3.5 75zM329 781l164 140h136l89 -140h-114l-56 90l-105 -90h-114z" glyph-name="Scircumflex" horiz-adv-x="635" unicode="Ŝ"/><glyph d="M61 144l99 17q-7 -49 25 -69.5t101 -20.5q146 0 170 91q6 22 -19 34t-66.5 15.5t-89 11t-87 18.5t-60.5 39t-9 72q14 50 50 84t83 48t80 18.5t66 4.5t65.5 -6t65.5 -19.5t50.5 -42t12.5 -67.5l-93 -13q3 40 -26.5 55.5t-97.5 15.5q-71 0 -108.5 -18t-49.5 -63 q-7 -26 29 -38.5t90.5 -17.5t108.5 -14.5t85.5 -38.5t17.5 -80q-14 -53 -52 -89.5t-87 -51.5t-83.5 -20t-68.5 -5q-22 0 -46 2.5t-56.5 12t-56 25t-37 44t-6.5 66.5zM343 581h-115l165 140h135l90 -140h-115l-55 90z" glyph-name="scircumflex" horiz-adv-x="534" unicode="ŝ"/><glyph d="M80 202l98 12q-12 -59 30 -92.5t126 -34.5q96 0 157.5 33.5t78.5 96.5q9 33 -11.5 54t-60 31t-88 17.5t-96.5 18t-85.5 27.5t-54.5 51.5t-3 84.5q27 101 120 156t215 53q111 -2 170.5 -50.5t43.5 -138.5l-96 -13q9 53 -25 81.5t-118 28.5q-86 0 -142 -31t-70 -86 q-8 -30 13 -48t61 -26t89 -14.5t96.5 -17.5t84.5 -29t53.5 -55t2.5 -91q-22 -82 -96 -146.5t-211 -76.5l-41 -55q46 0 70 -23.5t11 -71.5q-16 -57 -62 -87t-102 -30q-41 0 -73 16.5t-44 45.5l55 46q7 -20 29 -32t49 -12q63 0 79 55q3 11 -1 20t-16 13.5t-22 7.5t-29 4.5 t-27 1.5h-24l63 100q-55 3 -95.5 16t-62 33.5t-33.5 46t-11.5 53.5t5.5 57z" glyph-name="Scedilla" horiz-adv-x="635" unicode="Ş"/><glyph d="M61 144l99 17q-7 -49 25 -69.5t101 -20.5q146 0 170 91q6 22 -19 34t-66.5 15.5t-89 11t-87 18.5t-60.5 39t-9 72q14 50 50 84t83 48t80 18.5t66 4.5t65.5 -6t65.5 -19.5t50.5 -42t12.5 -67.5l-93 -13q3 40 -26.5 55.5t-97.5 15.5q-71 0 -108.5 -18t-49.5 -63 q-7 -26 29 -38.5t90.5 -17.5t108.5 -14.5t85.5 -38.5t17.5 -80q-38 -143 -241 -163l-40 -55q46 0 70 -23.5t11 -71.5q-16 -57 -62 -87t-102 -30q-41 0 -73 16.5t-44 45.5l55 46q7 -20 29 -32t49 -12q63 0 79 55q3 11 -1 20t-16 13.5t-22 7.5t-29 4.5t-27 1.5h-24l63 100 q-25 2 -47.5 6.5t-48.5 15.5t-43 26.5t-26 41.5t-3 58z" glyph-name="scedilla" horiz-adv-x="534" unicode="ş"/><glyph d="M81 202l98 12q-11 -60 30.5 -93t126.5 -34q95 0 156.5 33.5t78.5 96.5q10 38 -19 61t-79.5 30.5t-109 19t-107.5 26t-74 52t-10 95.5q27 101 120 156t215 53q112 -2 171.5 -50.5t43.5 -138.5l-97 -13q9 53 -25 81.5t-118 28.5q-86 0 -141.5 -31t-70.5 -86 q-7 -26 8.5 -43.5t47 -25.5t72.5 -15t84 -12.5t82 -18t67.5 -31.5t40 -53t-1.5 -82q-11 -40 -34 -76.5t-63.5 -71.5t-108 -56t-152.5 -21q-64 0 -110.5 12t-71.5 32t-39.5 46.5t-14 56t4.5 60.5zM455 781l-90 140h114l57 -91l104 91h115l-165 -140h-135z" glyph-name="Scaron" horiz-adv-x="638" unicode="Š"/><glyph d="M61 144l99 17q-7 -49 25 -69.5t101 -20.5q146 0 170 91q6 22 -19 34t-66.5 15.5t-89 11t-87 18.5t-60.5 39t-9 72q14 50 50 84t83 48t80 18.5t66 4.5t65.5 -6t65.5 -19.5t50.5 -42t12.5 -67.5l-93 -13q3 40 -26.5 55.5t-97.5 15.5q-71 0 -108.5 -18t-49.5 -63 q-7 -26 29 -38.5t90.5 -17.5t108.5 -14.5t85.5 -38.5t17.5 -80q-14 -53 -52 -89.5t-87 -51.5t-83.5 -20t-68.5 -5q-22 0 -46 2.5t-56.5 12t-56 25t-37 44t-6.5 66.5zM351 581l-89 140h114l57 -91l104 91h114l-164 -140h-136z" glyph-name="scaron" horiz-adv-x="534" unicode="š"/><glyph d="M435 608h-252l25 92h601l-24 -92h-218q-33 0 -51 25l-2 -2q18 -23 10 -57l-154 -574h-98zM373 921h115l56 -91l104 91h115l-165 -140h-135z" glyph-name="Tcaron" horiz-adv-x="642" unicode="Ť"/><glyph d="M224 412h-104l25 92h19q35 0 83 50.5t61 101.5l100 1q-15 -52 -56 -98q-26 -29 -51.5 -40t-73.5 -20v-2q37 7 69 7h177l-25 -92h-126l-72 -266q-8 -31 3 -42.5t37 -11.5h97l-25 -92h-91q-94 0 -117 39t4 126zM508 593l-5 13l90 105l-31 -57h-2z" glyph-name="tcaron" horiz-adv-x="467" unicode="ť"/><glyph d="M435 608h-252l25 92h601l-24 -92h-218q-33 0 -51 25l-2 -2q18 -23 10 -57l-42 -156h113l-21 -77h-113l-91 -341h-98l92 341h-115l20 77h115z" glyph-name="Tbar" horiz-adv-x="642" unicode="Ŧ"/><glyph d="M175 230h-104l21 77h104l28 105h-104l25 92h19q35 0 83 50.5t61 101.5l100 1q-15 -52 -56 -98q-26 -29 -51.5 -40t-73.5 -20v-2q37 7 69 7h177l-25 -92h-126l-28 -105h124l-21 -77h-124l-23 -84q-8 -31 3 -42.5t37 -11.5h97l-25 -92h-91q-94 0 -117 39t4 126z" glyph-name="tbar" horiz-adv-x="363" unicode="ŧ"/><glyph d="M112 304l106 396h97l-106 -397q-27 -101 14.5 -160t138.5 -59t169 58t100 161l106 397h98l-106 -396q-41 -152 -150.5 -232t-240.5 -80q-137 0 -202 79t-24 233zM510 887q32 0 54 -14t38 -28.5t32 -15.5q43 -3 78 58l72 -16q-19 -50 -63.5 -85t-105.5 -33 q-40 1 -68.5 28.5t-50.5 28.5q-30 1 -57 -14.5t-41 -40.5l-61 23q59 109 173 109z" glyph-name="Utilde" horiz-adv-x="677" unicode="Ũ"/><glyph d="M213 -6q-184 0 -117 253l69 255h98l-69 -255q-41 -154 81 -154q19 0 42.5 9t53 31t57 69t45.5 113l50 187h98l-134 -500h-98l26 96q10 35 26 67l-2 1q-34 -75 -92.5 -123.5t-133.5 -48.5zM218 578q59 109 173 109q32 0 54 -14t38 -28.5t32 -15.5q43 -3 78 58l73 -17 q-21 -50 -65 -85t-105 -33q-31 1 -50 15t-34 27.5t-35 14.5q-30 2 -56.5 -14t-41.5 -40z" glyph-name="utilde" horiz-adv-x="550" unicode="ũ"/><glyph d="M112 304l106 396h97l-106 -397q-27 -101 14.5 -160t138.5 -59t169 58t100 161l106 397h98l-106 -396q-41 -152 -150.5 -232t-240.5 -80q-137 0 -202 79t-24 233zM381 791l20 72h339l-19 -72h-340z" glyph-name="Umacron" horiz-adv-x="677" unicode="Ū"/><glyph d="M213 -6q-184 0 -117 253l69 255h98l-69 -255q-41 -154 81 -154q19 0 42.5 9t53 31t57 69t45.5 113l50 187h98l-134 -500h-98l26 96q10 35 26 67l-2 1q-34 -75 -92.5 -123.5t-133.5 -48.5zM603 591h-339l19 72h339z" glyph-name="umacron" horiz-adv-x="550" unicode="ū"/><glyph d="M112 304l106 396h97l-106 -397q-27 -101 14.5 -160t138.5 -59t169 58t100 161l106 397h98l-106 -396q-41 -152 -150.5 -232t-240.5 -80q-137 0 -202 79t-24 233zM410 917h82q-11 -41 3.5 -69t58.5 -28t73.5 28t40.5 69h82q-18 -71 -76 -120t-139 -49t-112.5 49t-12.5 120 z" glyph-name="Ubreve" horiz-adv-x="677" unicode="Ŭ"/><glyph d="M213 -6q-184 0 -117 253l69 255h98l-69 -255q-41 -154 81 -154q19 0 42.5 9t53 31t57 69t45.5 113l50 187h98l-134 -500h-98l26 96q10 35 26 67l-2 1q-34 -75 -92.5 -123.5t-133.5 -48.5zM416 548q-81 0 -112.5 49t-12.5 120h83q-12 -41 3 -69t59 -28q43 0 73 28t41 69 h82q-19 -71 -77 -120t-139 -49z" glyph-name="ubreve" horiz-adv-x="550" unicode="ŭ"/><glyph d="M112 304l106 396h97l-106 -397q-27 -101 14.5 -160t138.5 -59t169 58t100 161l106 397h98l-106 -396q-41 -152 -150.5 -232t-240.5 -80q-137 0 -202 79t-24 233zM443 843q10 40 52 68.5t92 28.5q48 0 74 -28.5t16 -68.5q-11 -42 -52.5 -70.5t-90.5 -28.5q-50 0 -76 28.5 t-15 70.5zM546 790q23 0 44.5 15.5t27.5 37.5q5 21 -8 36t-36 15q-24 0 -45.5 -15t-26.5 -36q-6 -22 7 -37.5t37 -15.5z" glyph-name="Uring" horiz-adv-x="677" unicode="Ů"/><glyph d="M213 -6q-184 0 -117 253l69 255h98l-69 -255q-41 -154 81 -154q19 0 42.5 9t53 31t57 69t45.5 113l50 187h98l-134 -500h-98l26 96q10 35 26 67l-2 1q-34 -75 -92.5 -123.5t-133.5 -48.5zM418 544q-50 0 -76 28.5t-15 70.5q11 41 52.5 69t90.5 28t75 -28.5t15 -68.5 q-10 -42 -52 -70.5t-90 -28.5zM385 643q-5 -22 8 -37.5t37 -15.5q23 0 44.5 15.5t27.5 37.5q5 21 -8 36t-36 15q-24 0 -45.5 -15t-27.5 -36z" glyph-name="uring" horiz-adv-x="550" unicode="ů"/><glyph d="M112 304l106 396h97l-106 -397q-27 -101 14.5 -160t138.5 -59t169 58t100 161l106 397h98l-106 -396q-41 -152 -150.5 -232t-240.5 -80q-137 0 -202 79t-24 233zM473 758h-70l96 142h116zM566 758l96 142h116l-142 -142h-70z" glyph-name="Uhungarumlaut" horiz-adv-x="677" unicode="Ű"/><glyph d="M213 -6q-184 0 -117 253l69 255h98l-69 -255q-41 -154 81 -154q19 0 42.5 9t53 31t57 69t45.5 113l50 187h98l-134 -500h-98l26 96q10 35 26 67l-2 1q-34 -75 -92.5 -123.5t-133.5 -48.5zM519 560h-70l96 142h116zM286 560l96 142h116l-142 -142h-70z" glyph-name="uhungarumlaut" horiz-adv-x="550" unicode="ű"/><glyph d="M112 304l106 396h97l-106 -397q-27 -101 14.5 -160t138.5 -59t169 58t100 161l106 397h98l-106 -396q-29 -110 -96.5 -182.5t-157.5 -105.5q-56 -67 -48 -109q5 -26 39 -26q23 0 52 11l33 -42q-43 -38 -114 -38q-32 0 -56.5 10.5t-37 31.5t-1 58t48.5 83q-27 -3 -53 -3 q-137 0 -202 79t-24 233z" glyph-name="Uogonek" horiz-adv-x="677" unicode="Ų"/><glyph d="M213 -6q-184 0 -117 253l69 255h98l-69 -255q-41 -154 81 -154q19 0 42.5 9t53 31t57 69t45.5 113l50 187h98l-134 -500h-16q-74 -64 -91 -125q-6 -51 37 -55q23 0 52 11l33 -42q-43 -38 -114 -38q-30 0 -53 8.5t-36 28t-9.5 47.5t31.5 71t82 94h-14l26 96q10 35 26 67 l-2 1q-34 -75 -92.5 -123.5t-133.5 -48.5z" glyph-name="uogonek" horiz-adv-x="550" unicode="ų"/><glyph d="M251 0l-41 700h103l32 -586q0 -13 -4 -35h2q4 20 11 35l297 586h124l-18 -586q0 -11 -7 -34h2q6 19 14 33l348 587h104l-417 -700h-140l18 564q0 5 2 11h-2q0 -1 -1 -5t-2 -6l-286 -564h-139zM604 781h-114l165 140h135l90 -140h-115l-56 90z" glyph-name="Wcircumflex" horiz-adv-x="1052" unicode="Ŵ"/><glyph d="M150 500h105l21 -395q2 -29 -7 -63h2q9 35 24 64l219 394h157l15 -395q1 -23 -9 -64h2q8 34 26 64l234 395h105l-298 -500h-159l-14 384q0 37 10 74h-2q-11 -42 -29 -74l-212 -384h-160zM503 581h-114l164 140h136l89 -140h-114l-56 90z" glyph-name="wcircumflex" horiz-adv-x="857" unicode="ŵ"/><glyph d="M381 329l-178 370h121l117 -248q13 -30 3 -68h2q11 41 40 68l249 248h121l-377 -370l-88 -329h-98zM357 781l165 140h135l90 -140h-114l-56 90l-105 -90h-115z" glyph-name="Ycircumflex" horiz-adv-x="684" unicode="Ŷ"/><glyph d="M3 -211l22 79h51q27 0 67.5 17t63.5 53l47 80l-63 482h105l41 -328q4 -31 -7 -73h2q11 40 33 73l218 328h106l-382 -571q-47 -76 -105.5 -108t-109.5 -32h-89zM248 581l164 140h136l89 -140h-114l-56 90l-105 -90h-114z" glyph-name="ycircumflex" horiz-adv-x="572" unicode="ŷ"/><glyph d="M203 699h121l117 -248q13 -30 3 -68h2q11 41 40 68l249 248h121l-377 -370l-88 -329h-98l88 329zM596 812l24 88h98l-24 -88h-98zM428 812l23 88h98l-23 -88h-98z" glyph-name="Ydieresis" horiz-adv-x="684" unicode="Ÿ"/><glyph d="M22 0l24 89l593 491q30 26 72 42v2q-43 -16 -77 -16h-441l25 92h607l-24 -89l-589 -491q-30 -26 -72 -42v-2q43 16 77 16h454l-25 -92h-624zM481 758l96 142h111l-128 -142h-79z" glyph-name="Zacute" horiz-adv-x="668" unicode="Ź"/><glyph d="M508 0h-483l26 98l378 285q28 20 74 38v1q-42 -14 -77 -14h-283l25 92h471l-27 -98l-374 -284q-27 -21 -74 -39v-2q38 15 77 15h292zM362 559l96 142h111l-128 -142h-79z" glyph-name="zacute" horiz-adv-x="533" unicode="ź"/><glyph d="M22 0l24 89l593 491q30 26 72 42v2q-43 -16 -77 -16h-441l25 92h607l-24 -89l-589 -491q-30 -26 -72 -42v-2q43 16 77 16h454l-25 -92h-624zM492 808l25 92h110l-25 -92h-110z" glyph-name="Zdotaccent" horiz-adv-x="668" unicode="Ż"/><glyph d="M508 0h-483l26 98l378 285q28 20 74 38v1q-42 -14 -77 -14h-283l25 92h471l-27 -98l-374 -284q-27 -21 -74 -39v-2q38 15 77 15h292zM376 608l24 92h110l-24 -92h-110z" glyph-name="zdotaccent" horiz-adv-x="533" unicode="ż"/><glyph d="M646 0h-624l24 89l593 491q30 26 72 42v2q-43 -16 -77 -16h-441l25 92h607l-24 -89l-589 -491q-30 -26 -72 -42v-2q43 16 77 16h454zM384 921h114l57 -91l104 91h114l-164 -140h-136z" glyph-name="Zcaron" horiz-adv-x="668" unicode="Ž"/><glyph d="M508 0h-483l26 98l378 285q28 20 74 38v1q-42 -14 -77 -14h-283l25 92h471l-27 -98l-374 -284q-27 -21 -74 -39v-2q38 15 77 15h292zM270 721h115l56 -91l104 91h115l-165 -140h-135z" glyph-name="zcaron" horiz-adv-x="533" unicode="ž"/><glyph d="M79 202l97 12q-11 -60 30.5 -93t126.5 -34q95 0 157 33.5t79 96.5q9 33 -12 54t-60 31t-88 17.5t-97 18t-85 27.5t-54 51.5t-4 84.5q28 101 120.5 156t214.5 53q112 -2 171.5 -50.5t43.5 -138.5l-96 -13q9 54 -25.5 82t-117.5 28q-86 0 -142 -31t-71 -86q-7 -26 9 -43.5 t47 -25.5t72 -15t84 -12.5t82.5 -18t67.5 -31.5t39.5 -53t-1.5 -82q-10 -40 -33.5 -76.5t-64 -71.5t-107.5 -56t-152 -21q-64 0 -111 12t-72 32t-39.5 46.5t-14 56t5.5 60.5zM180 -192l96 142h88l-115 -142h-69z" glyph-name="uni0218" horiz-adv-x="633" unicode="Ș"/><glyph d="M61 144l99 17q-7 -49 25 -69.5t101 -20.5q146 0 170 91q6 22 -19 34t-66.5 15.5t-89 11t-87 18.5t-60.5 39t-9 72q14 50 50 84t83 48t80 18.5t66 4.5t65.5 -6t65.5 -19.5t50.5 -42t12.5 -67.5l-93 -13q3 40 -26.5 55.5t-97.5 15.5q-71 0 -108.5 -18t-49.5 -63 q-7 -26 29 -38.5t90.5 -17.5t108.5 -14.5t85.5 -38.5t17.5 -80q-14 -53 -52 -89.5t-87 -51.5t-83.5 -20t-68.5 -5q-22 0 -46 2.5t-56.5 12t-56 25t-37 44t-6.5 66.5zM134 -192l96 142h87l-115 -142h-68z" glyph-name="uni0219" horiz-adv-x="533" unicode="ș"/><glyph d="M435 608h-252l25 92h601l-24 -92h-218q-33 0 -51 25l-2 -2q18 -23 10 -57l-154 -574h-98zM190 -192l96 142h88l-115 -142h-69z" glyph-name="uni021A" horiz-adv-x="642" unicode="Ț"/><glyph d="M125 412l24 92h19q35 0 83 50t62 102l99 1q-15 -52 -56 -98q-26 -29 -51.5 -40t-73.5 -20v-2q37 7 70 7h176l-24 -92h-127l-71 -266q-8 -31 2.5 -42.5t37.5 -11.5h96l-24 -92h-92q-94 0 -117 39t4 126l66 247h-103zM143 -192h-68l96 142h87z" glyph-name="uni021B" horiz-adv-x="372" unicode="ț"/><glyph d="M276 545h-107l184 155h90l101 -155h-105l-60 84z" glyph-name="circumflex" horiz-adv-x="421" unicode="ˆ"/><glyph d="M344 545l-100 85l21 70l100 -61l91 38l79 23l-63 -85z" glyph-name="caron" horiz-adv-x="395" unicode="ˇ"/><glyph d="M181 563l21 81h316l-21 -81h-316z" glyph-name="uni02C9" horiz-adv-x="377" unicode="ˉ"/><glyph d="M334 542q-81 0 -112.5 49.5t-12.5 120.5h82q-10 -39 4.5 -68.5t57.5 -29.5q44 0 74 29.5t40 68.5h83q-19 -71 -77 -120.5t-139 -49.5z" glyph-name="breve" horiz-adv-x="377" unicode="˘"/><glyph d="M283 608h-110l25 92h110z" glyph-name="dotaccent" horiz-adv-x="130" unicode="˙"/><glyph d="M280 544q-50 0 -76 28.5t-15 70.5q11 41 53 69t91 28q48 0 74.5 -28.5t15.5 -68.5q-11 -42 -52.5 -70.5t-90.5 -28.5zM263 643q-5 -16 5 -27t29 -11q17 0 32.5 11t19.5 27q4 15 -5.5 26t-26.5 11q-19 0 -34.5 -11t-19.5 -26z" glyph-name="ring" horiz-adv-x="268" unicode="˚"/><glyph d="M83 4h68q-41 -34 -75 -92q-45 -84 15 -88q19 0 52 9l37 -42q-43 -38 -114 -38q-30 0 -53 8.5t-35.5 28t-9 48t32 71.5t82.5 95z" glyph-name="ogonek" horiz-adv-x="235" unicode="˛"/><glyph d="M233 585l-59 24q31 60 73 87.5t104 25.5q25 -1 43 -9.5t26.5 -19t20.5 -19t25 -9.5q23 -1 39 12.5t32 40.5l79 -11q-20 -50 -66.5 -85.5t-108.5 -33.5q-40 1 -69 28.5t-50 28.5q-51 2 -89 -60z" glyph-name="tilde" horiz-adv-x="444" unicode="˜"/><glyph d="M394 558h-70l96 142h116zM228 558h-70l96 142h116z" glyph-name="hungarumlaut" horiz-adv-x="351" unicode="˝"/><glyph d="M125 700l20 -142h-88l-51 142h119z" glyph-name="gravecomb" horiz-adv-x="0" unicode="̀"/><glyph d="M84 558h-79l96 142h111z" glyph-name="acutecomb" horiz-adv-x="0" unicode="́"/><glyph d="M-122 581h-115l165 140h135l90 -140h-114l-56 90z" glyph-name="uni0302" horiz-adv-x="0" unicode="̂"/><glyph d="M-186 586l-60 23q57 109 172 109q32 0 54.5 -14t38 -28.5t31.5 -15.5q45 -3 78 58l73 -17q-21 -50 -65 -85t-105 -33q-39 2 -67.5 29t-50.5 28q-31 2 -57.5 -14t-41.5 -40z" glyph-name="tildecomb" horiz-adv-x="0" unicode="̃"/><glyph d="M-170 591l19 72h340l-20 -72h-339z" glyph-name="uni0304" horiz-adv-x="0" unicode="̄"/><glyph d="M-26 547q-81 0 -112.5 49.5t-12.5 120.5h82q-11 -41 3.5 -69t58.5 -28t73.5 28t40.5 69h82q-18 -71 -76 -120.5t-139 -49.5z" glyph-name="uni0306" horiz-adv-x="0" unicode="̆"/><glyph d="M159 608h-110l24 92h110z" glyph-name="uni0307" horiz-adv-x="0" unicode="̇"/><glyph d="M2 612h-98l24 88h98zM72 612l24 88h98l-24 -88h-98z" glyph-name="uni0308" horiz-adv-x="0" unicode="̈"/><glyph d="M35 544q-50 0 -76 28.5t-15 70.5q11 41 53 69t91 28q48 0 74.5 -28.5t15.5 -68.5q-11 -42 -52.5 -70.5t-90.5 -28.5zM3 643q-6 -22 7 -37.5t38 -15.5q23 0 44 15.5t27 37.5q6 21 -7 36t-36 15q-25 0 -46.5 -15t-26.5 -36z" glyph-name="uni030A" horiz-adv-x="0" unicode="̊"/><glyph d="M46 558h-70l96 142h116zM-117 558h-70l96 142h116z" glyph-name="uni030B" horiz-adv-x="0" unicode="̋"/><glyph d="M-199 721h114l57 -91l104 91h114l-164 -140h-136z" glyph-name="uni030C" horiz-adv-x="0" unicode="̌"/><glyph d="M-198 -192h-69l96 142h88z" glyph-name="uni0326" horiz-adv-x="0" unicode="̦"/><glyph d="M-344 -218l54 46q7 -20 29 -32t49 -12q63 0 79 55q5 17 -5.5 27.5t-35 14t-38.5 4.5t-39 1l26 40l48 78h86l-54 -72q46 0 70 -23.5t11 -71.5q-15 -57 -61 -87t-102 -30q-41 0 -73 16.5t-44 45.5z" glyph-name="uni0327" horiz-adv-x="0" unicode="̧"/><glyph d="M-162 4h68q-75 -64 -92 -126q-7 -52 36 -56q20 0 53 12l32 -43q-43 -38 -114 -38q-30 0 -53 8.5t-35.5 28t-9 48t32 71.5t82.5 95z" glyph-name="uni0328" horiz-adv-x="0" unicode="̨"/><glyph d="M-5 -132q6 25 29.5 112t43.5 162t20 76l76 282h98l-62 -230q-24 -88 -6.5 -130t81.5 -42q15 0 38 10t53.5 33.5t60 73.5t47.5 118l45 167h98l-134 -500h-98l21 78q8 30 24 63l-2 1q-28 -65 -79.5 -107.5t-116.5 -42.5q-77 0 -88 67l-52 -191h-97z" glyph-name="uni03BC" horiz-adv-x="513" unicode="μ"/><glyph d="M251 0l-41 700h103l32 -586q0 -13 -4 -35h2q4 20 11 35l297 586h124l-18 -586q0 -11 -7 -34h2q6 19 14 33l348 587h104l-417 -700h-140l18 564q0 5 2 11h-2q0 -1 -1 -5t-2 -6l-286 -564h-139zM676 758l-52 142h120l20 -142h-88z" glyph-name="Wgrave" horiz-adv-x="1052" unicode="Ẁ"/><glyph d="M147 500h105l21 -395q2 -29 -7 -63h2q9 35 24 64l219 394h157l15 -395q2 -29 -9 -64h2q11 36 27 64l233 395h105l-298 -500h-159l-13 384q-2 35 9 74h-2q-11 -42 -29 -74l-212 -384h-160zM551 558l-52 142h120l20 -142h-88z" glyph-name="wgrave" horiz-adv-x="854" unicode="ẁ"/><glyph d="M251 0l-41 700h103l32 -586q0 -13 -4 -35h2q4 20 11 35l297 586h124l-18 -586q0 -11 -7 -34h2q6 19 14 33l348 587h104l-417 -700h-140l18 564q0 5 2 11h-2q0 -1 -1 -5t-2 -6l-286 -564h-139zM649 758l96 142h111l-128 -142h-79z" glyph-name="Wacute" horiz-adv-x="1052" unicode="Ẃ"/><glyph d="M147 500h105l21 -395q2 -29 -7 -63h2q9 35 24 64l219 394h157l15 -395q2 -29 -9 -64h2q11 36 27 64l233 395h105l-298 -500h-159l-13 384q-2 35 9 74h-2q-11 -42 -29 -74l-212 -384h-160zM516 558l96 142h111l-128 -142h-79z" glyph-name="wacute" horiz-adv-x="854" unicode="ẃ"/><glyph d="M251 0l-41 700h103l32 -586q0 -13 -4 -35h2q4 20 11 35l297 586h124l-18 -586q0 -11 -7 -34h2q6 19 14 33l348 587h104l-417 -700h-140l18 564q0 5 2 11h-2q0 -1 -1 -5t-2 -6l-286 -564h-139zM860 812h-98l24 88h98zM594 812l23 88h98l-23 -88h-98z" glyph-name="Wdieresis" horiz-adv-x="1052" unicode="Ẅ"/><glyph d="M147 500h105l21 -395q2 -29 -7 -63h2q9 35 24 64l219 394h157l15 -395q2 -29 -9 -64h2q11 36 27 64l233 395h105l-298 -500h-159l-13 384q-2 35 9 74h-2q-11 -42 -29 -74l-212 -384h-160zM726 612h-98l24 88h98zM558 612h-98l24 88h98z" glyph-name="wdieresis" horiz-adv-x="852" unicode="ẅ"/><glyph d="M95 244l27 98h506l-26 -98h-507z" glyph-name="endash" horiz-adv-x="566" unicode="–"/><glyph d="M98 252l26 98h798l-26 -98h-798z" glyph-name="emdash" horiz-adv-x="858" unicode="—"/><glyph d="M146 472l49 181l23 47h102l-120 -228h-54z" glyph-name="quoteleft" horiz-adv-x="152" unicode="‘"/><glyph d="M231 610l-52 -61l-5 13l90 104l-32 -56h-1z" glyph-name="quoteright" horiz-adv-x="152" unicode="’"/><glyph d="M19 -106h-16l11 41h16q54 0 69 57h-70l28 104h112l-28 -104q-14 -54 -41 -76t-81 -22z" glyph-name="quotesinglbase" horiz-adv-x="175" unicode="‚"/><glyph d="M277 497h-112l28 105q14 54 41 75.5t81 21.5h16l-11 -41h-16q-54 0 -69 -56h70zM298 497l28 105q15 54 42 75.5t81 21.5h16l-11 -41h-16q-55 0 -70 -56h70l-28 -105h-112z" glyph-name="quotedblleft" horiz-adv-x="309" unicode="“"/><glyph d="M298 497l11 41h16q55 0 70 57h-70l28 104h112l-28 -104q-15 -55 -42 -76.5t-81 -21.5h-16zM165 497l11 41h16q54 0 69 57h-70l28 104h112l-28 -104q-14 -55 -40.5 -76.5t-81.5 -21.5h-16z" glyph-name="quotedblright" horiz-adv-x="307" unicode="”"/><glyph d="M53 -102h-16l11 41h16q54 0 69 57h-70l28 104h112l-28 -104q-15 -55 -41.5 -76.5t-80.5 -21.5zM186 -102h-16l11 41h16q54 0 69 57h-70l28 104h112l-28 -104q-14 -55 -40.5 -76.5t-81.5 -21.5z" glyph-name="quotedblbase" horiz-adv-x="368" unicode="„"/><glyph d="M248 532h-90l24 89h90l20 79h98l-20 -79h85l-24 -89h-85l-51 -188h-98z" glyph-name="dagger" horiz-adv-x="304" unicode="†"/><glyph d="M225 408h-96l21 81h97l14 55h-96l22 80h96l20 76h98l-20 -76h96l-22 -80h-96l-15 -55h97l-22 -81h-96l-25 -91h-98z" glyph-name="daggerdbl" horiz-adv-x="329" unicode="‡"/><glyph d="M215 120q-67 0 -102 47.5t-17 115.5t78.5 115.5t128.5 47.5t102.5 -47.5t16.5 -115.5q-18 -67 -78.5 -115t-128.5 -48z" glyph-name="bullet" horiz-adv-x="366" unicode="•"/><glyph d="M247 9l27 101h108l-27 -101h-108zM131 9h-108l27 101h108zM472 9l27 101h109l-27 -101h-109z" glyph-name="ellipsis" horiz-adv-x="624" unicode="…"/><glyph d="M1004 290q95 0 120 -68q22 -59 -20 -126q-47 -76 -138 -92q-19 -4 -40 -4q-95 0 -121 68q-22 59 20 126q48 76 138 92q20 4 41 4zM626 290q95 0 121 -68q22 -59 -20 -126q-47 -76 -137 -92q-20 -4 -41 -4q-95 0 -121 68q-22 59 20 126q47 76 137 92q20 4 41 4zM372 700 q95 0 121 -68q22 -59 -20 -126q-48 -76 -138 -92q-20 -4 -41 -4q-95 0 -120 68q-22 59 20 126q47 76 138 92q19 4 40 4zM47 0l700 700h127l-700 -700h-127zM312 476q58 0 89 51q27 44 8 79q-15 28 -55 28q-57 0 -89 -51q-27 -44 -8 -79q15 -28 55 -28zM567 67q59 0 90 51 q27 45 7 79q-16 26 -55 26q-59 0 -91 -51q-27 -45 -6 -79q15 -26 55 -26zM944 67q59 0 90 51q27 45 7 79q-16 26 -55 26q-59 0 -91 -51q-27 -45 -6 -79q15 -26 55 -26z" glyph-name="perthousand" horiz-adv-x="1115" unicode="‰"/><glyph d="M102 324l297 155l-28 -104l-181 -99l128 -99l-28 -103l-214 155z" glyph-name="guilsinglleft" horiz-adv-x="285" unicode="‹"/><glyph d="M331 229l-296 -155l27 104l181 99l-127 99l27 103l214 -155z" glyph-name="guilsinglright" horiz-adv-x="285" unicode="›"/><glyph d="M15 0l651 700h117l-650 -700h-118z" glyph-name="fraction" horiz-adv-x="611" unicode="⁄"/><glyph d="M385 -7q-163 -1 -239.5 90t-29.5 267q47 175 172.5 267t287.5 90q111 -2 185 -45t96 -126l-100 -43q-15 61 -72.5 93t-132.5 33q-90 0 -166 -38.5t-117 -116.5h232l-32 -67h-239q-15 -34 -20 -70h249l-30 -68h-218q-6 -81 48 -128.5t150 -46.5q80 1 152 33t119 91l77 -44 q-67 -84 -164 -127t-208 -44z" glyph-name="Euro" horiz-adv-x="735" unicode="€"/><glyph d="M297 585l31 115h40l20 -73l59 73h40l-31 -115h-38l12 46l-39 -46h-29l-14 47l-13 -47h-38zM193 661l10 39h114l-10 -39h-38l-20 -76h-38l20 76h-38z" glyph-name="trademark" horiz-adv-x="317" unicode="™"/><glyph d="M122 352l399 314l43 -62l-258 -203h530l-27 -98h-529l149 -207l-76 -58z" glyph-name="arrowleft" horiz-adv-x="754" unicode="←"/><glyph d="M530 704l230 -314l-78 -60l-149 203l-141 -529h-98l142 529l-262 -204l-42 61z" glyph-name="arrowup" horiz-adv-x="683" unicode="↑"/><glyph d="M821 352l-398 -314l-44 62l258 203h-529l26 98h529l-148 207l76 58z" glyph-name="arrowright" horiz-adv-x="754" unicode="→"/><glyph d="M342 4l-230 314l79 61l148 -204l142 529h98l-142 -529l262 204l42 -60z" glyph-name="arrowdown" horiz-adv-x="683" unicode="↓"/><glyph d="M729 591l75 60l229 -313l-396 -313l-45 61l259 203h-581l148 -202l-75 -62l-229 313l396 313l43 -60l-257 -205l581 -1z" glyph-name="arrowboth" horiz-adv-x="966" unicode="↔"/><glyph d="M192 404l-43 60l396 313l229 -313l-77 -61l-149 204l-154 -575l257 203l45 -59l-396 -313l-229 312l75 59l151 -202l156 576z" glyph-name="arrowupdn" horiz-adv-x="676" unicode="↕"/><glyph d="M198 615h444l-25 -86h-287l274 -374l-88 -69l-274 374l-80 -291l-84 2z" glyph-name="uni2196" horiz-adv-x="595" unicode="↖"/><glyph d="M724 602l-119 -445l-87 2l78 287l-475 -374l-50 69l474 375l-290 2l24 84h445z" glyph-name="uni2197" horiz-adv-x="595" unicode="↗"/><glyph d="M572 41h-444l25 87l287 -1l-274 374l87 70l274 -375l80 291l84 -1z" glyph-name="uni2198" horiz-adv-x="595" unicode="↘"/><glyph d="M40 43l119 444l87 -2l-78 -287l475 374l50 -69l-474 -374l290 -2l-24 -84h-445z" glyph-name="uni2199" horiz-adv-x="595" unicode="↙"/><glyph d="M226 4q-60 9 -100 39t-54 85.5t22 135.5q42 94 125 143.5t172 49.5t145 -46t43 -124q32 71 38 130t-9 97t-43.5 64.5t-60.5 38.5t-64 14l47 72q153 -17 194 -130t-46 -301q-64 -138 -156 -205t-200 -67q-29 0 -53 4zM194 256q-32 -69 -1 -119t110 -61q57 -9 131 28.5 t104 103.5q30 64 -6.5 117t-93.5 64q-68 13 -140 -25.5t-104 -107.5z" glyph-name="partialdiff" horiz-adv-x="594" unicode="∂"/><glyph d="M360 42q-133 0 -204 87t-38 209q32 122 150 209t251 87t204 -87t39 -209q-33 -122 -151 -209t-251 -87zM213 338q-15 -57 9 -111l380 286q-45 36 -106 36q-94 0 -176.5 -61.5t-106.5 -149.5zM278 163q43 -37 104 -37q93 0 177 62t106 150q14 59 -7 111z" glyph-name="emptyset" horiz-adv-x="698" unicode="∅"/><glyph d="M355 609h-177l25 91h690l-25 -91h-174l-163 -609h-97l163 609h-145l-163 -609h-97z" glyph-name="product" horiz-adv-x="720" unicode="∏"/><glyph d="M758 716l-23 -87h-389l61 -271l-206 -272h388l-23 -86h-536l273 358l-81 358h536z" glyph-name="summation" horiz-adv-x="585" unicode="∑"/><glyph d="M98 252l24 93h486l-25 -93h-485z" glyph-name="minus" horiz-adv-x="545" unicode="−"/><glyph d="M816 608l57 -192h-114l-16 63l-468 -599h-121l-84 322h110l48 -240l504 646h84z" glyph-name="radical" horiz-adv-x="780" unicode="√"/><glyph d="M234 147q-73 0 -110.5 44.5t-18.5 117.5q20 73 81.5 117t134.5 44q57 0 99 -27.5t84 -75.5q67 48 123.5 75.5t114.5 27.5q73 0 110.5 -44t17.5 -117q-19 -74 -79.5 -118t-134.5 -44q-60 0 -102.5 26t-82.5 73q-136 -99 -237 -99zM712 391q-29 0 -64 -14.5t-55 -27.5 t-61 -42q34 -41 63 -60.5t74 -19.5q91 0 112 82q11 42 -8 62t-61 20zM195 309q-11 -40 8.5 -61.5t59.5 -21.5q30 0 62 12.5t54.5 27t58.5 41.5q-27 31 -37.5 42t-37.5 26.5t-56 15.5q-90 0 -112 -82z" glyph-name="infinity" horiz-adv-x="812" unicode="∞"/><glyph d="M63 -125h-77l24 89h32q28 0 40 14.5t30 57.5l248 626q16 42 30 67.5t36 48.5t53 33.5t74 10.5h77l-24 -89h-53q-29 0 -51.5 -20t-31.5 -39t-23 -54l-232 -585q-32 -86 -62.5 -123t-89.5 -37z" glyph-name="integral" horiz-adv-x="429" unicode="∫"/><glyph d="M246 299q33 3 60.5 -10.5t42.5 -31.5t34.5 -32t39.5 -12q36 2 60.5 26t28.5 50l110 10q-13 -72 -68 -122.5t-133 -57.5q-28 -2 -51 8t-37.5 24.5t-29 28.5t-32.5 21t-40 1t-45 -29.5t-27 -45.5l-104 -9q9 66 64 120t127 61zM213 329l-104 -10q9 66 64 120t127 61 q33 3 60.5 -10.5t42.5 -31.5t34.5 -31.5t39.5 -11.5q36 1 60.5 25t28.5 50l110 11q-13 -73 -68.5 -123t-133.5 -57q-28 -2 -50.5 8t-37 24l-29 28t-32.5 21t-40 1q-22 -5 -45 -28.5t-27 -45.5z" glyph-name="approxequal" horiz-adv-x="562" unicode="≈"/><glyph d="M74 164l25 92h182l62 91h-220l25 92h267l87 116h90l-86 -116h146l-25 -92h-191l-61 -91h228l-25 -92h-274l-80 -106h-91l81 106h-140z" glyph-name="notequal" horiz-adv-x="566" unicode="≠"/><glyph d="M116 374l369 155l-27 -101l-252 -102l197 -104l-26 -99l-287 155zM338 -21h-329l25 92h329z" glyph-name="lessequal" horiz-adv-x="359" unicode="≤"/><glyph d="M444 374l-26 -96l-370 -155l27 99l253 104l-198 102l27 101zM9 -21l25 92h329l-25 -92h-329z" glyph-name="greaterequal" horiz-adv-x="359" unicode="≥"/><glyph d="M323 547h97l97 -220l-215 -220h-97l-97 220zM205 327l66 -158l149 158l-65 158z" glyph-name="lozenge" horiz-adv-x="449" unicode="◊"/><glyph d="M105 0l110 412h-95l25 92h129q-19 0 -41 18.5t-13 53.5q16 59 86 91.5t186 32.5l-21 -82q-72 0 -118 -14.5t-53 -41.5q-7 -26 18 -42t57 -16h172q-7 0 -19.5 6.5t-26.5 21t-19 36.5t3 52q39 129 285 139l-23 -87q-156 10 -187 -74q-8 -26 -3 -44t22 -29t34 -16t31 -5h58 l-24 -92h-97l-110 -412h-98l110 412h-170l-110 -412h-98z" glyph-name="uniFB00" horiz-adv-x="578" unicode="ﬀ"/><glyph d="M212 0h-98l111 412h-105l25 92h108q-15 0 -28 20.5t-5 51.5q12 45 74.5 79t138.5 34q120 0 195 -87l-70 -39q-65 61 -136 61q-36 0 -63 -15.5t-32 -37.5q-8 -32 14 -49.5t54 -17.5h58l-25 -92h-106zM470 0h-98l134 500h98z" glyph-name="uniFB01" horiz-adv-x="528" unicode="ﬁ"/><glyph d="M920 622l-70 -39q-54 61 -125 61q-41 0 -73.5 -19.5t-38.5 -43.5q-8 -32 14 -54.5t52 -22.5h58l-25 -92h-106l-110 -412h-98l110 412h-102l25 92h106q-14 0 -26.5 25.5t-3.5 56.5q12 46 85.5 84t154.5 38q119 0 173 -86zM790 500h98l-134 -500h-98zM497 605l38 73 q-65 24 -124 24q-74 0 -124.5 -34.5t-63.5 -81.5q-9 -34 12 -58t39 -24h-129l-25 -92h95l-110 -412h98l110 412h93l25 92h-56q-30 0 -54.5 21t-17.5 48q6 21 31 37.5t65 16.5q46 0 98 -22z" glyph-name="uniFB03" horiz-adv-x="794" unicode="ﬃ"/><glyph d="M362 472h-54l49 181l23 47h102zM200 472h-54l49 181l23 47h102z" glyph-name="glyph390" horiz-adv-x="343"/><glyph d="M397 472l2 228h102l-2 -47l-49 -181h-53zM288 472h-53l2 228h102l-2 -47z" glyph-name="glyph391" horiz-adv-x="343"/></font>
</defs>
</svg>
