<svg xmlns="http://www.w3.org/2000/svg">
<defs>
<font horiz-adv-x="247" id="ywftsvg"><font-face ascent="800" bbox="-395 -296 1452 971" cap-height="700" descent="-200" font-family="" font-stretch="normal" font-weight="900" panose-1="0 0 0 0 0 0 0 0 0 0" underline-position="0" underline-thickness="0" unicode-range="U+000D-FB03" units-per-em="1000" x-height="500"/><missing-glyph d="M348 23l50 188h64q-1 -14 -5 -43.5t-6 -44.5l35 88h63l-50 -188h-43l34 127l-51 -127h-30l15 124l-33 -124h-43zM237 101l9 32q6 21 10 32t12.5 24.5t22 19.5t33.5 6q38 0 43 -24.5t-8 -57.5l-9 -32q-7 -27 -13 -42t-22.5 -27.5t-42.5 -12.5q-38 0 -43 24.5t8 57.5z M102 90l15 55q9 35 26 52.5t52 17.5q37 0 42.5 -22.5t-7.5 -57.5l-1 -6h-49l7 26q4 16 5 25l-6 3l-9 -4l-7 -19l-23 -87l-3 -18l6 -4l8 4q8 18 13 43h49l-2 -7q-9 -36 -26 -54t-52 -18q-34 0 -41.5 19t3.5 52zM405 242h-49l51 189h49q31 0 44 -13q4 -18 -4 -49 q-8 -24 -13 -34q-17 -17 -57 -17zM402 498h-42l20 129h32l-17 -88q14 40 33 88h35q-4 -25 -17 -92q13 41 33 92h33l-49 -129h-42q4 44 8 68zM561 242h-85l50 189h82l-10 -38h-33l-9 -36h30l-9 -36h-31l-11 -41h36zM198 242h-49l40 151h-29l10 38h107l-10 -38h-29zM276 268 q19 69 7 163h45q-5 -58 -8 -75q10 25 34 75h44q-80 -121 -86 -189h-45q6 14 9 26zM276 551l6 22q7 29 17.5 42.5t36.5 13.5t29.5 -16.5t-5.5 -39.5l-6 -22q-7 -28 -17.5 -41.5t-36.5 -13.5t-29.5 16t5.5 39zM169 453l6 23h449l-6 -23h-449zM589 498h-34l35 129h34 q22 0 29.5 -7t1.5 -27q-3 -11 -9 -22q-10 -5 -17 -6q7 -1 12 -6l2 -8l-4 -19l-9 -34h-31l9 32q4 16 4 24l-8 2zM182 498l34 129h34q20 0 29 -9q4 -11 -2 -33q-2 -11 -9 -23q-11 -12 -39 -12l-14 -52h-33zM544 498h-60l35 129h59l-8 -30h-26l-6 -20h27l-8 -29h-26l-5 -19h26z M275 55l5 -4l8 4l7 21l23 87l3 17l-5 3l-7 -3q-5 -14 -6 -17l-24 -88zM72 23h-36l10 38h36zM302 520l4 -3l5 3l5 15l16 59l2 11l-4 3l-4 -2q-4 -8 -5 -12zM447 398l-13 -48h4l10 4q6 11 6 13l5 16v12zM235 572h2l7 2q0 1 2 4.5t2 5.5l3 10q1 2 1 5v4l-9 2zM609 576l9 2 q0 2 2 5t3 5l2 7v8l-8 2z" horiz-adv-x="526"/><glyph d="M348 23l50 188h64q-1 -14 -5 -43.5t-6 -44.5l35 88h63l-50 -188h-43l34 127l-51 -127h-30l15 124l-33 -124h-43zM237 101l9 32q6 21 10 32t12.5 24.5t22 19.5t33.5 6q38 0 43 -24.5t-8 -57.5l-9 -32q-7 -27 -13 -42t-22.5 -27.5t-42.5 -12.5q-38 0 -43 24.5t8 57.5z M102 90l15 55q9 35 26 52.5t52 17.5q37 0 42.5 -22.5t-7.5 -57.5l-1 -6h-49l7 26q4 16 5 25l-6 3l-9 -4l-7 -19l-23 -87l-3 -18l6 -4l8 4q8 18 13 43h49l-2 -7q-9 -36 -26 -54t-52 -18q-34 0 -41.5 19t3.5 52zM405 242h-49l51 189h49q31 0 44 -13q4 -18 -4 -49 q-8 -24 -13 -34q-17 -17 -57 -17zM402 498h-42l20 129h32l-17 -88q14 40 33 88h35q-4 -25 -17 -92q13 41 33 92h33l-49 -129h-42q4 44 8 68zM561 242h-85l50 189h82l-10 -38h-33l-9 -36h30l-9 -36h-31l-11 -41h36zM198 242h-49l40 151h-29l10 38h107l-10 -38h-29zM276 268 q19 69 7 163h45q-5 -58 -8 -75q10 25 34 75h44q-80 -121 -86 -189h-45q6 14 9 26zM276 551l6 22q7 29 17.5 42.5t36.5 13.5t29.5 -16.5t-5.5 -39.5l-6 -22q-7 -28 -17.5 -41.5t-36.5 -13.5t-29.5 16t5.5 39zM169 453l6 23h449l-6 -23h-449zM589 498h-34l35 129h34 q22 0 29.5 -7t1.5 -27q-3 -11 -9 -22q-10 -5 -17 -6q7 -1 12 -6l2 -8l-4 -19l-9 -34h-31l9 32q4 16 4 24l-8 2zM182 498l34 129h34q20 0 29 -9q4 -11 -2 -33q-2 -11 -9 -23q-11 -12 -39 -12l-14 -52h-33zM544 498h-60l35 129h59l-8 -30h-26l-6 -20h27l-8 -29h-26l-5 -19h26z M275 55l5 -4l8 4l7 21l23 87l3 17l-5 3l-7 -3q-5 -14 -6 -17l-24 -88zM72 23h-36l10 38h36zM302 520l4 -3l5 3l5 15l16 59l2 11l-4 3l-4 -2q-4 -8 -5 -12zM447 398l-13 -48h4l10 4q6 11 6 13l5 16v12zM235 572h2l7 2q0 1 2 4.5t2 5.5l3 10q1 2 1 5v4l-9 2zM609 576l9 2 q0 2 2 5t3 5l2 7v8l-8 2z" glyph-name=".notdef" horiz-adv-x="526"/><glyph glyph-name="glyph1" horiz-adv-x="0"/><glyph glyph-name="glyph1" horiz-adv-x="0"/><glyph glyph-name="space" horiz-adv-x="200" unicode=" "/><glyph d="M198 206l-19 206l77 288h187l-77 -288l-129 -206h-39zM56 -8h211l46 172h-211z" glyph-name="exclam" horiz-adv-x="325" unicode="!"/><glyph d="M188 627l19 73h209l-19 -73l-140 -225h-51zM434 402l-18 225l19 73h209l-20 -73l-139 -225h-51z" glyph-name="quotedbl" horiz-adv-x="476" unicode="&quot;"/><glyph d="M143 119h-127l111 170h123l59 98h-127l114 171h122l89 142h201l-89 -142h98l90 142h200l-89 -142h185l-114 -171h-180l-59 -98h184l-111 -170h-180l-75 -119h-200l75 119h-99l-75 -119h-201zM451 289h98l59 98h-98z" glyph-name="numbersign" horiz-adv-x="968" unicode="#"/><glyph d="M117 237l176 1q-10 -36 6.5 -49.5t62.5 -14.5l32 121q-39 4 -60 7t-51.5 10t-45.5 16t-31.5 25.5t-21 38t-3.5 53.5t12 73q15 56 51 96t83.5 59t90.5 27.5t87 8.5l10 35h172l-10 -36q119 -1 167.5 -59t21.5 -161l-172 -1q6 28 -11 42.5t-49 16.5l-31 -114 q125 -7 192 -58.5t42 -145.5q-31 -117 -107 -170.5t-244 -61.5l-11 -42h-172l11 42q-62 4 -105 19t-65.5 37t-31.5 53t-7 62t12 70zM563 284l-29 -111q87 2 101 49q7 29 -9 41.5t-63 20.5zM436 450l26 96q-30 -1 -55 -13.5t-31 -33.5t6.5 -32.5t53.5 -16.5z" glyph-name="dollar" horiz-adv-x="832" unicode="$"/><glyph d="M22 0l799 700h253l-799 -700h-253zM419 700q115 0 148 -69q27 -57 -15 -121q-49 -75 -152 -95q-28 -5 -58 -5q-115 0 -148 69q-28 57 15 122q49 74 152 94q28 5 58 5zM762 290q115 0 148 -69q27 -57 -16 -122q-50 -75 -153 -94q-28 -5 -57 -5q-115 0 -148 69 q-27 57 16 122q50 75 153 94q27 5 57 5zM368 509q45 0 64 36q16 30 -7 47q-12 9 -32 9q-46 0 -64 -36q-16 -30 7 -47q12 -9 32 -9zM711 100q45 0 63 35q16 29 -6 46q-12 9 -33 9q-45 0 -63 -35q-16 -29 6 -46q12 -9 33 -9z" glyph-name="percent" horiz-adv-x="908" unicode="%"/><glyph d="M329 0q-135 0 -202 55t-42 145q14 54 56 91t92 54.5t120 28.5q-94 13 -129.5 58t-20.5 101q22 83 120.5 125t256.5 42q128 0 196 -22t115 -70l-126 -95q-67 63 -218 63q-58 0 -98 -19.5t-49 -52.5q-10 -37 18.5 -61t92.5 -25l151 -1l22 85l182 -21l-17 -63l118 -1 l-29 -110h-119l-82 -308h-187l43 161q-24 -76 -82.5 -118t-181.5 -42zM268 200q-8 -29 17 -51.5t76 -22.5q132 0 187.5 37t79.5 127l4 17h-123q-44 -1 -71.5 -3.5t-59.5 -8.5t-51 -17t-35.5 -30.5t-23.5 -47.5z" glyph-name="ampersand" horiz-adv-x="881" unicode="&amp;"/><glyph d="M205 402l-19 225l20 73h209l-20 -73l-139 -225h-51z" glyph-name="quotesingle" horiz-adv-x="245" unicode="'"/><glyph d="M147 -84q-4 6 -11.5 17.5t-22.5 50t-23.5 81t-6.5 108.5t20 135t51 134.5t67 110t65 79.5t51 52l20 16h183q-7 -6 -20 -17.5t-48.5 -50t-66 -81t-64 -108.5t-51.5 -135t-20.5 -134.5t6.5 -110t21 -79.5t23 -52l10 -16h-183z" glyph-name="parenleft" horiz-adv-x="375" unicode="("/><glyph d="M181 -84h-184q8 6 20.5 17.5t48 50t66 81t64.5 108.5t52 135t20.5 134.5t-6.5 110t-21 79.5t-23 52l-10 16h183q4 -6 11.5 -17.5t22.5 -50t23.5 -81t6.5 -108.5t-20 -135t-51 -134.5t-67 -110t-65 -79.5t-51 -52z" glyph-name="parenright" horiz-adv-x="376" unicode=")"/><glyph d="M598 672l56 -124l-183 -33l166 -35l-114 -115l-94 106l11 -148v-1h-182l102 149l-160 -98l-51 107l193 35l-175 33l125 124l92 -111l-22 147h182l-91 -147z" glyph-name="asterisk" horiz-adv-x="529" unicode="*"/><glyph d="M263 203h-187l46 171h186l39 142h187l-38 -142h185l-46 -171h-185l-40 -150h-187z" glyph-name="plus" horiz-adv-x="602" unicode="+"/><glyph d="M-2 -141l19 71h28q95 0 111 62h-123l47 173h196l-47 -173q-19 -70 -64.5 -101.5t-138.5 -31.5h-28z" glyph-name="comma" horiz-adv-x="267" unicode=","/><glyph d="M67 139l51 188h476l-50 -188h-477z" glyph-name="hyphen" horiz-adv-x="537" unicode="-"/><glyph d="M245 -8h-212l47 172h211z" glyph-name="period" horiz-adv-x="285" unicode="."/><glyph d="M-11 -95l610 795h210l-609 -795h-211z" glyph-name="slash" horiz-adv-x="636" unicode="/"/><glyph d="M330 -10q-61 0 -106 13.5t-71.5 34.5t-41 53t-19 62t-1 69t9 66t14.5 60t18 60t26.5 66t37.5 69t52 62t69.5 53t90 34.5t113.5 13.5t106 -13.5t71 -34.5t40.5 -53t19 -62t1 -69t-9 -66t-14.5 -60q-13 -49 -27 -87.5t-46.5 -92.5t-73 -90t-108 -62t-151.5 -26zM303 348 q-11 -45 -12.5 -81t21.5 -57.5t71 -21.5q123 0 165 160q43 160 -80 160q-67 0 -105.5 -41t-59.5 -119z" glyph-name="zero" horiz-adv-x="665" unicode="0"/><glyph d="M124 408l46 170q154 0 187 122h187l-187 -700h-188l127 474q8 32 26 75l-2 1q-24 -61 -33 -74q-47 -68 -163 -68z" glyph-name="one" horiz-adv-x="373" unicode="1"/><glyph d="M22 0l5 20q19 70 58.5 127.5t88 94.5t102.5 66t106 49t95 36.5t71.5 35t34.5 38.5q10 39 -18 58t-74 19q-59 0 -98.5 -34t-55.5 -87l-188 1q42 151 138.5 216.5t261.5 65.5q144 0 207.5 -52t36.5 -154q-16 -60 -45.5 -102t-72 -68.5t-83.5 -44t-101.5 -43t-104.5 -51.5 q-32 -18 -74 -31v-2q39 12 77 12h319l-45 -170h-641z" glyph-name="two" horiz-adv-x="684" unicode="2"/><glyph d="M369 -6q-163 0 -233 64.5t-35 202.5l188 1q-10 -38 18.5 -67t88.5 -29q58 0 100 26t51 59q10 38 -17.5 51t-93.5 14h-67l24 99h70q57 0 94.5 20t46.5 55q10 34 -19.5 57.5t-80.5 23.5q-63 0 -104 -33.5t-55 -78.5l-186 2q67 246 397 244q132 -1 188 -44t32 -135 q-16 -59 -74.5 -85.5t-130.5 -29.5v-2q49 2 74 -5q40 -9 60 -27.5t26 -56.5t-12 -98q-30 -111 -119.5 -169.5t-230.5 -58.5z" glyph-name="three" horiz-adv-x="691" unicode="3"/><glyph d="M55 148l24 91l500 461h195l-105 -393h107l-26 -159h-86q-36 0 -57 28l-1 -2q19 -28 10 -64l-30 -110h-190l39 148h-380zM526 484l-160 -165h116z" glyph-name="four" horiz-adv-x="731" unicode="4"/><glyph d="M366 -4q-168 0 -236.5 62t-32.5 198l185 1q-16 -62 13 -97.5t105 -35.5q93 0 132.5 30.5t53.5 80.5q15 58 -14 87t-83 29q-41 0 -84 -16t-69 -41h-231l167 406h579l-28 -148h-450l-25 -71q-14 -33 -43 -60l1 -1q33 29 63 37q93 27 177 27q129 0 195 -64t33 -185 q-63 -239 -408 -239z" glyph-name="five" horiz-adv-x="735" unicode="5"/><glyph d="M376 -4q-164 0 -238 79.5t-32 237.5q46 174 169.5 283t308.5 109q63 0 114 -15t82 -40t51 -57t21.5 -66t-7.5 -68l-207 -3q-3 20 -6 31t-11.5 26.5t-26 23t-44.5 7.5q-76 0 -141 -49t-104 -164q-12 -37 -28 -70l2 -1q21 49 36 66q40 49 110 75.5t146 26.5 q110 0 177.5 -54t41.5 -152q-21 -78 -86.5 -130.5t-148 -74t-179.5 -21.5zM279 222q-10 -40 24.5 -66t110.5 -26q164 0 189 92q10 39 -23 65.5t-107 27.5q-75 1 -128.5 -24t-65.5 -69z" glyph-name="six" horiz-adv-x="753" unicode="6"/><glyph d="M349 -5h-217l428 505q23 28 59 44v2q-40 -17 -72 -17h-389l46 171h692l-23 -86z" glyph-name="seven" horiz-adv-x="732" unicode="7"/><glyph d="M377 -6q-157 0 -243 53.5t-59 152.5q28 109 172 160q34 11 74 7v2q-48 4 -71 19q-73 45 -49 130q24 91 125 139.5t242 47.5q142 -1 216.5 -49t50.5 -138q-24 -88 -128 -134q-27 -13 -74 -13v-2q46 0 74 -12q113 -49 83 -157q-27 -99 -141.5 -152.5t-271.5 -53.5zM273 230 q-12 -43 28.5 -66t115.5 -23q72 0 127 22t67 67q8 30 -12 48.5t-54 24.5t-83 7q-167 2 -189 -80zM373 496q-11 -42 21.5 -62t95.5 -20q139 0 160 82q13 46 -19 66t-96 20q-139 0 -162 -86z" glyph-name="eight" horiz-adv-x="757" unicode="8"/><glyph d="M355 -4q-155 0 -227.5 60t-47.5 164l211 3q2 -36 29.5 -55.5t96.5 -17.5t136.5 60.5t100.5 142.5q16 42 28 70l-1 1q-23 -47 -36 -67q-44 -61 -110.5 -92t-139.5 -31q-75 0 -137.5 29.5t-94.5 87t-13 128.5q60 226 435 226q183 0 249.5 -73.5t20.5 -243.5 q-47 -175 -174 -283.5t-326 -108.5zM359 477q-14 -52 31 -75.5t118 -24.5q56 0 114 30.5t68 69.5q10 36 -26.5 69t-101.5 33q-72 0 -130.5 -24.5t-72.5 -77.5z" glyph-name="nine" horiz-adv-x="774" unicode="9"/><glyph d="M303 312h-184l46 171h184zM232 44h-185l46 171h185z" glyph-name="colon" horiz-adv-x="256" unicode=":"/><glyph d="M14 -90l19 71h28q95 0 111 62h-123l47 173h196l-47 -173q-19 -70 -64.5 -101.5t-138.5 -31.5h-28zM318 313h-196l45 170h196z" glyph-name="semicolon" horiz-adv-x="281" unicode=";"/><glyph d="M98 331l388 177l-50 -185l-107 -47l82 -47l-49 -184l-293 177z" glyph-name="less" horiz-adv-x="352" unicode="&lt;"/><glyph d="M114 313l45 170h561l-46 -170h-560zM52 83l46 170h561l-46 -170h-561z" glyph-name="equal" horiz-adv-x="631" unicode="="/><glyph d="M445 331l-29 -109l-388 -177l49 184l107 47l-82 47l50 185z" glyph-name="greater" horiz-adv-x="372" unicode=">"/><glyph d="M149 500q25 95 126 150.5t241 55.5q141 0 207.5 -51.5t39.5 -154.5q-12 -44 -38 -73.5t-56.5 -42.5t-66 -26.5t-66 -26t-56 -40t-36.5 -69.5l-5 -17h-187l4 17q16 60 45.5 104.5t61 67.5t66.5 40.5t63 27t49 24t26 33.5q7 28 -15.5 44.5t-69.5 16.5q-54 0 -94.5 -20 t-51.5 -60h-187zM182 -5l47 172h211l-46 -172h-212z" glyph-name="question" horiz-adv-x="661" unicode="?"/><glyph d="M904 -59q-231 -60 -400 -60q-244 0 -348 115.5t-48 323.5q47 176 232.5 295t420.5 119q484 0 373 -414q-32 -118 -111.5 -173t-171.5 -55q-52 0 -94 16.5t-59 43.5q-12 19 5 73h-1q-14 -41 -39 -61q-63 -50 -144 -50q-91 0 -144 50.5t-31 132.5q23 85 104 138.5t171 53.5 q81 0 115 -31q18 -17 25 -62l2 1q-5 36 2 66l3 13h165l-34 -128q-7 -25 -8 -44.5t3 -28.5t11 -9q14 0 33.5 31t34.5 89q20 76 -32.5 130t-183.5 54q-174 0 -301 -66.5t-159 -183.5q-36 -136 45.5 -212t266.5 -76q141 0 334 48zM517 298q-11 -44 14.5 -68.5t81.5 -24.5 q41 0 67 24t41 78q14 53 0 72t-56 19q-52 0 -93.5 -26.5t-54.5 -73.5z" glyph-name="at" horiz-adv-x="1063" unicode="@"/><glyph d="M22 0l451 700h237l76 -700h-200l-21 120h-261l-79 -120h-203zM530 480l-137 -209h26h22.5h18t16.5 -0.5t12.5 -1.5t12 -2t9.5 -3l10 -4q8 -5 15.5 -18.5t11 -27t9 -34.5t8.5 -31z" glyph-name="A" horiz-adv-x="808" unicode="A"/><glyph d="M23 0l188 700h386q118 0 173.5 -42.5t31.5 -130.5q-7 -29 -40 -58t-84 -48q-18 -6 -54 -8v-2q32 2 54 -5q66 -20 82 -66t-8 -129q-57 -211 -313 -211h-416zM354 535l-32 -121h225q77 0 94 61q8 29 -12 44.5t-57 15.5h-218zM257 170h246q29 0 50.5 15.5t28.5 40.5 q5 22 -7 36.5t-39 14.5h-251z" glyph-name="B" horiz-adv-x="716" unicode="B"/><glyph d="M116 350q47 176 175.5 267.5t295.5 89.5q138 -2 219.5 -64t80.5 -182l-195 -41q-3 39 -44 69t-113 30q-91 1 -151 -46.5t-80 -122.5q-21 -76 18 -123t123 -46q76 0 131.5 30t77.5 69l173 -41q-63 -120 -177.5 -182t-253.5 -64q-168 -2 -247.5 89.5t-32.5 267.5z" glyph-name="C" horiz-adv-x="784" unicode="C"/><glyph d="M398 0h-368l188 700h368q100 0 168.5 -38t97 -115.5t-3.5 -196.5q-31 -115 -101.5 -195.5t-159.5 -117.5t-189 -37zM257 530q19 0 33 -1t31 -4t25.5 -10.5t5.5 -18.5q-35 -130 -88 -325h196q52 0 114.5 47.5t85.5 131.5q21 81 -16 130.5t-88 49.5h-299z" glyph-name="D" horiz-adv-x="784" unicode="D"/><glyph d="M883 700l-46 -171h-478l-31 -115h434l-38 -141h-433l-28 -103h478l-46 -170h-665l188 700h665z" glyph-name="E" horiz-adv-x="724" unicode="E"/><glyph d="M30 0l188 700h632l-45 -171h-427q-17 0 -29 16l-2 -1q13 -16 8 -33l-27 -97h407l-38 -141h-383q-22 0 -36 19l-2 -1q14 -19 9 -40l-67 -251h-188z" glyph-name="F" horiz-adv-x="692" unicode="F"/><glyph d="M380 -7q-167 0 -239 90t-25 267q47 175 177 267t299 90q140 -2 222.5 -64t82.5 -182l-186 -46q-11 61 -57 91t-107 30q-82 1 -150.5 -46.5t-92.5 -139.5q-24 -88 16.5 -137.5t125.5 -49.5q77 0 136 83h-89l35 132h281q77 0 57 -69q-4 -16 -82 -309h-184l66 246l-6 -1 q-45 -149 -105.5 -200.5t-174.5 -51.5z" glyph-name="G" horiz-adv-x="807" unicode="G"/><glyph d="M30 0l188 700h187l-69 -256h336l69 256h187l-187 -700h-188l69 257h-336l-69 -257h-187z" glyph-name="H" horiz-adv-x="771" unicode="H"/><glyph d="M30 0l188 700h187l-188 -700h-187z" glyph-name="I" unicode="I"/><glyph d="M372 -7q-40 0 -77 5t-74 17t-63.5 31.5t-47 48t-22.5 68t9 90.5l190 46q-14 -54 17 -95t113 -41q68 0 132 53.5t91 155.5l87 328h188l-90 -337q-99 -370 -453 -370z" glyph-name="J" horiz-adv-x="757" unicode="J"/><glyph d="M30 0l188 700h187l-74 -277q-9 -35 -35 -76l2 -1q25 39 56 67l326 287h245l-387 -342l205 -358h-249l-173 304l-64 -159l-39 -145h-188z" glyph-name="K" horiz-adv-x="772" unicode="K"/><glyph d="M30 0l188 700h187l-132 -492q-10 -36 -44 -63l1 -2q34 27 71 27h385l-46 -170h-610z" glyph-name="L" horiz-adv-x="668" unicode="L"/><glyph d="M218 0h-188l188 700h197l96 -404q4 -14 0 -34l2 -1q4 20 14 32l315 407h197l-187 -699l-188 -1l71 264q14 56 48 125h-2q-33 -65 -70 -113l-212 -276h-116l-61 264q-15 58 -15 132h-2q0 -72 -17 -132z" glyph-name="M" horiz-adv-x="882" unicode="M"/><glyph d="M30 0l188 700h195l214 -385q19 -36 22 -78l2 1q-4 46 7 87l101 375h187l-187 -700h-197l-213 384q-19 36 -22 78l-2 -1q4 -46 -7 -87l-100 -374h-188z" glyph-name="N" horiz-adv-x="789" unicode="N"/><glyph d="M399 -7q-107 0 -180.5 39t-104.5 118t2 200q31 117 105 200t168 120.5t201 36.5t180 -39.5t104.5 -117.5t-1.5 -200q-47 -174 -178 -265.5t-296 -91.5zM305 350q-23 -83 20 -135t119 -52q80 0 149 51t92 136q22 85 -21 135.5t-119 51.5t-147 -51t-93 -136z" glyph-name="O" horiz-adv-x="802" unicode="O"/><glyph d="M30 0l188 700h417q120 0 171 -63t21 -175q-25 -92 -115.5 -165.5t-204.5 -73.5h-230l-60 -223h-187zM365 550l-50 -186h200q39 0 75.5 27.5t46.5 64.5q12 45 -9 69.5t-64 24.5h-199z" glyph-name="P" horiz-adv-x="732" unicode="P"/><glyph d="M398 -7q-107 0 -180 39t-104 118t2 200q31 117 105 200t168 120.5t200 36.5q107 -1 180 -39.5t104 -117.5t-2 -200q-22 -81 -65 -127.5t-138 -92.5q-31 -14 -70 -27l1 -2q34 13 71 23l178 48l-48 -179h-402zM303 350q-22 -83 20 -126t125 -43q89 0 151.5 46t83.5 123 q22 83 -22.5 126t-121.5 44q-79 0 -146.5 -44t-89.5 -126z" glyph-name="Q" horiz-adv-x="820" unicode="Q"/><glyph d="M30 0l188 700h453q123 0 177 -45t30 -135q-11 -42 -33.5 -69t-42 -37.5t-49.5 -20.5q-44 -18 -98 -22l-1 -2q63 4 93 -11q17 -7 28 -17.5t21 -32.5t7.5 -62.5t-17.5 -97.5l-40 -148h-187l39 147q10 38 -11 57.5t-63 19.5l-245 -1l-60 -223h-189zM367 550l-46 -173h204 q57 0 110 20.5t65 63.5q23 89 -94 89h-239z" glyph-name="R" horiz-adv-x="776" unicode="R"/><glyph d="M95 237l183 2q-9 -39 25 -55.5t105 -17.5q93 -2 144 11.5t61 49.5q4 16 -15.5 26t-55 14t-80.5 9t-92 11t-90 19t-74 34t-43.5 56.5t0.5 85.5q17 63 57.5 109t98 71.5t120.5 37t135 10.5q150 -2 225 -57.5t45 -172.5l-178 -3q9 37 -24 50t-114 13q-162 0 -177 -56 q-5 -17 21.5 -26t71 -13.5t98.5 -9t106 -16t92.5 -31t59 -58t3.5 -93.5q-9 -34 -27 -65.5t-52.5 -64.5t-81 -57t-118 -39.5t-157.5 -15.5q-77 0 -133.5 13t-86.5 35.5t-46.5 53.5t-15 66t9.5 74z" glyph-name="S" horiz-adv-x="769" unicode="S"/><glyph d="M421 530h-259l46 170h704l-45 -170h-225q-32 0 -51 24l-1 -1q17 -24 9 -57l-133 -496h-187z" glyph-name="T" horiz-adv-x="745" unicode="T"/><glyph d="M117 326l101 374h187l-100 -375q-20 -75 18.5 -118.5t114.5 -43.5q78 0 135.5 41t79.5 121l101 375h187l-100 -374q-22 -83 -70 -148.5t-110 -105t-130.5 -60t-137.5 -20.5q-163 0 -242 82t-34 252z" glyph-name="U" horiz-adv-x="778" unicode="U"/><glyph d="M275 0l-65 700h198l48 -524q1 -12 -3 -33l2 -1q4 20 12 32l330 526h201l-441 -700h-282z" glyph-name="V" horiz-adv-x="832" unicode="V"/><glyph d="M272 0l-62 700h199l35 -436q2 -16 -4 -34h2q8 25 12 35l220 435h164l-13 -436q0 -8 -7 -34h2q7 22 15 33l274 437h200l-438 -700h-220l8 323q0 3 2 11h-2q-3 -10 -3 -11l-165 -323h-219z" glyph-name="W" horiz-adv-x="1143" unicode="W"/><glyph d="M24 -1l354 349l-165 351h241l85 -178q6 -15 3 -32h2q4 19 14 29l186 181h245l-367 -350l181 -350h-244l-90 173q-7 12 -5 31l-2 1q-2 -18 -14 -29l-183 -176h-241z" glyph-name="X" horiz-adv-x="826" unicode="X"/><glyph d="M395 298l-190 401h229l88 -205q13 -28 2 -69h2q10 40 39 70l196 204h229l-407 -401l-80 -298h-187z" glyph-name="Y" horiz-adv-x="816" unicode="Y"/><glyph d="M22 0l24 89l505 414q34 26 73 41v2q-43 -16 -77 -16h-375l46 170h719l-24 -89l-495 -413q-31 -26 -73 -42l1 -2q41 16 76 16h382l-46 -170h-736z" glyph-name="Z" horiz-adv-x="780" unicode="Z"/><glyph d="M-5 -132l223 832h378l-46 -170h-152q-37 0 -61 31l-1 -2q24 -30 14 -66l-112 -418q-9 -34 -41 -59l1 -1q32 23 68 23h152l-45 -170h-378z" glyph-name="bracketleft" horiz-adv-x="439" unicode="["/><glyph d="M595 -95h-209l-183 795h209z" glyph-name="backslash" horiz-adv-x="641" unicode="\"/><glyph d="M373 -132h-378l45 170h153q37 0 60 -30l2 1q-24 30 -14 66l112 418q8 34 40 59l-1 2q-31 -24 -68 -24h-152l46 170h378z" glyph-name="bracketright" horiz-adv-x="438" unicode="]"/><glyph d="M159 500l224 300h390l64 -300h-207l-56 246q-4 22 1 48h-2q-6 -27 -19 -43l-188 -251h-207z" glyph-name="asciicircum" horiz-adv-x="728" unicode="^"/><glyph d="M15 -130l46 171h424l-46 -171h-424z" glyph-name="underscore" horiz-adv-x="524" unicode="_"/><glyph d="M377 700l20 -142h-154l-77 142h211z" glyph-name="grave" horiz-adv-x="225" unicode="`"/><glyph d="M472 132q-33 -64 -100 -97.5t-141 -33.5q-81 0 -131 38.5t-33 102.5q16 61 67.5 96t113.5 43t122 9.5t103.5 6.5t47.5 22q7 26 -19.5 39.5t-80.5 13.5q-123 0 -139 -56l-165 2q18 60 74.5 103.5t125 63t138.5 18.5q60 0 108.5 -10t87 -31.5t53 -61t0.5 -93.5l-28 -104 q-5 -19 1.5 -25.5t27.5 -6.5h28l-45 -171h-137q-45 0 -72 30t-16 68zM261 148q-6 -22 12 -33t51 -11q50 0 100.5 21.5t58.5 51.5l12 45q-16 -13 -54 -18t-73.5 -5.5t-67.5 -12.5t-39 -38z" glyph-name="a" horiz-adv-x="712" unicode="a"/><glyph d="M30 0l188 700h187l-72 -267q-7 -30 -29 -68l2 -1q25 43 44 60q43 37 101 60t109 22q277 -2 208 -256q-68 -256 -346 -256q-49 0 -93 19t-68 52q-15 20 -20 72l-2 -1q4 -42 -5 -74l-17 -62h-187zM285 250q-13 -46 21.5 -78.5t110.5 -32.5q137 0 165 111q8 21 6 42.5 t-10.5 39t-34 28.5t-64.5 11q-74 1 -128 -36.5t-66 -84.5z" glyph-name="b" horiz-adv-x="730" unicode="b"/><glyph d="M89 250q33 124 146 190.5t256 65.5q116 -1 194 -60t54 -164l-174 -3q-1 36 -28.5 61t-83.5 26q-70 0 -116 -31.5t-61 -84.5q-13 -50 17 -82.5t99 -31.5q106 3 156 80l173 -2q-22 -70 -85 -122t-136 -74.5t-146 -23.5q-143 -1 -220.5 65.5t-44.5 190.5z" glyph-name="c" horiz-adv-x="685" unicode="c"/><glyph d="M305 -6q-277 0 -209 256q68 254 346 256q49 1 94.5 -21t68.5 -58q11 -16 16 -66h2q-3 35 7 74l71 265h187l-188 -700h-187l17 61q9 36 32 74h-2q-31 -50 -51 -66q-41 -34 -97.5 -54.5t-106.5 -20.5zM282 250q-30 -111 106 -111q76 0 127.5 32.5t64.5 78.5 q12 47 -21.5 84.5t-108.5 36.5q-75 0 -114.5 -35t-53.5 -86z" glyph-name="d" horiz-adv-x="730" unicode="d"/><glyph d="M355 -6q-144 -1 -221.5 65.5t-44.5 190.5t146.5 190.5t256.5 65.5q142 -1 211 -66t35 -190q-1 -7 -8 -28h-457q-4 -40 32 -66.5t92 -26.5q64 1 95.5 12.5t54.5 51.5l174 -3q-29 -61 -67 -101.5t-87.5 -60t-97.5 -27t-114 -7.5zM273 222q45 74 106 74h208q9 43 -27 63.5 t-95 21.5q-36 0 -71.5 -11.5t-72 -49.5t-48.5 -98z" glyph-name="e" horiz-adv-x="713" unicode="e"/><glyph d="M99 330l45 171h135q31 0 67 -9v2q-53 13 -63 22q-38 30 -29 69q11 40 41.5 63t109.5 37.5t214 14.5l-38 -144q-154 0 -161 -28q-4 -12 9 -19.5t40 -7.5h96l-46 -171h-125l-88 -330h-188l89 330h-108z" glyph-name="f" horiz-adv-x="444" unicode="f"/><glyph d="M-11 -40q15 55 49 83.5t100 52.5q-39 10 -50 26t-5 38q12 45 105 68q0 1 -3.5 6.5t-8.5 14.5t-9.5 22t-6 27.5t2.5 31.5q15 56 70 96t120.5 56.5t133.5 16.5q39 0 106 -12q-18 57 47 88t201 26l-32 -118h-73q-63 0 -69 -16q-1 -5 4 -11l3 -2l5.5 -5.5t6.5 -7.5t7.5 -9.5 t7.5 -11.5t7 -13.5t5.5 -15.5t3.5 -17.5t0 -19t-4 -21.5q-22 -81 -117.5 -124.5t-202.5 -43.5q-40 0 -65 5l-10 2t-7.5 2t-3.5 1q-21 2 -24 -12q-3 -9 30 -13t84 -4t108.5 -8.5t104 -24.5t70 -55.5t7.5 -97.5q-20 -73 -129 -116.5t-253 -43.5q-90 0 -165.5 18.5t-119.5 56 t-31 85.5zM336 -90q64 0 111 16.5t56 47.5q8 29 -30 45t-103 21q-13 1 -41 1q-46 0 -92.5 -19.5t-53.5 -47.5q-8 -30 36.5 -47t116.5 -17zM425 280q35 0 64 12.5t37 39.5q7 27 -15.5 39t-57.5 12q-88 0 -102 -52q-7 -27 16 -39t58 -12z" glyph-name="g" horiz-adv-x="708" unicode="g"/><glyph d="M30 0l188 700h187l-77 -287q-8 -29 -30 -74l2 -1q24 48 45 70q93 100 243 100q100 0 153 -70.5t15 -213.5l-60 -224h-188l60 224q15 53 -12.5 88t-90.5 35q-60 0 -118.5 -42t-78.5 -118l-50 -187h-188z" glyph-name="h" horiz-adv-x="725" unicode="h"/><glyph d="M178 552h188l39 148h-187zM32 0l134 500h184l-134 -500h-184z" glyph-name="i" horiz-adv-x="248" unicode="i"/><glyph d="M-107 -194h-22l36 131h22q52 0 81 23t44 79l124 461h188l-124 -461q-35 -130 -113.5 -181.5t-235.5 -51.5zM379 552h-188l40 148h188z" glyph-name="j" horiz-adv-x="262" unicode="j"/><glyph d="M220 0h-190l188 700h189l-87 -313q-9 -33 -37 -71l1 -1q29 36 62 57l202 128h273l-308 -194l190 -305h-87l-1 -1v1h-150l-122 198l-85 -54z" glyph-name="k" horiz-adv-x="725" unicode="k"/><glyph d="M35 0l199 742h188l-199 -742h-188z" glyph-name="l" horiz-adv-x="258" unicode="l"/><glyph d="M217 0h-187l134 500h187l-34 -130q-8 -28 -26 -71l2 -1q21 49 33 68q44 70 99 106t106 36q140 0 147 -139q1 -25 -14 -73l2 -1q13 42 31 68q101 145 214 145q86 0 123 -56t4 -179l-73 -273h-187l56 210q14 55 -4.5 82t-61.5 27q-37 0 -72.5 -33t-51.5 -90l-52 -196h-188 l56 210q15 54 -3 81.5t-59 27.5q-34 0 -73.5 -34t-54.5 -89z" glyph-name="m" horiz-adv-x="1001" unicode="m"/><glyph d="M218 0h-188l134 500h187l-36 -135q-5 -20 -24 -68h2q17 42 32 66q47 71 114.5 108t124.5 37q225 0 142 -307l-54 -201h-187l54 202q16 58 -8 88.5t-71 30.5q-56 0 -104.5 -32t-67.5 -102z" glyph-name="n" horiz-adv-x="684" unicode="n"/><glyph d="M357 -6q-69 0 -124.5 15.5t-94.5 47.5t-52 80t3 113q33 124 147.5 190.5t258.5 65.5t222.5 -67t45.5 -189q-22 -83 -85.5 -142.5t-145.5 -86.5t-175 -27zM277 250q-13 -49 21.5 -80t97.5 -31q62 0 114 31t65 80q13 48 -22.5 80t-96.5 32q-59 1 -113 -31.5t-66 -80.5z" glyph-name="o" horiz-adv-x="718" unicode="o"/><glyph d="M-23 -200l187 700h188l-17 -63q-8 -29 -30 -69l2 -1q24 43 44 60q42 36 99.5 57.5t109.5 21.5q277 0 209 -256q-69 -254 -346 -256q-49 0 -93 20.5t-68 54.5q-13 18 -20 71h-2q5 -37 -5 -74l-71 -266h-187zM285 250q-12 -47 21.5 -84.5t107.5 -36.5q76 0 115.5 35 t52.5 86q30 111 -106 111q-75 0 -127 -32.5t-64 -78.5z" glyph-name="p" horiz-adv-x="730" unicode="p"/><glyph d="M298 -6q-277 2 -209 256q68 256 346 256q49 0 93.5 -19.5t68.5 -52.5q14 -20 19 -71h2q-3 38 5 74l17 63h188l-188 -700h-187l71 266q9 32 29 69l-1 1q-26 -43 -45 -60q-41 -37 -99.5 -59.5t-109.5 -22.5zM275 250q-14 -51 7 -86t96 -36q75 0 129 37.5t66 84.5 q12 46 -22.5 78.5t-110.5 32.5q-74 0 -113.5 -32t-51.5 -79z" glyph-name="q" horiz-adv-x="717" unicode="q"/><glyph d="M218 0h-188l81 305q28 103 85.5 149t162.5 46h265l-46 -170l-205 -1q-41 0 -58.5 -16.5t-31.5 -69.5z" glyph-name="r" horiz-adv-x="518" unicode="r"/><glyph d="M68 163l191 17q-7 -32 23 -47t89 -15q55 0 91 13.5t41 33.5q3 10 -14 16t-46.5 8t-66.5 5.5t-76 7t-74.5 14t-61.5 25.5t-37 42t-1 63q14 50 58.5 85t104 50t104.5 20.5t84 5.5q70 0 130 -18t95 -57.5t21 -92.5l-168 -13q5 28 -24.5 42t-92.5 14q-114 0 -126 -45 q-3 -10 14 -15.5t46.5 -7t66.5 -5t76 -7t74.5 -13.5t61.5 -24.5t37 -41.5t1 -63q-14 -53 -59.5 -89.5t-107 -51.5t-105.5 -20t-87 -5q-36 0 -78.5 7t-92.5 23.5t-77 52.5t-14 86z" glyph-name="s" horiz-adv-x="668" unicode="s"/><glyph d="M99 330l45 171h41q43 0 90 60.5t66 129.5h187q-36 -127 -158 -179q-11 -5 -70 -16l-1 -2q37 7 70 7h233l-46 -171h-173l-28 -106q-8 -31 3 -42.5t37 -11.5h143l-46 -170h-190q-104 0 -134.5 63t3.5 175l25 92h-97z" glyph-name="t" horiz-adv-x="500" unicode="t"/><glyph d="M257 -1q-116 0 -151.5 75.5t6.5 231.5l54 201h187l-54 -202q-16 -60 8.5 -89.5t74.5 -29.5q55 0 102 32t66 102l50 187h187l-134 -500h-187l36 134q5 19 24 67l-2 1q-17 -42 -32 -66q-46 -71 -112 -107.5t-123 -36.5z" glyph-name="u" horiz-adv-x="695" unicode="u"/><glyph d="M207 0l-53 500h202l25 -302q3 -34 -6 -74l1 -1q12 43 28 70l184 307h201l-321 -500h-261z" glyph-name="v" horiz-adv-x="675" unicode="v"/><glyph d="M133 500h200l27 -320q3 -26 -5 -63h2q7 34 23 64l170 319h307v-322q0 -27 -11 -64h2q10 34 28 63l201 323h199l-313 -500h-296l-1 318q0 33 11 75h-2q-10 -40 -28 -75l-169 -318h-301z" glyph-name="w" horiz-adv-x="1138" unicode="w"/><glyph d="M18 0l261 250l-127 250h238l48 -95q7 -14 5 -35h2q2 19 15 32l103 98h239l-261 -250l127 -250h-237l-50 96q-8 15 -4 35h-2q-4 -20 -16 -31l-104 -100h-237z" glyph-name="x" horiz-adv-x="685" unicode="x"/><glyph d="M167 -202h-212l35 132h99q111 0 131 30l23 36l-99 504h207l46 -250q6 -34 -4 -72h2q11 39 34 72l178 250h206l-411 -571q-88 -131 -235 -131z" glyph-name="y" horiz-adv-x="708" unicode="y"/><glyph d="M664 0h-639l36 136l290 172q31 18 76 32v2q-41 -12 -77 -12h-226l46 170h624l-36 -136l-289 -172q-33 -19 -76 -32v-2q41 12 77 12h240z" glyph-name="z" horiz-adv-x="693" unicode="z"/><glyph d="M338 -121q-58 0 -85 1t-64.5 7t-50.5 18.5t-25 35t-9 58.5t17 87l20 75q3 10 2.5 17.5t-3.5 12.5t-7.5 8.5t-10.5 5t-12 2.5t-11.5 1h-9.5h-4l45 170q48 0 66 19q11 11 16 28l20 76q10 37 21.5 65.5t28 49t31 35t38.5 24t42 14.5t50 7.5t53.5 3t61.5 0.5l-45 -170 q-86 0 -106 -77l-22 -81q-12 -45 -41 -65q-21 -17 -71 -12v-2q55 -5 67 -27q11 -20 1 -59l-22 -82q-10 -38 4.5 -57t60.5 -19z" glyph-name="braceleft" horiz-adv-x="436" unicode="{"/><glyph d="M-24 -200l242 900h187l-241 -900h-188z" glyph-name="bar" unicode="|"/><glyph d="M325 86q-10 -38 -21.5 -68t-27.5 -51.5t-29.5 -36.5t-37.5 -24.5t-40.5 -15t-50.5 -8t-55.5 -3t-65.5 -0.5l45 170q86 0 106 76l22 82q12 44 41 66q25 18 72 12v2q-57 7 -68 27q-12 20 -1 58l21 81q22 77 -64 77l46 170q54 0 80.5 -1t63 -6.5t51 -18t28 -34t11.5 -56.5 t-15 -83l-20 -76q-3 -10 -2.5 -17.5t3.5 -12.5t7.5 -8.5t10.5 -5t12 -2.5t11.5 -1h9.5h4l-46 -170q-48 0 -67 -19q-10 -11 -14 -28z" glyph-name="braceright" horiz-adv-x="401" unicode="}"/><glyph d="M350 437q44 3 79 -6.5t53 -22t43 -22t51 -7.5q28 1 52.5 21.5t30.5 48.5l225 9q-20 -102 -105.5 -176t-201.5 -82q-46 -2 -84.5 15.5t-68.5 32.5t-61 9q-30 -5 -51 -26.5t-27 -47.5l-209 -9q10 86 94.5 171t179.5 92z" glyph-name="asciitilde" horiz-adv-x="789" unicode="~"/><glyph d="M384 500h-211l-46 -172h211zM242 286l19 -206l-77 -288h-188l78 288l129 206h39z" glyph-name="exclamdown" horiz-adv-x="289" unicode="¡"/><glyph d="M270 96q-78 4 -131 73t-23 180q30 112 120.5 181.5t166.5 71.5l26 98h171l-26 -99q64 -1 109.5 -39.5t49.5 -108.5l-168 -64q-4 31 -36 46t-80 15q-59 0 -103 -25.5t-57 -74.5q-13 -48 19 -71.5t89 -23.5q45 0 88 14.5t61 40.5l131 -65q-41 -66 -107 -105t-129 -43 l-26 -97h-171z" glyph-name="cent" horiz-adv-x="634" unicode="¢"/><glyph d="M825 0h-810l41 152q102 0 153 26t61 61q11 37 3 57h-141l68 108h70q-26 52 -9 114q24 90 129 138t256 49q71 0 124 -11.5t93 -40t50.5 -74.5t-3.5 -115l-171 -7q10 49 -30.5 71.5t-99.5 22.5q-145 0 -164 -65q-10 -40 17 -82h216l-52 -108h-139q9 -25 1 -56 q-9 -33 -42.5 -59.5t-71.5 -39.5v-2q36 13 74 13h402z" glyph-name="sterling" horiz-adv-x="850" unicode="£"/><glyph d="M56 177l94 62q-14 26 2 86q14 53 48 86l-61 62l113 75l61 -62q42 26 119 26q68 0 98 -23l93 62l77 -84l-94 -62q18 -28 4 -80q-16 -60 -52 -89l61 -62l-113 -75l-60 62q-19 -11 -53.5 -21t-63.5 -10q-62 0 -102 25l-94 -62zM315 325q-6 -23 9 -39.5t43 -16.5 q26 0 50 16.5t30 39.5t-9 39.5t-42 16.5t-51 -16.5t-30 -39.5z" glyph-name="currency" horiz-adv-x="584" unicode="¤"/><glyph d="M190 72l29 106h156l8 28h-157l31 115h156l7 24l-175 354h230l69 -166q13 -31 6 -72h2q7 38 33 64l170 174h239l-386 -354l-7 -24h156l-31 -115h-156l-7 -28h156l-29 -106h-156l-19 -72h-187l19 72h-157z" glyph-name="yen" horiz-adv-x="840" unicode="¥"/><glyph d="M116 319l101 379h188l-102 -379h-187zM-24 -200l102 379h188l-102 -379h-188z" glyph-name="brokenbar" horiz-adv-x="248" unicode="¦"/><glyph d="M380 -82q-162 0 -239.5 52t-73.5 151l191 1q-2 -40 31.5 -66t120.5 -26q169 0 183 54q4 16 -22 27t-71 18t-99.5 13.5t-108 17.5t-96 27t-64 44t-11.5 66q22 85 203 109q30 4 76 2v2q-55 2 -75 7q-73 15 -118.5 44.5t-33.5 75.5q14 53 67 89.5t126.5 51.5t126.5 20t104 5 q146 0 234.5 -53t84.5 -147l-185 -2q3 41 -43 67t-120 26q-124 0 -136 -50q-5 -18 41.5 -31t114 -24.5t134 -28.5t107.5 -51t28 -82q-7 -26 -23 -44t-42.5 -27.5t-48 -14t-57.5 -8.5q-35 -5 -75 -3v-2q55 -3 75 -7q62 -15 97.5 -49.5t20.5 -87.5q-14 -53 -67 -89.5 t-126.5 -51.5t-126.5 -20t-104 -5zM323 339q-11 -41 39.5 -65.5t136.5 -33.5q27 -3 49 -3q103 0 118 60q8 29 -23 51t-71.5 32t-91.5 16q-28 3 -52 3q-90 0 -105 -60z" glyph-name="section" horiz-adv-x="810" unicode="§"/><glyph d="M382 466l63 234h188l-63 -234h-188zM336 466h-187l62 234h188z" glyph-name="dieresis" horiz-adv-x="469" unicode="¨"/><glyph d="M488 -50q-199 0 -309.5 110t-69.5 265q42 155 211.5 265t368.5 110t309.5 -110t69.5 -265q-42 -155 -211.5 -265t-368.5 -110zM236 325q-31 -115 50.5 -196t227.5 -81t271 81t156 196t-50.5 196t-227.5 81t-271 -81t-156 -196zM537 108q-120 -1 -185 55t-38 160 q28 105 123.5 161t215.5 55q97 -1 163 -50.5t46 -138.5l-148 -3q-1 30 -24.5 51t-68.5 21q-60 0 -97.5 -25.5t-49.5 -70.5q-11 -41 13.5 -68t82.5 -26q88 1 130 66l147 -2q-18 -59 -71 -102.5t-115 -62.5t-124 -20z" glyph-name="copyright" horiz-adv-x="991" unicode="©"/><glyph d="M432 484q-23 -41 -68 -63t-93 -22q-54 0 -87.5 25.5t-22.5 69.5q11 41 45.5 64.5t76 29t82 6.5t69.5 4t32 15q4 18 -13.5 26.5t-53.5 8.5q-82 0 -92 -37l-113 1q17 60 85 92.5t144 32.5q55 -1 95 -12t62.5 -41.5t9.5 -78.5l-18 -70q-4 -12 0.5 -17t18.5 -5h20l-31 -115 h-93q-31 0 -49.5 20t-10.5 46zM293 498q-4 -15 7.5 -22t33.5 -7q34 0 67.5 14t39.5 35l8 30q-13 -10 -50 -12t-68.5 -8.5t-37.5 -29.5z" glyph-name="ordfeminine" horiz-adv-x="500" unicode="ª"/><glyph d="M476 508l-49 -187l-93 -45l68 -46l-49 -185l-279 177l29 109zM820 508l-50 -187l-92 -45l67 -46l-49 -185l-279 177l30 109z" glyph-name="guillemotleft" horiz-adv-x="699" unicode="«"/><glyph d="M143 440h639l-99 -370h-188l54 200h-452z" glyph-name="logicalnot" horiz-adv-x="690" unicode="¬"/><glyph d="M318 417q-79 0 -122 49t-25 119q19 70 88.5 119t148.5 49q80 0 123 -49t24 -119t-88 -119t-149 -49zM241 585q-12 -44 15.5 -76t77.5 -32q51 0 95.5 32t56.5 76q12 45 -15.5 76.5t-78.5 31.5q-50 0 -94.5 -31.5t-56.5 -76.5zM276 517l38 141h91q24 0 35 -9.5t7 -27.5 q-3 -11 -8.5 -16.5t-15.5 -9t-11 -4.5l6 -1q20 -7 10 -42l-8 -31h-39l8 29q4 15 -14 15h-48l-12 -44h-39zM345 628l-9 -35h40q29 0 34 17q4 18 -18 18h-47z" glyph-name="registered" horiz-adv-x="413" unicode="®"/><glyph d="M177 587l34 125h427l-33 -125h-428z" glyph-name="macron" horiz-adv-x="467" unicode="¯"/><glyph d="M351 433q-88 0 -138 45.5t-33 110.5q17 64 91.5 110t162.5 46t138 -46t33 -110t-91.5 -110t-162.5 -46zM311 589q-7 -26 12 -44t53 -18t62.5 18t35.5 44t-12 44t-53 18t-62.5 -18t-35.5 -44z" glyph-name="degree" horiz-adv-x="469" unicode="°"/><glyph d="M535 520l150 -23l-15 -163l-158 -8l-61 -120l-186 -24l25 120l-151 24l14 163l159 8l60 113l186 24zM71 -61l-22 163l495 8l23 -164z" glyph-name="plusminus" horiz-adv-x="602" unicode="±"/><glyph d="M129 400l3 10q13 50 46 87t71.5 56.5t75 33.5t63 26.5t30.5 26.5q6 20 -9 30t-38 10q-59 0 -80 -62h-96q21 78 71 111.5t135 33.5q74 0 106.5 -26.5t18.5 -79.5q-8 -29 -21.5 -50t-34.5 -35t-40 -22.5t-48.5 -21t-50.5 -23.5q-38 -19 -69 -26v-2q37 10 75 10h146l-24 -87 h-330z" glyph-name="uni00B2" horiz-adv-x="374" unicode="²"/><glyph d="M306 406q-80 0 -114 31.5t-17 98.5l91 1q-5 -19 9 -33t43 -14t49.5 12.5t24.5 28.5q5 19 -8.5 25t-45.5 7h-33l12 48h34q59 0 69 37q4 16 -10 27.5t-39 11.5q-31 0 -51 -16t-26 -38h-91q33 121 194 119q64 0 91.5 -21t15.5 -66q-15 -55 -119 -55v-2q56 0 73 -9 q35 -18 18 -82q-31 -111 -170 -111z" glyph-name="uni00B3" horiz-adv-x="369" unicode="³"/><glyph d="M288 558h-155l96 142h212z" glyph-name="acute" horiz-adv-x="190" unicode="´"/><glyph d="M444 287q-176 0 -244 46t-37 164q30 112 125.5 160.5t267.5 48.5h188l-213 -794h-187zM791 -88h-187l212 794h188z" glyph-name="paragraph" horiz-adv-x="845" unicode="¶"/><glyph d="M287 308h-184l45 171h184z" glyph-name="periodcentered" horiz-adv-x="224" unicode="·"/><glyph d="M-98 -221l72 64q15 -41 74 -41q29 0 53 13.5t31 37.5q4 16 -5.5 26t-33 13.5t-38 4t-39.5 0.5h-9l27 39l50 79h145l-53 -65q85 0 57 -102q-18 -67 -72.5 -100t-121.5 -33q-48 0 -86.5 17.5t-50.5 46.5z" glyph-name="cedilla" horiz-adv-x="282" unicode="¸"/><glyph d="M182 596l22 82q73 0 89 58h90l-90 -336h-90l56 209q9 33 27 71l-2 1q-2 -5 -7 -16.5t-8.5 -19t-9.5 -16.5t-12 -14q-23 -19 -65 -19z" glyph-name="uni00B9" horiz-adv-x="208" unicode="¹"/><glyph d="M287 375q-164 0 -116 181q50 182 213 182q165 0 115 -182q-48 -181 -212 -181zM267 556q-22 -81 47 -81q34 0 57 22t33 59q21 81 -47 81q-69 0 -90 -81z" glyph-name="ordmasculine" horiz-adv-x="379" unicode="º"/><glyph d="M494 508l278 -177l-29 -109l-373 -177l50 185l92 46l-68 45zM151 508l278 -177l-29 -109l-373 -177l49 185l92 46l-67 45z" glyph-name="guillemotright" horiz-adv-x="703" unicode="»"/><glyph d="M200 0l537 700h185l-536 -700h-186zM553 89l15 53l296 273h115l-62 -232h63l-15 -94h-51q-22 0 -34 16l-1 -1q12 -16 6 -38l-17 -65h-113l24 88h-226zM292 605q-17 -50 -43.5 -70t-80.5 -20l29 108q98 0 118 77h119l-119 -444h-119l81 301q6 22 17 47zM832 287l-95 -97 h69z" glyph-name="onequarter" horiz-adv-x="971" unicode="¼"/><glyph d="M118 0l537 700h185l-537 -700h-185zM880 -4h-375l3 12q15 56 52.5 98t81 64.5t85.5 38.5t72 30t34 30q6 24 -10.5 35t-43.5 11q-35 0 -57.5 -20t-32.5 -51h-110q25 88 81.5 127t152.5 39q85 0 122 -30.5t21 -90.5q-12 -43 -38 -72t-52.5 -41.5t-72.5 -31.5t-75 -36 q-21 -12 -44 -18l1 -1q23 7 44 7h188zM173 533l26 97q88 0 107 70h107l-107 -401h-108l73 271q6 19 15 44h-1q-13 -34 -19 -43q-26 -38 -93 -38z" glyph-name="onehalf" horiz-adv-x="911" unicode="½"/><glyph d="M435 0h-185l536 700h185zM293 286q-96 0 -137 38t-21 119l110 1q-5 -23 12 -39.5t52 -16.5q34 0 58.5 15.5t29.5 34.5q6 22 -10 29.5t-55 8.5h-39l14 58h41q72 0 83 45q6 20 -11.5 33.5t-47.5 13.5q-37 0 -61 -19.5t-32 -46.5l-110 1q40 146 234 144q78 -1 111 -26.5 t18 -79.5q-8 -34 -44 -50.5t-76 -16.5v-2q27 2 43 -2q36 -9 46 -31t-2 -76q-37 -135 -206 -135zM578 78l13 48l268 248h105l-57 -211h58l-14 -85h-46q-19 0 -31 14h-1q11 -14 6 -35l-16 -59h-102l21 80h-204zM831 258l-86 -89h62z" glyph-name="threequarters" horiz-adv-x="946" unicode="¾"/><glyph d="M261 -211q-142 0 -208.5 52t-38.5 154q14 52 47.5 83.5t73 45.5t79 27.5t72.5 43t46 78.5l5 17h188l-5 -17q-19 -71 -56 -120t-77 -71.5t-77.5 -37.5t-65.5 -30.5t-34 -37.5q-8 -28 15 -44.5t70 -16.5q54 0 94 20t51 60h187q-25 -95 -126 -150.5t-240 -55.5zM336 328 l47 172h211l-46 -172h-212z" glyph-name="questiondown" horiz-adv-x="644" unicode="¿"/><glyph d="M231 0h-203l452 700h236l76 -700h-200l-20 120h-261zM560 758l-78 142h214l20 -142h-156zM536 480l-136 -209h26h22.5h17.5t16 -0.5t12.5 -1.5t12 -2t9.5 -3l10 -4q8 -5 15.5 -18.5t11 -27t9 -34.5t8.5 -31z" glyph-name="Agrave" horiz-adv-x="814" unicode="À"/><glyph d="M225 0h-203l452 700h236l76 -700h-200l-20 120h-261zM661 758h-154l96 142h211zM530 480l-136 -209h26h22.5h17.5t16 -0.5t12.5 -1.5t12 -2t9.5 -3l10 -4q8 -5 15.5 -18.5t11 -27t9 -34.5t8.5 -31z" glyph-name="Aacute" horiz-adv-x="802" unicode="Á"/><glyph d="M225 0h-203l452 700h236l76 -700h-200l-20 120h-261zM358 778l175 181h245l78 -181h-185l-36 103l-92 -103h-185zM530 480l-136 -209h26h22.5h17.5t16 -0.5t12.5 -1.5t12 -2t9.5 -3l10 -4q8 -5 15.5 -18.5t11 -27t9 -34.5t8.5 -31z" glyph-name="Acircumflex" horiz-adv-x="802" unicode="Â"/><glyph d="M225 0h-203l452 700h236l76 -700h-200l-20 120h-261zM350 752q54 177 228 177q29 0 51 -9t32.5 -19.5t24 -19.5t26.5 -10q39 -2 61 58l136 -4q-24 -84 -78.5 -133t-140.5 -49q-40 0 -64.5 14t-41.5 28t-37 15q-30 2 -53 -13.5t-32 -40.5zM394 271h26h22.5h17.5t16 -0.5 t12.5 -1.5t12 -2t9.5 -3l10 -4q8 -5 15.5 -18.5t11 -27t9 -34.5t8.5 -31l-34 331z" glyph-name="Atilde" horiz-adv-x="802" unicode="Ã"/><glyph d="M225 0h-203l452 700h236l76 -700h-200l-20 120h-261zM387 754l39 146h188l-39 -146h-188zM614 754l39 146h188l-39 -146h-188zM530 480l-136 -209h26h22.5h17.5t16 -0.5t12.5 -1.5t12 -2t9.5 -3l10 -4q8 -5 15.5 -18.5t11 -27t9 -34.5t8.5 -31z" glyph-name="Adieresis" horiz-adv-x="802" unicode="Ä"/><glyph d="M225 0h-203l452 700h236l76 -700h-200l-20 120h-261zM604 742q-72 0 -112.5 33t-27.5 81q12 47 70.5 80t130.5 33q70 0 110.5 -33t27.5 -80q-13 -48 -70.5 -81t-128.5 -33zM530 480l-136 -209h26h22.5h17.5t16 -0.5t12.5 -1.5t12 -2t9.5 -3l10 -4q8 -5 15.5 -18.5t11 -27 t9 -34.5t8.5 -31zM576 856q-4 -17 9.5 -29t37.5 -12q23 0 43.5 12t24.5 29q5 16 -9 27.5t-37 11.5q-25 0 -45 -11.5t-24 -27.5z" glyph-name="Aring" horiz-adv-x="802" unicode="Å"/><glyph d="M31 0l452 700h735l-45 -171h-384l-30 -111h329l-38 -140h-329l-28 -108h383l-45 -170h-572l34 127h-179l-81 -127h-202zM621 604l-192 -297h113z" glyph-name="AE" horiz-adv-x="1063" unicode="Æ"/><glyph d="M116 350q47 176 175.5 267.5t295.5 89.5q138 -2 219.5 -64t80.5 -182l-195 -41q-3 39 -44 69t-113 30q-91 1 -151 -46.5t-80 -122.5q-21 -76 18 -123t123 -46q76 0 131.5 30t77.5 69l173 -41q-56 -106 -152.5 -167t-215.5 -75l-38 -48q84 0 57 -102q-18 -67 -73.5 -100 t-121.5 -33q-48 0 -86.5 17.5t-50.5 46.5l72 65q15 -41 76 -41q29 0 52 13t30 37q3 11 -0.5 19t-14 12.5t-20 7.5t-27.5 4t-26 1h-25h-9l65 102q-131 19 -187.5 108.5t-15.5 243.5z" glyph-name="Ccedilla" horiz-adv-x="785" unicode="Ç"/><glyph d="M883 700l-46 -171h-478l-31 -115h434l-38 -141h-433l-28 -103h478l-46 -170h-665l188 700h665zM656 900l20 -142h-156l-77 142h213z" glyph-name="Egrave" horiz-adv-x="724" unicode="È"/><glyph d="M883 700l-46 -171h-478l-31 -115h434l-38 -141h-433l-28 -103h478l-46 -170h-665l188 700h665zM618 758h-155l96 142h212z" glyph-name="Eacute" horiz-adv-x="724" unicode="É"/><glyph d="M695 0h-665l188 700h665l-46 -171h-478l-31 -115h434l-38 -141h-433l-28 -103h478zM522 763h-185l175 182h245l78 -182h-185l-36 103z" glyph-name="Ecircumflex" horiz-adv-x="724" unicode="Ê"/><glyph d="M695 0h-665l188 700h665l-46 -171h-478l-31 -115h434l-38 -141h-433l-28 -103h478zM374 754l39 146h188l-39 -146h-188zM789 754h-188l39 146h188z" glyph-name="Edieresis" horiz-adv-x="724" unicode="Ë"/><glyph d="M30 0l188 700h187l-188 -700h-187zM396 900l20 -142h-156l-77 142h213z" glyph-name="Igrave" unicode="Ì"/><glyph d="M30 0l188 700h187l-188 -700h-187zM394 758h-154l96 142h211z" glyph-name="Iacute" unicode="Í"/><glyph d="M217 0h-187l188 700h187zM77 759l176 181h244l79 -181h-185l-36 103l-93 -103h-185z" glyph-name="Icircumflex" unicode="Î"/><glyph d="M217 0h-187l188 700h187zM311 754h-187l39 146h187zM538 754h-188l39 146h188z" glyph-name="Idieresis" unicode="Ï"/><glyph d="M77 251l51 188h104l70 261h368q100 0 168.5 -38t97 -115.5t-3.5 -196.5q-31 -115 -101.5 -195.5t-159.5 -117.5t-189 -37h-368l67 251h-104zM554 251h-184q-11 -39 -21 -80h195q52 0 115 47.5t85 131.5q22 81 -15 130.5t-88 49.5h-300q19 0 33 -1t31 -4t25.5 -10.5 t5.5 -18.5q-1 -4 -3.5 -11.5t-6 -21t-6.5 -24.5h184z" glyph-name="Eth" horiz-adv-x="854" unicode="Ð"/><glyph d="M218 0h-188l188 700h195l214 -385q19 -36 22 -78l2 1q-4 46 7 87l101 375h187l-187 -700h-197l-213 384q-19 36 -22 78l-2 -1q4 -46 -7 -87zM337 748q54 177 229 177q29 0 51 -9t32.5 -19.5t23.5 -19.5t26 -10q40 -2 62 58l136 -4q-24 -84 -79 -133t-140 -48 q-31 0 -54 8.5t-33.5 19t-25 19.5t-30.5 10q-31 1 -54 -14.5t-31 -40.5z" glyph-name="Ntilde" horiz-adv-x="789" unicode="Ñ"/><glyph d="M399 -7q-107 0 -180.5 39t-104.5 118t2 200q31 117 105 200t168 120.5t201 36.5t180 -39.5t104.5 -117.5t-1.5 -200q-47 -174 -178 -265.5t-296 -91.5zM305 350q-23 -83 20 -135t119 -52q80 0 149 51t92 136q22 85 -21 135.5t-119 51.5t-147 -51t-93 -136zM518 758 l-77 142h214l19 -142h-156z" glyph-name="Ograve" horiz-adv-x="802" unicode="Ò"/><glyph d="M399 -7q-107 0 -180.5 39t-104.5 118t2 200q31 117 105 200t168 120.5t201 36.5t180 -39.5t104.5 -117.5t-1.5 -200q-47 -174 -178 -265.5t-296 -91.5zM305 350q-23 -83 20 -135t119 -52q80 0 149 51t92 136q22 85 -21 135.5t-119 51.5t-147 -51t-93 -136zM470 758 l96 142h212l-153 -142h-155z" glyph-name="Oacute" horiz-adv-x="801" unicode="Ó"/><glyph d="M399 -7q-107 0 -180.5 39t-104.5 118t2 200q31 117 105 200t168 120.5t201 36.5t180 -39.5t104.5 -117.5t-1.5 -200q-47 -174 -178 -265.5t-296 -91.5zM305 350q-23 -83 20 -135t119 -52q80 0 149 51t92 136q22 85 -21 135.5t-119 51.5t-147 -51t-93 -136zM361 781 l176 181h244l78 -181h-185l-36 103l-92 -103h-185z" glyph-name="Ocircumflex" horiz-adv-x="801" unicode="Ô"/><glyph d="M399 -7q-107 0 -180.5 39t-104.5 118t2 200q31 117 105 200t168 120.5t201 36.5t180 -39.5t104.5 -117.5t-1.5 -200q-47 -174 -178 -265.5t-296 -91.5zM305 350q-23 -83 20 -135t119 -52q80 0 149 51t92 136q22 85 -21 135.5t-119 51.5t-147 -51t-93 -136zM336 752 q54 177 228 177q29 0 51.5 -9t33 -19.5t23.5 -19.5t26 -10q42 -2 61 58l137 -4q-24 -85 -79 -133.5t-140 -48.5q-40 0 -65 14t-42 28t-36 15q-31 2 -54 -13.5t-32 -40.5z" glyph-name="Otilde" horiz-adv-x="801" unicode="Õ"/><glyph d="M399 -7q-107 0 -180.5 39t-104.5 118t2 200q31 117 105 200t168 120.5t201 36.5t180 -39.5t104.5 -117.5t-1.5 -200q-47 -174 -178 -265.5t-296 -91.5zM305 350q-23 -83 20 -135t119 -52q80 0 149 51t92 136q22 85 -21 135.5t-119 51.5t-147 -51t-93 -136zM629 754 l39 146h188l-39 -146h-188zM590 754h-188l39 146h188z" glyph-name="Odieresis" horiz-adv-x="801" unicode="Ö"/><glyph d="M489 373h187l-46 -171h-187l-40 -149h-187l40 149h-186l46 171h186l38 143h187z" glyph-name="multiply" horiz-adv-x="592" unicode="×"/><glyph d="M175 61q-112 96 -59 289q31 117 105 200t168 120.5t201 36.5q40 0 75 -6l32 41h210l-85 -111q101 -95 51 -281q-47 -174 -178 -265.5t-296 -91.5q-36 0 -63 4l-38 -50h-210zM310 238l229 299q-75 -2 -143.5 -53.5t-90.5 -133.5q-18 -62 5 -112zM684 451l-220 -287 q75 6 137 56.5t84 129.5q15 57 -1 101z" glyph-name="Oslash" horiz-adv-x="801" unicode="Ø"/><glyph d="M117 326l101 374h187l-100 -375q-20 -75 18.5 -118.5t114.5 -43.5q78 0 135.5 41t79.5 121l101 375h187l-100 -374q-22 -83 -70 -148.5t-110 -105t-130.5 -60t-137.5 -20.5q-163 0 -242 82t-34 252zM447 900h213l20 -142h-156z" glyph-name="Ugrave" horiz-adv-x="784" unicode="Ù"/><glyph d="M117 326l101 374h187l-100 -375q-20 -75 18.5 -118.5t114.5 -43.5q78 0 135.5 41t79.5 121l101 375h187l-100 -374q-22 -83 -70 -148.5t-110 -105t-130.5 -60t-137.5 -20.5q-163 0 -242 82t-34 252zM502 758l96 142h211l-153 -142h-154z" glyph-name="Uacute" horiz-adv-x="784" unicode="Ú"/><glyph d="M117 326l101 374h187l-100 -375q-20 -75 18.5 -118.5t114.5 -43.5q78 0 135.5 41t79.5 121l101 375h187l-100 -374q-22 -83 -70 -148.5t-110 -105t-130.5 -60t-137.5 -20.5q-163 0 -242 82t-34 252zM353 776l176 182h244l79 -182h-186l-36 103l-92 -103h-185z" glyph-name="Ucircumflex" horiz-adv-x="784" unicode="Û"/><glyph d="M117 326l101 374h187l-100 -375q-20 -75 18.5 -118.5t114.5 -43.5q78 0 135.5 41t79.5 121l101 375h187l-100 -374q-22 -83 -70 -148.5t-110 -105t-130.5 -60t-137.5 -20.5q-163 0 -242 82t-34 252zM396 754l39 146h188l-39 -146h-188zM623 754l39 146h188l-39 -146h-188 z" glyph-name="Udieresis" horiz-adv-x="784" unicode="Ü"/><glyph d="M395 298l-190 401h229l88 -205q13 -28 2 -69h2q10 40 39 70l196 204h229l-407 -401l-80 -298h-187zM521 758l96 142h212l-153 -142h-155z" glyph-name="Yacute" horiz-adv-x="821" unicode="Ý"/><glyph d="M218 0h-188l188 700h188l-30 -110h196q137 0 192.5 -59t25.5 -173q-30 -112 -118 -172t-224 -60h-196zM337 446l-47 -176h127q69 0 109 12t54 29t22 47t3 49.5t-38 29t-103 9.5h-127z" glyph-name="Thorn" horiz-adv-x="723" unicode="Þ"/><glyph d="M217 0h-187l141 527q21 79 121.5 127.5t223.5 48.5q161 0 234 -40.5t47 -135.5q-26 -97 -212 -139q209 -27 168 -176q-57 -212 -444 -212l39 149q198 -1 223 92q12 42 -27.5 68t-144.5 27l22 83q60 0 101.5 22.5t51.5 61.5q10 38 -13 66.5t-73 28.5q-43 0 -86 -35 t-57 -88z" glyph-name="germandbls" horiz-adv-x="725" unicode="ß"/><glyph d="M498 132q-33 -64 -100 -97.5t-141 -33.5q-81 0 -131 38.5t-33 102.5q16 61 67.5 96t114 43t122.5 9.5t103.5 6.5t47.5 22q6 26 -20.5 39.5t-80.5 13.5q-123 0 -138 -56l-166 2q18 60 74.5 103.5t125.5 63t139 18.5q60 0 108 -10t86.5 -31.5t53 -61t0.5 -93.5l-28 -104 q-5 -19 1.5 -25.5t27.5 -6.5h29l-46 -171h-136q-46 0 -73 30t-16 68zM362 700h213l20 -142h-156zM287 148q-6 -22 12 -33t51 -11q50 0 101 21.5t59 51.5l12 45q-16 -13 -54.5 -18t-74 -5.5t-67.5 -12.5t-39 -38z" glyph-name="agrave" horiz-adv-x="735" unicode="à"/><glyph d="M498 132q-33 -64 -100 -97.5t-141 -33.5q-81 0 -131 38.5t-33 102.5q16 61 67.5 96t114 43t122.5 9.5t103.5 6.5t47.5 22q6 26 -20.5 39.5t-80.5 13.5q-123 0 -138 -56l-166 2q18 60 74.5 103.5t125.5 63t139 18.5q60 0 108 -10t86.5 -31.5t53 -61t0.5 -93.5l-28 -104 q-5 -19 1.5 -25.5t27.5 -6.5h29l-46 -171h-136q-46 0 -73 30t-16 68zM435 558l97 142h211l-153 -142h-155zM287 148q-6 -22 12 -33t51 -11q50 0 101 21.5t59 51.5l12 45q-16 -13 -54.5 -18t-74 -5.5t-67.5 -12.5t-39 -38z" glyph-name="aacute" horiz-adv-x="745" unicode="á"/><glyph d="M498 132q-33 -64 -100 -97.5t-141 -33.5q-81 0 -131 38.5t-33 102.5q16 61 67.5 96t114 43t122.5 9.5t103.5 6.5t47.5 22q6 26 -20.5 39.5t-80.5 13.5q-123 0 -138 -56l-166 2q18 60 74.5 103.5t125.5 63t139 18.5q60 0 108 -10t86.5 -31.5t53 -61t0.5 -93.5l-28 -104 q-5 -19 1.5 -25.5t27.5 -6.5h29l-46 -171h-136q-46 0 -73 30t-16 68zM262 567l176 181h244l79 -181h-185l-36 103l-92 -103h-186zM287 148q-6 -22 12 -33t51 -11q50 0 101 21.5t59 51.5l12 45q-16 -13 -54.5 -18t-74 -5.5t-67.5 -12.5t-39 -38z" glyph-name="acircumflex" horiz-adv-x="745" unicode="â"/><glyph d="M498 132q-33 -64 -100 -97.5t-141 -33.5q-81 0 -131 38.5t-33 102.5q16 61 67.5 96t114 43t122.5 9.5t103.5 6.5t47.5 22q6 26 -20.5 39.5t-80.5 13.5q-123 0 -138 -56l-166 2q18 60 74.5 103.5t125.5 63t139 18.5q60 0 108 -10t86.5 -31.5t53 -61t0.5 -93.5l-28 -104 q-5 -19 1.5 -25.5t27.5 -6.5h29l-46 -171h-136q-46 0 -73 30t-16 68zM256 552q54 177 228 177q29 0 51.5 -9t33 -19.5t23.5 -19.5t26 -10q40 -2 62 58l136 -4q-24 -84 -79 -133t-140 -49q-31 0 -54 9t-33.5 19t-25 19t-30.5 10q-31 2 -54 -13.5t-31 -40.5zM287 148 q-6 -22 12 -33t51 -11q50 0 101 21.5t59 51.5l12 45q-16 -13 -54.5 -18t-74 -5.5t-67.5 -12.5t-39 -38z" glyph-name="atilde" horiz-adv-x="745" unicode="ã"/><glyph d="M498 132q-33 -64 -100 -97.5t-141 -33.5q-81 0 -131 38.5t-33 102.5q16 61 67.5 96t114 43t122.5 9.5t103.5 6.5t47.5 22q6 26 -20.5 39.5t-80.5 13.5q-123 0 -138 -56l-166 2q18 60 74.5 103.5t125.5 63t139 18.5q60 0 108 -10t86.5 -31.5t53 -61t0.5 -93.5l-28 -104 q-5 -19 1.5 -25.5t27.5 -6.5h29l-46 -171h-136q-46 0 -73 30t-16 68zM508 554h-188l39 146h188zM735 554h-188l39 146h188zM287 148q-6 -22 12 -33t51 -11q50 0 101 21.5t59 51.5l12 45q-16 -13 -54.5 -18t-74 -5.5t-67.5 -12.5t-39 -38z" glyph-name="adieresis" horiz-adv-x="745" unicode="ä"/><glyph d="M498 132q-33 -64 -100 -97.5t-141 -33.5q-81 0 -131 38.5t-33 102.5q16 61 67.5 96t114 43t122.5 9.5t103.5 6.5t47.5 22q6 26 -20.5 39.5t-80.5 13.5q-123 0 -138 -56l-166 2q18 60 74.5 103.5t125.5 63t139 18.5q60 0 108 -10t86.5 -31.5t53 -61t0.5 -93.5l-28 -104 q-5 -19 1.5 -25.5t27.5 -6.5h29l-46 -171h-136q-46 0 -73 30t-16 68zM507 544q-72 0 -112.5 33t-27.5 81q13 47 71 80t130 33q70 0 110.5 -33t27.5 -80q-13 -48 -70.5 -81t-128.5 -33zM287 148q-6 -22 12 -33t51 -11q50 0 101 21.5t59 51.5l12 45q-16 -13 -54.5 -18 t-74 -5.5t-67.5 -12.5t-39 -38zM479 658q-5 -17 9 -29t39 -12q22 0 42 12t25 29q5 16 -9 28t-37 12q-24 0 -44 -12t-25 -28z" glyph-name="aring" horiz-adv-x="745" unicode="å"/><glyph d="M544 154q-41 -75 -127 -115.5t-177 -40.5q-90 0 -144 38.5t-36 105.5q15 54 54 87.5t87.5 44.5t103 16t100 4.5t78.5 9t39 31.5q8 28 -27 44t-79 17q-35 2 -73 -14t-48 -45l-180 2q16 56 73.5 95t123 54.5t132.5 14.5q88 -1 134.5 -34.5t51.5 -95.5q35 55 120.5 94.5 t178.5 38.5q132 -1 194 -66t28 -190q-2 -6 -11 -26h-480q-6 -27 5 -47t32 -30t42.5 -14t41.5 -4q38 0 84.5 16t71.5 47l192 -3q-20 -64 -80 -109.5t-131.5 -65t-147.5 -20.5q-104 -1 -166 45.5t-60 114.5zM246 161q-5 -20 13 -31t50 -11q58 0 115.5 34t74.5 97l11 42 q-10 -26 -51 -44.5t-85.5 -26.5t-83 -23.5t-44.5 -36.5zM851 382q-60 0 -112.5 -38t-78.5 -120q20 25 47.5 37t48.5 14t63 2h141q13 49 -17 77t-92 28z" glyph-name="ae" horiz-adv-x="1105" unicode="æ"/><glyph d="M89 250q33 124 146 190.5t256 65.5q116 -1 194 -60t54 -164l-174 -3q-1 36 -28.5 61t-83.5 26q-70 0 -116 -31.5t-61 -84.5q-13 -50 17 -82.5t99 -31.5q106 3 156 80l173 -2q-19 -60 -68 -107t-108 -72.5t-125 -35.5l-40 -50q84 0 56 -102q-18 -67 -72.5 -100t-121.5 -33 q-49 0 -87 17.5t-50 46.5l71 65q7 -19 28.5 -30t47.5 -11q29 0 52.5 13t30.5 37q4 16 -5 26t-32 13.5t-37 4t-39 0.5h-9l65 103q-110 16 -164 80.5t-25 170.5z" glyph-name="ccedilla" horiz-adv-x="686" unicode="ç"/><glyph d="M355 -6q-144 -1 -221.5 65.5t-44.5 190.5t146.5 190.5t256.5 65.5q142 -1 211 -66t35 -190q-1 -7 -8 -28h-457q-4 -40 32 -66.5t92 -26.5q64 1 95.5 12.5t54.5 51.5l174 -3q-29 -61 -67 -101.5t-87.5 -60t-97.5 -27t-114 -7.5zM394 700h213l20 -142h-156zM465 381 q-36 0 -71.5 -11.5t-72 -49.5t-48.5 -98q45 74 106 74h208q9 43 -27 63.5t-95 21.5z" glyph-name="egrave" horiz-adv-x="700" unicode="è"/><glyph d="M355 -6q-144 -1 -221.5 65.5t-44.5 190.5t146.5 190.5t256.5 65.5q142 -1 211 -66t35 -190q-1 -7 -8 -28h-457q-4 -40 32 -66.5t92 -26.5q64 1 95.5 12.5t54.5 51.5l174 -3q-29 -61 -67 -101.5t-87.5 -60t-97.5 -27t-114 -7.5zM427 558l96 142h211l-153 -142h-154z M465 381q-36 0 -71.5 -11.5t-72 -49.5t-48.5 -98q45 74 106 74h208q9 43 -27 63.5t-95 21.5z" glyph-name="eacute" horiz-adv-x="693" unicode="é"/><glyph d="M355 -6q-144 -1 -221.5 65.5t-44.5 190.5t146.5 190.5t256.5 65.5q142 -1 211 -66t35 -190q-1 -7 -8 -28h-457q-4 -40 32 -66.5t92 -26.5q64 1 95.5 12.5t54.5 51.5l174 -3q-29 -61 -67 -101.5t-87.5 -60t-97.5 -27t-114 -7.5zM269 581l176 181h244l78 -181h-185l-36 103 l-92 -103h-185zM465 381q-36 0 -71.5 -11.5t-72 -49.5t-48.5 -98q45 74 106 74h208q9 43 -27 63.5t-95 21.5z" glyph-name="ecircumflex" horiz-adv-x="693" unicode="ê"/><glyph d="M355 -6q-144 -1 -221.5 65.5t-44.5 190.5t146.5 190.5t256.5 65.5q142 -1 211 -66t35 -190q-1 -7 -8 -28h-457q-4 -40 32 -66.5t92 -26.5q64 1 95.5 12.5t54.5 51.5l174 -3q-29 -61 -67 -101.5t-87.5 -60t-97.5 -27t-114 -7.5zM719 554h-188l39 146h188zM492 554h-188 l39 146h188zM465 381q-36 0 -71.5 -11.5t-72 -49.5t-48.5 -98q45 74 106 74h208q9 43 -27 63.5t-95 21.5z" glyph-name="edieresis" horiz-adv-x="693" unicode="ë"/><glyph d="M30 0l134 500h187l-133 -500h-188zM343 700l20 -142h-156l-77 142h213z" glyph-name="igrave" unicode="ì"/><glyph d="M30 0l134 500h187l-133 -500h-188zM338 558h-154l96 142h212z" glyph-name="iacute" unicode="í"/><glyph d="M218 0h-188l134 500h187zM31 581l175 181h245l78 -181h-185l-36 103l-92 -103h-185z" glyph-name="icircumflex" unicode="î"/><glyph d="M218 0h-188l134 500h187zM64 554l39 146h188l-39 -146h-188zM479 554h-188l39 146h188z" glyph-name="idieresis" unicode="ï"/><glyph d="M367 -4q-147 0 -229.5 55.5t-55.5 170.5q25 105 129 166t222 61q93 0 153 -40t56 -115q6 44 7 76.5t-5 56.5t-10 33.5t-14 30.5l-117 -20l-20 87l72 12q-26 19 -71 19q-36 1 -75 -19l-77 101q89 34 188 34t158.5 -23.5t92.5 -77.5l57 8l21 -86l-53 -7q32 -101 4 -206 q-43 -158 -157.5 -237.5t-275.5 -79.5zM276 225q-11 -42 27.5 -62t97.5 -20q61 0 126.5 27.5t87.5 74.5q18 33 9.5 56t-34 31.5t-58 13t-63.5 -0.5q-74 -6 -127 -38.5t-66 -81.5z" glyph-name="eth" horiz-adv-x="738" unicode="ð"/><glyph d="M30 0l134 500h187l-36 -135q-5 -20 -24 -68h2q17 42 32 66q47 71 114.5 108t124.5 37q225 0 142 -307l-54 -201h-187l54 202q16 58 -8 88.5t-71 30.5q-56 0 -104.5 -32t-67.5 -102l-50 -187h-188zM244 552q54 177 228 177q29 0 51.5 -9t33 -19.5t23.5 -19.5t26 -10 q40 -2 62 58l136 -4q-24 -84 -79 -133t-140 -49q-31 0 -54 9t-33.5 19t-25 19t-30.5 10q-31 2 -54 -13.5t-31 -40.5z" glyph-name="ntilde" horiz-adv-x="682" unicode="ñ"/><glyph d="M357 -6q-69 0 -124.5 15.5t-94.5 47.5t-52 80t3 113q33 124 147.5 190.5t258.5 65.5t222.5 -67t45.5 -189q-22 -83 -85.5 -142.5t-145.5 -86.5t-175 -27zM277 250q-13 -49 21.5 -80t97.5 -31q62 0 114 31t65 80q13 48 -22.5 80t-96.5 32q-59 1 -113 -31.5t-66 -80.5z M450 558l-78 142h214l19 -142h-155z" glyph-name="ograve" horiz-adv-x="718" unicode="ò"/><glyph d="M357 -6q-69 0 -124.5 15.5t-94.5 47.5t-52 80t3 113q33 124 147.5 190.5t258.5 65.5t222.5 -67t45.5 -189q-22 -83 -85.5 -142.5t-145.5 -86.5t-175 -27zM277 250q-13 -49 21.5 -80t97.5 -31q62 0 114 31t65 80q13 48 -22.5 80t-96.5 32q-59 1 -113 -31.5t-66 -80.5z M429 558l96 142h212l-154 -142h-154z" glyph-name="oacute" horiz-adv-x="718" unicode="ó"/><glyph d="M357 -6q-69 0 -124.5 15.5t-94.5 47.5t-52 80t3 113q33 124 147.5 190.5t258.5 65.5t222.5 -67t45.5 -189q-22 -83 -85.5 -142.5t-145.5 -86.5t-175 -27zM265 581l176 181h244l79 -181h-185l-36 103l-92 -103h-186zM277 250q-13 -49 21.5 -80t97.5 -31q62 0 114 31t65 80 q13 48 -22.5 80t-96.5 32q-59 1 -113 -31.5t-66 -80.5z" glyph-name="ocircumflex" horiz-adv-x="718" unicode="ô"/><glyph d="M357 -6q-69 0 -124.5 15.5t-94.5 47.5t-52 80t3 113q33 124 147.5 190.5t258.5 65.5t222.5 -67t45.5 -189q-22 -83 -85.5 -142.5t-145.5 -86.5t-175 -27zM383 546l-113 6q54 177 228 177q29 0 51.5 -9t33 -19.5t23.5 -19.5t26 -10q40 -2 62 58l136 -4q-24 -84 -79 -133 t-140 -49q-31 0 -54 9t-33.5 19t-25 19t-30.5 10q-31 2 -54 -13.5t-31 -40.5zM277 250q-13 -49 21.5 -80t97.5 -31q62 0 114 31t65 80q13 48 -22.5 80t-96.5 32q-59 1 -113 -31.5t-66 -80.5z" glyph-name="otilde" horiz-adv-x="718" unicode="õ"/><glyph d="M357 -6q-69 0 -124.5 15.5t-94.5 47.5t-52 80t3 113q33 124 147.5 190.5t258.5 65.5t222.5 -67t45.5 -189q-22 -83 -85.5 -142.5t-145.5 -86.5t-175 -27zM277 250q-13 -49 21.5 -80t97.5 -31q62 0 114 31t65 80q13 48 -22.5 80t-96.5 32q-59 1 -113 -31.5t-66 -80.5z M491 554h-188l39 146h188zM530 554l39 146h187l-39 -146h-187z" glyph-name="odieresis" horiz-adv-x="718" unicode="ö"/><glyph d="M122 239l54 163l486 -10l-54 -163zM482 410l-199 9l110 164l199 -9zM396 -14h-191l41 154h192z" glyph-name="divide" horiz-adv-x="636" unicode="÷"/><glyph d="M137 58q-81 68 -48 192t147.5 190.5t258.5 65.5q33 0 71 -5l25 27h210l-84 -88q79 -69 46 -190q-22 -83 -85.5 -142.5t-145.5 -86.5t-175 -27q-39 0 -67 4l-36 -37h-211zM277 202l153 159q-54 -7 -98 -38t-55 -73q-7 -26 0 -48zM576 294l-148 -152q53 7 94.5 36.5 t52.5 71.5q6 23 1 44z" glyph-name="oslash" horiz-adv-x="718" unicode="ø"/><glyph d="M257 -1q-116 0 -151.5 75.5t6.5 231.5l54 201h187l-54 -202q-16 -60 8.5 -89.5t74.5 -29.5q55 0 102 32t66 102l50 187h187l-134 -500h-187l36 134q5 19 24 67l-2 1q-17 -42 -32 -66q-46 -71 -112 -107.5t-123 -36.5zM427 558l-77 142h213l20 -142h-156z" glyph-name="ugrave" horiz-adv-x="688" unicode="ù"/><glyph d="M257 -1q-116 0 -151.5 75.5t6.5 231.5l54 201h187l-54 -202q-16 -60 8.5 -89.5t74.5 -29.5q55 0 102 32t66 102l50 187h187l-134 -500h-187l36 134q5 19 24 67l-2 1q-17 -42 -32 -66q-46 -71 -112 -107.5t-123 -36.5zM561 558h-154l96 142h211z" glyph-name="uacute" horiz-adv-x="688" unicode="ú"/><glyph d="M257 -1q-116 0 -151.5 75.5t6.5 231.5l54 201h187l-54 -202q-16 -60 8.5 -89.5t74.5 -29.5q55 0 102 32t66 102l50 187h187l-134 -500h-187l36 134q5 19 24 67l-2 1q-17 -42 -32 -66q-46 -71 -112 -107.5t-123 -36.5zM264 581l176 181h244l79 -181h-185l-37 103l-92 -103 h-185z" glyph-name="ucircumflex" horiz-adv-x="688" unicode="û"/><glyph d="M257 -1q-116 0 -151.5 75.5t6.5 231.5l54 201h187l-54 -202q-16 -60 8.5 -89.5t74.5 -29.5q55 0 102 32t66 102l50 187h187l-134 -500h-187l36 134q5 19 24 67l-2 1q-17 -42 -32 -66q-46 -71 -112 -107.5t-123 -36.5zM727 554h-188l39 146h188zM312 554l39 146h188 l-39 -146h-188z" glyph-name="udieresis" horiz-adv-x="688" unicode="ü"/><glyph d="M194 -202h-212l36 132h98q111 0 131 30l24 36l-100 504h208l46 -250q6 -32 -5 -72h2q11 39 34 72l179 250h205l-411 -571q-88 -131 -235 -131zM418 558l96 142h212l-154 -142h-154z" glyph-name="yacute" horiz-adv-x="734" unicode="ý"/><glyph d="M-21 -200l239 900h188l-67 -249q-10 -35 -32 -68l2 -1q23 36 50 56q100 70 246 68q102 -1 156 -71t23 -185q-32 -118 -122 -187t-194 -69q-132 0 -202 64q-20 18 -33 65h-2q10 -37 0 -74l-67 -249h-185zM285 250q-19 -68 16 -106t102 -38q68 0 121.5 38.5t71.5 105.5 q19 69 -16 107t-99 38q-67 1 -122 -37.5t-74 -107.5z" glyph-name="thorn" horiz-adv-x="746" unicode="þ"/><glyph d="M194 -202h-212l36 132h98q111 0 131 30l24 36l-100 504h208l46 -250q6 -32 -5 -72h2q11 39 34 72l179 250h205l-411 -571q-88 -131 -235 -131zM312 554l39 146h188l-39 -146h-188zM726 554h-187l39 146h187z" glyph-name="ydieresis" horiz-adv-x="734" unicode="ÿ"/><glyph d="M231 0h-203l452 700h236l76 -700h-200l-20 120h-261zM862 798h-468l29 110h468zM400 271h26h22.5h17.5t16 -0.5t12.5 -1.5t12 -2t9.5 -3l10 -4q8 -5 15.5 -18.5t11 -27t9 -34.5t8.5 -31l-34 331z" glyph-name="Amacron" horiz-adv-x="814" unicode="Ā"/><glyph d="M465 132q-33 -64 -100 -97.5t-141 -33.5q-82 0 -132 38.5t-33 102.5q16 61 67.5 96t114 43t122.5 9.5t103.5 6.5t47.5 22q7 26 -19.5 39.5t-80.5 13.5q-123 0 -139 -56l-165 2q18 60 74.5 103.5t125 63t138.5 18.5q48 0 88 -6t76.5 -20t57.5 -36.5t30.5 -55.5t-4.5 -78 l-27 -104q-5 -19 1.5 -25.5t26.5 -6.5h29l-46 -171h-136q-45 0 -72 30t-17 68zM265 598l30 110h468l-30 -110h-468zM254 148q-6 -22 12 -33t51 -11q50 0 100.5 21.5t58.5 51.5l12 45q-13 -11 -41 -15.5t-57.5 -6t-58.5 -4.5t-50 -15t-27 -33z" glyph-name="amacron" horiz-adv-x="705" unicode="ā"/><glyph d="M231 0h-203l452 700h236l76 -700h-200l-20 120h-261zM614 758q-46 0 -79.5 12t-50.5 31t-25 45.5t-6.5 52.5t9.5 55h141q-23 -86 41 -86t87 86h141q-22 -80 -85 -138t-173 -58zM400 271h26h22.5h17.5t16 -0.5t12.5 -1.5t12 -2t9.5 -3l10 -4q8 -5 15.5 -18.5t11 -27 t9 -34.5t8.5 -31l-34 331z" glyph-name="Abreve" horiz-adv-x="814" unicode="Ă"/><glyph d="M465 132q-33 -64 -100 -97.5t-141 -33.5q-82 0 -132 38.5t-33 102.5q16 61 67.5 96t114 43t122.5 9.5t103.5 6.5t47.5 22q7 26 -19.5 39.5t-80.5 13.5q-123 0 -139 -56l-165 2q18 60 74.5 103.5t125 63t138.5 18.5q48 0 88 -6t76.5 -20t57.5 -36.5t30.5 -55.5t-4.5 -78 l-27 -104q-5 -19 1.5 -25.5t26.5 -6.5h29l-46 -171h-136q-45 0 -72 30t-17 68zM470 557q-46 0 -79.5 12t-50.5 31t-25 45.5t-6.5 52.5t9.5 55h141q-23 -86 41 -86q63 0 86 86h142q-22 -80 -85 -138t-173 -58zM254 148q-6 -22 12 -33t51 -11q50 0 100.5 21.5t58.5 51.5l12 45 q-13 -11 -41 -15.5t-57.5 -6t-58.5 -4.5t-50 -15t-27 -33z" glyph-name="abreve" horiz-adv-x="705" unicode="ă"/><glyph d="M231 0h-203l452 700h236l76 -700h-36q-70 -59 -76 -113q-1 -35 28 -37q22 0 56 22l53 -50q-29 -35 -76 -54t-94 -19q-34 0 -60.5 9.5t-40 30.5t-10 50t33.5 71t86 90h-64l-20 120h-261zM400 271h26h22.5h17.5t16 -0.5t12.5 -1.5t12 -2t9.5 -3l10 -4q8 -5 15.5 -18.5 t11 -27t9 -34.5t8.5 -31l-34 331z" glyph-name="Aogonek" horiz-adv-x="814" unicode="Ą"/><glyph d="M465 132q-33 -64 -100 -97.5t-141 -33.5q-82 0 -132 38.5t-33 102.5q16 61 67.5 96t114 43t122.5 9.5t103.5 6.5t47.5 22q7 26 -19.5 39.5t-80.5 13.5q-123 0 -139 -56l-165 2q18 60 74.5 103.5t125 63t138.5 18.5q48 0 88 -6t76.5 -20t57.5 -36.5t30.5 -55.5t-4.5 -78 l-27 -104q-5 -19 1.5 -25.5t26.5 -6.5h29l-46 -171h-10q-67 -59 -72 -111q-2 -35 28 -36q22 0 56 22l53 -50q-30 -35 -77 -54t-94 -19q-34 0 -60 9.5t-39.5 30t-10.5 49t32.5 70t84.5 89.5h-27q-45 0 -72 30t-17 68zM254 148q-6 -22 12 -33t51 -11q50 0 100.5 21.5 t58.5 51.5l12 45q-13 -11 -41 -15.5t-57.5 -6t-58.5 -4.5t-50 -15t-27 -33z" glyph-name="aogonek" horiz-adv-x="705" unicode="ą"/><glyph d="M116 350q47 176 175.5 267.5t295.5 89.5q138 -2 219.5 -64t80.5 -182l-195 -41q-3 39 -44 69t-113 30q-91 1 -151 -46.5t-80 -122.5q-21 -76 18 -123t123 -46q76 0 131.5 30t77.5 69l173 -41q-63 -120 -177.5 -182t-253.5 -64q-168 -2 -247.5 89.5t-32.5 267.5zM510 758 l96 142h212l-153 -142h-155z" glyph-name="Cacute" horiz-adv-x="785" unicode="Ć"/><glyph d="M89 250q33 124 146 190.5t256 65.5q116 -1 194 -60t54 -164l-174 -3q-1 36 -28.5 61t-83.5 26q-70 0 -116 -31.5t-61 -84.5q-13 -50 17 -82.5t99 -31.5q106 3 156 80l173 -2q-22 -70 -85 -122t-136 -74.5t-146 -23.5q-143 -1 -220.5 65.5t-44.5 190.5zM568 558h-154 l96 142h212z" glyph-name="cacute" horiz-adv-x="686" unicode="ć"/><glyph d="M116 350q47 176 175.5 267.5t295.5 89.5q138 -2 219.5 -64t80.5 -182l-195 -41q-3 39 -44 69t-113 30q-91 1 -151 -46.5t-80 -122.5q-21 -76 18 -123t123 -46q76 0 131.5 30t77.5 69l173 -41q-63 -120 -177.5 -182t-253.5 -64q-168 -2 -247.5 89.5t-32.5 267.5zM358 781 l175 181h245l78 -181h-185l-36 103l-92 -103h-185z" glyph-name="Ccircumflex" horiz-adv-x="785" unicode="Ĉ"/><glyph d="M89 250q33 124 146 190.5t256 65.5q116 -1 194 -60t54 -164l-174 -3q-1 36 -28.5 61t-83.5 26q-70 0 -116 -31.5t-61 -84.5q-13 -50 17 -82.5t99 -31.5q106 3 156 80l173 -2q-22 -70 -85 -122t-136 -74.5t-146 -23.5q-143 -1 -220.5 65.5t-44.5 190.5zM451 581h-185 l175 181h245l78 -181h-185l-36 103z" glyph-name="ccircumflex" horiz-adv-x="686" unicode="ĉ"/><glyph d="M116 350q47 176 175.5 267.5t295.5 89.5q138 -2 219.5 -64t80.5 -182l-195 -41q-3 39 -44 69t-113 30q-91 1 -151 -46.5t-80 -122.5q-21 -76 18 -123t123 -46q76 0 131.5 30t77.5 69l173 -41q-63 -120 -177.5 -182t-253.5 -64q-168 -2 -247.5 89.5t-32.5 267.5zM505 754 l39 146h190l-39 -146h-190z" glyph-name="Cdotaccent" horiz-adv-x="785" unicode="Ċ"/><glyph d="M89 250q33 124 146 190.5t256 65.5q116 -1 194 -60t54 -164l-174 -3q-1 36 -28.5 61t-83.5 26q-70 0 -116 -31.5t-61 -84.5q-13 -50 17 -82.5t99 -31.5q106 3 156 80l173 -2q-22 -70 -85 -122t-136 -74.5t-146 -23.5q-143 -1 -220.5 65.5t-44.5 190.5zM599 554h-190 l40 146h189z" glyph-name="cdotaccent" horiz-adv-x="686" unicode="ċ"/><glyph d="M116 350q47 176 175.5 267.5t295.5 89.5q138 -2 219.5 -64t80.5 -182l-195 -41q-3 39 -44 69t-113 30q-91 1 -151 -46.5t-80 -122.5q-21 -76 18 -123t123 -46q76 0 131.5 30t77.5 69l173 -41q-63 -120 -177.5 -182t-253.5 -64q-168 -2 -247.5 89.5t-32.5 267.5zM408 962 h185l37 -103l91 103h186l-176 -181h-244z" glyph-name="Ccaron" horiz-adv-x="785" unicode="Č"/><glyph d="M89 250q33 124 146 190.5t256 65.5q116 -1 194 -60t54 -164l-174 -3q-1 36 -28.5 61t-83.5 26q-70 0 -116 -31.5t-61 -84.5q-13 -50 17 -82.5t99 -31.5q106 3 156 80l173 -2q-22 -70 -85 -122t-136 -74.5t-146 -23.5q-143 -1 -220.5 65.5t-44.5 190.5zM313 762h185 l37 -103l91 103h185l-175 -181h-245z" glyph-name="ccaron" horiz-adv-x="686" unicode="č"/><glyph d="M396 0h-368l187 700h368q155 0 231.5 -89.5t31.5 -260.5q-31 -115 -101.5 -195.5t-159.5 -117.5t-189 -37zM554 530h-299q104 0 94 -34q-74 -276 -87 -325h196q51 0 114 47.5t85 131.5q22 81 -15 130.5t-88 49.5zM315 962h185l37 -103l91 103h186l-176 -181h-244z" glyph-name="Dcaron" horiz-adv-x="778" unicode="Ď"/><glyph d="M305 -6q-277 0 -209 256q68 254 346 256q49 1 94.5 -21t68.5 -58q11 -16 16 -66h2q-3 35 7 74l71 265h187l-188 -700h-187l17 61q9 36 32 74h-2q-31 -50 -51 -66q-41 -34 -97.5 -54.5t-106.5 -20.5zM282 250q-30 -111 106 -111q76 0 127.5 32.5t64.5 78.5 q12 47 -21.5 84.5t-108.5 36.5q-75 0 -114.5 -35t-53.5 -86z" glyph-name="dcaron" horiz-adv-x="704" unicode="ď"/><glyph d="M83 251l51 188h104l70 261h368q100 0 168.5 -38t97 -115.5t-3.5 -196.5q-31 -115 -101.5 -195.5t-159.5 -117.5t-189 -37h-368l67 251h-104zM560 251h-184q-11 -39 -21 -80h195q52 0 115 47.5t85 131.5q22 81 -15 130.5t-88 49.5h-300q19 0 33 -1t31 -4t25.5 -10.5 t5.5 -18.5q-1 -4 -3.5 -11.5t-6 -21t-6.5 -24.5h184z" glyph-name="Dcroat" horiz-adv-x="866" unicode="Đ"/><glyph d="M305 -6q-277 0 -209 256q68 254 346 256q49 1 94.5 -21t68.5 -58q11 -16 16 -66h2q-3 35 7 74l24 90h-146l34 125h145l14 50h187l-14 -50h95l-34 -125h-94l-141 -525h-187l17 61q9 36 32 74h-2q-31 -50 -51 -66q-41 -34 -97.5 -54.5t-106.5 -20.5zM282 250 q-30 -111 106 -111q76 0 127.5 32.5t64.5 78.5q12 47 -21.5 84.5t-108.5 36.5q-75 0 -114.5 -35t-53.5 -86z" glyph-name="dcroat" horiz-adv-x="723" unicode="đ"/><glyph d="M883 700l-46 -171h-478l-31 -115h434l-38 -141h-433l-28 -103h478l-46 -170h-665l188 700h665zM338 798l30 110h468l-30 -110h-468z" glyph-name="Emacron" horiz-adv-x="724" unicode="Ē"/><glyph d="M355 -6q-144 -1 -221.5 65.5t-44.5 190.5t146.5 190.5t256.5 65.5q142 -1 211 -66t35 -190q-1 -7 -8 -28h-457q-4 -40 32 -66.5t92 -26.5q64 1 95.5 12.5t54.5 51.5l174 -3q-29 -61 -67 -101.5t-87.5 -60t-97.5 -27t-114 -7.5zM756 598h-468l29 110h468zM465 381 q-36 0 -71.5 -11.5t-72 -49.5t-48.5 -98q45 74 106 74h208q9 43 -27 63.5t-95 21.5z" glyph-name="emacron" horiz-adv-x="693" unicode="ē"/><glyph d="M30 0l188 700h665l-46 -171h-478l-31 -115h434l-38 -141h-433l-28 -103h478l-46 -170h-665zM575 757q-58 0 -95.5 18.5t-50.5 47t-16 63.5t9 68h142q-23 -86 40 -86q64 0 87 86h141q-10 -36 -28.5 -68.5t-48 -62.5t-76.5 -48t-104 -18z" glyph-name="Ebreve" horiz-adv-x="724" unicode="Ĕ"/><glyph d="M355 -6q-144 -1 -221.5 65.5t-44.5 190.5t146.5 190.5t256.5 65.5q142 -1 211 -66t35 -190q-1 -7 -8 -28h-457q-4 -40 32 -66.5t92 -26.5q64 1 95.5 12.5t54.5 51.5l174 -3q-29 -61 -67 -101.5t-87.5 -60t-97.5 -27t-114 -7.5zM508 556q-46 0 -79.5 12t-51 31.5t-25 46 t-6 52.5t8.5 55h142q-23 -86 40 -86q64 0 87 86h141q-10 -36 -28.5 -68.5t-48 -62.5t-76.5 -48t-104 -18zM273 222q45 74 106 74h208q9 43 -27 63.5t-95 21.5q-36 0 -71.5 -11.5t-72 -49.5t-48.5 -98z" glyph-name="ebreve" horiz-adv-x="693" unicode="ĕ"/><glyph d="M883 700l-46 -171h-478l-31 -115h434l-38 -141h-433l-28 -103h478l-46 -170h-665l188 700h665zM665 754h-190l39 146h190z" glyph-name="Edotaccent" horiz-adv-x="724" unicode="Ė"/><glyph d="M355 -6q-144 -1 -221.5 65.5t-44.5 190.5t146.5 190.5t256.5 65.5q142 -1 211 -66t35 -190q-1 -7 -8 -28h-457q-4 -40 32 -66.5t92 -26.5q64 1 95.5 12.5t54.5 51.5l174 -3q-29 -61 -67 -101.5t-87.5 -60t-97.5 -27t-114 -7.5zM413 554l39 146h190l-39 -146h-190z M465 381q-36 0 -71.5 -11.5t-72 -49.5t-48.5 -98q45 74 106 74h208q9 43 -27 63.5t-95 21.5z" glyph-name="edotaccent" horiz-adv-x="693" unicode="ė"/><glyph d="M388 0h-358l188 700h665l-46 -171h-478l-31 -115h434l-38 -141h-433l-28 -103h478l-46 -170h-207q-70 -60 -76 -113q0 -35 29 -37q22 0 56 22l52 -50q-29 -35 -76 -54t-94 -19q-34 0 -60.5 9.5t-40 30.5t-10 50t33.5 71t86 90z" glyph-name="Eogonek" horiz-adv-x="724" unicode="Ę"/><glyph d="M478 -151q-30 -35 -77 -54t-94 -19q-32 0 -57 8.5t-39.5 27t-14.5 44t22.5 62.5t66.5 80q-113 15 -169 79.5t-27 172.5q33 124 146.5 190.5t256.5 65.5q142 -1 211 -66t35 -190q-1 -7 -8 -28h-457q-4 -40 32 -66.5t92 -26.5q64 1 95.5 12.5t54.5 51.5l174 -3 q-27 -58 -63 -97t-80.5 -59.5t-89.5 -29t-105 -10.5q-50 -58 -41 -96q4 -21 27 -21q22 0 56 22zM465 381q-36 0 -71.5 -11.5t-72 -49.5t-48.5 -98q45 74 106 74h208q9 43 -27 63.5t-95 21.5z" glyph-name="eogonek" horiz-adv-x="693" unicode="ę"/><glyph d="M695 0h-665l188 700h665l-46 -171h-478l-31 -115h434l-38 -141h-433l-28 -103h478zM470 781l-78 181h185l37 -103l91 103h185l-176 -181h-244z" glyph-name="Ecaron" horiz-adv-x="724" unicode="Ě"/><glyph d="M355 -6q-144 -1 -221.5 65.5t-44.5 190.5t146.5 190.5t256.5 65.5q142 -1 211 -66t35 -190q-1 -7 -8 -28h-457q-4 -40 32 -66.5t92 -26.5q64 1 95.5 12.5t54.5 51.5l174 -3q-29 -61 -67 -101.5t-87.5 -60t-97.5 -27t-114 -7.5zM316 762h185l37 -103l91 103h186l-176 -181 h-244zM465 381q-36 0 -71.5 -11.5t-72 -49.5t-48.5 -98q45 74 106 74h208q9 43 -27 63.5t-95 21.5z" glyph-name="ecaron" horiz-adv-x="693" unicode="ě"/><glyph d="M380 -7q-167 0 -239 90t-25 267q47 175 177 267t299 90q140 -2 222.5 -64t82.5 -182l-186 -46q-11 61 -57 91t-107 30q-82 1 -150.5 -46.5t-92.5 -139.5q-24 -88 16.5 -137.5t125.5 -49.5q77 0 136 83h-89l35 132h281q77 0 57 -69q-4 -16 -82 -309h-184l66 246l-6 -1 q-45 -149 -105.5 -200.5t-174.5 -51.5zM532 781h-185l175 181h245l78 -181h-185l-36 103z" glyph-name="Gcircumflex" horiz-adv-x="806" unicode="Ĝ"/><glyph d="M-11 -40q15 55 49 83.5t100 52.5q-39 10 -50 26t-5 38q12 45 105 68q0 1 -3.5 6.5t-8.5 14.5t-9.5 22t-6 27.5t2.5 31.5q15 56 70 96t120.5 56.5t133.5 16.5q39 0 106 -12q-18 57 47 88t201 26l-32 -118h-73q-63 0 -69 -16q-1 -5 4 -11l3 -2l5.5 -5.5t6.5 -7.5t7.5 -9.5 t7.5 -11.5t7 -13.5t5.5 -15.5t3.5 -17.5t0 -19t-4 -21.5q-22 -81 -117.5 -124.5t-202.5 -43.5q-40 0 -65 5l-10 2t-7.5 2t-3.5 1q-21 2 -24 -12q-3 -9 30 -13t84 -4t108.5 -8.5t104 -24.5t70 -55.5t7.5 -97.5q-20 -73 -129 -116.5t-253 -43.5q-90 0 -165.5 18.5t-119.5 56 t-31 85.5zM470 634h-185l175 181h245l78 -181h-185l-36 103zM336 -90q64 0 111 16.5t56 47.5q8 29 -30 45t-103 21q-13 1 -41 1q-46 0 -92.5 -19.5t-53.5 -47.5q-8 -30 36.5 -47t116.5 -17zM425 280q35 0 64 12.5t37 39.5q7 27 -15.5 39t-57.5 12q-88 0 -102 -52 q-7 -27 16 -39t58 -12z" glyph-name="gcircumflex" horiz-adv-x="719" unicode="ĝ"/><glyph d="M380 -7q-167 0 -239 90t-25 267q47 175 177 267t299 90q140 -2 222.5 -64t82.5 -182l-186 -46q-11 61 -57 91t-107 30q-82 1 -150.5 -46.5t-92.5 -139.5q-24 -88 16.5 -137.5t125.5 -49.5q77 0 136 83h-89l35 132h281q77 0 57 -69q-4 -16 -82 -309h-184l66 246l-6 -1 q-45 -149 -105.5 -200.5t-174.5 -51.5zM619 756q-57 0 -95 18.5t-50.5 47t-15.5 63.5t9 68h141q-23 -86 41 -86q63 0 86 86h142q-22 -80 -85 -138.5t-173 -58.5z" glyph-name="Gbreve" horiz-adv-x="806" unicode="Ğ"/><glyph d="M-11 -40q15 55 49 83.5t100 52.5q-39 10 -50 26t-5 38q12 45 105 68q0 1 -3.5 6.5t-8.5 14.5t-9.5 22t-6 27.5t2.5 31.5q15 56 70 96t120.5 56.5t133.5 16.5q39 0 106 -12q-18 57 47 88t201 26l-32 -118h-73q-63 0 -69 -16q-1 -5 4 -11l3 -2l5.5 -5.5t6.5 -7.5t7.5 -9.5 t7.5 -11.5t7 -13.5t5.5 -15.5t3.5 -17.5t0 -19t-4 -21.5q-22 -81 -117.5 -124.5t-202.5 -43.5q-40 0 -65 5l-10 2t-7.5 2t-3.5 1q-21 2 -24 -12q-3 -9 30 -13t84 -4t108.5 -8.5t104 -24.5t70 -55.5t7.5 -97.5q-20 -73 -129 -116.5t-253 -43.5q-90 0 -165.5 18.5t-119.5 56 t-31 85.5zM353 792h141q-23 -86 41 -86q63 0 86 86h142q-22 -80 -85 -138.5t-173 -58.5q-57 0 -95 18.5t-50.5 47t-15.5 63.5t9 68zM336 -90q64 0 111 16.5t56 47.5q8 29 -30 45t-103 21q-13 1 -41 1q-46 0 -92.5 -19.5t-53.5 -47.5q-8 -30 36.5 -47t116.5 -17zM425 280 q35 0 64 12.5t37 39.5q7 27 -15.5 39t-57.5 12q-88 0 -102 -52q-7 -27 16 -39t58 -12z" glyph-name="gbreve" horiz-adv-x="719" unicode="ğ"/><glyph d="M380 -7q-167 0 -239 90t-25 267q47 175 177 267t299 90q140 -2 222.5 -64t82.5 -182l-186 -46q-11 61 -57 91t-107 30q-82 1 -150.5 -46.5t-92.5 -139.5q-24 -88 16.5 -137.5t125.5 -49.5q77 0 136 83h-89l35 132h281q77 0 57 -69q-4 -16 -82 -309h-184l66 246l-6 -1 q-45 -149 -105.5 -200.5t-174.5 -51.5zM506 754l40 146h190l-40 -146h-190z" glyph-name="Gdotaccent" horiz-adv-x="806" unicode="Ġ"/><glyph d="M-11 -40q15 55 49 83.5t100 52.5q-39 10 -50 26t-5 38q12 45 105 68q0 1 -3.5 6.5t-8.5 14.5t-9.5 22t-6 27.5t2.5 31.5q15 56 70 96t120.5 56.5t133.5 16.5q39 0 106 -12q-18 57 47 88t201 26l-32 -118h-73q-63 0 -69 -16q-1 -5 4 -11l3 -2l5.5 -5.5t6.5 -7.5t7.5 -9.5 t7.5 -11.5t7 -13.5t5.5 -15.5t3.5 -17.5t0 -19t-4 -21.5q-22 -81 -117.5 -124.5t-202.5 -43.5q-40 0 -65 5l-10 2t-7.5 2t-3.5 1q-21 2 -24 -12q-3 -9 30 -13t84 -4t108.5 -8.5t104 -24.5t70 -55.5t7.5 -97.5q-20 -73 -129 -116.5t-253 -43.5q-90 0 -165.5 18.5t-119.5 56 t-31 85.5zM336 -90q64 0 111 16.5t56 47.5q8 29 -30 45t-103 21q-13 1 -41 1q-46 0 -92.5 -19.5t-53.5 -47.5q-8 -30 36.5 -47t116.5 -17zM432 634l40 146h189l-39 -146h-190zM425 280q35 0 64 12.5t37 39.5q7 27 -15.5 39t-57.5 12q-88 0 -102 -52q-7 -27 16 -39t58 -12z " glyph-name="gdotaccent" horiz-adv-x="719" unicode="ġ"/><glyph d="M380 -7q-167 0 -239 90t-25 267q47 175 177 267t299 90q140 -2 222.5 -64t82.5 -182l-186 -46q-11 61 -57 91t-107 30q-82 1 -150.5 -46.5t-92.5 -139.5q-24 -88 16.5 -137.5t125.5 -49.5q77 0 136 83h-89l35 132h281q77 0 57 -69q-4 -16 -82 -309h-184l66 246l-6 -1 q-45 -149 -105.5 -200.5t-174.5 -51.5zM331 -192h-119l96 142h138z" glyph-name="uni0122" horiz-adv-x="806" unicode="Ģ"/><glyph d="M-11 -40q15 55 49 83.5t100 52.5q-39 10 -50 26t-5 38q12 45 105 68q0 1 -3.5 6.5t-8.5 14.5t-9.5 22t-6 27.5t2.5 31.5q15 56 70 96t120.5 56.5t133.5 16.5q39 0 106 -12q-18 57 47 88t201 26l-32 -118h-73q-63 0 -69 -16q-1 -5 4 -11l3 -2l5.5 -5.5t6.5 -7.5t7.5 -9.5 t7.5 -11.5t7 -13.5t5.5 -15.5t3.5 -17.5t0 -19t-4 -21.5q-22 -81 -117.5 -124.5t-202.5 -43.5q-40 0 -65 5l-10 2t-7.5 2t-3.5 1q-21 2 -24 -12q-3 -9 30 -13t84 -4t108.5 -8.5t104 -24.5t70 -55.5t7.5 -97.5q-20 -73 -129 -116.5t-253 -43.5q-90 0 -165.5 18.5t-119.5 56 t-31 85.5zM527 568h-127l67 251l23 47h194zM336 -90q64 0 111 16.5t56 47.5q8 29 -30 45t-103 21q-13 1 -41 1q-46 0 -92.5 -19.5t-53.5 -47.5q-8 -30 36.5 -47t116.5 -17zM425 280q35 0 64 12.5t37 39.5q7 27 -15.5 39t-57.5 12q-88 0 -102 -52q-7 -27 16 -39t58 -12z" glyph-name="uni0123" horiz-adv-x="719" unicode="ģ"/><glyph d="M30 0l188 700h187l-69 -256h336l69 256h187l-187 -700h-188l69 257h-336l-69 -257h-187zM351 781l175 181h245l78 -181h-185l-36 103l-92 -103h-185z" glyph-name="Hcircumflex" horiz-adv-x="771" unicode="Ĥ"/><glyph d="M31 0l188 700h187l-77 -287q-8 -29 -30 -74l2 -1q24 48 45 70q93 100 243 100q100 0 153 -70.5t15 -213.5l-60 -224h-188l60 224q14 53 -13 88t-90 35q-60 0 -118.5 -42t-78.5 -118l-51 -187h-187zM269 761h-186l176 182h244l79 -182h-185l-36 103z" glyph-name="hcircumflex" horiz-adv-x="726" unicode="ĥ"/><glyph d="M195 614l23 86h187l-23 -86h336l23 86h187l-23 -86h78l-34 -125h-77l-131 -489h-188l69 257h-336l-69 -257h-187l131 489h-72l33 125h73zM684 489h-336l-12 -45h336z" glyph-name="Hbar" horiz-adv-x="771" unicode="Ħ"/><glyph d="M206 651l13 49h187l-13 -49h143l-33 -125h-144l-30 -113q-8 -29 -30 -74l2 -1q24 48 45 70q93 100 243 100q100 0 153 -70.5t15 -213.5l-60 -224h-188l60 224q14 53 -13 88t-90 35q-60 0 -118.5 -42t-78.5 -118l-51 -187h-187l141 526h-97l34 125h97z" glyph-name="hbar" horiz-adv-x="726" unicode="ħ"/><glyph d="M30 0l188 700h187l-188 -700h-187zM199 746l-112 6q54 177 228 177q37 0 61.5 -14t40.5 -28.5t32 -15.5q23 -1 38.5 17.5t22.5 40.5l136 -4q-24 -84 -78.5 -133t-140.5 -49q-40 0 -64.5 14t-41.5 28t-36 15q-31 2 -54 -13.5t-32 -40.5z" glyph-name="Itilde" unicode="Ĩ"/><glyph d="M218 0h-188l134 500h187zM141 548l-112 6q53 177 228 177q29 0 51 -9t32.5 -19.5t24 -19.5t26.5 -10q39 -2 61 58l136 -3q-24 -85 -78.5 -134t-140.5 -48q-40 0 -64.5 13.5t-42 28t-36.5 15.5q-30 1 -53 -14.5t-32 -40.5z" glyph-name="itilde" unicode="ĩ"/><glyph d="M30 0l188 700h187l-188 -700h-187zM130 787l33 125h428l-34 -125h-427z" glyph-name="Imacron" unicode="Ī"/><glyph d="M30 0l134 500h187l-133 -500h-188zM53 598l30 110h468l-30 -110h-468z" glyph-name="imacron" horiz-adv-x="113" unicode="ī"/><glyph d="M72 0h-42l188 700h187l-188 -700h-45q-69 -60 -73 -112q-2 -35 28 -36q22 0 56 22l52 -50q-30 -35 -76.5 -54t-93.5 -19q-34 0 -60.5 9.5t-40 30.5t-10 49.5t33 70t84.5 89.5z" glyph-name="Iogonek" unicode="Į"/><glyph d="M32 0l134 500h184l-134 -500h-184zM81 0h99q-69 -59 -75 -113q-1 -35 28 -37q22 0 56 22l53 -50q-30 -35 -77 -54t-94 -19q-34 0 -60.5 9.5t-40 30.5t-10 50t34 71t86.5 90zM366 552h-188l40 148h187z" glyph-name="iogonek" horiz-adv-x="254" unicode="į"/><glyph d="M30 0l188 700h187l-188 -700h-187zM420 754h-190l40 146h190z" glyph-name="Idotaccent" unicode="İ"/><glyph d="M30 0l134 500h187l-133 -500h-188z" glyph-name="dotlessi" unicode="ı"/><glyph d="M215 -230h-247l39 144h112q166 0 196 112l181 674h187l-187 -700q-30 -111 -108.5 -170.5t-172.5 -59.5zM218 0h-188l188 700h188z" glyph-name="IJ" horiz-adv-x="602" unicode="Ĳ"/><glyph d="M32 0l134 500h184l-134 -500h-184zM262 39l124 461h188l-124 -461q-34 -130 -113 -181.5t-235 -51.5h-22l35 131h22q52 0 81 23t44 79zM405 700l-39 -148h-188l40 148h187zM400 552l40 148h188l-40 -148h-188z" glyph-name="ij" horiz-adv-x="470" unicode="ĳ"/><glyph d="M372 -7q-40 0 -77 5t-74 17t-63.5 31.5t-47 48t-22.5 68t9 90.5l190 46q-14 -54 17 -95t113 -41q68 0 132 53.5t91 155.5l87 328h188l-90 -337q-99 -370 -453 -370zM781 781h-186l176 181h244l79 -181h-185l-36 103z" glyph-name="Jcircumflex" horiz-adv-x="757" unicode="Ĵ"/><glyph d="M-61 -194h-22l35 131h22q52 0 81 23t44 79l124 461h188l-124 -461q-34 -130 -113 -181.5t-235 -51.5zM86 542l176 182h244l78 -182h-185l-3 10h-117l-8 -10h-185z" glyph-name="jcircumflex" horiz-adv-x="307" unicode="ĵ"/><glyph d="M218 0h-188l188 700h187l-74 -277q-9 -35 -35 -76l2 -1q25 39 56 67l326 287h245l-387 -342l205 -358h-249l-173 304l-64 -159zM291 -192h-119l96 142h138z" glyph-name="uni0136" horiz-adv-x="772" unicode="Ķ"/><glyph d="M30 0l188 700h189l-87 -313q-9 -33 -37 -71l1 -1q29 36 62 57l202 128h273l-308 -194l190 -305h-87l-1 -1v1h-150l-122 198l-85 -54l-38 -145h-190zM133 -184l96 142h139l-115 -142h-120z" glyph-name="uni0137" horiz-adv-x="731" unicode="ķ"/><glyph d="M504 503h179l-282 -245l149 -258h-181l-102 162l-71 -55l-29 -107h-137l135 502h137l-61 -223z" glyph-name="kgreenlandic" horiz-adv-x="579" unicode="ĸ"/><glyph d="M640 0h-610l188 700h187l-132 -492q-10 -36 -44 -63l1 -2q34 27 71 27h385zM398 758h-154l96 142h211z" glyph-name="Lacute" horiz-adv-x="668" unicode="Ĺ"/><glyph d="M35 0l199 742h188l-199 -742h-188zM406 780h-154l96 142h212z" glyph-name="lacute" horiz-adv-x="258" unicode="ĺ"/><glyph d="M640 0h-610l188 700h187l-132 -492q-10 -36 -44 -63l1 -2q34 27 71 27h385zM172 -190l96 142h138l-115 -142h-119z" glyph-name="uni013B" horiz-adv-x="668" unicode="Ļ"/><glyph d="M35 0l199 742h188l-199 -742h-188zM77 -194h-120l97 142h138z" glyph-name="uni013C" horiz-adv-x="258" unicode="ļ"/><glyph d="M30 0l188 700h187l-132 -492q-10 -36 -44 -63l1 -2q34 27 71 27h385l-46 -170h-610zM509 338h-117l47 203l18 41l192 21z" glyph-name="Lcaron" horiz-adv-x="668" unicode="Ľ"/><glyph d="M35 0l199 742h188l-199 -742h-188zM359 295l47 203l17 41l193 20l-140 -264h-117z" glyph-name="lcaron" horiz-adv-x="504" unicode="ľ"/><glyph d="M640 0h-610l188 700h187l-132 -492q-10 -36 -44 -63l1 -2q34 27 71 27h385zM419 315l45 171h184l-45 -171h-184z" glyph-name="Ldot" horiz-adv-x="668" unicode="Ŀ"/><glyph d="M35 0l199 742h188l-199 -742h-188zM525 291h-184l45 171h184z" glyph-name="ldot" horiz-adv-x="479" unicode="ŀ"/><glyph d="M102 151l-19 175l231 80l79 294h188l-60 -223l172 59l20 -176l-246 -84l-18 -68q-10 -36 -44 -63l1 -2q34 27 71 27h384l-45 -170h-610l55 205z" glyph-name="Lslash" horiz-adv-x="837" unicode="Ł"/><glyph d="M92 361l231 71l83 310h188l-66 -246l176 55l13 -178l-243 -75l-79 -298h-188l63 234l-166 -51z" glyph-name="lslash" horiz-adv-x="612" unicode="ł"/><glyph d="M30 0l188 700h195l214 -385q19 -36 22 -78l2 1q-4 46 7 87l101 375h187l-187 -700h-197l-213 384q-19 36 -22 78l-2 -1q4 -46 -7 -87l-100 -374h-188zM501 758l96 142h212l-153 -142h-155z" glyph-name="Nacute" horiz-adv-x="789" unicode="Ń"/><glyph d="M30 0l134 500h187l-36 -135q-5 -20 -24 -68h2q17 42 32 66q47 71 114.5 108t124.5 37q225 0 142 -307l-54 -201h-187l54 202q16 58 -8 88.5t-71 30.5q-56 0 -104.5 -32t-67.5 -102l-50 -187h-188zM303 558l96 142h211l-153 -142h-154z" glyph-name="nacute" horiz-adv-x="682" unicode="ń"/><glyph d="M218 0h-188l188 700h195l214 -385q19 -36 22 -78l2 1q-4 46 7 87l101 375h187l-187 -700h-197l-213 384q-19 36 -22 78l-2 -1q4 -46 -7 -87zM346 -189h-119l96 142h138z" glyph-name="uni0145" horiz-adv-x="789" unicode="Ņ"/><glyph d="M30 0l134 500h187l-36 -135q-5 -20 -24 -68h2q17 42 32 66q47 71 114.5 108t124.5 37q225 0 142 -307l-54 -201h-187l54 202q16 58 -8 88.5t-71 30.5q-56 0 -104.5 -32t-67.5 -102l-50 -187h-188zM161 -192l96 142h139l-115 -142h-120z" glyph-name="uni0146" horiz-adv-x="682" unicode="ņ"/><glyph d="M30 0l188 700h195l214 -385q19 -36 22 -78l2 1q-4 46 7 87l101 375h187l-187 -700h-197l-213 384q-19 36 -22 78l-2 -1q4 -46 -7 -87l-100 -374h-188zM407 962h185l37 -103l91 103h186l-176 -181h-244z" glyph-name="Ncaron" horiz-adv-x="789" unicode="Ň"/><glyph d="M218 0h-188l134 500h187l-36 -135q-5 -20 -24 -68h2q17 42 32 66q47 71 114.5 108t124.5 37q225 0 142 -307l-54 -201h-187l54 202q16 58 -8 88.5t-71 30.5q-56 0 -104.5 -32t-67.5 -102zM297 762h185l37 -103l91 103h185l-176 -181h-244z" glyph-name="ncaron" horiz-adv-x="682" unicode="ň"/><glyph d="M218 0h-188l134 500h187l-36 -135q-5 -20 -24 -68h2q17 42 32 66q47 71 114.5 108t124.5 37q225 0 142 -307l-54 -201h-187l54 202q16 58 -8 88.5t-71 30.5q-56 0 -104.5 -32t-67.5 -102zM554 580h-117l47 203l18 40l192 21z" glyph-name="napostrophe" horiz-adv-x="682" unicode="ŉ"/><glyph d="M399 -7q-107 0 -180.5 39t-104.5 118t2 200q31 117 105 200t168 120.5t201 36.5t180 -39.5t104.5 -117.5t-1.5 -200q-47 -174 -178 -265.5t-296 -91.5zM305 350q-23 -83 20 -135t119 -52q80 0 149 51t92 136q22 85 -21 135.5t-119 51.5t-147 -51t-93 -136zM861 798h-468 l29 110h469z" glyph-name="Omacron" horiz-adv-x="801" unicode="Ō"/><glyph d="M357 -6q-69 0 -124.5 15.5t-94.5 47.5t-52 80t3 113q33 124 147.5 190.5t258.5 65.5t222.5 -67t45.5 -189q-22 -83 -85.5 -142.5t-145.5 -86.5t-175 -27zM277 250q-13 -49 21.5 -80t97.5 -31q62 0 114 31t65 80q13 48 -22.5 80t-96.5 32q-59 1 -113 -31.5t-66 -80.5z M755 598h-468l29 110h468z" glyph-name="omacron" horiz-adv-x="718" unicode="ō"/><glyph d="M399 -7q-107 0 -180.5 39t-104.5 118t2 200q31 117 105 200t168 120.5t201 36.5t180 -39.5t104.5 -117.5t-1.5 -200q-47 -174 -178 -265.5t-296 -91.5zM305 350q-23 -83 20 -135t119 -52q80 0 149 51t92 136q22 85 -21 135.5t-119 51.5t-147 -51t-93 -136zM603 756 q-57 0 -95 18.5t-50.5 47t-15.5 63.5t9 68h141q-23 -86 41 -86t87 86h141q-22 -80 -85 -138.5t-173 -58.5z" glyph-name="Obreve" horiz-adv-x="801" unicode="Ŏ"/><glyph d="M357 -6q-69 0 -124.5 15.5t-94.5 47.5t-52 80t3 113q33 124 147.5 190.5t258.5 65.5t222.5 -67t45.5 -189q-22 -83 -85.5 -142.5t-145.5 -86.5t-175 -27zM508 556q-57 0 -95 18.5t-50.5 47t-15.5 63.5t9 68h141q-23 -86 41 -86q63 0 86 86h142q-22 -80 -85 -138.5 t-173 -58.5zM277 250q-13 -49 21.5 -80t97.5 -31q62 0 114 31t65 80q13 48 -22.5 80t-96.5 32q-59 1 -113 -31.5t-66 -80.5z" glyph-name="obreve" horiz-adv-x="718" unicode="ŏ"/><glyph d="M399 -7q-107 0 -180.5 39t-104.5 118t2 200q31 117 105 200t168 120.5t201 36.5t180 -39.5t104.5 -117.5t-1.5 -200q-47 -174 -178 -265.5t-296 -91.5zM305 350q-23 -83 20 -135t119 -52q80 0 149 51t92 136q22 85 -21 135.5t-119 51.5t-147 -51t-93 -136zM627 758 l96 142h213l-156 -142h-153zM398 758l96 142h213l-156 -142h-153z" glyph-name="Ohungarumlaut" horiz-adv-x="801" unicode="Ő"/><glyph d="M357 -6q-69 0 -124.5 15.5t-94.5 47.5t-52 80t3 113q33 124 147.5 190.5t258.5 65.5t222.5 -67t45.5 -189q-22 -83 -85.5 -142.5t-145.5 -86.5t-175 -27zM277 250q-13 -49 21.5 -80t97.5 -31q62 0 114 31t65 80q13 48 -22.5 80t-96.5 32q-59 1 -113 -31.5t-66 -80.5z M301 558l96 142h212l-156 -142h-152zM530 558l96 142h212l-156 -142h-152z" glyph-name="ohungarumlaut" horiz-adv-x="718" unicode="ő"/><glyph d="M423 -7q-85 0 -151 21.5t-110 66t-56.5 111.5t10.5 158q31 117 108.5 200t177 120.5t213.5 36.5q92 -1 165 -42t100 -117l41 152h531l-46 -171h-357l-31 -114h291l-37 -140h-291l-28 -105h357l-45 -170h-532l38 141q-63 -66 -160.5 -107t-187.5 -41zM359 350 q-28 -103 25 -164.5t160 -61.5q90 0 174.5 62.5t111.5 163.5t-24 163.5t-141 63.5q-109 1 -193.5 -60.5t-112.5 -166.5z" glyph-name="OE" horiz-adv-x="1287" unicode="Œ"/><glyph d="M326 -6q-131 0 -200.5 66t-36.5 190t138.5 190.5t236.5 65.5q79 -1 143 -35t79 -86q37 51 125.5 86.5t168.5 34.5q126 -1 184 -66t25 -190q-1 -3 -10 -23h-473q-11 -41 26.5 -69.5t102.5 -28.5q55 0 89.5 13.5t64.5 44.5l169 -4q-36 -78 -129 -133t-186 -56 q-80 -1 -144 28.5t-88 81.5q-53 -51 -129.5 -80.5t-155.5 -29.5zM276 250q-18 -65 20 -97.5t111 -32.5q154 0 188 130q15 58 -19 93.5t-100 36.5q-69 1 -127 -36t-73 -94zM705 227q34 38 79.5 58t86.5 20q55 -1 158 0q9 31 -22.5 53t-96.5 22q-66 0 -125.5 -41t-79.5 -112z " glyph-name="oe" horiz-adv-x="1136" unicode="œ"/><glyph d="M30 0l188 700h453q123 0 177 -45t30 -135q-11 -42 -33.5 -69t-42 -37.5t-49.5 -20.5q-44 -18 -98 -22l-1 -2q63 4 93 -11q17 -7 28 -17.5t21 -32.5t7.5 -62.5t-17.5 -97.5l-40 -148h-187l39 147q10 38 -11 57.5t-63 19.5l-245 -1l-60 -223h-189zM367 550l-46 -173h204 q57 0 110 20.5t65 63.5q23 89 -94 89h-239zM634 758h-154l96 142h211z" glyph-name="Racute" horiz-adv-x="775" unicode="Ŕ"/><glyph d="M30 0l81 305q28 103 85.5 149t162.5 46h265l-46 -170l-205 -1q-41 0 -58.5 -16.5t-31.5 -69.5l-65 -243h-188zM336 558l96 142h211l-153 -142h-154z" glyph-name="racute" horiz-adv-x="518" unicode="ŕ"/><glyph d="M219 0h-189l188 700h453q123 0 177 -45t30 -135q-11 -42 -33.5 -69t-42 -37.5t-49.5 -20.5q-44 -18 -98 -22l-1 -2q63 4 93 -11q17 -7 28 -17.5t21 -32.5t7.5 -62.5t-17.5 -97.5l-40 -148h-187l39 147q10 38 -11 57.5t-63 19.5l-245 -1zM321 377h204q57 0 110 20.5 t65 63.5q23 89 -94 89h-239zM332 -191h-119l96 142h138z" glyph-name="uni0156" horiz-adv-x="775" unicode="Ŗ"/><glyph d="M218 0h-188l81 305q28 103 85.5 149t162.5 46h265l-46 -170l-205 -1q-41 0 -58.5 -16.5t-31.5 -69.5zM92 -192h-119l96 142h138z" glyph-name="uni0157" horiz-adv-x="518" unicode="ŗ"/><glyph d="M219 0h-189l188 700h453q123 0 177 -45t30 -135q-11 -42 -33.5 -69t-42 -37.5t-49.5 -20.5q-44 -18 -98 -22l-1 -2q63 4 93 -11q17 -7 28 -17.5t21 -32.5t7.5 -62.5t-17.5 -97.5l-40 -148h-187l39 147q10 38 -11 57.5t-63 19.5l-245 -1zM468 781l-78 181h185l37 -103 l91 103h185l-175 -181h-245zM321 377h204q57 0 110 20.5t65 63.5q23 89 -94 89h-239z" glyph-name="Rcaron" horiz-adv-x="775" unicode="Ř"/><glyph d="M218 0h-188l81 305q28 103 85.5 149t162.5 46h265l-46 -170l-205 -1q-41 0 -58.5 -16.5t-31.5 -69.5zM223 762h185l37 -103l91 103h185l-175 -181h-245z" glyph-name="rcaron" horiz-adv-x="518" unicode="ř"/><glyph d="M100 237l183 2q-9 -39 25 -55.5t105 -17.5q93 -2 144.5 11.5t60.5 49.5q4 16 -15.5 26t-55 14t-80.5 9t-92 11t-90 19t-74 34t-43.5 56.5t0.5 85.5q17 63 57.5 109t98 71.5t120.5 37t135 10.5q151 -2 225.5 -57t44.5 -173l-178 -3q9 37 -24 50t-114 13q-162 0 -177 -56 q-5 -17 21.5 -26t71 -13.5t98.5 -9t106 -16t92.5 -31t59 -58t3.5 -93.5q-9 -34 -27 -65.5t-52.5 -64.5t-81 -57t-117.5 -39.5t-158 -15.5q-77 0 -133.5 13t-86.5 35.5t-46.5 53.5t-15 66t9.5 74zM504 758l96 142h212l-154 -142h-154z" glyph-name="Sacute" horiz-adv-x="781" unicode="Ś"/><glyph d="M68 163l191 17q-7 -32 23 -47t89 -15q55 0 91 13.5t41 33.5q3 10 -14 16t-46.5 8t-66.5 5.5t-76 7t-74.5 14t-61.5 25.5t-37 42t-1 63q14 50 58.5 85t104 50t104.5 20.5t84 5.5q70 0 130 -18t95 -57.5t21 -92.5l-168 -13q5 28 -24.5 42t-92.5 14q-114 0 -126 -45 q-3 -10 14 -15.5t46.5 -7t66.5 -5t76 -7t74.5 -13.5t61.5 -24.5t37 -41.5t1 -63q-14 -53 -59.5 -89.5t-107 -51.5t-105.5 -20t-87 -5q-36 0 -78.5 7t-92.5 23.5t-77 52.5t-14 86zM401 558l96 142h211l-153 -142h-154z" glyph-name="sacute" horiz-adv-x="671" unicode="ś"/><glyph d="M97 237l182 2q-9 -39 25 -55.5t106 -17.5q93 -2 144 11.5t60 49.5q5 18 -21 28t-70 15t-98 9.5t-106 16.5t-92.5 32t-59 59.5t-3.5 94.5q17 63 58 109t98 71.5t120 37t135 10.5q98 -1 164 -23.5t96.5 -74.5t9.5 -132l-178 -3q9 37 -24 50t-113 13q-163 0 -178 -56 q-4 -17 22 -26t71 -13.5t99 -9t106 -16t92.5 -31t59 -58t3.5 -93.5q-9 -34 -27 -65.5t-52.5 -64.5t-81.5 -57t-118 -39.5t-158 -15.5q-77 0 -133.5 13t-86.5 35.5t-46.5 53.5t-14.5 66t10 74zM341 781l176 181h244l79 -181h-185l-36 103l-92 -103h-186z" glyph-name="Scircumflex" horiz-adv-x="774" unicode="Ŝ"/><glyph d="M68 163l191 17q-7 -32 23 -47t89 -15q55 0 91 13.5t41 33.5q3 10 -14 16t-46.5 8t-66.5 5.5t-76 7t-74.5 14t-61.5 25.5t-37 42t-1 63q14 50 58.5 85t104 50t104.5 20.5t84 5.5q70 0 130 -18t95 -57.5t21 -92.5l-168 -13q5 28 -24.5 42t-92.5 14q-114 0 -126 -45 q-3 -10 14 -15.5t46.5 -7t66.5 -5t76 -7t74.5 -13.5t61.5 -24.5t37 -41.5t1 -63q-14 -53 -59.5 -89.5t-107 -51.5t-105.5 -20t-87 -5q-36 0 -78.5 7t-92.5 23.5t-77 52.5t-14 86zM433 581h-186l176 181h245l78 -181h-185l-36 103z" glyph-name="scircumflex" horiz-adv-x="671" unicode="ŝ"/><glyph d="M97 237l182 2q-9 -39 25 -55.5t106 -17.5q93 -2 144 11.5t60 49.5q5 18 -21 28t-70 15t-98 9.5t-106 16.5t-92.5 32t-59 59.5t-3.5 94.5q17 63 58 109t98 71.5t120 37t135 10.5q98 -1 164 -23.5t96.5 -74.5t9.5 -132l-178 -3q9 37 -24 50t-113 13q-163 0 -178 -56 q-4 -17 22 -26t71 -13.5t99 -9t106 -16t92.5 -31t59 -58t3.5 -93.5q-11 -39 -34 -75t-63.5 -71.5t-108 -60t-154.5 -32.5l-39 -49q84 0 57 -102q-18 -67 -72.5 -100t-121.5 -33q-49 0 -87.5 17.5t-50.5 46.5l72 65q7 -19 28.5 -30t47.5 -11q29 0 52.5 13t29.5 37 q3 11 -0.5 19t-14 12.5t-20 7.5t-27.5 4t-26 1h-25h-9l27 40l38 62q-263 22 -207 239z" glyph-name="Scedilla" horiz-adv-x="774" unicode="Ş"/><glyph d="M68 163l191 17q-7 -32 23 -47t89 -15q55 0 91 13.5t41 33.5q3 10 -14 16t-46.5 8t-66.5 5.5t-76 7t-74.5 14t-61.5 25.5t-37 42t-1 63q14 50 58.5 85t104 50t104.5 20.5t84 5.5q70 0 130 -18t95 -57.5t21 -92.5l-168 -13q5 28 -24.5 42t-92.5 14q-114 0 -126 -45 q-3 -10 14 -15.5t46.5 -7t66.5 -5t76 -7t74.5 -13.5t61.5 -24.5t37 -41.5t1 -63q-11 -42 -41.5 -73.5t-73.5 -49t-83 -26.5t-84 -13l-39 -49q84 0 57 -102q-18 -67 -72.5 -100t-121.5 -33q-49 0 -87.5 17.5t-50.5 46.5l72 65q7 -19 28.5 -30t47.5 -11q29 0 52.5 13t29.5 37 q3 11 -0.5 19t-14 12.5t-20 7.5t-27.5 4t-26 1h-25h-9l27 40l38 62q-40 5 -75 15.5t-69 29t-49 49.5t-5 71z" glyph-name="scedilla" horiz-adv-x="671" unicode="ş"/><glyph d="M100 237l183 2q-9 -39 25 -55.5t105 -17.5q93 -2 144.5 11.5t60.5 49.5q4 16 -15.5 26t-55 14t-80.5 9t-92 11t-90 19t-74 34t-43.5 56.5t0.5 85.5q17 63 57.5 109t98 71.5t120.5 37t135 10.5q151 -2 225.5 -57t44.5 -173l-178 -3q9 37 -24 50t-114 13q-162 0 -177 -56 q-5 -17 21.5 -26t71 -13.5t98.5 -9t106 -16t92.5 -31t59 -58t3.5 -93.5q-9 -34 -27 -65.5t-52.5 -64.5t-81 -57t-117.5 -39.5t-158 -15.5q-77 0 -133.5 13t-86.5 35.5t-46.5 53.5t-15 66t9.5 74zM465 781l-78 181h185l37 -103l91 103h185l-175 -181h-245z" glyph-name="Scaron" horiz-adv-x="781" unicode="Š"/><glyph d="M68 163l191 17q-7 -32 23 -47t89 -15q55 0 91 13.5t41 33.5q3 10 -14 16t-46.5 8t-66.5 5.5t-76 7t-74.5 14t-61.5 25.5t-37 42t-1 63q14 50 58.5 85t104 50t104.5 20.5t84 5.5q70 0 130 -18t95 -57.5t21 -92.5l-168 -13q5 28 -24.5 42t-92.5 14q-114 0 -126 -45 q-3 -10 14 -15.5t46.5 -7t66.5 -5t76 -7t74.5 -13.5t61.5 -24.5t37 -41.5t1 -63q-14 -53 -59.5 -89.5t-107 -51.5t-105.5 -20t-87 -5q-36 0 -78.5 7t-92.5 23.5t-77 52.5t-14 86zM363 581l-79 181h186l36 -103l92 103h185l-176 -181h-244z" glyph-name="scaron" horiz-adv-x="671" unicode="š"/><glyph d="M421 530h-259l46 170h704l-45 -170h-225q-32 0 -51 24l-1 -1q17 -24 9 -57l-133 -496h-187zM384 962h185l37 -103l91 103h185l-176 -181h-244z" glyph-name="Tcaron" horiz-adv-x="745" unicode="Ť"/><glyph d="M196 330h-97l45 171h41q43 0 90 60.5t66 129.5h187q-36 -127 -158 -179q-11 -5 -70 -16l-1 -2q37 7 70 7h233l-46 -171h-173l-28 -106q-8 -31 3 -42.5t37 -11.5h143l-46 -170h-190q-104 0 -134.5 63t3.5 175zM659 562h-116l47 203l17 40l192 21z" glyph-name="tcaron" horiz-adv-x="599" unicode="ť"/><glyph d="M421 530h-259l46 170h704l-45 -170h-225q-32 0 -51 24l-1 -1q17 -24 9 -57l-22 -81h118l-33 -125h-118l-78 -290h-187l78 290h-122l33 125h122z" glyph-name="Tbar" horiz-adv-x="745" unicode="Ŧ"/><glyph d="M157 170h-103l34 126h98l10 34h-97l45 171h41q43 0 90 60.5t66 129.5h187q-36 -127 -158 -179q-11 -5 -70 -16l-1 -2q37 7 70 7h233l-46 -171h-173l-9 -34h141l-33 -126h-96h9h143l-46 -170h-190q-88 0 -122 43t-23 127z" glyph-name="tbar" horiz-adv-x="500" unicode="ŧ"/><glyph d="M117 326l101 374h187l-100 -375q-20 -75 18.5 -118.5t114.5 -43.5q78 0 135.5 41t79.5 121l101 375h187l-100 -374q-22 -83 -70 -148.5t-110 -105t-130.5 -60t-137.5 -20.5q-163 0 -242 82t-34 252zM460 747l-112 6q52 177 228 177q29 0 51 -9t32.5 -19.5t24 -19.5 t26.5 -10q39 -2 61 58l136 -4q-24 -84 -79 -133t-140 -49q-40 0 -64.5 14t-41.5 28t-37 15q-30 2 -53 -13.5t-32 -40.5z" glyph-name="Utilde" horiz-adv-x="784" unicode="Ũ"/><glyph d="M257 -1q-116 0 -151.5 75.5t6.5 231.5l54 201h187l-54 -202q-16 -60 8.5 -89.5t74.5 -29.5q55 0 102 32t66 102l50 187h187l-134 -500h-187l36 134q5 19 24 67l-2 1q-17 -42 -32 -66q-46 -71 -112 -107.5t-123 -36.5zM242 552q54 177 228 177q29 0 51.5 -9t33 -19.5 t23.5 -19.5t26 -10q40 -2 62 58l136 -4q-24 -84 -79 -133t-140 -49q-31 0 -54 9t-33.5 19t-25 19t-30.5 10q-31 2 -54 -13.5t-31 -40.5z" glyph-name="utilde" horiz-adv-x="688" unicode="ũ"/><glyph d="M117 326l101 374h187l-100 -375q-20 -75 18.5 -118.5t114.5 -43.5q78 0 135.5 41t79.5 121l101 375h187l-100 -374q-22 -83 -70 -148.5t-110 -105t-130.5 -60t-137.5 -20.5q-163 0 -242 82t-34 252zM838 798h-468l30 110h468z" glyph-name="Umacron" horiz-adv-x="784" unicode="Ū"/><glyph d="M257 -1q-116 0 -151.5 75.5t6.5 231.5l54 201h187l-54 -202q-16 -60 8.5 -89.5t74.5 -29.5q55 0 102 32t66 102l50 187h187l-134 -500h-187l36 134q5 19 24 67l-2 1q-17 -42 -32 -66q-46 -71 -112 -107.5t-123 -36.5zM269 598l29 110h468l-29 -110h-468z" glyph-name="umacron" horiz-adv-x="688" unicode="ū"/><glyph d="M117 326l101 374h187l-100 -375q-20 -75 18.5 -118.5t114.5 -43.5q78 0 135.5 41t79.5 121l101 375h187l-100 -374q-22 -83 -70 -148.5t-110 -105t-130.5 -60t-137.5 -20.5q-163 0 -242 82t-34 252zM429 953h142q-23 -86 40 -86q64 0 87 86h141q-10 -36 -28.5 -68.5 t-48 -62.5t-76.5 -48t-104 -18q-58 0 -95.5 18.5t-50.5 47t-16 63.5t9 68z" glyph-name="Ubreve" horiz-adv-x="784" unicode="Ŭ"/><glyph d="M257 -1q-116 0 -151.5 75.5t6.5 231.5l54 201h187l-54 -202q-16 -60 8.5 -89.5t74.5 -29.5q55 0 102 32t66 102l50 187h187l-134 -500h-187l36 134q5 19 24 67l-2 1q-17 -42 -32 -66q-46 -71 -112 -107.5t-123 -36.5zM478 557q-46 0 -79.5 12t-51 31t-25 45.5t-6.5 53 t9 54.5h142q-23 -86 40 -86q64 0 87 86h141q-22 -80 -84.5 -138t-172.5 -58z" glyph-name="ubreve" horiz-adv-x="688" unicode="ŭ"/><glyph d="M117 326l101 374h187l-100 -375q-20 -75 18.5 -118.5t114.5 -43.5q78 0 135.5 41t79.5 121l101 375h187l-100 -374q-22 -83 -70 -148.5t-110 -105t-130.5 -60t-137.5 -20.5q-163 0 -242 82t-34 252zM439 858q13 47 71 80t130 33q70 0 110.5 -33t27.5 -80 q-13 -48 -70.5 -81t-128.5 -33q-72 0 -112.5 33t-27.5 81zM598 817q23 0 43 12t25 29q5 16 -9 28t-37 12q-24 0 -44.5 -12t-24.5 -28q-5 -17 9 -29t38 -12z" glyph-name="Uring" horiz-adv-x="784" unicode="Ů"/><glyph d="M257 -1q-116 0 -151.5 75.5t6.5 231.5l54 201h187l-54 -202q-16 -60 8.5 -89.5t74.5 -29.5q55 0 102 32t66 102l50 187h187l-134 -500h-187l36 134q5 19 24 67l-2 1q-17 -42 -32 -66q-46 -71 -112 -107.5t-123 -36.5zM481 544q-71 0 -112 33t-28 81q13 47 71.5 80 t129.5 33t111.5 -33t27.5 -80q-13 -48 -71 -81t-129 -33zM453 658q-5 -17 9.5 -29t38.5 -12q23 0 43 12t25 29q5 16 -9.5 28t-37.5 12q-24 0 -44 -12t-25 -28z" glyph-name="uring" horiz-adv-x="688" unicode="ů"/><glyph d="M117 326l101 374h187l-100 -375q-20 -75 18.5 -118.5t114.5 -43.5q78 0 135.5 41t79.5 121l101 375h187l-100 -374q-22 -83 -70 -148.5t-110 -105t-130.5 -60t-137.5 -20.5q-163 0 -242 82t-34 252zM746 758h-152l96 142h212zM365 758l96 142h212l-156 -142h-152z" glyph-name="Uhungarumlaut" horiz-adv-x="784" unicode="Ű"/><glyph d="M257 -1q-116 0 -151.5 75.5t6.5 231.5l54 201h187l-54 -202q-16 -60 8.5 -89.5t74.5 -29.5q55 0 102 32t66 102l50 187h187l-134 -500h-187l36 134q5 19 24 67l-2 1q-17 -42 -32 -66q-46 -71 -112 -107.5t-123 -36.5zM264 562l96 142h212l-156 -142h-152zM493 562l96 142 h212l-156 -142h-152z" glyph-name="uhungarumlaut" horiz-adv-x="688" unicode="ű"/><glyph d="M117 326l101 374h187l-100 -375q-20 -75 18.5 -118.5t114.5 -43.5q78 0 135.5 41t79.5 121l101 375h187l-100 -374q-27 -101 -92.5 -175.5t-144.5 -111.5t-167 -45q-60 -59 -58 -105q1 -29 29 -29q22 0 56 22l52 -50q-30 -35 -76.5 -54t-93.5 -19q-33 0 -59 9t-40 28.5 t-12 47t27.5 67t75.5 84.5q-137 13 -199.5 94.5t-21.5 236.5z" glyph-name="Uogonek" horiz-adv-x="784" unicode="Ų"/><glyph d="M257 -1q-116 0 -151.5 75.5t6.5 231.5l54 201h187l-54 -202q-16 -60 8.5 -89.5t74.5 -29.5q55 0 102 32t66 102l50 187h187l-134 -500h-46q-70 -60 -76 -113q0 -35 29 -37q22 0 56 22l52 -50q-30 -35 -77 -54t-93 -19q-34 0 -60.5 10t-40 30.5t-10 49.5t33.5 71t86 90 h-41l36 134q5 19 24 67l-2 1q-17 -42 -32 -66q-46 -71 -112 -107.5t-123 -36.5z" glyph-name="uogonek" horiz-adv-x="688" unicode="ų"/><glyph d="M272 0l-62 700h199l35 -436q2 -16 -4 -34h2q8 25 12 35l220 435h164l-13 -436q0 -8 -7 -34h2q7 22 15 33l274 437h200l-438 -700h-220l8 323q0 3 2 11h-2q-3 -10 -3 -11l-165 -323h-219zM436 781l175 181h245l78 -181h-185l-36 103l-92 -103h-185z" glyph-name="Wcircumflex" horiz-adv-x="1143" unicode="Ŵ"/><glyph d="M186 0l-45 500h200l28 -320q2 -34 -6 -63h2q11 41 23 64l170 319h307l1 -322q0 -27 -11 -64h2q11 38 28 63l200 323h199l-312 -500h-297v318q0 33 11 75h-2q-11 -42 -29 -75l-168 -318h-301zM474 581l176 181h244l79 -181h-185l-36 103l-92 -103h-186z" glyph-name="wcircumflex" horiz-adv-x="1144" unicode="ŵ"/><glyph d="M395 298l-190 401h229l88 -205q13 -28 2 -69h2q10 40 39 70l196 204h229l-407 -401l-80 -298h-187zM372 781l175 181h245l78 -181h-185l-36 103l-92 -103h-185z" glyph-name="Ycircumflex" horiz-adv-x="821" unicode="Ŷ"/><glyph d="M187 -202h-212l36 132h99q110 0 131 30l23 36l-100 504h208l46 -250q6 -34 -4 -72h2q11 39 34 72l178 250h206l-411 -571q-88 -131 -236 -131zM272 581l175 181h245l78 -181h-185l-36 103l-92 -103h-185z" glyph-name="ycircumflex" horiz-adv-x="721" unicode="ŷ"/><glyph d="M395 298l-190 401h229l88 -205q13 -28 2 -69h2q10 40 39 70l196 204h229l-407 -401l-80 -298h-187zM817 754h-188l39 146h188zM402 754l39 146h188l-39 -146h-188z" glyph-name="Ydieresis" horiz-adv-x="821" unicode="Ÿ"/><glyph d="M758 0h-736l24 89l505 414q34 26 73 41v2q-43 -16 -77 -16h-375l46 170h719l-24 -89l-495 -413q-31 -26 -73 -42l1 -2q41 16 76 16h382zM502 758l96 142h211l-153 -142h-154z" glyph-name="Zacute" horiz-adv-x="780" unicode="Ź"/><glyph d="M664 0h-639l36 136l290 172q31 18 76 32v2q-41 -12 -77 -12h-226l46 170h624l-36 -136l-289 -172q-33 -19 -76 -32v-2q41 12 77 12h240zM560 561h-155l96 142h212z" glyph-name="zacute" horiz-adv-x="689" unicode="ź"/><glyph d="M758 0h-736l24 89l505 414q34 26 73 41v2q-43 -16 -77 -16h-375l46 170h719l-24 -89l-495 -413q-31 -26 -73 -42l1 -2q41 16 76 16h382zM488 754l40 146h189l-39 -146h-190z" glyph-name="Zdotaccent" horiz-adv-x="780" unicode="Ż"/><glyph d="M664 0h-639l36 136l290 172q31 18 76 32v2q-41 -12 -77 -12h-226l46 170h624l-36 -136l-289 -172q-33 -19 -76 -32v-2q41 12 77 12h240zM590 554h-190l39 146h190z" glyph-name="zdotaccent" horiz-adv-x="689" unicode="ż"/><glyph d="M758 0h-736l24 89l505 414q34 26 73 41v2q-43 -16 -77 -16h-375l46 170h719l-24 -89l-495 -413q-31 -26 -73 -42l1 -2q41 16 76 16h382zM395 962h185l37 -103l91 103h185l-175 -181h-245z" glyph-name="Zcaron" horiz-adv-x="780" unicode="Ž"/><glyph d="M664 0h-639l36 136l290 172q31 18 76 32v2q-41 -12 -77 -12h-226l46 170h624l-36 -136l-289 -172q-33 -19 -76 -32v-2q41 12 77 12h240zM315 762h185l37 -103l92 103h185l-176 -181h-244z" glyph-name="zcaron" horiz-adv-x="689" unicode="ž"/><glyph d="M92 237l183 2q-9 -39 25 -55.5t105 -17.5q93 -2 144.5 11.5t60.5 49.5q4 16 -15.5 26t-55 14t-80.5 9t-92 11t-90 19t-74 34t-43.5 56.5t0.5 85.5q17 63 57.5 109t98 71.5t120.5 37t135 10.5q151 -2 225.5 -57t44.5 -173l-178 -3q9 37 -24 50t-114 13q-162 0 -177 -56 q-5 -17 21.5 -26t71 -13.5t98.5 -9t106 -16t92.5 -31t59 -58t3.5 -93.5q-9 -34 -27 -65.5t-52.5 -64.5t-81 -57t-118 -39.5t-157.5 -15.5q-77 0 -133.5 13t-86.5 35.5t-46.5 53.5t-15 66t9.5 74zM198 -192l96 142h138l-115 -142h-119z" glyph-name="uni0218" horiz-adv-x="766" unicode="Ș"/><glyph d="M68 163l191 17q-7 -32 23 -47t89 -15q55 0 91 13.5t41 33.5q3 10 -14 16t-46.5 8t-66.5 5.5t-76 7t-74.5 14t-61.5 25.5t-37 42t-1 63q14 50 58.5 85t104 50t104.5 20.5t84 5.5q70 0 130 -18t95 -57.5t21 -92.5l-168 -13q5 28 -24.5 42t-92.5 14q-114 0 -126 -45 q-3 -10 14 -15.5t46.5 -7t66.5 -5t76 -7t74.5 -13.5t61.5 -24.5t37 -41.5t1 -63q-14 -53 -59.5 -89.5t-107 -51.5t-105.5 -20t-87 -5q-36 0 -78.5 7t-92.5 23.5t-77 52.5t-14 86zM159 -192l96 142h138l-115 -142h-119z" glyph-name="uni0219" horiz-adv-x="668" unicode="ș"/><glyph d="M421 530h-259l46 170h704l-45 -170h-225q-32 0 -51 24l-1 -1q17 -24 9 -57l-133 -496h-187zM203 -192l96 142h139l-115 -142h-120z" glyph-name="uni021A" horiz-adv-x="745" unicode="Ț"/><glyph d="M111 330l46 171h41q43 0 90 60.5t66 129.5h187q-17 -61 -58.5 -107.5t-99.5 -71.5q-10 -4 -71 -16v-2q37 7 69 7h234l-46 -171h-173l-28 -106q-8 -31 3 -42.5t37 -11.5h143l-46 -170h-190q-104 0 -134.5 63t3.5 175l25 92h-98zM153 -192l96 142h138l-115 -142h-119z" glyph-name="uni021B" horiz-adv-x="526" unicode="ț"/><glyph d="M300 474h-164l234 226h108l114 -226h-164l-41 81z" glyph-name="circumflex" horiz-adv-x="473" unicode="ˆ"/><glyph d="M406 474l-110 17l-89 209l164 -12l49 -58l80 70l130 -17z" glyph-name="caron" horiz-adv-x="468" unicode="ˇ"/><glyph d="M166 508l36 136h316l-36 -136h-316z" glyph-name="uni02C9" horiz-adv-x="377" unicode="ˉ"/><glyph d="M365 541q-46 0 -79.5 12t-50.5 31t-25 45.5t-6.5 52.5t9.5 55h141q-24 -86 41 -86t86 86h142q-22 -80 -85 -138t-173 -58z" glyph-name="breve" horiz-adv-x="440" unicode="˘"/><glyph d="M348 553h-190l40 147h190z" glyph-name="dotaccent" horiz-adv-x="210" unicode="˙"/><glyph d="M327 544q-71 0 -112 33t-28 81q13 47 71 80t130 33q70 0 110.5 -33t28.5 -80q-13 -48 -71 -81t-129 -33zM302 658q-4 -16 9 -27t36 -11q22 0 41 11t24 27q4 15 -9.5 26t-35.5 11q-23 0 -42 -11t-23 -26z" glyph-name="ring" horiz-adv-x="361" unicode="˚"/><glyph d="M72 4h99q-63 -54 -73 -108q-4 -39 25 -41q20 0 56 21l53 -50q-29 -35 -76 -54t-94 -19q-34 0 -60.5 9.5t-40 30.5t-10 50t34 71t86.5 90z" glyph-name="ogonek" horiz-adv-x="235" unicode="˛"/><glyph d="M280 577l-112 6q54 179 229 177q37 0 61 -14t40 -28t31 -15q38 -2 60 57l138 -3q-25 -84 -80.5 -133t-140.5 -49q-40 0 -64.5 14t-41.5 28t-37 15q-30 2 -52 -14t-31 -41z" glyph-name="tilde" horiz-adv-x="537" unicode="˜"/><glyph d="M372 558l96 142h213l-157 -142h-152zM286 558h-152l96 142h212z" glyph-name="hungarumlaut" horiz-adv-x="460" unicode="˝"/><glyph d="M177 700l20 -142h-156l-77 142h213z" glyph-name="gravecomb" horiz-adv-x="0" unicode="̀"/><glyph d="M125 558h-154l96 142h211z" glyph-name="acutecomb" horiz-adv-x="0" unicode="́"/><glyph d="M-106 581h-185l176 181h244l78 -181h-185l-36 103z" glyph-name="uni0302" horiz-adv-x="0" unicode="̂"/><glyph d="M-186 577l-113 6q54 177 229 177q29 0 51 -9t32.5 -19.5t24 -19.5t26.5 -10q39 -2 61 58l136 -4q-24 -84 -78.5 -133t-140.5 -49q-40 0 -64.5 14t-41.5 28t-37 15q-31 2 -54 -13.5t-31 -40.5z" glyph-name="tildecomb" horiz-adv-x="0" unicode="̃"/><glyph d="M-235 598l29 110h469l-30 -110h-468z" glyph-name="uni0304" horiz-adv-x="0" unicode="̄"/><glyph d="M-24 556q-57 0 -95 18.5t-50.5 47t-15.5 63.5t9 68h141q-23 -86 41 -86q63 0 86 86h142q-22 -80 -85 -138.5t-173 -58.5z" glyph-name="uni0306" horiz-adv-x="0" unicode="̆"/><glyph d="M184 554h-190l40 146h189z" glyph-name="uni0307" horiz-adv-x="0" unicode="̇"/><glyph d="M229 554h-187l39 146h187zM2 554h-187l39 146h188z" glyph-name="uni0308" horiz-adv-x="0" unicode="̈"/><glyph d="M34 544q-72 0 -112.5 33t-27.5 81q13 47 71 80t130 33q70 0 110.5 -33t28.5 -80q-13 -48 -71 -81t-129 -33zM6 658q-5 -17 9 -29t39 -12q23 0 43 12t25 29q4 16 -10 28t-37 12q-24 0 -44 -12t-25 -28z" glyph-name="uni030A" horiz-adv-x="0" unicode="̊"/><glyph d="M120 558h-152l96 142h212zM-109 558h-152l96 142h213z" glyph-name="uni030B" horiz-adv-x="0" unicode="̋"/><glyph d="M-242 762h185l36 -103l92 103h185l-176 -181h-244z" glyph-name="uni030C" horiz-adv-x="0" unicode="̌"/><glyph d="M-198 -192h-120l96 142h139z" glyph-name="uni0326" horiz-adv-x="0" unicode="̦"/><glyph d="M-395 -232l72 65q6 -19 27.5 -30t48.5 -11q28 0 51.5 13t30.5 37q4 16 -5 26t-32 13.5t-37 4t-39 0.5h-9l26 40l48 78h144l-51 -65q84 0 56 -102q-18 -67 -72.5 -100t-121.5 -33q-48 0 -86.5 17.5t-50.5 46.5z" glyph-name="uni0327" horiz-adv-x="0" unicode="̧"/><glyph d="M-194 4h100q-70 -60 -76 -113q0 -35 29 -37q22 0 56 22l52 -50q-29 -35 -76 -54t-94 -19q-34 0 -60.5 9.5t-40 30.5t-10 50t33.5 71t86 90z" glyph-name="uni0328" horiz-adv-x="0" unicode="̨"/><glyph d="M-5 -132q50 179 93 350l76 282h188l-34 -127q-24 -88 -9 -130t73 -42q34 0 91 45t79 127l34 127h189l-134 -500h-189l21 78q7 24 24 64h-1q-34 -68 -77 -109t-106 -41q-69 0 -79 67l-51 -191h-188z" glyph-name="uni03BC" horiz-adv-x="671" unicode="μ"/><glyph d="M272 0l-62 700h199l35 -436q2 -16 -4 -34h2q8 25 12 35l220 435h164l-13 -436q0 -8 -7 -34h2q7 22 15 33l274 437h200l-438 -700h-220l8 323q0 3 2 11h-2q-3 -10 -3 -11l-165 -323h-219zM623 900h213l20 -142h-156z" glyph-name="Wgrave" horiz-adv-x="1143" unicode="Ẁ"/><glyph d="M177 0l-44 500h200l27 -320q3 -26 -5 -63h2q7 34 23 64l170 319h307v-322q0 -27 -11 -64h2q10 34 28 63l201 323h199l-313 -500h-296l-1 318q0 33 11 75h-2q-10 -40 -28 -75l-169 -318h-301zM669 558l-77 142h213l20 -142h-156z" glyph-name="wgrave" horiz-adv-x="1135" unicode="ẁ"/><glyph d="M272 0l-62 700h199l35 -436q2 -16 -4 -34h2q8 25 12 35l220 435h164l-13 -436q0 -8 -7 -34h2q7 22 15 33l274 437h200l-438 -700h-220l8 323q0 3 2 11h-2q-3 -10 -3 -11l-165 -323h-219zM664 758l96 142h211l-153 -142h-154z" glyph-name="Wacute" horiz-adv-x="1143" unicode="Ẃ"/><glyph d="M133 500h200l27 -320q3 -26 -5 -63h2q7 34 23 64l170 319h307v-322q0 -27 -11 -64h2q10 34 28 63l201 323h199l-313 -500h-296l-1 318q0 33 11 75h-2q-10 -40 -28 -75l-169 -318h-301zM608 558l96 142h212l-153 -142h-155z" glyph-name="wacute" horiz-adv-x="1135" unicode="ẃ"/><glyph d="M272 0l-62 700h199l35 -436q2 -16 -4 -34h2q8 25 12 35l220 435h164l-13 -436q0 -8 -7 -34h2q7 22 15 33l274 437h200l-438 -700h-220l8 323q0 3 2 11h-2q-3 -10 -3 -11l-165 -323h-219zM754 754h-188l39 146h188zM981 754h-188l39 146h188z" glyph-name="Wdieresis" horiz-adv-x="1143" unicode="Ẅ"/><glyph d="M133 500h200l27 -320q3 -26 -5 -63h2q7 34 23 64l170 319h307v-322q0 -27 -11 -64h2q10 34 28 63l201 323h199l-313 -500h-296l-1 318q0 33 11 75h-2q-10 -40 -28 -75l-169 -318h-301zM696 554h-187l39 146h187zM923 554h-188l39 146h188z" glyph-name="wdieresis" horiz-adv-x="1127" unicode="ẅ"/><glyph d="M78 180l51 188h592l-50 -188h-593z" glyph-name="endash" horiz-adv-x="653" unicode="–"/><glyph d="M85 204l50 188h902l-51 -188h-901z" glyph-name="emdash" horiz-adv-x="961" unicode="—"/><glyph d="M128 402l67 251l23 47h194l-157 -298h-127z" glyph-name="quoteleft" horiz-adv-x="245" unicode="‘"/><glyph d="M144 429l48 203l17 40l192 21l-140 -264h-117z" glyph-name="quoteright" horiz-adv-x="245" unicode="’"/><glyph d="M25 -141h-28l19 71h28q95 0 111 62h-122l46 173h196l-46 -173q-19 -70 -65 -101.5t-139 -31.5z" glyph-name="quotesinglbase" horiz-adv-x="266" unicode="‚"/><glyph d="M336 394h-196l47 173q19 69 65 101t138 32h28l-19 -71h-28q-95 0 -111 -62h123zM355 394l46 173q19 69 65 101t139 32h28l-19 -71h-28q-95 0 -111 -62h122l-46 -173h-196z" glyph-name="quotedblleft" horiz-adv-x="481" unicode="“"/><glyph d="M355 394l19 71h28q95 0 111 61h-122l46 174h196l-46 -174q-19 -69 -65 -100.5t-139 -31.5h-28zM140 394l19 71h28q95 0 111 61h-122l46 174h196l-46 -174q-19 -69 -65 -100.5t-139 -31.5h-28z" glyph-name="quotedblright" horiz-adv-x="476" unicode="”"/><glyph d="M246 -140h-28l19 71h28q94 0 112 61h-123l46 174h196l-46 -174q-19 -69 -65 -100.5t-139 -31.5zM32 -140h-28l19 71h28q95 0 111 61h-123l47 174h196l-47 -174q-19 -69 -64.5 -100.5t-138.5 -31.5z" glyph-name="quotedblbase" horiz-adv-x="493" unicode="„"/><glyph d="M142 471l43 161h76l17 68h188l-18 -68h70l-43 -161h-70l-35 -127h-187l34 127h-75z" glyph-name="dagger" horiz-adv-x="365" unicode="†"/><glyph d="M117 333l37 136h98l10 36h-99l37 136h98l16 59h188l-16 -59h99l-37 -136h-99l-9 -36h98l-36 -136h-99l-19 -71h-187l19 71h-99z" glyph-name="daggerdbl" horiz-adv-x="441" unicode="‡"/><glyph d="M242 55q-86 0 -130.5 60.5t-21.5 146.5t100 146.5t163 60.5t130 -61t21 -146q-22 -86 -99 -146.5t-163 -60.5z" glyph-name="bullet" horiz-adv-x="454" unicode="•"/><glyph d="M32 44l46 173h186l-46 -173h-186zM612 44l46 173h186l-46 -173h-186zM321 44l46 173h186l-47 -173h-185z" glyph-name="ellipsis" horiz-adv-x="811" unicode="…"/><glyph d="M22 0l799 700h253l-799 -700h-253zM1174 290q115 0 148 -69q27 -57 -16 -122q-50 -75 -153 -94q-28 -5 -57 -5q-115 0 -148 69q-27 57 16 122q50 75 153 94q28 5 57 5zM419 700q115 0 148 -69q27 -57 -15 -121q-49 -75 -152 -95q-28 -5 -58 -5q-115 0 -148 69 q-28 57 15 122q49 74 152 94q28 5 58 5zM762 290q115 0 148 -69q27 -57 -16 -122q-50 -75 -153 -94q-28 -5 -57 -5q-115 0 -148 69q-27 57 16 122q50 75 153 94q27 5 57 5zM368 509q45 0 64 36q16 30 -7 47q-12 9 -32 9q-46 0 -64 -36q-16 -30 7 -47q12 -9 32 -9zM1123 100 q45 0 63 35q16 29 -6 46q-12 9 -33 9q-45 0 -63 -35q-16 -29 6 -46q12 -9 33 -9zM711 100q45 0 63 35q16 29 -6 46q-12 9 -33 9q-45 0 -63 -35q-16 -29 6 -46q12 -9 33 -9z" glyph-name="perthousand" horiz-adv-x="1307" unicode="‰"/><glyph d="M103 331l373 177l-49 -187l-93 -45l68 -45l-49 -186l-279 177z" glyph-name="guilsinglleft" horiz-adv-x="355" unicode="‹"/><glyph d="M400 222l-373 -177l49 186l92 45l-67 46l50 186l278 -177z" glyph-name="guilsinglright" horiz-adv-x="355" unicode="›"/><glyph d="M15 0l651 700h224l-650 -700h-225z" glyph-name="fraction" horiz-adv-x="718" unicode="⁄"/><glyph d="M466 -7q-199 -1 -298 90.5t-52 266.5q32 118 113.5 200t190.5 120t238 37q135 -2 228 -45t125 -126l-194 -76q-38 88 -204 88q-173 0 -223 -65h248l-48 -97h-270q-13 -22 -15 -54h279l-42 -96h-217q26 -76 184 -76q92 0 148 19.5t100 61.5l155 -77q-77 -84 -193.5 -127 t-252.5 -44z" glyph-name="Euro" horiz-adv-x="889" unicode="€"/><glyph d="M438 534h-64l44 166h67l39 -92l87 92h67l-44 -166h-64l18 68l-65 -68h-38l-29 68zM197 633l18 67h186l-18 -67h-62l-26 -98h-62l26 98h-62z" glyph-name="trademark" horiz-adv-x="523" unicode="™"/><glyph d="M139 363l439 346l79 -110l-183 -143h390l-50 -188h-390l106 -145l-137 -108z" glyph-name="arrowleft" horiz-adv-x="783" unicode="←"/><glyph d="M580 713l253 -346l-138 -109l-106 144l-104 -389h-187l104 389l-184 -144l-79 108z" glyph-name="arrowup" horiz-adv-x="777" unicode="↑"/><glyph d="M839 362l-440 -347l-79 110l183 144h-390l51 187h389l-105 146l136 107z" glyph-name="arrowright" horiz-adv-x="783" unicode="→"/><glyph d="M391 13l-253 346l139 109l105 -145l104 390h187l-104 -390l184 145l79 -108z" glyph-name="arrowdown" horiz-adv-x="777" unicode="↓"/><glyph d="M736 584l135 106l251 -343l-434 -342l-78 108l181 142h-388l104 -143l-134 -106l-251 342l433 342l78 -108l-180 -142h387z" glyph-name="arrowboth" horiz-adv-x="1057" unicode="↔"/><glyph d="M229 345l-78 106l435 343l250 -342l-137 -107l-104 143l-100 -369l182 142l78 -106l-435 -343l-250 342l136 107l105 -142l100 369z" glyph-name="arrowupdn" horiz-adv-x="744" unicode="↕"/><glyph d="M208 617h490l-42 -154h-204l202 -275l-168 -133l-202 276l-56 -205h-152z" glyph-name="uni2196" horiz-adv-x="646" unicode="↖"/><glyph d="M768 610l-131 -490l-154 1l54 204l-349 -276l-97 133l349 275l-204 1l41 152h491z" glyph-name="uni2197" horiz-adv-x="647" unicode="↗"/><glyph d="M621 65h-490l42 155l203 -1l-201 276l168 132l201 -275l56 205l152 -1z" glyph-name="uni2198" horiz-adv-x="646" unicode="↘"/><glyph d="M61 71l131 490l154 -1l-55 -204l349 276l97 -133l-349 -275l205 -1l-41 -152h-491z" glyph-name="uni2199" horiz-adv-x="647" unicode="↙"/><glyph d="M276 4q-54 6 -95.5 24.5t-70 51t-31.5 78t22 106.5q30 70 89 118.5t125 70t136 21.5q122 0 190.5 -62t24.5 -164q33 66 36.5 119.5t-18.5 88.5t-57 60.5t-82 37.5t-91 16.5t-85 2.5l92 128q88 -2 155 -16t117 -45.5t71 -79.5t10 -121t-58 -167q-69 -138 -177.5 -205 t-238.5 -67q-35 0 -64 4zM306 273q-28 -57 5.5 -98.5t114.5 -51.5q59 -7 132 24.5t100 85.5q26 53 -13.5 97t-97.5 53q-70 11 -140.5 -21t-100.5 -89z" glyph-name="partialdiff" horiz-adv-x="725" unicode="∂"/><glyph d="M455 8q-172 0 -267.5 99.5t-57.5 239.5t186 239t320 99q113 0 196.5 -45.5t118.5 -123t10 -169.5q-38 -140 -186 -239.5t-320 -99.5zM313 347q-4 -25 -4.5 -32.5t3.5 -19t4 -12.5l349 237q-27 16 -71 16q-95 0 -177.5 -55.5t-103.5 -133.5zM428 167q25 -11 65 -11 q96 0 180.5 56t100.5 134q10 46 4 58z" glyph-name="emptyset" horiz-adv-x="906" unicode="∅"/><glyph d="M345 530h-188l46 170h859l-45 -170h-184l-142 -530h-187l142 530h-115l-141 -530h-187z" glyph-name="product" horiz-adv-x="890" unicode="∏"/><glyph d="M844 716l-42 -155h-351l46 -204l-155 -204h351l-41 -153h-622l273 358l-81 358h622z" glyph-name="summation" horiz-adv-x="680" unicode="∑"/><glyph d="M85 205l46 171h530l-46 -171h-530z" glyph-name="minus" horiz-adv-x="590" unicode="−"/><glyph d="M1027 682l110 -251h-225l-26 63l-500 -614h-181l-135 322h214l42 -122l491 602h210z" glyph-name="radical" horiz-adv-x="1049" unicode="√"/><glyph d="M257 114q-86 0 -130 52t-21 138q23 87 95 139t159 52q47 0 91 -19.5t66.5 -38.5t60.5 -55q62 38 91.5 55t85 37.5t102.5 20.5q86 0 130.5 -52.5t21.5 -138.5t-95 -138t-159 -52q-48 0 -91 17.5t-68.5 37t-60.5 53.5q-78 -51 -143 -79.5t-135 -28.5zM797 364 q-11 0 -23 -2.5t-21.5 -6t-23.5 -11t-22 -12t-24.5 -15t-23.5 -14.5q45 -41 66 -50q19 -8 41 -8q65 0 81 59q17 60 -50 60zM267 304q-7 -28 7 -43t42 -15q9 0 18.5 1.5t19.5 5t17 6t19 9.5l18 10.5t20.5 12.5t20.5 12q-6 5 -23 20t-25 21t-23 12.5t-31 6.5q-64 0 -80 -59z " glyph-name="infinity" horiz-adv-x="955" unicode="∞"/><glyph d="M-6 -125l44 162h51q28 0 40.5 14.5t30.5 57.5l228 553q17 42 31 67t36 48.5t53 34t74 10.5h187l-44 -162h-73q-22 0 -39 -9t-30.5 -29.5t-19 -33t-17.5 -40.5l-213 -513q-31 -85 -62 -122.5t-90 -37.5h-187z" glyph-name="integral" horiz-adv-x="576" unicode="∫"/><glyph d="M242 25l-208 -10q10 86 94 171t179 92q44 3 79 -7t53 -23.5t42.5 -24t50.5 -7.5q30 1 55 22t30 49l224 10q-20 -102 -105 -176.5t-200 -83.5q-47 -2 -86 17.5t-70 35.5t-64 9q-27 -6 -48.5 -28.5t-25.5 -45.5zM383 562q44 3 79 -6.5t53 -23t42.5 -24t50.5 -8.5 q31 1 55.5 22t30.5 49l223 11q-20 -102 -105 -177t-200 -84q-37 -2 -70 9.5t-52 26t-45 23.5t-52 3q-28 -6 -49.5 -28t-25.5 -45l-208 -11q10 86 94 171t179 92z" glyph-name="approxequal" horiz-adv-x="780" unicode="≈"/><glyph d="M163 112h-103l45 169h191l34 40h-214l46 171h313l106 114h157l-106 -114h117l-46 -171h-207l-32 -40h228l-45 -169h-327l-85 -94h-157z" glyph-name="notequal" horiz-adv-x="647" unicode="≠"/><glyph d="M129 419l387 177l-49 -186l-107 -46l82 -46l-50 -185l-293 177zM341 -62h-343l46 170h343z" glyph-name="lessequal" horiz-adv-x="373" unicode="≤"/><glyph d="M469 419l-30 -109l-387 -177l49 185l106 46l-81 46l49 186zM-2 -62l46 170h343l-46 -170h-343z" glyph-name="greaterequal" horiz-adv-x="373" unicode="≥"/><glyph d="M348 547h111l122 -220l-240 -220h-111l-122 220zM272 327l48 -92l97 92l-48 92z" glyph-name="lozenge" horiz-adv-x="514" unicode="◊"/><glyph d="M87 0l88 330h-76l45 171h172q-10 0 -25 3t-35.5 9.5t-31 23t-4.5 39.5q9 33 32.5 57t53 36.5t74.5 19.5t83 9t93 2l-37 -138q-158 0 -165 -29q-5 -16 17 -24t54 -8h197q-8 0 -21 4.5t-31 17t-23.5 36t2.5 61.5q35 128 299 139l-41 -153q-69 1 -98 -12.5t-39 -42.5 q-8 -22 9 -36t42 -14h58l-46 -171h-77l-89 -330h-188l89 330h-106l-88 -330h-187z" glyph-name="uniFB00" horiz-adv-x="655" unicode="ﬀ"/><glyph d="M203 330h-104l45 171h108q-15 0 -27.5 22t-4.5 53q17 64 111.5 103t207.5 39q115 0 191 -43.5t66 -125.5l-180 -8q-3 31 -30.5 48t-64.5 17q-32 0 -56.5 -12.5t-30.5 -34.5q-17 -58 50 -58h58l-46 -171h-106l-88 -330h-188zM649 0h-188l134 500h188z" glyph-name="uniFB01" horiz-adv-x="669" unicode="ﬁ"/><glyph d="M430 330l46 171h107q-15 0 -27 23t-4 54q17 64 113 103.5t211 39.5t190 -43t63 -125l-181 -8q-2 31 -28.5 47.5t-63.5 16.5q-32 0 -58.5 -13t-32.5 -35q-16 -60 50 -60h58l-46 -171h-106l-88 -330h-188l89 330h-104zM274 0h-187l88 330h-76l45 171h172q-15 0 -37 4.5 t-44 23.5t-14 49q31 122 257 122q27 0 87 -4l-40 -136q-36 3 -66 3q-97 0 -105 -28q-4 -16 18 -25t53 -9h51l-46 -171h-68zM981 0h-188l134 500h188z" glyph-name="uniFB03" horiz-adv-x="997" unicode="ﬃ"/><glyph d="M487 402h-127l67 251l23 47h194zM255 402h-127l67 251l23 47h194z" glyph-name="glyph390" horiz-adv-x="482"/><glyph d="M443 402l2 298h195l-3 -47l-67 -251h-127zM338 402h-127l2 298h195l-3 -47z" glyph-name="glyph391" horiz-adv-x="482"/></font>
</defs>
</svg>
