<svg xmlns="http://www.w3.org/2000/svg">
<defs>
<font horiz-adv-x="203" id="ywftsvg"><font-face ascent="800" bbox="-432 -288 1193 956" cap-height="700" descent="-200" font-family="" font-stretch="normal" font-weight="700" panose-1="0 0 0 0 0 0 0 0 0 0" underline-position="0" underline-thickness="0" unicode-range="U+000D-FB03" units-per-em="1000" x-height="500"/><missing-glyph d="M342 211h63q3 -15 7 -44.5t6 -43.5l11 88h64v-188h-43v127l-17 -127h-31l-18 124v-124h-42v188zM267 215q20 0 32 -6t17 -19.5t6 -24.5t1 -32v-32q0 -21 -1 -32t-6 -24.5t-17 -19.5t-32 -6t-32.5 6t-17.5 19.5t-6 24.5t-1 32v32q0 21 1 32t6 24.5t17.5 19.5t32.5 6z M78 90v55q0 35 12.5 52.5t46.5 17.5q26 0 39 -11.5t15.5 -26t2.5 -42.5v-6h-49v26q0 16 -2 25l-7 3l-7 -4l-2 -19v-87l2 -18l7 -4l7 4q2 9 2 43h49v-7q0 -36 -12 -54t-47 -18q-34 0 -45.5 17.5t-11.5 53.5zM292 242v189h49q30 0 47 -13q9 -17 9 -49q0 -20 -4 -34 q-12 -17 -53 -17v-76h-48zM227 498l-15 129h32l7 -88q3 42 9 88h35q3 -33 7 -92q3 50 10 92h32l-15 -129h-42q-5 26 -10 68l-9 -68h-41zM411 431h82v-38h-33v-36h31v-36h-31v-41h36v-38h-85v189zM84 393h-29v38h107v-38h-29v-151h-49v151zM168 431h45l12 -75q3 25 13 75h45 q-48 -120 -36 -189h-45q2 9 2 26q0 70 -36 163zM129 551v22q0 19 1.5 29t10.5 18.5t26 8.5q26 0 32.5 -14t6.5 -42v-22q0 -19 -1.5 -28.5t-10.5 -18t-27 -8.5q-25 0 -31.5 13.5t-6.5 41.5zM47 476h449v-23h-449v23zM422 498v129h34q22 0 31 -7t9 -27q0 -13 -4 -22 q-6 -4 -14 -6q7 -1 13 -6l4 -8l1 -19v-34h-31l1 32q0 16 -2 24l-9 2v-58h-33zM48 498v129h34q19 0 32 -9q6 -14 6 -33q0 -14 -3 -23q-7 -12 -36 -12v-52h-33zM351 498v129h59v-30h-26v-20h26v-29h-26v-19h26v-31h-59zM259 163v-88l1 -20l7 -4l6 4l1 21v87l-1 17l-6 3l-6 -3 q-2 -10 -2 -17zM30 23v38h36v-38h-36zM162 594v-60l1 -14l4 -3l5 3l1 15v59l-1 11l-5 3l-4 -2q0 -2 -0.5 -6t-0.5 -6zM340 398v-48h4l9 4q3 12 3 13v16q0 3 -3 12zM81 572h3l6 2q2 6 2 10v10q0 3 -2 9l-9 2v-33zM455 605v-29l8 2q2 6 2 10v7q0 2 -2 8z" horiz-adv-x="526"/><glyph d="M342 211h63q3 -15 7 -44.5t6 -43.5l11 88h64v-188h-43v127l-17 -127h-31l-18 124v-124h-42v188zM267 215q20 0 32 -6t17 -19.5t6 -24.5t1 -32v-32q0 -21 -1 -32t-6 -24.5t-17 -19.5t-32 -6t-32.5 6t-17.5 19.5t-6 24.5t-1 32v32q0 21 1 32t6 24.5t17.5 19.5t32.5 6z M78 90v55q0 35 12.5 52.5t46.5 17.5q26 0 39 -11.5t15.5 -26t2.5 -42.5v-6h-49v26q0 16 -2 25l-7 3l-7 -4l-2 -19v-87l2 -18l7 -4l7 4q2 9 2 43h49v-7q0 -36 -12 -54t-47 -18q-34 0 -45.5 17.5t-11.5 53.5zM292 242v189h49q30 0 47 -13q9 -17 9 -49q0 -20 -4 -34 q-12 -17 -53 -17v-76h-48zM227 498l-15 129h32l7 -88q3 42 9 88h35q3 -33 7 -92q3 50 10 92h32l-15 -129h-42q-5 26 -10 68l-9 -68h-41zM411 431h82v-38h-33v-36h31v-36h-31v-41h36v-38h-85v189zM84 393h-29v38h107v-38h-29v-151h-49v151zM168 431h45l12 -75q3 25 13 75h45 q-48 -120 -36 -189h-45q2 9 2 26q0 70 -36 163zM129 551v22q0 19 1.5 29t10.5 18.5t26 8.5q26 0 32.5 -14t6.5 -42v-22q0 -19 -1.5 -28.5t-10.5 -18t-27 -8.5q-25 0 -31.5 13.5t-6.5 41.5zM47 476h449v-23h-449v23zM422 498v129h34q22 0 31 -7t9 -27q0 -13 -4 -22 q-6 -4 -14 -6q7 -1 13 -6l4 -8l1 -19v-34h-31l1 32q0 16 -2 24l-9 2v-58h-33zM48 498v129h34q19 0 32 -9q6 -14 6 -33q0 -14 -3 -23q-7 -12 -36 -12v-52h-33zM351 498v129h59v-30h-26v-20h26v-29h-26v-19h26v-31h-59zM259 163v-88l1 -20l7 -4l6 4l1 21v87l-1 17l-6 3l-6 -3 q-2 -10 -2 -17zM30 23v38h36v-38h-36zM162 594v-60l1 -14l4 -3l5 3l1 15v59l-1 11l-5 3l-4 -2q0 -2 -0.5 -6t-0.5 -6zM340 398v-48h4l9 4q3 12 3 13v16q0 3 -3 12zM81 572h3l6 2q2 6 2 10v10q0 3 -2 9l-9 2v-33zM455 605v-29l8 2q2 6 2 10v7q0 2 -2 8z" glyph-name=".notdef" horiz-adv-x="526"/><glyph glyph-name="glyph1" horiz-adv-x="0"/><glyph glyph-name="glyph1" horiz-adv-x="0"/><glyph glyph-name="space" horiz-adv-x="200" unicode=" "/><glyph d="M118 192l-57 206v302h143v-302l-57 -206h-29zM51 -8h165v137h-165v-137z" glyph-name="exclam" horiz-adv-x="266" unicode="!"/><glyph d="M279 437l-60 199v64h157v-64l-59 -199h-38zM20 636v64h157v-64l-60 -199h-38z" glyph-name="quotedbl" horiz-adv-x="396" unicode="&quot;"/><glyph d="M126 158h-128l49 131h125l35 118h-128l51 132h123l52 161h152l-51 -161h124l52 161h152l-51 -161h179l-51 -132h-175l-35 -118h178l-49 -131h-175l-49 -158h-152l49 158h-124l-50 -158h-152zM360 407l-36 -118h125l35 118h-124z" glyph-name="numbersign" horiz-adv-x="877" unicode="#"/><glyph d="M46 219l134 7q3 -86 116 -94v181q-36 4 -57 7.5t-50.5 10.5t-46.5 16t-36.5 24t-30 34t-17.5 47t-7 63q0 51 22.5 89.5t59.5 60t77.5 32t85.5 12.5v35h135v-36q107 -3 167.5 -56.5t65.5 -145.5l-132 -7q-5 76 -101 84v-164q57 -5 103.5 -18t85 -35.5t60 -59t21.5 -84.5 q0 -105 -59 -161.5t-211 -64.5v-42h-135v42q-72 5 -122.5 25t-76.5 52t-37.5 67t-13.5 79zM431 302v-170q58 2 88.5 24.5t30.5 61.5t-29 56.5t-90 27.5zM296 434v149q-44 -3 -73 -24.5t-29 -55.5q0 -30 24.5 -45.5t77.5 -23.5z" glyph-name="dollar" horiz-adv-x="749" unicode="$"/><glyph d="M208 410q-48 0 -86 16t-57.5 41.5t-29 56.5t0 62t29 56.5t57.5 41.5t86 16q49 0 87 -16t57.5 -41.5t29 -56.5t0 -62t-29 -56.5t-57.5 -41.5t-87 -16zM35 0l562 700h189l-562 -700h-189zM208 493q43 0 60.5 31t0 62t-60.5 31q-32 0 -50 -19.5t-18 -42.5t18 -42.5t50 -19.5 zM616 0q-48 0 -86 16t-57.5 41.5t-29 56.5t0 62t29 56.5t57.5 41.5t86 16q56 0 97.5 -21.5t60 -53.5t18.5 -70t-18.5 -70t-60 -53.5t-97.5 -21.5zM616 83q43 0 60.5 31t0 62t-60.5 31q-32 0 -50 -19.5t-18 -42.5t18 -42.5t50 -19.5z" glyph-name="percent" horiz-adv-x="819" unicode="%"/><glyph d="M33 200q0 41 15.5 72t45 50.5t63 31.5t77.5 20q-88 13 -131.5 58t-43.5 101q0 77 77.5 122t210.5 45q108 0 172 -19.5t121 -63.5l-78 -77q-80 60 -215 60q-58 0 -96 -24t-38 -64q0 -42 37 -70t98 -28l186 -1v89l142 -21v-67h108l1 -92h-109v-323h-142v161 q-12 -74 -64 -117t-166 -43q-123 0 -197 55t-74 145zM173 200q0 -41 35.5 -69.5t94.5 -28.5q231 0 231 188v32h-141q-110 -4 -165 -30t-55 -92z" glyph-name="ampersand" horiz-adv-x="802" unicode="&amp;"/><glyph d="M78 437l-59 199v64h157v-64l-59 -199h-39z" glyph-name="quotesingle" horiz-adv-x="195" unicode="'"/><glyph d="M20 308q0 69 15.5 134.5t37.5 110t43.5 79.5t37.5 52l15 16h139q-6 -6 -15.5 -17.5t-34.5 -50t-44.5 -81t-35 -108.5t-15.5 -135t15 -134.5t36 -110t42.5 -79.5t36.5 -52l15 -16h-139q-6 6 -16 17.5t-36 50t-45.5 81t-35.5 108.5t-16 135z" glyph-name="parenleft" horiz-adv-x="336" unicode="("/><glyph d="M20 700h139q6 -6 16 -17.5t36 -50t45.5 -81t35.5 -108.5t16 -135t-15.5 -134.5t-37.5 -110t-43.5 -79.5t-37.5 -52l-15 -16h-139q6 6 15.5 17.5t34.5 50t44.5 81t35 108.5t15.5 135t-15 134.5t-36 110t-42.5 79.5t-36.5 52z" glyph-name="parenright" horiz-adv-x="336" unicode=")"/><glyph d="M374 670l72 -97l-152 -42l154 -45l-69 -89l-112 93l37 -141v-1h-140v1l43 141l-121 -88l-66 84l161 45l-161 42l74 97l113 -97l-43 135h140l-37 -135z" glyph-name="asterisk" horiz-adv-x="468" unicode="*"/><glyph d="M24 222v132h194v162h142v-162h192v-132h-192v-169h-142v169h-194z" glyph-name="plus" horiz-adv-x="576" unicode="+"/><glyph d="M36 131h154v-139q0 -62 -29 -88.5t-103 -26.5h-22v55h22q74 0 74 60h-96v139z" glyph-name="comma" horiz-adv-x="225" unicode=","/><glyph d="M30 184v143h424v-143h-424z" glyph-name="hyphen" horiz-adv-x="484" unicode="-"/><glyph d="M200 -8h-164v137h164v-137z" glyph-name="period" horiz-adv-x="237" unicode="."/><glyph d="M15 -95l396 795h160l-396 -795h-160z" glyph-name="slash" horiz-adv-x="586" unicode="/"/><glyph d="M22 348q0 33 1.5 60t8 66t18 69t33 62t51 53t74.5 34.5t101 13.5t101 -13.5t74.5 -34.5t51 -53t33 -62t18 -69t8 -66t1.5 -60t-1.5 -60t-8 -66t-18 -69t-33 -62t-51 -53t-74.5 -34.5t-101 -13.5t-101 13.5t-74.5 34.5t-51 53t-33 62t-18 69t-8 66t-1.5 60zM309 556 q-79 0 -111.5 -53.5t-32.5 -154.5q0 -99 30.5 -153.5t113.5 -54.5q144 0 144 208t-144 208z" glyph-name="zero" horiz-adv-x="618" unicode="0"/><glyph d="M15 447v131q154 0 154 122h143v-700h-143v498q0 30 8 74l-2 1q-11 -58 -20 -72q-30 -54 -140 -54z" glyph-name="one" horiz-adv-x="331" unicode="1"/><glyph d="M22 0v20q0 81 31.5 144.5t78.5 100t102.5 67t102.5 49t78.5 43.5t31.5 54q0 54 -37 78t-95 24q-63 0 -99.5 -33.5t-38.5 -92.5l-143 4q4 130 76.5 189t214.5 59q130 0 202 -52t72 -154q0 -60 -23.5 -101.5t-64 -67.5t-84 -47t-93.5 -53.5t-83 -73.5q-24 -26 -57 -40l1 -2 q36 16 71 16h337v-131h-581z" glyph-name="two" horiz-adv-x="622" unicode="2"/><glyph d="M333 -6q-141 0 -221 58.5t-84 179.5l142 4q1 -47 44 -78.5t106 -31.5q64 0 105 30.5t41 77.5q0 48 -36 67.5t-110 20.5h-56l-2 84h58q133 0 133 94q0 45 -38.5 71.5t-94.5 26.5q-61 0 -99 -34t-40 -82l-142 4q3 111 79.5 165.5t211.5 53.5q249 -2 249 -182 q0 -59 -46.5 -92.5t-109.5 -36.5v-2q50 2 74 -7q55 -16 81 -54.5t26 -115.5q0 -107 -71.5 -164t-199.5 -57z" glyph-name="three" horiz-adv-x="632" unicode="3"/><glyph d="M374 171h-359v78l338 451h166v-406h117l15 -123h-94q-36 0 -65 27l-1 -1q28 -28 28 -64v-133h-145v171zM374 552l-161 -250h161v250z" glyph-name="four" horiz-adv-x="673" unicode="4"/><glyph d="M26 294l38 406h538l4 -116h-430l-4 -132q-3 -35 -24 -68l1 -1q23 36 51 50q81 36 170 36q114 0 191.5 -62t77.5 -177q0 -122 -83.5 -178t-225.5 -56q-298 0 -304 241l141 3q2 -71 46 -106t117 -35q166 0 166 131q0 67 -42.5 101t-102.5 34q-46 0 -86.5 -19.5t-57.5 -51.5 h-181z" glyph-name="five" horiz-adv-x="662" unicode="5"/><glyph d="M338 -4q-147 0 -231.5 79.5t-84.5 237.5q0 173 85.5 282.5t250.5 109.5q136 0 211.5 -68t75.5 -150l-153 -7q-36 100 -128 100q-74 0 -129 -56t-65 -178q-4 -44 -12 -74l2 -1q15 55 25 71q29 44 86.5 67.5t124.5 23.5q103 0 179.5 -55t76.5 -156q0 -114 -90 -170 t-224 -56zM174 222q0 -55 44 -87t121 -32q171 0 171 119q0 52 -41 85.5t-121 34.5q-69 1 -121.5 -33t-52.5 -87z" glyph-name="six" horiz-adv-x="674" unicode="6"/><glyph d="M16 700h611v-86l-355 -617h-165l310 539q18 30 52 51l-1 1q-35 -19 -70 -19h-382v131z" glyph-name="seven" horiz-adv-x="647" unicode="7"/><glyph d="M339 -6q-140 0 -229 53.5t-89 152.5q0 106 110 157q26 13 73 11v2q-64 3 -105.5 43t-41.5 105q0 91 78 139.5t204 47.5t203.5 -49t77.5 -138q0 -84 -76 -131q-25 -16 -72 -18v-2q47 2 73 -11q111 -49 111 -156q0 -99 -89 -152.5t-228 -53.5zM339 319q-173 2 -173 -99 q0 -54 47.5 -82.5t125.5 -28.5q75 0 125 27.5t50 83.5q0 97 -175 99zM194 503q0 -97 145 -97q144 0 144 97q0 102 -144 102q-145 0 -145 -102z" glyph-name="eight" horiz-adv-x="677" unicode="8"/><glyph d="M22 199l156 9q12 -49 47 -71t104 -21q66 2 120 65.5t65 162.5q7 53 13 74h-2q-11 -47 -24 -71q-29 -52 -82 -78.5t-117 -26.5q-108 0 -194 66t-86 171q0 61 25.5 106t72 70.5t103.5 37.5t127 12q158 0 234.5 -74.5t76.5 -242.5q0 -80 -21 -149.5t-61.5 -124.5 t-108.5 -86.5t-155 -31.5q-138 0 -212.5 57t-80.5 146zM357 603q-74 0 -126 -29.5t-52 -95.5q0 -44 28 -73t65.5 -39t84.5 -11q58 -1 107.5 36.5t49.5 86.5q0 45 -44.5 85t-112.5 40z" glyph-name="nine" horiz-adv-x="688" unicode="9"/><glyph d="M36 163h146v-137h-146v137zM182 312h-146v136h146v-136z" glyph-name="colon" horiz-adv-x="218" unicode=":"/><glyph d="M42 165h154v-139q0 -62 -29 -88.5t-103 -26.5h-22v55h22q74 0 74 60h-96v139zM42 448h154v-135h-154v135z" glyph-name="semicolon" horiz-adv-x="228" unicode=";"/><glyph d="M11 225v103l335 165v-140l-161 -77l161 -76v-140z" glyph-name="less" horiz-adv-x="352" unicode="&lt;"/><glyph d="M30 329v131h528v-131h-528zM558 108h-528v131h528v-131z" glyph-name="equal" horiz-adv-x="595" unicode="="/><glyph d="M16 200l160 76l-160 77v140l334 -165v-103l-334 -165v140z" glyph-name="greater" horiz-adv-x="365" unicode=">"/><glyph d="M158 500h-143q0 95 75.5 150.5t198.5 55.5q124 0 195 -51.5t71 -154.5q0 -48 -23.5 -79.5t-56.5 -48t-66 -33.5t-56.5 -49t-23.5 -81v-17h-142v17q0 66 22.5 113t54.5 70.5t64 40.5t54.5 36t22.5 44q0 43 -30.5 67t-85.5 24q-60 0 -95 -28t-36 -76zM175 137h165v-136 h-165v136z" glyph-name="question" horiz-adv-x="597" unicode="?"/><glyph d="M22 320q0 176 135.5 289.5t351.5 113.5q229 0 338.5 -108t109.5 -295q0 -120 -58 -179t-138 -59q-47 0 -88 20t-60 52q-13 20 -4 72h-2q-8 -44 -31 -66q-52 -46 -125 -46q-84 0 -145 50.5t-61 132.5q0 85 61.5 138.5t144.5 53.5q81 0 125 -34q20 -16 35 -57l2 1 q-13 35 -13 65v12h127v-176q0 -38 12 -60.5t28 -22.5q21 0 36.5 37.5t15.5 109.5q0 101 -73.5 166t-211.5 65q-167 0 -268 -73.5t-101 -201.5q0 -150 98.5 -230t273.5 -80q136 0 304 49v-110q-197 -57 -352 -57q-222 0 -344.5 111t-122.5 317zM502 411q-53 0 -88.5 -30 t-35.5 -83q0 -50 32.5 -78t91.5 -28q44 0 71 28t27 88q0 58 -26 80.5t-72 22.5z" glyph-name="at" horiz-adv-x="975" unicode="@"/><glyph d="M176 0h-154l264 700h189l264 -700h-153l-58 144l-297 -1zM378 546l-107 -284q129 0 157 -7q48 -12 94 -92z" glyph-name="A" horiz-adv-x="761" unicode="A"/><glyph d="M25 700h336q247 0 247 -177q0 -26 -23.5 -58.5t-65.5 -51.5q-20 -8 -54 -10l1 -2q34 2 54 -3q68 -19 97.5 -65.5t29.5 -121.5q0 -211 -256 -211h-366v700zM168 296v-165h236q47 0 78 23.5t31 66.5q0 36 -25 55.5t-70 19.5h-250zM168 572v-167h230q94 0 94 84 q0 42 -33.5 62.5t-83.5 20.5h-207z" glyph-name="B" horiz-adv-x="669" unicode="B"/><glyph d="M22 350q0 176 99.5 267.5t259.5 89.5q132 -2 225 -64t123 -182l-139 -33q-17 58 -72 96.5t-138 39.5q-104 0 -159.5 -58t-55.5 -156q0 -99 58 -156.5t157 -57.5q86 1 140.5 39.5t69.5 97.5l139 -34q-30 -120 -123 -182t-225 -64q-160 -2 -259.5 89.5t-99.5 267.5z" glyph-name="C" horiz-adv-x="750" unicode="C"/><glyph d="M30 700h324q100 0 179 -37t128 -117.5t49 -195.5t-49 -195.5t-128 -117.5t-179 -37h-324v700zM88 569q85 0 85 -32v-405h192q35 0 69 12.5t64.5 37t49.5 68.5t19 100q0 105 -62.5 162t-139.5 57h-277z" glyph-name="D" horiz-adv-x="738" unicode="D"/><glyph d="M30 0v700h596v-131h-453v-172h423v-111h-423v-155h453v-131h-596z" glyph-name="E" horiz-adv-x="653" unicode="E"/><glyph d="M30 0v700h574v-131h-406q-24 0 -42 18l-2 -1q19 -19 19 -43v-146h405v-111h-377q-26 0 -47 21l-2 -2q21 -21 21 -47v-258h-143z" glyph-name="F" horiz-adv-x="632" unicode="F"/><glyph d="M22 350q0 176 100 267.5t262 89.5q133 -2 227 -64t125 -182l-132 -37q-26 71 -88.5 111t-131.5 41q-91 0 -155 -59.5t-64 -166.5q0 -106 60 -166t154 -60q59 0 96.5 45t46.5 96h-97v106h249q72 0 72 -69v-302h-140v265h-14q-4 -149 -60.5 -210.5t-167.5 -61.5 q-159 0 -250.5 90t-91.5 267z" glyph-name="G" horiz-adv-x="769" unicode="G"/><glyph d="M30 700h143v-278h367v278h143v-700h-143v279h-367v-279h-143v700z" glyph-name="H" horiz-adv-x="713" unicode="H"/><glyph d="M30 0v700h143v-700h-143z" glyph-name="I" unicode="I"/><glyph d="M27 232l135 36q3 -59 45.5 -101.5t121.5 -42.5q70 0 118 52.5t48 146.5v377h143v-384q0 -168 -84 -245.5t-225 -77.5q-55 0 -105 12.5t-95 39t-72.5 75t-29.5 112.5z" glyph-name="J" horiz-adv-x="668" unicode="J"/><glyph d="M173 0h-143v700h143v-315q0 -35 -15 -76h2q14 39 39 67l283 324h188l-283 -325l298 -375h-188l-257 325l-67 -163v-162z" glyph-name="K" horiz-adv-x="711" unicode="K"/><glyph d="M580 0h-550v700h143v-531q0 -36 -28 -64l2 -1q27 27 64 27h369v-131z" glyph-name="L" horiz-adv-x="604" unicode="L"/><glyph d="M30 700h151l224 -487q6 -14 6 -34h2q0 21 7 34l224 487h151v-699l-143 -1v345q0 64 16 133h-2q-17 -74 -43 -126l-157 -352h-107l-157 352q-26 52 -43 126h-2q16 -69 16 -133v-345h-143v700z" glyph-name="M" horiz-adv-x="825" unicode="M"/><glyph d="M30 0v700h148l351 -451q26 -32 42 -78l2 1q-16 44 -16 87v441h143v-700h-148l-351 447q-25 31 -42 78l-2 -1q16 -44 16 -87v-437h-143z" glyph-name="N" horiz-adv-x="730" unicode="N"/><glyph d="M386 -7q-159 0 -261.5 91.5t-102.5 265.5q0 175 102.5 267t261.5 90t261.5 -93t102.5 -264q0 -117 -50 -199t-130.5 -120t-183.5 -38zM386 576q-88 1 -154.5 -61.5t-66.5 -164.5t66 -164t155 -62q92 0 156 61.5t64 164.5q0 102 -65.5 163.5t-154.5 62.5z" glyph-name="O" horiz-adv-x="772" unicode="O"/><glyph d="M173 0h-143v700h359q121 0 188.5 -59.5t67.5 -170.5q0 -91 -71 -162t-185 -71h-216v-237zM173 582v-233h196q53 0 93 34.5t40 82.5q0 56 -38 86t-95 30h-196z" glyph-name="P" horiz-adv-x="672" unicode="P"/><glyph d="M385 -7q-76 0 -141 22t-115 65t-78.5 112.5t-28.5 157.5q0 175 102.5 267t260.5 90q159 -2 261 -93t102 -264q0 -106 -50.5 -169t-152.5 -102l1 -2q41 15 71 21l155 32v-137h-387zM385 564q-93 1 -156.5 -55.5t-63.5 -158.5t62.5 -158t157.5 -56q104 0 162 59t58 155 q0 102 -64.5 158t-155.5 56z" glyph-name="Q" horiz-adv-x="791" unicode="Q"/><glyph d="M174 0h-144v700h387q123 0 189.5 -47.5t66.5 -144.5q0 -51 -19 -77.5t-53 -45.5q-34 -28 -106 -36l1 -2q30 4 52 4q39 0 60 -13q32 -16 51.5 -51t19.5 -112l1 -175h-143v171q0 67 -83 67l-280 -1v-237zM174 358h203q69 0 119 30t50 81q0 113 -145 113h-227v-224z" glyph-name="R" horiz-adv-x="707" unicode="R"/><glyph d="M29 220l138 7q6 -98 170 -100q195 -3 195 95q0 29 -37 46t-92 22.5t-119.5 16.5t-119.5 27t-92 56t-37 101q0 112 88.5 166.5t225.5 52.5q132 -2 213 -54t86 -156l-135 -7q-4 45 -43.5 65.5t-120.5 20.5q-82 0 -126.5 -22.5t-44.5 -64.5q0 -27 37 -41.5t92 -19t119.5 -15 t119.5 -26.5t92 -57.5t37 -103.5q0 -42 -15 -79.5t-50 -74t-104.5 -58.5t-165.5 -22q-305 0 -311 225z" glyph-name="S" horiz-adv-x="701" unicode="S"/><glyph d="M20 700h653v-131h-221q-34 0 -57 25l-2 -2q25 -23 25 -57v-535h-142v569h-256v131z" glyph-name="T" horiz-adv-x="693" unicode="T"/><glyph d="M30 315v385h143v-386q0 -88 54 -139.5t140 -51.5q88 0 139.5 49.5t51.5 141.5v386h143v-385q0 -80 -27.5 -143.5t-75 -102t-106.5 -58t-125 -19.5q-149 0 -243 80.5t-94 242.5z" glyph-name="U" horiz-adv-x="727" unicode="U"/><glyph d="M275 0l-253 700h151l206 -571q5 -15 5 -33h2q0 21 4 33l206 571h153l-253 -700h-221z" glyph-name="V" horiz-adv-x="771" unicode="V"/><glyph d="M262 0l-240 700h152l170 -511q5 -17 5 -34h2q0 24 2 35l122 510h144l121 -511q4 -14 2 -34h2q2 21 6 33l174 512h152l-240 -700h-180l-106 443v11h-2q0 -7 -1 -11l-107 -443h-178z" glyph-name="W" horiz-adv-x="1098" unicode="W"/><glyph d="M23 -1l263 353l-259 347h183l161 -214q9 -12 9 -31h2q0 18 10 31l165 214h185l-270 -346l276 -354h-184l-172 218q-9 12 -9 30h-2q0 -19 -10 -30l-165 -218h-183z" glyph-name="X" horiz-adv-x="766" unicode="X"/><glyph d="M17 699h175l163 -226q21 -31 21 -69h2q0 38 21 69l162 226h175l-289 -385v-314h-143v314z" glyph-name="Y" horiz-adv-x="749" unicode="Y"/><glyph d="M702 0h-680v89l428 453q26 26 61 41l-1 2q-36 -16 -72 -16h-408v131h663v-89l-421 -452q-23 -25 -61 -42l1 -2q37 16 73 16h417v-131z" glyph-name="Z" horiz-adv-x="724" unicode="Z"/><glyph d="M361 -132h-331v832h331v-131h-150q-37 0 -64 27l-2 -1q28 -28 28 -64v-494q0 -36 -28 -64l2 -1q27 27 64 27h150v-131z" glyph-name="bracketleft" horiz-adv-x="392" unicode="["/><glyph d="M571 -95h-160l-396 795h160z" glyph-name="backslash" horiz-adv-x="603" unicode="\"/><glyph d="M30 569v131h331v-832h-331v131h151q37 0 64 -27l1 1q-27 27 -27 64v494q0 37 27 64l-1 1q-27 -27 -64 -27h-151z" glyph-name="bracketright" horiz-adv-x="391" unicode="]"/><glyph d="M182 500h-157l144 300h290l144 -300h-157l-122 248q-10 19 -10 46h-2q0 -27 -10 -46z" glyph-name="asciicircum" horiz-adv-x="628" unicode="^"/><glyph d="M50 -126v132h424v-132h-424z" glyph-name="underscore" horiz-adv-x="524" unicode="_"/><glyph d="M140 700l58 -142h-117l-103 142h162z" glyph-name="grave" horiz-adv-x="189" unicode="`"/><glyph d="M25 142q0 39 17.5 67.5t46 42.5t64.5 22.5t74 10t74.5 3.5t64.5 3t45 8t17 20q-3 79 -132 79q-130 0 -137 -77l-124 7q4 59 45 100t96.5 58.5t119.5 16.5q54 0 100 -10t85.5 -31.5t62 -61t22.5 -93.5v-143q0 -19 7.5 -25.5t26.5 -6.5h25v-132h-98q-41 0 -70 26t-29 62v39 q-18 -61 -75 -93.5t-129 -32.5q-81 0 -140 38t-59 103zM168 146q0 -30 28 -45t71 -15q60 0 110.5 25.5t50.5 65.5v55q-20 -14 -67 -18t-88 -4t-73 -15t-32 -49z" glyph-name="a" horiz-adv-x="652" unicode="a"/><glyph d="M173 0h-143v700h143v-265q0 -33 -13 -74h2q16 48 33 66q34 36 86.5 58t102.5 21q258 -2 258 -256q0 -128 -66 -192t-192 -64q-50 0 -103 20.5t-86 54.5q-15 16 -34 66l-1 -1q13 -39 13 -73v-61zM173 250q0 -62 49.5 -101.5t123.5 -39.5q82 0 118 36.5t36 104.5 q0 147 -154 148q-73 1 -123 -42.5t-50 -105.5z" glyph-name="b" horiz-adv-x="668" unicode="b"/><glyph d="M325 506q104 -1 186.5 -53t94.5 -147l-132 -8q-14 44 -52 70t-97 27q-73 0 -116.5 -39t-43.5 -106q0 -66 44 -105.5t116 -38.5q116 3 148 93l133 -8q-8 -63 -52.5 -109t-103.5 -66.5t-125 -21.5q-130 -1 -216.5 65.5t-86.5 190.5t86.5 190.5t216.5 65.5z" glyph-name="c" horiz-adv-x="627" unicode="c"/><glyph d="M27 250q0 254 257 256q50 1 103 -21t87 -58q17 -18 33 -66h2q-13 41 -13 74v265h143v-700h-143v61q0 34 13 73l-1 1q-19 -50 -34 -66q-34 -34 -86.5 -54.5t-103.5 -20.5q-125 0 -191 64t-66 192zM322 398q-154 -1 -154 -148q0 -141 154 -141q74 0 124 39.5t50 101.5 t-50.5 105.5t-123.5 42.5z" glyph-name="d" horiz-adv-x="669" unicode="d"/><glyph d="M326 -6q-131 -1 -217.5 65.5t-86.5 190.5t86.5 190.5t217.5 65.5q129 -1 210 -66t81 -190q0 -7 -0.5 -14.5t-0.5 -13.5h-447q8 -56 53 -88.5t108 -31.5q62 0 98 17t52 64l132 -7q-25 -101 -98 -141t-188 -41zM330 405q-66 0 -116.5 -45.5t-44.5 -137.5q11 39 31.5 53 t55.5 14h232q-6 58 -49.5 86.5t-108.5 29.5z" glyph-name="e" horiz-adv-x="652" unicode="e"/><glyph d="M117 371h-107v132h114q32 0 68 -9v2q-4 1 -16 3.5t-18.5 4.5t-15 5.5t-14.5 7.5q-41 27 -41 65q0 27 12.5 47t43.5 37t90 25.5t146 8.5v-114q-154 0 -154 -41q0 -19 20.5 -30.5t49.5 -11.5h83v-132h-118v-371h-143v371z" glyph-name="f" horiz-adv-x="394" unicode="f"/><glyph d="M113 84q-76 16 -76 70q0 51 80 74q0 1 -5 6.5t-12 15t-14 21t-12 27.5t-5 32q0 56 40.5 96t96 56.5t118.5 16.5q42 0 111 -16q-28 53 25.5 76.5t164.5 20.5v-94h-68q-61 0 -59 -18q0 -6 7 -12l5 -4q5 -5 11 -10t13.5 -13.5t14 -18.5t12.5 -21.5t9.5 -26t3.5 -29.5 q0 -55 -40 -94.5t-95.5 -56.5t-117.5 -17q-40 0 -76 9q-4 1 -9 2.5t-8 2.5t-4 1q-13 1 -24.5 -6t-11.5 -15q0 -18 47 -25t113.5 -11.5t133 -16.5t113.5 -50t47 -102q0 -52 -48 -88t-116.5 -51t-148.5 -15q-77 0 -149 14.5t-126 51t-54 88.5q0 53 28.5 81t84.5 49zM144 -37 q0 -35 58 -53.5t129 -18.5q64 0 115.5 18t51.5 54q0 61 -179 75q-18 3 -42 3q-44 0 -88.5 -22t-44.5 -56zM212 331q0 -38 32.5 -55t76.5 -17q45 0 77.5 17t32.5 56q0 38 -32.5 55t-76.5 17q-45 0 -77.5 -17t-32.5 -56z" glyph-name="g" horiz-adv-x="654" unicode="g"/><glyph d="M30 0v700h143v-287q0 -30 -10 -74l2 -1q10 45 26 70q66 100 206 100q97 0 158.5 -70.5t61.5 -194.5v-243h-142v243q0 62 -35 101t-97 39q-26 0 -53.5 -10t-54.5 -31.5t-44.5 -61.5t-17.5 -93v-187h-143z" glyph-name="h" horiz-adv-x="645" unicode="h"/><glyph d="M30 583h144v117h-144v-117zM32 0v500h140v-500h-140z" glyph-name="i" horiz-adv-x="204" unicode="i"/><glyph d="M-61 -183v105h22q51 0 74.5 23.5t23.5 80.5v474h143v-474q0 -112 -55 -160.5t-186 -48.5h-22zM59 700h143v-117h-143v117z" glyph-name="j" horiz-adv-x="233" unicode="j"/><glyph d="M174 0h-144v700h144l-3 -355q0 -35 -18 -71l2 -1q19 38 45 58l205 169h206l-242 -196l257 -303h-58v-1l-1 1h-122l-184 219l-87 -71v-149z" glyph-name="k" horiz-adv-x="648" unicode="k"/><glyph d="M35 0v728h143v-728h-143z" glyph-name="l" horiz-adv-x="213" unicode="l"/><glyph d="M30 0v500h143v-108q0 -29 -8 -75h2q9 50 19 73q26 59 68.5 88.5t90.5 29.5q126 0 164 -122q9 -28 5 -75h2q7 80 55.5 138.5t125.5 58.5q175 0 175 -232v-276h-143v234q0 64 -25.5 97t-69.5 33q-43 0 -77 -41.5t-34 -129.5v-193h-144v234q0 130 -90 130q-42 0 -79 -42 t-37 -129v-193h-143z" glyph-name="m" horiz-adv-x="919" unicode="m"/><glyph d="M30 0v500h143v-119q0 -27 -8 -67l2 -1q10 48 18 65q28 64 81.5 97t108.5 33q100 0 148 -73.5t48 -206.5v-228h-142v229q0 65 -29.5 100.5t-78.5 35.5q-24 0 -47.5 -8t-47.5 -26.5t-38.5 -55.5t-14.5 -88v-187h-143z" glyph-name="n" horiz-adv-x="602" unicode="n"/><glyph d="M329 -6q-132 0 -219.5 66t-87.5 190t88 190.5t219 65.5t218.5 -67t87.5 -189q0 -124 -87.5 -190t-218.5 -66zM329 392q-67 1 -115.5 -38.5t-48.5 -103.5q0 -67 46 -104t118 -37q69 0 116 38t47 103t-47.5 103.5t-115.5 38.5z" glyph-name="o" horiz-adv-x="657" unicode="o"/><glyph d="M31 -200l-1 700h143v-63q0 -39 -13 -73l2 -1q18 50 34 67q33 35 85.5 55.5t103.5 20.5q125 0 191 -64t66 -192q0 -254 -257 -256q-50 0 -103 21t-86 56q-16 17 -34 67l-2 -1q13 -36 13 -74v-263h-142zM174 250q0 -63 50 -106t123 -42q153 0 153 148q0 69 -35 105t-118 37 q-74 0 -123.5 -40t-49.5 -102z" glyph-name="p" horiz-adv-x="669" unicode="p"/><glyph d="M22 250q0 128 66 192t192 64q50 0 103 -21t86 -55q19 -20 34 -67l2 1q-13 39 -13 73v63h142v-700h-142v263q0 33 13 74l-2 1q-15 -47 -34 -67q-33 -35 -86 -56t-103 -21q-258 2 -258 256zM318 392q-154 -1 -154 -142q0 -148 154 -149q73 0 123.5 43.5t50.5 105.5t-50 102 t-124 40z" glyph-name="q" horiz-adv-x="660" unicode="q"/><glyph d="M30 336q0 85 39 124.5t125 39.5h233v-131l-187 -1q-42 0 -54.5 -14.5t-12.5 -65.5v-288h-143v336z" glyph-name="r" horiz-adv-x="452" unicode="r"/><glyph d="M23 154l141 17q7 -77 140 -77q132 0 132 69q0 20 -41.5 29t-101 14t-119 15t-101 42t-41.5 86q0 50 31 84.5t81 49t87.5 19.5t73.5 5q42 0 84.5 -8.5t82 -25.5t65.5 -47.5t28 -69.5l-127 -14q-8 64 -137 64q-64 0 -95 -14t-31 -49q0 -20 41.5 -29t101 -13.5t119 -14.5 t101 -41.5t41.5 -84.5t-32 -89.5t-83 -51.5t-89.5 -20t-76.5 -5q-25 0 -54 3t-69 13.5t-71.5 27t-55 47t-25.5 69.5z" glyph-name="s" horiz-adv-x="600" unicode="s"/><glyph d="M10 503h30q39 0 71.5 55t32.5 116h143q-1 -51 -24.5 -93t-66.5 -66q-15 -9 -66 -17v-2q49 7 68 7h205v-132h-150v-186q0 -31 14 -42.5t41 -11.5h119v-131h-140q-100 0 -138.5 48.5t-38.5 153.5v169h-100v132z" glyph-name="t" horiz-adv-x="432" unicode="t"/><glyph d="M236 -3q-206 0 -206 279v229h143v-229q0 -69 31.5 -102.5t86.5 -33.5q22 0 43.5 8t43.5 26t35 55.5t13 88.5v187h143v-500h-143v115q0 27 8 67h-2q-10 -48 -18 -65q-26 -62 -74.5 -93.5t-103.5 -31.5z" glyph-name="u" horiz-adv-x="624" unicode="u"/><glyph d="M207 0l-187 500h154l125 -343q12 -32 12 -74h2q0 41 11 74l120 343h153l-187 -500h-203z" glyph-name="v" horiz-adv-x="617" unicode="v"/><glyph d="M177 0l-171 500h152l121 -357q8 -26 10 -64l2 1q-2 35 7 63l99 357h232l103 -359q9 -27 7 -63h2q2 39 11 63l120 359h153l-172 -500h-228l-101 351q-9 33 -9 75h-2q0 -42 -9 -75l-97 -351h-230z" glyph-name="w" horiz-adv-x="1029" unicode="w"/><glyph d="M213 251l-195 249h181l100 -127q10 -13 10 -34h2q0 20 11 34l99 127h182l-195 -249l195 -251h-181l-100 130q-11 14 -11 33h-2q0 -19 -11 -33l-100 -130h-180z" glyph-name="x" horiz-adv-x="620" unicode="x"/><glyph d="M225 7l-214 493h157l121 -289q14 -33 14 -73h2q0 40 14 73l121 289h155l-243 -571q-29 -75 -81 -105t-108 -30h-150v105h75q32 0 69.5 11.5t47.5 38.5z" glyph-name="y" horiz-adv-x="619" unicode="y"/><glyph d="M586 0h-561v117l272 228q29 23 66 35v2q-41 -13 -74 -13h-254v131h547v-117l-270 -228q-30 -24 -66 -35l1 -2q41 13 74 13h265v-131z" glyph-name="z" horiz-adv-x="614" unicode="z"/><glyph d="M98 179q0 18 -7 28.5t-22.5 14t-20 4t-19.5 0.5v132q46 0 60 17q9 12 9 30v120q0 49 11.5 82.5t28 51.5t50 27.5t61.5 11.5t77 2v-131q-85 0 -85 -77v-120q0 -45 -22 -63t-69 -18v-2q46 0 68.5 -18.5t22.5 -63.5v-121q0 -38 19.5 -57t65.5 -19v-131q-44 0 -69 1.5t-55 7 t-46 17t-31 31t-21 50.5t-6 74v119z" glyph-name="braceleft" horiz-adv-x="379" unicode="{"/><glyph d="M30 -200v900h143v-900h-143z" glyph-name="bar" unicode="|"/><glyph d="M257 60q0 -43 -6 -74t-21 -50.5t-31 -31t-46 -17t-55 -7t-69 -1.5v131q46 0 65.5 19t19.5 57v121q0 45 22.5 63.5t68.5 18.5v2q-53 0 -70 19q-21 21 -21 62v120q0 77 -85 77v131q49 0 77 -2t61.5 -11.5t50 -27.5t28 -51.5t11.5 -82.5v-120q0 -18 7 -28.5t22.5 -14t20 -4 t19.5 -0.5v-132q-46 0 -60 -17q-9 -12 -9 -30v-119z" glyph-name="braceright" horiz-adv-x="359" unicode="}"/><glyph d="M202 411q60 3 124 -30t93 -31q27 1 46 22t17 48l170 6q7 -88 -49 -148.5t-152 -65.5q-53 -2 -116 31.5t-90 28.5q-31 -3 -47.5 -24t-14.5 -52l-156 -6q-11 77 41.5 147t133.5 74z" glyph-name="asciitilde" horiz-adv-x="677" unicode="~"/><glyph d="M203 500h-164v-134h164v134zM136 300l57 -206v-302h-143v302l57 206h29z" glyph-name="exclamdown" horiz-adv-x="242" unicode="¡"/><glyph d="M242 96q-84 4 -152 72t-68 181t68 182t150 71v98h131v-99q67 -1 123 -39.5t77 -108.5l-117 -49q-25 78 -147 78q-69 0 -110.5 -32t-41.5 -101q0 -65 44 -98t108 -32q54 0 95 20.5t54 55.5l115 -50q-22 -67 -77 -105.5t-120 -42.5v-97h-132v96z" glyph-name="cent" horiz-adv-x="593" unicode="¢"/><glyph d="M15 119q97 0 141.5 34t44.5 79q2 41 -15 72h-130l32 90h65q-44 54 -44 124q0 90 80.5 138t212.5 49q128 1 206.5 -51t82.5 -166l-130 -6q-4 38 -29 62t-56.5 32.5t-69.5 8.5q-151 0 -151 -89q0 -50 45 -102h192l-18 -90h-129q18 -32 18 -71q0 -84 -100 -127l1 -2 q35 15 73 15h374l14 -119h-710v119z" glyph-name="sterling" horiz-adv-x="746" unicode="£"/><glyph d="M97 102l-80 69l73 62q-27 31 -27 92q0 58 29 92l-73 62l75 63l72 -62q39 30 111 30q68 0 105 -27l71 62l79 -69l-72 -62q30 -32 30 -89q0 -26 -9 -53.5t-24 -41.5l73 -62l-75 -63l-71 62q-14 -12 -46.5 -22.5t-60.5 -10.5q-64 0 -108 30zM277 406q-36 0 -62 -24t-26 -57 t26 -56.5t62 -23.5q35 0 61 23.5t26 56.5t-26 57t-61 24z" glyph-name="currency" horiz-adv-x="550" unicode="¤"/><glyph d="M58 699h175l137 -202q22 -32 20 -69h2q2 39 22 69l143 202h180l-276 -354v-35h135v-94h-135v-41h135v-88h-135v-87h-143v87h-136v88h136v41h-136v94h136v35z" glyph-name="yen" horiz-adv-x="775" unicode="¥"/><glyph d="M30 319v379h143v-379h-143zM30 179h143v-379h-143v379z" glyph-name="brokenbar" unicode="¦"/><glyph d="M27 524q0 36 17.5 65t48.5 46t64 29t73 17t67 7t54 2q118 0 209 -45.5t108 -135.5l-138 -7q-10 50 -60 73.5t-119 23.5q-70 0 -102.5 -16.5t-32.5 -53.5q0 -23 45.5 -38t110.5 -25.5t130 -25t110.5 -46.5t45.5 -80t-30.5 -68.5t-88.5 -31.5q-24 -7 -74 -9v-2q46 2 75 -6 q128 -32 128 -126q0 -37 -17.5 -65.5t-48 -45.5t-64 -29t-73.5 -17t-67 -7t-54 -2q-129 0 -212.5 44.5t-100.5 137.5l144 5q21 -95 169 -95q166 0 166 74q0 25 -48.5 39.5t-118 23t-139.5 21.5t-118.5 45t-48.5 84q0 33 23 57t59 36t70 17t66 5v2q-49 0 -75 7 q-64 14 -108.5 43t-44.5 73zM182 311q0 -25 25 -44.5t62 -29t70.5 -14t59.5 -4.5q57 0 88.5 20.5t31.5 53.5q0 24 -25.5 43t-63.5 29t-72 15t-60 5q-53 0 -84.5 -20t-31.5 -54z" glyph-name="section" horiz-adv-x="695" unicode="§"/><glyph d="M19 700h143v-192h-143v192zM364 508h-143v192h143v-192z" glyph-name="dieresis" horiz-adv-x="383" unicode="¨"/><glyph d="M22 325q0 155 130.5 265t314.5 110t314 -110t130 -265t-130 -265t-314 -110t-314.5 110t-130.5 265zM124 325q0 -121 100.5 -206.5t242.5 -85.5q141 0 241.5 85.5t100.5 206.5t-100.5 206.5t-241.5 85.5q-142 0 -242.5 -85.5t-100.5 -206.5zM219 324q0 104 72.5 159.5 t181.5 54.5q86 -1 155.5 -44.5t79.5 -122.5l-114 -9q-24 77 -121 79q-130 0 -130 -117q0 -54 35 -85t95 -30q43 1 75 20.5t45 53.5l115 -8q-10 -78 -79 -121t-156 -44q-109 -1 -181 55t-73 159z" glyph-name="copyright" horiz-adv-x="925" unicode="©"/><glyph d="M24 494q0 41 28 64t67.5 28t79.5 5.5t67.5 4t27.5 17.5q-3 53 -87 53q-86 0 -91 -52l-86 5q3 58 55.5 88t121.5 30q79 -1 131 -31.5t52 -100.5v-96q0 -13 5 -17.5t18 -4.5h17v-89h-69q-28 0 -47.5 18t-19.5 42v17q-16 -37 -54.5 -57t-83.5 -20q-54 0 -93 26t-39 70z M124 497q0 -20 18.5 -30.5t46.5 -10.5q39 0 72 17.5t33 44.5v37q-13 -10 -43.5 -12.5t-57.5 -2.5t-48 -10t-21 -33z" glyph-name="ordfeminine" horiz-adv-x="453" unicode="ª"/><glyph d="M598 60l-291 165v103l291 165v-145l-117 -72l117 -73v-143zM15 328l290 165v-145l-117 -72l117 -73v-143l-290 165v103z" glyph-name="guillemotleft" horiz-adv-x="613" unicode="«"/><glyph d="M25 420h568v-337h-143v206h-425v131z" glyph-name="logicalnot" horiz-adv-x="620" unicode="¬"/><glyph d="M17 585q0 68 53 116t127 48t127 -48t53 -116t-53 -116t-127 -48t-127 48t-53 116zM72 585q0 -47 36.5 -81t88.5 -34t88.5 34t36.5 81t-36.5 81t-88.5 34t-88.5 -34t-36.5 -81zM166 511h-34v151h81q55 0 55 -43q0 -12 -3 -17.5t-11 -10.5l-9 -5l6 -1q19 -5 19 -33v-41h-34 v36q0 13 -16 13h-54v-49zM166 589h39q33 0 33 22q0 24 -28 24h-44v-46z" glyph-name="registered" horiz-adv-x="394" unicode="®"/><glyph d="M20 587v101h377v-101h-377z" glyph-name="macron" horiz-adv-x="417" unicode="¯"/><glyph d="M22 589q0 65 57 110.5t137 45.5t136.5 -46t56.5 -110t-56.5 -110t-136.5 -46t-137 45.5t-57 110.5zM127 589q0 -31 26 -53.5t63 -22.5t63 22.5t26 53.5t-26 53.5t-63 22.5t-63 -22.5t-26 -53.5z" glyph-name="degree" horiz-adv-x="431" unicode="°"/><glyph d="M361 528l104 -70l87 -109l-105 -23l-86 -80l-119 -71l-23 80l-105 71l-90 109l105 23l90 76l120 69zM223 -27l-199 108l329 23l199 -109z" glyph-name="plusminus" horiz-adv-x="576" unicode="±"/><glyph d="M335 352h-313v12q0 46 18 82.5t44.5 57t57.5 38t57.5 28.5t44.5 26.5t18 33.5q0 67 -82 67q-37 0 -60.5 -19.5t-24.5 -55.5l-66 4q6 131 155 131q70 0 109 -30t39 -88q0 -41 -23.5 -68.5t-54 -40.5t-66.5 -38t-55 -57q-19 -21 -45 -32l1 -1q27 12 56 12h190v-62z" glyph-name="uni00B2" horiz-adv-x="343" unicode="²"/><glyph d="M28 521l70 2q0 -22 21 -37.5t52 -15.5t51 14.5t20 37.5q0 43 -71 43h-28l-1 41h29q65 0 65 46q0 22 -19 35t-46 13q-30 0 -48.5 -16.5t-19.5 -40.5l-69 2q1 55 38 81.5t104 25.5q121 0 121 -89q0 -29 -22.5 -44.5t-53.5 -18.5v-1q23 2 36 -3q52 -15 52 -83 q0 -53 -35 -80.5t-97 -27.5q-145 0 -149 116z" glyph-name="uni00B3" horiz-adv-x="337" unicode="³"/><glyph d="M114 557h-118l58 142h163z" glyph-name="acute" horiz-adv-x="190" unicode="´"/><glyph d="M325 287q-295 0 -295 210q0 104 76 156.5t219 52.5h142v-794h-142v375zM695 -88h-143v794h143v-794z" glyph-name="paragraph" horiz-adv-x="725" unicode="¶"/><glyph d="M166 324h-146v136h146v-136z" glyph-name="periodcentered" horiz-adv-x="186" unicode="·"/><glyph d="M-19 -215l49 55q28 -42 82 -42q30 0 50.5 14.5t21.5 38.5q0 11 -7 20t-22 13.5t-26 7.5t-33 4t-28 1h-25l51 117h115l-35 -68q44 0 70 -24.5t26 -74.5q0 -61 -42.5 -93t-103.5 -32q-44 0 -84 17t-59 46z" glyph-name="cedilla" horiz-adv-x="282" unicode="¸"/><glyph d="M21 608v58q84 0 84 66h62v-382h-62v271q0 24 8 58h-2q0 -2 -2.5 -13.5t-4 -16.5t-5 -12.5t-8.5 -11.5q-19 -17 -70 -17z" glyph-name="uni00B9" horiz-adv-x="186" unicode="¹"/><glyph d="M187 376q-88 0 -126.5 52t-38.5 129t38.5 129t126.5 51q88 0 127 -51.5t39 -128.5t-39 -129t-127 -52zM187 662q-42 0 -67 -28.5t-25 -76.5t24.5 -76.5t67.5 -28.5t68 28.5t25 76.5t-25.5 76t-67.5 29z" glyph-name="ordmasculine" horiz-adv-x="379" unicode="º"/><glyph d="M15 493l290 -165v-103l-290 -165v143l117 73l-117 72v145zM307 60v143l117 73l-117 72v145l291 -165v-103z" glyph-name="guillemotright" horiz-adv-x="625" unicode="»"/><glyph d="M200 0l349 700h141l-349 -700h-141zM535 102v46l200 267h98v-240h70l9 -73h-56q-24 0 -38 16l-1 -1q16 -18 16 -38v-78h-85v101h-213zM30 539v84q98 0 98 77h90v-444h-90v315q0 25 5 48h-1q-8 -38 -13 -45q-20 -35 -89 -35zM748 327l-96 -148h96v148z" glyph-name="onequarter" horiz-adv-x="943" unicode="¼"/><glyph d="M259 0h-141l349 700h141zM477 8q0 56 25.5 97.5t62.5 63.5t73.5 38.5t62 33t25.5 35.5q0 60 -78 60q-37 0 -58 -19.5t-23 -54.5l-83 2q2 76 44.5 111t125.5 35q76 0 118 -30.5t42 -90.5q0 -43 -22.5 -71.5t-51.5 -41.5t-67.5 -36.5t-61.5 -51.5q-12 -13 -33 -24v-1 q20 10 42 10h197v-77h-340v12zM110 586q-17 -31 -80 -31v75q88 0 88 70h82v-401h-82v285q0 10 5 43h-1q-8 -36 -12 -41z" glyph-name="onehalf" horiz-adv-x="847" unicode="½"/><glyph d="M381 0h-141l349 700h141zM200 286q-83 0 -130 34.5t-49 105.5l84 3q0 -28 25 -46.5t63 -18.5q37 0 61.5 18t24.5 46q0 51 -86 51h-33l-2 50h35q78 0 78 55q0 27 -22.5 42.5t-55.5 15.5q-36 0 -58 -20.5t-24 -48.5l-83 3q1 66 46 98t125 31q146 -2 146 -107 q0 -37 -26.5 -55t-65.5 -21v-1q55 0 81 -24t26 -81q0 -63 -42 -96.5t-118 -33.5zM719 90h-193v42l182 242h88v-218h63l8 -66h-50q-20 0 -35 15v-1q14 -16 14 -35v-71h-77v92zM632 160h87v134z" glyph-name="threequarters" horiz-adv-x="888" unicode="¾"/><glyph d="M281 -205q-124 0 -195 52t-71 154q0 48 23.5 79.5t56.5 48t66 33.5t56.5 49t23.5 81v17h142v-17q0 -56 -16 -98.5t-40.5 -65t-52.5 -41.5t-52.5 -30.5t-40.5 -28.5t-16 -39q0 -43 30.5 -67.5t85.5 -24.5q59 0 94.5 28t36.5 76h143q0 -95 -76 -150.5t-198 -55.5zM230 364 v137h165v-137h-165z" glyph-name="questiondown" horiz-adv-x="570" unicode="¿"/><glyph d="M195 0h-155l264 700h190l264 -700h-153l-59 144l-296 -1zM397 546l-107 -284q129 0 157 -7q49 -13 93 -92zM254 900h167l58 -142h-122z" glyph-name="Agrave" horiz-adv-x="780" unicode="À"/><glyph d="M191 0h-155l264 700h190l264 -700h-153l-59 144l-296 -1zM393 546l-107 -284q129 0 157 -7q49 -13 93 -92zM314 758l58 142h161l-102 -142h-117z" glyph-name="Aacute" horiz-adv-x="772" unicode="Á"/><glyph d="M191 0h-155l264 700h190l264 -700h-153l-59 144l-296 -1zM168 779l127 160h190l127 -160h-150l-72 97l-72 -97h-150zM393 546l-107 -284q129 0 157 -7q49 -13 93 -92z" glyph-name="Acircumflex" horiz-adv-x="772" unicode="Â"/><glyph d="M191 0h-155l264 700h190l264 -700h-153l-59 144l-296 -1zM159 765q19 143 162 143q35 0 62 -14t47 -28.5t36 -15.5q24 -1 36 15.5t18 42.5l107 -10q-4 -67 -42.5 -109t-111.5 -41q-46 1 -86 28.5t-60 28.5q-31 1 -52 -15t-26 -40zM286 262q129 0 157 -7q49 -13 93 -92 l-143 383z" glyph-name="Atilde" horiz-adv-x="772" unicode="Ã"/><glyph d="M191 0h-155l264 700h190l264 -700h-153l-59 144l-296 -1zM286 262q129 0 157 -7q49 -13 93 -92l-143 383zM557 783h-143v117h143v-117zM216 900h143v-117h-143v117z" glyph-name="Adieresis" horiz-adv-x="772" unicode="Ä"/><glyph d="M191 0h-155l264 700h190l264 -700h-153l-59 144l-296 -1zM250 849q0 44 42 74.5t102 30.5q59 0 101 -30.5t42 -74.5q0 -45 -41.5 -75.5t-101.5 -30.5q-61 0 -102.5 30.5t-41.5 75.5zM393 546l-107 -284q129 0 157 -7q49 -13 93 -92zM394 895q-24 0 -41 -13.5t-17 -32.5 t17 -33t41 -14q23 0 40 14t17 33t-17 32.5t-40 13.5z" glyph-name="Aring" horiz-adv-x="772" unicode="Å"/><glyph d="M182 0h-154l264 700h688v-131h-384v-159h329v-111h-329v-168h384v-131h-527v159h-212zM425 647l-133 -350h161v350h-28z" glyph-name="AE" horiz-adv-x="1011" unicode="Æ"/><glyph d="M381 707q132 -2 225 -64t123 -182l-139 -33q-17 58 -72 96.5t-138 39.5q-104 0 -159.5 -58t-55.5 -156q0 -99 58 -156.5t157 -57.5q86 1 140.5 39.5t69.5 97.5l139 -34q-27 -107 -105 -168.5t-190 -74.5l-26 -50q43 0 69 -24.5t26 -74.5q0 -62 -42 -93.5t-103 -31.5 q-45 0 -85 17t-59 46l48 56q12 -20 37 -31.5t52 -11.5q28 0 46.5 13.5t19.5 39.5q0 16 -12 26t-35.5 13.5t-38.5 4.5t-39 1h-7l36 100q-136 15 -217.5 105.5t-81.5 248.5q0 176 99.5 267.5t259.5 89.5z" glyph-name="Ccedilla" horiz-adv-x="751" unicode="Ç"/><glyph d="M30 0v700h596v-131h-453v-172h423v-111h-423v-155h453v-131h-596zM292 758l-103 142h167l58 -142h-122z" glyph-name="Egrave" horiz-adv-x="653" unicode="È"/><glyph d="M30 0v700h596v-131h-453v-172h423v-111h-423v-155h453v-131h-596zM246 758l58 142h162l-103 -142h-117z" glyph-name="Eacute" horiz-adv-x="653" unicode="É"/><glyph d="M30 0v700h596v-131h-453v-172h423v-111h-423v-155h453v-131h-596zM118 769l127 161h189l127 -161h-149l-72 97l-73 -97h-149z" glyph-name="Ecircumflex" horiz-adv-x="653" unicode="Ê"/><glyph d="M30 0v700h596v-131h-453v-172h423v-111h-423v-155h453v-131h-596zM509 783h-143v117h143v-117zM169 900h143v-117h-143v117z" glyph-name="Edieresis" horiz-adv-x="653" unicode="Ë"/><glyph d="M30 0v700h143v-700h-143zM122 900l58 -142h-121l-103 142h166z" glyph-name="Igrave" unicode="Ì"/><glyph d="M30 0v700h143v-700h-143zM155 758h-117l58 142h161z" glyph-name="Iacute" unicode="Í"/><glyph d="M30 700h143v-700h-143v700zM36 766h-150l127 161h190l127 -161h-150l-72 97z" glyph-name="Icircumflex" unicode="Î"/><glyph d="M30 700h143v-700h-143v700zM140 783v117h143v-117h-143zM85 783h-143v117h143v-117z" glyph-name="Idieresis" unicode="Ï"/><glyph d="M0 418h86v282h324q100 0 179 -37t128 -117.5t49 -195.5t-49 -195.5t-128 -117.5t-179 -37h-324v275h-86v143zM230 418h194v-143h-194v-143h192q47 0 91 20.5t77 72t33 125.5q0 105 -62.5 162t-138.5 57h-278q85 0 86 -32v-119z" glyph-name="Eth" horiz-adv-x="784" unicode="Ð"/><glyph d="M30 700h148l351 -451q26 -32 42 -78l2 1q-16 44 -16 87v441h143v-700h-148l-351 447q-25 31 -42 78l-2 -1q16 -44 16 -87v-437h-143v700zM131 762q19 143 163 143q34 0 61 -14t47 -28.5t36 -15.5q24 -1 36.5 16t17.5 42l107 -10q-4 -67 -42 -109t-112 -41 q-36 1 -61.5 14.5t-45 27.5t-39.5 15q-31 2 -51.5 -13.5t-25.5 -40.5z" glyph-name="Ntilde" horiz-adv-x="730" unicode="Ñ"/><glyph d="M386 -7q-159 0 -261.5 91.5t-102.5 265.5q0 175 102.5 267t261.5 90t261.5 -93t102.5 -264q0 -117 -50 -199t-130.5 -120t-183.5 -38zM386 576q-88 1 -154.5 -61.5t-66.5 -164.5t66 -164t155 -62q92 0 156 61.5t64 164.5q0 102 -65.5 163.5t-154.5 62.5zM221 900h167 l58 -142h-122z" glyph-name="Ograve" horiz-adv-x="772" unicode="Ò"/><glyph d="M386 -7q-159 0 -261.5 91.5t-102.5 265.5q0 175 102.5 267t261.5 90t261.5 -93t102.5 -264q0 -117 -50 -199t-130.5 -120t-183.5 -38zM386 576q-88 1 -154.5 -61.5t-66.5 -164.5t66 -164t155 -62q92 0 156 61.5t64 164.5q0 102 -65.5 163.5t-154.5 62.5zM284 758l58 142 h161l-102 -142h-117z" glyph-name="Oacute" horiz-adv-x="771" unicode="Ó"/><glyph d="M386 -7q-159 0 -261.5 91.5t-102.5 265.5q0 175 102.5 267t261.5 90t261.5 -93t102.5 -264q0 -117 -50 -199t-130.5 -120t-183.5 -38zM386 576q-88 1 -154.5 -61.5t-66.5 -164.5t66 -164t155 -62q92 0 156 61.5t64 164.5q0 102 -65.5 163.5t-154.5 62.5zM314 781h-150 l127 161h190l127 -161h-150l-72 97z" glyph-name="Ocircumflex" horiz-adv-x="771" unicode="Ô"/><glyph d="M386 -7q-159 0 -261.5 91.5t-102.5 265.5q0 175 102.5 267t261.5 90t261.5 -93t102.5 -264q0 -117 -50 -199t-130.5 -120t-183.5 -38zM386 576q-88 1 -154.5 -61.5t-66.5 -164.5t66 -164t155 -62q92 0 156 61.5t64 164.5q0 102 -65.5 163.5t-154.5 62.5zM144 765 q19 143 163 143q34 0 61 -14t47 -28.5t36 -15.5q24 -1 36.5 16t17.5 42l107 -10q-4 -67 -42 -109t-112 -41q-46 1 -86 28.5t-60 28.5q-31 1 -51.5 -14.5t-25.5 -40.5z" glyph-name="Otilde" horiz-adv-x="772" unicode="Õ"/><glyph d="M386 -7q-159 0 -261.5 91.5t-102.5 265.5q0 175 102.5 267t261.5 90t261.5 -93t102.5 -264q0 -117 -50 -199t-130.5 -120t-183.5 -38zM386 576q-88 1 -154.5 -61.5t-66.5 -164.5t66 -164t155 -62q92 0 156 61.5t64 164.5q0 102 -65.5 163.5t-154.5 62.5zM561 783h-143 v117h143v-117zM221 783v117h143v-117h-143z" glyph-name="Odieresis" horiz-adv-x="772" unicode="Ö"/><glyph d="M9 352h189v164h142v-164h196v-132h-196v-167h-142v167h-189v132z" glyph-name="multiply" horiz-adv-x="545" unicode="×"/><glyph d="M158 57q-136 95 -136 293q0 175 102.5 267t261.5 90q48 0 91 -9l23 44h159l-49 -98q140 -94 140 -294q0 -117 -50 -199t-130.5 -120t-183.5 -38q-50 0 -95 9l-28 -55h-159zM353 127q17 -3 33 -3q92 0 156 61.5t64 164.5q0 98 -62 160zM225 192l191 382q-20 2 -30 2 q-88 1 -154.5 -61.5t-66.5 -164.5q0 -95 60 -158z" glyph-name="Oslash" horiz-adv-x="772" unicode="Ø"/><glyph d="M30 315v385h143v-386q0 -88 54 -139.5t140 -51.5q88 0 139.5 49.5t51.5 141.5v386h143v-385q0 -80 -27.5 -143.5t-75 -102t-106.5 -58t-125 -19.5q-149 0 -243 80.5t-94 242.5zM313 758l-103 142h167l58 -142h-122z" glyph-name="Ugrave" horiz-adv-x="731" unicode="Ù"/><glyph d="M30 700h143v-386q0 -88 54 -139.5t140 -51.5q88 0 139.5 49.5t51.5 141.5v386h143v-385q0 -80 -27.5 -143.5t-75 -102t-106.5 -58t-125 -19.5q-149 0 -243 80.5t-94 242.5v385zM290 758l58 142h162l-103 -142h-117z" glyph-name="Uacute" horiz-adv-x="731" unicode="Ú"/><glyph d="M30 315v385h143v-386q0 -88 54 -139.5t140 -51.5q88 0 139.5 49.5t51.5 141.5v386h143v-385q0 -80 -27.5 -143.5t-75 -102t-106.5 -58t-125 -19.5q-149 0 -243 80.5t-94 242.5zM145 778l127 160h190l127 -160h-150l-72 97l-72 -97h-150z" glyph-name="Ucircumflex" horiz-adv-x="731" unicode="Û"/><glyph d="M30 315v385h143v-386q0 -88 54 -139.5t140 -51.5q88 0 139.5 49.5t51.5 141.5v386h143v-385q0 -80 -27.5 -143.5t-75 -102t-106.5 -58t-125 -19.5q-149 0 -243 80.5t-94 242.5zM400 783v117h143v-117h-143zM202 900h143v-117h-143v117z" glyph-name="Udieresis" horiz-adv-x="731" unicode="Ü"/><glyph d="M17 699h175l163 -226q21 -31 21 -69h2q0 38 21 69l162 226h175l-289 -385v-314h-143v314zM419 758h-117l58 142h162z" glyph-name="Yacute" horiz-adv-x="752" unicode="Ý"/><glyph d="M173 0h-143v700h143v-110h193q133 0 203 -59t70 -173q0 -112 -70.5 -172t-202.5 -60h-193v-126zM320 476h-147v-236h147q55 0 91.5 9t54 27t24 37t6.5 45q0 29 -6.5 48.5t-24 36.5t-53.5 25t-92 8z" glyph-name="Thorn" horiz-adv-x="666" unicode="Þ"/><glyph d="M30 0v527q0 79 78 127.5t187 48.5q143 0 217.5 -40.5t74.5 -135.5q0 -97 -156 -139q192 -27 192 -176q0 -212 -345 -212v116q102 -2 151.5 30t49.5 85q0 109 -201 113v75q63 0 105 24.5t42 67.5q0 49 -34.5 76.5t-95.5 27.5q-50 0 -86 -34.5t-36 -88.5v-492h-143z" glyph-name="germandbls" horiz-adv-x="649" unicode="ß"/><glyph d="M446 127q-18 -61 -75.5 -93.5t-129.5 -32.5q-80 0 -139 38t-59 103q0 39 17.5 67.5t46 42.5t64.5 22.5t74 10t74.5 3.5t64.5 3t45 8t17 20q-4 79 -132 79q-130 0 -137 -77l-125 7q4 59 45 100t97 58.5t120 16.5q54 0 99.5 -10t85.5 -31.5t62.5 -61t22.5 -93.5v-143 q0 -19 7 -25.5t26 -6.5h26v-132h-99q-41 0 -69.5 26t-28.5 62v39zM186 146q0 -30 28 -45t71 -15q60 0 110.5 25.5t50.5 65.5v55q-20 -14 -67 -18t-88 -4t-73 -15t-32 -49zM170 700h166l58 -142h-122z" glyph-name="agrave" horiz-adv-x="668" unicode="à"/><glyph d="M446 127q-18 -61 -75.5 -93.5t-129.5 -32.5q-80 0 -139 38t-59 103q0 39 17.5 67.5t46 42.5t64.5 22.5t74 10t74.5 3.5t64.5 3t45 8t17 20q-4 79 -132 79q-130 0 -137 -77l-125 7q4 59 45 100t97 58.5t120 16.5q54 0 99.5 -10t85.5 -31.5t62.5 -61t22.5 -93.5v-143 q0 -19 7 -25.5t26 -6.5h26v-132h-99q-41 0 -69.5 26t-28.5 62v39zM446 232q-20 -14 -67 -18t-88 -4t-73 -15t-32 -49q0 -30 28 -45t71 -15q60 0 110.5 25.5t50.5 65.5v55zM379 558h-116l58 142h161z" glyph-name="aacute" horiz-adv-x="675" unicode="á"/><glyph d="M446 127q-18 -61 -75.5 -93.5t-129.5 -32.5q-80 0 -139 38t-59 103q0 39 17.5 67.5t46 42.5t64.5 22.5t74 10t74.5 3.5t64.5 3t45 8t17 20q-4 79 -132 79q-130 0 -137 -77l-125 7q4 59 45 100t97 58.5t120 16.5q54 0 99.5 -10t85.5 -31.5t62.5 -61t22.5 -93.5v-143 q0 -19 7 -25.5t26 -6.5h26v-132h-99q-41 0 -69.5 26t-28.5 62v39zM102 571l127 161h190l127 -161h-149l-72 97l-73 -97h-150zM186 146q0 -30 28 -45t71 -15q60 0 110.5 25.5t50.5 65.5v55q-20 -14 -67 -18t-88 -4t-73 -15t-32 -49z" glyph-name="acircumflex" horiz-adv-x="675" unicode="â"/><glyph d="M446 127q-18 -61 -75.5 -93.5t-129.5 -32.5q-80 0 -139 38t-59 103q0 39 17.5 67.5t46 42.5t64.5 22.5t74 10t74.5 3.5t64.5 3t45 8t17 20q-4 79 -132 79q-130 0 -137 -77l-125 7q4 59 45 100t97 58.5t120 16.5q54 0 99.5 -10t85.5 -31.5t62.5 -61t22.5 -93.5v-143 q0 -19 7 -25.5t26 -6.5h26v-132h-99q-41 0 -69.5 26t-28.5 62v39zM93 565q18 143 162 143q35 0 62 -14t46.5 -28.5t35.5 -15.5q24 -1 36.5 16t18.5 42l107 -10q-4 -67 -42.5 -109t-111.5 -41q-47 1 -86.5 28.5t-59.5 28.5q-31 1 -52 -15t-26 -40zM446 232q-20 -14 -67 -18 t-88 -4t-73 -15t-32 -49q0 -30 28 -45t71 -15q60 0 110.5 25.5t50.5 65.5v55z" glyph-name="atilde" horiz-adv-x="675" unicode="ã"/><glyph d="M446 127q-18 -61 -75.5 -93.5t-129.5 -32.5q-80 0 -139 38t-59 103q0 39 17.5 67.5t46 42.5t64.5 22.5t74 10t74.5 3.5t64.5 3t45 8t17 20q-4 79 -132 79q-130 0 -137 -77l-125 7q4 59 45 100t97 58.5t120 16.5q54 0 99.5 -10t85.5 -31.5t62.5 -61t22.5 -93.5v-143 q0 -19 7 -25.5t26 -6.5h26v-132h-99q-41 0 -69.5 26t-28.5 62v39zM446 232q-20 -14 -67 -18t-88 -4t-73 -15t-32 -49q0 -30 28 -45t71 -15q60 0 110.5 25.5t50.5 65.5v55zM311 583h-143v117h143v-117zM365 700h143v-117h-143v117z" glyph-name="adieresis" horiz-adv-x="675" unicode="ä"/><glyph d="M43 142q0 39 17.5 67.5t46 42.5t64.5 22.5t74 10t74.5 3.5t64.5 3t45 8t17 20q-4 79 -132 79q-130 0 -137 -77l-125 7q4 59 45 100t97 58.5t120 16.5q54 0 99.5 -10t85.5 -31.5t62.5 -61t22.5 -93.5v-143q0 -19 7 -25.5t26 -6.5h26v-132h-99q-41 0 -69.5 26t-28.5 62v39 q-18 -61 -75.5 -93.5t-129.5 -32.5q-80 0 -139 38t-59 103zM326 544q-61 0 -103 31t-42 75t42 75t103 31q59 0 100.5 -31t41.5 -75t-41.5 -75t-100.5 -31zM186 146q0 -30 28 -45t71 -15q60 0 110.5 25.5t50.5 65.5v55q-20 -14 -67 -18t-88 -4t-73 -15t-32 -49zM267 650 q0 -19 17 -32.5t42 -13.5q23 0 40 13.5t17 32.5t-17 32.5t-40 13.5q-25 0 -42 -13.5t-17 -32.5z" glyph-name="aring" horiz-adv-x="675" unicode="å"/><glyph d="M22 142q0 47 21.5 78.5t55.5 45t75.5 20t82.5 7.5t75 3t55.5 11t21.5 28q0 33 -36 54.5t-83 24.5q-40 4 -79 -15t-44 -62l-137 5q6 82 83.5 122t176.5 39q78 -1 130 -35.5t73 -94.5q18 55 87.5 94.5t156.5 38.5q122 -1 195.5 -66t73.5 -190q0 -6 -0.5 -9.5t-1.5 -7.5 t-2 -9h-455q1 -61 50 -91t102 -30q42 1 89 21.5t65 56.5l144 -8q-12 -86 -93.5 -132t-187.5 -47q-95 -1 -163 44t-85 116q-19 -75 -89 -115.5t-154 -40.5t-143.5 38.5t-59.5 105.5zM160 155q0 -26 26 -41.5t64 -15.5q61 0 110 39t49 113v31q-9 -21 -50.5 -35.5t-85 -21 t-78.5 -24t-35 -45.5zM707 406q-65 0 -111 -47t-49 -135q10 19 23 30.5t32 16t33.5 5.5t43.5 1h176q-3 61 -41.5 95t-106.5 34z" glyph-name="ae" horiz-adv-x="1027" unicode="æ"/><glyph d="M325 506q104 -1 186.5 -53t94.5 -147l-132 -8q-14 44 -52 70t-97 27q-73 0 -116.5 -39t-43.5 -106q0 -66 44 -105.5t116 -38.5q116 3 148 93l133 -8q-11 -81 -74 -130t-152 -63l-26 -52q43 0 69 -24.5t26 -74.5q0 -62 -42 -93.5t-103 -31.5q-45 0 -85 17t-59 46l48 56 q12 -20 37 -31.5t52 -11.5q28 0 46.5 13.5t19.5 39.5q0 16 -12.5 26t-36 13.5t-38.5 4.5t-39 1h-7l16 40l21 61q-109 13 -177 78.5t-68 174.5q0 124 86.5 190.5t216.5 65.5z" glyph-name="ccedilla" horiz-adv-x="628" unicode="ç"/><glyph d="M326 -6q-131 -1 -217.5 65.5t-86.5 190.5t86.5 190.5t217.5 65.5q129 -1 210 -66t81 -190q0 -7 -0.5 -14.5t-0.5 -13.5h-447q8 -56 53 -88.5t108 -31.5q62 0 98 17t52 64l132 -7q-25 -101 -98 -141t-188 -41zM330 405q-66 0 -116.5 -45.5t-44.5 -137.5q11 39 31.5 53 t55.5 14h232q-6 58 -49.5 86.5t-108.5 29.5zM298 558l-103 142h167l58 -142h-122z" glyph-name="egrave" horiz-adv-x="643" unicode="è"/><glyph d="M326 -6q-131 -1 -217.5 65.5t-86.5 190.5t86.5 190.5t217.5 65.5q129 -1 210 -66t81 -190q0 -7 -0.5 -14.5t-0.5 -13.5h-447q8 -56 53 -88.5t108 -31.5q62 0 98 17t52 64l132 -7q-25 -101 -98 -141t-188 -41zM330 405q-66 0 -116.5 -45.5t-44.5 -137.5q11 39 31.5 53 t55.5 14h232q-6 58 -49.5 86.5t-108.5 29.5zM261 558l58 142h161l-102 -142h-117z" glyph-name="eacute" horiz-adv-x="639" unicode="é"/><glyph d="M326 -6q-131 -1 -217.5 65.5t-86.5 190.5t86.5 190.5t217.5 65.5q129 -1 210 -66t81 -190q0 -7 -0.5 -14.5t-0.5 -13.5h-447q8 -56 53 -88.5t108 -31.5q62 0 98 17t52 64l132 -7q-25 -101 -98 -141t-188 -41zM258 581h-150l127 161h190l127 -161h-150l-71 97zM330 405 q-66 0 -116.5 -45.5t-44.5 -137.5q11 39 31.5 53t55.5 14h232q-6 58 -49.5 86.5t-108.5 29.5z" glyph-name="ecircumflex" horiz-adv-x="639" unicode="ê"/><glyph d="M326 -6q-131 -1 -217.5 65.5t-86.5 190.5t86.5 190.5t217.5 65.5q129 -1 210 -66t81 -190q0 -7 -0.5 -14.5t-0.5 -13.5h-447q8 -56 53 -88.5t108 -31.5q62 0 98 17t52 64l132 -7q-25 -101 -98 -141t-188 -41zM330 405q-66 0 -116.5 -45.5t-44.5 -137.5q11 39 31.5 53 t55.5 14h232q-6 58 -49.5 86.5t-108.5 29.5zM502 583h-143v117h143v-117zM304 583h-143v117h143v-117z" glyph-name="edieresis" horiz-adv-x="639" unicode="ë"/><glyph d="M30 0v500h143v-500h-143zM116 700l58 -142h-122l-103 142h167z" glyph-name="igrave" unicode="ì"/><glyph d="M30 0v500h143v-500h-143zM146 558h-117l58 142h162z" glyph-name="iacute" unicode="í"/><glyph d="M30 500h143v-500h-143v500zM-120 581l127 161h190l127 -161h-150l-72 97l-73 -97h-149z" glyph-name="icircumflex" unicode="î"/><glyph d="M30 0v500h143v-500h-143zM-69 700h143v-117h-143v117zM129 700h143v-117h-143v117z" glyph-name="idieresis" unicode="ï"/><glyph d="M22 222q-2 105 79.5 165.5t190.5 60.5q82 0 146.5 -36t84.5 -104q-12 108 -68 199l-107 -36l-42 80l83 25q-28 31 -86 35q-44 4 -83 -19l-81 79q70 34 160 34q83 0 125 -17.5t93 -66.5l58 22l35 -74l-42 -15q74 -141 74 -241q0 -158 -83 -237.5t-227 -79.5 q-84 0 -151 21.5t-112.5 74t-46.5 130.5zM337 360q-75 -5 -121.5 -40t-46.5 -96q0 -44 32 -71.5t74.5 -35t85.5 -2.5q54 6 98 40.5t49 81.5q8 45 -20.5 75t-69 40.5t-81.5 7.5z" glyph-name="eth" horiz-adv-x="664" unicode="ð"/><glyph d="M173 0h-143v500h143v-119q0 -27 -8 -67l2 -1q10 48 18 65q28 64 81.5 97t108.5 33q100 0 148 -73.5t48 -206.5v-228h-142v229q0 65 -29.5 100.5t-78.5 35.5q-24 0 -47.5 -8t-47.5 -26.5t-38.5 -55.5t-14.5 -88v-187zM81 565q18 143 162 143q35 0 62 -14t46.5 -28.5 t35.5 -15.5q24 -1 36.5 16t18.5 42l107 -10q-4 -67 -42.5 -109t-111.5 -41q-47 1 -86.5 28.5t-59.5 28.5q-31 1 -52 -15t-26 -40z" glyph-name="ntilde" horiz-adv-x="601" unicode="ñ"/><glyph d="M329 -6q-132 0 -219.5 66t-87.5 190t88 190.5t219 65.5t218.5 -67t87.5 -189q0 -124 -87.5 -190t-218.5 -66zM329 392q-67 1 -115.5 -38.5t-48.5 -103.5q0 -67 46 -104t118 -37q69 0 116 38t47 103t-47.5 103.5t-115.5 38.5zM181 700h167l58 -142h-122z" glyph-name="ograve" horiz-adv-x="657" unicode="ò"/><glyph d="M329 -6q-132 0 -219.5 66t-87.5 190t88 190.5t219 65.5t218.5 -67t87.5 -189q0 -124 -87.5 -190t-218.5 -66zM329 392q-67 1 -115.5 -38.5t-48.5 -103.5q0 -67 46 -104t118 -37q69 0 116 38t47 103t-47.5 103.5t-115.5 38.5zM263 558l58 142h161l-102 -142h-117z" glyph-name="oacute" horiz-adv-x="657" unicode="ó"/><glyph d="M329 -6q-132 0 -219.5 66t-87.5 190t88 190.5t219 65.5t218.5 -67t87.5 -189q0 -124 -87.5 -190t-218.5 -66zM329 392q-67 1 -115.5 -38.5t-48.5 -103.5q0 -67 46 -104t118 -37q69 0 116 38t47 103t-47.5 103.5t-115.5 38.5zM256 581h-150l127 161h190l127 -161h-149 l-72 97z" glyph-name="ocircumflex" horiz-adv-x="657" unicode="ô"/><glyph d="M329 -6q-132 0 -219.5 66t-87.5 190t88 190.5t219 65.5t218.5 -67t87.5 -189q0 -124 -87.5 -190t-218.5 -66zM329 392q-67 1 -115.5 -38.5t-48.5 -103.5q0 -67 46 -104t118 -37q69 0 116 38t47 103t-47.5 103.5t-115.5 38.5zM107 565q18 143 162 143q35 0 62 -14 t46.5 -28.5t35.5 -15.5q24 -1 36.5 16t18.5 42l107 -10q-4 -67 -42.5 -109t-111.5 -41q-47 1 -86.5 28.5t-59.5 28.5q-31 1 -52 -15t-26 -40z" glyph-name="otilde" horiz-adv-x="657" unicode="õ"/><glyph d="M329 -6q-132 0 -219.5 66t-87.5 190t88 190.5t219 65.5t218.5 -67t87.5 -189q0 -124 -87.5 -190t-218.5 -66zM329 392q-67 1 -115.5 -38.5t-48.5 -103.5q0 -67 46 -104t118 -37q69 0 116 38t47 103t-47.5 103.5t-115.5 38.5zM501 583h-143v117h143v-117zM304 583h-143 v117h143v-117z" glyph-name="odieresis" horiz-adv-x="657" unicode="ö"/><glyph d="M440 302l-326 28l16 58l-6 1l8 5l12 44l60 -5l118 65l134 -27l-93 -51l107 -9zM238 122h104v-81h-104v81z" glyph-name="divide" horiz-adv-x="598" unicode="÷"/><glyph d="M116 55q-94 71 -94 195t88 190.5t219 65.5q45 0 95 -10l22 32h160l-60 -87q89 -68 89 -191q0 -124 -87.5 -190t-218.5 -66q-47 0 -90 9l-29 -42h-160zM193 165l158 226q-7 1 -22 1q-67 1 -115.5 -38.5t-48.5 -103.5q0 -51 28 -85zM313 109h16q69 0 116 38t47 103 q0 46 -25 79z" glyph-name="oslash" horiz-adv-x="657" unicode="ø"/><glyph d="M236 -3q-206 0 -206 279v229h143v-229q0 -69 31.5 -102.5t86.5 -33.5q22 0 43.5 8t43.5 26t35 55.5t13 88.5v187h143v-500h-143v115q0 27 8 67h-2q-10 -48 -18 -65q-26 -62 -74.5 -93.5t-103.5 -31.5zM157 700h167l58 -142h-122z" glyph-name="ugrave" horiz-adv-x="619" unicode="ù"/><glyph d="M236 -3q-206 0 -206 279v229h143v-229q0 -69 31.5 -102.5t86.5 -33.5q22 0 43.5 8t43.5 26t35 55.5t13 88.5v187h143v-500h-143v115q0 27 8 67h-2q-10 -48 -18 -65q-26 -62 -74.5 -93.5t-103.5 -31.5zM356 558h-117l58 142h161z" glyph-name="uacute" horiz-adv-x="619" unicode="ú"/><glyph d="M30 505h143v-229q0 -69 31.5 -102.5t86.5 -33.5q22 0 43.5 8t43.5 26t35 55.5t13 88.5v187h143v-500h-143v115q0 27 8 67h-2q-10 -48 -18 -65q-26 -62 -74.5 -93.5t-103.5 -31.5q-206 0 -206 279v229zM246 581h-150l127 161h190l127 -161h-149l-72 97z" glyph-name="ucircumflex" horiz-adv-x="619" unicode="û"/><glyph d="M236 -3q-206 0 -206 279v229h143v-229q0 -69 31.5 -102.5t86.5 -33.5q22 0 43.5 8t43.5 26t35 55.5t13 88.5v187h143v-500h-143v115q0 27 8 67h-2q-10 -48 -18 -65q-26 -62 -74.5 -93.5t-103.5 -31.5zM158 700h143v-117h-143v117zM355 700h143v-117h-143v117z" glyph-name="udieresis" horiz-adv-x="619" unicode="ü"/><glyph d="M48 500h156l122 -289q14 -33 14 -73h2q0 43 13 73l121 289h156l-244 -571q-51 -135 -188 -135h-151v105h75q32 0 70 11.5t48 38.5l20 58zM249 558l58 142h161l-102 -142h-117z" glyph-name="yacute" horiz-adv-x="655" unicode="ý"/><glyph d="M32 -200l-2 900h144v-248q0 -36 -16 -73l2 -1q18 43 40 63q77 67 215 65q98 -1 168 -71t70 -185q0 -118 -69.5 -187t-168.5 -69q-129 0 -213 66q-25 20 -43 61l-1 -1q16 -36 16 -72v-248h-142zM174 250q0 -78 48.5 -120.5t120.5 -42.5q73 0 119.5 43.5t46.5 119.5 q0 78 -48 121t-118 43q-72 1 -120.5 -42.5t-48.5 -121.5z" glyph-name="thorn" horiz-adv-x="679" unicode="þ"/><glyph d="M48 500h156l122 -289q14 -33 14 -73h2q0 43 13 73l121 289h156l-244 -571q-51 -135 -188 -135h-151v105h75q32 0 70 11.5t48 38.5l20 58zM501 583h-143v117h143v-117zM160 583v117h143v-117h-143z" glyph-name="ydieresis" horiz-adv-x="655" unicode="ÿ"/><glyph d="M195 0h-155l264 700h190l264 -700h-153l-59 144l-296 -1zM199 885h404v-91h-404v91zM397 546l-107 -284q129 0 157 -7q49 -13 93 -92z" glyph-name="Amacron" horiz-adv-x="780" unicode="Ā"/><glyph d="M424 127q-18 -61 -75.5 -93.5t-129.5 -32.5q-80 0 -139 38t-59 103q0 52 30 84.5t75 43t97 15.5t96.5 4t74 6t29.5 24q-3 79 -131 79q-61 0 -97 -16.5t-41 -60.5l-124 7q4 59 45 100t96.5 58.5t119.5 16.5q54 0 100 -10t85.5 -31.5t62 -61t22.5 -93.5v-143 q0 -19 7.5 -25.5t26.5 -6.5h26v-132h-99q-41 0 -69.5 26t-28.5 62v39zM423 232q-20 -14 -66.5 -18t-87.5 -4t-73.5 -15t-32.5 -49q0 -30 28 -45t71 -15q60 0 110.5 25.5t50.5 65.5v55zM513 594h-404v91h404v-91z" glyph-name="amacron" horiz-adv-x="648" unicode="ā"/><glyph d="M195 0h-155l264 700h190l264 -700h-153l-59 144l-296 -1zM211 936h112q0 -38 17.5 -65t57.5 -27q41 0 58.5 27t17.5 65h112q0 -75 -46.5 -129t-141.5 -54t-141 53.5t-46 129.5zM397 546l-107 -284q129 0 157 -7q49 -13 93 -92z" glyph-name="Abreve" horiz-adv-x="780" unicode="Ă"/><glyph d="M424 127q-18 -61 -75.5 -93.5t-129.5 -32.5q-80 0 -139 38t-59 103q0 52 30 84.5t75 43t97 15.5t96.5 4t74 6t29.5 24q-3 79 -131 79q-61 0 -97 -16.5t-41 -60.5l-124 7q4 59 45 100t96.5 58.5t119.5 16.5q54 0 100 -10t85.5 -31.5t62 -61t22.5 -93.5v-143 q0 -19 7.5 -25.5t26.5 -6.5h26v-132h-99q-41 0 -69.5 26t-28.5 62v39zM299 552q-95 0 -141.5 54t-46.5 129h112q0 -37 17.5 -64t58.5 -27q40 0 57.5 27t17.5 64h112q0 -76 -46 -129.5t-141 -53.5zM423 232q-20 -14 -66.5 -18t-87.5 -4t-73.5 -15t-32.5 -49q0 -30 28 -45 t71 -15q60 0 110.5 25.5t50.5 65.5v55z" glyph-name="abreve" horiz-adv-x="648" unicode="ă"/><glyph d="M195 0h-155l264 700h190l264 -700h-26q-20 -22 -33 -46.5t-16.5 -45t-0.5 -37.5t14 -26.5t28 -9.5q22 0 51 16l55 -46q-18 -26 -53 -40.5t-75 -14.5t-71.5 15.5t-48 44.5t-1 79t66.5 111h-43l-59 144l-296 -1zM290 262q129 0 157 -7q49 -13 93 -92l-143 383z" glyph-name="Aogonek" horiz-adv-x="780" unicode="Ą"/><glyph d="M424 127q-18 -61 -75.5 -93.5t-129.5 -32.5q-80 0 -139 38t-59 103q0 52 30 84.5t75 43t97 15.5t96.5 4t74 6t29.5 24q-3 79 -131 79q-61 0 -97 -16.5t-41 -60.5l-124 7q4 59 45 100t96.5 58.5t119.5 16.5q54 0 100 -10t85.5 -31.5t62 -61t22.5 -93.5v-143 q0 -19 7.5 -25.5t26.5 -6.5h26v-132h-4q-33 -37 -44.5 -75.5t-0.5 -62.5t39 -24q22 0 51 16l55 -46q-18 -26 -53.5 -41t-74.5 -15q-31 0 -58 9t-45.5 29t-23 48.5t13 70.5t57.5 91h-11q-41 0 -69.5 26t-28.5 62v39zM163 146q0 -30 28 -45t71 -15q60 0 110.5 25.5t50.5 65.5 v55q-20 -14 -66.5 -18t-87.5 -4t-73.5 -15t-32.5 -49z" glyph-name="aogonek" horiz-adv-x="648" unicode="ą"/><glyph d="M381 707q132 -2 225 -64t123 -182l-139 -33q-17 58 -72 96.5t-138 39.5q-104 0 -159.5 -58t-55.5 -156q0 -99 58 -156.5t157 -57.5q86 1 140.5 39.5t69.5 97.5l139 -34q-30 -120 -123 -182t-225 -64q-160 -2 -259.5 89.5t-99.5 267.5t99.5 267.5t259.5 89.5zM424 758 h-117l58 142h162z" glyph-name="Cacute" horiz-adv-x="751" unicode="Ć"/><glyph d="M22 250q0 124 86.5 190.5t216.5 65.5q104 -1 186.5 -53t94.5 -147l-132 -8q-14 44 -52 70t-97 27q-73 0 -116.5 -39t-43.5 -106q0 -66 44 -105.5t116 -38.5q116 3 148 93l133 -8q-8 -63 -52.5 -109t-103.5 -66.5t-125 -21.5q-130 -1 -216.5 65.5t-86.5 190.5zM252 558 l58 142h161l-102 -142h-117z" glyph-name="cacute" horiz-adv-x="628" unicode="ć"/><glyph d="M381 707q132 -2 225 -64t123 -182l-139 -33q-17 58 -72 96.5t-138 39.5q-104 0 -159.5 -58t-55.5 -156q0 -99 58 -156.5t157 -57.5q86 1 140.5 39.5t69.5 97.5l139 -34q-30 -120 -123 -182t-225 -64q-160 -2 -259.5 89.5t-99.5 267.5t99.5 267.5t259.5 89.5zM308 781 h-150l127 161h190l127 -161h-150l-71 97z" glyph-name="Ccircumflex" horiz-adv-x="751" unicode="Ĉ"/><glyph d="M22 250q0 124 86.5 190.5t216.5 65.5q104 -1 186.5 -53t94.5 -147l-132 -8q-14 44 -52 70t-97 27q-73 0 -116.5 -39t-43.5 -106q0 -66 44 -105.5t116 -38.5q116 3 148 93l133 -8q-8 -63 -52.5 -109t-103.5 -66.5t-125 -21.5q-130 -1 -216.5 65.5t-86.5 190.5zM106 581 l127 161h190l127 -161h-150l-72 97l-73 -97h-149z" glyph-name="ccircumflex" horiz-adv-x="628" unicode="ĉ"/><glyph d="M381 707q132 -2 225 -64t123 -182l-139 -33q-17 58 -72 96.5t-138 39.5q-104 0 -159.5 -58t-55.5 -156q0 -99 58 -156.5t157 -57.5q86 1 140.5 39.5t69.5 97.5l139 -34q-30 -120 -123 -182t-225 -64q-160 -2 -259.5 89.5t-99.5 267.5t99.5 267.5t259.5 89.5zM456 781 h-150v119h150v-119z" glyph-name="Cdotaccent" horiz-adv-x="751" unicode="Ċ"/><glyph d="M22 250q0 124 86.5 190.5t216.5 65.5q104 -1 186.5 -53t94.5 -147l-132 -8q-14 44 -52 70t-97 27q-73 0 -116.5 -39t-43.5 -106q0 -66 44 -105.5t116 -38.5q116 3 148 93l133 -8q-8 -63 -52.5 -109t-103.5 -66.5t-125 -21.5q-130 -1 -216.5 65.5t-86.5 190.5zM251 700 h150v-119h-150v119z" glyph-name="cdotaccent" horiz-adv-x="628" unicode="ċ"/><glyph d="M381 707q132 -2 225 -64t123 -182l-139 -33q-17 58 -72 96.5t-138 39.5q-104 0 -159.5 -58t-55.5 -156q0 -99 58 -156.5t157 -57.5q86 1 140.5 39.5t69.5 97.5l139 -34q-30 -120 -123 -182t-225 -64q-160 -2 -259.5 89.5t-99.5 267.5t99.5 267.5t259.5 89.5zM287 781 l-127 161h149l73 -98l72 98h149l-127 -161h-189z" glyph-name="Ccaron" horiz-adv-x="751" unicode="Č"/><glyph d="M325 506q104 -1 186.5 -53t94.5 -147l-132 -8q-14 44 -52 70t-97 27q-73 0 -116.5 -39t-43.5 -106q0 -66 44 -105.5t116 -38.5q116 3 148 93l133 -8q-8 -63 -52.5 -109t-103.5 -66.5t-125 -21.5q-130 -1 -216.5 65.5t-86.5 190.5t86.5 190.5t216.5 65.5zM105 742h149 l73 -98l72 98h150l-127 -161h-190z" glyph-name="ccaron" horiz-adv-x="628" unicode="č"/><glyph d="M353 0h-324v700h324q100 0 179 -37t128 -117.5t49 -195.5t-49 -195.5t-128 -117.5t-179 -37zM364 569h-278q86 0 86 -32v-405h192q35 0 69 12.5t64.5 37t49.5 68.5t19 100q0 105 -62.5 162t-139.5 57zM212 781l-127 161h149l73 -98l72 98h150l-127 -161h-190z" glyph-name="Dcaron" horiz-adv-x="734" unicode="Ď"/><glyph d="M27 250q0 254 257 256q50 1 103 -21t87 -58q17 -18 33 -66h2q-13 41 -13 74v265h176l-33 -128v-572h-143v61q0 34 13 73l-1 1q-19 -50 -34 -66q-34 -34 -86.5 -54.5t-103.5 -20.5q-125 0 -191 64t-66 192zM168 250q0 -141 154 -141q74 0 124 39.5t50 101.5t-50.5 105.5 t-123.5 42.5q-154 -1 -154 -148z" glyph-name="dcaron" horiz-adv-x="704" unicode="ď"/><glyph d="M4 418h86v282h324q100 0 179 -37t128 -117.5t49 -195.5t-49 -195.5t-128 -117.5t-179 -37h-324v275h-86v143zM234 418h194v-143h-194v-143h192q47 0 91 20.5t77 72t33 125.5q0 105 -62.5 162t-138.5 57h-278q85 0 86 -32v-119z" glyph-name="Dcroat" horiz-adv-x="792" unicode="Đ"/><glyph d="M27 250q0 254 257 256q50 1 103 -21t87 -58q17 -18 33 -66h2q-13 41 -13 74v105h-136v101h136v59h143v-59h97v-101h-97v-540h-143v61q0 34 13 73l-1 1q-19 -50 -34 -66q-34 -34 -86.5 -54.5t-103.5 -20.5q-125 0 -191 64t-66 192zM168 250q0 -141 154 -141q74 0 124 39.5 t50 101.5t-50.5 105.5t-123.5 42.5q-154 -1 -154 -148z" glyph-name="dcroat" horiz-adv-x="664" unicode="đ"/><glyph d="M30 0v700h596v-131h-453v-172h423v-111h-423v-155h453v-131h-596zM123 885h404v-91h-404v91z" glyph-name="Emacron" horiz-adv-x="653" unicode="Ē"/><glyph d="M326 -6q-131 -1 -217.5 65.5t-86.5 190.5t86.5 190.5t217.5 65.5q129 -1 210 -66t81 -190q0 -7 -0.5 -14.5t-0.5 -13.5h-447q8 -56 53 -88.5t108 -31.5q62 0 98 17t52 64l132 -7q-25 -101 -98 -141t-188 -41zM532 594h-404v91h404v-91zM330 405q-66 0 -116.5 -45.5 t-44.5 -137.5q11 39 31.5 53t55.5 14h232q-6 58 -49.5 86.5t-108.5 29.5z" glyph-name="emacron" horiz-adv-x="639" unicode="ē"/><glyph d="M626 0h-596v700h596v-131h-453v-172h423v-111h-423v-155h453v-131zM146 935h111q0 -37 17.5 -64t58.5 -27q40 0 58 27t18 64h112q0 -75 -46.5 -129t-141.5 -54t-141 53.5t-46 129.5z" glyph-name="Ebreve" horiz-adv-x="653" unicode="Ĕ"/><glyph d="M326 -6q-131 -1 -217.5 65.5t-86.5 190.5t86.5 190.5t217.5 65.5q129 -1 210 -66t81 -190q0 -7 -0.5 -14.5t-0.5 -13.5h-447q8 -56 53 -88.5t108 -31.5q62 0 98 17t52 64l132 -7q-25 -101 -98 -141t-188 -41zM328 552q-95 0 -141.5 54t-46.5 129h112q0 -38 17.5 -65 t58.5 -27q40 0 58 27t18 65h111q0 -76 -46 -129.5t-141 -53.5zM330 405q-66 0 -116.5 -45.5t-44.5 -137.5q11 39 31.5 53t55.5 14h232q-6 58 -49.5 86.5t-108.5 29.5z" glyph-name="ebreve" horiz-adv-x="639" unicode="ĕ"/><glyph d="M30 0v700h596v-131h-453v-172h423v-111h-423v-155h453v-131h-596zM256 781v119h150v-119h-150z" glyph-name="Edotaccent" horiz-adv-x="653" unicode="Ė"/><glyph d="M326 -6q-131 -1 -217.5 65.5t-86.5 190.5t86.5 190.5t217.5 65.5q129 -1 210 -66t81 -190q0 -7 -0.5 -14.5t-0.5 -13.5h-447q8 -56 53 -88.5t108 -31.5q62 0 98 17t52 64l132 -7q-25 -101 -98 -141t-188 -41zM330 405q-66 0 -116.5 -45.5t-44.5 -137.5q11 39 31.5 53 t55.5 14h232q-6 58 -49.5 86.5t-108.5 29.5zM253 581v119h150v-119h-150z" glyph-name="edotaccent" horiz-adv-x="639" unicode="ė"/><glyph d="M30 0v700h596v-131h-453v-172h423v-111h-423v-155h453v-131h-138q-20 -22 -33 -46.5t-16.5 -45t-0.5 -37.5t14 -26.5t28 -9.5q22 0 51 16l55 -46q-18 -26 -53 -40.5t-75 -14.5q-41 0 -72.5 15.5t-48 44.5t-1 78.5t67.5 111.5h-374z" glyph-name="Eogonek" horiz-adv-x="653" unicode="Ę"/><glyph d="M261 -2q-106 15 -172.5 80t-66.5 172q0 124 86.5 190.5t217.5 65.5q129 -1 210 -66t81 -190q0 -7 -0.5 -14.5t-0.5 -13.5h-447q8 -56 53 -88.5t108 -31.5q62 0 98 17t52 64l132 -7q-25 -98 -93 -138.5t-176 -43.5q-20 -33 -24.5 -63t7 -48.5t35.5 -18.5q22 0 51 16 l55 -46q-18 -26 -53.5 -41t-74.5 -15q-52 0 -87 23.5t-40.5 72.5t49.5 124zM330 405q-66 0 -116.5 -45.5t-44.5 -137.5q11 39 31.5 53t55.5 14h232q-6 58 -49.5 86.5t-108.5 29.5z" glyph-name="eogonek" horiz-adv-x="639" unicode="ę"/><glyph d="M30 0v700h596v-131h-453v-172h423v-111h-423v-155h453v-131h-596zM119 942h149l73 -98l72 98h149l-127 -161h-189z" glyph-name="Ecaron" horiz-adv-x="653" unicode="Ě"/><glyph d="M326 -6q-131 -1 -217.5 65.5t-86.5 190.5t86.5 190.5t217.5 65.5q129 -1 210 -66t81 -190q0 -7 -0.5 -14.5t-0.5 -13.5h-447q8 -56 53 -88.5t108 -31.5q62 0 98 17t52 64l132 -7q-25 -101 -98 -141t-188 -41zM107 742h150l73 -98l71 98h150l-127 -161h-190zM330 405 q-66 0 -116.5 -45.5t-44.5 -137.5q11 39 31.5 53t55.5 14h232q-6 58 -49.5 86.5t-108.5 29.5z" glyph-name="ecaron" horiz-adv-x="639" unicode="ě"/><glyph d="M22 350q0 176 100 267.5t262 89.5q133 -2 227 -64t125 -182l-132 -37q-26 71 -88.5 111t-131.5 41q-91 0 -155 -59.5t-64 -166.5q0 -106 60 -166t154 -60q59 0 96.5 45t46.5 96h-97v106h249q72 0 72 -69v-302h-140v265h-14q-4 -149 -60.5 -210.5t-167.5 -61.5 q-159 0 -250.5 90t-91.5 267zM301 781h-150l127 161h190l127 -161h-150l-72 97z" glyph-name="Gcircumflex" horiz-adv-x="768" unicode="Ĝ"/><glyph d="M113 84q-76 16 -76 70q0 51 80 74q0 1 -5 6.5t-12 15t-14 21t-12 27.5t-5 32q0 56 40.5 96t96 56.5t118.5 16.5q42 0 111 -16q-28 53 25.5 76.5t164.5 20.5v-94h-68q-61 0 -59 -18q0 -6 7 -12l5 -4q5 -5 11 -10t13.5 -13.5t14 -18.5t12.5 -21.5t9.5 -26t3.5 -29.5 q0 -55 -40 -94.5t-95.5 -56.5t-117.5 -17q-40 0 -76 9q-4 1 -9 2.5t-8 2.5t-4 1q-13 1 -24.5 -6t-11.5 -15q0 -18 47 -25t113.5 -11.5t133 -16.5t113.5 -50t47 -102q0 -52 -48 -88t-116.5 -51t-148.5 -15q-77 0 -149 14.5t-126 51t-54 88.5q0 53 28.5 81t84.5 49zM144 -37 q0 -35 58 -53.5t129 -18.5q64 0 115.5 18t51.5 54q0 61 -179 75q-18 3 -42 3q-44 0 -88.5 -22t-44.5 -56zM262 616h-150l127 161h190l127 -161h-150l-72 97zM321 259q45 0 77.5 17t32.5 56q0 38 -32.5 55t-76.5 17q-45 0 -77.5 -17t-32.5 -56q0 -38 32.5 -55t76.5 -17z" glyph-name="gcircumflex" horiz-adv-x="661" unicode="ĝ"/><glyph d="M22 350q0 176 100 267.5t262 89.5q133 -2 227 -64t125 -182l-132 -37q-26 71 -88.5 111t-131.5 41q-91 0 -155 -59.5t-64 -166.5q0 -106 60 -166t154 -60q59 0 96.5 45t46.5 96h-97v106h249q72 0 72 -69v-302h-140v265h-14q-4 -149 -60.5 -210.5t-167.5 -61.5 q-159 0 -250.5 90t-91.5 267zM393 752q-95 0 -141.5 54t-46.5 129h112q0 -38 17.5 -65t58.5 -27q40 0 58 27t18 65h111q0 -76 -46 -129.5t-141 -53.5z" glyph-name="Gbreve" horiz-adv-x="768" unicode="Ğ"/><glyph d="M113 84q-76 16 -76 70q0 51 80 74q0 1 -5 6.5t-12 15t-14 21t-12 27.5t-5 32q0 56 40.5 96t96 56.5t118.5 16.5q42 0 111 -16q-28 53 25.5 76.5t164.5 20.5v-94h-68q-61 0 -59 -18q0 -6 7 -12l5 -4q5 -5 11 -10t13.5 -13.5t14 -18.5t12.5 -21.5t9.5 -26t3.5 -29.5 q0 -55 -40 -94.5t-95.5 -56.5t-117.5 -17q-40 0 -76 9q-4 1 -9 2.5t-8 2.5t-4 1q-13 1 -24.5 -6t-11.5 -15q0 -18 47 -25t113.5 -11.5t133 -16.5t113.5 -50t47 -102q0 -52 -48 -88t-116.5 -51t-148.5 -15q-77 0 -149 14.5t-126 51t-54 88.5q0 53 28.5 81t84.5 49zM134 761 h111q0 -38 17.5 -65t58.5 -27q40 0 58 27t18 65h112q0 -75 -46.5 -129t-141.5 -54t-141 53.5t-46 129.5zM144 -37q0 -35 58 -53.5t129 -18.5q64 0 115.5 18t51.5 54q0 61 -179 75q-18 3 -42 3q-44 0 -88.5 -22t-44.5 -56zM212 331q0 -38 32.5 -55t76.5 -17q45 0 77.5 17 t32.5 56q0 38 -32.5 55t-76.5 17q-45 0 -77.5 -17t-32.5 -56z" glyph-name="gbreve" horiz-adv-x="662" unicode="ğ"/><glyph d="M22 350q0 176 100 267.5t262 89.5q133 -2 227 -64t125 -182l-132 -37q-26 71 -88.5 111t-131.5 41q-91 0 -155 -59.5t-64 -166.5q0 -106 60 -166t154 -60q59 0 96.5 45t46.5 96h-97v106h249q72 0 72 -69v-302h-140v265h-14q-4 -149 -60.5 -210.5t-167.5 -61.5 q-159 0 -250.5 90t-91.5 267zM307 900h150v-119h-150v119z" glyph-name="Gdotaccent" horiz-adv-x="768" unicode="Ġ"/><glyph d="M0 -46q0 53 28.5 81t84.5 49q-76 16 -76 70q0 51 80 74q0 1 -5 6.5t-12 15t-14 21t-12 27.5t-5 32q0 56 40.5 96t96 56.5t118.5 16.5q42 0 111 -16q-28 53 25.5 76.5t164.5 20.5v-94h-68q-61 0 -59 -18q0 -6 7 -12l5 -4q5 -5 11 -10t13.5 -13.5t14 -18.5t12.5 -21.5 t9.5 -26t3.5 -29.5q0 -55 -40 -94.5t-95.5 -56.5t-117.5 -17q-40 0 -76 9q-4 1 -9 2.5t-8 2.5t-4 1q-13 1 -24.5 -6t-11.5 -15q0 -18 47 -25t113.5 -11.5t133 -16.5t113.5 -50t47 -102q0 -52 -48 -88t-116.5 -51t-148.5 -15q-77 0 -149 14.5t-126 51t-54 88.5zM331 -109 q64 0 115.5 18t51.5 54q0 61 -179 75q-18 3 -42 3q-44 0 -88.5 -22t-44.5 -56q0 -35 58 -53.5t129 -18.5zM321 259q45 0 77.5 17t32.5 56q0 38 -32.5 55t-76.5 17q-45 0 -77.5 -17t-32.5 -56q0 -38 32.5 -55t76.5 -17zM254 634v120h150v-120h-150z" glyph-name="gdotaccent" horiz-adv-x="662" unicode="ġ"/><glyph d="M364 -7q-159 0 -250.5 90t-91.5 267q0 176 100 267.5t262 89.5q133 -2 227 -64t125 -182l-132 -37q-26 71 -88.5 111t-131.5 41q-91 0 -155 -59.5t-64 -166.5q0 -106 60 -166t154 -60q59 0 96.5 45t46.5 96h-97v106h249q72 0 72 -69v-302h-140v265h-14 q-4 -149 -60.5 -210.5t-167.5 -61.5zM271 -192l58 142h113l-77 -142h-94z" glyph-name="uni0122" horiz-adv-x="768" unicode="Ģ"/><glyph d="M113 84q-76 16 -76 70q0 51 80 74q0 1 -5 6.5t-12 15t-14 21t-12 27.5t-5 32q0 56 40.5 96t96 56.5t118.5 16.5q42 0 111 -16q-28 53 25.5 76.5t164.5 20.5v-94h-68q-61 0 -59 -18q0 -6 7 -12l5 -4q5 -5 11 -10t13.5 -13.5t14 -18.5t12.5 -21.5t9.5 -26t3.5 -29.5 q0 -55 -40 -94.5t-95.5 -56.5t-117.5 -17q-40 0 -76 9q-4 1 -9 2.5t-8 2.5t-4 1q-13 1 -24.5 -6t-11.5 -15q0 -18 47 -25t113.5 -11.5t133 -16.5t113.5 -50t47 -102q0 -52 -48 -88t-116.5 -51t-148.5 -15q-77 0 -149 14.5t-126 51t-54 88.5q0 53 28.5 81t84.5 49zM331 -109 q64 0 115.5 18t51.5 54q0 61 -179 75q-18 3 -42 3q-44 0 -88.5 -22t-44.5 -56q0 -35 58 -53.5t129 -18.5zM335 570h-90v216l10 47h148zM321 259q45 0 77.5 17t32.5 56q0 38 -32.5 55t-76.5 17q-45 0 -77.5 -17t-32.5 -56q0 -38 32.5 -55t76.5 -17z" glyph-name="uni0123" horiz-adv-x="662" unicode="ģ"/><glyph d="M30 700h143v-278h367v278h143v-700h-143v279h-367v-279h-143v700zM138 781l127 161h190l127 -161h-150l-72 97l-72 -97h-150z" glyph-name="Hcircumflex" horiz-adv-x="713" unicode="Ĥ"/><glyph d="M31 700h143v-287q0 -34 -11 -74l2 -1q14 51 27 70q64 100 206 100q97 0 158.5 -70.5t61.5 -194.5v-243h-143v243q0 62 -35 101t-97 39q-26 0 -53 -10t-54 -31.5t-44.5 -61.5t-17.5 -93v-187h-143v700zM32 761h-150l127 161h190l127 -161h-150l-72 97z" glyph-name="hcircumflex" horiz-adv-x="646" unicode="ĥ"/><glyph d="M683 590h95v-101h-95v-489h-143v279h-367v-279h-143v489h-75v101h75v110h143v-110h367v110h143v-110zM540 489h-367v-67h367v67z" glyph-name="Hbar" horiz-adv-x="713" unicode="Ħ"/><glyph d="M31 538h-99v101h99v61h143v-61h134v-101h-134v-125q0 -34 -11 -74l2 -1q14 51 27 70q64 100 206 100q97 0 158.5 -70.5t61.5 -194.5v-243h-143v243q0 62 -35 101t-97 39q-26 0 -53 -10t-54 -31.5t-44.5 -61.5t-17.5 -93v-187h-143v538z" glyph-name="hbar" horiz-adv-x="646" unicode="ħ"/><glyph d="M173 0h-143v700h143v-700zM-24 750l-90 15q18 143 162 143q35 0 62 -14t46.5 -28.5t35.5 -15.5q24 -1 36.5 16t17.5 42l107 -10q-3 -67 -41.5 -109t-112.5 -41q-46 1 -86 28.5t-60 28.5q-31 1 -51.5 -14.5t-25.5 -40.5z" glyph-name="Itilde" unicode="Ĩ"/><glyph d="M173 0h-143v500h143v-500zM-35 552l-90 14q17 143 162 143q35 0 62 -14t47 -28.5t36 -15.5q23 -1 35.5 16t18.5 42l107 -10q-4 -66 -42.5 -108.5t-111.5 -41.5q-36 1 -61.5 14.5t-45 27.5t-39.5 15q-31 2 -52 -13.5t-26 -40.5z" glyph-name="itilde" unicode="ĩ"/><glyph d="M30 0v700h143v-700h-143zM-81 787v101h377v-101h-377z" glyph-name="Imacron" unicode="Ī"/><glyph d="M30 0v500h143v-500h-143zM-98 594v91h404v-91h-404z" glyph-name="imacron" horiz-adv-x="113" unicode="ī"/><glyph d="M57 0h-27v700h143v-700h-32q-20 -22 -32.5 -46t-15.5 -44.5t0 -37t14.5 -26t28.5 -9.5q21 0 50 16l55 -46q-18 -26 -53.5 -41t-74.5 -15q-40 0 -71.5 15.5t-48 44.5t-1.5 78.5t65 110.5z" glyph-name="Iogonek" unicode="Į"/><glyph d="M64 0h-32v500h140v-500h-24q-34 -37 -46 -76.5t-1 -64t40 -24.5q21 0 50 16l55 -46q-18 -26 -53 -40.5t-75 -14.5t-71.5 15.5t-48 44.5t-1 79t66.5 111zM174 583h-144v117h144v-117z" glyph-name="iogonek" horiz-adv-x="224" unicode="į"/><glyph d="M30 0v700h143v-700h-143zM176 781h-150v119h150v-119z" glyph-name="Idotaccent" unicode="İ"/><glyph d="M30 0v500h143v-500h-143z" glyph-name="dotlessi" unicode="ı"/><glyph d="M223 -230h-193v114h103q79 0 122.5 34.5t43.5 98.5v683h143v-700q0 -111 -62.5 -170.5t-156.5 -59.5zM173 0h-143v700h143v-700z" glyph-name="IJ" horiz-adv-x="602" unicode="Ĳ"/><glyph d="M132 -78h22q51 0 74.5 23.5t23.5 80.5v474h143v-474q0 -113 -54.5 -161t-186.5 -48h-22v105zM172 0h-140v500h140v-500zM174 583h-144v117h144v-117zM252 583v117h143v-117h-143z" glyph-name="ij" horiz-adv-x="426" unicode="ĳ"/><glyph d="M27 232l135 36q3 -59 45.5 -101.5t121.5 -42.5q70 0 118 52.5t48 146.5v377h143v-384q0 -168 -84 -245.5t-225 -77.5q-55 0 -105 12.5t-95 39t-72.5 75t-29.5 112.5zM338 781l127 161h190l127 -161h-150l-71 97l-73 -97h-150z" glyph-name="Jcircumflex" horiz-adv-x="668" unicode="Ĵ"/><glyph d="M-9 -183h-22v105h22q51 0 74.5 23.5t23.5 80.5v474h143v-474q0 -113 -54.5 -161t-186.5 -48zM-58 555l127 161h190l127 -161h-150l-21 28h-102l-21 -28h-150z" glyph-name="jcircumflex" horiz-adv-x="263" unicode="ĵ"/><glyph d="M30 0v700h143v-315q0 -35 -15 -76h2q14 39 39 67l283 324h188l-283 -325l298 -375h-188l-257 325l-67 -163v-162h-143zM227 -192l58 142h113l-77 -142h-94z" glyph-name="uni0136" horiz-adv-x="711" unicode="Ķ"/><glyph d="M174 0h-144v700h144l-3 -355q0 -35 -18 -71l2 -1q19 38 45 58l205 169h206l-242 -196l257 -303h-58v-1l-1 1h-122l-184 219l-87 -71v-149zM184 -187l58 142h113l-77 -142h-94z" glyph-name="uni0137" horiz-adv-x="652" unicode="ķ"/><glyph d="M375 502h143l-216 -231l222 -271h-143l-164 195l-78 -71v-124h-109v501h109l-1 -240z" glyph-name="kgreenlandic" horiz-adv-x="550" unicode="ĸ"/><glyph d="M30 700h143v-531q0 -36 -28 -64l2 -1q27 27 64 27h369v-131h-550v700zM42 758l58 142h161l-102 -142h-117z" glyph-name="Lacute" horiz-adv-x="603" unicode="Ĺ"/><glyph d="M35 0v728h143v-728h-143zM161 772h-117l58 142h161z" glyph-name="lacute" horiz-adv-x="213" unicode="ĺ"/><glyph d="M30 0v700h143v-531q0 -36 -28 -64l2 -1q27 27 64 27h369v-131h-550zM208 -191l58 142h112l-77 -142h-93z" glyph-name="uni013B" horiz-adv-x="603" unicode="Ļ"/><glyph d="M35 0v728h143v-728h-143zM101 -193h-94l58 142h113z" glyph-name="uni013C" horiz-adv-x="213" unicode="ļ"/><glyph d="M580 0h-550v700h143v-531q0 -36 -28 -64l2 -1q27 27 64 27h369v-131zM274 573l124 63l-42 -161h-60l-21 71z" glyph-name="Lcaron" horiz-adv-x="603" unicode="Ľ"/><glyph d="M35 0v728h143v-728h-143zM265 430l-21 71l-1 27l124 63l-42 -161h-60z" glyph-name="lcaron" horiz-adv-x="412" unicode="ľ"/><glyph d="M30 0v700h143v-531q0 -36 -28 -64l2 -1q27 27 64 27h369v-131h-550zM300 457h146v-136h-146v136z" glyph-name="Ldot" horiz-adv-x="603" unicode="Ŀ"/><glyph d="M35 0v728h143v-728h-143zM369 313h-146v136h146v-136z" glyph-name="ldot" horiz-adv-x="397" unicode="ŀ"/><glyph d="M290 446l165 63l51 -134l-216 -81v-125q0 -37 -27 -64l1 -1q27 27 64 27h369v-131h-550v240l-156 -59l-50 133l206 78v308h143v-254z" glyph-name="Lslash" horiz-adv-x="716" unicode="Ł"/><glyph d="M-59 325l209 70v333h143l-1 -284l170 57l46 -135l-215 -73v-293h-143v245l-163 -55z" glyph-name="lslash" horiz-adv-x="449" unicode="ł"/><glyph d="M173 0h-143v700h148l351 -451q26 -32 42 -78l2 1q-16 44 -16 87v441h143v-700h-148l-351 447q-25 31 -42 78l-2 -1q16 -44 16 -87v-437zM290 758l58 142h162l-103 -142h-117z" glyph-name="Nacute" horiz-adv-x="730" unicode="Ń"/><glyph d="M30 0v500h143v-119q0 -27 -8 -67l2 -1q10 48 18 65q28 64 81.5 97t108.5 33q100 0 148 -73.5t48 -206.5v-228h-142v229q0 65 -29.5 100.5t-78.5 35.5q-24 0 -47.5 -8t-47.5 -26.5t-38.5 -55.5t-14.5 -88v-187h-143zM287 558h-117l58 142h161z" glyph-name="nacute" horiz-adv-x="601" unicode="ń"/><glyph d="M173 0h-143v700h148l351 -451q26 -32 42 -78l2 1q-16 44 -16 87v441h143v-700h-148l-351 447q-25 31 -42 78l-2 -1q16 -44 16 -87v-437zM267 -190l58 142h113l-77 -142h-94z" glyph-name="uni0145" horiz-adv-x="730" unicode="Ņ"/><glyph d="M30 0v500h143v-119q0 -27 -8 -67l2 -1q10 48 18 65q28 64 81.5 97t108.5 33q100 0 148 -73.5t48 -206.5v-228h-142v229q0 65 -29.5 100.5t-78.5 35.5q-24 0 -47.5 -8t-47.5 -26.5t-38.5 -55.5t-14.5 -88v-187h-143zM289 -192h-94l58 142h113z" glyph-name="uni0146" horiz-adv-x="601" unicode="ņ"/><glyph d="M30 700h148l351 -451q26 -32 42 -78l2 1q-16 44 -16 87v441h143v-700h-148l-351 447q-25 31 -42 78l-2 -1q16 -44 16 -87v-437h-143v700zM275 781l-127 161h149l73 -98l72 98h149l-127 -161h-189z" glyph-name="Ncaron" horiz-adv-x="730" unicode="Ň"/><glyph d="M30 500h143v-119q0 -27 -8 -67l2 -1q10 48 18 65q28 64 81.5 97t108.5 33q100 0 148 -73.5t48 -206.5v-228h-142v229q0 65 -29.5 100.5t-78.5 35.5q-24 0 -47.5 -8t-47.5 -26.5t-38.5 -55.5t-14.5 -88v-187h-143v500zM86 742h150l73 -98l71 98h150l-127 -161h-190z" glyph-name="ncaron" horiz-adv-x="601" unicode="ň"/><glyph d="M30 500h143v-119q0 -27 -8 -67l2 -1q10 48 18 65q28 64 81.5 97t108.5 33q100 0 148 -73.5t48 -206.5v-228h-142v229q0 65 -29.5 100.5t-78.5 35.5q-24 0 -47.5 -8t-47.5 -26.5t-38.5 -55.5t-14.5 -88v-187h-143v500zM264 734l125 63l-43 -161h-59l-22 71z" glyph-name="napostrophe" horiz-adv-x="601" unicode="ŉ"/><glyph d="M386 -7q-159 0 -261.5 91.5t-102.5 265.5q0 175 102.5 267t261.5 90t261.5 -93t102.5 -264q0 -117 -50 -199t-130.5 -120t-183.5 -38zM165 350q0 -102 66 -164t155 -62q92 0 156 61.5t64 164.5q0 102 -65.5 163.5t-154.5 62.5q-88 1 -154.5 -61.5t-66.5 -164.5zM597 794 h-404v91h404v-91z" glyph-name="Omacron" horiz-adv-x="772" unicode="Ō"/><glyph d="M329 -6q-132 0 -219.5 66t-87.5 190t88 190.5t219 65.5t218.5 -67t87.5 -189q0 -124 -87.5 -190t-218.5 -66zM329 392q-67 1 -115.5 -38.5t-48.5 -103.5q0 -67 46 -104t118 -37q69 0 116 38t47 103t-47.5 103.5t-115.5 38.5zM128 685h404v-91h-404v91z" glyph-name="omacron" horiz-adv-x="657" unicode="ō"/><glyph d="M386 -7q-159 0 -261.5 91.5t-102.5 265.5q0 175 102.5 267t261.5 90t261.5 -93t102.5 -264q0 -117 -50 -199t-130.5 -120t-183.5 -38zM386 576q-88 1 -154.5 -61.5t-66.5 -164.5t66 -164t155 -62q92 0 156 61.5t64 164.5q0 102 -65.5 163.5t-154.5 62.5zM386 752 q-95 0 -141.5 54t-46.5 129h112q0 -38 17.5 -65t58.5 -27q40 0 58 27t18 65h112q0 -75 -46.5 -129t-141.5 -54z" glyph-name="Obreve" horiz-adv-x="772" unicode="Ŏ"/><glyph d="M329 -6q-132 0 -219.5 66t-87.5 190t88 190.5t219 65.5t218.5 -67t87.5 -189q0 -124 -87.5 -190t-218.5 -66zM329 392q-67 1 -115.5 -38.5t-48.5 -103.5q0 -67 46 -104t118 -37q69 0 116 38t47 103t-47.5 103.5t-115.5 38.5zM141 735h112q0 -38 17.5 -65t58.5 -27 q40 0 57.5 27t17.5 65h112q0 -76 -46 -129.5t-141 -53.5t-141.5 54t-46.5 129z" glyph-name="obreve" horiz-adv-x="657" unicode="ŏ"/><glyph d="M386 -7q-159 0 -261.5 91.5t-102.5 265.5q0 175 102.5 267t261.5 90t261.5 -93t102.5 -264q0 -117 -50 -199t-130.5 -120t-183.5 -38zM165 350q0 -102 66 -164t155 -62q92 0 156 61.5t64 164.5q0 102 -65.5 163.5t-154.5 62.5q-88 1 -154.5 -61.5t-66.5 -164.5zM329 758 h-111l58 142h164zM525 758h-111l58 142h164z" glyph-name="Ohungarumlaut" horiz-adv-x="772" unicode="Ő"/><glyph d="M329 -6q-132 0 -219.5 66t-87.5 190t88 190.5t219 65.5t218.5 -67t87.5 -189q0 -124 -87.5 -190t-218.5 -66zM329 392q-67 1 -115.5 -38.5t-48.5 -103.5q0 -67 46 -104t118 -37q69 0 116 38t47 103t-47.5 103.5t-115.5 38.5zM466 558h-111l58 142h165zM270 558h-111 l58 142h165z" glyph-name="ohungarumlaut" horiz-adv-x="657" unicode="ő"/><glyph d="M402 -7q-107 0 -191.5 38t-136.5 120t-52 199t52 200t136.5 120.5t191.5 36.5q87 -1 166.5 -42t124.5 -117v152h500v-131h-368l1 -167h305v-111h-305v-160h367v-131h-500v141q-42 -66 -124 -107t-167 -41zM202 350q0 -116 72.5 -185t184.5 -69q94 0 165 70.5t71 183.5 q0 114 -71 183.5t-165 70.5q-115 2 -186 -67t-71 -187z" glyph-name="OE" horiz-adv-x="1218" unicode="Œ"/><glyph d="M308 -6q-122 0 -204 66t-82 190t82 190.5t204 65.5q75 -1 143 -35t95 -86q21 51 95.5 86.5t149.5 34.5q119 -1 189 -65.5t70 -190.5q0 -6 -4 -23h-450q1 -52 47.5 -89t117.5 -36q111 0 148 79l129 -13q-21 -76 -90.5 -124.5t-156.5 -49.5q-75 -1 -142.5 28.5t-102.5 81.5 q-37 -51 -100.5 -80.5t-137.5 -29.5zM164 250q0 -77 49 -115.5t126 -38.5q162 0 162 154q0 69 -46 111.5t-116 42.5q-73 1 -124 -42.5t-51 -111.5zM766 404q-70 1 -119.5 -47.5t-50.5 -129.5q45 70 149 70q62 -1 170 0q1 44 -39 75.5t-110 31.5z" glyph-name="oe" horiz-adv-x="1067" unicode="œ"/><glyph d="M174 0h-144v700h387q123 0 189.5 -47.5t66.5 -144.5q0 -51 -19 -77.5t-53 -45.5q-34 -28 -106 -36l1 -2q30 4 52 4q39 0 60 -13q32 -16 51.5 -51t19.5 -112l1 -175h-143v171q0 67 -83 67l-280 -1v-237zM401 582h-227v-224h203q69 0 119 30t50 81q0 113 -145 113zM261 758 l58 142h161l-102 -142h-117z" glyph-name="Racute" horiz-adv-x="707" unicode="Ŕ"/><glyph d="M30 336q0 85 39 124.5t125 39.5h233v-131l-187 -1q-42 0 -54.5 -14.5t-12.5 -65.5v-288h-143v336zM158 558l58 142h161l-102 -142h-117z" glyph-name="racute" horiz-adv-x="452" unicode="ŕ"/><glyph d="M174 0h-144v700h387q123 0 189.5 -47.5t66.5 -144.5q0 -51 -19 -77.5t-53 -45.5q-34 -28 -106 -36l1 -2q30 4 52 4q39 0 60 -13q32 -16 51.5 -51t19.5 -112l1 -175h-143v171q0 67 -83 67l-280 -1v-237zM401 582h-227v-224h203q69 0 119 30t50 81q0 113 -145 113z M251 -191l58 142h113l-77 -142h-94z" glyph-name="uni0156" horiz-adv-x="707" unicode="Ŗ"/><glyph d="M30 336q0 85 39 124.5t125 39.5h233v-131l-187 -1q-42 0 -54.5 -14.5t-12.5 -65.5v-288h-143v336zM50 -192l58 142h113l-77 -142h-94z" glyph-name="uni0157" horiz-adv-x="452" unicode="ŗ"/><glyph d="M30 700h387q123 0 189.5 -47.5t66.5 -144.5q0 -51 -19 -77.5t-53 -45.5q-34 -28 -106 -36l1 -2q30 4 52 4q39 0 60 -13q32 -16 51.5 -51t19.5 -112l1 -175h-143v171q0 67 -83 67l-280 -1v-237h-144v700zM174 358h203q69 0 119 30t50 81q0 113 -145 113h-227v-224z M248 781l-127 161h150l72 -98l72 98h150l-127 -161h-190z" glyph-name="Rcaron" horiz-adv-x="707" unicode="Ř"/><glyph d="M30 336q0 85 39 124.5t125 39.5h233v-131l-187 -1q-42 0 -54.5 -14.5t-12.5 -65.5v-288h-143v336zM10 742h150l72 -98l72 98h150l-127 -161h-190z" glyph-name="rcaron" horiz-adv-x="452" unicode="ř"/><glyph d="M32 220l138 7q6 -98 171 -100q194 -3 194 95q0 29 -37 46t-92 22.5t-119.5 16.5t-119.5 27t-92 56t-37 101q0 76 44.5 127t113 72t157.5 20q132 -2 213 -54t85 -156l-135 -7q-3 45 -42.5 65.5t-120.5 20.5q-82 0 -127 -22.5t-45 -64.5q0 -27 37 -41.5t92 -19t119.5 -15 t119.5 -26.5t92 -57.5t37 -103.5q0 -42 -15 -79.5t-50 -74t-104.5 -58.5t-165.5 -22q-303 0 -311 225zM282 758l58 142h161l-102 -142h-117z" glyph-name="Sacute" horiz-adv-x="710" unicode="Ś"/><glyph d="M23 154l141 17q7 -77 140 -77q132 0 132 69q0 20 -41.5 29t-101 14t-119 15t-101 42t-41.5 86q0 50 31 84.5t81 49t87.5 19.5t73.5 5q42 0 84.5 -8.5t82 -25.5t65.5 -47.5t28 -69.5l-127 -14q-8 64 -137 64q-64 0 -95 -14t-31 -49q0 -20 41.5 -29t101 -13.5t119 -14.5 t101 -41.5t41.5 -84.5t-32 -89.5t-83 -51.5t-89.5 -20t-76.5 -5q-25 0 -54 3t-69 13.5t-71.5 27t-55 47t-25.5 69.5zM232 558l58 142h161l-102 -142h-117z" glyph-name="sacute" horiz-adv-x="602" unicode="ś"/><glyph d="M29 220l139 7q6 -98 170 -100q195 -3 195 95q0 29 -37 46t-92 22.5t-119.5 16.5t-119.5 27t-92 56t-37 101q0 112 88.5 166.5t225.5 52.5q132 -2 213 -54t86 -156l-135 -7q-4 45 -43.5 65.5t-120.5 20.5q-82 0 -126.5 -22.5t-44.5 -64.5q0 -23 27.5 -36.5t71 -20 t96.5 -11.5t106 -16.5t96.5 -30t71 -56.5t27.5 -92q0 -42 -15 -79.5t-50 -74t-104 -58.5t-165 -22q-304 0 -312 225zM276 781h-150l127 161h190l127 -161h-150l-72 97z" glyph-name="Scircumflex" horiz-adv-x="705" unicode="Ŝ"/><glyph d="M23 154l141 17q7 -77 140 -77q132 0 132 69q0 20 -41.5 29t-101 14t-119 15t-101 42t-41.5 86q0 50 31 84.5t81 49t87.5 19.5t73.5 5q42 0 84.5 -8.5t82 -25.5t65.5 -47.5t28 -69.5l-127 -14q-8 64 -137 64q-64 0 -95 -14t-31 -49q0 -20 41.5 -29t101 -13.5t119 -14.5 t101 -41.5t41.5 -84.5t-32 -89.5t-83 -51.5t-89.5 -20t-76.5 -5q-25 0 -54 3t-69 13.5t-71.5 27t-55 47t-25.5 69.5zM232 581h-150l127 161h190l127 -161h-150l-71 97z" glyph-name="scircumflex" horiz-adv-x="602" unicode="ŝ"/><glyph d="M29 220l139 7q6 -98 170 -100q195 -3 195 95q0 29 -37 46t-92 22.5t-119.5 16.5t-119.5 27t-92 56t-37 101q0 112 88.5 166.5t225.5 52.5q132 -2 213 -54t86 -156l-135 -7q-4 45 -43.5 65.5t-120.5 20.5q-82 0 -126.5 -22.5t-44.5 -64.5q0 -23 27.5 -36.5t71 -20 t96.5 -11.5t106 -16.5t96.5 -30t71 -56.5t27.5 -92q0 -38 -12.5 -73t-41 -69.5t-84.5 -58t-133 -30.5l-26 -52q43 0 69 -24.5t26 -74.5q0 -62 -42 -93.5t-103 -31.5q-45 0 -85 17t-59 46l48 56q12 -20 37 -31.5t52 -11.5q28 0 46.5 13.5t19.5 39.5q0 16 -12 26t-35.5 13.5 t-38.5 4.5t-39 1h-7l15 40l21 61q-254 18 -262 223z" glyph-name="Scedilla" horiz-adv-x="705" unicode="Ş"/><glyph d="M23 154l141 17q7 -77 140 -77q132 0 132 69q0 20 -41.5 29t-101 14t-119 15t-101 42t-41.5 86q0 50 31 84.5t81 49t87.5 19.5t73.5 5q42 0 84.5 -8.5t82 -25.5t65.5 -47.5t28 -69.5l-127 -14q-8 64 -137 64q-64 0 -95 -14t-31 -49q0 -20 41.5 -29t101 -13.5t119 -14.5 t101 -41.5t41.5 -84.5q0 -43 -20.5 -74.5t-55.5 -49t-69 -26.5t-73 -13l-26 -51q43 0 69 -24.5t26 -74.5q0 -62 -42 -93.5t-103 -31.5q-45 0 -85 17t-59 46l48 56q12 -20 37 -31.5t52 -11.5q28 0 46.5 13.5t19.5 39.5q0 16 -12 26t-35.5 13.5t-38.5 4.5t-39 1h-7l15 40 l21 61q-37 4 -71 13t-70 26t-59 47.5t-25 70.5z" glyph-name="scedilla" horiz-adv-x="602" unicode="ş"/><glyph d="M32 220l138 7q6 -98 171 -100q194 -3 194 95q0 29 -37 46t-92 22.5t-119.5 16.5t-119.5 27t-92 56t-37 101q0 76 44.5 127t113 72t157.5 20q132 -2 213 -54t85 -156l-135 -7q-3 45 -42.5 65.5t-120.5 20.5q-82 0 -127 -22.5t-45 -64.5q0 -27 37 -41.5t92 -19t119.5 -15 t119.5 -26.5t92 -57.5t37 -103.5q0 -42 -15 -79.5t-50 -74t-104.5 -58.5t-165.5 -22q-303 0 -311 225zM124 942h149l73 -98l72 98h150l-127 -161h-190z" glyph-name="Scaron" horiz-adv-x="710" unicode="Š"/><glyph d="M23 154l141 17q7 -77 140 -77q132 0 132 69q0 20 -41.5 29t-101 14t-119 15t-101 42t-41.5 86q0 50 31 84.5t81 49t87.5 19.5t73.5 5q42 0 84.5 -8.5t82 -25.5t65.5 -47.5t28 -69.5l-127 -14q-8 64 -137 64q-64 0 -95 -14t-31 -49q0 -20 41.5 -29t101 -13.5t119 -14.5 t101 -41.5t41.5 -84.5t-32 -89.5t-83 -51.5t-89.5 -20t-76.5 -5q-25 0 -54 3t-69 13.5t-71.5 27t-55 47t-25.5 69.5zM74 742h150l73 -98l72 98h149l-127 -161h-190z" glyph-name="scaron" horiz-adv-x="602" unicode="š"/><glyph d="M20 569v131h653v-131h-221q-34 0 -57 25l-2 -2q25 -23 25 -57v-535h-142v569h-256zM253 781l-127 161h150l73 -98l71 98h150l-127 -161h-190z" glyph-name="Tcaron" horiz-adv-x="693" unicode="Ť"/><glyph d="M110 371h-100v132h30q39 0 71.5 55t32.5 116h143q-1 -51 -24.5 -93t-66.5 -66q-15 -9 -66 -17v-2q49 7 68 7h205v-132h-150v-186q0 -31 14 -42.5t41 -11.5h119v-131h-140q-100 0 -138.5 48.5t-38.5 153.5v169zM367 679l-1 27l124 62l-42 -160h-60z" glyph-name="tcaron" horiz-adv-x="533" unicode="ť"/><glyph d="M276 569h-256v131h653v-131h-221q-34 0 -57 25l-2 -2q25 -23 25 -57v-124h116v-101h-116v-310h-142v310h-118v101h118v158z" glyph-name="Tbar" horiz-adv-x="693" unicode="Ŧ"/><glyph d="M253 301h133v-101h-133v-15q0 -31 14 -42.5t41 -11.5h119v-131h-140q-99 0 -137.5 48t-39.5 152h-101v101h101v70h-100v132h30q39 0 71.5 55t32.5 116h143q-1 -51 -24.5 -93t-66.5 -66q-15 -9 -66 -17v-2q49 7 68 7h205v-132h-150v-70z" glyph-name="tbar" horiz-adv-x="432" unicode="ŧ"/><glyph d="M30 315v385h143v-386q0 -88 54 -139.5t140 -51.5q88 0 139.5 49.5t51.5 141.5v386h143v-385q0 -80 -27.5 -143.5t-75 -102t-106.5 -58t-125 -19.5q-149 0 -243 80.5t-94 242.5zM300 908q45 0 87 -28.5t57 -29.5q23 -1 35.5 16t18.5 42l107 -9q-4 -67 -42.5 -109 t-111.5 -41q-46 1 -86 28.5t-60 28.5q-31 1 -51.5 -14.5t-25.5 -40.5l-91 14q19 143 163 143z" glyph-name="Utilde" horiz-adv-x="731" unicode="Ũ"/><glyph d="M30 276v229h143v-229q0 -69 31.5 -102.5t86.5 -33.5q22 0 43.5 8t43.5 26t35 55.5t13 88.5v187h143v-500h-143v115q0 27 8 67h-2q-10 -48 -18 -65q-26 -62 -74.5 -93.5t-103.5 -31.5q-206 0 -206 279zM79 565q18 143 162 143q35 0 62 -14t46.5 -28.5t35.5 -15.5 q24 -1 36.5 16t18.5 42l107 -10q-4 -67 -42.5 -109t-111.5 -41q-47 1 -86.5 28.5t-59.5 28.5q-31 1 -52 -15t-26 -40z" glyph-name="utilde" horiz-adv-x="619" unicode="ũ"/><glyph d="M30 700h143v-386q0 -88 54 -139.5t140 -51.5q88 0 139.5 49.5t51.5 141.5v386h143v-385q0 -80 -27.5 -143.5t-75 -102t-106.5 -58t-125 -19.5q-149 0 -243 80.5t-94 242.5v385zM163 885h404v-91h-404v91z" glyph-name="Umacron" horiz-adv-x="731" unicode="Ū"/><glyph d="M30 276v229h143v-229q0 -69 31.5 -102.5t86.5 -33.5q22 0 43.5 8t43.5 26t35 55.5t13 88.5v187h143v-500h-143v115q0 27 8 67h-2q-10 -48 -18 -65q-26 -62 -74.5 -93.5t-103.5 -31.5q-206 0 -206 279zM511 594h-404v91h404v-91z" glyph-name="umacron" horiz-adv-x="619" unicode="ū"/><glyph d="M30 315v385h143v-386q0 -88 54 -139.5t140 -51.5q88 0 139.5 49.5t51.5 141.5v386h143v-385q0 -80 -27.5 -143.5t-75 -102t-106.5 -58t-125 -19.5q-149 0 -243 80.5t-94 242.5zM169 935h112q0 -38 17.5 -65t58.5 -27q40 0 57.5 27t17.5 65h112q0 -76 -46 -129.5 t-141 -53.5t-141.5 54t-46.5 129z" glyph-name="Ubreve" horiz-adv-x="731" unicode="Ŭ"/><glyph d="M30 276v229h143v-229q0 -69 31.5 -102.5t86.5 -33.5q22 0 43.5 8t43.5 26t35 55.5t13 88.5v187h143v-500h-143v115q0 27 8 67h-2q-10 -48 -18 -65q-26 -62 -74.5 -93.5t-103.5 -31.5q-206 0 -206 279zM111 735h112q0 -37 17.5 -64t58.5 -27q40 0 58 27t18 64h112 q0 -75 -46.5 -129t-141.5 -54t-141.5 54t-46.5 129z" glyph-name="ubreve" horiz-adv-x="619" unicode="ŭ"/><glyph d="M30 315v385h143v-386q0 -88 54 -139.5t140 -51.5q88 0 139.5 49.5t51.5 141.5v386h143v-385q0 -80 -27.5 -143.5t-75 -102t-106.5 -58t-125 -19.5q-149 0 -243 80.5t-94 242.5zM213 850q0 44 41.5 75t102.5 31q59 0 101 -31t42 -75t-42 -75t-101 -31q-61 0 -102.5 31 t-41.5 75zM298 850q0 -19 17.5 -32.5t41.5 -13.5q23 0 40 13.5t17 32.5t-17 32.5t-40 13.5q-24 0 -41.5 -13.5t-17.5 -32.5z" glyph-name="Uring" horiz-adv-x="731" unicode="Ů"/><glyph d="M30 505h143v-229q0 -69 31.5 -102.5t86.5 -33.5q22 0 43.5 8t43.5 26t35 55.5t13 88.5v187h143v-500h-143v115q0 27 8 67h-2q-10 -48 -18 -65q-26 -62 -74.5 -93.5t-103.5 -31.5q-206 0 -206 279v229zM304 544q-61 0 -102.5 31t-41.5 75t41.5 75t102.5 31q59 0 100.5 -31 t41.5 -75t-41.5 -75t-100.5 -31zM245 650q0 -19 17 -32.5t42 -13.5q23 0 40 13.5t17 32.5t-17 32.5t-40 13.5q-25 0 -42 -13.5t-17 -32.5z" glyph-name="uring" horiz-adv-x="619" unicode="ů"/><glyph d="M30 315v385h143v-386q0 -88 54 -139.5t140 -51.5q88 0 139.5 49.5t51.5 141.5v386h143v-385q0 -80 -27.5 -143.5t-75 -102t-106.5 -58t-125 -19.5q-149 0 -243 80.5t-94 242.5zM181 758l58 142h164l-111 -142h-111zM377 758l58 142h164l-111 -142h-111z" glyph-name="Uhungarumlaut" horiz-adv-x="731" unicode="Ű"/><glyph d="M30 505h143v-229q0 -69 31.5 -102.5t86.5 -33.5q22 0 43.5 8t43.5 26t35 55.5t13 88.5v187h143v-500h-143v115q0 27 8 67h-2q-10 -48 -18 -65q-26 -62 -74.5 -93.5t-103.5 -31.5q-206 0 -206 279v229zM236 561h-112l58 142h165zM432 561h-112l58 142h165z" glyph-name="uhungarumlaut" horiz-adv-x="619" unicode="ű"/><glyph d="M30 700h143v-386q0 -88 54 -139.5t140 -51.5q88 0 139.5 49.5t51.5 141.5v386h143v-385q0 -132 -69.5 -211.5t-179.5 -102.5q-20 -33 -24.5 -63t7 -48.5t36.5 -18.5q21 0 50 16l55 -46q-18 -26 -53 -40.5t-75 -14.5q-50 0 -85 22t-42.5 67.5t40.5 116.5q-147 2 -239 82 t-92 241v385z" glyph-name="Uogonek" horiz-adv-x="731" unicode="Ų"/><glyph d="M236 -3q-206 0 -206 279v229h143v-229q0 -69 31.5 -102.5t86.5 -33.5q22 0 43.5 8t43.5 26t35 55.5t13 88.5v187h143v-500h-31q-34 -37 -46 -76.5t-1 -64t40 -24.5q21 0 50 16l55 -46q-18 -26 -53 -40.5t-75 -14.5t-71.5 15.5t-48 44.5t-1 79t66.5 111h-28v115q0 27 8 67 h-2q-10 -48 -18 -65q-26 -62 -74.5 -93.5t-103.5 -31.5z" glyph-name="uogonek" horiz-adv-x="619" unicode="ų"/><glyph d="M22 700h152l170 -511q5 -17 5 -34h2q0 24 2 35l122 510h144l121 -511q4 -14 2 -34h2q2 21 6 33l174 512h152l-240 -700h-180l-106 443v11h-2q0 -7 -1 -11l-107 -443h-178zM403 781h-149l127 161h190l127 -161h-150l-72 97z" glyph-name="Wcircumflex" horiz-adv-x="1097" unicode="Ŵ"/><glyph d="M11 500h153l120 -357q9 -24 11 -64l2 1q-2 34 6 63l99 357h232l104 -359q7 -25 7 -63h2q0 31 10 63l121 359h152l-171 -500h-228l-101 351q-9 33 -9 75h-2q0 -42 -9 -75l-97 -351h-230zM276 581l127 161h190l127 -161h-150l-72 97l-72 -97h-150z" glyph-name="wcircumflex" horiz-adv-x="1001" unicode="ŵ"/><glyph d="M17 699h175l163 -226q21 -31 21 -69h2q0 38 21 69l162 226h175l-289 -385v-314h-143v314zM155 781l127 161h190l127 -161h-150l-71 97l-73 -97h-150z" glyph-name="Ycircumflex" horiz-adv-x="752" unicode="Ŷ"/><glyph d="M44 500h156l121 -289q14 -33 14 -73h2q0 40 14 73l121 289h155l-243 -571q-29 -75 -81 -105t-108 -30h-150v105h75q32 0 69.5 11.5t47.5 38.5l20 58zM254 581h-150l127 161h190l127 -161h-150l-72 97z" glyph-name="ycircumflex" horiz-adv-x="646" unicode="ŷ"/><glyph d="M17 699h175l163 -226q21 -31 21 -69h2q0 38 21 69l162 226h175l-289 -385v-314h-143v314zM545 783h-142v117h142v-117zM348 783h-143v117h143v-117z" glyph-name="Ydieresis" horiz-adv-x="752" unicode="Ÿ"/><glyph d="M22 89l428 453q26 26 61 41l-1 2q-36 -16 -72 -16h-408v131h663v-89l-421 -452q-23 -25 -61 -42l1 -2q37 16 73 16h417v-131h-680v89zM288 758l58 142h162l-103 -142h-117z" glyph-name="Zacute" horiz-adv-x="724" unicode="Ź"/><glyph d="M586 0h-561v117l272 228q29 23 66 35v2q-41 -13 -74 -13h-254v131h547v-117l-270 -228q-30 -24 -66 -35l1 -2q41 13 74 13h265v-131zM233 560l58 142h162l-103 -142h-117z" glyph-name="zacute" horiz-adv-x="611" unicode="ź"/><glyph d="M702 0h-680v89l428 453q26 26 61 41l-1 2q-36 -16 -72 -16h-408v131h663v-89l-421 -452q-23 -25 -61 -42l1 -2q37 16 73 16h417v-131zM281 781v119h150v-119h-150z" glyph-name="Zdotaccent" horiz-adv-x="724" unicode="Ż"/><glyph d="M586 0h-561v117l272 228q29 23 66 35v2q-41 -13 -74 -13h-254v131h547v-117l-270 -228q-30 -24 -66 -35l1 -2q41 13 74 13h265v-131zM232 581v119h150v-119h-150z" glyph-name="zdotaccent" horiz-adv-x="611" unicode="ż"/><glyph d="M702 0h-680v89l428 453q26 26 61 41l-1 2q-36 -16 -72 -16h-408v131h663v-89l-421 -452q-23 -25 -61 -42l1 -2q37 16 73 16h417v-131zM137 942h150l72 -98l72 98h150l-127 -161h-190z" glyph-name="Zcaron" horiz-adv-x="724" unicode="Ž"/><glyph d="M586 0h-561v117l272 228q29 23 66 35v2q-41 -13 -74 -13h-254v131h547v-117l-270 -228q-30 -24 -66 -35l1 -2q41 13 74 13h265v-131zM94 742h150l72 -98l72 98h150l-127 -161h-190z" glyph-name="zcaron" horiz-adv-x="611" unicode="ž"/><glyph d="M27 220l138 7q6 -98 170 -100q195 -3 195 95q0 29 -37 46t-92 22.5t-119.5 16.5t-119.5 27t-92 56t-37 101q0 112 88.5 166.5t225.5 52.5q132 -2 213 -54t86 -156l-135 -7q-4 45 -43.5 65.5t-120.5 20.5q-82 0 -126.5 -22.5t-44.5 -64.5q0 -27 37 -41.5t92 -19t119.5 -15 t119.5 -26.5t92 -57.5t37 -103.5q0 -42 -15 -79.5t-50 -74t-104.5 -58.5t-165.5 -22q-305 0 -311 225zM241 -192l58 142h112l-77 -142h-93z" glyph-name="uni0218" horiz-adv-x="699" unicode="Ș"/><glyph d="M23 154l141 17q7 -77 140 -77q132 0 132 69q0 20 -41.5 29t-101 14t-119 15t-101 42t-41.5 86q0 50 31 84.5t81 49t87.5 19.5t73.5 5q42 0 84.5 -8.5t82 -25.5t65.5 -47.5t28 -69.5l-127 -14q-8 64 -137 64q-64 0 -95 -14t-31 -49q0 -20 41.5 -29t101 -13.5t119 -14.5 t101 -41.5t41.5 -84.5t-32 -89.5t-83 -51.5t-89.5 -20t-76.5 -5q-25 0 -54 3t-69 13.5t-71.5 27t-55 47t-25.5 69.5zM198 -192l58 142h113l-77 -142h-94z" glyph-name="uni0219" horiz-adv-x="601" unicode="ș"/><glyph d="M276 569h-256v131h653v-131h-221q-34 0 -57 25l-2 -2q25 -23 25 -57v-535h-142v569zM248 -192l58 142h113l-77 -142h-94z" glyph-name="uni021A" horiz-adv-x="693" unicode="Ț"/><glyph d="M119 371h-100v132h29q39 0 72 55.5t33 115.5h143q-2 -110 -92 -159q-15 -9 -65 -17v-2q47 7 67 7h205v-132h-149v-186q0 -31 14 -42.5t40 -11.5h120v-131h-141q-99 0 -137.5 48.5t-38.5 153.5v169zM259 -192h-94l58 142h113z" glyph-name="uni021B" horiz-adv-x="449" unicode="ț"/><glyph d="M16 509l158 191h99l159 -191h-135l-73 83l-72 -83h-136z" glyph-name="circumflex" horiz-adv-x="447" unicode="ˆ"/><glyph d="M238 509l-118 51l-72 140l142 -36l73 -10l67 46l47 -51z" glyph-name="caron" horiz-adv-x="432" unicode="ˇ"/><glyph d="M30 536v108h316v-108h-316z" glyph-name="uni02C9" horiz-adv-x="377" unicode="ˉ"/><glyph d="M204 541q-95 0 -141 54t-46 130h111q0 -36 17.5 -64t58.5 -28t58.5 28t17.5 64h112q0 -76 -46.5 -130t-141.5 -54z" glyph-name="breve" horiz-adv-x="409" unicode="˘"/><glyph d="M160 580h-150v120h150v-120z" glyph-name="dotaccent" horiz-adv-x="170" unicode="˙"/><glyph d="M14 650q0 44 41.5 75t102.5 31q59 0 101 -31t42 -75t-42 -75t-101 -31q-61 0 -102.5 31t-41.5 75zM108 650q0 -15 14.5 -26t35.5 -11q19 0 33.5 11t14.5 26t-14.5 26t-33.5 11q-21 0 -35.5 -11t-14.5 -26z" glyph-name="ring" horiz-adv-x="314" unicode="˚"/><glyph d="M76 4h84q-25 -27 -40 -65t-8.5 -68t38.5 -30q20 0 50 13l58 -45q-18 -26 -53 -40.5t-75 -14.5q-41 0 -72.5 15.5t-48 44.5t-1 78.5t67.5 111.5z" glyph-name="ogonek" horiz-adv-x="235" unicode="˛"/><glyph d="M101 581l-90 15q20 148 164 145q34 0 60 -14t44.5 -28t34.5 -15t27.5 8t15.5 19.5t8 27.5l110 -7q-4 -67 -43 -109t-114 -41q-46 1 -86 28.5t-60 28.5q-30 1 -48 -15.5t-23 -42.5z" glyph-name="tilde" horiz-adv-x="490" unicode="˜"/><glyph d="M198 558l58 142h165l-111 -142h-112zM107 558h-111l58 142h164z" glyph-name="hungarumlaut" horiz-adv-x="405" unicode="˝"/><glyph d="M-37 700l59 -142h-122l-103 142h166z" glyph-name="gravecomb" horiz-adv-x="0" unicode="̀"/><glyph d="M-45 558h-117l58 142h161z" glyph-name="acutecomb" horiz-adv-x="0" unicode="́"/><glyph d="M-270 581h-150l127 161h190l128 -161h-150l-72 97z" glyph-name="uni0302" horiz-adv-x="0" unicode="̂"/><glyph d="M-342 581l-90 15q18 143 162 143q35 0 62 -14t46.5 -28.5t35.5 -15.5q24 -1 36.5 16t18.5 42l107 -10q-4 -67 -42.5 -109t-111.5 -41q-47 1 -86.5 28.5t-59.5 28.5q-31 1 -52 -15t-26 -40z" glyph-name="tildecomb" horiz-adv-x="0" unicode="̃"/><glyph d="M-362 594v91h404v-91h-404z" glyph-name="uni0304" horiz-adv-x="0" unicode="̄"/><glyph d="M-361 735h112q0 -38 17.5 -65t58.5 -27q40 0 58 27t18 65h112q0 -75 -46.5 -129t-141.5 -54t-141.5 54t-46.5 129z" glyph-name="uni0306" horiz-adv-x="0" unicode="̆"/><glyph d="M16 581h-150v119h150v-119z" glyph-name="uni0307" horiz-adv-x="0" unicode="̇"/><glyph d="M44 583h-143v117h143v-117zM-154 583h-143v117h143v-117z" glyph-name="uni0308" horiz-adv-x="0" unicode="̈"/><glyph d="M-255 650q0 44 41.5 75t102.5 31q59 0 101 -31t42 -75t-42 -75t-101 -31q-61 0 -102.5 31t-41.5 75zM-170 650q0 -19 17 -32.5t42 -13.5q23 0 40 13.5t17 32.5t-17 32.5t-40 13.5q-25 0 -42 -13.5t-17 -32.5z" glyph-name="uni030A" horiz-adv-x="0" unicode="̊"/><glyph d="M-178 558l58 142h165l-112 -142h-111zM-262 558h-112l58 142h165z" glyph-name="uni030B" horiz-adv-x="0" unicode="̋"/><glyph d="M-293 581l-127 161h150l73 -98l72 98h150l-128 -161h-190z" glyph-name="uni030C" horiz-adv-x="0" unicode="̌"/><glyph d="M-147 -192h-94l58 142h113z" glyph-name="uni0326" horiz-adv-x="0" unicode="̦"/><glyph d="M-310 -225l49 56q12 -20 37 -31.5t52 -11.5q28 0 46.5 13.5t19.5 39.5q0 16 -12.5 26t-36 13.5t-38.5 4.5t-39 1h-7l16 40l27 78h115l-34 -68q43 0 69 -24.5t26 -74.5q0 -62 -42.5 -93.5t-103.5 -31.5q-45 0 -85 17t-59 46z" glyph-name="uni0327" horiz-adv-x="0" unicode="̧"/><glyph d="M-179 4h84q-20 -22 -33 -46.5t-16.5 -45t-0.5 -37.5t14 -26.5t28 -9.5q22 0 51 16l55 -46q-18 -26 -53 -40.5t-75 -14.5q-41 0 -72.5 15.5t-48 44.5t-1 78.5t67.5 111.5z" glyph-name="uni0328" horiz-adv-x="0" unicode="̨"/><glyph d="M30 -132v37v56.5v66.5v68.5v60v43.5v18v282h143v-179q0 -89 27 -130.5t89 -41.5q10 0 25 5.5t33.5 20.5t34.5 37t26.5 59t10.5 82v147h143v-500h-143v77q0 35 8 67l-2 1q-13 -50 -20 -65q-23 -46 -54 -67t-77 -21q-72 0 -101 67v-191h-143z" glyph-name="uni03BC" horiz-adv-x="592" unicode="μ"/><glyph d="M262 0l-240 700h152l170 -511q5 -17 5 -34h2q0 24 2 35l122 510h144l121 -511q4 -14 2 -34h2q2 21 6 33l174 512h152l-240 -700h-180l-106 443v11h-2q0 -7 -1 -11l-107 -443h-178zM485 758l-103 142h167l58 -142h-122z" glyph-name="Wgrave" horiz-adv-x="1097" unicode="Ẁ"/><glyph d="M177 0l-171 500h152l121 -357q8 -26 10 -64l2 1q-2 35 7 63l99 357h232l103 -359q9 -27 7 -63h2q2 39 11 63l120 359h153l-172 -500h-228l-101 351q-9 33 -9 75h-2q0 -42 -9 -75l-97 -351h-230zM460 558l-102 142h166l58 -142h-122z" glyph-name="wgrave" horiz-adv-x="995" unicode="ẁ"/><glyph d="M22 700h152l170 -511q5 -17 5 -34h2q0 24 2 35l122 510h144l121 -511q4 -14 2 -34h2q2 21 6 33l174 512h152l-240 -700h-180l-106 443v11h-2q0 -7 -1 -11l-107 -443h-178zM453 758l58 142h162l-103 -142h-117z" glyph-name="Wacute" horiz-adv-x="1097" unicode="Ẃ"/><glyph d="M177 0l-171 500h152l121 -357q8 -26 10 -64l2 1q-2 35 7 63l99 357h232l103 -359q9 -27 7 -63h2q2 39 11 63l120 359h153l-172 -500h-228l-101 351q-9 33 -9 75h-2q0 -42 -9 -75l-97 -351h-230zM413 558l58 142h161l-103 -142h-116z" glyph-name="wacute" horiz-adv-x="995" unicode="ẃ"/><glyph d="M22 700h152l170 -511q5 -17 5 -34h2q0 24 2 35l122 510h144l121 -511q4 -14 2 -34h2q2 21 6 33l174 512h152l-240 -700h-180l-106 443v11h-2q0 -7 -1 -11l-107 -443h-178zM568 900h142v-117h-142v117zM513 783h-143v117h143v-117z" glyph-name="Wdieresis" horiz-adv-x="1097" unicode="Ẅ"/><glyph d="M177 0l-171 500h152l121 -357q8 -26 10 -64l2 1q-2 35 7 63l99 357h232l103 -359q9 -27 7 -63h2q2 39 11 63l120 359h153l-172 -500h-228l-101 351q-9 33 -9 75h-2q0 -42 -9 -75l-97 -351h-230zM471 583h-143v117h143v-117zM526 700h143v-117h-143v117z" glyph-name="wdieresis" horiz-adv-x="989" unicode="ẅ"/><glyph d="M30 212v143h550v-143h-550z" glyph-name="endash" horiz-adv-x="610" unicode="–"/><glyph d="M30 228v143h850v-143h-850z" glyph-name="emdash" horiz-adv-x="910" unicode="—"/><glyph d="M20 437v216l10 47h148l-68 -263h-90z" glyph-name="quoteleft" horiz-adv-x="198" unicode="‘"/><glyph d="M48 519l-21 71l-1 27l124 63l-42 -161h-60z" glyph-name="quoteright" horiz-adv-x="198" unicode="’"/><glyph d="M33 131h154v-139q0 -62 -29 -88.5t-103 -26.5h-22v55h22q74 0 74 60h-96v139z" glyph-name="quotesinglbase" horiz-adv-x="221" unicode="‚"/><glyph d="M33 445v139q0 62 29 88.5t103 26.5h22v-55h-22q-74 0 -74 -60h96v-139h-154zM207 584q0 62 29 88.5t103 26.5h22v-55h-22q-74 0 -74 -60h96v-139h-154v139z" glyph-name="quotedblleft" horiz-adv-x="395" unicode="“"/><glyph d="M207 699h154v-138q0 -62 -29 -89t-103 -27h-22v56h22q75 0 75 60h-97v138zM33 501h22q74 0 74 60h-96v138h154v-138q0 -62 -29.5 -89t-102.5 -27h-22v56z" glyph-name="quotedblright" horiz-adv-x="391" unicode="”"/><glyph d="M75 -121h-22v56h22q74 0 74 59h-96v139h154v-139q0 -62 -29 -88.5t-103 -26.5zM227 133h154v-139q0 -62 -29 -88.5t-103 -26.5h-22v56h22q74 0 74 59h-96v139z" glyph-name="quotedblbase" horiz-adv-x="430" unicode="„"/><glyph d="M16 627h82v73h142l1 -73h78v-125h-78l-1 -158h-142v158h-82v125z" glyph-name="dagger" horiz-adv-x="334" unicode="†"/><glyph d="M24 479h97v45h-97v109h97v67h143v-67h97v-109h-97v-45h97v-109h-97v-81h-143v81h-97v109z" glyph-name="daggerdbl" horiz-adv-x="385" unicode="‡"/><glyph d="M20 273q0 77 54 131t131 54t131 -54t54 -131t-54 -131t-131 -54t-131 54t-54 131z" glyph-name="bullet" horiz-adv-x="410" unicode="•"/><glyph d="M20 163h147v-136h-147v136zM277 27v136h147v-136h-147zM535 27v136h147v-136h-147z" glyph-name="ellipsis" horiz-adv-x="717" unicode="…"/><glyph d="M208 410q-48 0 -86 16t-57.5 41.5t-29 56.5t0 62t29 56.5t57.5 41.5t86 16q49 0 87 -16t57.5 -41.5t29 -56.5t0 -62t-29 -56.5t-57.5 -41.5t-87 -16zM35 0l562 700h189l-562 -700h-189zM208 493q43 0 60.5 31t0 62t-60.5 31q-32 0 -50 -19.5t-18 -42.5t18 -42.5t50 -19.5 zM616 0q-48 0 -86 16t-57.5 41.5t-29 56.5t0 62t29 56.5t57.5 41.5t86 16q56 0 97.5 -21.5t60 -53.5t18.5 -70t-18.5 -70t-60 -53.5t-97.5 -21.5zM616 83q43 0 60.5 31t0 62t-60.5 31q-32 0 -50 -19.5t-18 -42.5t18 -42.5t50 -19.5zM1011 0q-48 0 -86 16t-57.5 41.5 t-29 56.5t0 62t29 56.5t57.5 41.5t86 16t86 -16t57.5 -41.5t29 -56.5t0 -62t-29 -56.5t-57.5 -41.5t-86 -16zM1011 83q43 0 60 31t0 62t-60 31t-60.5 -31t0 -62t60.5 -31z" glyph-name="perthousand" horiz-adv-x="1211" unicode="‰"/><glyph d="M15 328l290 165v-145l-117 -72l117 -72v-144l-290 165v103z" glyph-name="guilsinglleft" horiz-adv-x="320" unicode="‹"/><glyph d="M15 493l290 -165v-103l-290 -165v144l117 72l-117 73v144z" glyph-name="guilsinglright" horiz-adv-x="320" unicode="›"/><glyph d="M15 0l463 700h171l-463 -700h-171z" glyph-name="fraction" horiz-adv-x="664" unicode="⁄"/><glyph d="M427 -7q-181 -1 -293 90.5t-112 266.5q0 118 54 200t143.5 120t207.5 37q124 -2 219 -45t144 -126l-131 -59q-32 54 -94 80t-139 26q-83 1 -143.5 -25.5t-80.5 -83.5h241l-18 -83h-255q-6 -24 -1 -62h264l-14 -81h-217q18 -59 77.5 -93t146.5 -33q168 0 233 102l131 -60 q-49 -84 -144 -127t-219 -44z" glyph-name="Euro" horiz-adv-x="812" unicode="€"/><glyph d="M186 559v141h53l51 -82l51 82h54v-140l-51 -1v58l-37 -58h-34l-36 58v-58h-51zM21 647v53h151v-53h-50v-87h-50v87h-51z" glyph-name="trademark" horiz-adv-x="416" unicode="™"/><glyph d="M35 357l330 331l85 -86l-174 -174h459v-142h-459l174 -177l-84 -82z" glyph-name="arrowleft" horiz-adv-x="769" unicode="←"/><glyph d="M365 709l330 -331l-86 -84l-173 174v-460h-143v460l-176 -174l-83 84z" glyph-name="arrowup" horiz-adv-x="730" unicode="↑"/><glyph d="M734 357l-330 -330l-84 86l173 173h-459v143h459l-174 176l84 83z" glyph-name="arrowright" horiz-adv-x="769" unicode="→"/><glyph d="M365 8l-331 331l86 84l174 -174v460h142v-460l177 175l82 -85z" glyph-name="arrowdown" horiz-adv-x="730" unicode="↓"/><glyph d="M575 587l83 83l328 -328l-327 -327l-85 84l174 173h-484l172 -173l-82 -83l-328 327l327 327l83 -83l-172 -174l484 -1z" glyph-name="arrowboth" horiz-adv-x="1012" unicode="↔"/><glyph d="M110 375l-83 83l328 327l327 -327l-84 -84l-173 173v-472l172 173l84 -83l-327 -328l-328 328l84 83l174 -173l1 473z" glyph-name="arrowupdn" horiz-adv-x="710" unicode="↕"/><glyph d="M38 616h467l-2 -120h-245l325 -325l-101 -101l-325 325l-1 -248l-118 1v468z" glyph-name="uni2196" horiz-adv-x="620" unicode="↖"/><glyph d="M584 606v-467l-121 1v246l-324 -325l-101 101l325 324l-248 2l1 118h468z" glyph-name="uni2197" horiz-adv-x="621" unicode="↗"/><glyph d="M582 53h-467l1 121l246 -1l-325 325l101 101l324 -325l2 248l118 -1v-468z" glyph-name="uni2198" horiz-adv-x="620" unicode="↘"/><glyph d="M35 57v467l121 -1v-246l324 325l101 -101l-325 -325l248 -1l-1 -118h-468z" glyph-name="uni2199" horiz-adv-x="621" unicode="↙"/><glyph d="M250 4q-50 6 -93.5 25t-77 50t-48 79t-4.5 106q16 98 93.5 149.5t176.5 51.5q105 0 181.5 -54t72.5 -143q18 78 1 135t-49.5 95.5t-81 62t-93 33t-85.5 8.5l43 100q194 -11 288 -118t49 -312q-30 -138 -112 -205t-201 -67q-33 0 -60 4zM179 265q-13 -63 31 -109t127 -57 q61 -7 125 27.5t77 94.5q12 58 -38.5 106.5t-111.5 58.5q-72 11 -134 -23.5t-76 -97.5z" glyph-name="partialdiff" horiz-adv-x="660" unicode="∂"/><glyph d="M32 343q0 131 108 223.5t261 92.5t261 -92.5t108 -223.5q0 -132 -108 -225t-261 -93t-261 93t-108 225zM400 543q-95 0 -162 -59t-67 -142q0 -43 30 -87l294 262q-43 26 -95 26zM309 165q39 -24 90 -24q95 0 163.5 59t65.5 142q-2 54 -25 85z" glyph-name="emptyset" horiz-adv-x="802" unicode="∅"/><glyph d="M15 569v131h775v-131h-179v-569h-142v569h-130v-569h-141v569h-183z" glyph-name="product" horiz-adv-x="805" unicode="∏"/><glyph d="M609 0h-579l177 358l-177 358h579v-121h-370l117 -237l-117 -238h370v-120z" glyph-name="summation" horiz-adv-x="633" unicode="∑"/><glyph d="M30 229v131h508v-131h-508z" glyph-name="minus" horiz-adv-x="568" unicode="−"/><glyph d="M749 645l142 -221h-169l-38 63l-321 -607h-151l-196 322h162l93 -181l330 624h148z" glyph-name="radical" horiz-adv-x="914" unicode="√"/><glyph d="M211 131q-80 0 -134 48t-54 128t54 128t134 48q43 0 88 -18t73 -37.5t68 -52.5q33 26 52 39.5t51 32.5t63 27.5t64 8.5q80 0 133.5 -48.5t53.5 -127.5q0 -80 -53.5 -128t-133.5 -48q-64 0 -117 27t-113 76q-58 -49 -111.5 -76t-117.5 -27zM653 378q-11 0 -21.5 -1.5 t-22.5 -7t-19 -8.5t-20.5 -13t-17.5 -12.5t-20 -16t-18 -14.5q29 -24 45.5 -36t42.5 -22.5t52 -10.5q78 0 78 71t-79 71zM226 377q-35 0 -56 -17.5t-21 -52.5t21.5 -53t55.5 -18q25 0 50.5 11t41 22.5t44.5 35.5q-6 4 -21.5 16.5t-22 17.5t-20.5 14t-23.5 13t-22.5 7.5 t-26 3.5z" glyph-name="infinity" horiz-adv-x="883" unicode="∞"/><glyph d="M24 1h41q28 0 36.5 14.5t14.5 57.5l80 589q11 84 40 122t111 38h132v-126h-64q-22 0 -36 -9t-22 -29.5t-10.5 -33.5t-6.5 -40l-75 -549q-9 -85 -29.5 -122.5t-79.5 -37.5h-132v126z" glyph-name="integral" horiz-adv-x="503" unicode="∫"/><glyph d="M199 288q38 3 72 -8.5t54.5 -27t46 -28t48.5 -10.5q33 2 51.5 24.5t16.5 49.5l163 10q7 -87 -46 -149.5t-148 -70.5q-44 -3 -84.5 19.5t-74 41.5t-65.5 11q-23 -5 -39 -28t-14 -46l-153 -10q-11 76 40 145.5t132 76.5zM199 531q48 4 88.5 -16t72.5 -40.5t60 -17.5 q32 1 51 24t17 50l163 10q7 -87 -46 -149.5t-148 -70.5q-44 -3 -84.5 19.5t-74 41.5t-65.5 11q-23 -6 -39 -28.5t-14 -45.5l-153 -10q-11 76 40 145.5t132 76.5z" glyph-name="approxequal" horiz-adv-x="671" unicode="≈"/><glyph d="M152 138h-122v131h186l31 65h-217v132h291l65 114h124l-66 -114h132v-132h-199l-30 -65h229v-131h-301l-56 -100h-123z" glyph-name="notequal" horiz-adv-x="607" unicode="≠"/><glyph d="M16 396l334 166v-143l-159 -74l159 -75v-142l-334 166v102zM15 -42v132h336v-132h-336z" glyph-name="lessequal" horiz-adv-x="366" unicode="≤"/><glyph d="M16 270l159 75l-159 74v143l334 -166v-102l-334 -166v142zM15 90h336v-132h-336v132z" glyph-name="greaterequal" horiz-adv-x="366" unicode="≥"/><glyph d="M189 547h104l169 -220l-169 -220h-104l-169 220zM151 327l90 -125l90 125l-90 125z" glyph-name="lozenge" horiz-adv-x="482" unicode="◊"/><glyph d="M10 503h151q-13 0 -32.5 5t-41 23t-21.5 45q0 124 271 124v-110q-157 0 -157 -42q0 -21 26.5 -33t58.5 -12h185q-7 0 -22 6t-33.5 18t-32 36.5t-12.5 56.5q5 129 256 139v-120q-138 5 -145 -65q-3 -34 26.5 -52.5t60.5 -18.5h58v-132h-87v-371h-143v371h-138v-371h-142 v371h-86v132z" glyph-name="uniFB00" horiz-adv-x="617" unicode="ﬀ"/><glyph d="M10 371v132h108q-15 0 -33.5 21t-18.5 52q0 55 70 90.5t163 35.5q83 0 153.5 -31.5t105.5 -95.5l-119 -23q-55 62 -132 62q-33 0 -55.5 -13.5t-22.5 -35.5q0 -32 22 -47t54 -15h58v-132h-106v-371h-143v371h-104zM417 500h143v-500h-143v500z" glyph-name="uniFB01" horiz-adv-x="599" unicode="ﬁ"/><glyph d="M319 503h106q-15 0 -33.5 24t-18.5 55q0 55 76 92.5t173 37.5q83 0 150 -31t95 -94l-119 -23q-48 62 -124 62q-37 0 -62.5 -16t-25.5 -39q0 -32 23 -50t53 -18h58v-132h-106v-371h-142v371h-103v132zM96 0v371h-86v132h151q-24 0 -59.5 20.5t-35.5 58.5q0 55 49 87 t134 32q52 0 117 -14l-11 -105q-52 13 -91 13q-40 0 -62 -12t-22 -29q0 -22 27.5 -36.5t57.5 -14.5h54v-132h-81v-371h-142zM867 0h-143v500h143v-500z" glyph-name="uniFB03" horiz-adv-x="895" unicode="ﬃ"/><glyph d="M307 437h-90v216l10 47h148zM20 437v216l10 47h148l-68 -263h-90z" glyph-name="glyph390" horiz-adv-x="413"/><glyph d="M303 437l-68 263h148l10 -47v-216h-90zM106 437l-68 263h148l10 -47v-216h-90z" glyph-name="glyph391" horiz-adv-x="413"/></font>
</defs>
</svg>
