<svg xmlns="http://www.w3.org/2000/svg">
<defs>
<font horiz-adv-x="203" id="ywftsvg"><font-face ascent="800" bbox="-370 -288 1381 956" cap-height="700" descent="-200" font-family="" font-stretch="normal" font-weight="700" panose-1="0 0 0 0 0 0 0 0 0 0" underline-position="0" underline-thickness="0" unicode-range="U+000D-FB03" units-per-em="1000" x-height="500"/><missing-glyph d="M348 23l50 188h64q-1 -14 -5 -43.5t-6 -44.5l35 88h63l-50 -188h-43l34 127l-51 -127h-30l15 124l-33 -124h-43zM237 101l9 32q6 21 10 32t12.5 24.5t22 19.5t33.5 6q38 0 43 -24.5t-8 -57.5l-9 -32q-7 -27 -13 -42t-22.5 -27.5t-42.5 -12.5q-38 0 -43 24.5t8 57.5z M102 90l15 55q9 35 26 52.5t52 17.5q37 0 42.5 -22.5t-7.5 -57.5l-1 -6h-49l7 26q4 16 5 25l-6 3l-9 -4l-7 -19l-23 -87l-3 -18l6 -4l8 4q8 18 13 43h49l-2 -7q-9 -36 -26 -54t-52 -18q-34 0 -41.5 19t3.5 52zM405 242h-49l51 189h49q31 0 44 -13q4 -18 -4 -49 q-8 -24 -13 -34q-17 -17 -57 -17zM402 498h-42l20 129h32l-17 -88q14 40 33 88h35q-4 -25 -17 -92q13 41 33 92h33l-49 -129h-42q4 44 8 68zM561 242h-85l50 189h82l-10 -38h-33l-9 -36h30l-9 -36h-31l-11 -41h36zM198 242h-49l40 151h-29l10 38h107l-10 -38h-29zM276 268 q19 69 7 163h45q-5 -58 -8 -75q10 25 34 75h44q-80 -121 -86 -189h-45q6 14 9 26zM276 551l6 22q7 29 17.5 42.5t36.5 13.5t29.5 -16.5t-5.5 -39.5l-6 -22q-7 -28 -17.5 -41.5t-36.5 -13.5t-29.5 16t5.5 39zM169 453l6 23h449l-6 -23h-449zM589 498h-34l35 129h34 q22 0 29.5 -7t1.5 -27q-3 -11 -9 -22q-10 -5 -17 -6q7 -1 12 -6l2 -8l-4 -19l-9 -34h-31l9 32q4 16 4 24l-8 2zM182 498l34 129h34q20 0 29 -9q4 -11 -2 -33q-2 -11 -9 -23q-11 -12 -39 -12l-14 -52h-33zM544 498h-60l35 129h59l-8 -30h-26l-6 -20h27l-8 -29h-26l-5 -19h26z M275 55l5 -4l8 4l7 21l23 87l3 17l-5 3l-7 -3q-5 -14 -6 -17l-24 -88zM72 23h-36l10 38h36zM302 520l4 -3l5 3l5 15l16 59l2 11l-4 3l-4 -2q-4 -8 -5 -12zM447 398l-13 -48h4l10 4q6 11 6 13l5 16v12zM235 572h2l7 2q0 1 2 4.5t2 5.5l3 10q1 2 1 5v4l-9 2zM609 576l9 2 q0 2 2 5t3 5l2 7v8l-8 2z" horiz-adv-x="526"/><glyph d="M348 23l50 188h64q-1 -14 -5 -43.5t-6 -44.5l35 88h63l-50 -188h-43l34 127l-51 -127h-30l15 124l-33 -124h-43zM237 101l9 32q6 21 10 32t12.5 24.5t22 19.5t33.5 6q38 0 43 -24.5t-8 -57.5l-9 -32q-7 -27 -13 -42t-22.5 -27.5t-42.5 -12.5q-38 0 -43 24.5t8 57.5z M102 90l15 55q9 35 26 52.5t52 17.5q37 0 42.5 -22.5t-7.5 -57.5l-1 -6h-49l7 26q4 16 5 25l-6 3l-9 -4l-7 -19l-23 -87l-3 -18l6 -4l8 4q8 18 13 43h49l-2 -7q-9 -36 -26 -54t-52 -18q-34 0 -41.5 19t3.5 52zM405 242h-49l51 189h49q31 0 44 -13q4 -18 -4 -49 q-8 -24 -13 -34q-17 -17 -57 -17zM402 498h-42l20 129h32l-17 -88q14 40 33 88h35q-4 -25 -17 -92q13 41 33 92h33l-49 -129h-42q4 44 8 68zM561 242h-85l50 189h82l-10 -38h-33l-9 -36h30l-9 -36h-31l-11 -41h36zM198 242h-49l40 151h-29l10 38h107l-10 -38h-29zM276 268 q19 69 7 163h45q-5 -58 -8 -75q10 25 34 75h44q-80 -121 -86 -189h-45q6 14 9 26zM276 551l6 22q7 29 17.5 42.5t36.5 13.5t29.5 -16.5t-5.5 -39.5l-6 -22q-7 -28 -17.5 -41.5t-36.5 -13.5t-29.5 16t5.5 39zM169 453l6 23h449l-6 -23h-449zM589 498h-34l35 129h34 q22 0 29.5 -7t1.5 -27q-3 -11 -9 -22q-10 -5 -17 -6q7 -1 12 -6l2 -8l-4 -19l-9 -34h-31l9 32q4 16 4 24l-8 2zM182 498l34 129h34q20 0 29 -9q4 -11 -2 -33q-2 -11 -9 -23q-11 -12 -39 -12l-14 -52h-33zM544 498h-60l35 129h59l-8 -30h-26l-6 -20h27l-8 -29h-26l-5 -19h26z M275 55l5 -4l8 4l7 21l23 87l3 17l-5 3l-7 -3q-5 -14 -6 -17l-24 -88zM72 23h-36l10 38h36zM302 520l4 -3l5 3l5 15l16 59l2 11l-4 3l-4 -2q-4 -8 -5 -12zM447 398l-13 -48h4l10 4q6 11 6 13l5 16v12zM235 572h2l7 2q0 1 2 4.5t2 5.5l3 10q1 2 1 5v4l-9 2zM609 576l9 2 q0 2 2 5t3 5l2 7v8l-8 2z" glyph-name=".notdef" horiz-adv-x="526"/><glyph glyph-name="glyph1" horiz-adv-x="0"/><glyph glyph-name="glyph1" horiz-adv-x="0"/><glyph glyph-name="space" horiz-adv-x="200" unicode=" "/><glyph d="M169 192l-1 206l81 302h142l-80 -302l-112 -206h-30zM49 -8h165l36 137h-164z" glyph-name="exclam" horiz-adv-x="266" unicode="!"/><glyph d="M396 437l-6 199l17 64h157l-17 -64l-113 -199h-38zM190 636l17 64h157l-17 -64l-112 -199h-39z" glyph-name="quotedbl" horiz-adv-x="396" unicode="&quot;"/><glyph d="M169 158h-128l84 131h124l67 118h-128l87 132h123l95 161h152l-95 -161h125l95 161h152l-95 -161h179l-86 -132h-174l-68 -118h178l-84 -131h-174l-92 -158h-152l92 158h-125l-92 -158h-152zM401 289h125l67 118h-124z" glyph-name="numbersign" horiz-adv-x="877" unicode="#"/><glyph d="M105 219l136 7q-21 -86 91 -94l48 181q-34 4 -54 7.5t-47.5 10.5t-42.5 16t-30.5 24t-21 34t-5 47t9.5 63q18 67 70 112t108.5 62.5t118.5 19.5l10 35h135l-10 -36q106 -3 152 -56.5t26 -145.5l-133 -7q7 37 -13.5 58.5t-64.5 25.5l-44 -164q118 -11 179.5 -57.5 t37.5 -139.5q-29 -105 -103 -161.5t-228 -64.5l-11 -42h-135l11 42q-71 5 -116.5 25.5t-62 51t-20 68.5t8.5 78zM512 302l-45 -170q121 5 141 86q10 39 -13.5 56.5t-82.5 27.5zM413 434l39 149q-45 -3 -79.5 -24.5t-43.5 -55.5q-8 -30 12 -45.5t72 -23.5z" glyph-name="dollar" horiz-adv-x="749" unicode="$"/><glyph d="M396 700q104 0 134 -68q24 -57 -17 -123q-48 -75 -144 -94q-25 -5 -51 -5q-104 0 -134 68q-25 57 17 123q48 76 144 94q25 5 51 5zM694 290q104 0 134 -68q25 -57 -17 -123q-48 -76 -144 -94q-25 -5 -51 -5q-104 0 -134 68q-24 57 17 123q48 75 144 94q25 5 51 5zM35 0 l749 700h190l-750 -700h-189zM340 493q51 0 77 43q22 37 1 63q-14 18 -44 18q-51 0 -77 -43q-22 -37 -1 -63q14 -18 44 -18zM639 83q51 0 76 43q22 37 1 63q-14 18 -44 18q-51 0 -77 -43q-22 -37 -1 -63q14 -18 45 -18z" glyph-name="percent" horiz-adv-x="819" unicode="%"/><glyph d="M304 0q-123 0 -182.5 55t-35.5 145q11 41 35 72t59 50.5t71.5 31.5t83.5 20q-85 13 -116.5 58t-16.5 101q20 77 110 122t223 45q109 0 167.5 -19.5t103.5 -63.5l-99 -77q-65 60 -199 60q-58 0 -102.5 -24t-55.5 -64q-11 -42 18.5 -70t90.5 -28l186 -1l24 89l136 -21 l-18 -67h107l-23 -92h-108l-87 -323h-142l43 161q-32 -74 -95.5 -117t-177.5 -43zM226 200q-11 -41 17 -69.5t87 -28.5q231 0 282 188l8 32h-140q-111 -4 -173.5 -30t-80.5 -92z" glyph-name="ampersand" horiz-adv-x="802" unicode="&amp;"/><glyph d="M195 437l-6 199l17 64h157l-17 -64l-112 -199h-39z" glyph-name="quotesingle" horiz-adv-x="195" unicode="'"/><glyph d="M147 -84q-4 6 -11.5 17.5t-22.5 50t-23.5 81t-6.5 108.5t20 135t51 134.5t67 110t65 79.5t51 52l20 16h138q-7 -6 -20 -17.5t-48.5 -50t-66 -81t-64 -108.5t-51.5 -135t-20.5 -134.5t6.5 -110t21 -79.5t22 -52l11 -16h-138z" glyph-name="parenleft" horiz-adv-x="336" unicode="("/><glyph d="M136 -84h-139q8 6 20.5 17.5t48 50t66 81t64.5 108.5t52 135t20.5 134.5t-6.5 110t-21 79.5t-23 52l-10 16h138q4 -6 11.5 -17.5t22.5 -50t23.5 -81t6.5 -108.5t-20 -135t-51 -134.5t-67 -110t-65 -79.5t-51 -52z" glyph-name="parenright" horiz-adv-x="336" unicode=")"/><glyph d="M554 670l46 -97l-164 -42l142 -45l-93 -89l-86 93l-2 -141v-1h-140l82 142l-145 -88l-44 84l173 45l-149 42l100 97l87 -97l-7 135h139l-72 -135z" glyph-name="asterisk" horiz-adv-x="468" unicode="*"/><glyph d="M277 222h-193l35 132h193l44 162h142l-43 -162h191l-35 -132h-191l-46 -169h-142z" glyph-name="plus" horiz-adv-x="576" unicode="+"/><glyph d="M25 -123h-22l14 55h22q75 0 91 60h-97l38 139h154l-38 -139q-16 -62 -52 -88.5t-110 -26.5z" glyph-name="comma" horiz-adv-x="225" unicode=","/><glyph d="M79 184l39 143h423l-38 -143h-424z" glyph-name="hyphen" horiz-adv-x="484" unicode="-"/><glyph d="M198 -8h-165l37 137h164z" glyph-name="period" horiz-adv-x="237" unicode="."/><glyph d="M-11 -95l610 795h159l-609 -795h-160z" glyph-name="slash" horiz-adv-x="586" unicode="/"/><glyph d="M306 -10q-56 0 -97.5 13.5t-65 34.5t-36.5 53t-16.5 62t0.5 69t9.5 66t14.5 60t17.5 60t25.5 66t36.5 69t49.5 62t65.5 53t84 34.5t104.5 13.5t97.5 -13.5t65 -34.5t36.5 -53t16.5 -62t-0.5 -69t-9.5 -66t-14.5 -60q-13 -49 -26.5 -87t-44.5 -92.5t-69.5 -90.5 t-101.5 -62t-141 -26zM258 348q-13 -48 -16 -82.5t4 -64.5t32 -45.5t68 -15.5q145 0 200 208q56 208 -88 208q-79 0 -126 -53.5t-74 -154.5z" glyph-name="zero" horiz-adv-x="618" unicode="0"/><glyph d="M135 447l35 131q154 0 187 122h142l-187 -700h-143l133 498q10 35 29 74l-2 1q-31 -63 -40 -72q-45 -54 -154 -54z" glyph-name="one" horiz-adv-x="331" unicode="1"/><glyph d="M22 0l5 20q22 81 70.5 144.5t105.5 100t120 67t115.5 49t90.5 43.5t46 54q14 54 -16.5 78t-88.5 24q-63 0 -108.5 -33.5t-63.5 -92.5l-141 4q39 130 127 189t230 59q130 0 188 -52t31 -154q-16 -60 -51 -101.5t-82.5 -67.5t-96.5 -47t-107.5 -53.5t-102.5 -73.5 q-30 -25 -67 -40v-2q41 16 76 16h336l-35 -131h-581z" glyph-name="two" horiz-adv-x="622" unicode="2"/><glyph d="M331 -6q-141 0 -205 58.5t-36 179.5l143 4q-11 -47 23.5 -78.5t97.5 -31.5q64 0 113 30.5t62 77.5q13 48 -18 67.5t-105 20.5h-56l21 84h58q134 0 158 94q12 45 -19.5 71.5t-87.5 26.5q-60 0 -107.5 -34.5t-62.5 -81.5l-140 4q32 111 123 165.5t226 53.5q119 -1 172 -46 t28 -136q-16 -59 -71 -93t-120 -36v-2q50 2 72 -7q50 -17 65 -53.5t-4 -116.5q-28 -107 -114.5 -164t-215.5 -57z" glyph-name="three" horiz-adv-x="632" unicode="3"/><glyph d="M61 171l21 78l459 451h165l-108 -406h117l-18 -123h-95q-37 0 -56 27l-2 -1q20 -26 10 -64l-35 -133h-145l46 171h-359zM522 552l-228 -250h161z" glyph-name="four" horiz-adv-x="673" unicode="4"/><glyph d="M329 -4q-297 0 -240 241l142 3q-17 -71 18 -106t108 -35q165 0 200 131q18 67 -15 101t-94 34q-45 0 -90.5 -19.5t-71.5 -51.5h-181l147 406h538l-27 -116h-431l-39 -134q-13 -34 -39 -62l2 -2q26 32 57 45q94 38 183 38q114 0 175 -62t30 -177q-33 -122 -132 -178 t-240 -56z" glyph-name="five" horiz-adv-x="662" unicode="5"/><glyph d="M337 -4q-146 0 -209.5 79.5t-21.5 237.5q46 173 161 282.5t280 109.5q57 0 102 -13.5t71 -36t43 -51t17.5 -58.5t-4.5 -59l-155 -7q-10 100 -101 100q-75 0 -145.5 -56t-112.5 -179q-10 -33 -29 -70l2 -1q25 50 39 64q41 45 105.5 70t132.5 25q103 0 165 -55t35 -156 q-31 -114 -136 -170t-239 -56zM234 222q-15 -55 20 -87t113 -32q170 0 202 119q14 52 -18 85.5t-111 34.5q-69 1 -130.5 -33t-75.5 -87z" glyph-name="six" horiz-adv-x="674" unicode="6"/><glyph d="M271 -3h-165l457 543q23 27 60 44l-1 2q-36 -17 -72 -17h-381l35 131h610l-23 -86z" glyph-name="seven" horiz-adv-x="647" unicode="7"/><glyph d="M337 -6q-139 0 -214 53t-48 153q29 109 155 158q30 14 73 8v2q-50 7 -70 23q-60 44 -37 127q25 91 115.5 139.5t215.5 47.5q126 -1 191 -49t41 -138q-17 -64 -69.5 -105.5t-118.5 -41.5v-2q48 0 73 -14q94 -49 66 -155q-27 -99 -130.5 -152.5t-242.5 -53.5zM225 220 q-15 -54 25 -82.5t118 -28.5q75 0 132 27.5t72 83.5q15 55 -26 76.5t-122 22.5q-172 2 -199 -99zM329 503q-14 -50 19 -73.5t99 -23.5q145 0 171 97q15 55 -17.5 78.5t-99.5 23.5q-145 0 -172 -102z" glyph-name="eight" horiz-adv-x="677" unicode="8"/><glyph d="M314 -4q-138 0 -197.5 57t-41.5 146l159 9q-1 -49 28 -71t98 -21q67 2 138 66t109 163q13 37 30 70l-2 1q-21 -45 -38 -65q-42 -54 -104 -81.5t-127 -27.5q-108 0 -176 66t-40 171q22 81 82 133t136 72.5t171 20.5q158 0 214.5 -74.5t11.5 -242.5q-21 -80 -60.5 -149.5 t-95 -124.5t-132 -86.5t-163.5 -31.5zM307 478q-17 -64 27 -93t118 -30q57 -1 117 36.5t73 86.5q12 45 -22 85t-101 40q-75 0 -135 -30t-77 -95z" glyph-name="nine" horiz-adv-x="688" unicode="9"/><glyph d="M265 312h-146l37 136h146zM189 26h-146l36 137h147z" glyph-name="colon" horiz-adv-x="218" unicode=":"/><glyph d="M18 -89l15 55h22q74 0 90 60h-96l37 139h154l-37 -139q-17 -62 -53 -88.5t-110 -26.5h-22zM280 313h-154l36 135h154z" glyph-name="semicolon" horiz-adv-x="228" unicode=";"/><glyph d="M99 328l379 165l-38 -140l-181 -77l140 -76l-37 -140l-290 165z" glyph-name="less" horiz-adv-x="352" unicode="&lt;"/><glyph d="M118 329l35 131h528l-35 -131h-528zM59 108l35 131h528l-35 -131h-528z" glyph-name="equal" horiz-adv-x="595" unicode="="/><glyph d="M438 328l-28 -103l-378 -165l37 140l181 76l-140 77l38 140z" glyph-name="greater" horiz-adv-x="365" unicode=">"/><glyph d="M149 500q25 95 116 150.5t213 55.5q125 0 181.5 -51.5t29.5 -154.5q-13 -48 -44.5 -79.5t-69.5 -48t-75.5 -33.5t-69.5 -49t-45 -81l-4 -17h-143l5 17q18 66 52.5 113t73 70.5t75 40.5t64 36t34.5 44q11 43 -12.5 67t-78.5 24q-60 0 -102.5 -28t-56.5 -76h-143zM175 1 l37 136h164l-36 -136h-165z" glyph-name="question" horiz-adv-x="597" unicode="?"/><glyph d="M827 -51q-211 -57 -367 -57q-222 0 -314.5 111t-37.5 317q47 176 213 289.5t382 113.5q229 0 309.5 -108t30.5 -295q-33 -120 -106.5 -178.5t-153.5 -58.5q-47 0 -82 19t-46 50q-8 21 11 72l-2 1q-16 -44 -40 -61q-65 -50 -143 -50q-84 0 -131 50.5t-25 132.5 q22 85 98 138.5t159 53.5q77 0 113 -31q15 -14 25 -62l2 1q-7 36 2 66l3 13h128l-48 -176q-10 -39 -4.5 -61t22.5 -22q21 0 46.5 37.5t45.5 109.5q27 101 -29 166t-194 65q-167 0 -288.5 -73.5t-155.5 -201.5q-40 -150 37 -230t252 -80q137 0 318 49zM458 298 q-13 -50 12 -78t84 -28q96 0 128 116q16 58 -4 80.5t-66 22.5q-53 0 -96.5 -30t-57.5 -83z" glyph-name="at" horiz-adv-x="975" unicode="@"/><glyph d="M176 0h-154l451 700h190l76 -700h-153l-20 144l-296 -1zM525 546l-184 -284q129 0 155 -7q46 -13 69 -92z" glyph-name="A" horiz-adv-x="761" unicode="A"/><glyph d="M391 0h-366l188 700h336q118 0 170.5 -43.5t28.5 -133.5q-7 -27 -39.5 -59t-80.5 -51q-21 -9 -54 -9v-2q38 0 54 -5q63 -19 80 -67.5t-4 -118.5q-57 -211 -313 -211zM204 131h235q47 0 84 23.5t49 66.5q10 36 -10 55.5t-65 19.5h-249zM322 572l-45 -167h230q93 0 116 84 q11 42 -16.5 62.5t-78.5 20.5h-206z" glyph-name="B" horiz-adv-x="669" unicode="B"/><glyph d="M116 350q47 176 171 267.5t283 89.5q132 -2 208.5 -64t74.5 -182l-149 -33q0 58 -45 96.5t-128 39.5q-104 0 -175 -58t-97 -156q-27 -99 15.5 -156.5t141.5 -57.5q87 1 151.5 39.5t95.5 97.5l130 -34q-62 -120 -172 -182t-242 -64q-160 -2 -235 89.5t-28 267.5z" glyph-name="C" horiz-adv-x="750" unicode="C"/><glyph d="M354 0h-324l188 700h324q100 0 168.5 -38t97 -115.5t-3.5 -196.5q-31 -115 -101.5 -195.5t-159.5 -117.5t-189 -37zM317 537q-3 -11 -21 -79t-44 -165t-43 -161h192q77 0 154 55t106 163q28 105 -19 162t-124 57h-278q86 0 77 -32z" glyph-name="D" horiz-adv-x="738" unicode="D"/><glyph d="M813 700l-35 -131h-453l-46 -172h424l-30 -111h-424l-41 -155h453l-35 -131h-596l188 700h595z" glyph-name="E" horiz-adv-x="653" unicode="E"/><glyph d="M30 0l188 700h574l-35 -131h-407q-24 0 -39 20l-2 -1q16 -21 10 -44l-40 -147h406l-30 -111h-378q-26 0 -44 23l-1 -1q18 -25 10 -49l-69 -259h-143z" glyph-name="F" horiz-adv-x="632" unicode="F"/><glyph d="M362 -7q-159 0 -226 90t-20 267q47 176 171.5 267.5t285.5 89.5q133 -2 210.5 -64t75.5 -182l-141 -37q-6 71 -58.5 111t-121.5 41q-91 0 -170.5 -59.5t-108.5 -166.5q-28 -106 16 -166t137 -60q59 0 109 45t72 96h-97l29 106h248q72 0 54 -69q-4 -15 -81 -302h-140 l71 265h-14q-45 -149 -117.5 -210.5t-183.5 -61.5z" glyph-name="G" horiz-adv-x="769" unicode="G"/><glyph d="M30 0l188 700h142l-74 -278h367l74 278h143l-187 -700h-143l75 279h-368l-74 -279h-143z" glyph-name="H" horiz-adv-x="713" unicode="H"/><glyph d="M30 0l188 700h142l-187 -700h-143z" glyph-name="I" unicode="I"/><glyph d="M327 -7q-55 0 -101.5 12t-85.5 40t-51.5 73.5t0.5 113.5l145 36q-13 -59 18 -101.5t110 -42.5q71 0 133 52.5t87 146.5l101 377h143l-103 -384q-23 -86 -63.5 -150t-93.5 -101t-112 -54.5t-127 -17.5z" glyph-name="J" horiz-adv-x="668" unicode="J"/><glyph d="M30 0l188 700h142l-84 -315q-9 -36 -35 -76h2q25 39 56 67l371 324h187l-370 -325l198 -375h-188l-170 325l-111 -163l-43 -162h-143z" glyph-name="K" horiz-adv-x="711" unicode="K"/><glyph d="M30 0l188 700h142l-142 -531q-9 -36 -44 -64l1 -1q34 27 71 27h369l-35 -131h-550z" glyph-name="L" horiz-adv-x="604" unicode="L"/><glyph d="M30 0l188 700h151l92 -485q5 -17 -1 -35l2 -1q6 23 14 32l355 489h151l-187 -699l-143 -1l93 348q18 63 48 125l-2 1q-34 -69 -68 -115l-257 -359h-107l-62 347q-13 62 -11 133h-2q-2 -68 -18 -132l-93 -348h-143z" glyph-name="M" horiz-adv-x="825" unicode="M"/><glyph d="M30 0l188 700h148l230 -451q18 -34 21 -78l2 1q-3 43 8 87l118 441h143l-188 -700h-148l-231 447q-17 33 -21 78l-2 -1q3 -43 -8 -87l-117 -437h-143z" glyph-name="N" horiz-adv-x="730" unicode="N"/><glyph d="M384 -7q-103 0 -173 39t-99 118t4 200q47 175 174 267t285 90q103 -1 173 -39.5t99 -117.5t-4 -200q-31 -117 -103 -199t-162.5 -120t-193.5 -38zM259 350q-27 -102 22 -164t138 -62q93 0 173 61.5t108 164.5q27 102 -22 163.5t-138 62.5q-88 1 -171 -61.5t-110 -164.5z " glyph-name="O" horiz-adv-x="772" unicode="O"/><glyph d="M30 0l188 700h359q121 0 172.5 -59.5t21.5 -170.5q-24 -91 -114 -162t-204 -71h-217l-63 -237h-143zM329 582l-63 -233h197q52 0 101.5 35t62.5 82q15 56 -15 86t-87 30h-196z" glyph-name="P" horiz-adv-x="672" unicode="P"/><glyph d="M383 -7q-103 0 -172.5 39t-98.5 118t4 200q47 175 174 267t285 90q103 -1 172.5 -39.5t98.5 -117.5t-4 -200q-28 -105 -96.5 -170t-176.5 -99l1 -2q39 13 72 19l165 32l-37 -137h-387zM259 350q-27 -102 20 -158t143 -56q103 0 177.5 59t99.5 155q28 102 -22 158t-141 56 q-92 1 -171 -55.5t-106 -158.5z" glyph-name="Q" horiz-adv-x="791" unicode="Q"/><glyph d="M30 0l188 700h386q123 0 177 -47.5t28 -144.5q-14 -51 -40 -77.5t-65 -45.5q-41 -27 -115 -36l-1 -2q32 4 54 4q39 0 56 -13q13 -7 21.5 -16.5t15 -27.5t4.5 -48t-13 -71l-46 -175h-143l46 171q17 67 -65 67l-281 -1l-63 -237h-144zM330 582l-60 -224h203q69 0 127 30 t72 81q16 62 -15 87.5t-100 25.5h-227z" glyph-name="R" horiz-adv-x="707" unicode="R"/><glyph d="M87 220l141 7q-11 -50 27 -74.5t116 -25.5q194 -3 220 95q7 25 -16.5 41t-65 23t-93 13t-101.5 17.5t-88.5 30t-56 55t-3.5 89.5q30 112 133 166.5t240 52.5q131 -2 198 -54t44 -156l-137 -7q8 45 -25.5 65.5t-114.5 20.5q-82 0 -133 -22.5t-62 -64.5q-6 -23 17.5 -36.5 t65.5 -20t93.5 -11.5t101.5 -16.5t89 -30t56 -56.5t3 -92q-9 -33 -25.5 -63t-48.5 -62t-74 -55.5t-106.5 -38.5t-142.5 -15q-71 0 -122.5 12.5t-79 34t-43 50t-14.5 61t7 67.5z" glyph-name="S" horiz-adv-x="701" unicode="S"/><glyph d="M428 569h-256l36 131h653l-35 -131h-221q-34 0 -51 25l-2 -2q19 -24 9 -57l-143 -535h-142z" glyph-name="T" horiz-adv-x="693" unicode="T"/><glyph d="M114 315l104 385h142l-103 -386q-24 -88 16.5 -139.5t126.5 -51.5q87 0 152 49.5t90 141.5l103 386h143l-103 -385q-42 -157 -161 -240t-259 -83q-149 0 -221.5 80.5t-29.5 242.5z" glyph-name="U" horiz-adv-x="727" unicode="U"/><glyph d="M275 0l-65 700h151l52 -570q1 -12 -3 -33l2 -1q3 16 12 32l360 572h153l-441 -700h-221z" glyph-name="V" horiz-adv-x="771" unicode="V"/><glyph d="M262 0l-52 700h151l33 -511q1 -13 -3 -34h2q4 19 11 35l259 510h144l-16 -511q0 -11 -7 -34h2q7 22 14 33l311 512h152l-427 -700h-180l13 443q0 5 2 11h-2q0 -1 -1 -5t-2 -6l-226 -443h-178z" glyph-name="W" horiz-adv-x="1098" unicode="W"/><glyph d="M205 -1h-182l357 353l-166 347h183l103 -212q7 -15 4 -32l2 -1q2 17 14 29l224 216h186l-364 -346l182 -354h-185l-112 216q-6 13 -4 32h-2q-2 -18 -14 -29z" glyph-name="X" horiz-adv-x="766" unicode="X"/><glyph d="M388 314l-184 385h175l102 -226q14 -29 3 -69h2q10 38 39 69l223 226h175l-392 -385l-84 -314h-143z" glyph-name="Y" horiz-adv-x="749" unicode="Y"/><glyph d="M22 0l24 89l549 453q31 25 72 41v2q-41 -16 -76 -16h-408l35 131h663l-24 -89l-542 -452q-30 -26 -72 -42v-2q41 16 77 16h417l-35 -131h-680z" glyph-name="Z" horiz-adv-x="724" unicode="Z"/><glyph d="M-5 -132l223 832h331l-35 -131h-151q-36 0 -60 31l-2 -2q24 -30 14 -66l-133 -496q-10 -35 -40 -59l1 -2q31 24 67 24h151l-35 -131h-331z" glyph-name="bracketleft" horiz-adv-x="392" unicode="["/><glyph d="M545 -95h-159l-183 795h159z" glyph-name="backslash" horiz-adv-x="603" unicode="\"/><glyph d="M-5 -132l35 131h151q37 0 60 -30l1 1q-24 30 -14 66l133 496q9 34 41 59l-1 2q-31 -24 -68 -24h-151l36 131h331l-223 -832h-331z" glyph-name="bracketright" horiz-adv-x="391" unicode="]"/><glyph d="M316 500h-157l224 300h290l64 -300h-157l-56 246q-4 22 1 48h-2q-6 -26 -18 -43z" glyph-name="asciicircum" horiz-adv-x="628" unicode="^"/><glyph d="M16 -126l36 132h424l-36 -132h-424z" glyph-name="underscore" horiz-adv-x="524" unicode="_"/><glyph d="M328 700l20 -142h-118l-64 142h162z" glyph-name="grave" horiz-adv-x="189" unicode="`"/><glyph d="M462 127q-34 -61 -100 -93.5t-138 -32.5q-80 0 -128.5 38t-31.5 103q16 61 67 95t112 41.5t120.5 8.5t102.5 6.5t48 25.5q9 41 -19 60t-92 19q-130 0 -158 -77l-122 7q19 59 71 100t112.5 58.5t124.5 16.5q54 0 96.5 -10t77.5 -32.5t45 -60t-2 -93.5l-38 -143 q-5 -19 0.5 -25.5t24.5 -6.5h26l-36 -132h-98q-41 0 -63 26t-12 62zM207 146q-8 -30 16 -45t67 -15q60 0 117.5 25.5t68.5 65.5l14 55q-28 -17 -96.5 -18.5t-121.5 -13t-65 -54.5z" glyph-name="a" horiz-adv-x="652" unicode="a"/><glyph d="M30 0l188 700h142l-71 -267q-9 -32 -30 -68l2 -1q25 43 44 60q43 37 104 60t111 22q257 -2 189 -256q-68 -256 -326 -256q-49 0 -95.5 19.5t-71.5 51.5q-16 22 -20 72l-2 -1q4 -42 -5 -74l-16 -62h-143zM240 250q-16 -62 22.5 -101.5t112.5 -39.5q83 0 128.5 36t63.5 105 q39 147 -114 148q-73 1 -134.5 -42t-78.5 -106z" glyph-name="b" horiz-adv-x="668" unicode="b"/><glyph d="M89 250q33 124 137.5 190.5t234.5 65.5q103 -1 171.5 -53t55.5 -147l-134 -8q-3 44 -33.5 70t-89.5 27q-73 0 -127 -39t-72 -106q-18 -66 15.5 -105.5t106.5 -38.5q115 3 173 93l130 -8q-37 -94 -133 -145t-200 -52q-130 -1 -199 65.5t-36 190.5z" glyph-name="c" horiz-adv-x="627" unicode="c"/><glyph d="M283 -6q-126 0 -175 64t-14 192q68 254 326 256q50 1 97 -21t71 -58q14 -20 16 -66h2q-2 40 7 74l71 265h143l-188 -700h-143l17 61q10 37 32 73l-1 1q-30 -48 -52 -66q-42 -34 -100.5 -54.5t-108.5 -20.5zM235 250q-38 -141 117 -141q74 0 134.5 39.5t76.5 101.5 q17 63 -22 106t-112 42q-155 -1 -194 -148z" glyph-name="d" horiz-adv-x="669" unicode="d"/><glyph d="M325 -6q-131 -1 -200 65.5t-36 190.5t137.5 190.5t235.5 65.5q129 -1 192 -66t30 -190q-2 -8 -4.5 -15.5t-4.5 -12.5h-447q-7 -56 29.5 -88.5t99.5 -31.5q63 0 103 17t69 64l130 -7q-52 -101 -135.5 -141t-198.5 -41zM228 222q22 39 46 53t59 14h233q9 58 -26.5 86.5 t-100.5 29.5q-30 0 -61 -10t-62 -30.5t-54.5 -57.5t-33.5 -85z" glyph-name="e" horiz-adv-x="652" unicode="e"/><glyph d="M110 371l35 132h114q27 0 67 -10v2q-53 14 -63 24q-29 29 -20 63q10 37 38.5 61.5t100 40.5t185.5 16l-31 -114q-154 0 -165 -41q-5 -20 12 -31t47 -11h83l-35 -132h-119l-99 -371h-143l99 371h-106z" glyph-name="f" horiz-adv-x="394" unicode="f"/><glyph d="M-12 -46q14 53 49.5 81t97.5 49q-71 16 -56 70q12 51 99 74q0 1 -3.5 6.5t-8 14.5t-8.5 22t-4.5 27.5t3.5 31.5q15 56 66.5 96t111.5 56.5t123 16.5q40 0 106 -16q-14 53 46 76.5t170 20.5l-25 -94h-68q-63 0 -64 -20q0 -4 4 -10l3 -4q4 -3 7.5 -7t8 -11t8.5 -14t7.5 -17 t5 -20.5t1 -23.5t-4.5 -26q-22 -81 -110.5 -124.5t-187.5 -43.5q-40 0 -73 9q-4 1 -9 2.5t-7.5 2.5t-3.5 1q-13 1 -26.5 -6t-15.5 -15q-5 -18 40 -25t110.5 -11.5t129.5 -16.5t100.5 -50t19.5 -102q-14 -52 -71.5 -88t-130 -51t-152.5 -15q-77 0 -145 14.5t-112.5 51 t-30.5 88.5zM301 -109q65 0 121 18t66 54q5 19 -7.5 33t-39.5 22.5t-53 12.5t-59 7q-17 3 -41 3q-44 0 -94.5 -22t-59.5 -56q-7 -24 19.5 -41t65.5 -24t82 -7zM391 259q45 0 82 17t47 56q10 38 -17.5 55t-71.5 17q-45 0 -83 -17t-48 -56q-10 -38 18.5 -55t72.5 -17z" glyph-name="g" horiz-adv-x="654" unicode="g"/><glyph d="M173 0h-143l188 700h143l-77 -287q-8 -29 -30 -74l1 -1q28 50 45 70q93 100 234 100q97 0 139.5 -70.5t9.5 -194.5l-66 -243h-142l65 243q17 62 -8 101t-87 39q-26 0 -56 -10t-63 -31.5t-61 -61.5t-42 -93z" glyph-name="h" horiz-adv-x="645" unicode="h"/><glyph d="M186 583h145l31 117h-144zM32 0l134 500h140l-134 -500h-140z" glyph-name="i" horiz-adv-x="204" unicode="i"/><glyph d="M-88 -183h-22l28 105h22q51 0 81 23.5t45 80.5l127 474h143l-127 -474q-30 -112 -98 -160.5t-199 -48.5zM358 583h-143l31 117h143z" glyph-name="j" horiz-adv-x="233" unicode="j"/><glyph d="M174 0h-144l188 700h144l-99 -355q-10 -37 -37 -71l2 -1q28 37 61 58l250 169h206l-295 -196l176 -303h-58v-1l-1 1h-122l-125 219l-106 -71z" glyph-name="k" horiz-adv-x="648" unicode="k"/><glyph d="M35 0l195 728h143l-195 -728h-143z" glyph-name="l" horiz-adv-x="213" unicode="l"/><glyph d="M173 0h-143l134 500h143l-30 -109q-7 -31 -26 -71l2 -1q34 79 93.5 134t134.5 55q126 0 132 -121q1 -26 -14 -74l2 -1q25 77 90.5 136.5t141.5 59.5q174 0 113 -232l-74 -276h-143l62 234q17 65 1 97.5t-60 32.5t-89 -41.5t-69 -129.5l-51 -193h-144l63 234 q35 130 -55 130q-42 0 -90.5 -42t-72.5 -129z" glyph-name="m" horiz-adv-x="919" unicode="m"/><glyph d="M173 0h-143l134 500h143l-32 -119q-10 -35 -26 -67l2 -1q20 44 35 65q46 64 108 97t117 33q100 0 129.5 -76t-8.5 -204l-61 -228h-142l61 229q17 65 -2.5 100.5t-68.5 35.5q-24 0 -50 -8t-54.5 -26.5t-53.5 -55.5t-38 -88z" glyph-name="n" horiz-adv-x="602" unicode="n"/><glyph d="M327 -6q-131 0 -201 66t-37 190t138.5 190.5t236.5 65.5q63 0 113.5 -16t85 -47.5t45 -79.5t-5.5 -113q-33 -124 -138 -190t-237 -66zM232 250q-18 -67 18.5 -104t107.5 -37q69 0 126.5 38t75.5 103q17 65 -20.5 103.5t-105.5 38.5q-67 1 -126 -38.5t-76 -103.5z" glyph-name="o" horiz-adv-x="657" unicode="o"/><glyph d="M120 -200h-143l187 700h143l-17 -64q-9 -32 -29 -69l1 -1q26 43 45 60q43 36 102.5 58t110.5 22q126 0 175 -64t14 -192q-68 -254 -326 -256q-49 0 -95 20.5t-70 53.5q-15 20 -20 71h-2q4 -42 -5 -74zM241 250q-17 -62 21.5 -105.5t111.5 -42.5q154 0 193 148 q19 69 -7 105t-109 37q-73 0 -133.5 -40t-76.5 -102z" glyph-name="p" horiz-adv-x="669" unicode="p"/><glyph d="M278 -6q-257 2 -189 256q68 256 326 256q49 0 95.5 -20t71.5 -53q13 -18 20 -71h2q-5 37 5 74l17 64h142l-187 -700h-143l71 265q10 35 30 69l-2 1q-24 -44 -45 -60q-42 -36 -102.5 -58.5t-111.5 -22.5zM231 250q-41 -148 114 -149q73 0 135 43.5t79 105.5q16 62 -23 102 t-113 40q-155 -1 -192 -142z" glyph-name="q" horiz-adv-x="660" unicode="q"/><glyph d="M173 0h-143l90 336q23 85 72.5 124.5t135.5 39.5h233l-35 -131l-188 -1q-42 0 -58 -14.5t-30 -65.5z" glyph-name="r" horiz-adv-x="452" unicode="r"/><glyph d="M64 154l145 17q-7 -40 24.5 -58.5t95.5 -18.5q132 0 150 69q5 17 -22.5 26.5t-71.5 12t-94 10t-92 19.5t-63.5 42t-9.5 76q13 50 53.5 84.5t93.5 49t92 19.5t75 5q42 0 82.5 -8.5t75.5 -25.5t52.5 -47.5t9.5 -69.5l-130 -14q4 34 -25.5 49t-94.5 15q-64 0 -99 -14 t-44 -49q-5 -17 22.5 -26.5t72 -12t94.5 -10t92 -19t63.5 -41t9.5 -74.5q-14 -53 -55.5 -89.5t-96.5 -51.5t-94.5 -20t-77.5 -5q-25 0 -53.5 3t-65.5 13.5t-64.5 27t-43 47t-6.5 69.5z" glyph-name="s" horiz-adv-x="600" unicode="s"/><glyph d="M110 371l35 132h29q40 0 87.5 55t63.5 116h143q-32 -109 -135 -159q-17 -9 -70 -17v-2q49 7 69 7h205l-35 -132h-149l-50 -186q-8 -31 2.5 -42.5t37.5 -11.5h119l-35 -131h-140q-99 0 -126 51t3 151l46 169h-100z" glyph-name="t" horiz-adv-x="432" unicode="t"/><glyph d="M235 -3q-205 0 -131 279l61 229h143l-61 -229q-19 -69 3.5 -102.5t77.5 -33.5q31 0 63 13t67.5 55.5t53.5 109.5l50 187h142l-134 -500h-142l31 115q6 26 25 67h-2q-20 -44 -35 -65q-44 -62 -100.5 -93.5t-111.5 -31.5z" glyph-name="u" horiz-adv-x="624" unicode="u"/><glyph d="M207 0l-53 500h154l33 -341q3 -34 -6 -75h2q9 40 27 70l214 346h153l-321 -500h-203z" glyph-name="v" horiz-adv-x="617" unicode="v"/><glyph d="M140 500h152l25 -357q2 -30 -7 -64l2 1q9 35 24 63l195 357h232l7 -359q0 -31 -10 -63h2q11 36 27 63l217 359h153l-306 -500h-228l-7 351q0 33 11 75h-2q-11 -42 -29 -75l-191 -351h-230z" glyph-name="w" horiz-adv-x="1029" unicode="w"/><glyph d="M18 0l262 251l-128 249h181l65 -125q8 -15 4 -35h2q4 20 16 31l135 129h182l-261 -249l127 -251h-181l-65 128q-8 15 -4 35h-2q-4 -20 -16 -32l-137 -131h-180z" glyph-name="x" horiz-adv-x="620" unicode="x"/><glyph d="M108 -206h-151l29 105h75q32 0 72.5 11.5t58.5 38.5l35 58l-82 493h157l43 -289q6 -31 -5 -73h2q10 39 33 73l199 289h155l-396 -571q-88 -135 -225 -135z" glyph-name="y" horiz-adv-x="619" unicode="y"/><glyph d="M25 0l31 117l334 228q34 22 75 35v2q-45 -13 -77 -13h-254l35 131h547l-31 -117l-331 -228q-37 -23 -75 -35v-2q43 13 77 13h265l-35 -131h-561z" glyph-name="z" horiz-adv-x="614" unicode="z"/><glyph d="M293 -121q-37 0 -59 1t-48 4.5t-40 11t-27 20.5t-16 32t-1 47t12 65l32 119q3 10 2.5 17.5t-3.5 12.5t-7.5 8.5t-10.5 5t-12 2.5t-11.5 1h-9.5h-4l35 132q48 0 67 19q10 11 14 28l33 120q13 49 33.5 82.5t42 51.5t57 27.5t64 11.5t77.5 2l-35 -131q-85 0 -105 -77 l-33 -120q-10 -44 -40 -65q-22 -16 -72 -12v-2q55 -5 67 -27q11 -20 1 -59l-32 -121q-10 -38 4.5 -57t60.5 -19z" glyph-name="braceleft" horiz-adv-x="379" unicode="{"/><glyph d="M-24 -200l242 900h142l-241 -900h-143z" glyph-name="bar" unicode="|"/><glyph d="M-3 -121l35 131q85 0 105 76l33 121q12 44 41 66q25 18 72 12v2q-57 7 -68 27q-12 20 -1 58l32 120q20 77 -64 77l35 131q35 0 56 -1t47 -4.5t40 -10.5t27.5 -19.5t17.5 -31t2.5 -46t-10.5 -62.5l-32 -120q-6 -22 4.5 -33.5t21 -12.5t27.5 -1h4l-36 -132q-48 0 -66 -19 q-10 -11 -15 -28l-32 -119q-12 -43 -26 -74t-34.5 -50.5t-39.5 -31t-50.5 -17t-57 -7t-68.5 -1.5z" glyph-name="braceright" horiz-adv-x="359" unicode="}"/><glyph d="M312 411q48 3 83.5 -13.5t62.5 -33t55 -14.5q27 1 51.5 22.5t29.5 47.5l172 6q-17 -88 -89 -148.5t-169 -65.5q-43 -1 -77.5 16t-61 32.5t-51.5 11.5q-32 -3 -54 -24t-29 -52l-157 -6q9 77 80 147t154 74z" glyph-name="asciitilde" horiz-adv-x="677" unicode="~"/><glyph d="M337 500h-164l-36 -134h164zM217 300l1 -206l-81 -302h-142l81 302l111 206h30z" glyph-name="exclamdown" horiz-adv-x="242" unicode="¡"/><glyph d="M268 96q-83 4 -133 72t-19 181q30 113 116.5 182t168.5 71l26 98h132l-27 -99q67 -1 112.5 -39.5t48.5 -108.5l-130 -49q-7 78 -126 78q-152 0 -188 -133q-18 -65 17.5 -98t99.5 -32q54 0 100 20.5t69 55.5l102 -50q-41 -67 -106.5 -105.5t-130.5 -42.5l-26 -97h-132z " glyph-name="cent" horiz-adv-x="593" unicode="¢"/><glyph d="M725 0h-710l32 119q97 0 150 34t67 79q12 42 3 72h-130l56 90h66q-30 55 -12 124q25 90 118.5 138t225.5 49q129 1 193 -51t37 -166l-131 -6q7 38 -12 62t-48.5 32.5t-67.5 8.5q-150 0 -174 -89q-13 -51 17 -102h192l-42 -90h-128q9 -36 -1 -71q-13 -50 -65 -91 q-22 -20 -67 -34l1 -2q36 13 74 13h374z" glyph-name="sterling" horiz-adv-x="746" unicode="£"/><glyph d="M63 171l89 62q-18 31 -2 92q15 57 54 92l-56 62l91 63l56 -62q48 30 119 30q69 0 97 -27l88 62l61 -69l-89 -62q22 -30 6 -89q-7 -26 -23.5 -53.5t-34.5 -41.5l56 -62l-91 -63l-55 62q-18 -12 -53.5 -22.5t-62.5 -10.5q-64 0 -100 30l-89 -62zM276 325q-8 -33 11.5 -56.5 t54.5 -23.5t67.5 23.5t41.5 56.5t-10.5 57t-54.5 24q-36 0 -68.5 -24t-41.5 -57z" glyph-name="currency" horiz-adv-x="550" unicode="¤"/><glyph d="M205 87l24 88h136l11 41h-136l25 94h136l10 35l-166 354h175l82 -198q15 -34 6 -72l2 -1q9 41 33 65l201 206h180l-371 -354l-9 -35h135l-25 -94h-135l-11 -41h135l-23 -88h-136l-23 -87h-143l23 87h-136z" glyph-name="yen" horiz-adv-x="775" unicode="¥"/><glyph d="M116 319l101 379h143l-102 -379h-142zM-24 -200l102 379h143l-102 -379h-143z" glyph-name="brokenbar" unicode="¦"/><glyph d="M319 -95q-129 0 -200.5 44.5t-64.5 137.5l145 5q-2 -46 33 -70.5t112 -24.5q166 0 185 74q6 22 -25.5 36t-82.5 20t-109 16.5t-107 23.5t-76.5 43t-15.5 74q9 33 37 56.5t66 35.5t74 17t72 5v2q-46 0 -75 8q-59 15 -95.5 43.5t-24.5 72.5q14 53 60.5 89.5t109.5 51.5 t108.5 20t89.5 5q119 0 198 -45.5t72 -135.5l-141 -7q4 50 -39.5 73.5t-113.5 23.5t-107 -16.5t-47 -53.5q-5 -20 24 -34t76 -21.5t101.5 -19.5t99.5 -26t70 -43.5t14 -70.5q-14 -49 -50 -69.5t-97 -31.5q-31 -7 -75 -7v-2q49 0 75 -7q117 -33 92 -126q-14 -53 -60.5 -89.5 t-109.5 -51.5t-108.5 -20t-89.5 -5zM265 311q-18 -67 145 -88q34 -4 48 -4q57 0 93.5 20.5t45.5 53.5q6 21 -6 36.5t-38.5 25.5t-50.5 15.5t-55 10.5q-32 4 -47 4q-53 0 -89.5 -20t-45.5 -54z" glyph-name="section" horiz-adv-x="695" unicode="§"/><glyph d="M298 508h-143l52 192h143zM357 508l52 192h143l-52 -192h-143z" glyph-name="dieresis" horiz-adv-x="383" unicode="¨"/><glyph d="M453 -50q-184 0 -284.5 110t-59.5 265q42 155 201.5 265t343.5 110t285 -110t59 -265q-41 -155 -201 -265t-344 -110zM211 325q-32 -121 45.5 -206.5t218.5 -85.5q142 0 265.5 85.5t155.5 206.5t-45 206.5t-219 85.5t-265.5 -85.5t-155.5 -206.5zM502 110 q-109 -1 -166 55t-30 159q18 70 67 119.5t111.5 72.5t132.5 22q87 -1 144.5 -44.5t45.5 -122.5l-116 -9q-2 37 -28 57.5t-72 21.5q-130 0 -161 -117q-14 -54 12.5 -85t86.5 -30q44 1 81 20.5t58 53.5l114 -8q-31 -78 -112 -121t-168 -44z" glyph-name="copyright" horiz-adv-x="925" unicode="©"/><glyph d="M421 475q-25 -37 -68.5 -57t-89.5 -20q-54 0 -86 26t-21 70q11 41 45 64t75.5 28t81.5 5.5t68.5 4t31.5 17.5q13 53 -73 53t-104 -52l-85 5q19 58 79.5 88t128.5 30q50 -1 86 -12t55.5 -41.5t6.5 -78.5l-26 -96q-3 -13 1 -17.5t16 -4.5h18l-24 -89h-69q-28 0 -43 18 t-8 42zM257 497q-6 -20 10 -30.5t44 -10.5q39 0 76.5 17.5t44.5 44.5l10 37q-18 -11 -63 -12.5t-80 -9t-42 -36.5z" glyph-name="ordfeminine" horiz-adv-x="453" unicode="ª"/><glyph d="M438 493l-39 -145l-137 -72l98 -73l-39 -143l-246 165l28 103zM730 493l-39 -145l-136 -72l97 -73l-38 -143l-246 165l27 103z" glyph-name="guillemotleft" horiz-adv-x="613" unicode="«"/><glyph d="M138 420h567l-90 -337h-143l56 206h-426z" glyph-name="logicalnot" horiz-adv-x="620" unicode="¬"/><glyph d="M310 421q-74 0 -114 48t-22 116t84 116t140 48t114 -48t22 -116q-19 -68 -84.5 -116t-139.5 -48zM229 585q-13 -47 14.5 -81t79.5 -34t97.5 34t58.5 81t-15 81t-79 34q-52 0 -97.5 -34t-58.5 -81zM269 511l40 151h81q27 0 38.5 -11t5.5 -32q-3 -12 -7.5 -17.5 t-14.5 -10.5l-10 -5l6 -1q17 -5 9 -33l-10 -41h-34l9 36q4 13 -12 13h-54l-13 -49h-34zM336 635l-12 -46h39q33 0 38 22q7 24 -21 24h-44z" glyph-name="registered" horiz-adv-x="394" unicode="®"/><glyph d="M177 587l27 101h377l-27 -101h-377z" glyph-name="macron" horiz-adv-x="417" unicode="¯"/><glyph d="M332 433q-80 0 -124.5 45.5t-27.5 110.5q17 64 86 110t149 46t124.5 -45.5t27.5 -110.5q-17 -64 -86 -110t-149 -46zM284 589q-8 -31 12 -53.5t57 -22.5t69 22t41 54q8 31 -12 53.5t-57 22.5t-69 -22t-41 -54z" glyph-name="degree" horiz-adv-x="431" unicode="°"/><glyph d="M503 528l85 -70l57 -109l-110 -23l-108 -80l-139 -71l-1 80l-86 71l-60 109l111 23l110 76l138 69zM215 -27l-169 108l335 23l169 -109z" glyph-name="plusminus" horiz-adv-x="576" unicode="±"/><glyph d="M129 400l3 10q13 50 45.5 86.5t70 55.5t73.5 33.5t62 29t31 31.5q8 27 -8 40t-46 13q-32 0 -55.5 -17.5t-33.5 -48.5l-72 3q38 127 183 127q67 0 97 -27t16 -79q-12 -46 -46 -71t-86 -48t-82 -48q-29 -22 -63 -35l1 -2q37 14 73 14h154l-18 -67h-299z" glyph-name="uni00B2" horiz-adv-x="343" unicode="²"/><glyph d="M285 405q-68 0 -99.5 28.5t-17.5 87.5l70 2q-6 -23 10.5 -38t47.5 -15t55.5 14.5t30.5 37.5t-9 33t-51 10h-27l10 41h28q65 0 77 46q6 22 -9.5 35t-42.5 13q-30 0 -52.5 -16.5t-30.5 -40.5l-68 2q30 109 170 107q58 0 84 -22t14 -67q-18 -61 -113 -61v-2q54 0 72 -14 q27 -18 12 -73q-14 -53 -56 -80.5t-105 -27.5z" glyph-name="uni00B3" horiz-adv-x="337" unicode="³"/><glyph d="M263 557h-118l96 142h163z" glyph-name="acute" horiz-adv-x="190" unicode="´"/><glyph d="M402 287q-145 0 -206.5 51t-32.5 159q28 104 118.5 156.5t232.5 52.5h142l-212 -794h-143zM671 -88h-142l212 794h143z" glyph-name="paragraph" horiz-adv-x="725" unicode="¶"/><glyph d="M253 324h-146l36 136h146z" glyph-name="periodcentered" horiz-adv-x="186" unicode="·"/><glyph d="M-77 -215l64 55q17 -42 71 -42q30 0 54.5 14.5t31.5 38.5q4 16 -7 26.5t-36 14t-41 4.5t-40 1h-5l83 117h115l-53 -68q44 0 63.5 -24.5t5.5 -74.5q-17 -61 -67.5 -93t-111.5 -32q-45 0 -80 17t-47 46z" glyph-name="cedilla" horiz-adv-x="282" unicode="¸"/><glyph d="M187 615l17 63q73 0 89 59h69l-90 -336h-69l59 220q9 34 29 70l-2 1q-2 -3 -8.5 -15.5t-10 -19t-10 -15t-13.5 -12.5q-23 -15 -60 -15z" glyph-name="uni00B9" horiz-adv-x="186" unicode="¹"/><glyph d="M288 376q-46 0 -75.5 15.5t-40.5 42t-11 57t10 66.5q21 77 73.5 129t140.5 51q88 0 113 -51.5t4 -128.5t-73.5 -129t-140.5 -52zM244 557q-13 -48 4 -76.5t60 -28.5t75.5 28.5t45.5 76.5t-4.5 76t-59.5 29q-42 0 -75 -28.5t-46 -76.5z" glyph-name="ordmasculine" horiz-adv-x="379" unicode="º"/><glyph d="M439 493l247 -165l-28 -103l-335 -165l39 143l136 73l-97 72zM147 493l246 -165l-27 -103l-335 -165l38 143l137 73l-98 72z" glyph-name="guillemotright" horiz-adv-x="625" unicode="»"/><glyph d="M200 0l537 700h140l-536 -700h-141zM563 102l12 46l271 267h98l-64 -240h70l-11 -73h-56q-23 0 -34 16l-1 -1q12 -17 6 -38l-21 -78h-85l27 101h-212zM273 574q-29 -35 -98 -35l22 84q98 0 118 77h91l-119 -444h-91l85 315q7 26 18 48h-1q-19 -39 -25 -45zM700 179h96 l40 148z" glyph-name="onequarter" horiz-adv-x="943" unicode="¼"/><glyph d="M118 0l537 700h140l-536 -700h-141zM816 -4h-340l3 12q15 56 51.5 97.5t79 63.5t83.5 38.5t71 33t35 35.5q9 31 -9 45.5t-52 14.5q-37 0 -63.5 -19.5t-37.5 -54.5l-82 2q23 76 74.5 111t134.5 35q76 0 109.5 -30.5t18.5 -90.5q-11 -43 -41.5 -71.5t-63.5 -41.5t-78 -36.5 t-75 -51.5q-14 -12 -39 -24v-1q22 10 44 10h197zM179 555l20 75q88 0 107 70h82l-108 -401h-82l77 285q4 17 16 43h-1q-15 -33 -23 -41q-25 -31 -88 -31z" glyph-name="onehalf" horiz-adv-x="847" unicode="½"/><glyph d="M381 0h-141l536 700h141zM277 286q-83 0 -121 34.5t-21 105.5l84 3q-7 -28 13.5 -46.5t57.5 -18.5q38 0 67 18t36 46q8 28 -10 39.5t-62 11.5h-33l12 50h34q79 0 94 55q7 27 -11.5 42.5t-51.5 15.5q-36 0 -63.5 -20t-37.5 -49l-82 3q38 131 206 129q70 -1 101 -27.5 t16 -79.5q-11 -45 -67 -67q-15 -7 -45 -9v-1q31 0 42 -4q30 -10 38.5 -31.5t-2.5 -69.5q-16 -63 -67 -96.5t-127 -33.5zM550 90l12 42l246 242h88l-58 -218h63l-10 -66h-50q-19 0 -31 15l-1 -1q11 -14 6 -35l-19 -71h-78l25 92h-193zM798 294l-123 -134h87z" glyph-name="threequarters" horiz-adv-x="888" unicode="¾"/><glyph d="M226 -205q-124 0 -181 52t-30 154q13 48 44.5 79.5t69.5 48t75.5 33.5t69.5 49t45 81l5 17h142l-4 -17q-18 -66 -53 -113t-73.5 -70.5t-75 -40t-64 -35.5t-34.5 -44q-11 -44 12.5 -68t78.5 -24q60 0 103 28t57 76h142q-25 -95 -115.5 -150.5t-213.5 -55.5zM328 364 l36 137h165l-37 -137h-164z" glyph-name="questiondown" horiz-adv-x="570" unicode="¿"/><glyph d="M195 0h-155l452 700h190l76 -700h-153l-20 144l-296 -1zM544 546l-184 -284q129 0 155 -7q44 -12 69 -92zM560 758l-65 142h167l20 -142h-122z" glyph-name="Agrave" horiz-adv-x="780" unicode="À"/><glyph d="M191 0h-155l452 700h190l76 -700h-153l-20 144l-296 -1zM540 546l-184 -284q129 0 155 -7q44 -12 69 -92zM517 758l96 142h162l-141 -142h-117z" glyph-name="Aacute" horiz-adv-x="772" unicode="Á"/><glyph d="M191 0h-155l452 700h190l76 -700h-153l-20 144l-296 -1zM376 779l170 160h190l84 -160h-149l-46 97l-99 -97h-150zM540 546l-184 -284q129 0 155 -7q44 -12 69 -92z" glyph-name="Acircumflex" horiz-adv-x="772" unicode="Â"/><glyph d="M191 0h-155l452 700h190l76 -700h-153l-20 144l-296 -1zM364 765q57 143 201 143q27 0 47.5 -9t31 -19.5t23.5 -19.5t26 -10q41 -2 70 58l104 -10q-21 -67 -71 -109t-123 -41q-36 0 -58 14t-37.5 28t-35.5 15q-30 1 -55 -14.5t-37 -40.5zM540 546l-184 -284q129 0 155 -7 q44 -12 69 -92z" glyph-name="Atilde" horiz-adv-x="772" unicode="Ã"/><glyph d="M191 0h-155l452 700h190l76 -700h-153l-20 144l-296 -1zM540 546l-184 -284q129 0 155 -7q44 -12 69 -92zM766 783h-142l31 117h143zM426 783l32 117h142l-31 -117h-143z" glyph-name="Adieresis" horiz-adv-x="772" unicode="Ä"/><glyph d="M191 0h-155l452 700h190l76 -700h-153l-20 144l-296 -1zM593 743q-61 0 -94 30.5t-21 75.5q11 44 61 74.5t111 30.5q59 0 92.5 -30.5t21.5 -74.5q-12 -45 -61.5 -75.5t-109.5 -30.5zM540 546l-184 -284q129 0 155 -7q44 -12 69 -92zM563 849q-5 -19 8.5 -33t37.5 -14 q23 0 44 14t26 33t-8.5 32.5t-36.5 13.5q-25 0 -45.5 -13.5t-25.5 -32.5z" glyph-name="Aring" horiz-adv-x="772" unicode="Å"/><glyph d="M182 0h-154l452 700h687l-35 -131h-384l-42 -159h328l-29 -111h-329l-45 -168h384l-35 -131h-527l43 159h-213zM598 647l-227 -350h162l94 350h-29z" glyph-name="AE" horiz-adv-x="1011" unicode="Æ"/><glyph d="M116 350q47 176 171 267.5t283 89.5q132 -2 208.5 -64t74.5 -182l-149 -33q0 58 -45 96.5t-128 39.5q-104 0 -175 -58t-97 -156q-27 -99 15.5 -156.5t141.5 -57.5q87 1 151.5 39.5t95.5 97.5l130 -34q-55 -107 -149.5 -168.5t-210.5 -74.5l-39 -50q43 0 62.5 -24.5 t5.5 -74.5q-16 -62 -67 -93.5t-112 -31.5q-45 0 -80 17t-47 46l64 56q6 -20 28 -31.5t49 -11.5q28 0 50.5 13.5t29.5 39.5q5 16 -4.5 26t-32.5 13.5t-37.5 4.5t-38.5 1h-7l63 100q-132 15 -189.5 105.5t-14.5 248.5z" glyph-name="Ccedilla" horiz-adv-x="751" unicode="Ç"/><glyph d="M813 700l-35 -131h-453l-46 -172h424l-30 -111h-424l-41 -155h453l-35 -131h-596l188 700h595zM597 900l20 -142h-122l-65 142h167z" glyph-name="Egrave" horiz-adv-x="653" unicode="È"/><glyph d="M813 700l-35 -131h-453l-46 -172h424l-30 -111h-424l-41 -155h453l-35 -131h-596l188 700h595zM566 758h-117l96 142h162z" glyph-name="Eacute" horiz-adv-x="653" unicode="É"/><glyph d="M626 0h-596l188 700h595l-35 -131h-453l-46 -172h424l-30 -111h-424l-41 -155h453zM473 769h-149l170 161h190l84 -161h-150l-46 97z" glyph-name="Ecircumflex" horiz-adv-x="653" unicode="Ê"/><glyph d="M626 0h-596l188 700h595l-35 -131h-453l-46 -172h424l-30 -111h-424l-41 -155h453zM719 783h-143l31 117h143zM379 783l31 117h143l-32 -117h-142z" glyph-name="Edieresis" horiz-adv-x="653" unicode="Ë"/><glyph d="M30 0l188 700h142l-187 -700h-143zM364 900l20 -142h-122l-65 142h167z" glyph-name="Igrave" unicode="Ì"/><glyph d="M30 0l188 700h142l-187 -700h-143zM358 758h-117l96 142h161z" glyph-name="Iacute" unicode="Í"/><glyph d="M173 0h-143l188 700h142zM91 766l170 161h190l84 -161h-149l-46 97l-99 -97h-150z" glyph-name="Icircumflex" unicode="Î"/><glyph d="M173 0h-143l188 700h142zM295 783h-143l32 117h142zM493 783h-143l31 117h143z" glyph-name="Idieresis" unicode="Ï"/><glyph d="M74 275l38 143h86l76 282h324q100 0 168.5 -38t97 -115.5t-3.5 -196.5q-31 -115 -101.5 -195.5t-159.5 -117.5t-189 -37h-324l74 275h-86zM498 275h-195q-2 -7 -16.5 -62t-21.5 -81h192q77 0 154 55t106 163q28 105 -19 162t-124 57h-278q86 0 77 -32q-4 -17 -31 -119 h194z" glyph-name="Eth" horiz-adv-x="784" unicode="Ð"/><glyph d="M173 0h-143l188 700h148l230 -451q18 -34 21 -78l2 1q-3 43 8 87l118 441h143l-188 -700h-148l-231 447q-17 33 -21 78l-2 -1q3 -43 -8 -87zM336 762q55 143 200 143q35 0 58 -14t39 -28.5t32 -15.5q41 -2 70 58l104 -10q-22 -67 -71.5 -109t-122.5 -41q-28 1 -48.5 9.5 t-30 19t-23 19t-29.5 9.5q-30 2 -55.5 -14t-36.5 -40z" glyph-name="Ntilde" horiz-adv-x="730" unicode="Ñ"/><glyph d="M384 -7q-103 0 -173 39t-99 118t4 200q47 175 174 267t285 90q103 -1 173 -39.5t99 -117.5t-4 -200q-31 -117 -103 -199t-162.5 -120t-193.5 -38zM259 350q-27 -102 22 -164t138 -62q93 0 173 61.5t108 164.5q27 102 -22 163.5t-138 62.5q-88 1 -171 -61.5t-110 -164.5z M462 900h167l20 -142h-122z" glyph-name="Ograve" horiz-adv-x="772" unicode="Ò"/><glyph d="M384 -7q-103 0 -173 39t-99 118t4 200q47 175 174 267t285 90q103 -1 173 -39.5t99 -117.5t-4 -200q-31 -117 -103 -199t-162.5 -120t-193.5 -38zM259 350q-27 -102 22 -164t138 -62q93 0 173 61.5t108 164.5q27 102 -22 163.5t-138 62.5q-88 1 -171 -61.5t-110 -164.5z M487 758l96 142h162l-141 -142h-117z" glyph-name="Oacute" horiz-adv-x="771" unicode="Ó"/><glyph d="M384 -7q-103 0 -173 39t-99 118t4 200q47 175 174 267t285 90q103 -1 173 -39.5t99 -117.5t-4 -200q-31 -117 -103 -199t-162.5 -120t-193.5 -38zM259 350q-27 -102 22 -164t138 -62q93 0 173 61.5t108 164.5q27 102 -22 163.5t-138 62.5q-88 1 -171 -61.5t-110 -164.5z M373 781l170 161h190l84 -161h-150l-46 97l-98 -97h-150z" glyph-name="Ocircumflex" horiz-adv-x="771" unicode="Ô"/><glyph d="M384 -7q-103 0 -173 39t-99 118t4 200q47 175 174 267t285 90q103 -1 173 -39.5t99 -117.5t-4 -200q-31 -117 -103 -199t-162.5 -120t-193.5 -38zM259 350q-27 -102 22 -164t138 -62q93 0 173 61.5t108 164.5q27 102 -22 163.5t-138 62.5q-88 1 -171 -61.5t-110 -164.5z M349 765q57 143 201 143q35 0 58 -14t39 -28.5t32 -15.5q42 -2 69 58l105 -10q-22 -67 -72 -109t-122 -41q-46 1 -78.5 28.5t-52.5 28.5q-31 1 -56 -14.5t-36 -40.5z" glyph-name="Otilde" horiz-adv-x="772" unicode="Õ"/><glyph d="M384 -7q-103 0 -173 39t-99 118t4 200q47 175 174 267t285 90q103 -1 173 -39.5t99 -117.5t-4 -200q-31 -117 -103 -199t-162.5 -120t-193.5 -38zM259 350q-27 -102 22 -164t138 -62q93 0 173 61.5t108 164.5q27 102 -22 163.5t-138 62.5q-88 1 -171 -61.5t-110 -164.5z M628 783l32 117h142l-31 -117h-143zM574 783h-143l31 117h143z" glyph-name="Odieresis" horiz-adv-x="772" unicode="Ö"/><glyph d="M435 352h196l-36 -132h-196l-45 -167h-142l45 167h-189l35 132h189l44 164h143z" glyph-name="multiply" horiz-adv-x="545" unicode="×"/><glyph d="M178 54q-117 94 -62 296q47 175 174 267t285 90q49 0 96 -11l35 46h159l-78 -102q109 -95 56 -290q-31 -117 -103 -199t-162.5 -120t-193.5 -38q-43 0 -86 8l-42 -54h-159zM280 187l296 386q-18 3 -36 3q-88 1 -171 -61.5t-110 -164.5q-26 -100 21 -163zM393 126 q18 -2 26 -2q93 0 173 61.5t108 164.5q25 95 -16 155z" glyph-name="Oslash" horiz-adv-x="772" unicode="Ø"/><glyph d="M114 315l104 385h142l-103 -386q-24 -88 16.5 -139.5t126.5 -51.5q87 0 152 49.5t90 141.5l103 386h143l-103 -385q-42 -157 -161 -240t-259 -83q-149 0 -221.5 80.5t-29.5 242.5zM451 900h167l20 -142h-122z" glyph-name="Ugrave" horiz-adv-x="731" unicode="Ù"/><glyph d="M114 315l104 385h142l-103 -386q-24 -88 16.5 -139.5t126.5 -51.5q87 0 152 49.5t90 141.5l103 386h143l-103 -385q-42 -157 -161 -240t-259 -83q-149 0 -221.5 80.5t-29.5 242.5zM493 758l96 142h162l-141 -142h-117z" glyph-name="Uacute" horiz-adv-x="731" unicode="Ú"/><glyph d="M114 315l104 385h142l-103 -386q-24 -88 16.5 -139.5t126.5 -51.5q87 0 152 49.5t90 141.5l103 386h143l-103 -385q-42 -157 -161 -240t-259 -83q-149 0 -221.5 80.5t-29.5 242.5zM353 778l170 160h190l84 -160h-150l-45 97l-99 -97h-150z" glyph-name="Ucircumflex" horiz-adv-x="731" unicode="Û"/><glyph d="M114 315l104 385h142l-103 -386q-24 -88 16.5 -139.5t126.5 -51.5q87 0 152 49.5t90 141.5l103 386h143l-103 -385q-42 -157 -161 -240t-259 -83q-149 0 -221.5 80.5t-29.5 242.5zM412 783l31 117h143l-31 -117h-143zM610 783l31 117h143l-32 -117h-142z" glyph-name="Udieresis" horiz-adv-x="731" unicode="Ü"/><glyph d="M388 314l-184 385h175l102 -226q14 -29 3 -69h2q10 38 39 69l223 226h175l-392 -385l-84 -314h-143zM622 758h-116l96 142h161z" glyph-name="Yacute" horiz-adv-x="752" unicode="Ý"/><glyph d="M173 0h-143l188 700h143l-30 -110h193q133 0 187.5 -59.5t23.5 -172.5q-30 -112 -117 -172t-218 -60h-193zM301 476l-64 -236h147q105 0 149.5 31.5t58.5 86.5q8 36 5 62t-39.5 41t-110.5 15h-146z" glyph-name="Thorn" horiz-adv-x="666" unicode="Þ"/><glyph d="M173 0h-143l141 527q21 79 112 127.5t200 48.5q144 0 207.5 -40.5t37.5 -135.5q-26 -97 -193 -139q184 -27 145 -176q-57 -212 -402 -212l31 116q101 -2 159 30t72 85q14 51 -24 81t-146 32l20 75q63 0 111.5 24.5t60.5 67.5q13 49 -14 76.5t-88 27.5q-50 0 -95.5 -34.5 t-60.5 -88.5z" glyph-name="germandbls" horiz-adv-x="649" unicode="ß"/><glyph d="M480 127q-34 -61 -100.5 -93.5t-137.5 -32.5q-81 0 -129.5 38t-31.5 103q16 61 67 95t112.5 41.5t121 8.5t102 6.5t47.5 25.5q10 41 -18.5 60t-91.5 19q-130 0 -158 -77l-123 7q19 59 71.5 100t113 58.5t123.5 16.5q54 0 97 -10t78 -32.5t45 -60t-2 -93.5l-39 -143 q-4 -19 1.5 -25.5t24.5 -6.5h25l-35 -132h-99q-41 0 -62.5 26t-11.5 62zM225 146q-8 -30 16 -45t67 -15q59 0 116.5 25.5t68.5 65.5l15 55q-29 -17 -97.5 -18.5t-121.5 -13t-64 -54.5zM422 558l-65 142h167l20 -142h-122z" glyph-name="agrave" horiz-adv-x="668" unicode="à"/><glyph d="M480 127q-34 -61 -100.5 -93.5t-137.5 -32.5q-81 0 -129.5 38t-31.5 103q16 61 67 95t112.5 41.5t121 8.5t102 6.5t47.5 25.5q10 41 -18.5 60t-91.5 19q-130 0 -158 -77l-123 7q19 59 71.5 100t113 58.5t123.5 16.5q54 0 97 -10t78 -32.5t45 -60t-2 -93.5l-39 -143 q-4 -19 1.5 -25.5t24.5 -6.5h25l-35 -132h-99q-41 0 -62.5 26t-11.5 62zM225 146q-8 -30 16 -45t67 -15q59 0 116.5 25.5t68.5 65.5l15 55q-29 -17 -97.5 -18.5t-121.5 -13t-64 -54.5zM412 558l96 142h162l-141 -142h-117z" glyph-name="aacute" horiz-adv-x="675" unicode="á"/><glyph d="M480 127q-34 -61 -100.5 -93.5t-137.5 -32.5q-81 0 -129.5 38t-31.5 103q16 61 67 95t112.5 41.5t121 8.5t102 6.5t47.5 25.5q10 41 -18.5 60t-91.5 19q-130 0 -158 -77l-123 7q19 59 71.5 100t113 58.5t123.5 16.5q54 0 97 -10t78 -32.5t45 -60t-2 -93.5l-39 -143 q-4 -19 1.5 -25.5t24.5 -6.5h25l-35 -132h-99q-41 0 -62.5 26t-11.5 62zM405 571h-149l170 161h190l83 -161h-149l-46 97zM225 146q-8 -30 16 -45t67 -15q59 0 116.5 25.5t68.5 65.5l15 55q-29 -17 -97.5 -18.5t-121.5 -13t-64 -54.5z" glyph-name="acircumflex" horiz-adv-x="675" unicode="â"/><glyph d="M480 127q-34 -61 -100.5 -93.5t-137.5 -32.5q-81 0 -129.5 38t-31.5 103q16 61 67 95t112.5 41.5t121 8.5t102 6.5t47.5 25.5q10 41 -18.5 60t-91.5 19q-130 0 -158 -77l-123 7q19 59 71.5 100t113 58.5t123.5 16.5q54 0 97 -10t78 -32.5t45 -60t-2 -93.5l-39 -143 q-4 -19 1.5 -25.5t24.5 -6.5h25l-35 -132h-99q-41 0 -62.5 26t-11.5 62zM244 565q57 143 201 143q35 0 58 -14t39 -28.5t32 -15.5q42 -2 69 58l105 -10q-22 -67 -72 -109t-122 -41q-46 1 -78.5 28.5t-52.5 28.5q-31 1 -56 -14.5t-36 -40.5zM225 146q-8 -30 16 -45t67 -15 q59 0 116.5 25.5t68.5 65.5l15 55q-29 -17 -97.5 -18.5t-121.5 -13t-64 -54.5z" glyph-name="atilde" horiz-adv-x="675" unicode="ã"/><glyph d="M480 127q-34 -61 -100.5 -93.5t-137.5 -32.5q-81 0 -129.5 38t-31.5 103q16 61 67 95t112.5 41.5t121 8.5t102 6.5t47.5 25.5q10 41 -18.5 60t-91.5 19q-130 0 -158 -77l-123 7q19 59 71.5 100t113 58.5t123.5 16.5q54 0 97 -10t78 -32.5t45 -60t-2 -93.5l-39 -143 q-4 -19 1.5 -25.5t24.5 -6.5h25l-35 -132h-99q-41 0 -62.5 26t-11.5 62zM225 146q-8 -30 16 -45t67 -15q59 0 116.5 25.5t68.5 65.5l15 55q-29 -17 -97.5 -18.5t-121.5 -13t-64 -54.5zM467 583h-143l31 117h143zM664 583h-142l31 117h143z" glyph-name="adieresis" horiz-adv-x="675" unicode="ä"/><glyph d="M480 127q-34 -61 -100.5 -93.5t-137.5 -32.5q-81 0 -129.5 38t-31.5 103q16 61 67 95t112.5 41.5t121 8.5t102 6.5t47.5 25.5q10 41 -18.5 60t-91.5 19q-130 0 -158 -77l-123 7q19 59 71.5 100t113 58.5t123.5 16.5q54 0 97 -10t78 -32.5t45 -60t-2 -93.5l-39 -143 q-4 -19 1.5 -25.5t24.5 -6.5h25l-35 -132h-99q-41 0 -62.5 26t-11.5 62zM471 544q-61 0 -94 31t-21 75q11 44 61 75t111 31q59 0 92.5 -31t21.5 -75t-61.5 -75t-109.5 -31zM225 146q-8 -30 16 -45t67 -15q59 0 116.5 25.5t68.5 65.5l15 55q-29 -17 -97.5 -18.5t-121.5 -13 t-64 -54.5zM441 650q-5 -19 8.5 -32.5t37.5 -13.5q23 0 44 13.5t26 32.5t-8.5 32.5t-36.5 13.5q-24 0 -45 -13.5t-26 -32.5z" glyph-name="aring" horiz-adv-x="675" unicode="å"/><glyph d="M509 154q-40 -75 -120 -115.5t-165 -40.5q-84 0 -133 38.5t-31 105.5q17 64 66.5 99t108.5 42.5t116 9t99 9.5t49 33q9 33 -21.5 54.5t-76.5 24.5q-39 4 -83 -15t-60 -62l-137 5q28 82 116.5 122t187.5 39q78 -1 121 -35.5t47 -94.5q33 55 113 94.5t166 38.5 q122 -1 178 -66t23 -190q-2 -6 -11 -26h-455q-15 -61 26 -91t94 -30q42 1 94.5 21.5t79.5 56.5l143 -8q-35 -86 -129 -132t-200 -47q-96 -1 -152 44t-54 116zM201 155q-7 -26 15 -41.5t60 -15.5q61 0 120.5 39t79.5 113l8 31q-15 -21 -60 -35.5t-90 -21t-85 -24t-48 -45.5z M816 406q-65 0 -124 -47t-85 -135q20 25 45 37t43.5 14t57.5 2h176q14 61 -15.5 95t-97.5 34z" glyph-name="ae" horiz-adv-x="1027" unicode="æ"/><glyph d="M89 250q33 124 137.5 190.5t234.5 65.5q103 -1 171.5 -53t55.5 -147l-134 -8q-3 44 -33.5 70t-89.5 27q-73 0 -127 -39t-72 -106q-18 -66 15.5 -105.5t106.5 -38.5q115 3 173 93l130 -8q-32 -81 -108.5 -130t-168.5 -63l-41 -52q44 0 63.5 -24.5t5.5 -74.5 q-16 -62 -67 -93.5t-112 -31.5q-45 0 -80 17t-47 46l63 56q7 -20 28.5 -31.5t48.5 -11.5q65 0 81 53q4 16 -5.5 26t-32.5 13.5t-37.5 4.5t-38.5 1h-7l27 40l38 61q-105 13 -156 78.5t-22 174.5z" glyph-name="ccedilla" horiz-adv-x="628" unicode="ç"/><glyph d="M325 -6q-131 -1 -200 65.5t-36 190.5t137.5 190.5t235.5 65.5q129 -1 192 -66t30 -190q-2 -8 -4.5 -15.5t-4.5 -12.5h-447q-7 -56 29.5 -88.5t99.5 -31.5q63 0 103 17t69 64l130 -7q-52 -101 -135.5 -141t-198.5 -41zM439 405q-30 0 -61 -10t-62 -30.5t-54.5 -57.5 t-33.5 -85q22 39 46 53t59 14h233q9 58 -26.5 86.5t-100.5 29.5zM383 700h167l19 -142h-122z" glyph-name="egrave" horiz-adv-x="643" unicode="è"/><glyph d="M325 -6q-131 -1 -200 65.5t-36 190.5t137.5 190.5t235.5 65.5q129 -1 192 -66t30 -190q-2 -8 -4.5 -15.5t-4.5 -12.5h-447q-7 -56 29.5 -88.5t99.5 -31.5q63 0 103 17t69 64l130 -7q-52 -101 -135.5 -141t-198.5 -41zM439 405q-30 0 -61 -10t-62 -30.5t-54.5 -57.5 t-33.5 -85q22 39 46 53t59 14h233q9 58 -26.5 86.5t-100.5 29.5zM410 558l96 142h162l-141 -142h-117z" glyph-name="eacute" horiz-adv-x="639" unicode="é"/><glyph d="M325 -6q-131 -1 -200 65.5t-36 190.5t137.5 190.5t235.5 65.5q129 -1 192 -66t30 -190q-2 -8 -4.5 -15.5t-4.5 -12.5h-447q-7 -56 29.5 -88.5t99.5 -31.5q63 0 103 17t69 64l130 -7q-52 -101 -135.5 -141t-198.5 -41zM264 581l170 161h190l84 -161h-150l-46 97l-98 -97 h-150zM439 405q-30 0 -61 -10t-62 -30.5t-54.5 -57.5t-33.5 -85q22 39 46 53t59 14h233q9 58 -26.5 86.5t-100.5 29.5z" glyph-name="ecircumflex" horiz-adv-x="639" unicode="ê"/><glyph d="M325 -6q-131 -1 -200 65.5t-36 190.5t137.5 190.5t235.5 65.5q129 -1 192 -66t30 -190q-2 -8 -4.5 -15.5t-4.5 -12.5h-447q-7 -56 29.5 -88.5t99.5 -31.5q63 0 103 17t69 64l130 -7q-52 -101 -135.5 -141t-198.5 -41zM439 405q-30 0 -61 -10t-62 -30.5t-54.5 -57.5 t-33.5 -85q22 39 46 53t59 14h233q9 58 -26.5 86.5t-100.5 29.5zM658 583h-143l31 117h143zM460 583h-143l32 117h143z" glyph-name="edieresis" horiz-adv-x="639" unicode="ë"/><glyph d="M30 0l134 500h143l-134 -500h-143zM304 700l20 -142h-122l-65 142h167z" glyph-name="igrave" unicode="ì"/><glyph d="M30 0l134 500h143l-134 -500h-143zM296 558h-117l96 142h161z" glyph-name="iacute" unicode="í"/><glyph d="M173 0h-143l134 500h143zM35 581l170 161h190l84 -161h-149l-46 97l-99 -97h-150z" glyph-name="icircumflex" unicode="î"/><glyph d="M173 0h-143l134 500h143zM428 583h-143l32 117h142zM231 583h-143l31 117h143z" glyph-name="idieresis" unicode="ï"/><glyph d="M330 -4q-84 0 -145 21.5t-92 74t-11 130.5q25 105 123 165.5t207 60.5q82 0 136.5 -36.5t56.5 -103.5q18 111 -14 199l-125 -24l-16 75l94 18q-20 31 -77 35q-44 4 -88 -19l-60 79q79 34 169 34q88 0 140.5 -23.5t80.5 -77.5l51 8l15 -74l-48 -7q28 -109 -1 -218 q-42 -158 -147 -237.5t-249 -79.5zM229 224q-12 -44 13 -71.5t65 -35t85 -2.5q56 6 109 40.5t71 81.5q20 45 -0.5 75t-58 40.5t-79.5 7.5q-77 -5 -132.5 -40t-72.5 -96z" glyph-name="eth" horiz-adv-x="664" unicode="ð"/><glyph d="M30 0l134 500h143l-32 -119q-10 -35 -26 -67l2 -1q20 44 35 65q46 64 108 97t117 33q100 0 129.5 -76t-8.5 -204l-61 -228h-142l61 229q17 65 -2.5 100.5t-68.5 35.5q-24 0 -50 -8t-54.5 -26.5t-53.5 -55.5t-38 -88l-50 -187h-143zM232 565q57 143 201 143q35 0 58 -14 t39 -28.5t32 -15.5q42 -2 69 58l105 -10q-22 -67 -72 -109t-122 -41q-46 1 -78.5 28.5t-52.5 28.5q-31 1 -56 -14.5t-36 -40.5z" glyph-name="ntilde" horiz-adv-x="601" unicode="ñ"/><glyph d="M327 -6q-131 0 -201 66t-37 190t138.5 190.5t236.5 65.5q63 0 113.5 -16t85 -47.5t45 -79.5t-5.5 -113q-33 -124 -138 -190t-237 -66zM232 250q-18 -67 18.5 -104t107.5 -37q69 0 126.5 38t75.5 103q17 65 -20.5 103.5t-105.5 38.5q-67 1 -126 -38.5t-76 -103.5zM369 700 h167l20 -142h-122z" glyph-name="ograve" horiz-adv-x="657" unicode="ò"/><glyph d="M327 -6q-131 0 -201 66t-37 190t138.5 190.5t236.5 65.5q63 0 113.5 -16t85 -47.5t45 -79.5t-5.5 -113q-33 -124 -138 -190t-237 -66zM232 250q-18 -67 18.5 -104t107.5 -37q69 0 126.5 38t75.5 103q17 65 -20.5 103.5t-105.5 38.5q-67 1 -126 -38.5t-76 -103.5zM413 558 l96 142h161l-141 -142h-116z" glyph-name="oacute" horiz-adv-x="657" unicode="ó"/><glyph d="M327 -6q-131 0 -201 66t-37 190t138.5 190.5t236.5 65.5q63 0 113.5 -16t85 -47.5t45 -79.5t-5.5 -113q-33 -124 -138 -190t-237 -66zM232 250q-18 -67 18.5 -104t107.5 -37q69 0 126.5 38t75.5 103q17 65 -20.5 103.5t-105.5 38.5q-67 1 -126 -38.5t-76 -103.5zM262 581 l170 161h190l84 -161h-150l-46 97l-98 -97h-150z" glyph-name="ocircumflex" horiz-adv-x="657" unicode="ô"/><glyph d="M327 -6q-131 0 -201 66t-37 190t138.5 190.5t236.5 65.5q63 0 113.5 -16t85 -47.5t45 -79.5t-5.5 -113q-33 -124 -138 -190t-237 -66zM232 250q-18 -67 18.5 -104t107.5 -37q69 0 126.5 38t75.5 103q17 65 -20.5 103.5t-105.5 38.5q-67 1 -126 -38.5t-76 -103.5zM345 550 l-87 15q57 143 201 143q35 0 58 -14t39 -28.5t32 -15.5q42 -2 69 58l105 -10q-22 -67 -72 -109t-122 -41q-46 1 -78.5 28.5t-52.5 28.5q-31 1 -56 -14.5t-36 -40.5z" glyph-name="otilde" horiz-adv-x="657" unicode="õ"/><glyph d="M327 -6q-131 0 -201 66t-37 190t138.5 190.5t236.5 65.5q63 0 113.5 -16t85 -47.5t45 -79.5t-5.5 -113q-33 -124 -138 -190t-237 -66zM232 250q-18 -67 18.5 -104t107.5 -37q69 0 126.5 38t75.5 103q17 65 -20.5 103.5t-105.5 38.5q-67 1 -126 -38.5t-76 -103.5zM515 583 l31 117h143l-32 -117h-142zM317 583l32 117h142l-31 -117h-143z" glyph-name="odieresis" horiz-adv-x="657" unicode="ö"/><glyph d="M521 302l-318 28l31 58l-6 1l9 5l25 44l58 -5l136 65l127 -27l-108 -51l105 -9zM353 41h-104l22 81h104z" glyph-name="divide" horiz-adv-x="598" unicode="÷"/><glyph d="M199 -39h-160l91 95q-74 69 -41 194q33 124 138.5 190.5t236.5 65.5q45 0 92 -10l31 32h160l-84 -86q72 -70 39 -192q-33 -124 -138 -190t-237 -66q-47 0 -88 9zM237 165l218 226q-7 1 -21 1q-67 1 -126 -38.5t-76 -103.5q-13 -50 5 -85zM555 330l-213 -221h16 q69 0 126.5 38t75.5 103q12 47 -5 80z" glyph-name="oslash" horiz-adv-x="657" unicode="ø"/><glyph d="M235 -3q-205 0 -131 279l61 229h143l-61 -229q-19 -69 3.5 -102.5t77.5 -33.5q31 0 63 13t67.5 55.5t53.5 109.5l50 187h142l-134 -500h-142l31 115q6 26 25 67h-2q-20 -44 -35 -65q-44 -62 -100.5 -93.5t-111.5 -31.5zM345 700h166l20 -142h-122z" glyph-name="ugrave" horiz-adv-x="619" unicode="ù"/><glyph d="M235 -3q-205 0 -131 279l61 229h143l-61 -229q-19 -69 3.5 -102.5t77.5 -33.5q31 0 63 13t67.5 55.5t53.5 109.5l50 187h142l-134 -500h-142l31 115q6 26 25 67h-2q-20 -44 -35 -65q-44 -62 -100.5 -93.5t-111.5 -31.5zM505 558h-117l96 142h162z" glyph-name="uacute" horiz-adv-x="619" unicode="ú"/><glyph d="M235 -3q-205 0 -131 279l61 229h143l-61 -229q-19 -69 3.5 -102.5t77.5 -33.5q31 0 63 13t67.5 55.5t53.5 109.5l50 187h142l-134 -500h-142l31 115q6 26 25 67h-2q-20 -44 -35 -65q-44 -62 -100.5 -93.5t-111.5 -31.5zM252 581l170 161h190l84 -161h-150l-46 97l-98 -97 h-150z" glyph-name="ucircumflex" horiz-adv-x="619" unicode="û"/><glyph d="M235 -3q-205 0 -131 279l61 229h143l-61 -229q-19 -69 3.5 -102.5t77.5 -33.5q31 0 63 13t67.5 55.5t53.5 109.5l50 187h142l-134 -500h-142l31 115q6 26 25 67h-2q-20 -44 -35 -65q-44 -62 -100.5 -93.5t-111.5 -31.5zM314 583l32 117h142l-31 -117h-143zM654 583h-142 l31 117h143z" glyph-name="udieresis" horiz-adv-x="619" unicode="ü"/><glyph d="M144 -206h-150l28 105h75q32 0 72.5 11.5t58.5 38.5l35 58l-81 493h156l44 -289q5 -35 -5 -73h2q11 42 33 73l198 289h156l-397 -571q-87 -135 -225 -135zM515 558h-116l96 142h161z" glyph-name="yacute" horiz-adv-x="655" unicode="ý"/><glyph d="M120 -200h-141l239 900h143l-67 -249q-8 -34 -31 -68l2 -1q24 38 49 56q95 70 236 68q98 -1 149 -71t21 -185q-32 -118 -119.5 -187t-187.5 -69q-125 0 -192 63q-22 22 -32 66h-1q8 -42 -1 -74zM241 250q-21 -78 16 -120.5t110 -42.5t131 43.5t78 119.5q21 78 -15.5 121 t-106.5 43q-72 1 -132 -42.5t-81 -121.5z" glyph-name="thorn" horiz-adv-x="679" unicode="þ"/><glyph d="M-6 -206l28 105h75q32 0 72.5 11.5t58.5 38.5l35 58l-81 493h156l44 -289q5 -35 -5 -73h2q11 42 33 73l198 289h156l-397 -571q-87 -135 -225 -135h-150zM514 583l31 117h143l-31 -117h-143zM317 583l31 117h143l-32 -117h-142z" glyph-name="ydieresis" horiz-adv-x="655" unicode="ÿ"/><glyph d="M195 0h-155l452 700h190l76 -700h-153l-20 144l-296 -1zM816 794h-404l24 91h404zM544 546l-184 -284q129 0 155 -7q44 -12 69 -92z" glyph-name="Amacron" horiz-adv-x="780" unicode="Ā"/><glyph d="M458 127q-34 -61 -100.5 -93.5t-137.5 -32.5q-81 0 -129.5 38t-31.5 103q16 61 67 95t112.5 41.5t121 8.5t102 6.5t47.5 25.5q10 41 -18.5 60t-92.5 19q-129 0 -158 -77l-122 7q19 59 71 100t112.5 58.5t124.5 16.5q54 0 96.5 -10t78 -32.5t45 -60t-2.5 -93.5l-38 -143 q-5 -19 0.5 -25.5t24.5 -6.5h26l-35 -132h-99q-41 0 -62.5 26t-12.5 62zM203 146q-8 -30 16 -45t67 -15q59 0 116.5 25.5t68.5 65.5l15 55q-29 -17 -97.5 -18.5t-121.5 -13t-64 -54.5zM269 594l24 91h404l-25 -91h-403z" glyph-name="amacron" horiz-adv-x="648" unicode="ā"/><glyph d="M195 0h-155l452 700h190l76 -700h-153l-20 144l-296 -1zM600 753q-95 0 -126.5 53.5t-11.5 129.5h111q-12 -32 -0.5 -62t52.5 -30q40 0 65 27t35 65h112q-20 -76 -81 -129.5t-156 -53.5zM360 262q129 0 155 -7q44 -12 69 -92l-40 383z" glyph-name="Abreve" horiz-adv-x="780" unicode="Ă"/><glyph d="M458 127q-34 -61 -100.5 -93.5t-137.5 -32.5q-81 0 -129.5 38t-31.5 103q16 61 67 95t112.5 41.5t121 8.5t102 6.5t47.5 25.5q10 41 -18.5 60t-92.5 19q-129 0 -158 -77l-122 7q19 59 71 100t112.5 58.5t124.5 16.5q54 0 96.5 -10t78 -32.5t45 -60t-2.5 -93.5l-38 -143 q-5 -19 0.5 -25.5t24.5 -6.5h26l-35 -132h-99q-41 0 -62.5 26t-12.5 62zM447 552q-95 0 -127 54t-12 129h112q-12 -31 -1 -61t52 -30q40 0 65 27t35 64h112q-20 -76 -80.5 -129.5t-155.5 -53.5zM203 146q-8 -30 16 -45t67 -15q59 0 116.5 25.5t68.5 65.5l15 55 q-29 -17 -97.5 -18.5t-121.5 -13t-64 -54.5z" glyph-name="abreve" horiz-adv-x="648" unicode="ă"/><glyph d="M195 0h-155l452 700h190l76 -700h-26q-71 -61 -83 -119q-3 -43 31 -46q22 0 55 16l43 -46q-53 -55 -143 -55q-32 0 -56.5 9t-37.5 29.5t-9.5 48.5t32.5 70.5t84 92.5h-43l-20 144l-296 -1zM544 546l-184 -284q129 0 155 -7q44 -12 69 -92z" glyph-name="Aogonek" horiz-adv-x="780" unicode="Ą"/><glyph d="M458 127q-34 -61 -100.5 -93.5t-137.5 -32.5q-81 0 -129.5 38t-31.5 103q16 61 67 95t112.5 41.5t121 8.5t102 6.5t47.5 25.5q10 41 -18.5 60t-92.5 19q-129 0 -158 -77l-122 7q19 59 71 100t112.5 58.5t124.5 16.5q54 0 96.5 -10t78 -32.5t45 -60t-2.5 -93.5l-38 -143 q-5 -19 0.5 -25.5t24.5 -6.5h26l-35 -132h-4q-72 -63 -81 -119q-4 -41 32 -43q22 0 55 16l42 -46q-25 -26 -64 -41t-78 -15q-32 0 -56.5 9t-37.5 29t-10 48.5t31.5 70.5t82.5 91h-11q-41 0 -62.5 26t-12.5 62zM203 146q-8 -30 16 -45t67 -15q59 0 116.5 25.5t68.5 65.5 l15 55q-29 -17 -97.5 -18.5t-121.5 -13t-64 -54.5z" glyph-name="aogonek" horiz-adv-x="648" unicode="ą"/><glyph d="M116 350q47 176 171 267.5t283 89.5q132 -2 208.5 -64t74.5 -182l-149 -33q0 58 -45 96.5t-128 39.5q-104 0 -175 -58t-97 -156q-27 -99 15.5 -156.5t141.5 -57.5q87 1 151.5 39.5t95.5 97.5l130 -34q-62 -120 -172 -182t-242 -64q-160 -2 -235 89.5t-28 267.5zM511 758 l96 142h161l-141 -142h-116z" glyph-name="Cacute" horiz-adv-x="751" unicode="Ć"/><glyph d="M89 250q33 124 137.5 190.5t234.5 65.5q103 -1 171.5 -53t55.5 -147l-134 -8q-3 44 -33.5 70t-89.5 27q-73 0 -127 -39t-72 -106q-18 -66 15.5 -105.5t106.5 -38.5q115 3 173 93l130 -8q-37 -94 -133 -145t-200 -52q-130 -1 -199 65.5t-36 190.5zM518 558h-117l97 142 h161z" glyph-name="cacute" horiz-adv-x="628" unicode="ć"/><glyph d="M116 350q47 176 171 267.5t283 89.5q132 -2 208.5 -64t74.5 -182l-149 -33q0 58 -45 96.5t-128 39.5q-104 0 -175 -58t-97 -156q-27 -99 15.5 -156.5t141.5 -57.5q87 1 151.5 39.5t95.5 97.5l130 -34q-62 -120 -172 -182t-242 -64q-160 -2 -235 89.5t-28 267.5zM368 781 l170 161h189l84 -161h-149l-46 97l-99 -97h-149z" glyph-name="Ccircumflex" horiz-adv-x="751" unicode="Ĉ"/><glyph d="M89 250q33 124 137.5 190.5t234.5 65.5q103 -1 171.5 -53t55.5 -147l-134 -8q-3 44 -33.5 70t-89.5 27q-73 0 -127 -39t-72 -106q-18 -66 15.5 -105.5t106.5 -38.5q115 3 173 93l130 -8q-37 -94 -133 -145t-200 -52q-130 -1 -199 65.5t-36 190.5zM261 581l170 161h190 l84 -161h-150l-45 97l-99 -97h-150z" glyph-name="ccircumflex" horiz-adv-x="628" unicode="ĉ"/><glyph d="M116 350q47 176 171 267.5t283 89.5q132 -2 208.5 -64t74.5 -182l-149 -33q0 58 -45 96.5t-128 39.5q-104 0 -175 -58t-97 -156q-27 -99 15.5 -156.5t141.5 -57.5q87 1 151.5 39.5t95.5 97.5l130 -34q-62 -120 -172 -182t-242 -64q-160 -2 -235 89.5t-28 267.5zM515 781 l32 119h150l-32 -119h-150z" glyph-name="Cdotaccent" horiz-adv-x="751" unicode="Ċ"/><glyph d="M89 250q33 124 137.5 190.5t234.5 65.5q103 -1 171.5 -53t55.5 -147l-134 -8q-3 44 -33.5 70t-89.5 27q-73 0 -127 -39t-72 -106q-18 -66 15.5 -105.5t106.5 -38.5q115 3 173 93l130 -8q-37 -94 -133 -145t-200 -52q-130 -1 -199 65.5t-36 190.5zM556 581h-150l32 119 h150z" glyph-name="cdotaccent" horiz-adv-x="628" unicode="ċ"/><glyph d="M116 350q47 176 171 267.5t283 89.5q132 -2 208.5 -64t74.5 -182l-149 -33q0 58 -45 96.5t-128 39.5q-104 0 -175 -58t-97 -156q-27 -99 15.5 -156.5t141.5 -57.5q87 1 151.5 39.5t95.5 97.5l130 -34q-62 -120 -172 -182t-242 -64q-160 -2 -235 89.5t-28 267.5zM412 942 h150l46 -98l98 98h150l-170 -161h-190z" glyph-name="Ccaron" horiz-adv-x="751" unicode="Č"/><glyph d="M89 250q33 124 137.5 190.5t234.5 65.5q103 -1 171.5 -53t55.5 -147l-134 -8q-3 44 -33.5 70t-89.5 27q-73 0 -127 -39t-72 -106q-18 -66 15.5 -105.5t106.5 -38.5q115 3 173 93l130 -8q-37 -94 -133 -145t-200 -52q-130 -1 -199 65.5t-36 190.5zM303 742h150l47 -98 l98 98h149l-170 -161h-190z" glyph-name="ccaron" horiz-adv-x="628" unicode="č"/><glyph d="M29 0l187 700h324q155 0 231.5 -89.5t31.5 -260.5q-31 -115 -101.5 -195.5t-159.5 -117.5t-189 -37h-324zM207 132h192q77 0 154.5 55t106.5 163q28 105 -19.5 162t-124.5 57h-277q85 0 77 -32q-20 -79 -109 -405zM337 942h150l46 -98l98 98h150l-170 -161h-190z" glyph-name="Dcaron" horiz-adv-x="734" unicode="Ď"/><glyph d="M283 -6q-126 0 -175 64t-14 192q68 254 326 256q50 1 97 -21t71 -58q14 -20 16 -66h2q-2 40 7 74l71 265h176l-68 -128l-153 -572h-143l17 61q10 37 32 73l-1 1q-30 -48 -52 -66q-42 -34 -100.5 -54.5t-108.5 -20.5zM235 250q-38 -141 117 -141q74 0 134.5 39.5 t76.5 101.5q17 63 -22 106t-112 42q-155 -1 -194 -148z" glyph-name="dcaron" horiz-adv-x="704" unicode="ď"/><glyph d="M78 275l38 143h86l76 282h324q100 0 168.5 -38t97 -115.5t-3.5 -196.5q-31 -115 -101.5 -195.5t-159.5 -117.5t-189 -37h-324l74 275h-86zM502 275h-195q-2 -7 -16.5 -62t-21.5 -81h192q77 0 154 55t106 163q28 105 -19 162t-124 57h-278q86 0 77 -32q-4 -17 -31 -119 h194z" glyph-name="Dcroat" horiz-adv-x="792" unicode="Đ"/><glyph d="M283 -6q-126 0 -175 64t-14 192q68 254 326 256q50 1 97 -21t71 -58q14 -20 16 -66h2q-2 40 7 74l28 105h-137l27 101h137l16 59h143l-16 -59h97l-27 -101h-97l-145 -540h-143l17 61q10 37 32 73l-1 1q-30 -48 -52 -66q-42 -34 -100.5 -54.5t-108.5 -20.5zM235 250 q-38 -141 117 -141q74 0 134.5 39.5t76.5 101.5q17 63 -22 106t-112 42q-155 -1 -194 -148z" glyph-name="dcroat" horiz-adv-x="664" unicode="đ"/><glyph d="M813 700l-35 -131h-453l-46 -172h424l-30 -111h-424l-41 -155h453l-35 -131h-596l188 700h595zM336 794l24 91h404l-24 -91h-404z" glyph-name="Emacron" horiz-adv-x="653" unicode="Ē"/><glyph d="M325 -6q-131 -1 -200 65.5t-36 190.5t137.5 190.5t235.5 65.5q129 -1 192 -66t30 -190q-2 -8 -4.5 -15.5t-4.5 -12.5h-447q-7 -56 29.5 -88.5t99.5 -31.5q63 0 103 17t69 64l130 -7q-52 -101 -135.5 -141t-198.5 -41zM691 594h-403l24 91h404zM439 405q-30 0 -61 -10 t-62 -30.5t-54.5 -57.5t-33.5 -85q22 39 46 53t59 14h233q9 58 -26.5 86.5t-100.5 29.5z" glyph-name="emacron" horiz-adv-x="639" unicode="ē"/><glyph d="M30 0l188 700h595l-35 -131h-453l-46 -172h424l-30 -111h-424l-41 -155h453l-35 -131h-596zM535 752q-95 0 -127 54t-12 129h112q-12 -31 -1 -61t52 -30q40 0 65.5 27t35.5 64h112q-20 -76 -81 -129.5t-156 -53.5z" glyph-name="Ebreve" horiz-adv-x="653" unicode="Ĕ"/><glyph d="M325 -6q-131 -1 -200 65.5t-36 190.5t137.5 190.5t235.5 65.5q129 -1 192 -66t30 -190q-2 -8 -4.5 -15.5t-4.5 -12.5h-447q-7 -56 29.5 -88.5t99.5 -31.5q63 0 103 17t69 64l130 -7q-52 -101 -135.5 -141t-198.5 -41zM476 552q-95 0 -127 54t-12 129h112 q-12 -31 -1 -61.5t52 -30.5q40 0 65 27t36 65h111q-20 -76 -80.5 -129.5t-155.5 -53.5zM228 222q22 39 46 53t59 14h233q9 58 -26.5 86.5t-100.5 29.5q-30 0 -61 -10t-62 -30.5t-54.5 -57.5t-33.5 -85z" glyph-name="ebreve" horiz-adv-x="639" unicode="ĕ"/><glyph d="M813 700l-35 -131h-453l-46 -172h424l-30 -111h-424l-41 -155h453l-35 -131h-596l188 700h595zM615 781h-150l32 119h150z" glyph-name="Edotaccent" horiz-adv-x="653" unicode="Ė"/><glyph d="M325 -6q-131 -1 -200 65.5t-36 190.5t137.5 190.5t235.5 65.5q129 -1 192 -66t30 -190q-2 -8 -4.5 -15.5t-4.5 -12.5h-447q-7 -56 29.5 -88.5t99.5 -31.5q63 0 103 17t69 64l130 -7q-52 -101 -135.5 -141t-198.5 -41zM439 405q-30 0 -61 -10t-62 -30.5t-54.5 -57.5 t-33.5 -85q22 39 46 53t59 14h233q9 58 -26.5 86.5t-100.5 29.5zM409 581l32 119h150l-32 -119h-150z" glyph-name="edotaccent" horiz-adv-x="639" unicode="ė"/><glyph d="M30 0l188 700h595l-35 -131h-453l-46 -172h424l-30 -111h-424l-41 -155h453l-35 -131h-138q-72 -61 -83 -119q-4 -43 31 -46q22 0 55 16l42 -46q-25 -26 -64 -40.5t-78 -14.5q-32 0 -56.5 9t-37.5 29.5t-9.5 48.5t32.5 70.5t84 92.5h-374z" glyph-name="Eogonek" horiz-adv-x="653" unicode="Ę"/><glyph d="M422 -166q-26 -26 -65 -41t-78 -15q-38 0 -64.5 13.5t-37 39.5t9.5 69.5t73 97.5q-102 15 -151 80t-20 172q33 124 137.5 190.5t235.5 65.5q129 -1 192 -66t30 -190q-2 -8 -4.5 -15.5t-4.5 -12.5h-447q-7 -56 29.5 -88.5t99.5 -31.5q63 0 103 17t69 64l130 -7 q-51 -98 -130 -138.5t-188 -43.5q-55 -63 -49 -104q4 -26 33 -26q21 0 54 16zM439 405q-30 0 -61 -10t-62 -30.5t-54.5 -57.5t-33.5 -85q22 39 46 53t59 14h233q9 58 -26.5 86.5t-100.5 29.5z" glyph-name="eogonek" horiz-adv-x="639" unicode="ę"/><glyph d="M626 0h-596l188 700h595l-35 -131h-453l-46 -172h424l-30 -111h-424l-41 -155h453zM371 942h150l46 -98l98 98h150l-170 -161h-190z" glyph-name="Ecaron" horiz-adv-x="653" unicode="Ě"/><glyph d="M325 -6q-131 -1 -200 65.5t-36 190.5t137.5 190.5t235.5 65.5q129 -1 192 -66t30 -190q-2 -8 -4.5 -15.5t-4.5 -12.5h-447q-7 -56 29.5 -88.5t99.5 -31.5q63 0 103 17t69 64l130 -7q-52 -101 -135.5 -141t-198.5 -41zM390 581l-84 161h150l46 -98l98 98h150l-170 -161 h-190zM228 222q22 39 46 53t59 14h233q9 58 -26.5 86.5t-100.5 29.5q-30 0 -61 -10t-62 -30.5t-54.5 -57.5t-33.5 -85z" glyph-name="ecaron" horiz-adv-x="639" unicode="ě"/><glyph d="M362 -7q-159 0 -226 90t-20 267q47 176 171.5 267.5t285.5 89.5q133 -2 210.5 -64t75.5 -182l-141 -37q-6 71 -58.5 111t-121.5 41q-91 0 -170.5 -59.5t-108.5 -166.5q-28 -106 16 -166t137 -60q59 0 109 45t72 96h-97l29 106h248q72 0 54 -69q-4 -15 -81 -302h-140 l71 265h-14q-45 -149 -117.5 -210.5t-183.5 -61.5zM510 781h-150l170 161h190l84 -161h-150l-45 97z" glyph-name="Gcircumflex" horiz-adv-x="768" unicode="Ĝ"/><glyph d="M-12 -46q14 53 49.5 81t97.5 49q-71 16 -56 70q12 51 99 74q0 1 -3.5 6.5t-8 14.5t-8.5 22t-4.5 27.5t3.5 31.5q15 56 66.5 96t111.5 56.5t123 16.5q40 0 106 -16q-14 53 46 76.5t170 20.5l-25 -94h-68q-63 0 -64 -20q0 -4 4 -10l3 -4q4 -3 7.5 -7t8 -11t8.5 -14t7.5 -17 t5 -20.5t1 -23.5t-4.5 -26q-22 -81 -110.5 -124.5t-187.5 -43.5q-40 0 -73 9q-4 1 -9 2.5t-7.5 2.5t-3.5 1q-13 1 -26.5 -6t-15.5 -15q-5 -18 40 -25t110.5 -11.5t129.5 -16.5t100.5 -50t19.5 -102q-14 -52 -71.5 -88t-130 -51t-152.5 -15q-77 0 -145 14.5t-112.5 51 t-30.5 88.5zM301 -109q65 0 121 18t66 54q5 19 -7.5 33t-39.5 22.5t-53 12.5t-59 7q-17 3 -41 3q-44 0 -94.5 -22t-59.5 -56q-7 -24 19.5 -41t65.5 -24t82 -7zM427 616h-150l170 161h190l84 -161h-150l-46 97zM391 259q45 0 82 17t47 56q10 38 -17.5 55t-71.5 17 q-45 0 -83 -17t-48 -56q-10 -38 18.5 -55t72.5 -17z" glyph-name="gcircumflex" horiz-adv-x="661" unicode="ĝ"/><glyph d="M362 -7q-159 0 -226 90t-20 267q47 176 171.5 267.5t285.5 89.5q133 -2 210.5 -64t75.5 -182l-141 -37q-6 71 -58.5 111t-121.5 41q-91 0 -170.5 -59.5t-108.5 -166.5q-28 -106 16 -166t137 -60q59 0 109 45t72 96h-97l29 106h248q72 0 54 -69q-4 -15 -81 -302h-140 l71 265h-14q-45 -149 -117.5 -210.5t-183.5 -61.5zM594 752q-95 0 -126.5 53.5t-11.5 129.5h112q-5 -22 -5.5 -42.5t14 -35t42.5 -14.5q40 0 65 27t35 65h112q-20 -76 -81 -129.5t-156 -53.5z" glyph-name="Gbreve" horiz-adv-x="768" unicode="Ğ"/><glyph d="M-12 -46q14 53 49.5 81t97.5 49q-71 16 -56 70q12 51 99 74q0 1 -3.5 6.5t-8 14.5t-8.5 22t-4.5 27.5t3.5 31.5q15 56 66.5 96t111.5 56.5t123 16.5q40 0 106 -16q-14 53 46 76.5t170 20.5l-25 -94h-68q-63 0 -64 -20q0 -4 4 -10l3 -4q4 -3 7.5 -7t8 -11t8.5 -14t7.5 -17 t5 -20.5t1 -23.5t-4.5 -26q-22 -81 -110.5 -124.5t-187.5 -43.5q-40 0 -73 9q-4 1 -9 2.5t-7.5 2.5t-3.5 1q-13 1 -26.5 -6t-15.5 -15q-5 -18 40 -25t110.5 -11.5t129.5 -16.5t100.5 -50t19.5 -102q-14 -52 -71.5 -88t-130 -51t-152.5 -15q-77 0 -145 14.5t-112.5 51 t-30.5 88.5zM338 761h111q-12 -31 -0.5 -61.5t52.5 -30.5q40 0 65 27t35 65h112q-20 -76 -81 -129.5t-156 -53.5t-126.5 53.5t-11.5 129.5zM301 -109q65 0 121 18t66 54q5 19 -7.5 33t-39.5 22.5t-53 12.5t-59 7q-17 3 -41 3q-44 0 -94.5 -22t-59.5 -56q-7 -24 19.5 -41 t65.5 -24t82 -7zM391 259q45 0 82 17t47 56q10 38 -17.5 55t-71.5 17q-45 0 -83 -17t-48 -56q-10 -38 18.5 -55t72.5 -17z" glyph-name="gbreve" horiz-adv-x="662" unicode="ğ"/><glyph d="M362 -7q-159 0 -226 90t-20 267q47 176 171.5 267.5t285.5 89.5q133 -2 210.5 -64t75.5 -182l-141 -37q-6 71 -58.5 111t-121.5 41q-91 0 -170.5 -59.5t-108.5 -166.5q-28 -106 16 -166t137 -60q59 0 109 45t72 96h-97l29 106h248q72 0 54 -69q-4 -15 -81 -302h-140 l71 265h-14q-45 -149 -117.5 -210.5t-183.5 -61.5zM516 781l32 119h150l-32 -119h-150z" glyph-name="Gdotaccent" horiz-adv-x="768" unicode="Ġ"/><glyph d="M-12 -46q14 53 49.5 81t97.5 49q-71 16 -56 70q12 51 99 74q0 1 -3.5 6.5t-8 14.5t-8.5 22t-4.5 27.5t3.5 31.5q15 56 66.5 96t111.5 56.5t123 16.5q40 0 106 -16q-14 53 46 76.5t170 20.5l-25 -94h-68q-63 0 -64 -20q0 -4 4 -10l3 -4q4 -3 7.5 -7t8 -11t8.5 -14t7.5 -17 t5 -20.5t1 -23.5t-4.5 -26q-22 -81 -110.5 -124.5t-187.5 -43.5q-40 0 -73 9q-4 1 -9 2.5t-7.5 2.5t-3.5 1q-13 1 -26.5 -6t-15.5 -15q-5 -18 40 -25t110.5 -11.5t129.5 -16.5t100.5 -50t19.5 -102q-14 -52 -71.5 -88t-130 -51t-152.5 -15q-77 0 -145 14.5t-112.5 51 t-30.5 88.5zM301 -109q65 0 121 18t66 54q5 19 -7.5 33t-39.5 22.5t-53 12.5t-59 7q-17 3 -41 3q-44 0 -94.5 -22t-59.5 -56q-7 -24 19.5 -41t65.5 -24t82 -7zM391 259q45 0 82 17t47 56q10 38 -17.5 55t-71.5 17q-45 0 -83 -17t-48 -56q-10 -38 18.5 -55t72.5 -17zM424 634 l32 120h150l-32 -120h-150z" glyph-name="gdotaccent" horiz-adv-x="662" unicode="ġ"/><glyph d="M362 -7q-159 0 -226 90t-20 267q47 176 171.5 267.5t285.5 89.5q133 -2 210.5 -64t75.5 -182l-141 -37q-6 71 -58.5 111t-121.5 41q-91 0 -170.5 -59.5t-108.5 -166.5q-28 -106 16 -166t137 -60q59 0 109 45t72 96h-97l29 106h248q72 0 54 -69q-4 -15 -81 -302h-140 l71 265h-14q-45 -149 -117.5 -210.5t-183.5 -61.5zM313 -192h-94l96 142h113z" glyph-name="uni0122" horiz-adv-x="768" unicode="Ģ"/><glyph d="M-12 -46q14 53 49.5 81t97.5 49q-71 16 -56 70q12 51 99 74q0 1 -3.5 6.5t-8 14.5t-8.5 22t-4.5 27.5t3.5 31.5q15 56 66.5 96t111.5 56.5t123 16.5q40 0 106 -16q-14 53 46 76.5t170 20.5l-25 -94h-68q-63 0 -64 -20q0 -4 4 -10l3 -4q4 -3 7.5 -7t8 -11t8.5 -14t7.5 -17 t5 -20.5t1 -23.5t-4.5 -26q-22 -81 -110.5 -124.5t-187.5 -43.5q-40 0 -73 9q-4 1 -9 2.5t-7.5 2.5t-3.5 1q-13 1 -26.5 -6t-15.5 -15q-5 -18 40 -25t110.5 -11.5t129.5 -16.5t100.5 -50t19.5 -102q-14 -52 -71.5 -88t-130 -51t-152.5 -15q-77 0 -145 14.5t-112.5 51 t-30.5 88.5zM301 -109q65 0 121 18t66 54q5 19 -7.5 33t-39.5 22.5t-53 12.5t-59 7q-17 3 -41 3q-44 0 -94.5 -22t-59.5 -56q-7 -24 19.5 -41t65.5 -24t82 -7zM488 570h-90l58 216l22 47h149zM391 259q45 0 82 17t47 56q10 38 -17.5 55t-71.5 17q-45 0 -83 -17t-48 -56 q-10 -38 18.5 -55t72.5 -17z" glyph-name="uni0123" horiz-adv-x="662" unicode="ģ"/><glyph d="M30 0l188 700h142l-74 -278h367l74 278h143l-187 -700h-143l75 279h-368l-74 -279h-143zM347 781l170 161h190l84 -161h-150l-46 97l-98 -97h-150z" glyph-name="Hcircumflex" horiz-adv-x="713" unicode="Ĥ"/><glyph d="M31 0l188 700h142l-77 -287q-9 -36 -30 -74l2 -1q24 48 45 70q91 100 233 100q97 0 139.5 -70.5t9.5 -194.5l-65 -243h-143l66 243q16 63 -8.5 101.5t-86.5 38.5q-26 0 -56 -10t-63 -31.5t-61 -61.5t-42 -93l-50 -187h-143zM235 761h-149l170 161h190l84 -161h-150 l-46 97z" glyph-name="hcircumflex" horiz-adv-x="646" unicode="ĥ"/><glyph d="M188 590l30 110h142l-29 -110h367l29 110h143l-29 -110h95l-27 -101h-95l-131 -489h-143l75 279h-368l-74 -279h-143l131 489h-74l27 101h74zM671 489h-367l-18 -67h367z" glyph-name="Hbar" horiz-adv-x="713" unicode="Ħ"/><glyph d="M202 639l17 61h142l-16 -61h135l-28 -101h-134l-34 -125q-9 -36 -30 -74l2 -1q24 48 45 70q91 100 233 100q97 0 139.5 -70.5t9.5 -194.5l-65 -243h-143l66 243q16 63 -8.5 101.5t-86.5 38.5q-26 0 -56 -10t-63 -31.5t-61 -61.5t-42 -93l-50 -187h-143l144 538h-99 l27 101h99z" glyph-name="hbar" horiz-adv-x="646" unicode="ħ"/><glyph d="M30 0l188 700h142l-187 -700h-143zM177 750l-86 15q55 143 200 143q35 0 58 -14t39 -28.5t32 -15.5q41 -2 70 58l104 -10q-22 -67 -71.5 -109t-122.5 -41q-46 1 -78.5 28.5t-52.5 28.5q-30 1 -55.5 -15t-36.5 -40z" glyph-name="Itilde" unicode="Ĩ"/><glyph d="M173 0h-143l134 500h143zM113 552l-86 14q56 143 200 143q27 0 48 -9t31.5 -19.5t23.5 -19.5t26 -10q40 -2 70 58l104 -10q-22 -67 -71.5 -109t-122.5 -41q-28 1 -48.5 9.5t-29.5 19t-23 19t-30 9.5q-30 2 -55 -13.5t-37 -40.5z" glyph-name="itilde" unicode="ĩ"/><glyph d="M30 0l188 700h142l-187 -700h-143zM130 787l27 101h377l-28 -101h-376z" glyph-name="Imacron" unicode="Ī"/><glyph d="M30 0l134 500h143l-134 -500h-143zM62 594l24 91h404l-25 -91h-403z" glyph-name="imacron" horiz-adv-x="113" unicode="ī"/><glyph d="M57 0h-27l188 700h142l-187 -700h-32q-71 -62 -81 -119q-4 -42 32 -44q21 0 54 16l43 -46q-26 -26 -65 -41t-78 -15q-32 0 -56.5 9t-37.5 29.5t-10 49t32 70.5t83 91z" glyph-name="Iogonek" unicode="Į"/><glyph d="M64 0h-32l134 500h140l-134 -500h-24q-73 -63 -84 -120q-5 -43 32 -45q22 0 55 16l43 -46q-53 -55 -143 -55q-32 0 -56.5 9t-37.5 29.5t-9.5 48.5t32.5 70.5t84 92.5zM331 583h-145l32 117h144z" glyph-name="iogonek" horiz-adv-x="224" unicode="į"/><glyph d="M30 0l188 700h142l-187 -700h-143zM385 781h-150l32 119h150z" glyph-name="Idotaccent" unicode="İ"/><glyph d="M30 0l134 500h143l-134 -500h-143z" glyph-name="dotlessi" unicode="ı"/><glyph d="M161 -230h-193l31 114h103q79 0 132 34.5t70 98.5l183 683h142l-187 -700q-29 -110 -107.5 -170t-173.5 -60zM173 0h-143l188 700h143z" glyph-name="IJ" horiz-adv-x="602" unicode="Ĳ"/><glyph d="M105 -183h-22l28 105h22q51 0 81 23.5t45 80.5l127 474h143l-127 -474q-30 -113 -97.5 -161t-199.5 -48zM32 0l134 500h140l-134 -500h-140zM362 700l-31 -117h-145l32 117h144zM408 583l32 117h143l-32 -117h-143z" glyph-name="ij" horiz-adv-x="426" unicode="ĳ"/><glyph d="M327 -7q-55 0 -101.5 12t-85.5 40t-51.5 73.5t0.5 113.5l145 36q-13 -59 18 -101.5t110 -42.5q71 0 133 52.5t87 146.5l101 377h143l-103 -384q-23 -86 -63.5 -150t-93.5 -101t-112 -54.5t-127 -17.5zM705 781h-150l170 161h190l84 -161h-150l-46 97z" glyph-name="Jcircumflex" horiz-adv-x="668" unicode="Ĵ"/><glyph d="M-80 -183l28 105h22q51 0 81 23.5t45 80.5l127 474h143l-127 -474q-30 -113 -97.5 -161t-199.5 -48h-22zM241 555h-150l170 161h190l84 -161h-150l-13 28h-103z" glyph-name="jcircumflex" horiz-adv-x="263" unicode="ĵ"/><glyph d="M173 0h-143l188 700h142l-84 -315q-9 -36 -35 -76h2q25 39 56 67l371 324h187l-370 -325l198 -375h-188l-170 325l-111 -163zM176 -192l96 142h113l-115 -142h-94z" glyph-name="uni0136" horiz-adv-x="711" unicode="Ķ"/><glyph d="M30 0l188 700h144l-99 -355q-10 -37 -37 -71l2 -1q28 37 61 58l250 169h206l-295 -196l176 -303h-58v-1l-1 1h-122l-125 219l-106 -71l-40 -149h-144zM134 -187l96 142h113l-115 -142h-94z" glyph-name="uni0137" horiz-adv-x="652" unicode="ķ"/><glyph d="M510 502h142l-277 -231l149 -271h-143l-112 195l-97 -71l-33 -124h-109l134 501h109l-66 -240z" glyph-name="kgreenlandic" horiz-adv-x="550" unicode="ĸ"/><glyph d="M30 0l188 700h142l-142 -531q-9 -36 -44 -64l1 -1q34 27 71 27h369l-35 -131h-550zM362 758h-117l96 142h162z" glyph-name="Lacute" horiz-adv-x="603" unicode="Ĺ"/><glyph d="M35 0l195 728h143l-195 -728h-143zM368 772h-117l96 142h161z" glyph-name="lacute" horiz-adv-x="213" unicode="ĺ"/><glyph d="M580 0h-550l188 700h142l-142 -531q-9 -36 -44 -64l1 -1q34 27 71 27h369zM157 -191l96 142h112l-115 -142h-93z" glyph-name="uni013B" horiz-adv-x="603" unicode="Ļ"/><glyph d="M35 0l195 728h143l-195 -728h-143zM49 -193h-94l96 142h113z" glyph-name="uni013C" horiz-adv-x="213" unicode="ļ"/><glyph d="M30 0l188 700h142l-142 -531q-9 -36 -44 -64l1 -1q34 27 71 27h369l-35 -131h-550zM421 546l6 27l142 63l-86 -161h-59z" glyph-name="Lcaron" horiz-adv-x="603" unicode="Ľ"/><glyph d="M35 0l195 728h143l-195 -728h-143zM381 430l-3 71l6 27l141 63l-85 -161h-59z" glyph-name="lcaron" horiz-adv-x="412" unicode="ľ"/><glyph d="M30 0l188 700h142l-142 -531q-9 -36 -44 -64l1 -1q34 27 71 27h369l-35 -131h-550zM532 321h-146l36 136h146z" glyph-name="Ldot" horiz-adv-x="603" unicode="Ŀ"/><glyph d="M35 0l195 728h143l-195 -728h-143zM453 313h-146l36 136h146z" glyph-name="ldot" horiz-adv-x="397" unicode="ŀ"/><glyph d="M40 181l-15 133l227 78l83 308h142l-68 -254l182 63l15 -134l-238 -82l-33 -124q-9 -36 -44 -64l1 -1q34 27 71 27h369l-35 -131h-550l64 240z" glyph-name="Lslash" horiz-adv-x="716" unicode="Ł"/><glyph d="M28 325l228 70l89 333h143l-77 -284l185 57l10 -135l-235 -73l-78 -293h-143l65 245l-177 -55z" glyph-name="lslash" horiz-adv-x="449" unicode="ł"/><glyph d="M30 0l188 700h148l230 -451q18 -34 21 -78l2 1q-3 43 8 87l118 441h143l-188 -700h-148l-231 447q-17 33 -21 78l-2 -1q3 -43 -8 -87l-117 -437h-143zM493 758l96 142h162l-141 -142h-117z" glyph-name="Nacute" horiz-adv-x="730" unicode="Ń"/><glyph d="M30 0l134 500h143l-32 -119q-10 -35 -26 -67l2 -1q20 44 35 65q46 64 108 97t117 33q100 0 129.5 -76t-8.5 -204l-61 -228h-142l61 229q17 65 -2.5 100.5t-68.5 35.5q-24 0 -50 -8t-54.5 -26.5t-53.5 -55.5t-38 -88l-50 -187h-143zM436 558h-116l96 142h161z" glyph-name="nacute" horiz-adv-x="601" unicode="ń"/><glyph d="M173 0h-143l188 700h148l230 -451q18 -34 21 -78l2 1q-3 43 8 87l118 441h143l-188 -700h-148l-231 447q-17 33 -21 78l-2 -1q3 -43 -8 -87zM310 -190h-94l96 142h113z" glyph-name="uni0145" horiz-adv-x="730" unicode="Ņ"/><glyph d="M30 0l134 500h143l-32 -119q-10 -35 -26 -67l2 -1q20 44 35 65q46 64 108 97t117 33q100 0 129.5 -76t-8.5 -204l-61 -228h-142l61 229q17 65 -2.5 100.5t-68.5 35.5q-24 0 -50 -8t-54.5 -26.5t-53.5 -55.5t-38 -88l-50 -187h-143zM144 -192l96 142h112l-115 -142h-93z " glyph-name="uni0146" horiz-adv-x="601" unicode="ņ"/><glyph d="M173 0h-143l188 700h148l230 -451q18 -34 21 -78l2 1q-3 43 8 87l118 441h143l-188 -700h-148l-231 447q-17 33 -21 78l-2 -1q3 -43 -8 -87zM400 942h150l46 -98l98 98h150l-170 -161h-190z" glyph-name="Ncaron" horiz-adv-x="730" unicode="Ň"/><glyph d="M173 0h-143l134 500h143l-32 -119q-10 -35 -26 -67l2 -1q20 44 35 65q46 64 108 97t117 33q100 0 129.5 -76t-8.5 -204l-61 -228h-142l61 229q17 65 -2.5 100.5t-68.5 35.5q-24 0 -50 -8t-54.5 -26.5t-53.5 -55.5t-38 -88zM285 742h150l46 -98l98 98h150l-170 -161h-190z " glyph-name="ncaron" horiz-adv-x="601" unicode="ň"/><glyph d="M173 0h-143l134 500h143l-32 -119q-10 -35 -26 -67l2 -1q20 44 35 65q46 64 108 97t117 33q100 0 129.5 -76t-8.5 -204l-61 -228h-142l61 229q17 65 -2.5 100.5t-68.5 35.5q-24 0 -50 -8t-54.5 -26.5t-53.5 -55.5t-38 -88zM457 636l-2 71l6 27l141 63l-85 -161h-60z" glyph-name="napostrophe" horiz-adv-x="601" unicode="ŉ"/><glyph d="M384 -7q-103 0 -173 39t-99 118t4 200q47 175 174 267t285 90q103 -1 173 -39.5t99 -117.5t-4 -200q-31 -117 -103 -199t-162.5 -120t-193.5 -38zM259 350q-27 -102 22 -164t138 -62q93 0 173 61.5t108 164.5q27 102 -22 163.5t-138 62.5q-88 1 -171 -61.5t-110 -164.5z M809 794h-403l24 91h404z" glyph-name="Omacron" horiz-adv-x="772" unicode="Ō"/><glyph d="M327 -6q-131 0 -201 66t-37 190t138.5 190.5t236.5 65.5q63 0 113.5 -16t85 -47.5t45 -79.5t-5.5 -113q-33 -124 -138 -190t-237 -66zM232 250q-18 -67 18.5 -104t107.5 -37q69 0 126.5 38t75.5 103q17 65 -20.5 103.5t-105.5 38.5q-67 1 -126 -38.5t-76 -103.5zM691 594 h-403l24 91h404z" glyph-name="omacron" horiz-adv-x="657" unicode="ō"/><glyph d="M384 -7q-103 0 -173 39t-99 118t4 200q47 175 174 267t285 90q103 -1 173 -39.5t99 -117.5t-4 -200q-31 -117 -103 -199t-162.5 -120t-193.5 -38zM259 350q-27 -102 22 -164t138 -62q93 0 173 61.5t108 164.5q27 102 -22 163.5t-138 62.5q-88 1 -171 -61.5t-110 -164.5z M587 752q-95 0 -126.5 53.5t-11.5 129.5h112q-5 -22 -5.5 -42.5t14 -35t42.5 -14.5q40 0 65 27t35 65h112q-20 -76 -81 -129.5t-156 -53.5z" glyph-name="Obreve" horiz-adv-x="772" unicode="Ŏ"/><glyph d="M327 -6q-131 0 -201 66t-37 190t138.5 190.5t236.5 65.5q63 0 113.5 -16t85 -47.5t45 -79.5t-5.5 -113q-33 -124 -138 -190t-237 -66zM232 250q-18 -67 18.5 -104t107.5 -37q69 0 126.5 38t75.5 103q17 65 -20.5 103.5t-105.5 38.5q-67 1 -126 -38.5t-76 -103.5zM477 552 q-95 0 -127 54t-12 129h112q-12 -31 -1 -61.5t52 -30.5q40 0 65 27t35 65h112q-20 -76 -80.5 -129.5t-155.5 -53.5z" glyph-name="obreve" horiz-adv-x="657" unicode="ŏ"/><glyph d="M384 -7q-103 0 -173 39t-99 118t4 200q47 175 174 267t285 90q103 -1 173 -39.5t99 -117.5t-4 -200q-31 -117 -103 -199t-162.5 -120t-193.5 -38zM259 350q-27 -102 22 -164t138 -62q93 0 173 61.5t108 164.5q27 102 -22 163.5t-138 62.5q-88 1 -171 -61.5t-110 -164.5z M532 758h-111l96 142h164zM617 758l96 142h164l-149 -142h-111z" glyph-name="Ohungarumlaut" horiz-adv-x="772" unicode="Ő"/><glyph d="M327 -6q-131 0 -201 66t-37 190t138.5 190.5t236.5 65.5q63 0 113.5 -16t85 -47.5t45 -79.5t-5.5 -113q-33 -124 -138 -190t-237 -66zM232 250q-18 -67 18.5 -104t107.5 -37q69 0 126.5 38t75.5 103q17 65 -20.5 103.5t-105.5 38.5q-67 1 -126 -38.5t-76 -103.5zM309 558 l96 142h164l-149 -142h-111zM505 558l96 142h164l-149 -142h-111z" glyph-name="ohungarumlaut" horiz-adv-x="657" unicode="ő"/><glyph d="M400 -7q-107 0 -180.5 39t-105 118t1.5 200q31 117 105.5 200t169 120.5t201.5 36.5q87 -1 155 -42t92 -117l41 152h501l-35 -131h-368l-44 -167h305l-30 -111h-305l-43 -160h368l-36 -131h-500l37 141q-60 -66 -152.5 -107t-177.5 -41zM295 350q-31 -116 23.5 -185 t166.5 -69q94 0 183.5 70.5t120.5 183.5q30 114 -22 183.5t-146 70.5q-114 2 -204 -67t-122 -187z" glyph-name="OE" horiz-adv-x="1218" unicode="Œ"/><glyph d="M306 -6q-122 0 -186 66t-31 190t132.5 190.5t222.5 65.5q74 -1 133 -35t73 -86q34 51 117.5 86.5t158.5 34.5q119 -1 171.5 -65.5t19.5 -190.5q-1 -3 -10 -23h-450q-13 -52 23.5 -89t108.5 -36q110 0 168 79l126 -13q-41 -76 -124 -124.5t-170 -49.5q-75 -1 -134.5 28.5 t-80.5 81.5q-50 -51 -122 -80.5t-146 -29.5zM231 250q-21 -77 18 -115.5t116 -38.5q162 0 203 154q18 69 -16.5 111.5t-104.5 42.5q-73 1 -135.5 -42.5t-80.5 -111.5zM656 227q65 70 168 70q63 -1 171 0q12 44 -19.5 75.5t-100.5 31.5q-71 1 -134 -47.5t-85 -129.5z" glyph-name="oe" horiz-adv-x="1067" unicode="œ"/><glyph d="M30 0l188 700h386q123 0 177 -47.5t28 -144.5q-14 -51 -40 -77.5t-65 -45.5q-41 -27 -115 -36l-1 -2q32 4 54 4q39 0 56 -13q13 -7 21.5 -16.5t15 -27.5t4.5 -48t-13 -71l-46 -175h-143l46 171q17 67 -65 67l-281 -1l-63 -237h-144zM270 358h203q69 0 127 30t72 81 q16 62 -15 87.5t-100 25.5h-227zM581 758h-117l96 142h161z" glyph-name="Racute" horiz-adv-x="707" unicode="Ŕ"/><glyph d="M30 0l90 336q23 85 72.5 124.5t135.5 39.5h233l-35 -131l-188 -1q-42 0 -58 -14.5t-30 -65.5l-77 -288h-143zM307 558l96 142h162l-141 -142h-117z" glyph-name="racute" horiz-adv-x="452" unicode="ŕ"/><glyph d="M174 0h-144l188 700h386q123 0 177 -47.5t28 -144.5q-14 -51 -40 -77.5t-65 -45.5q-41 -27 -115 -36l-1 -2q32 4 54 4q39 0 56 -13q13 -7 21.5 -16.5t15 -27.5t4.5 -48t-13 -71l-46 -175h-143l46 171q17 67 -65 67l-281 -1zM330 582l-60 -224h203q69 0 127 30t72 81 q16 62 -15 87.5t-100 25.5h-227zM293 -191h-93l96 142h112z" glyph-name="uni0156" horiz-adv-x="707" unicode="Ŗ"/><glyph d="M173 0h-143l90 336q23 85 72.5 124.5t135.5 39.5h233l-35 -131l-188 -1q-42 0 -58 -14.5t-30 -65.5zM-2 -192l96 142h113l-115 -142h-94z" glyph-name="uni0157" horiz-adv-x="452" unicode="ŗ"/><glyph d="M174 0h-144l188 700h386q123 0 177 -47.5t28 -144.5q-14 -51 -40 -77.5t-65 -45.5q-41 -27 -115 -36l-1 -2q32 4 54 4q39 0 56 -13q13 -7 21.5 -16.5t15 -27.5t4.5 -48t-13 -71l-46 -175h-143l46 171q17 67 -65 67l-281 -1zM330 582l-60 -224h203q69 0 127 30t72 81 q16 62 -15 87.5t-100 25.5h-227zM373 942h150l47 -98l98 98h149l-170 -161h-190z" glyph-name="Rcaron" horiz-adv-x="707" unicode="Ř"/><glyph d="M173 0h-143l90 336q23 85 72.5 124.5t135.5 39.5h233l-35 -131l-188 -1q-42 0 -58 -14.5t-30 -65.5zM293 581l-84 161h149l47 -98l98 98h150l-170 -161h-190z" glyph-name="rcaron" horiz-adv-x="452" unicode="ř"/><glyph d="M91 220l140 7q-10 -50 28 -74.5t116 -25.5q193 -3 220 95q8 29 -24.5 46t-86.5 22.5t-115 16.5t-112 27t-77 56t-10 101q30 112 133 166.5t240 52.5q132 -2 199 -54t43 -156l-137 -7q9 45 -25 65.5t-115 20.5q-82 0 -133 -22.5t-62 -64.5q-6 -23 17.5 -36.5t65.5 -20 t93.5 -11.5t101.5 -16.5t89 -30t56 -56.5t3 -92q-9 -33 -25.5 -63t-48.5 -62t-74 -55.5t-106.5 -38.5t-142.5 -15q-71 0 -122 12.5t-79 34t-43.5 50t-14 61t7.5 67.5zM485 758l96 142h161l-140 -142h-117z" glyph-name="Sacute" horiz-adv-x="710" unicode="Ś"/><glyph d="M64 154l145 17q-7 -40 24.5 -58.5t95.5 -18.5q132 0 150 69q5 17 -22.5 26.5t-71.5 12t-94 10t-92 19.5t-63.5 42t-9.5 76q13 50 53.5 84.5t93.5 49t92 19.5t75 5q42 0 82.5 -8.5t75.5 -25.5t52.5 -47.5t9.5 -69.5l-130 -14q4 34 -25.5 49t-94.5 15q-64 0 -99 -14 t-44 -49q-5 -17 22.5 -26.5t72 -12t94.5 -10t92 -19t63.5 -41t9.5 -74.5q-14 -53 -55.5 -89.5t-96.5 -51.5t-94.5 -20t-77.5 -5q-25 0 -53.5 3t-65.5 13.5t-64.5 27t-43 47t-6.5 69.5zM381 558l96 142h162l-141 -142h-117z" glyph-name="sacute" horiz-adv-x="602" unicode="ś"/><glyph d="M88 220l140 7q-10 -50 28 -74.5t116 -25.5q194 -3 220 95q7 25 -16.5 41t-65 23t-93 13t-101.5 17.5t-89 30t-56.5 55t-3.5 89.5q21 76 79 127t132.5 72t162.5 20q131 -2 198 -54t44 -156l-137 -7q8 45 -26 65.5t-115 20.5q-82 0 -133 -22.5t-62 -64.5q-6 -23 17.5 -36.5 t66 -20t94 -11.5t101.5 -16.5t89 -30t56 -56.5t3 -92q-9 -33 -25.5 -63t-48.5 -62t-74 -55.5t-106.5 -38.5t-142.5 -15q-71 0 -122.5 12.5t-79 34t-43 50t-14.5 61t7 67.5zM485 781h-150l170 161h190l84 -161h-150l-46 97z" glyph-name="Scircumflex" horiz-adv-x="705" unicode="Ŝ"/><glyph d="M64 154l145 17q-7 -40 24.5 -58.5t95.5 -18.5q132 0 150 69q5 17 -22.5 26.5t-71.5 12t-94 10t-92 19.5t-63.5 42t-9.5 76q13 50 53.5 84.5t93.5 49t92 19.5t75 5q42 0 82.5 -8.5t75.5 -25.5t52.5 -47.5t9.5 -69.5l-130 -14q4 34 -25.5 49t-94.5 15q-64 0 -99 -14 t-44 -49q-5 -17 22.5 -26.5t72 -12t94.5 -10t92 -19t63.5 -41t9.5 -74.5q-14 -53 -55.5 -89.5t-96.5 -51.5t-94.5 -20t-77.5 -5q-25 0 -53.5 3t-65.5 13.5t-64.5 27t-43 47t-6.5 69.5zM388 581h-150l170 161h190l84 -161h-150l-46 97z" glyph-name="scircumflex" horiz-adv-x="602" unicode="ŝ"/><glyph d="M88 220l140 7q-10 -50 28 -74.5t116 -25.5q194 -3 220 95q7 25 -16.5 41t-65 23t-93 13t-101.5 17.5t-89 30t-56.5 55t-3.5 89.5q21 76 79 127t132.5 72t162.5 20q131 -2 198 -54t44 -156l-137 -7q8 45 -26 65.5t-115 20.5q-82 0 -133 -22.5t-62 -64.5q-6 -23 17.5 -36.5 t66 -20t94 -11.5t101.5 -16.5t89 -30t56 -56.5t3 -92q-10 -38 -32 -73t-59.5 -69.5t-100 -58t-141.5 -30.5l-41 -52q44 0 63.5 -24.5t5.5 -74.5q-16 -62 -67 -93.5t-112 -31.5q-45 0 -80 17t-47 46l63 56q7 -20 29 -31.5t49 -11.5q28 0 50.5 13.5t29.5 39.5q4 16 -5.5 26 t-32 13.5t-37 4.5t-38.5 1h-7l26 40l37 61q-249 18 -202 223z" glyph-name="Scedilla" horiz-adv-x="705" unicode="Ş"/><glyph d="M64 154l145 17q-7 -40 24.5 -58.5t95.5 -18.5q132 0 150 69q5 17 -22.5 26.5t-71.5 12t-94 10t-92 19.5t-63.5 42t-9.5 76q13 50 53.5 84.5t93.5 49t92 19.5t75 5q42 0 82.5 -8.5t75.5 -25.5t52.5 -47.5t9.5 -69.5l-130 -14q4 34 -25.5 49t-94.5 15q-64 0 -99 -14 t-44 -49q-5 -17 22.5 -26.5t72 -12t94.5 -10t92 -19t63.5 -41t9.5 -74.5q-38 -141 -261 -163l-40 -51q44 0 63.5 -24.5t5.5 -74.5q-16 -62 -67 -93.5t-112 -31.5q-45 0 -80 17t-47 46l64 56q6 -20 28 -31.5t49 -11.5q28 0 50.5 13.5t29.5 39.5q4 16 -5.5 26t-32 13.5 t-37 4.5t-38.5 1h-7l64 101q-36 4 -68 13t-63.5 26t-46 47.5t-6.5 70.5z" glyph-name="scedilla" horiz-adv-x="602" unicode="ş"/><glyph d="M91 220l140 7q-10 -50 28 -74.5t116 -25.5q193 -3 220 95q8 29 -24.5 46t-86.5 22.5t-115 16.5t-112 27t-77 56t-10 101q30 112 133 166.5t240 52.5q132 -2 199 -54t43 -156l-137 -7q9 45 -25 65.5t-115 20.5q-82 0 -133 -22.5t-62 -64.5q-6 -23 17.5 -36.5t65.5 -20 t93.5 -11.5t101.5 -16.5t89 -30t56 -56.5t3 -92q-9 -33 -25.5 -63t-48.5 -62t-74 -55.5t-106.5 -38.5t-142.5 -15q-71 0 -122 12.5t-79 34t-43.5 50t-14 61t7.5 67.5zM460 781l-84 161h150l46 -98l98 98h150l-170 -161h-190z" glyph-name="Scaron" horiz-adv-x="710" unicode="Š"/><glyph d="M64 154l145 17q-7 -40 24.5 -58.5t95.5 -18.5q132 0 150 69q5 17 -22.5 26.5t-71.5 12t-94 10t-92 19.5t-63.5 42t-9.5 76q13 50 53.5 84.5t93.5 49t92 19.5t75 5q42 0 82.5 -8.5t75.5 -25.5t52.5 -47.5t9.5 -69.5l-130 -14q4 34 -25.5 49t-94.5 15q-64 0 -99 -14 t-44 -49q-5 -17 22.5 -26.5t72 -12t94.5 -10t92 -19t63.5 -41t9.5 -74.5q-14 -53 -55.5 -89.5t-96.5 -51.5t-94.5 -20t-77.5 -5q-25 0 -53.5 3t-65.5 13.5t-64.5 27t-43 47t-6.5 69.5zM273 742h150l47 -98l97 98h150l-170 -161h-190z" glyph-name="scaron" horiz-adv-x="602" unicode="š"/><glyph d="M428 569h-256l36 131h653l-35 -131h-221q-34 0 -51 25l-2 -2q19 -24 9 -57l-143 -535h-142zM379 942h149l47 -98l98 98h149l-170 -161h-190z" glyph-name="Tcaron" horiz-adv-x="693" unicode="Ť"/><glyph d="M210 371h-100l35 132h29q40 0 87.5 55t63.5 116h143q-32 -109 -135 -159q-17 -9 -70 -17v-2q49 7 69 7h205l-35 -132h-149l-50 -186q-8 -31 2.5 -42.5t37.5 -11.5h119l-35 -131h-140q-99 0 -126 51t3 151zM551 608l-2 71l6 27l141 62l-86 -160h-59z" glyph-name="tcaron" horiz-adv-x="533" unicode="ť"/><glyph d="M428 569h-256l36 131h653l-35 -131h-221q-34 0 -51 25l-2 -2q19 -24 9 -57l-31 -119h115l-27 -101h-115l-85 -315h-142l84 315h-118l27 101h118z" glyph-name="Tbar" horiz-adv-x="693" unicode="Ŧ"/><glyph d="M164 200h-101l27 101h101l19 70h-100l35 132h29q40 0 87.5 55t63.5 116h143q-32 -109 -135 -159q-17 -9 -70 -17v-2q49 7 69 7h205l-35 -132h-149l-19 -70h132l-27 -101h-132l-4 -15q-8 -31 2.5 -42.5t37.5 -11.5h119l-35 -131h-140q-99 0 -126 50.5t3 149.5z" glyph-name="tbar" horiz-adv-x="432" unicode="ŧ"/><glyph d="M114 315l104 385h142l-103 -386q-24 -88 16.5 -139.5t126.5 -51.5q87 0 152 49.5t90 141.5l103 386h143l-103 -385q-42 -157 -161 -240t-259 -83q-149 0 -221.5 80.5t-29.5 242.5zM429 751l-87 14q56 143 201 143q35 0 58 -14t39 -28.5t32 -15.5q42 -1 69 58l105 -9 q-22 -67 -71.5 -109t-122.5 -41q-46 1 -78.5 28.5t-52.5 28.5q-31 1 -56 -14.5t-36 -40.5z" glyph-name="Utilde" horiz-adv-x="731" unicode="Ũ"/><glyph d="M235 -3q-205 0 -131 279l61 229h143l-61 -229q-19 -69 3.5 -102.5t77.5 -33.5q31 0 63 13t67.5 55.5t53.5 109.5l50 187h142l-134 -500h-142l31 115q6 26 25 67h-2q-20 -44 -35 -65q-44 -62 -100.5 -93.5t-111.5 -31.5zM230 565q57 143 201 143q35 0 58 -14t39 -28.5 t32 -15.5q42 -2 69 58l105 -10q-22 -67 -72 -109t-122 -41q-46 1 -78.5 28.5t-52.5 28.5q-31 1 -56 -14.5t-36 -40.5z" glyph-name="utilde" horiz-adv-x="619" unicode="ũ"/><glyph d="M114 315l104 385h142l-103 -386q-24 -88 16.5 -139.5t126.5 -51.5q87 0 152 49.5t90 141.5l103 386h143l-103 -385q-42 -157 -161 -240t-259 -83q-149 0 -221.5 80.5t-29.5 242.5zM779 794h-403l24 91h404z" glyph-name="Umacron" horiz-adv-x="731" unicode="Ū"/><glyph d="M235 -3q-205 0 -131 279l61 229h143l-61 -229q-19 -69 3.5 -102.5t77.5 -33.5q31 0 63 13t67.5 55.5t53.5 109.5l50 187h142l-134 -500h-142l31 115q6 26 25 67h-2q-20 -44 -35 -65q-44 -62 -100.5 -93.5t-111.5 -31.5zM670 594h-404l25 91h403z" glyph-name="umacron" horiz-adv-x="619" unicode="ū"/><glyph d="M114 315l104 385h142l-103 -386q-24 -88 16.5 -139.5t126.5 -51.5q87 0 152 49.5t90 141.5l103 386h143l-103 -385q-42 -157 -161 -240t-259 -83q-149 0 -221.5 80.5t-29.5 242.5zM420 935h111q-12 -31 -0.5 -61.5t52.5 -30.5q40 0 65 27t35 65h112q-20 -76 -81 -129.5 t-156 -53.5t-126.5 53.5t-11.5 129.5z" glyph-name="Ubreve" horiz-adv-x="731" unicode="Ŭ"/><glyph d="M235 -3q-205 0 -131 279l61 229h143l-61 -229q-19 -69 3.5 -102.5t77.5 -33.5q31 0 63 13t67.5 55.5t53.5 109.5l50 187h142l-134 -500h-142l31 115q6 26 25 67h-2q-20 -44 -35 -65q-44 -62 -100.5 -93.5t-111.5 -31.5zM447 552q-95 0 -127 54t-12 129h112 q-12 -31 -0.5 -61t51.5 -30q41 0 66 27t35 64h112q-20 -76 -81 -129.5t-156 -53.5z" glyph-name="ubreve" horiz-adv-x="619" unicode="ŭ"/><glyph d="M114 315l104 385h142l-103 -386q-24 -88 16.5 -139.5t126.5 -51.5q87 0 152 49.5t90 141.5l103 386h143l-103 -385q-42 -157 -161 -240t-259 -83q-149 0 -221.5 80.5t-29.5 242.5zM441 850q11 44 61 75t111 31q59 0 92.5 -31t22.5 -75q-12 -44 -62 -75t-110 -31t-93.5 31 t-21.5 75zM572 804q23 0 44 13.5t26 32.5t-8.5 32.5t-36.5 13.5q-24 0 -45 -13.5t-26 -32.5t8.5 -32.5t37.5 -13.5z" glyph-name="Uring" horiz-adv-x="731" unicode="Ů"/><glyph d="M235 -3q-205 0 -131 279l61 229h143l-61 -229q-19 -69 3.5 -102.5t77.5 -33.5q31 0 63 13t67.5 55.5t53.5 109.5l50 187h142l-134 -500h-142l31 115q6 26 25 67h-2q-20 -44 -35 -65q-44 -62 -100.5 -93.5t-111.5 -31.5zM450 544q-61 0 -94.5 31t-21.5 75t61.5 75 t110.5 31q59 0 92.5 -31t22.5 -75q-12 -44 -62 -75t-109 -31zM419 650q-5 -19 8.5 -32.5t38.5 -13.5q23 0 43.5 13.5t25.5 32.5t-8.5 32.5t-36.5 13.5q-24 0 -45 -13.5t-26 -32.5z" glyph-name="uring" horiz-adv-x="619" unicode="ů"/><glyph d="M114 315l104 385h142l-103 -386q-24 -88 16.5 -139.5t126.5 -51.5q87 0 152 49.5t90 141.5l103 386h143l-103 -385q-42 -157 -161 -240t-259 -83q-149 0 -221.5 80.5t-29.5 242.5zM384 758l96 142h164l-149 -142h-111zM691 758h-111l96 142h164z" glyph-name="Uhungarumlaut" horiz-adv-x="731" unicode="Ű"/><glyph d="M235 -3q-205 0 -131 279l61 229h143l-61 -229q-19 -69 3.5 -102.5t77.5 -33.5q31 0 63 13t67.5 55.5t53.5 109.5l50 187h142l-134 -500h-142l31 115q6 26 25 67h-2q-20 -44 -35 -65q-44 -62 -100.5 -93.5t-111.5 -31.5zM275 561l96 142h164l-149 -142h-111zM582 561h-111 l96 142h164z" glyph-name="uhungarumlaut" horiz-adv-x="619" unicode="ű"/><glyph d="M114 315l104 385h142l-103 -386q-24 -88 16.5 -139.5t126.5 -51.5q87 0 152 49.5t90 141.5l103 386h143l-103 -385q-36 -132 -126.5 -211.5t-206.5 -102.5q-55 -62 -48 -104q3 -26 32 -26q22 0 55 16l42 -46q-52 -55 -142 -55q-37 0 -63 12.5t-37.5 36.5t5 65t63.5 92 q-146 2 -217 82t-28 241z" glyph-name="Uogonek" horiz-adv-x="731" unicode="Ų"/><glyph d="M235 -3q-205 0 -131 279l61 229h143l-61 -229q-19 -69 3.5 -102.5t77.5 -33.5q31 0 63 13t67.5 55.5t53.5 109.5l50 187h142l-134 -500h-31q-73 -63 -83 -120q-5 -43 32 -45q21 0 54 16l43 -46q-25 -26 -64 -40.5t-78 -14.5q-32 0 -57 9t-38 29.5t-9.5 49t32.5 71 t84 91.5h-27l31 115q6 26 25 67h-2q-20 -44 -35 -65q-44 -62 -100.5 -93.5t-111.5 -31.5z" glyph-name="uogonek" horiz-adv-x="619" unicode="ų"/><glyph d="M262 0l-52 700h151l33 -511q1 -13 -3 -34h2q4 19 11 35l259 510h144l-16 -511q0 -11 -7 -34h2q7 22 14 33l311 512h152l-427 -700h-180l13 443q0 5 2 11h-2q0 -1 -1 -5t-2 -6l-226 -443h-178zM613 781h-150l170 161h190l84 -161h-150l-46 97z" glyph-name="Wcircumflex" horiz-adv-x="1097" unicode="Ŵ"/><glyph d="M145 500h153l24 -357q3 -28 -6 -64l2 1q10 40 24 63l194 357h232l8 -359q0 -31 -10 -63h2q8 30 27 63l217 359h152l-305 -500h-228l-7 351q0 33 11 75h-2q-11 -42 -29 -75l-191 -351h-230zM581 581h-150l171 161h189l84 -161h-149l-46 97z" glyph-name="wcircumflex" horiz-adv-x="1001" unicode="ŵ"/><glyph d="M388 314l-184 385h175l102 -226q14 -29 3 -69h2q10 38 39 69l223 226h175l-392 -385l-84 -314h-143zM365 781l170 161h190l83 -161h-149l-46 97l-99 -97h-149z" glyph-name="Ycircumflex" horiz-adv-x="752" unicode="Ŷ"/><glyph d="M140 -206h-151l29 105h75q32 0 72.5 11.5t58.5 38.5l35 58l-81 493h156l43 -289q6 -31 -5 -73h2q10 39 33 73l199 289h155l-396 -571q-88 -135 -225 -135zM260 581l170 161h190l84 -161h-150l-46 97l-99 -97h-149z" glyph-name="ycircumflex" horiz-adv-x="646" unicode="ŷ"/><glyph d="M388 314l-184 385h175l102 -226q14 -29 3 -69h2q10 38 39 69l223 226h175l-392 -385l-84 -314h-143zM415 783l31 117h143l-31 -117h-143zM755 783h-143l32 117h143z" glyph-name="Ydieresis" horiz-adv-x="752" unicode="Ÿ"/><glyph d="M702 0h-680l24 89l549 453q31 25 72 41v2q-41 -16 -76 -16h-408l35 131h663l-24 -89l-542 -452q-30 -26 -72 -42v-2q41 16 77 16h417zM491 758l96 142h162l-141 -142h-117z" glyph-name="Zacute" horiz-adv-x="724" unicode="Ź"/><glyph d="M586 0h-561l31 117l334 228q34 22 75 35v2q-45 -13 -77 -13h-254l35 131h547l-31 -117l-331 -228q-37 -23 -75 -35v-2q43 13 77 13h265zM383 560l97 142h161l-141 -142h-117z" glyph-name="zacute" horiz-adv-x="611" unicode="ź"/><glyph d="M702 0h-680l24 89l549 453q31 25 72 41v2q-41 -16 -76 -16h-408l35 131h663l-24 -89l-542 -452q-30 -26 -72 -42v-2q41 16 77 16h417zM490 781l32 119h150l-32 -119h-150z" glyph-name="Zdotaccent" horiz-adv-x="724" unicode="Ż"/><glyph d="M586 0h-561l31 117l334 228q34 22 75 35v2q-45 -13 -77 -13h-254l35 131h547l-31 -117l-331 -228q-37 -23 -75 -35v-2q43 13 77 13h265zM388 581l32 119h150l-32 -119h-150z" glyph-name="zdotaccent" horiz-adv-x="611" unicode="ż"/><glyph d="M702 0h-680l24 89l549 453q31 25 72 41v2q-41 -16 -76 -16h-408l35 131h663l-24 -89l-542 -452q-30 -26 -72 -42v-2q41 16 77 16h417zM389 942h150l47 -98l97 98h150l-170 -161h-190z" glyph-name="Zcaron" horiz-adv-x="724" unicode="Ž"/><glyph d="M586 0h-561l31 117l334 228q34 22 75 35v2q-45 -13 -77 -13h-254l35 131h547l-31 -117l-331 -228q-37 -23 -75 -35v-2q43 13 77 13h265zM293 742h150l46 -98l98 98h150l-170 -161h-190z" glyph-name="zcaron" horiz-adv-x="611" unicode="ž"/><glyph d="M86 220l140 7q-11 -50 27 -74.5t116 -25.5q194 -3 220 95q7 25 -16.5 41t-65 23t-93 13t-101.5 17.5t-88.5 30t-56 55t-3.5 89.5q30 112 133 166.5t240 52.5q131 -2 198 -54t44 -156l-137 -7q9 45 -25 65.5t-115 20.5q-82 0 -133 -22.5t-62 -64.5q-6 -23 17.5 -36.5 t65.5 -20t93.5 -11.5t101.5 -16.5t89 -30t56 -56.5t3 -92q-9 -33 -25.5 -63t-48.5 -62t-74 -55.5t-106.5 -38.5t-142.5 -15q-71 0 -122 12.5t-79 34t-43.5 50t-14 61t7.5 67.5zM189 -192l96 142h113l-115 -142h-94z" glyph-name="uni0218" horiz-adv-x="699" unicode="Ș"/><glyph d="M64 154l145 17q-7 -40 24.5 -58.5t95.5 -18.5q132 0 150 69q5 17 -22.5 26.5t-71.5 12t-94 10t-92 19.5t-63.5 42t-9.5 76q13 50 53.5 84.5t93.5 49t92 19.5t75 5q42 0 82.5 -8.5t75.5 -25.5t52.5 -47.5t9.5 -69.5l-130 -14q4 34 -25.5 49t-94.5 15q-64 0 -99 -14 t-44 -49q-5 -17 22.5 -26.5t72 -12t94.5 -10t92 -19t63.5 -41t9.5 -74.5q-14 -53 -55.5 -89.5t-96.5 -51.5t-94.5 -20t-77.5 -5q-25 0 -53.5 3t-65.5 13.5t-64.5 27t-43 47t-6.5 69.5zM146 -192l96 142h113l-115 -142h-94z" glyph-name="uni0219" horiz-adv-x="601" unicode="ș"/><glyph d="M428 569h-256l36 131h653l-35 -131h-221q-34 0 -51 25l-2 -2q19 -24 9 -57l-143 -535h-142zM197 -192l96 142h113l-115 -142h-94z" glyph-name="uni021A" horiz-adv-x="693" unicode="Ț"/><glyph d="M118 371l35 132h30q39 0 86.5 55t63.5 116h143q-30 -109 -134 -159q-17 -9 -70 -17v-2q49 7 69 7h205l-35 -132h-150l-50 -186q-8 -31 3 -42.5t37 -11.5h120l-35 -131h-141q-99 0 -126 51t4 151l45 169h-100zM208 -192h-94l96 142h113z" glyph-name="uni021B" horiz-adv-x="449" unicode="ț"/><glyph d="M288 509h-136l210 191h99l107 -191h-134l-51 83z" glyph-name="circumflex" horiz-adv-x="447" unicode="ˆ"/><glyph d="M375 509l-105 51l-34 140l132 -36l70 -10l79 46l34 -51z" glyph-name="caron" horiz-adv-x="432" unicode="ˇ"/><glyph d="M174 536l28 108h316l-29 -108h-315z" glyph-name="uni02C9" horiz-adv-x="377" unicode="ˉ"/><glyph d="M349 541q-95 0 -126.5 54t-11.5 130h111q-4 -21 -4.5 -41.5t14 -35.5t42.5 -15q41 0 66 28t34 64h112q-20 -76 -81 -130t-156 -54z" glyph-name="breve" horiz-adv-x="409" unicode="˘"/><glyph d="M316 580h-150l32 120h150z" glyph-name="dotaccent" horiz-adv-x="170" unicode="˙"/><glyph d="M304 544q-61 0 -94.5 31t-21.5 75t62 75t110 31t93.5 -31t21.5 -75t-62 -75t-109 -31zM282 650q-4 -15 8 -26t32 -11q19 0 36.5 11t22.5 26q4 15 -7.5 26t-31.5 11q-21 0 -38 -11t-22 -26z" glyph-name="ring" horiz-adv-x="314" unicode="˚"/><glyph d="M77 4h84q-52 -44 -76 -101q-20 -58 22 -62q21 0 54 13l45 -45q-25 -26 -64 -40.5t-78 -14.5q-32 0 -56.5 9t-37.5 29.5t-9.5 48.5t32.5 70.5t84 92.5z" glyph-name="ogonek" horiz-adv-x="235" unicode="˛"/><glyph d="M257 581l-86 15q59 148 203 145q27 0 47 -9t29.5 -19t21.5 -19t25 -10q38 -2 66 55l108 -7q-22 -67 -72.5 -109t-124.5 -41q-46 1 -78.5 28.5t-52.5 28.5q-30 1 -52 -15.5t-34 -42.5z" glyph-name="tilde" horiz-adv-x="490" unicode="˜"/><glyph d="M348 558l96 142h164l-149 -142h-111zM257 558h-111l96 142h164z" glyph-name="hungarumlaut" horiz-adv-x="405" unicode="˝"/><glyph d="M151 700l20 -142h-122l-64 142h166z" glyph-name="gravecomb" horiz-adv-x="0" unicode="̀"/><glyph d="M104 558h-116l96 142h161z" glyph-name="acutecomb" horiz-adv-x="0" unicode="́"/><glyph d="M-114 581h-150l170 161h190l84 -161h-150l-46 97z" glyph-name="uni0302" horiz-adv-x="0" unicode="̂"/><glyph d="M-186 581l-87 15q57 143 201 143q35 0 58 -14t39 -28.5t32 -15.5q41 -2 70 58l104 -10q-22 -67 -71.5 -109t-122.5 -41q-46 1 -78.5 28.5t-52.5 28.5q-30 1 -55.5 -15t-36.5 -40z" glyph-name="tildecomb" horiz-adv-x="0" unicode="̃"/><glyph d="M-203 594l25 91h404l-25 -91h-404z" glyph-name="uni0304" horiz-adv-x="0" unicode="̄"/><glyph d="M-25 552q-95 0 -127 54t-12 129h112q-12 -31 -1 -61.5t52 -30.5t66 27t35 65h112q-20 -76 -81 -129.5t-156 -53.5z" glyph-name="uni0306" horiz-adv-x="0" unicode="̆"/><glyph d="M171 581h-150l32 119h150z" glyph-name="uni0307" horiz-adv-x="0" unicode="̇"/><glyph d="M57 583l31 117h143l-31 -117h-143zM2 583h-143l32 117h143z" glyph-name="uni0308" horiz-adv-x="0" unicode="̈"/><glyph d="M35 544q-61 0 -94.5 31t-21.5 75t62 75t110 31t93.5 -31t21.5 -75t-62 -75t-109 -31zM5 650q-6 -19 7.5 -32.5t38.5 -13.5q23 0 44 13.5t25 32.5q5 19 -8.5 32.5t-36.5 13.5q-24 0 -45 -13.5t-25 -32.5z" glyph-name="uni030A" horiz-adv-x="0" unicode="̊"/><glyph d="M83 558h-111l96 142h164zM-113 558h-111l96 142h164z" glyph-name="uni030B" horiz-adv-x="0" unicode="̋"/><glyph d="M-221 742h150l47 -98l97 98h150l-170 -161h-190z" glyph-name="uni030C" horiz-adv-x="0" unicode="̌"/><glyph d="M-198 -192h-94l96 142h113z" glyph-name="uni0326" horiz-adv-x="0" unicode="̦"/><glyph d="M-370 -225l63 56q7 -20 29 -31.5t49 -11.5q28 0 50.5 13.5t29.5 39.5q4 16 -5.5 26t-32 13.5t-37 4.5t-38.5 1h-7l26 40l48 78h115l-53 -68q44 0 63.5 -24.5t5.5 -74.5q-16 -62 -67 -93.5t-112 -31.5q-45 0 -80 17t-47 46z" glyph-name="uni0327" horiz-adv-x="0" unicode="̧"/><glyph d="M-178 4h84q-72 -61 -83 -119q-4 -43 31 -46q22 0 55 16l42 -46q-25 -26 -64 -40.5t-78 -14.5q-32 0 -56.5 9t-37.5 29.5t-9.5 48.5t32.5 70.5t84 92.5z" glyph-name="uni0328" horiz-adv-x="0" unicode="̨"/><glyph d="M-5 -132q50 179 93 350l76 282h143l-48 -179q-24 -88 -8 -130t78 -42q14 0 36 10t50.5 31t55.5 64t42 99l40 147h143l-134 -500h-143l21 78q8 30 24 63l-2 1q-34 -69 -79 -109.5t-111 -40.5q-72 0 -83 67l-51 -191h-143z" glyph-name="uni03BC" horiz-adv-x="592" unicode="μ"/><glyph d="M262 0l-52 700h151l33 -511q1 -13 -3 -34h2q4 19 11 35l259 510h144l-16 -511q0 -11 -7 -34h2q7 22 14 33l311 512h152l-427 -700h-180l13 443q0 5 2 11h-2q0 -1 -1 -5t-2 -6l-226 -443h-178zM623 900h167l20 -142h-122z" glyph-name="Wgrave" horiz-adv-x="1097" unicode="Ẁ"/><glyph d="M140 500h152l25 -357q2 -30 -7 -64l2 1q9 35 24 63l195 357h232l7 -359q0 -31 -10 -63h2q11 36 27 63l217 359h153l-306 -500h-228l-7 351q0 33 11 75h-2q-11 -42 -29 -75l-191 -351h-230zM545 700h167l20 -142h-122z" glyph-name="wgrave" horiz-adv-x="995" unicode="ẁ"/><glyph d="M262 0l-52 700h151l33 -511q1 -13 -3 -34h2q4 19 11 35l259 510h144l-16 -511q0 -11 -7 -34h2q7 22 14 33l311 512h152l-427 -700h-180l13 443q0 5 2 11h-2q0 -1 -1 -5t-2 -6l-226 -443h-178zM656 758l96 142h162l-141 -142h-117z" glyph-name="Wacute" horiz-adv-x="1097" unicode="Ẃ"/><glyph d="M140 500h152l25 -357q2 -30 -7 -64l2 1q9 35 24 63l195 357h232l7 -359q0 -31 -10 -63h2q11 36 27 63l217 359h153l-306 -500h-228l-7 351q0 33 11 75h-2q-11 -42 -29 -75l-191 -351h-230zM562 558l96 142h161l-140 -142h-117z" glyph-name="wacute" horiz-adv-x="995" unicode="ẃ"/><glyph d="M262 0l-52 700h151l33 -511q1 -13 -3 -34h2q4 19 11 35l259 510h144l-16 -511q0 -11 -7 -34h2q7 22 14 33l311 512h152l-427 -700h-180l13 443q0 5 2 11h-2q0 -1 -1 -5t-2 -6l-226 -443h-178zM920 783h-143l32 117h143zM723 783h-143l31 117h143z" glyph-name="Wdieresis" horiz-adv-x="1097" unicode="Ẅ"/><glyph d="M140 500h152l25 -357q2 -30 -7 -64l2 1q9 35 24 63l195 357h232l7 -359q0 -31 -10 -63h2q11 36 27 63l217 359h153l-306 -500h-228l-7 351q0 33 11 75h-2q-11 -42 -29 -75l-191 -351h-230zM825 583h-143l31 117h143zM627 583h-143l32 117h143z" glyph-name="wdieresis" horiz-adv-x="989" unicode="ẅ"/><glyph d="M87 212l38 143h550l-39 -143h-549z" glyph-name="endash" horiz-adv-x="610" unicode="–"/><glyph d="M91 228l38 143h851l-39 -143h-850z" glyph-name="emdash" horiz-adv-x="910" unicode="—"/><glyph d="M137 437l58 216l23 47h148l-139 -263h-90z" glyph-name="quoteleft" horiz-adv-x="198" unicode="‘"/><glyph d="M188 519l-3 71l6 27l141 63l-85 -161h-59z" glyph-name="quoteright" horiz-adv-x="198" unicode="’"/><glyph d="M0 -123l15 55h22q74 0 90 60h-96l37 139h154l-37 -139q-17 -62 -53 -88.5t-110 -26.5h-22z" glyph-name="quotesinglbase" horiz-adv-x="221" unicode="‚"/><glyph d="M327 445l37 139q17 62 53 88.5t110 26.5h22l-15 -55h-22q-74 0 -90 -60h96l-37 -139h-154zM307 445h-154l37 139q16 62 52.5 88.5t110.5 26.5h22l-15 -55h-22q-74 0 -90 -60h96z" glyph-name="quotedblleft" horiz-adv-x="395" unicode="“"/><glyph d="M327 445l15 56h22q74 0 90 60h-96l37 138h154l-37 -138q-17 -62 -53.5 -89t-109.5 -27h-22zM153 445l14 56h23q74 0 90 60h-97l38 138h154l-38 -138q-16 -62 -52.5 -89t-109.5 -27h-22z" glyph-name="quotedblright" horiz-adv-x="391" unicode="”"/><glyph d="M194 -121l15 56h22q74 0 90 59h-96l37 139h154l-37 -139q-16 -62 -52.5 -88.5t-110.5 -26.5h-22zM42 -121h-22l15 56h22q74 0 90 59h-96l37 139h154l-37 -139q-17 -62 -53 -88.5t-110 -26.5z" glyph-name="quotedblbase" horiz-adv-x="430" unicode="„"/><glyph d="M233 502h-83l34 125h82l19 73h143l-19 -73h77l-33 -125h-78l-42 -158h-143z" glyph-name="dagger" horiz-adv-x="334" unicode="†"/><glyph d="M220 370h-97l29 109h97l12 45h-97l29 109h98l18 67h142l-18 -67h98l-29 -109h-98l-12 -45h98l-30 -109h-97l-22 -81h-142z" glyph-name="daggerdbl" horiz-adv-x="385" unicode="‡"/><glyph d="M229 88q-77 0 -116.5 54t-19.5 131q21 77 89.5 131t145.5 54t116.5 -54.5t18.5 -130.5q-20 -77 -88.5 -131t-145.5 -54z" glyph-name="bullet" horiz-adv-x="410" unicode="•"/><glyph d="M174 27h-147l37 136h147zM542 27l37 136h147l-37 -136h-147zM284 27l36 136h148l-37 -136h-147z" glyph-name="ellipsis" horiz-adv-x="717" unicode="…"/><glyph d="M694 290q104 0 134 -68q25 -57 -17 -123q-48 -76 -144 -94q-25 -5 -51 -5q-104 0 -134 68q-24 57 17 123q48 75 144 94q25 5 51 5zM396 700q104 0 134 -68q24 -57 -17 -123q-48 -75 -144 -94q-25 -5 -51 -5q-104 0 -134 68q-25 57 17 123q48 76 144 94q25 5 51 5z M1089 290q104 0 134 -68q24 -57 -17 -123q-48 -75 -144 -94q-25 -5 -51 -5q-104 0 -134 68q-25 57 17 123q48 76 144 94q25 5 51 5zM35 0l749 700h190l-750 -700h-189zM340 493q51 0 77 43q22 37 1 63q-14 18 -44 18q-51 0 -77 -43q-22 -37 -1 -63q14 -18 44 -18zM639 83 q51 0 76 43q22 37 1 63q-14 18 -44 18q-51 0 -77 -43q-22 -37 -1 -63q14 -18 45 -18zM1033 83q51 0 77 43q22 37 1 63q-14 18 -45 18q-51 0 -76 -43q-22 -37 -1 -63q14 -18 44 -18z" glyph-name="perthousand" horiz-adv-x="1211" unicode="‰"/><glyph d="M103 328l335 165l-39 -145l-137 -72l98 -72l-39 -144l-246 165z" glyph-name="guilsinglleft" horiz-adv-x="320" unicode="‹"/><glyph d="M366 225l-335 -165l38 144l137 72l-98 73l39 144l246 -165z" glyph-name="guilsinglright" horiz-adv-x="320" unicode="›"/><glyph d="M15 0l651 700h171l-651 -700h-171z" glyph-name="fraction" horiz-adv-x="664" unicode="⁄"/><glyph d="M426 -7q-182 -1 -269.5 90.5t-40.5 266.5q32 118 107.5 200t175.5 120t218 37q123 -2 206.5 -45t110.5 -126l-147 -59q-18 54 -73 80t-131 26q-84 1 -151.5 -25.5t-102.5 -83.5h240l-40 -83h-254q-14 -26 -17 -62h263l-36 -81h-217q3 -59 53 -93t138 -33q167 0 260 102 l115 -60q-72 -84 -178.5 -127t-229.5 -44z" glyph-name="Euro" horiz-adv-x="812" unicode="€"/><glyph d="M336 559l37 141h54l29 -82l73 82h54l-38 -140l-51 -1l15 58l-52 -58h-34l-21 58l-16 -58h-50zM195 647l14 53h150l-14 -53h-50l-23 -87h-50l23 87h-50z" glyph-name="trademark" horiz-adv-x="420" unicode="™"/><glyph d="M131 357l418 331l62 -86l-221 -174h460l-38 -142h-460l127 -177l-106 -82z" glyph-name="arrowleft" horiz-adv-x="769" unicode="←"/><glyph d="M555 709l242 -331l-109 -84l-127 174l-123 -460h-142l123 460l-223 -174l-60 84z" glyph-name="arrowup" horiz-adv-x="730" unicode="↑"/><glyph d="M830 357l-419 -330l-61 86l220 173h-459l38 143h459l-127 176l107 83z" glyph-name="arrowright" horiz-adv-x="769" unicode="→"/><glyph d="M367 8l-242 331l109 84l127 -174l123 460h142l-123 -460l223 175l60 -85z" glyph-name="arrowdown" horiz-adv-x="730" unicode="↓"/><glyph d="M733 587l105 83l240 -328l-415 -327l-62 84l220 173h-484l126 -173l-105 -83l-240 327l415 327l60 -83l-219 -174l485 -1z" glyph-name="arrowboth" horiz-adv-x="1012" unicode="↔"/><glyph d="M210 375l-60 83l416 327l239 -327l-107 -84l-126 173l-127 -472l219 173l62 -83l-416 -328l-240 328l106 83l128 -173l128 473z" glyph-name="arrowupdn" horiz-adv-x="710" unicode="↕"/><glyph d="M203 616h467l-34 -120h-245l238 -325l-128 -101l-238 325l-68 -248l-118 1z" glyph-name="uni2196" horiz-adv-x="620" unicode="↖"/><glyph d="M746 606l-125 -467l-121 1l67 246l-412 -325l-74 101l412 324l-248 2l33 118h468z" glyph-name="uni2197" horiz-adv-x="621" unicode="↗"/><glyph d="M596 53h-467l34 121l245 -1l-238 325l128 101l238 -325l68 248l118 -1z" glyph-name="uni2198" horiz-adv-x="620" unicode="↘"/><glyph d="M51 57l125 467l120 -1l-66 -246l412 325l73 -101l-411 -325l247 -1l-33 -118h-467z" glyph-name="uni2199" horiz-adv-x="621" unicode="↙"/><glyph d="M251 4q-104 13 -153.5 80t-0.5 180q43 98 134 149.5t190 51.5q105 0 167 -54t34 -143q30 63 36 115.5t-9 88t-41 62t-62.5 41t-71.5 21.5t-69 6l69 100q125 -7 196 -54.5t84 -140.5t-58 -235q-66 -138 -166.5 -205t-219.5 -67q-32 0 -59 4zM250 265q-30 -63 2 -109 t112 -57q58 -7 132 27.5t102 94.5q28 58 -10 106.5t-96 58.5q-69 11 -140.5 -23.5t-101.5 -97.5z" glyph-name="partialdiff" horiz-adv-x="660" unicode="∂"/><glyph d="M408 25q-153 0 -236 93t-48 225q23 86 92 158.5t165.5 115t196.5 42.5t173.5 -42.5t103.5 -115t7 -158.5q-36 -132 -169 -225t-285 -93zM263 342q-11 -41 6 -87l365 262q-37 26 -89 26q-94 0 -176.5 -59t-105.5 -142zM353 165q33 -24 84 -24q95 0 179.5 59t103.5 142 q11 52 -2 85z" glyph-name="emptyset" horiz-adv-x="802" unicode="∅"/><glyph d="M350 569h-182l35 131h774l-35 -131h-178l-153 -569h-142l153 569h-130l-153 -569h-141z" glyph-name="product" horiz-adv-x="805" unicode="∏"/><glyph d="M801 716l-32 -121h-370l53 -237l-181 -238h370l-32 -120h-579l273 358l-81 358h579z" glyph-name="summation" horiz-adv-x="633" unicode="∑"/><glyph d="M91 229l36 131h507l-35 -131h-508z" glyph-name="minus" horiz-adv-x="568" unicode="−"/><glyph d="M922 645l83 -221h-169l-21 63l-484 -607h-151l-110 322h162l45 -181l497 624h148z" glyph-name="radical" horiz-adv-x="914" unicode="√"/><glyph d="M246 131q-80 0 -121 48t-19 128q21 80 87.5 128t146.5 48q44 0 84 -18t62.5 -37t54.5 -53q53 35 83.5 53t81 36.5t94.5 18.5q79 0 120 -48.5t20 -127.5q-22 -80 -88.5 -128t-146.5 -48q-64 0 -109.5 27t-92.5 76q-71 -49 -132 -76t-125 -27zM755 378q-13 0 -28 -3.5 t-24.5 -7t-28 -13.5t-24.5 -13.5t-28.5 -18.5l-25.5 -17q22 -24 35.5 -36t36.5 -22.5t49 -10.5q79 0 97 71q10 36 -6.5 53.5t-52.5 17.5zM231 307q-9 -35 7.5 -53t51.5 -18q25 0 53.5 11t47 22.5t52.5 35.5q-3 3 -16 16.5t-17.5 18t-16.5 14t-20.5 13t-20.5 7t-25 3.5 q-77 0 -96 -70z" glyph-name="infinity" horiz-adv-x="883" unicode="∞"/><glyph d="M-10 -125l34 126h42q28 0 40 14.5t30 57.5l238 589q22 56 41.5 86.5t57.5 52t95 21.5h132l-34 -126h-64q-22 0 -39 -9t-30 -29t-19.5 -33.5t-17.5 -40.5l-222 -549q-31 -85 -62 -122.5t-90 -37.5h-132z" glyph-name="integral" horiz-adv-x="503" unicode="∫"/><glyph d="M200 76l-155 -10q9 76 78.5 145.5t152.5 76.5q39 3 70 -8.5t47.5 -27t38.5 -28t45 -10.5q33 2 58 24.5t30 49.5l166 10q-16 -87 -86 -149.5t-167 -70.5q-36 -2 -65.5 11.5t-46.5 29.5t-41 26.5t-51 4.5q-25 -5 -47 -28t-27 -46zM266 319l-156 -10q9 76 78.5 145.5 t152.5 76.5q39 3 70 -8.5t47.5 -27.5t39 -28t45.5 -10q33 1 57.5 24t29.5 50l166 10q-16 -87 -86 -149.5t-167 -70.5q-36 -2 -65.5 11.5t-46.5 29.5t-41 26.5t-51 4.5q-25 -6 -47 -28.5t-26 -45.5z" glyph-name="approxequal" horiz-adv-x="671" unicode="≈"/><glyph d="M188 138h-121l35 131h186l48 65h-216l35 132h290l96 114h124l-96 -114h131l-35 -132h-199l-47 -65h229l-35 -131h-301l-83 -100h-123z" glyph-name="notequal" horiz-adv-x="607" unicode="≠"/><glyph d="M122 396l379 166l-39 -143l-179 -74l139 -75l-38 -142l-289 166zM340 -42h-336l35 132h336z" glyph-name="lessequal" horiz-adv-x="366" unicode="≤"/><glyph d="M456 396l-27 -102l-379 -166l38 142l180 75l-140 74l38 143zM4 -42l35 132h336l-35 -132h-336z" glyph-name="greaterequal" horiz-adv-x="366" unicode="≥"/><glyph d="M335 547h104l110 -220l-227 -220h-105l-109 220zM238 327l57 -125l123 125l-56 125z" glyph-name="lozenge" horiz-adv-x="482" unicode="◊"/><glyph d="M96 0l99 371h-85l35 132h150q-13 0 -31 5t-34.5 23t-9.5 45q34 124 304 124l-29 -110q-157 0 -168 -42q-6 -21 17.5 -33t55.5 -12h184q-7 0 -20 5.5t-28.5 19t-21 36t2.5 56.5q38 128 292 139l-32 -120q-137 5 -162 -65q-13 -34 11.5 -52.5t56.5 -18.5h58l-36 -132h-87 l-99 -371h-143l99 371h-137l-100 -371h-142z" glyph-name="uniFB00" horiz-adv-x="617" unicode="ﬀ"/><glyph d="M214 371h-104l35 132h108q-16 0 -28.5 21t-4.5 52q15 55 94.5 90.5t173.5 35.5q83 0 144.5 -31.5t79.5 -95.5l-125 -23q-38 62 -115 62q-33 0 -59.5 -14t-32.5 -35q-8 -32 10 -47t49 -15h58l-35 -132h-106l-99 -371h-143zM560 0h-143l134 500h143z" glyph-name="uniFB01" horiz-adv-x="599" unicode="ﬁ"/><glyph d="M418 371l35 132h107q-14 0 -26.5 24t-4.5 55q15 55 101 92.5t183 37.5q83 0 141.5 -31t69.5 -94l-125 -23q-32 62 -108 62q-36 0 -65.5 -16t-36.5 -39q-8 -32 10 -50t48 -18h58l-35 -132h-106l-100 -371h-142l99 371h-103zM238 0h-142l99 371h-85l35 132h150 q-23 0 -53 20.5t-20 58.5q15 55 73 87t142 32q51 0 113 -14l-39 -105q-49 13 -87 13q-40 0 -65 -12t-30 -29q-6 -22 17.5 -36.5t53.5 -14.5h53l-35 -132h-80zM867 0h-143l134 500h143z" glyph-name="uniFB03" horiz-adv-x="895" unicode="ﬃ"/><glyph d="M227 437h-90l58 216l23 47h148zM424 437h-90l58 216l23 47h148z" glyph-name="glyph390" horiz-adv-x="413"/><glyph d="M420 437l2 263h149l-3 -47l-58 -216h-90zM313 437h-90l2 263h149l-3 -47z" glyph-name="glyph391" horiz-adv-x="413"/></font>
</defs>
</svg>
