<svg xmlns="http://www.w3.org/2000/svg">
<defs>
<font horiz-adv-x="512" id="ywftsvg"><font-face ascent="800" bbox="-387 -271 1051 925" cap-height="700" descent="-200" font-family="" font-stretch="normal" font-weight="200" panose-1="0 0 0 0 0 0 0 0 0 0" underline-position="0" underline-thickness="0" unicode-range="U+000D-FB03" units-per-em="1000" x-height="500"/><missing-glyph d="M342 211h63q3 -15 7 -44.5t6 -43.5l11 88h64v-188h-43v127l-17 -127h-31l-18 124v-124h-42v188zM267 215q20 0 32 -6t17 -19.5t6 -24.5t1 -32v-32q0 -21 -1 -32t-6 -24.5t-17 -19.5t-32 -6t-32.5 6t-17.5 19.5t-6 24.5t-1 32v32q0 21 1 32t6 24.5t17.5 19.5t32.5 6z M78 90v55q0 35 12.5 52.5t46.5 17.5q26 0 39 -11.5t15.5 -26t2.5 -42.5v-6h-49v26q0 16 -2 25l-7 3l-7 -4l-2 -19v-87l2 -18l7 -4l7 4q2 9 2 43h49v-7q0 -36 -12 -54t-47 -18q-34 0 -45.5 17.5t-11.5 53.5zM292 242v189h49q30 0 47 -13q9 -17 9 -49q0 -20 -4 -34 q-12 -17 -53 -17v-76h-48zM227 498l-15 129h32l7 -88q3 42 9 88h35q3 -33 7 -92q3 50 10 92h32l-15 -129h-42q-5 26 -10 68l-9 -68h-41zM411 431h82v-38h-33v-36h31v-36h-31v-41h36v-38h-85v189zM84 393h-29v38h107v-38h-29v-151h-49v151zM168 431h45l12 -75q3 25 13 75h45 q-48 -120 -36 -189h-45q2 9 2 26q0 70 -36 163zM129 551v22q0 19 1.5 29t10.5 18.5t26 8.5q26 0 32.5 -14t6.5 -42v-22q0 -19 -1.5 -28.5t-10.5 -18t-27 -8.5q-25 0 -31.5 13.5t-6.5 41.5zM47 476h449v-23h-449v23zM422 498v129h34q22 0 31 -7t9 -27q0 -13 -4 -22 q-6 -4 -14 -6q7 -1 13 -6l4 -8l1 -19v-34h-31l1 32q0 16 -2 24l-9 2v-58h-33zM48 498v129h34q19 0 32 -9q6 -14 6 -33q0 -14 -3 -23q-7 -12 -36 -12v-52h-33zM351 498v129h59v-30h-26v-20h26v-29h-26v-19h26v-31h-59zM259 163v-88l1 -20l7 -4l6 4l1 21v87l-1 17l-6 3l-6 -3 q-2 -10 -2 -17zM30 23v38h36v-38h-36zM162 594v-60l1 -14l4 -3l5 3l1 15v59l-1 11l-5 3l-4 -2q0 -2 -0.5 -6t-0.5 -6zM340 398v-48h4l9 4q3 12 3 13v16q0 3 -3 12zM81 572h3l6 2q2 6 2 10v10q0 3 -2 9l-9 2v-33zM455 605v-29l8 2q2 6 2 10v7q0 2 -2 8z" horiz-adv-x="526"/><glyph d="M342 211h63q3 -15 7 -44.5t6 -43.5l11 88h64v-188h-43v127l-17 -127h-31l-18 124v-124h-42v188zM267 215q20 0 32 -6t17 -19.5t6 -24.5t1 -32v-32q0 -21 -1 -32t-6 -24.5t-17 -19.5t-32 -6t-32.5 6t-17.5 19.5t-6 24.5t-1 32v32q0 21 1 32t6 24.5t17.5 19.5t32.5 6z M78 90v55q0 35 12.5 52.5t46.5 17.5q26 0 39 -11.5t15.5 -26t2.5 -42.5v-6h-49v26q0 16 -2 25l-7 3l-7 -4l-2 -19v-87l2 -18l7 -4l7 4q2 9 2 43h49v-7q0 -36 -12 -54t-47 -18q-34 0 -45.5 17.5t-11.5 53.5zM292 242v189h49q30 0 47 -13q9 -17 9 -49q0 -20 -4 -34 q-12 -17 -53 -17v-76h-48zM227 498l-15 129h32l7 -88q3 42 9 88h35q3 -33 7 -92q3 50 10 92h32l-15 -129h-42q-5 26 -10 68l-9 -68h-41zM411 431h82v-38h-33v-36h31v-36h-31v-41h36v-38h-85v189zM84 393h-29v38h107v-38h-29v-151h-49v151zM168 431h45l12 -75q3 25 13 75h45 q-48 -120 -36 -189h-45q2 9 2 26q0 70 -36 163zM129 551v22q0 19 1.5 29t10.5 18.5t26 8.5q26 0 32.5 -14t6.5 -42v-22q0 -19 -1.5 -28.5t-10.5 -18t-27 -8.5q-25 0 -31.5 13.5t-6.5 41.5zM47 476h449v-23h-449v23zM422 498v129h34q22 0 31 -7t9 -27q0 -13 -4 -22 q-6 -4 -14 -6q7 -1 13 -6l4 -8l1 -19v-34h-31l1 32q0 16 -2 24l-9 2v-58h-33zM48 498v129h34q19 0 32 -9q6 -14 6 -33q0 -14 -3 -23q-7 -12 -36 -12v-52h-33zM351 498v129h59v-30h-26v-20h26v-29h-26v-19h26v-31h-59zM259 163v-88l1 -20l7 -4l6 4l1 21v87l-1 17l-6 3l-6 -3 q-2 -10 -2 -17zM30 23v38h36v-38h-36zM162 594v-60l1 -14l4 -3l5 3l1 15v59l-1 11l-5 3l-4 -2q0 -2 -0.5 -6t-0.5 -6zM340 398v-48h4l9 4q3 12 3 13v16q0 3 -3 12zM81 572h3l6 2q2 6 2 10v10q0 3 -2 9l-9 2v-33zM455 605v-29l8 2q2 6 2 10v7q0 2 -2 8z" glyph-name=".notdef" horiz-adv-x="526"/><glyph glyph-name="glyph1" horiz-adv-x="0"/><glyph glyph-name="glyph1" horiz-adv-x="0"/><glyph glyph-name="space" horiz-adv-x="200" unicode=" "/><glyph d="M68 165l-21 206v329h53v-329l-21 -206h-11zM39 -8h70v65h-70v-65z" glyph-name="exclam" horiz-adv-x="147" unicode="!"/><glyph d="M183 507l-20 146v47h53v-47l-20 -146h-13zM20 653v47h53v-47l-20 -146h-13z" glyph-name="quotedbl" horiz-adv-x="238" unicode="&quot;"/><glyph d="M27 236l16 53h127l42 158h-130l16 53h126l52 200h55l-52 -200h177l52 200h55l-52 -200h168l-16 -53h-164l-42 -158h167l-16 -53h-164l-62 -236h-55l62 236h-177l-62 -236h-55l62 236h-130zM225 289h177l42 158h-177z" glyph-name="numbersign" horiz-adv-x="694" unicode="#"/><glyph d="M30 185l51 16q6 -63 53 -103.5t124 -47.5v300q-39 7 -65 13.5t-56.5 19t-48.5 28t-30.5 41t-12.5 58.5q0 85 58.5 138.5t154.5 60.5v35h62v-36q82 -8 136.5 -52.5t64.5 -114.5l-51 -17q-14 120 -150 132v-263q42 -7 69.5 -13.5t61 -20.5t53.5 -31.5t34 -47.5t14 -68 q0 -36 -10.5 -70t-35 -67t-72.5 -54t-114 -25v-42h-62v42q-209 15 -228 189zM320 339v-290q86 6 132.5 48.5t46.5 114.5q0 25 -10 44.5t-25 32.5t-40 23t-48 15.5t-56 11.5zM258 403v253q-76 -7 -118 -45t-42 -101q0 -48 41 -71t119 -36z" glyph-name="dollar" horiz-adv-x="582" unicode="$"/><glyph d="M161 410q-40 0 -71.5 16t-47.5 41.5t-23.5 56.5t0 62t23.5 56.5t47.5 41.5t71.5 16t71.5 -16t47.5 -41.5t23.5 -56.5t0 -62t-23.5 -56.5t-47.5 -41.5t-71.5 -16zM60 0l463 700h63l-463 -700h-63zM161 460q44 0 68.5 29.5t24.5 65.5t-24.5 65.5t-68.5 29.5t-68.5 -29.5 t-24.5 -65.5t24.5 -65.5t68.5 -29.5zM481 0q-46 0 -80 21.5t-49.5 53.5t-15.5 70t15.5 70t49.5 53.5t80 21.5t80 -21.5t49.5 -53.5t15.5 -70t-15.5 -70t-49.5 -53.5t-80 -21.5zM481 50q44 0 69 29.5t25 65.5t-25 65.5t-69 29.5t-69 -29.5t-25 -65.5t25 -65.5t69 -29.5z" glyph-name="percent" horiz-adv-x="643" unicode="%"/><glyph d="M36 200q0 79 43.5 118t119.5 56q-71 13 -106 58t-35 101q0 66 55 116.5t144 50.5q70 0 113.5 -13.5t93.5 -52.5l-33 -41q-74 55 -173 55q-60 0 -104 -34t-44 -86q0 -50 41 -86.5t95 -36.5l257 -1v98l52 -21v-76l85 3l2 -57h-87v-352h-52v161q-28 -72 -91 -116t-157 -44 q-99 0 -159 55t-60 145zM327 351q-111 -3 -174.5 -42t-63.5 -109q0 -65 44 -106t121 -41q98 0 173.5 74.5t75.5 162.5v61h-176z" glyph-name="ampersand" horiz-adv-x="642" unicode="&amp;"/><glyph d="M40 507l-20 146v47h53v-47l-20 -146h-13z" glyph-name="quotesingle" horiz-adv-x="93" unicode="'"/><glyph d="M20 308q0 69 15.5 134.5t37.5 110t43.5 79.5t37.5 52l15 16h49q-6 -6 -15.5 -17.5t-34.5 -50t-44.5 -81t-35 -108.5t-15.5 -135t15 -134.5t36 -110t42.5 -79.5t36.5 -52l15 -16h-49q-6 6 -16 17.5t-36 50t-45.5 81t-35.5 108.5t-16 135z" glyph-name="parenleft" horiz-adv-x="257" unicode="("/><glyph d="M20 700h49q6 -6 16 -17.5t36 -50t45.5 -81t35.5 -108.5t16 -135t-15.5 -134.5t-37 -110t-43.5 -79.5t-38 -52l-15 -16h-49q6 6 15.5 17.5t34.5 50t44.5 81t35 108.5t15.5 135t-15 134.5t-36 110t-42.5 79.5t-36.5 52z" glyph-name="parenright" horiz-adv-x="257" unicode=")"/><glyph d="M288 666l37 -43l-109 -61l110 -64l-38 -38l-91 69l6 -127v-1h-55v1l6 127l-96 -69l-38 38l115 64l-115 61l38 43l96 -69l-6 111h55l-6 -111z" glyph-name="asterisk" horiz-adv-x="346" unicode="*"/><glyph d="M236 262h-206v53h206v201h53v-201h204v-53h-204v-209h-53v209z" glyph-name="plus" horiz-adv-x="523" unicode="+"/><glyph d="M36 62h70v-70q0 -47 -13 -63.5t-47 -16.5h-10v26h10q15 0 22.5 9t9 18.5t1.5 26.5h-43v70z" glyph-name="comma" horiz-adv-x="141" unicode=","/><glyph d="M30 274v53h318v-53h-318z" glyph-name="hyphen" horiz-adv-x="378" unicode="-"/><glyph d="M106 -8h-70v65h70v-65z" glyph-name="period" horiz-adv-x="141" unicode="."/><glyph d="M15 -95l396 795h59l-396 -795h-59z" glyph-name="slash" horiz-adv-x="486" unicode="/"/><glyph d="M22 348q0 33 1.5 60t6.5 66t14.5 69t27.5 62t43 53t62.5 34.5t84.5 13.5t84.5 -13.5t62.5 -34.5t43 -53t27.5 -62t14.5 -69t6.5 -66t1.5 -60t-1.5 -60t-6.5 -66t-14.5 -69t-27.5 -62t-43 -53t-62.5 -34.5t-84.5 -13.5t-84.5 13.5t-62.5 34.5t-43 53t-27.5 62t-14.5 69 t-6.5 66t-1.5 60zM262 653q-102 0 -144.5 -78.5t-42.5 -226.5q0 -55 4.5 -98t17 -83t33 -66.5t54 -42t78.5 -15.5q187 0 187 305t-187 305z" glyph-name="zero" horiz-adv-x="524" unicode="0"/><glyph d="M15 525v53q154 0 154 122h53v-700h-53v545q0 34 13 73l-2 1q-18 -56 -33 -67q-36 -27 -132 -27z" glyph-name="one" horiz-adv-x="246" unicode="1"/><glyph d="M482 0h-460v20q0 70 22 126t58 91t79 63t85.5 49t78.5 41.5t58 48t22 61.5q0 83 -44 118t-127 35q-72 0 -120 -32.5t-51 -105.5l-52 11q10 89 69 134.5t154 45.5q102 0 163 -52.5t61 -153.5q0 -50 -25 -87.5t-63 -58.5t-85.5 -46t-90.5 -48.5t-80 -67.5t-52 -102 q-8 -37 -37 -61l1 -1q32 25 67 25h369v-53z" glyph-name="two" horiz-adv-x="497" unicode="2"/><glyph d="M257 -6q-96 0 -161 46t-74 134l52 9q1 -64 57 -100t126 -36q77 0 130 39.5t53 113.5q0 134 -183 135h-34l-1 53h35q84 0 120.5 33.5t36.5 96.5q0 67 -45 100.5t-112 33.5q-56 0 -104.5 -36t-53.5 -90l-51 11q6 82 63.5 125.5t145.5 42.5q94 -1 152 -49t58 -138 q0 -84 -52 -133q-21 -19 -69 -25v-2q45 6 72 -11q75 -45 75 -147q0 -100 -66 -153t-170 -53z" glyph-name="three" horiz-adv-x="515" unicode="3"/><glyph d="M330 216h-315v53l261 431h107v-431h138l12 -53h-112q-36 0 -64 28l-2 -2q28 -26 28 -64v-178h-53v216zM330 688l-253 -419h253v419z" glyph-name="four" horiz-adv-x="558" unicode="4"/><glyph d="M258 -4q-96 0 -162.5 50t-73.5 153l52 6q2 -47 20.5 -80t48 -48.5t57 -21.5t58.5 -6q79 0 131 41.5t52 131.5q0 83 -53 127t-125 44q-56 0 -100 -26.5t-55 -72.5h-83l-2 406h456l-10 -53h-391v-256q0 -38 -13 -74l2 -1q14 45 35 66q62 62 160 62q93 0 162.5 -59 t69.5 -163q0 -114 -67.5 -170t-168.5 -56z" glyph-name="five" horiz-adv-x="516" unicode="5"/><glyph d="M259 -4q-110 0 -173.5 79.5t-63.5 237.5q0 171 68.5 281.5t193.5 110.5q176 0 209 -161l-48 -16q-12 42 -53.5 83t-107.5 41q-32 0 -64 -15.5t-63 -47t-53 -87.5t-27 -129q-3 -37 -15 -74h2q16 48 33 67q68 77 181 77q90 0 153.5 -56.5t63.5 -164.5q0 -114 -67.5 -170 t-168.5 -56zM84 222q0 -86 48.5 -129.5t127.5 -43.5q182 0 182 173q0 78 -42.5 125t-132.5 48q-59 1 -121 -50.5t-62 -122.5z" glyph-name="six" horiz-adv-x="517" unicode="6"/><glyph d="M16 647v53h447v-86l-348 -614h-61l348 614q19 32 52 51l-1 2q-35 -20 -70 -20h-367z" glyph-name="seven" horiz-adv-x="478" unicode="7"/><glyph d="M258 -6q-104 0 -170.5 53.5t-66.5 152.5q0 102 75 153q25 17 71 15v2q-60 3 -89.5 43.5t-29.5 104.5q0 91 58 139.5t152 47.5t152 -49t58 -138q0 -63 -30.5 -104.5t-89.5 -44.5v-2q47 2 72 -14q75 -51 75 -153q0 -99 -66.5 -152.5t-170.5 -53.5zM74 200q0 -75 49 -114 t135 -39q82 0 133 37t51 116q0 76 -48 106t-136 31q-89 1 -136.5 -30t-47.5 -107zM101 518q0 -66 43 -97t114 -31q157 0 157 128q0 134 -157 134q-75 0 -116 -30.5t-41 -103.5z" glyph-name="eight" horiz-adv-x="516" unicode="8"/><glyph d="M22 479q0 114 67.5 170t168.5 56q108 0 166 -78.5t58 -238.5q0 -96 -28 -184t-86.5 -148t-134.5 -60q-176 0 -209 161l48 20q15 -73 53.5 -100.5t107.5 -27.5q62 0 120.5 74.5t71.5 204.5q5 40 16 74h-2q-16 -49 -31 -68q-60 -77 -167 -77q-88 0 -153.5 58.5t-65.5 163.5 zM258 652q-79 0 -131 -41t-52 -132q0 -89 52 -128.5t131 -40.5q61 -1 109.5 50t48.5 119q0 63 -43 118t-115 55z" glyph-name="nine" horiz-adv-x="517" unicode="9"/><glyph d="M106 313h-70v65h70v-65zM36 57h70v-65h-70v65z" glyph-name="colon" horiz-adv-x="141" unicode=":"/><glyph d="M51 -88v26h10q15 0 23 9t9.5 18.5t1.5 26.5h-44v70h70v-70q0 -47 -12.5 -63.5t-47.5 -16.5h-10zM51 313v65h70v-65h-70z" glyph-name="semicolon" horiz-adv-x="123" unicode=";"/><glyph d="M337 88l-322 144v89l322 144v-53l-292 -136l292 -135v-53z" glyph-name="less" horiz-adv-x="352" unicode="&lt;"/><glyph d="M30 360v53h463v-53h-463zM493 158h-463v53h463v-53z" glyph-name="equal" horiz-adv-x="523" unicode="="/><glyph d="M337 232l-322 -144v53l292 135l-292 136v53l322 -144v-89z" glyph-name="greater" horiz-adv-x="352" unicode=">"/><glyph d="M68 500h-53q0 95 55 150.5t144 55.5q91 0 142 -51.5t51 -154.5q0 -41 -19.5 -72t-47 -53t-55 -45.5t-47 -60.5t-19.5 -86v-17h-53v17q0 57 20 100.5t48 68t56 45.5t48 46.5t20 56.5q0 73 -37 113t-107 40q-74 0 -109 -44t-37 -109zM158 77h70v-65h-70v65z" glyph-name="question" horiz-adv-x="470" unicode="?"/><glyph d="M22 320q0 176 99 278t277 102q173 0 275.5 -103t102.5 -277q0 -125 -44 -191t-102 -66q-34 0 -62 23.5t-40 65.5q-7 27 5 73l-2 1q-13 -49 -33 -66q-55 -46 -122 -46q-69 0 -119.5 50.5t-50.5 132.5q0 85 51 138.5t119 53.5q75 0 122 -34q16 -12 35 -57l1 1 q-13 35 -13 65v12h53v-272q0 -36 18 -59.5t43 -23.5q35 0 61.5 49.5t26.5 149.5q0 150 -86.5 238.5t-238.5 88.5q-153 0 -238 -88t-85 -239q0 -178 91 -267t247 -89q120 0 271 53v-53q-162 -52 -286 -52q-179 0 -277.5 103t-98.5 305zM390 437q-56 0 -93.5 -37t-37.5 -103 q0 -62 34.5 -96.5t96.5 -34.5q50 0 90.5 36t40.5 107q0 70 -39 99t-92 29z" glyph-name="at" horiz-adv-x="798" unicode="@"/><glyph d="M78 0h-57l264 700h97l264 -700h-59l-71 191h-367zM326 661l-155 -415h213h14.5t15.5 -0.5t14 -1t15 -1.5t13.5 -3t14 -5t12 -7t12.5 -9t10.5 -12t10.5 -16l-176 470h-14z" glyph-name="A" horiz-adv-x="667" unicode="A"/><glyph d="M296 0h-266v700h236q236 0 236 -184q0 -24 -20 -62t-59 -58q-15 -9 -53 -13v-2q37 4 55 0q60 -15 93.5 -66t33.5 -104q0 -211 -256 -211zM83 53h213q84 0 142 40.5t58 117.5q0 125 -167 125h-246v-283zM83 389h238q126 0 126 127q0 68 -51 99.5t-130 31.5h-183v-258z" glyph-name="B" horiz-adv-x="574" unicode="B"/><glyph d="M346 707q119 -2 203.5 -64t111.5 -182l-50 -19q-22 99 -90.5 154.5t-174.5 56.5q-126 1 -198.5 -79t-72.5 -224t72.5 -224t198.5 -79q106 1 174.5 56.5t90.5 154.5l50 -19q-27 -120 -111.5 -182t-203.5 -64q-144 -2 -234 89.5t-90 267.5t90 267.5t234 89.5z" glyph-name="C" horiz-adv-x="683" unicode="C"/><glyph d="M267 0h-237v700h237q100 0 179 -37t128 -117.5t49 -195.5t-49 -195.5t-128 -117.5t-179 -37zM267 647h-233q49 0 49 -29v-565h184q60 0 111.5 15.5t96 49t70 93t25.5 139.5q0 78 -25 137.5t-68.5 93t-96 50t-113.5 16.5z" glyph-name="D" horiz-adv-x="645" unicode="D"/><glyph d="M30 0v700h457v-53h-404v-282h404v-53h-404v-259h404v-53h-457z" glyph-name="E" unicode="E"/><glyph d="M30 0v700h457v-53h-366q-37 0 -64 27l-1 -1q27 -27 27 -64v-244h404v-53h-366q-37 0 -64 27l-1 -1q27 -27 27 -64v-274h-53z" glyph-name="F" unicode="F"/><glyph d="M22 350q0 176 90 267.5t234 89.5q119 -2 203.5 -64t111.5 -182l-49 -19q-21 92 -101 151.5t-165 60.5q-110 1 -190.5 -82t-80.5 -222q0 -140 73 -222t183 -82q64 0 112.5 46t69.5 103t21 109h-112v53h184q64 0 64 -69v-288h-53v304h-29q-4 -148 -78.5 -229.5 t-181.5 -81.5q-142 0 -224 90t-82 267z" glyph-name="G" horiz-adv-x="692" unicode="G"/><glyph d="M30 700h53v-323h430v323h53v-700h-53v324h-430v-324h-53v700z" glyph-name="H" horiz-adv-x="596" unicode="H"/><glyph d="M30 0v700h53v-700h-53z" glyph-name="I" horiz-adv-x="113" unicode="I"/><glyph d="M22 189l51 17q7 -69 51 -114.5t116 -45.5q76 0 121 50.5t45 126.5v477h53v-477q0 -111 -62.5 -170.5t-156.5 -59.5q-87 0 -148 51t-70 145z" glyph-name="J" horiz-adv-x="489" unicode="J"/><glyph d="M83 0h-53v700h53v-389q0 -39 -15 -77h2q13 36 39 67l353 399h71l-257 -291l292 -409h-66l-262 368l-157 -172v-196z" glyph-name="K" horiz-adv-x="590" unicode="K"/><glyph d="M460 0h-430v700h53v-609q0 -37 -27 -64l1 -1q27 27 64 27h339v-53z" glyph-name="L" horiz-adv-x="475" unicode="L"/><glyph d="M83 0h-53v700h59l259 -650q6 -15 6 -35h2q0 20 6 35l260 650h59v-700h-53v513q0 63 14 133h-2q-15 -73 -37 -129l-203 -517h-89l-203 517q-22 56 -37 129h-1q13 -74 13 -133v-513z" glyph-name="M" horiz-adv-x="711" unicode="M"/><glyph d="M30 700h53l421 -581q26 -38 39 -80h2q-15 49 -15 88v573h53v-700h-53l-420 573q-25 33 -40 79h-2q15 -49 15 -88v-564h-53v700z" glyph-name="N" horiz-adv-x="613" unicode="N"/><glyph d="M356 -7q-146 0 -240 91.5t-94 265.5q0 175 94 267t240 90q147 -2 240.5 -93t93.5 -264q0 -174 -94 -265.5t-240 -91.5zM356 654q-113 2 -197 -82t-84 -222t83.5 -221t197.5 -83q118 0 199.5 82t81.5 222q0 139 -83.5 220.5t-197.5 83.5z" glyph-name="O" horiz-adv-x="712" unicode="O"/><glyph d="M83 0h-53v700h244q256 0 256 -214q0 -89 -70.5 -155t-185.5 -66h-191v-265zM83 647v-329h191q79 0 140.5 50.5t61.5 117.5q0 81 -58 121t-144 40h-191z" glyph-name="P" horiz-adv-x="552" unicode="P"/><glyph d="M356 -7q-146 0 -240 91.5t-94 265.5q0 175 94 267t240 90q147 -2 240.5 -93t93.5 -264q0 -192 -122 -284q-21 -15 -68 -31v-2q38 12 74 12l138 2v-54h-356zM356 654q-120 1 -200.5 -81t-80.5 -223q0 -140 80 -222t201 -82q133 0 207 84.5t74 219.5q0 140 -80.5 221.5 t-200.5 82.5z" glyph-name="Q" horiz-adv-x="734" unicode="Q"/><glyph d="M83 0h-53v700h254q256 0 256 -215q0 -84 -39 -124t-125 -57v-2q68 13 88 13q82 0 82 -86l2 -229h-55v220q0 25 -11 35.5t-48 10.5l-351 -1v-265zM83 319h201q93 0 147.5 48.5t54.5 117.5q0 88 -50 125t-152 37h-201v-328z" glyph-name="R" horiz-adv-x="570" unicode="R"/><glyph d="M22 185l51 16q6 -70 62.5 -111.5t148.5 -41.5q99 0 153 43t54 121q0 40 -25 66.5t-65 39t-88.5 21t-97 18.5t-88.5 25.5t-65 47.5t-25 80q0 92 67.5 147t176.5 53q93 -2 156.5 -47t75.5 -122l-51 -17q-16 133 -181 133q-89 0 -140 -39t-51 -108q0 -42 33.5 -66.5 t84 -32.5t109.5 -19.5t109.5 -26t84 -53.5t33.5 -100q0 -38 -12 -73t-39 -69t-81 -54.5t-128 -20.5q-71 0 -122.5 16.5t-80 46t-42 60.5t-17.5 67z" glyph-name="S" horiz-adv-x="566" unicode="S"/><glyph d="M20 700h550v-53h-214q-34 0 -57 25l-2 -2q25 -23 25 -57v-613h-53v647h-249v53z" glyph-name="T" horiz-adv-x="590" unicode="T"/><glyph d="M30 293v407h53v-408q0 -115 61 -181t168 -66t168 66.5t61 180.5v408h53v-407q0 -146 -79.5 -223.5t-202.5 -77.5t-202.5 77.5t-79.5 223.5z" glyph-name="U" horiz-adv-x="624" unicode="U"/><glyph d="M275 0l-253 700h57l239 -663q5 -12 5 -33h2q0 20 5 33l240 663h57l-253 -700h-99z" glyph-name="V" horiz-adv-x="649" unicode="V"/><glyph d="M241 0l-219 700h56l207 -661q3 -9 5 -35h2q-2 17 2 35l158 661h105l156 -662q2 -10 2 -33h2q0 16 5 33l207 662h56l-219 -700h-99l-162 685v11h-2v-11l-163 -685h-99z" glyph-name="W" horiz-adv-x="1006" unicode="W"/><glyph d="M87 -1h-67l269 360l-259 340h67l216 -283q9 -14 9 -31h2q0 19 10 30l222 284h69l-267 -339l281 -361h-67l-237 305q-10 11 -10 30h-2q0 -18 -9 -31z" glyph-name="X" horiz-adv-x="646" unicode="X"/><glyph d="M282 345l-267 354h67l203 -270q22 -28 22 -68h2q0 40 22 68l203 270h67l-266 -354v-345h-53v345z" glyph-name="Y" horiz-adv-x="616" unicode="Y"/><glyph d="M22 89l494 530q25 27 61 42l-1 2q-36 -16 -72 -16h-474v53h551v-89l-493 -530q-25 -27 -61 -42l1 -2q37 16 72 16h490v-53h-568v89z" glyph-name="Z" horiz-adv-x="612" unicode="Z"/><glyph d="M268 -132h-238v832h238v-53h-147q-38 0 -64 28l-1 -2q27 -27 27 -64v-650q0 -37 -27 -64l1 -2q26 28 64 28h147v-53z" glyph-name="bracketleft" horiz-adv-x="298" unicode="["/><glyph d="M471 -95h-60l-396 795h60z" glyph-name="backslash" horiz-adv-x="525" unicode="\"/><glyph d="M30 647v53h238v-832h-238v53h147q38 0 64 -28l2 2q-28 26 -28 64v650q0 38 28 64l-2 2q-26 -28 -64 -28h-147z" glyph-name="bracketright" horiz-adv-x="298" unicode="]"/><glyph d="M82 500h-57l144 300h89l144 -300h-56l-122 248q-10 19 -10 46h-2q0 -27 -10 -46z" glyph-name="asciicircum" horiz-adv-x="427" unicode="^"/><glyph d="M50 -117v53h424v-53h-424z" glyph-name="underscore" horiz-adv-x="524" unicode="_"/><glyph d="M41 700l58 -142h-44l-77 142h63z" glyph-name="grave" horiz-adv-x="118" unicode="`"/><glyph d="M412 119q-22 -58 -78 -88.5t-123 -30.5q-77 0 -133 38t-56 104q0 52 29 83t73 40t95 13t94.5 3t71.5 8t27 30q-4 71 -42 101t-118 30q-68 0 -108.5 -26.5t-51.5 -92.5l-50 17q12 81 71 118.5t139 36.5q43 0 79 -10t67 -31.5t49 -61t18 -93.5v-221q0 -19 6 -25.5t21 -6.5 h20v-54h-32q-32 0 -50 19t-18 50v50zM75 142q0 -45 41 -69.5t101 -24.5q75 0 135 35t60 94v76q-28 -14 -75 -18t-90 -4t-83.5 -4t-64.5 -24.5t-24 -60.5z" glyph-name="a" horiz-adv-x="534" unicode="a"/><glyph d="M83 0h-53v700h53v-265q0 -33 -13 -74h2q16 48 34 66q35 35 92 57.5t107 21.5q102 -1 160 -65.5t58 -190.5q0 -127 -58 -191.5t-160 -64.5q-51 0 -107.5 20.5t-91.5 54.5q-18 18 -34 66l-2 -1q13 -39 13 -73v-61zM83 250q0 -92 63.5 -147t132.5 -55q99 0 145 46t46 156 q0 107 -47 154t-144 48q-43 1 -86.5 -21t-76.5 -70t-33 -111z" glyph-name="b" horiz-adv-x="545" unicode="b"/><glyph d="M265 506q78 -1 137.5 -39.5t87.5 -112.5l-48 -20q-41 117 -177 119q-77 1 -133.5 -53.5t-56.5 -149.5q0 -99 54.5 -151.5t135.5 -51.5q134 2 175 118l50 -19q-28 -74 -87.5 -112.5t-137.5 -39.5q-104 -1 -173.5 65.5t-69.5 190.5t69.5 190.5t173.5 65.5z" glyph-name="c" unicode="c"/><glyph d="M22 250q0 126 58 190.5t160 65.5q50 1 107.5 -21.5t92.5 -57.5q18 -18 34 -66h2q-13 41 -13 74v265h53v-700h-53v61q0 34 13 73l-2 1q-16 -48 -34 -66q-35 -34 -92 -54.5t-108 -20.5q-102 0 -160 64.5t-58 191.5zM266 452q-99 -1 -145 -47t-46 -155t46.5 -156t144.5 -47 q69 0 133 55.5t64 147.5q0 63 -33 111t-77 70t-87 21z" glyph-name="d" horiz-adv-x="546" unicode="d"/><glyph d="M265 -6q-104 -1 -173.5 65.5t-69.5 190.5t69.5 190.5t173.5 65.5q105 -1 174 -66.5t69 -189.5q0 -9 -3 -28h-425q25 -177 185 -175q62 1 111 29.5t73 86.5l47 -17q-29 -71 -92 -111t-139 -41zM265 453q-81 2 -137 -62.5t-48 -168.5q5 20 11 31.5t19 16t22 5t35 0.5h283 q-29 176 -185 178z" glyph-name="e" horiz-adv-x="530" unicode="e"/><glyph d="M114 453h-104v53h74q31 0 67 -9v2q-4 1 -16 3.5t-18.5 4.5t-15 6t-13.5 9q-22 22 -22 54q0 51 49.5 87.5t157.5 36.5v-54q-70 0 -112 -18.5t-42 -50.5t32 -51.5t64 -19.5h58v-53h-106v-453h-53v453z" glyph-name="f" horiz-adv-x="295" unicode="f"/><glyph d="M114 58q-37 9 -60 31t-23 54q0 35 16 54t49 31q0 1 -4 6.5t-10 15t-11.5 21t-9.5 27.5t-4 32q0 56 33.5 96t79.5 56.5t98 16.5q49 0 112 -24q-5 12 -5.5 22t4.5 17t12.5 11.5t18.5 7.5t21.5 4.5t24 1.5h23t21 -0.5t15.5 -0.5v-47h-55q-7 0 -12 -0.5t-14 -1t-14.5 -3 t-9.5 -6t-2.5 -10t8.5 -14.5q57 -57 57 -123q0 -81 -63.5 -124.5t-144.5 -43.5q-50 0 -94 16q-3 1 -7.5 3t-7.5 3.5t-4 1.5q-24 1 -45.5 -12t-21.5 -27q0 -27 33 -43t82.5 -20.5t107 -12.5t107 -18.5t82.5 -39.5t33 -75q0 -44 -27.5 -74.5t-72.5 -43.5t-82 -18t-76 -5 q-38 0 -76.5 5t-87 18t-78.5 43.5t-30 74.5q0 28 10.5 49t29.5 34t35.5 20t38.5 14zM272 -147q26 0 56.5 3.5t66 12.5t58.5 27.5t23 44.5q0 13 -5.5 23.5t-17 19t-23 15t-30.5 11.5t-33 8.5t-36 6.5t-34 4.5t-32.5 3.5t-26.5 3q-32 4 -41 4q-24 0 -55.5 -9.5t-60 -33.5 t-28.5 -56q0 -26 25 -44.5t63 -27t71 -12.5t60 -4zM110 331q0 -60 46 -87t109 -27t109 27t46 88q0 60 -46 87t-107 27q-64 0 -110.5 -27t-46.5 -88z" glyph-name="g" horiz-adv-x="546" unicode="g"/><glyph d="M31 0v700h53v-287q0 -30 -10 -74l2 -1q10 45 26 70q32 50 82.5 75t103.5 25q50 0 86 -21.5t53.5 -57t25.5 -72t8 -75.5v-282h-53v282q0 81 -31.5 126.5t-93.5 45.5q-16 0 -37.5 -5.5t-51 -23t-53 -45t-40.5 -78t-17 -115.5v-187h-53z" glyph-name="h" horiz-adv-x="486" unicode="h"/><glyph d="M30 647h57v53h-57v-53zM32 0v500h53v-500h-53z" glyph-name="i" horiz-adv-x="117" unicode="i"/><glyph d="M-31 -160v53h22q51 0 74.5 25t23.5 82v500h53v-500q0 -79 -33.5 -119.5t-117.5 -40.5h-22zM89 647v53h53v-53h-53z" glyph-name="j" horiz-adv-x="174" unicode="j"/><glyph d="M83 0h-53v700h53l-3 -439q0 -32 -17 -72h2q16 37 43 60l280 251h69l-213 -202l228 -297h1v-1l-1 1h-67l-201 261l-121 -105v-157z" glyph-name="k" horiz-adv-x="493" unicode="k"/><glyph d="M35 0v700h53v-700h-53z" glyph-name="l" horiz-adv-x="123" unicode="l"/><glyph d="M30 0v500h53v-66q0 -29 -10 -75h2q34 149 169 149q97 0 126 -88q9 -29 5 -74l2 -1q4 47 17 73q48 90 145 90q44 0 73.5 -16.5t45 -48.5t21.5 -70.5t6 -90.5v-282h-54v282q0 172 -94 172q-17 0 -35 -5.5t-40 -23.5t-38.5 -46t-28 -77.5t-11.5 -114.5v-187h-54v282 q0 90 -20.5 131t-67.5 41q-18 0 -36 -5.5t-41 -23t-40.5 -45.5t-29.5 -78t-12 -115v-187h-53z" glyph-name="m" horiz-adv-x="756" unicode="m"/><glyph d="M30 0v500h53v-87q0 -31 -9 -67h2q11 45 23 63q59 99 170 99q40 0 69 -21.5t43.5 -57t21 -72t6.5 -75.5v-282h-53v282q0 172 -100 172q-16 0 -35 -5.5t-44.5 -23t-45.5 -45t-34 -78t-14 -115.5v-187h-53z" glyph-name="n" horiz-adv-x="439" unicode="n"/><glyph d="M268 -6q-105 0 -175.5 66t-70.5 190t70.5 190.5t175.5 65.5q106 -1 176 -67t70 -189q0 -124 -70.5 -190t-175.5 -66zM268 453q-80 1 -136.5 -52.5t-56.5 -150.5q0 -101 54 -152t139 -51q83 0 138 52t55 151q0 98 -55 150t-138 53z" glyph-name="o" horiz-adv-x="536" unicode="o"/><glyph d="M32 -200l-2 700h55v-65q0 -33 -13 -74h2q16 48 34 66q35 35 91.5 57.5t106.5 21.5q102 -1 160 -65.5t58 -190.5q0 -127 -58 -191.5t-160 -64.5q-51 0 -107 20.5t-91 54.5q-18 18 -34 66h-2q13 -41 13 -74v-261h-53zM85 250q0 -92 63 -147t132 -55q98 0 144 46.5t46 155.5 q0 111 -45.5 156.5t-144.5 46.5q-31 0 -64.5 -13t-63 -37.5t-48.5 -64.5t-19 -88z" glyph-name="p" horiz-adv-x="546" unicode="p"/><glyph d="M22 250q0 126 58 190.5t160 65.5q50 1 107.5 -21.5t92.5 -57.5q18 -18 34 -66h2q-13 41 -13 74v65h53v-700h-53v261q0 33 13 74h-1q-19 -50 -35 -66q-35 -34 -91.5 -54.5t-108.5 -20.5q-102 0 -160 64.5t-58 191.5zM266 453q-95 -1 -143 -49t-48 -154q0 -108 47 -155.5 t144 -47.5q69 0 133 55.5t64 147.5q0 48 -19.5 88t-49.5 64.5t-63.5 37.5t-64.5 13z" glyph-name="q" horiz-adv-x="546" unicode="q"/><glyph d="M30 397q0 50 26.5 76.5t75.5 26.5h169v-53l-151 -1q-45 0 -56 -10t-11 -59v-377h-53v397z" glyph-name="r" horiz-adv-x="321" unicode="r"/><glyph d="M21 135l49 16q10 -57 48 -80.5t113 -23.5q81 0 120 26t39 87q0 30 -37 45.5t-90 21t-106 14.5t-90 37t-37 77q0 50 22.5 83.5t59.5 47t63.5 17.5t55.5 4q177 0 200 -118l-51 -14q-11 46 -45 62.5t-104 16.5q-79 0 -113.5 -21t-34.5 -78q0 -32 37 -47.5t90 -21.5t106 -15 t90 -36t37 -75q0 -43 -17.5 -75.5t-41 -49t-55.5 -26.5t-54 -12.5t-44 -2.5q-26 0 -53 4.5t-63.5 17t-62 43.5t-31.5 76z" glyph-name="s" horiz-adv-x="465" unicode="s"/><glyph d="M117 453h-107v53h8q31 0 67 44.5t36 88.5l55 1q-2 -72 -54 -120q-11 -9 -65 -20v-2q40 8 68 8h148v-53h-103v-346q0 -31 14 -42.5t40 -11.5h74v-53h-42q-47 0 -74 5.5t-42 22t-19 38.5t-4 62v325z" glyph-name="t" horiz-adv-x="295" unicode="t"/><glyph d="M193 -8q-163 0 -163 226v282h53v-282q0 -89 29.5 -130.5t96.5 -41.5q12 0 27.5 5.5t36.5 23t37.5 45t28.5 78t12 115.5v187h53v-500h-53v77q0 31 9 67h-2q-19 -72 -57 -112t-108 -40z" glyph-name="u" horiz-adv-x="481" unicode="u"/><glyph d="M207 0l-187 500h58l161 -421q13 -32 13 -74h2q0 41 12 74l159 421h56l-187 -500h-87z" glyph-name="v" horiz-adv-x="501" unicode="v"/><glyph d="M177 0l-157 500h58l133 -432q9 -27 9 -63h2q0 34 8 63l128 432h82l138 -432q9 -27 9 -63h2q0 34 8 63l135 432h58l-157 -500h-90l-132 417q-11 35 -11 74h-2q0 -41 -9 -74l-123 -417h-89z" glyph-name="w" horiz-adv-x="810" unicode="w"/><glyph d="M214 253l-196 247h68l148 -187q11 -14 11 -34h2q0 20 11 34l146 187h68l-194 -247l194 -253h-67l-148 193q-11 14 -11 34h-2q0 -19 -10 -34l-149 -193h-67z" glyph-name="x" horiz-adv-x="490" unicode="x"/><glyph d="M186 29l-171 471h54l137 -367q12 -33 12 -74h2q0 42 13 74l139 367h55l-214 -571q-25 -76 -72 -110t-94 -34h-27v53h27q24 0 57.5 22t50.5 67z" glyph-name="y" horiz-adv-x="442" unicode="y"/><glyph d="M430 0h-405v79l331 341q23 25 61 41v2q-37 -16 -73 -16h-311v53h394v-79l-327 -341q-23 -25 -61 -41v-2q37 16 73 16h318v-53z" glyph-name="z" horiz-adv-x="455" unicode="z"/><glyph d="M29 317q46 0 60 17q9 12 9 30v207q0 76 37.5 102.5t100.5 26.5v-52q-85 0 -85 -77v-199q0 -46 -22 -63.5t-69 -17.5v-2q47 0 69 -18t22 -64v-199q0 -38 19.5 -57t65.5 -19v-53q-63 0 -100.5 26.5t-37.5 102.5v209q0 18 -7 28.5t-22.5 14t-20 4t-19.5 0.5v53z" glyph-name="braceleft" horiz-adv-x="266" unicode="{"/><glyph d="M30 -200v900h53v-900h-53z" glyph-name="bar" horiz-adv-x="113" unicode="|"/><glyph d="M167 8q0 -76 -37.5 -102.5t-100.5 -26.5v53q46 0 65.5 19t19.5 57v199q0 45 22.5 63.5t68.5 18.5v2q-53 0 -70 19q-21 21 -21 62v199q0 77 -85 77v52q63 0 100.5 -26.5t37.5 -102.5v-207q0 -18 7 -28.5t22.5 -14t20 -4t19.5 -0.5v-53q-46 0 -60 -17q-9 -12 -9 -30v-209z " glyph-name="braceright" horiz-adv-x="274" unicode="}"/><glyph d="M140 360q42 0 96 -34t74 -34q24 0 42 22.5t16 46.5h65q6 -60 -30 -92t-98 -32q-35 0 -66.5 16.5t-54 33t-37.5 16.5q-70 0 -70 -82h-56q-7 58 26.5 98.5t92.5 40.5z" glyph-name="asciitilde" horiz-adv-x="453" unicode="~"/><glyph d="M109 500h-70v-60h70v60zM79 327l21 -206v-329h-53v329l21 206h11z" glyph-name="exclamdown" horiz-adv-x="147" unicode="¡"/><glyph d="M238 96q-94 4 -155 70t-61 183t61 184t153 69v98h53v-99q71 -1 127 -39.5t74 -108.5l-49 -18q-19 64 -60.5 88t-115.5 24q-90 0 -140 -45t-50 -153q0 -102 55.5 -153t134.5 -50q136 3 177 120l48 -21q-19 -67 -74.5 -105.5t-124.5 -42.5v-97h-53v96z" glyph-name="cent" unicode="¢"/><glyph d="M15 53q85 0 131 50.5t46 115.5q0 54 -22 100h-108l18 53h57q-55 68 -55 146q0 90 58 138t152 49q88 1 145.5 -42.5t63.5 -125.5l-51 -6q-10 68 -50.5 95t-104.5 27q-160 0 -160 -135q0 -71 58 -146h142l-8 -53h-105q20 -46 20 -100q0 -84 -55 -141q-18 -19 -65 -37l1 -2 q37 14 73 14h317l10 -53h-508v53z" glyph-name="sterling" horiz-adv-x="538" unicode="£"/><glyph d="M34 491l38 38l62 -62q20 18 51 29.5t57 11.5q27 0 57 -10t48 -28l61 62l39 -39l-62 -62q17 -17 28 -48t11 -58t-11 -58t-30 -50l62 -62l-38 -38l-61 62q-14 -15 -46 -26t-58 -11q-66 0 -106 39l-62 -62l-39 39l62 62q-17 18 -27.5 48t-10.5 57q0 65 37 104zM112 325 q0 -53 38.5 -91.5t91.5 -38.5t91 38.5t38 91.5t-38 91.5t-91 38.5t-91.5 -38.5t-38.5 -91.5z" glyph-name="currency" horiz-adv-x="483" unicode="¤"/><glyph d="M299 345l-241 354h65l181 -267q22 -32 20 -70h2q2 42 21 69l188 268h62l-245 -354v-56h95v-53h-95v-67h95v-53h-95v-116h-53v116h-95v53h95v67h-95v53h95v56z" glyph-name="yen" horiz-adv-x="646" unicode="¥"/><glyph d="M30 319v379h53v-379h-53zM30 179h53v-379h-53v379z" glyph-name="brokenbar" horiz-adv-x="113" unicode="¦"/><glyph d="M230 -122q-20 0 -40 2t-50 10.5t-53 23t-41.5 41.5t-23.5 64l50 13q24 -101 158 -101q159 0 159 113q0 33 -37 50.5t-90 24.5t-106 17t-90 40t-37 81q0 59 46.5 89t109.5 33l-1 2q-47 -2 -74 8q-88 35 -88 108q0 43 17.5 75.5t41 49t55.5 26.5t54 12.5t44 2.5q20 0 40 -2 t50 -10.5t53 -23t41.5 -41.5t23.5 -64l-46 -17q-6 30 -20 51t-29 31.5t-39 16t-37.5 6t-36.5 0.5q-159 0 -159 -113q0 -34 37 -52t90 -26t106 -18t90 -38t37 -76q0 -61 -38 -92.5t-101 -37.5v-2q44 4 74 -6q33 -11 52.5 -34.5t19.5 -70.5q0 -43 -17.5 -75.5t-41 -49 t-55.5 -26.5t-54 -12.5t-44 -2.5zM82 254q0 -12 6 -22t12.5 -15.5t20.5 -11t20.5 -7.5t23 -6t18.5 -4q20 -4 45 -4q65 0 109.5 30.5t44.5 70.5q0 10 -3 18.5t-10.5 15t-12.5 11t-17 8.5t-16.5 5t-18.5 4.5t-15 3.5q-20 4 -45 4q-66 0 -114 -30.5t-48 -70.5z" glyph-name="section" horiz-adv-x="464" unicode="§"/><glyph d="M202 591h-53v109h53v-109zM63 591h-53v109h53v-109z" glyph-name="dieresis" horiz-adv-x="212" unicode="¨"/><glyph d="M22 325q0 155 110 265t265 110t265 -110t110 -265t-110 -265t-265 -110t-265 110t-110 265zM75 325q0 -133 94.5 -227.5t227.5 -94.5t227.5 94.5t94.5 227.5t-94.5 227.5t-227.5 94.5t-227.5 -94.5t-94.5 -227.5zM202 326q-1 102 56.5 157t143.5 54q63 -1 112.5 -32.5 t72.5 -92.5l-47 -21q-30 91 -138 93q-147 2 -147 -158q0 -79 41.5 -118.5t105.5 -39.5q41 0 80.5 24t54.5 65l50 -17q-23 -61 -72.5 -92.5t-112.5 -32.5q-86 -1 -142.5 54t-57.5 157z" glyph-name="copyright" horiz-adv-x="794" unicode="©"/><glyph d="M278 456q-48 -59 -137 -59q-52 0 -88.5 25.5t-36.5 71.5q0 41 27.5 62.5t66 25.5t77.5 4t65.5 5t25.5 22q-3 47 -29 67.5t-79 20.5q-46 0 -73 -18t-34 -62l-34 11q8 55 48 80t93 24q62 0 102.5 -31t40.5 -100v-149q0 -12 4 -16.5t14 -4.5h14v-37h-22q-21 0 -33 13t-12 34 v11zM51 494q0 -31 28 -47t68 -16q51 0 91 23.5t40 62.5v51q-23 -11 -65.5 -13.5t-76 -1.5t-59.5 -13t-26 -46z" glyph-name="ordfeminine" horiz-adv-x="357" unicode="ª"/><glyph d="M426 88l-220 144v89l220 144v-63l-191 -125l191 -129v-60zM15 232v89l220 144v-63l-191 -125l191 -129v-60z" glyph-name="guillemotleft" horiz-adv-x="441" unicode="«"/><glyph d="M25 380h425v-270h-53v217h-372v53z" glyph-name="logicalnot" horiz-adv-x="480" unicode="¬"/><glyph d="M22 585q0 65 46 110.5t110 45.5t110 -45.5t46 -110.5t-46 -110.5t-110 -45.5t-110 45.5t-46 110.5zM49 585q0 -53 38 -91t91 -38t91 38t38 91t-38 91t-91 38t-91 -38t-38 -91zM144 500h-24v170h62q29 0 45.5 -14.5t16.5 -41.5q0 -8 -0.5 -13.5t-3 -9.5t-3.5 -6t-5 -6 l-5 -5h6q13 0 13 -14v-60h-24v48q0 9 -10 9h-68v-57zM144 580h38q38 0 38 34q0 36 -38 36h-38v-70z" glyph-name="registered" horiz-adv-x="356" unicode="®"/><glyph d="M20 587v53h275v-53h-275z" glyph-name="macron" horiz-adv-x="315" unicode="¯"/><glyph d="M22 589q0 65 46 110.5t110 45.5t110 -45.5t46 -110.5t-46 -110.5t-110 -45.5t-110 45.5t-46 110.5zM74 589q0 -43 30.5 -73.5t73.5 -30.5t73.5 30.5t30.5 73.5t-30 73.5t-74 30.5q-43 0 -73.5 -30.5t-30.5 -73.5z" glyph-name="degree" horiz-adv-x="356" unicode="°"/><glyph d="M30 327v53h209v163h53v-163h201v-53h-201v-167h-53v167h-209zM30 40v53h463v-53h-463z" glyph-name="plusminus" horiz-adv-x="523" unicode="±"/><glyph d="M259 400h-237v10q0 49 21.5 85t52 54.5t61 33.5t52 33t21.5 41q0 43 -23 61t-66 18q-84 0 -88 -71l-26 6q4 45 34.5 68.5t79.5 23.5q53 0 84.5 -27t31.5 -79q0 -30 -17.5 -51t-44.5 -34t-55 -27t-53 -39t-34 -60q-5 -19 -19 -31l1 -1q15 13 34 13h190v-27z" glyph-name="uni00B2" horiz-adv-x="281" unicode="²"/><glyph d="M137 404q-47 0 -79 22.5t-36 65.5l26 4q0 -31 27.5 -48.5t61.5 -17.5q37 0 63 19.5t26 55.5q0 65 -89 66h-17v26h17q77 0 77 63q0 33 -22 49.5t-55 16.5q-28 0 -51.5 -17.5t-25.5 -44.5l-25 6q3 39 31 60.5t71 21.5q46 -1 74.5 -24.5t28.5 -67.5q0 -31 -15 -52.5 t-44 -24.5v-1q22 2 35 -6q36 -21 36 -71q0 -49 -32 -75t-83 -26z" glyph-name="uni00B3" horiz-adv-x="274" unicode="³"/><glyph d="M65 555h-45l58 142h64z" glyph-name="acute" horiz-adv-x="190" unicode="´"/><glyph d="M240 287q-87 0 -148.5 61.5t-61.5 148.5q0 86 61.5 147.5t148.5 61.5h53v-794h-53v375zM455 -88h-53v794h53v-794z" glyph-name="paragraph" horiz-adv-x="485" unicode="¶"/><glyph d="M90 357h-70v65h70v-65z" glyph-name="periodcentered" horiz-adv-x="110" unicode="·"/><glyph d="M20 -201l38 34q32 -43 79 -43q29 0 50.5 16.5t21.5 40.5q0 49 -150 49l62 118h58l-37 -75q48 0 84 -22.5t36 -69.5q0 -52 -34.5 -80t-84.5 -28q-37 0 -70.5 16t-52.5 44z" glyph-name="cedilla" horiz-adv-x="282" unicode="¸"/><glyph d="M22 654v25q73 0 73 59h26v-334h-26v259q0 14 6 36q-1 -1 -3.5 -10t-5.5 -14t-7 -8q-18 -13 -63 -13z" glyph-name="uni00B9" horiz-adv-x="143" unicode="¹"/><glyph d="M190 379q-74 0 -121 46t-47 133q0 88 47 134t121 45q73 -1 120 -46.5t47 -132.5t-47 -133t-120 -46zM190 711q-57 0 -99 -41.5t-42 -111.5q0 -69 42 -110.5t99 -41.5q59 0 99.5 41t40.5 111q0 69 -41.5 110.5t-98.5 42.5z" glyph-name="ordmasculine" horiz-adv-x="379" unicode="º"/><glyph d="M15 88v60l191 129l-191 125v63l220 -144v-89zM206 88v60l191 129l-191 125v63l220 -144v-89z" glyph-name="guillemotright" horiz-adv-x="470" unicode="»"/><glyph d="M547 158l154 255h64v-255h81l7 -31h-66q-20 0 -38 16l-1 -1q17 -15 17 -37v-106h-32v128h-186v31zM200 0l349 700h52l-349 -700h-52zM584 158h149v248zM114 606q-24 -17 -84 -17v34q98 0 98 77h33v-444h-33v345q0 25 8 47l-1 1q-13 -36 -21 -43z" glyph-name="onequarter" horiz-adv-x="885" unicode="¼"/><glyph d="M170 0h-52l349 700h52zM688 -4h-269v12q0 56 24.5 96.5t59 62t69 38.5t59 37t24.5 47q0 90 -100 90q-97 0 -100 -81l-31 6q6 52 41 79t90 27q60 0 95.5 -31t35.5 -90q0 -35 -20 -58.5t-50.5 -38.5t-62.5 -30.5t-60 -44t-39 -68.5q-5 -22 -22 -36l1 -1q17 15 39 15h216 v-31zM106 615q-21 -15 -76 -15v30q88 0 88 70h31v-401h-31v312q0 18 8 42l-2 1q-10 -33 -18 -39z" glyph-name="onehalf" horiz-adv-x="718" unicode="½"/><glyph d="M464 114v29l140 231h58v-231h74l6 -29h-60q-21 0 -34 15l-1 -1q15 -15 15 -34v-96h-29v116h-169zM273 0h-52l348 700h52zM168 286q-56 0 -94 27.5t-44 78.5l31 5q1 -38 33.5 -58.5t73.5 -20.5q46 0 77 23t31 67q0 78 -108 79h-19l-1 31h20q93 0 93 77q0 40 -26.5 59.5 t-66.5 19.5q-33 0 -61.5 -21t-31.5 -53l-30 6q4 48 37.5 74t85.5 25q56 -1 90 -29t34 -81q0 -37 -18 -63.5t-53 -29.5v-1q28 2 42 -7q44 -25 44 -86q0 -59 -39 -90.5t-100 -31.5zM498 143h135v224z" glyph-name="threequarters" horiz-adv-x="772" unicode="¾"/><glyph d="M208 -192q-90 0 -141.5 51.5t-51.5 154.5q0 41 19.5 72t47 53t55 45.5t47 60.5t19.5 86v17h53v-17q0 -57 -20 -100.5t-48 -68t-56 -45.5t-48 -46.5t-20 -56.5q0 -73 36.5 -113t107.5 -40q74 0 109 43.5t37 109.5h53q0 -95 -55 -150.5t-144 -55.5zM194 437v65h70v-65h-70z " glyph-name="questiondown" horiz-adv-x="422" unicode="¿"/><glyph d="M65 0l264 700h96l264 -700h-58l-71 191h-367l-71 -191h-57zM370 661l-156 -415h214q63 -1 85 -10q29 -13 47 -45l-176 470h-14zM357 758l-77 142h73l58 -142h-54z" glyph-name="Agrave" horiz-adv-x="710" unicode="À"/><glyph d="M65 0l264 700h96l264 -700h-58l-71 191h-367l-71 -191h-57zM214 246h214q63 -1 85 -10q29 -13 47 -45l-176 470h-14zM335 758l58 142h61l-77 -142h-42z" glyph-name="Aacute" horiz-adv-x="710" unicode="Á"/><glyph d="M65 0l264 700h96l264 -700h-58l-71 191h-367l-71 -191h-57zM370 661l-156 -415h214q63 -1 85 -10q29 -13 47 -45l-176 470h-14zM205 781l127 119h81l127 -119h-79l-88 84l-89 -84h-79z" glyph-name="Acircumflex" horiz-adv-x="710" unicode="Â"/><glyph d="M65 0l264 700h96l264 -700h-58l-71 191h-367l-71 -191h-57zM214 246h214q63 -1 85 -10q29 -13 47 -45l-176 470h-14zM181 791q37 75 125 75q38 0 77.5 -28.5t56.5 -29.5q49 -3 71 58l47 -23q-11 -34 -42 -61.5t-80 -24.5q-34 2 -66.5 29t-55.5 28q-30 1 -54.5 -15 t-35.5 -40z" glyph-name="Atilde" horiz-adv-x="710" unicode="Ã"/><glyph d="M65 0l264 700h96l264 -700h-58l-71 191h-367l-71 -191h-57zM370 661l-156 -415h214q63 -1 85 -10q29 -13 47 -45l-176 470h-14zM471 840h-53v60h53v-60zM332 840h-53v60h53v-60z" glyph-name="Adieresis" horiz-adv-x="710" unicode="Ä"/><glyph d="M65 0l264 700h96l264 -700h-58l-71 191h-367l-71 -191h-57zM214 246h214q63 -1 85 -10q29 -13 47 -45l-176 470h-14zM373 744q-38 0 -64.5 26.5t-26.5 64.5t26.5 64t64.5 26q37 0 63.5 -26.5t26.5 -63.5q0 -38 -26 -64.5t-64 -26.5zM314 835q0 -24 17 -41.5t42 -17.5 q23 0 40.5 17.5t17.5 41.5q0 23 -17.5 40.5t-40.5 17.5q-25 0 -42 -17.5t-17 -40.5z" glyph-name="Aring" horiz-adv-x="710" unicode="Å"/><glyph d="M79 0h-57l264 700h591v-53h-383v-252h328v-53h-328v-289h383v-53h-436v222h-279zM182 275h259v372h-119z" glyph-name="AE" horiz-adv-x="907" unicode="Æ"/><glyph d="M346 707q119 -2 203.5 -64t111.5 -182l-50 -19q-22 99 -90.5 154.5t-174.5 56.5q-126 1 -198.5 -79t-72.5 -224t72.5 -224t198.5 -79q106 1 174.5 56.5t90.5 154.5l50 -19q-25 -110 -99 -172t-181 -72l-26 -56q48 0 83 -22.5t35 -69.5q0 -52 -34.5 -80t-84.5 -28 q-37 0 -70.5 16t-52.5 44l36 37q13 -21 39 -34t52 -13q27 0 44.5 14.5t17.5 43.5q1 49 -130 49l36 97q-137 5 -220.5 96.5t-83.5 260.5q0 176 90 267.5t234 89.5z" glyph-name="Ccedilla" horiz-adv-x="683" unicode="Ç"/><glyph d="M30 0v700h457v-53h-404v-282h404v-53h-404v-259h404v-53h-457zM240 758l-77 142h73l58 -142h-54z" glyph-name="Egrave" unicode="È"/><glyph d="M30 0v700h457v-53h-404v-282h404v-53h-404v-259h404v-53h-457zM218 758l58 142h61l-77 -142h-42z" glyph-name="Eacute" unicode="É"/><glyph d="M30 0v700h457v-53h-404v-282h404v-53h-404v-259h404v-53h-457zM167 781h-79l127 119h81l127 -119h-79l-88 84z" glyph-name="Ecircumflex" unicode="Ê"/><glyph d="M30 0v700h457v-53h-404v-282h404v-53h-404v-259h404v-53h-457zM301 840v60h53v-60h-53zM215 840h-53v60h53v-60z" glyph-name="Edieresis" unicode="Ë"/><glyph d="M30 0v700h53v-700h-53zM58 900l58 -142h-54l-77 142h73z" glyph-name="Igrave" horiz-adv-x="113" unicode="Ì"/><glyph d="M30 0v700h53v-700h-53zM82 758h-42l58 142h61z" glyph-name="Iacute" horiz-adv-x="113" unicode="Í"/><glyph d="M30 700h53v-700h-53v700zM-11 781h-79l127 119h81l127 -119h-79l-88 84z" glyph-name="Icircumflex" horiz-adv-x="113" unicode="Î"/><glyph d="M30 700h53v-700h-53v700zM37 840h-53v60h53v-60zM123 840v60h53v-60h-53z" glyph-name="Idieresis" horiz-adv-x="113" unicode="Ï"/><glyph d="M-20 377h50v323h237q100 0 179 -37t128 -117.5t49 -195.5t-49 -195.5t-128 -117.5t-179 -37h-237v324h-50v53zM83 377h215v-53h-215v-271h184q60 0 111.5 15.5t96 49t70 93t25.5 139.5q0 78 -25 137.5t-68.5 93t-96 50t-113.5 16.5h-233q49 0 49 -29v-241z" glyph-name="Eth" horiz-adv-x="645" unicode="Ð"/><glyph d="M83 0h-53v700h53l421 -581q26 -38 39 -80h2q-15 49 -15 88v573h53v-700h-53l-420 573q-25 33 -40 79h-2q15 -49 15 -88v-564zM120 791q38 75 125 75q38 0 77.5 -28.5t56.5 -29.5q49 -3 71 58l47 -23q-11 -34 -41.5 -61.5t-79.5 -24.5q-34 2 -66.5 29t-55.5 28 q-31 1 -55.5 -15t-35.5 -40z" glyph-name="Ntilde" horiz-adv-x="613" unicode="Ñ"/><glyph d="M356 -7q-146 0 -240 91.5t-94 265.5q0 175 94 267t240 90q147 -2 240.5 -93t93.5 -264q0 -174 -94 -265.5t-240 -91.5zM75 350q0 -138 83.5 -221t197.5 -83q118 0 199.5 82t81.5 222q0 139 -83.5 220.5t-197.5 83.5q-113 2 -197 -82t-84 -222zM263 900h73l58 -142h-54z " glyph-name="Ograve" horiz-adv-x="712" unicode="Ò"/><glyph d="M356 -7q-146 0 -240 91.5t-94 265.5q0 175 94 267t240 90q147 -2 240.5 -93t93.5 -264q0 -174 -94 -265.5t-240 -91.5zM356 654q-113 2 -197 -82t-84 -222t83.5 -221t197.5 -83q118 0 199.5 82t81.5 222q0 139 -83.5 220.5t-197.5 83.5zM318 758l58 142h61l-77 -142h-42z " glyph-name="Oacute" horiz-adv-x="712" unicode="Ó"/><glyph d="M356 -7q-146 0 -240 91.5t-94 265.5q0 175 94 267t240 90q147 -2 240.5 -93t93.5 -264q0 -174 -94 -265.5t-240 -91.5zM356 654q-113 2 -197 -82t-84 -222t83.5 -221t197.5 -83q118 0 199.5 82t81.5 222q0 139 -83.5 220.5t-197.5 83.5zM267 781h-79l127 119h81l127 -119 h-79l-88 84z" glyph-name="Ocircumflex" horiz-adv-x="712" unicode="Ô"/><glyph d="M356 -7q-146 0 -240 91.5t-94 265.5q0 175 94 267t240 90q147 -2 240.5 -93t93.5 -264q0 -174 -94 -265.5t-240 -91.5zM75 350q0 -138 83.5 -221t197.5 -83q118 0 199.5 82t81.5 222q0 139 -83.5 220.5t-197.5 83.5q-113 2 -197 -82t-84 -222zM164 791q38 75 125 75 q38 0 77.5 -28.5t56.5 -29.5q49 -3 71 58l47 -23q-11 -34 -41.5 -61.5t-79.5 -24.5q-34 2 -66.5 29t-55.5 28q-31 1 -55.5 -15t-35.5 -40z" glyph-name="Otilde" horiz-adv-x="712" unicode="Õ"/><glyph d="M356 -7q-146 0 -240 91.5t-94 265.5q0 175 94 267t240 90q147 -2 240.5 -93t93.5 -264q0 -174 -94 -265.5t-240 -91.5zM356 654q-113 2 -197 -82t-84 -222t83.5 -221t197.5 -83q118 0 199.5 82t81.5 222q0 139 -83.5 220.5t-197.5 83.5zM454 840h-53v60h53v-60zM262 840 v60h53v-60h-53z" glyph-name="Odieresis" horiz-adv-x="712" unicode="Ö"/><glyph d="M-6 309l196 1v206h53v-206l214 -1v-53l-214 1v-204h-53v204l-196 -1v53z" glyph-name="multiply" horiz-adv-x="451" unicode="×"/><glyph d="M174 39q-71 42 -111.5 120.5t-40.5 190.5q0 175 94 267t240 90q78 -2 138 -26l31 61h59l-43 -84q149 -91 149 -308q0 -174 -94 -265.5t-240 -91.5q-71 0 -134 23l-34 -69h-59zM356 654q-113 2 -197 -82t-84 -222q0 -86 34 -152t92 -105l268 537q-58 24 -113 24zM248 68 q50 -22 108 -22q118 0 199.5 82t81.5 222q0 168 -122 254z" glyph-name="Oslash" horiz-adv-x="712" unicode="Ø"/><glyph d="M30 293v407h53v-408q0 -115 61 -181t168 -66t168 66.5t61 180.5v408h53v-407q0 -146 -79.5 -223.5t-202.5 -77.5t-202.5 77.5t-79.5 223.5zM219 900h73l58 -142h-54z" glyph-name="Ugrave" horiz-adv-x="624" unicode="Ù"/><glyph d="M30 700h53v-408q0 -115 61 -181t168 -66t168 66.5t61 180.5v408h53v-407q0 -146 -79.5 -223.5t-202.5 -77.5t-202.5 77.5t-79.5 223.5v407zM274 758l58 142h61l-77 -142h-42z" glyph-name="Uacute" horiz-adv-x="624" unicode="Ú"/><glyph d="M30 293v407h53v-408q0 -115 61 -181t168 -66t168 66.5t61 180.5v408h53v-407q0 -146 -79.5 -223.5t-202.5 -77.5t-202.5 77.5t-79.5 223.5zM223 781h-79l127 119h81l127 -119h-79l-88 84z" glyph-name="Ucircumflex" horiz-adv-x="624" unicode="Û"/><glyph d="M30 293v407h53v-408q0 -115 61 -181t168 -66t168 66.5t61 180.5v408h53v-407q0 -146 -79.5 -223.5t-202.5 -77.5t-202.5 77.5t-79.5 223.5zM357 840v60h53v-60h-53zM218 900h53v-60h-53v60z" glyph-name="Udieresis" horiz-adv-x="624" unicode="Ü"/><glyph d="M15 699h67l203 -270q22 -28 22 -68h2q0 40 22 68l203 270h67l-266 -354v-345h-53v345zM313 758h-42l58 142h61z" glyph-name="Yacute" horiz-adv-x="616" unicode="Ý"/><glyph d="M83 0h-53v700h53v-110h188q122 0 190.5 -60t68.5 -172q0 -111 -69 -171.5t-190 -60.5h-188v-126zM271 537h-188v-358h188q61 0 103.5 16t63.5 43.5t30 56.5t9 63q0 38 -8.5 67.5t-30 56t-64 41t-103.5 14.5z" glyph-name="Thorn" horiz-adv-x="552" unicode="Þ"/><glyph d="M30 0v527q0 79 58.5 127.5t140.5 48.5q107 0 163 -40.5t56 -135.5q0 -97 -117 -139q144 -27 144 -176q0 -212 -259 -212v52q97 -5 151.5 40.5t54.5 119.5q0 69 -47 107.5t-159 39.5v60q70 0 124.5 28t54.5 80q0 71 -40 97t-126 26q-63 0 -104.5 -34t-41.5 -89v-527h-53z " glyph-name="germandbls" horiz-adv-x="497" unicode="ß"/><glyph d="M412 119q-22 -58 -78 -88.5t-123 -30.5q-77 0 -133 38t-56 104q0 52 29 83t73 40t95 13t94.5 3t71.5 8t27 30q-4 71 -42 101t-118 30q-68 0 -108.5 -26.5t-51.5 -92.5l-50 17q12 81 71 118.5t139 36.5q43 0 79 -10t67 -31.5t49 -61t18 -93.5v-221q0 -19 6 -25.5t21 -6.5 h20v-54h-32q-32 0 -50 19t-18 50v50zM75 142q0 -45 41 -69.5t101 -24.5q75 0 135 35t60 94v76q-28 -14 -75 -18t-90 -4t-83.5 -4t-64.5 -24.5t-24 -60.5zM161 700h73l58 -142h-54z" glyph-name="agrave" horiz-adv-x="534" unicode="à"/><glyph d="M412 119q-22 -58 -78 -88.5t-123 -30.5q-77 0 -133 38t-56 104q0 52 29 83t73 40t95 13t94.5 3t71.5 8t27 30q-4 71 -42 101t-118 30q-68 0 -108.5 -26.5t-51.5 -92.5l-50 17q12 81 71 118.5t139 36.5q43 0 79 -10t67 -31.5t49 -61t18 -93.5v-221q0 -19 6 -25.5t21 -6.5 h20v-54h-32q-32 0 -50 19t-18 50v50zM412 253q-28 -14 -75 -18t-90 -4t-83.5 -4t-64.5 -24.5t-24 -60.5q0 -45 41 -69.5t101 -24.5q75 0 135 35t60 94v76zM216 558l58 142h61l-77 -142h-42z" glyph-name="aacute" horiz-adv-x="534" unicode="á"/><glyph d="M412 119q-22 -58 -78 -88.5t-123 -30.5q-77 0 -133 38t-56 104q0 52 29 83t73 40t95 13t94.5 3t71.5 8t27 30q-4 71 -42 101t-118 30q-68 0 -108.5 -26.5t-51.5 -92.5l-50 17q12 81 71 118.5t139 36.5q43 0 79 -10t67 -31.5t49 -61t18 -93.5v-221q0 -19 6 -25.5t21 -6.5 h20v-54h-32q-32 0 -50 19t-18 50v50zM412 253q-28 -14 -75 -18t-90 -4t-83.5 -4t-64.5 -24.5t-24 -60.5q0 -45 41 -69.5t101 -24.5q75 0 135 35t60 94v76zM165 581h-79l127 119h81l127 -119h-79l-88 84z" glyph-name="acircumflex" horiz-adv-x="534" unicode="â"/><glyph d="M412 119q-22 -58 -78 -88.5t-123 -30.5q-77 0 -133 38t-56 104q0 52 29 83t73 40t95 13t94.5 3t71.5 8t27 30q-4 71 -42 101t-118 30q-68 0 -108.5 -26.5t-51.5 -92.5l-50 17q12 81 71 118.5t139 36.5q43 0 79 -10t67 -31.5t49 -61t18 -93.5v-221q0 -19 6 -25.5t21 -6.5 h20v-54h-32q-32 0 -50 19t-18 50v50zM412 253q-28 -14 -75 -18t-90 -4t-83.5 -4t-64.5 -24.5t-24 -60.5q0 -45 41 -69.5t101 -24.5q75 0 135 35t60 94v76zM62 591q38 75 125 75q38 0 77.5 -28.5t56.5 -29.5q49 -3 71 58l47 -23q-11 -34 -41.5 -61.5t-79.5 -24.5 q-34 2 -66.5 29t-55.5 28q-31 1 -55.5 -15t-35.5 -40z" glyph-name="atilde" horiz-adv-x="534" unicode="ã"/><glyph d="M412 119q-22 -58 -78 -88.5t-123 -30.5q-77 0 -133 38t-56 104q0 52 29 83t73 40t95 13t94.5 3t71.5 8t27 30q-4 71 -42 101t-118 30q-68 0 -108.5 -26.5t-51.5 -92.5l-50 17q12 81 71 118.5t139 36.5q43 0 79 -10t67 -31.5t49 -61t18 -93.5v-221q0 -19 6 -25.5t21 -6.5 h20v-54h-32q-32 0 -50 19t-18 50v50zM412 253q-28 -14 -75 -18t-90 -4t-83.5 -4t-64.5 -24.5t-24 -60.5q0 -45 41 -69.5t101 -24.5q75 0 135 35t60 94v76zM299 700h53v-60h-53v60zM160 640v60h53v-60h-53z" glyph-name="adieresis" horiz-adv-x="534" unicode="ä"/><glyph d="M412 119q-22 -58 -78 -88.5t-123 -30.5q-77 0 -133 38t-56 104q0 52 29 83t73 40t95 13t94.5 3t71.5 8t27 30q-4 71 -42 101t-118 30q-68 0 -108.5 -26.5t-51.5 -92.5l-50 17q12 81 71 118.5t139 36.5q43 0 79 -10t67 -31.5t49 -61t18 -93.5v-221q0 -19 6 -25.5t21 -6.5 h20v-54h-32q-32 0 -50 19t-18 50v50zM412 253q-28 -14 -75 -18t-90 -4t-83.5 -4t-64.5 -24.5t-24 -60.5q0 -45 41 -69.5t101 -24.5q75 0 135 35t60 94v76zM254 544q-38 0 -64.5 26.5t-26.5 64.5t26.5 64t64.5 26t64 -26.5t26 -63.5q0 -38 -26 -64.5t-64 -26.5zM254 693 q-24 0 -41.5 -17.5t-17.5 -40.5q0 -24 17.5 -41.5t41.5 -17.5q23 0 40.5 17.5t17.5 41.5q0 23 -17.5 40.5t-40.5 17.5z" glyph-name="aring" horiz-adv-x="534" unicode="å"/><glyph d="M22 142q0 54 25.5 87.5t63.5 44.5t82 16t82 4.5t63.5 9t25.5 31.5q0 45 -31 76t-81 39q-29 5 -60.5 -1.5t-62 -35t-37.5 -76.5l-50 11q12 82 70 119t140 36q58 -1 104 -36.5t61 -93.5q16 56 74.5 95t130.5 38q103 -1 164.5 -66t61.5 -190q0 -6 -3 -26h-404 q-3 -83 49.5 -127.5t114.5 -43.5q50 1 106.5 30.5t75.5 75.5l49 -20q-29 -70 -91 -107t-140 -38t-134.5 40.5t-74.5 119.5q-16 -75 -74.5 -115.5t-129.5 -40.5q-70 0 -120 38.5t-50 105.5zM75 142q0 -40 33.5 -64t81.5 -24q68 0 120 50t52 146v9q-20 -12 -71.5 -18t-97 -9.5 t-82 -25.5t-36.5 -64zM622 453q-75 0 -127.5 -64t-53.5 -165q11 20 21.5 31t25.5 15.5t25 5.5t35 1q101 2 245 0q-7 88 -47 132t-124 44z" glyph-name="ae" horiz-adv-x="870" unicode="æ"/><glyph d="M22 250q0 124 69.5 190.5t173.5 65.5q78 -1 137.5 -39.5t87.5 -112.5l-48 -20q-41 117 -177 119q-77 1 -133.5 -53.5t-56.5 -149.5q0 -99 54.5 -151.5t135.5 -51.5q134 2 175 118l50 -19q-25 -65 -74 -103t-114 -46l-27 -58q48 0 83 -22.5t35 -69.5q0 -52 -34.5 -80 t-84.5 -28q-37 0 -70.5 16t-52.5 44l36 37q13 -21 39 -34t52 -13q27 0 44.5 14.5t17.5 43.5q1 49 -130 49l36 98q-98 6 -161 72t-63 184z" glyph-name="ccedilla" unicode="ç"/><glyph d="M265 -6q-104 -1 -173.5 65.5t-69.5 190.5t69.5 190.5t173.5 65.5q105 -1 174 -66.5t69 -189.5q0 -9 -3 -28h-425q25 -177 185 -175q62 1 111 29.5t73 86.5l47 -17q-29 -71 -92 -111t-139 -41zM265 453q-81 2 -137 -62.5t-48 -168.5q5 20 11 31.5t19 16t22 5t35 0.5h283 q-29 176 -185 178zM250 558l-77 142h73l58 -142h-54z" glyph-name="egrave" horiz-adv-x="530" unicode="è"/><glyph d="M265 -6q-104 -1 -173.5 65.5t-69.5 190.5t69.5 190.5t173.5 65.5q105 -1 174 -66.5t69 -189.5q0 -9 -3 -28h-425q25 -177 185 -175q62 1 111 29.5t73 86.5l47 -17q-29 -71 -92 -111t-139 -41zM265 453q-81 2 -137 -62.5t-48 -168.5q5 20 11 31.5t19 16t22 5t35 0.5h283 q-29 176 -185 178zM228 558l58 142h61l-77 -142h-42z" glyph-name="eacute" horiz-adv-x="530" unicode="é"/><glyph d="M265 -6q-104 -1 -173.5 65.5t-69.5 190.5t69.5 190.5t173.5 65.5q105 -1 174 -66.5t69 -189.5q0 -9 -3 -28h-425q25 -177 185 -175q62 1 111 29.5t73 86.5l47 -17q-29 -71 -92 -111t-139 -41zM265 453q-81 2 -137 -62.5t-48 -168.5q5 20 11 31.5t19 16t22 5t35 0.5h283 q-29 176 -185 178zM98 581l127 119h81l127 -119h-79l-88 84l-89 -84h-79z" glyph-name="ecircumflex" horiz-adv-x="530" unicode="ê"/><glyph d="M265 -6q-104 -1 -173.5 65.5t-69.5 190.5t69.5 190.5t173.5 65.5q105 -1 174 -66.5t69 -189.5q0 -9 -3 -28h-425q25 -177 185 -175q62 1 111 29.5t73 86.5l47 -17q-29 -71 -92 -111t-139 -41zM265 453q-81 2 -137 -62.5t-48 -168.5q5 20 11 31.5t19 16t22 5t35 0.5h283 q-29 176 -185 178zM364 640h-53v60h53v-60zM225 640h-53v60h53v-60z" glyph-name="edieresis" horiz-adv-x="530" unicode="ë"/><glyph d="M30 0v500h53v-500h-53zM37 700l58 -142h-54l-77 142h73z" glyph-name="igrave" horiz-adv-x="113" unicode="ì"/><glyph d="M30 0v500h53v-500h-53zM61 558h-42l58 142h61z" glyph-name="iacute" horiz-adv-x="113" unicode="í"/><glyph d="M30 500h53v-500h-53v500zM-32 581h-79l127 119h81l127 -119h-79l-88 84z" glyph-name="icircumflex" horiz-adv-x="113" unicode="î"/><glyph d="M83 0h-53v500h53v-500zM102 640v60h53v-60h-53zM-37 700h53v-60h-53v60z" glyph-name="idieresis" horiz-adv-x="113" unicode="ï"/><glyph d="M258 -4q-101 0 -168.5 56t-67.5 170q0 105 68 163.5t160 58.5q62 0 114 -28t78 -81q-3 76 -53 205l-135 -32l-19 50l129 31q-11 20 -23 32.5t-28 19t-25.5 8.5t-30.5 5q-31 5 -62 -2t-46 -18l-38 37q54 34 122 34q67 0 112 -23.5t78 -77.5l37 8l17 -51l-35 -7 q53 -134 53 -241q0 -158 -63.5 -237.5t-173.5 -79.5zM75 222q0 -88 51.5 -130.5t131.5 -42.5q59 0 113.5 50.5t54.5 122.5t-55 121t-113 48q-80 -1 -131.5 -42t-51.5 -127z" glyph-name="eth" horiz-adv-x="517" unicode="ð"/><glyph d="M83 0h-53v500h53v-87q0 -31 -9 -67h2q11 45 23 63q59 99 170 99q40 0 69 -21.5t43.5 -57t21 -72t6.5 -75.5v-282h-53v282q0 172 -100 172q-16 0 -35 -5.5t-44.5 -23t-45.5 -45t-34 -78t-14 -115.5v-187zM50 591q38 75 125 75q38 0 77.5 -28.5t56.5 -29.5q49 -3 71 58 l47 -23q-11 -34 -41.5 -61.5t-79.5 -24.5q-34 2 -66.5 29t-55.5 28q-31 1 -55.5 -15t-35.5 -40z" glyph-name="ntilde" horiz-adv-x="439" unicode="ñ"/><glyph d="M268 -6q-105 0 -175.5 66t-70.5 190t70.5 190.5t175.5 65.5q106 -1 176 -67t70 -189q0 -124 -70.5 -190t-175.5 -66zM75 250q0 -101 54 -152t139 -51q83 0 138 52t55 151q0 98 -55 150t-138 53q-80 1 -136.5 -52.5t-56.5 -150.5zM175 700h73l58 -142h-54z" glyph-name="ograve" horiz-adv-x="536" unicode="ò"/><glyph d="M268 -6q-105 0 -175.5 66t-70.5 190t70.5 190.5t175.5 65.5q106 -1 176 -67t70 -189q0 -124 -70.5 -190t-175.5 -66zM268 453q-80 1 -136.5 -52.5t-56.5 -150.5q0 -101 54 -152t139 -51q83 0 138 52t55 151q0 98 -55 150t-138 53zM230 558l58 142h61l-77 -142h-42z" glyph-name="oacute" horiz-adv-x="536" unicode="ó"/><glyph d="M268 -6q-105 0 -175.5 66t-70.5 190t70.5 190.5t175.5 65.5q106 -1 176 -67t70 -189q0 -124 -70.5 -190t-175.5 -66zM268 453q-80 1 -136.5 -52.5t-56.5 -150.5q0 -101 54 -152t139 -51q83 0 138 52t55 151q0 98 -55 150t-138 53zM179 581h-79l127 119h81l127 -119h-79 l-88 84z" glyph-name="ocircumflex" horiz-adv-x="536" unicode="ô"/><glyph d="M268 -6q-105 0 -175.5 66t-70.5 190t70.5 190.5t175.5 65.5q106 -1 176 -67t70 -189q0 -124 -70.5 -190t-175.5 -66zM75 250q0 -101 54 -152t139 -51q83 0 138 52t55 151q0 98 -55 150t-138 53q-80 1 -136.5 -52.5t-56.5 -150.5zM76 591q38 75 125 75q38 0 77.5 -28.5 t56.5 -29.5q49 -3 71 58l47 -23q-11 -34 -41.5 -61.5t-79.5 -24.5q-34 2 -66.5 29t-55.5 28q-31 1 -55.5 -15t-35.5 -40z" glyph-name="otilde" horiz-adv-x="536" unicode="õ"/><glyph d="M268 -6q-105 0 -175.5 66t-70.5 190t70.5 190.5t175.5 65.5q106 -1 176 -67t70 -189q0 -124 -70.5 -190t-175.5 -66zM268 453q-80 1 -136.5 -52.5t-56.5 -150.5q0 -101 54 -152t139 -51q83 0 138 52t55 151q0 98 -55 150t-138 53zM366 640h-53v60h53v-60zM174 640v60h53 v-60h-53z" glyph-name="odieresis" horiz-adv-x="536" unicode="ö"/><glyph d="M30 329h463v-63h-463v63zM227 447v65h70v-65h-70zM227 150h70v-65h-70v65z" glyph-name="divide" horiz-adv-x="523" unicode="÷"/><glyph d="M103 50q-81 71 -81 200q0 124 70.5 190.5t175.5 65.5q73 0 130 -33l39 55h59l-58 -83q76 -69 76 -195q0 -124 -70.5 -190t-175.5 -66q-69 0 -125 29l-43 -62h-59zM133 94l234 334q-45 25 -99 25q-80 1 -136.5 -52.5t-56.5 -150.5q0 -103 58 -156zM173 67q40 -20 95 -20 q83 0 138 52t55 151q0 95 -55 150z" glyph-name="oslash" horiz-adv-x="536" unicode="ø"/><glyph d="M30 500h53v-282q0 -89 29.5 -130.5t96.5 -41.5q12 0 27.5 5.5t36.5 23t37.5 45t28.5 78t12 115.5v187h53v-500h-53v77q0 31 9 67h-2q-19 -72 -57 -112t-108 -40q-163 0 -163 226v282zM147 700h73l58 -142h-54z" glyph-name="ugrave" horiz-adv-x="481" unicode="ù"/><glyph d="M193 -8q-163 0 -163 226v282h53v-282q0 -89 29.5 -130.5t96.5 -41.5q12 0 27.5 5.5t36.5 23t37.5 45t28.5 78t12 115.5v187h53v-500h-53v77q0 31 9 67h-2q-19 -72 -57 -112t-108 -40zM244 558h-42l58 142h61z" glyph-name="uacute" horiz-adv-x="481" unicode="ú"/><glyph d="M30 500h53v-282q0 -89 29.5 -130.5t96.5 -41.5q12 0 27.5 5.5t36.5 23t37.5 45t28.5 78t12 115.5v187h53v-500h-53v77q0 31 9 67h-2q-19 -72 -57 -112t-108 -40q-163 0 -163 226v282zM151 581h-79l127 119h81l127 -119h-79l-88 84z" glyph-name="ucircumflex" horiz-adv-x="481" unicode="û"/><glyph d="M193 -8q-163 0 -163 226v282h53v-282q0 -89 29.5 -130.5t96.5 -41.5q12 0 27.5 5.5t36.5 23t37.5 45t28.5 78t12 115.5v187h53v-500h-53v77q0 31 9 67h-2q-19 -72 -57 -112t-108 -40zM285 700h53v-60h-53v60zM146 700h53v-60h-53v60z" glyph-name="udieresis" horiz-adv-x="481" unicode="ü"/><glyph d="M70 500h54l137 -367q12 -33 12 -74h2q0 42 13 74l139 367h55l-214 -571q-25 -76 -72 -110t-94 -34h-27v53h27q24 0 57.5 22t50.5 67l31 102zM210 558l58 142h61l-77 -142h-42z" glyph-name="yacute" horiz-adv-x="497" unicode="ý"/><glyph d="M32 -200l-2 900h55v-248q0 -38 -15 -73l2 -1q19 46 39 64q70 66 195 64q90 -1 154 -71t64 -185q0 -118 -63.5 -187t-154.5 -69q-116 0 -194 65q-24 21 -41 63l-1 -1q15 -39 15 -73v-248h-53zM85 250q0 -96 56 -149t139 -53q84 0 137.5 54t53.5 148q0 97 -55 149.5 t-136 53.5q-83 1 -139 -53t-56 -150z" glyph-name="thorn" horiz-adv-x="546" unicode="þ"/><glyph d="M70 500h54l137 -367q12 -33 12 -74h2q0 42 13 74l139 367h55l-214 -571q-25 -76 -72 -110t-94 -34h-27v53h27q24 0 57.5 22t50.5 67l31 102zM293 700h53v-60h-53v60zM207 640h-53v60h53v-60z" glyph-name="ydieresis" horiz-adv-x="497" unicode="ÿ"/><glyph d="M65 0l264 700h96l264 -700h-58l-71 191h-367l-71 -191h-57zM370 661l-156 -415h214q63 -1 85 -10q29 -13 47 -45l-176 470h-14zM237 840h275v-53h-275v53z" glyph-name="Amacron" horiz-adv-x="710" unicode="Ā"/><glyph d="M412 119q-22 -58 -78 -88.5t-123 -30.5q-77 0 -133 38t-56 104q0 52 29 83t73 40t95 13t94.5 3t71.5 8t27 30q-4 71 -42 101t-118 30q-68 0 -108.5 -26.5t-51.5 -92.5l-50 17q12 81 71 118.5t139 36.5q43 0 79 -10t67 -31.5t49 -61t18 -93.5v-221q0 -19 6 -25.5t21 -6.5 h20v-54h-32q-32 0 -50 19t-18 50v50zM75 142q0 -45 41 -69.5t101 -24.5q75 0 135 35t60 94v76q-28 -14 -75 -18t-90 -4t-83.5 -4t-64.5 -24.5t-24 -60.5zM118 587v53h275v-53h-275z" glyph-name="amacron" horiz-adv-x="534" unicode="ā"/><glyph d="M65 0l264 700h96l264 -700h-58l-71 191h-367l-71 -191h-57zM370 661l-156 -415h214q63 -1 85 -10q29 -13 47 -45l-176 470h-14zM220 899h53q0 -45 26.5 -74t73.5 -29t73.5 29t26.5 74h53q0 -67 -43.5 -111.5t-109.5 -44.5t-109.5 44.5t-43.5 111.5z" glyph-name="Abreve" horiz-adv-x="710" unicode="Ă"/><glyph d="M412 119q-22 -58 -78 -88.5t-123 -30.5q-77 0 -133 38t-56 104q0 52 29 83t73 40t95 13t94.5 3t71.5 8t27 30q-4 71 -42 101t-118 30q-68 0 -108.5 -26.5t-51.5 -92.5l-50 17q12 81 71 118.5t139 36.5q43 0 79 -10t67 -31.5t49 -61t18 -93.5v-221q0 -19 6 -25.5t21 -6.5 h20v-54h-32q-32 0 -50 19t-18 50v50zM412 253q-28 -14 -75 -18t-90 -4t-83.5 -4t-64.5 -24.5t-24 -60.5q0 -45 41 -69.5t101 -24.5q75 0 135 35t60 94v76zM254 543q-66 0 -109.5 44.5t-43.5 111.5h53q0 -45 26.5 -74t73.5 -29t73.5 29t26.5 74h53q0 -67 -43.5 -111.5 t-109.5 -44.5z" glyph-name="abreve" horiz-adv-x="534" unicode="ă"/><glyph d="M65 0l264 700h96l264 -700h-3q-38 -42 -55.5 -88.5t-5 -78.5t55.5 -32q23 0 47 8l33 -39q-27 -22 -78 -22q-28 0 -52 7.5t-42 26.5t-22.5 47t11.5 72.5t55 98.5h-2l-71 191h-367l-71 -191h-57zM214 246h214q63 -1 85 -10q29 -13 47 -45l-176 470h-14z" glyph-name="Aogonek" horiz-adv-x="710" unicode="Ą"/><glyph d="M412 119q-22 -58 -78 -88.5t-123 -30.5q-77 0 -133 38t-56 104q0 52 29 83t73 40t95 13t94.5 3t71.5 8t27 30q-4 71 -42 101t-118 30q-68 0 -108.5 -26.5t-51.5 -92.5l-50 17q12 81 71 118.5t139 36.5q43 0 79 -10t67 -31.5t49 -61t18 -93.5v-221q0 -19 6 -25.5t21 -6.5 h20v-51v-3h-3q-59 -67 -62 -131q-3 -59 49 -65q24 -2 58 8l33 -39q-27 -22 -78 -22q-28 0 -52 7.5t-42 26.5t-22.5 47t11.5 72.5t55 98.5q-47 12 -47 66v50zM75 142q0 -45 41 -69.5t101 -24.5q75 0 135 35t60 94v76q-28 -14 -75 -18t-90 -4t-83.5 -4t-64.5 -24.5t-24 -60.5z " glyph-name="aogonek" horiz-adv-x="534" unicode="ą"/><glyph d="M346 707q119 -2 203.5 -64t111.5 -182l-50 -19q-22 99 -90.5 154.5t-174.5 56.5q-126 1 -198.5 -79t-72.5 -224t72.5 -224t198.5 -79q106 1 174.5 56.5t90.5 154.5l50 -19q-27 -120 -111.5 -182t-203.5 -64q-144 -2 -234 89.5t-90 267.5t90 267.5t234 89.5zM308 758 l58 142h61l-77 -142h-42z" glyph-name="Cacute" horiz-adv-x="683" unicode="Ć"/><glyph d="M22 250q0 124 69.5 190.5t173.5 65.5q78 -1 137.5 -39.5t87.5 -112.5l-48 -20q-41 117 -177 119q-77 1 -133.5 -53.5t-56.5 -149.5q0 -99 54.5 -151.5t135.5 -51.5q134 2 175 118l50 -19q-28 -74 -87.5 -112.5t-137.5 -39.5q-104 -1 -173.5 65.5t-69.5 190.5zM227 558 l58 142h61l-77 -142h-42z" glyph-name="cacute" unicode="ć"/><glyph d="M346 707q119 -2 203.5 -64t111.5 -182l-50 -19q-22 99 -90.5 154.5t-174.5 56.5q-126 1 -198.5 -79t-72.5 -224t72.5 -224t198.5 -79q106 1 174.5 56.5t90.5 154.5l50 -19q-27 -120 -111.5 -182t-203.5 -64q-144 -2 -234 89.5t-90 267.5t90 267.5t234 89.5zM257 781h-79 l127 119h81l127 -119h-79l-88 84z" glyph-name="Ccircumflex" horiz-adv-x="683" unicode="Ĉ"/><glyph d="M22 250q0 124 69.5 190.5t173.5 65.5q78 -1 137.5 -39.5t87.5 -112.5l-48 -20q-41 117 -177 119q-77 1 -133.5 -53.5t-56.5 -149.5q0 -99 54.5 -151.5t135.5 -51.5q134 2 175 118l50 -19q-28 -74 -87.5 -112.5t-137.5 -39.5q-104 -1 -173.5 65.5t-69.5 190.5zM176 581 h-79l127 119h81l127 -119h-79l-88 84z" glyph-name="ccircumflex" unicode="ĉ"/><glyph d="M346 707q119 -2 203.5 -64t111.5 -182l-50 -19q-22 99 -90.5 154.5t-174.5 56.5q-126 1 -198.5 -79t-72.5 -224t72.5 -224t198.5 -79q106 1 174.5 56.5t90.5 154.5l50 -19q-27 -120 -111.5 -182t-203.5 -64q-144 -2 -234 89.5t-90 267.5t90 267.5t234 89.5zM382 835h-70 v65h70v-65z" glyph-name="Cdotaccent" horiz-adv-x="683" unicode="Ċ"/><glyph d="M22 250q0 124 69.5 190.5t173.5 65.5q78 -1 137.5 -39.5t87.5 -112.5l-48 -20q-41 117 -177 119q-77 1 -133.5 -53.5t-56.5 -149.5q0 -99 54.5 -151.5t135.5 -51.5q134 2 175 118l50 -19q-28 -74 -87.5 -112.5t-137.5 -39.5q-104 -1 -173.5 65.5t-69.5 190.5zM231 700h70 v-65h-70v65z" glyph-name="cdotaccent" unicode="ċ"/><glyph d="M346 707q119 -2 203.5 -64t111.5 -182l-50 -19q-22 99 -90.5 154.5t-174.5 56.5q-126 1 -198.5 -79t-72.5 -224t72.5 -224t198.5 -79q106 1 174.5 56.5t90.5 154.5l50 -19q-27 -120 -111.5 -182t-203.5 -64q-144 -2 -234 89.5t-90 267.5t90 267.5t234 89.5zM178 900h79 l89 -85l88 85h79l-127 -119h-81z" glyph-name="Ccaron" horiz-adv-x="683" unicode="Č"/><glyph d="M22 250q0 124 69.5 190.5t173.5 65.5q78 -1 137.5 -39.5t87.5 -112.5l-48 -20q-41 117 -177 119q-77 1 -133.5 -53.5t-56.5 -149.5q0 -99 54.5 -151.5t135.5 -51.5q134 2 175 118l50 -19q-28 -74 -87.5 -112.5t-137.5 -39.5q-104 -1 -173.5 65.5t-69.5 190.5zM97 700h79 l89 -85l88 85h79l-127 -119h-81z" glyph-name="ccaron" unicode="č"/><glyph d="M267 0h-237v700h237q100 0 179 -37t128 -117.5t49 -195.5t-49 -195.5t-128 -117.5t-179 -37zM267 647h-233q49 0 49 -29v-565h184q60 0 111.5 15.5t96 49t70 93t25.5 139.5q0 78 -25 137.5t-68.5 93t-96 50t-113.5 16.5zM139 900h79l89 -85l88 85h79l-127 -119h-81z" glyph-name="Dcaron" horiz-adv-x="645" unicode="Ď"/><glyph d="M22 250q0 126 58 190.5t160 65.5q50 1 107.5 -21.5t92.5 -57.5q18 -18 34 -66h2q-13 41 -13 74v265h53v-700h-53v61q0 34 13 73l-2 1q-16 -48 -34 -66q-35 -34 -92 -54.5t-108 -20.5q-102 0 -160 64.5t-58 191.5zM75 250q0 -109 46.5 -156t144.5 -47q69 0 133 55.5 t64 147.5q0 63 -33 111t-77 70t-87 21q-99 -1 -145 -47t-46 -155zM622 507h-16v146l10 47h56z" glyph-name="dcaron" horiz-adv-x="704" unicode="ď"/><glyph d="M-20 377h50v323h237q100 0 179 -37t128 -117.5t49 -195.5t-49 -195.5t-128 -117.5t-179 -37h-237v324h-50v53zM83 377h215v-53h-215v-271h184q60 0 111.5 15.5t96 49t70 93t25.5 139.5q0 78 -25 137.5t-68.5 93t-96 50t-113.5 16.5h-233q49 0 49 -29v-241z" glyph-name="Dcroat" horiz-adv-x="645" unicode="Đ"/><glyph d="M22 250q0 126 58 190.5t160 65.5q50 1 107.5 -21.5t92.5 -57.5q18 -18 34 -66h2q-13 41 -13 74v135h-119v53h119v77h53v-77h103v-53h-103v-570h-53v61q0 34 13 73l-2 1q-16 -48 -34 -66q-35 -34 -92 -54.5t-108 -20.5q-102 0 -160 64.5t-58 191.5zM75 250 q0 -109 46.5 -156t144.5 -47q69 0 133 55.5t64 147.5q0 63 -33 111t-77 70t-87 21q-99 -1 -145 -47t-46 -155z" glyph-name="dcroat" horiz-adv-x="546" unicode="đ"/><glyph d="M30 0v700h457v-53h-404v-282h404v-53h-404v-259h404v-53h-457zM120 840h275v-53h-275v53z" glyph-name="Emacron" unicode="Ē"/><glyph d="M265 -6q-104 -1 -173.5 65.5t-69.5 190.5t69.5 190.5t173.5 65.5q105 -1 174 -66.5t69 -189.5q0 -9 -3 -28h-425q25 -177 185 -175q62 1 111 29.5t73 86.5l47 -17q-29 -71 -92 -111t-139 -41zM265 453q-81 2 -137 -62.5t-48 -168.5q5 20 11 31.5t19 16t22 5t35 0.5h283 q-29 176 -185 178zM130 640h275v-53h-275v53z" glyph-name="emacron" horiz-adv-x="530" unicode="ē"/><glyph d="M30 0v700h457v-53h-404v-282h404v-53h-404v-259h404v-53h-457zM103 899h53q0 -45 26.5 -74t73.5 -29t73.5 29t26.5 74h53q0 -67 -43.5 -111.5t-109.5 -44.5t-109.5 44.5t-43.5 111.5z" glyph-name="Ebreve" unicode="Ĕ"/><glyph d="M265 -6q-104 -1 -173.5 65.5t-69.5 190.5t69.5 190.5t173.5 65.5q105 -1 174 -66.5t69 -189.5q0 -9 -3 -28h-425q25 -177 185 -175q62 1 111 29.5t73 86.5l47 -17q-29 -71 -92 -111t-139 -41zM265 453q-81 2 -137 -62.5t-48 -168.5q5 20 11 31.5t19 16t22 5t35 0.5h283 q-29 176 -185 178zM266 543q-66 0 -109.5 44.5t-43.5 111.5h53q0 -45 26.5 -74t73.5 -29t73.5 29t26.5 74h53q0 -67 -43.5 -111.5t-109.5 -44.5z" glyph-name="ebreve" horiz-adv-x="530" unicode="ĕ"/><glyph d="M30 0v700h457v-53h-404v-282h404v-53h-404v-259h404v-53h-457zM222 835v65h70v-65h-70z" glyph-name="Edotaccent" unicode="Ė"/><glyph d="M265 -6q-104 -1 -173.5 65.5t-69.5 190.5t69.5 190.5t173.5 65.5q105 -1 174 -66.5t69 -189.5q0 -9 -3 -28h-425q25 -177 185 -175q62 1 111 29.5t73 86.5l47 -17q-29 -71 -92 -111t-139 -41zM265 453q-81 2 -137 -62.5t-48 -168.5q5 20 11 31.5t19 16t22 5t35 0.5h283 q-29 176 -185 178zM232 635v65h70v-65h-70z" glyph-name="edotaccent" horiz-adv-x="530" unicode="ė"/><glyph d="M435 0h-405v700h457v-53h-404v-282h404v-53h-404v-259h404v-53h1q-38 -42 -55 -88t-5 -78.5t55 -32.5q23 0 47 8l33 -39q-27 -22 -78 -22q-28 0 -52 7.5t-42 26.5t-22.5 47t11.5 72.5t55 98.5z" glyph-name="Eogonek" unicode="Ę"/><glyph d="M212 -2q-85 16 -137.5 80.5t-52.5 171.5q0 124 69.5 190.5t173.5 65.5q105 -1 174 -66.5t69 -189.5q0 -9 -3 -28h-425q25 -177 185 -175q62 1 111 29.5t73 86.5l47 -17q-30 -73 -94 -112.5t-144 -39.5q-25 -39 -33 -75.5t6.5 -60.5t51.5 -24q18 0 47 8l33 -39 q-25 -22 -78 -22q-33 0 -60 11.5t-45 35.5t-11 68t43 102zM265 453q-81 2 -137 -62.5t-48 -168.5q5 20 11 31.5t19 16t22 5t35 0.5h283q-29 176 -185 178z" glyph-name="eogonek" horiz-adv-x="530" unicode="ę"/><glyph d="M30 0v700h457v-53h-404v-282h404v-53h-404v-259h404v-53h-457zM88 900h79l89 -85l88 85h79l-127 -119h-81z" glyph-name="Ecaron" unicode="Ě"/><glyph d="M265 -6q-104 -1 -173.5 65.5t-69.5 190.5t69.5 190.5t173.5 65.5q105 -1 174 -66.5t69 -189.5q0 -9 -3 -28h-425q25 -177 185 -175q62 1 111 29.5t73 86.5l47 -17q-29 -71 -92 -111t-139 -41zM265 453q-81 2 -137 -62.5t-48 -168.5q5 20 11 31.5t19 16t22 5t35 0.5h283 q-29 176 -185 178zM98 700h79l89 -85l88 85h79l-127 -119h-81z" glyph-name="ecaron" horiz-adv-x="530" unicode="ě"/><glyph d="M22 350q0 176 90 267.5t234 89.5q119 -2 203.5 -64t111.5 -182l-49 -19q-21 92 -101 151.5t-165 60.5q-110 1 -190.5 -82t-80.5 -222q0 -140 73 -222t183 -82q64 0 112.5 46t69.5 103t21 109h-112v53h184q64 0 64 -69v-288h-53v304h-29q-4 -148 -78.5 -229.5 t-181.5 -81.5q-142 0 -224 90t-82 267zM178 781l127 119h81l127 -119h-79l-88 84l-89 -84h-79z" glyph-name="Gcircumflex" horiz-adv-x="692" unicode="Ĝ"/><glyph d="M114 58q-37 9 -60 31t-23 54q0 35 16 54t49 31q0 1 -4 6.5t-10 15t-11.5 21t-9.5 27.5t-4 32q0 56 33.5 96t79.5 56.5t98 16.5q49 0 112 -24q-5 12 -5.5 22t4.5 17t12.5 11.5t18.5 7.5t21.5 4.5t24 1.5h23t21 -0.5t15.5 -0.5v-47h-55q-7 0 -12 -0.5t-14 -1t-14.5 -3 t-9.5 -6t-2.5 -10t8.5 -14.5q57 -57 57 -123q0 -81 -63.5 -124.5t-144.5 -43.5q-50 0 -94 16q-3 1 -7.5 3t-7.5 3.5t-4 1.5q-24 1 -45.5 -12t-21.5 -27q0 -27 33 -43t82.5 -20.5t107 -12.5t107 -18.5t82.5 -39.5t33 -75q0 -44 -27.5 -74.5t-72.5 -43.5t-82 -18t-76 -5 q-38 0 -76.5 5t-87 18t-78.5 43.5t-30 74.5q0 28 10.5 49t29.5 34t35.5 20t38.5 14zM53 -59q0 -26 25 -44.5t63 -27t71 -12.5t60 -4q26 0 56.5 3.5t66 12.5t58.5 27.5t23 44.5q0 13 -5.5 23.5t-17 19t-23 15t-30.5 11.5t-33 8.5t-36 6.5t-34 4.5t-32.5 3.5t-26.5 3 q-32 4 -41 4q-24 0 -55.5 -9.5t-60 -33.5t-28.5 -56zM110 331q0 -60 46 -87t109 -27t109 27t46 88q0 60 -46 87t-107 27q-64 0 -110.5 -27t-46.5 -88zM185 581h-79l127 119h81l127 -119h-79l-88 84z" glyph-name="gcircumflex" horiz-adv-x="546" unicode="ĝ"/><glyph d="M22 350q0 176 90 267.5t234 89.5q119 -2 203.5 -64t111.5 -182l-49 -19q-21 92 -101 151.5t-165 60.5q-110 1 -190.5 -82t-80.5 -222q0 -140 73 -222t183 -82q64 0 112.5 46t69.5 103t21 109h-112v53h184q64 0 64 -69v-288h-53v304h-29q-4 -148 -78.5 -229.5 t-181.5 -81.5q-142 0 -224 90t-82 267zM346 743q-66 0 -109.5 44.5t-43.5 111.5h53q0 -45 26.5 -74t73.5 -29t73.5 29t26.5 74h53q0 -67 -43.5 -111.5t-109.5 -44.5z" glyph-name="Gbreve" horiz-adv-x="692" unicode="Ğ"/><glyph d="M0 -59q0 28 10.5 49t29.5 34t35.5 20t38.5 14q-37 9 -60 31t-23 54q0 35 16 54t49 31q0 1 -4 6.5t-10 15t-11.5 21t-9.5 27.5t-4 32q0 56 33.5 96t79.5 56.5t98 16.5q49 0 112 -24q-5 12 -5.5 22t4.5 17t12.5 11.5t18.5 7.5t21.5 4.5t24 1.5h23t21 -0.5t15.5 -0.5v-47 h-55q-7 0 -12 -0.5t-14 -1t-14.5 -3t-9.5 -6t-2.5 -10t8.5 -14.5q57 -57 57 -123q0 -81 -63.5 -124.5t-144.5 -43.5q-50 0 -94 16q-3 1 -7.5 3t-7.5 3.5t-4 1.5q-24 1 -45.5 -12t-21.5 -27q0 -27 33 -43t82.5 -20.5t107 -12.5t107 -18.5t82.5 -39.5t33 -75 q0 -44 -27.5 -74.5t-72.5 -43.5t-82 -18t-76 -5q-38 0 -76.5 5t-87 18t-78.5 43.5t-30 74.5zM53 -59q0 -26 25 -44.5t63 -27t71 -12.5t60 -4q26 0 56.5 3.5t66 12.5t58.5 27.5t23 44.5q0 13 -5.5 23.5t-17 19t-23 15t-30.5 11.5t-33 8.5t-36 6.5t-34 4.5t-32.5 3.5t-26.5 3 q-32 4 -41 4q-24 0 -55.5 -9.5t-60 -33.5t-28.5 -56zM265 217q63 0 109 27t46 88q0 60 -46 87t-107 27q-64 0 -110.5 -27t-46.5 -88q0 -60 46 -87t109 -27zM120 699h53q0 -45 26.5 -74t73.5 -29t73.5 29t26.5 74h53q0 -67 -43.5 -111.5t-109.5 -44.5t-109.5 44.5 t-43.5 111.5z" glyph-name="gbreve" horiz-adv-x="546" unicode="ğ"/><glyph d="M22 350q0 176 90 267.5t234 89.5q119 -2 203.5 -64t111.5 -182l-49 -19q-21 92 -101 151.5t-165 60.5q-110 1 -190.5 -82t-80.5 -222q0 -140 73 -222t183 -82q64 0 112.5 46t69.5 103t21 109h-112v53h184q64 0 64 -69v-288h-53v304h-29q-4 -148 -78.5 -229.5 t-181.5 -81.5q-142 0 -224 90t-82 267zM312 900h70v-65h-70v65z" glyph-name="Gdotaccent" horiz-adv-x="692" unicode="Ġ"/><glyph d="M0 -59q0 28 10.5 49t29.5 34t35.5 20t38.5 14q-37 9 -60 31t-23 54q0 35 16 54t49 31q0 1 -4 6.5t-10 15t-11.5 21t-9.5 27.5t-4 32q0 56 33.5 96t79.5 56.5t98 16.5q49 0 112 -24q-5 12 -5.5 22t4.5 17t12.5 11.5t18.5 7.5t21.5 4.5t24 1.5h23t21 -0.5t15.5 -0.5v-47 h-55q-7 0 -12 -0.5t-14 -1t-14.5 -3t-9.5 -6t-2.5 -10t8.5 -14.5q57 -57 57 -123q0 -81 -63.5 -124.5t-144.5 -43.5q-50 0 -94 16q-3 1 -7.5 3t-7.5 3.5t-4 1.5q-24 1 -45.5 -12t-21.5 -27q0 -27 33 -43t82.5 -20.5t107 -12.5t107 -18.5t82.5 -39.5t33 -75 q0 -44 -27.5 -74.5t-72.5 -43.5t-82 -18t-76 -5q-38 0 -76.5 5t-87 18t-78.5 43.5t-30 74.5zM53 -59q0 -26 25 -44.5t63 -27t71 -12.5t60 -4q26 0 56.5 3.5t66 12.5t58.5 27.5t23 44.5q0 13 -5.5 23.5t-17 19t-23 15t-30.5 11.5t-33 8.5t-36 6.5t-34 4.5t-32.5 3.5t-26.5 3 q-32 4 -41 4q-24 0 -55.5 -9.5t-60 -33.5t-28.5 -56zM265 217q63 0 109 27t46 88q0 60 -46 87t-107 27q-64 0 -110.5 -27t-46.5 -88q0 -60 46 -87t109 -27zM308 635h-70v65h70v-65z" glyph-name="gdotaccent" horiz-adv-x="546" unicode="ġ"/><glyph d="M328 -7q-142 0 -224 90t-82 267q0 176 90 267.5t234 89.5q119 -2 203.5 -64t111.5 -182l-49 -19q-21 92 -101 151.5t-165 60.5q-110 1 -190.5 -82t-80.5 -222q0 -140 73 -222t183 -82q64 0 112.5 46t69.5 103t21 109h-112v53h184q64 0 64 -69v-288h-53v304h-29 q-4 -148 -78.5 -229.5t-181.5 -81.5zM286 -192l58 142h62l-77 -142h-43z" glyph-name="uni0122" horiz-adv-x="692" unicode="Ģ"/><glyph d="M0 -59q0 28 10.5 49t29.5 34t35.5 20t38.5 14q-37 9 -60 31t-23 54q0 35 16 54t49 31q0 1 -4 6.5t-10 15t-11.5 21t-9.5 27.5t-4 32q0 56 33.5 96t79.5 56.5t98 16.5q49 0 112 -24q-5 12 -5.5 22t4.5 17t12.5 11.5t18.5 7.5t21.5 4.5t24 1.5h23t21 -0.5t15.5 -0.5v-47 h-55q-7 0 -12 -0.5t-14 -1t-14.5 -3t-9.5 -6t-2.5 -10t8.5 -14.5q57 -57 57 -123q0 -81 -63.5 -124.5t-144.5 -43.5q-50 0 -94 16q-3 1 -7.5 3t-7.5 3.5t-4 1.5q-24 1 -45.5 -12t-21.5 -27q0 -27 33 -43t82.5 -20.5t107 -12.5t107 -18.5t82.5 -39.5t33 -75 q0 -44 -27.5 -74.5t-72.5 -43.5t-82 -18t-76 -5q-38 0 -76.5 5t-87 18t-78.5 43.5t-30 74.5zM53 -59q0 -26 25 -44.5t63 -27t71 -12.5t60 -4q26 0 56.5 3.5t66 12.5t58.5 27.5t23 44.5q0 13 -5.5 23.5t-17 19t-23 15t-30.5 11.5t-33 8.5t-36 6.5t-34 4.5t-32.5 3.5t-26.5 3 q-32 4 -41 4q-24 0 -55.5 -9.5t-60 -33.5t-28.5 -56zM265 217q63 0 109 27t46 88q0 60 -46 87t-107 27q-64 0 -110.5 -27t-46.5 -88q0 -60 46 -87t109 -27zM240 573v146l10 47h56l-50 -193h-16z" glyph-name="uni0123" horiz-adv-x="546" unicode="ģ"/><glyph d="M30 700h53v-323h430v323h53v-700h-53v324h-430v-324h-53v700zM131 781l127 119h81l127 -119h-79l-88 84l-89 -84h-79z" glyph-name="Hcircumflex" horiz-adv-x="596" unicode="Ĥ"/><glyph d="M31 0v700h53v-287q0 -30 -10 -74l2 -1q10 45 26 70q32 50 82.5 75t103.5 25q50 0 86 -21.5t53.5 -57t25.5 -72t8 -75.5v-282h-53v282q0 81 -31.5 126.5t-93.5 45.5q-16 0 -37.5 -5.5t-51 -23t-53 -45t-40.5 -78t-17 -115.5v-187h-53zM-34 761h-79l127 119h81l127 -119 h-79l-88 84z" glyph-name="hcircumflex" horiz-adv-x="486" unicode="ĥ"/><glyph d="M566 542h79v-53h-79v-489h-53v324h-430v-324h-53v489h-79v53h79v158h53v-158h430v158h53v-158zM513 489h-430v-112h430v112z" glyph-name="Hbar" horiz-adv-x="596" unicode="Ħ"/><glyph d="M84 614h118v-53h-118v-148q0 -30 -10 -74l2 -1q10 45 26 70q32 50 82.5 75t103.5 25q50 0 86 -21.5t53.5 -57t25.5 -72t8 -75.5v-282h-53v282q0 81 -31.5 126.5t-93.5 45.5q-16 0 -37.5 -5.5t-51 -23t-53 -45t-40.5 -78t-17 -115.5v-187h-53v561h-104v53h104v86h53v-86z " glyph-name="hbar" horiz-adv-x="486" unicode="ħ"/><glyph d="M30 0v700h53v-700h-53zM-71 759l-43 32q38 75 125 75q38 0 77.5 -28.5t56.5 -29.5q49 -3 71 58l47 -23q-11 -34 -41.5 -61.5t-79.5 -24.5q-34 2 -66.5 29t-55.5 28q-31 1 -55.5 -15t-35.5 -40z" glyph-name="Itilde" horiz-adv-x="113" unicode="Ĩ"/><glyph d="M30 0v500h53v-500h-53zM-92 559l-43 32q37 75 125 75q38 0 77.5 -28.5t56.5 -29.5q49 -3 71 58l47 -23q-11 -34 -41.5 -61.5t-79.5 -24.5q-34 2 -66.5 29t-55.5 28q-31 1 -55.5 -15t-35.5 -40z" glyph-name="itilde" horiz-adv-x="113" unicode="ĩ"/><glyph d="M30 0v700h53v-700h-53zM-81 787v53h275v-53h-275z" glyph-name="Imacron" horiz-adv-x="113" unicode="Ī"/><glyph d="M30 0v500h53v-500h-53zM-79 587v53h275v-53h-275z" glyph-name="imacron" horiz-adv-x="113" unicode="ī"/><glyph d="M29 2h1v698h53v-700h-3q-37 -42 -53.5 -87.5t-4.5 -77.5t54 -32q24 0 48 8l33 -39q-27 -22 -78 -22q-28 0 -52 7.5t-42 26.5t-22.5 47t11.5 72.5t55 98.5z" glyph-name="Iogonek" horiz-adv-x="113" unicode="Į"/><glyph d="M31 1h1v499h53v-500h-2q-37 -42 -54 -88t-5 -78t55 -32q23 0 47 8l33 -39q-27 -22 -78 -22q-28 0 -52 7.5t-42 26.5t-22.5 47t11.5 72.5t55 98.5zM30 647v53h57v-53h-57z" glyph-name="iogonek" horiz-adv-x="163" unicode="į"/><glyph d="M30 0v700h53v-700h-53zM91 835h-70v65h70v-65z" glyph-name="Idotaccent" horiz-adv-x="113" unicode="İ"/><glyph d="M30 0v500h53v-500h-53z" glyph-name="dotlessi" horiz-adv-x="113" unicode="ı"/><glyph d="M115 -230h-85v53h85q77 0 121.5 50t44.5 127v700h53v-700q0 -111 -62.5 -170.5t-156.5 -59.5zM30 0v700h53v-700h-53z" glyph-name="IJ" horiz-adv-x="602" unicode="Ĳ"/><glyph d="M132 -160v53h22q51 0 74.5 25t23.5 82v500h53v-500q0 -79 -33.5 -119.5t-117.5 -40.5h-22zM32 0v500h53v-500h-53zM87 700v-53h-57v53h57zM252 647v53h53v-53h-53z" glyph-name="ij" horiz-adv-x="337" unicode="ĳ"/><glyph d="M22 189l51 17q7 -69 51 -114.5t116 -45.5q76 0 121 50.5t45 126.5v477h53v-477q0 -111 -62.5 -170.5t-156.5 -59.5q-87 0 -148 51t-70 145zM264 781l127 119h81l127 -119h-79l-88 84l-89 -84h-79z" glyph-name="Jcircumflex" horiz-adv-x="489" unicode="Ĵ"/><glyph d="M-9 -160h-22v53h22q51 0 74.5 25t23.5 82v500h53v-500q0 -79 -33.5 -119.5t-117.5 -40.5zM-55 581l127 119h81l127 -119h-79l-69 66h-38l-70 -66h-79z" glyph-name="jcircumflex" horiz-adv-x="174" unicode="ĵ"/><glyph d="M30 0v700h53v-389q0 -39 -15 -77h2q13 36 39 67l353 399h71l-257 -291l292 -409h-66l-262 368l-157 -172v-196h-53zM235 -192l58 142h62l-77 -142h-43z" glyph-name="uni0136" horiz-adv-x="590" unicode="Ķ"/><glyph d="M83 0h-53v700h53l-3 -439q0 -32 -17 -72h2q16 37 43 60l280 251h69l-213 -202l228 -297h1v-1l-1 1h-67l-201 261l-121 -105v-157zM187 -192l58 142h62l-77 -142h-43z" glyph-name="uni0137" horiz-adv-x="493" unicode="ķ"/><glyph d="M388 500h69l-213 -202l228 -297h-67l-201 261l-121 -105v-157h-53v498h53l-4 -275z" glyph-name="kgreenlandic" horiz-adv-x="493" unicode="ĸ"/><glyph d="M30 700h53v-609q0 -37 -27 -64l1 -1q27 27 64 27h339v-53h-430v700zM45 758l58 142h61l-77 -142h-42z" glyph-name="Lacute" horiz-adv-x="475" unicode="Ĺ"/><glyph d="M35 0v700h53v-700h-53zM87 758h-42l58 142h61z" glyph-name="lacute" horiz-adv-x="123" unicode="ĺ"/><glyph d="M30 0v700h53v-609q0 -37 -27 -64l1 -1q27 27 64 27h339v-53h-430zM178 -192l58 142h62l-77 -142h-43z" glyph-name="uni013B" horiz-adv-x="475" unicode="Ļ"/><glyph d="M35 0v700h53v-700h-53zM45 -192h-43l58 142h62z" glyph-name="uni013C" horiz-adv-x="123" unicode="ļ"/><glyph d="M30 0v700h53v-609q0 -37 -27 -64l1 -1q27 27 64 27h339v-53h-430zM220 702l10 47h56l-50 -193h-16v146z" glyph-name="Lcaron" horiz-adv-x="475" unicode="Ľ"/><glyph d="M88 0h-53v700h53v-700zM170 653l10 47h56l-50 -193h-16v146z" glyph-name="lcaron" horiz-adv-x="229" unicode="ľ"/><glyph d="M30 0v700h53v-609q0 -37 -27 -64l1 -1q27 27 64 27h339v-53h-430zM230 399h70v-65h-70v65z" glyph-name="Ldot" horiz-adv-x="475" unicode="Ŀ"/><glyph d="M35 0v700h53v-700h-53zM213 357h-70v65h70v-65z" glyph-name="ldot" horiz-adv-x="233" unicode="ŀ"/><glyph d="M-148 241l-19 49l197 74v336h53v-315l183 69l19 -50l-202 -76v-237q0 -37 -27 -64l1 -1q27 27 64 27h339v-53h-430v308z" glyph-name="Lslash" horiz-adv-x="475" unicode="Ł"/><glyph d="M-166 253l201 69v378h53v-361l184 63l17 -50l-201 -69v-283h-53v266l-184 -63z" glyph-name="lslash" horiz-adv-x="123" unicode="ł"/><glyph d="M83 0h-53v700h53l421 -581q26 -38 39 -80h2q-15 49 -15 88v573h53v-700h-53l-420 573q-25 33 -40 79h-2q15 -49 15 -88v-564zM316 758h-42l58 142h61z" glyph-name="Nacute" horiz-adv-x="613" unicode="Ń"/><glyph d="M30 0v500h53v-87q0 -31 -9 -67h2q11 45 23 63q59 99 170 99q40 0 69 -21.5t43.5 -57t21 -72t6.5 -75.5v-282h-53v282q0 172 -100 172q-16 0 -35 -5.5t-44.5 -23t-45.5 -45t-34 -78t-14 -115.5v-187h-53zM204 558l58 142h61l-77 -142h-42z" glyph-name="nacute" horiz-adv-x="439" unicode="ń"/><glyph d="M83 0h-53v700h53l421 -581q26 -38 39 -80h2q-15 49 -15 88v573h53v-700h-53l-420 573q-25 33 -40 79h-2q15 -49 15 -88v-564zM290 -192h-43l58 142h62z" glyph-name="uni0145" horiz-adv-x="613" unicode="Ņ"/><glyph d="M30 0v500h53v-87q0 -31 -9 -67h2q11 45 23 63q59 99 170 99q40 0 69 -21.5t43.5 -57t21 -72t6.5 -75.5v-282h-53v282q0 172 -100 172q-16 0 -35 -5.5t-44.5 -23t-45.5 -45t-34 -78t-14 -115.5v-187h-53zM160 -192l58 142h62l-77 -142h-43z" glyph-name="uni0146" horiz-adv-x="439" unicode="ņ"/><glyph d="M83 0h-53v700h53l421 -581q26 -38 39 -80h2q-15 49 -15 88v573h53v-700h-53l-420 573q-25 33 -40 79h-2q15 -49 15 -88v-564zM144 900h79l89 -85l88 85h79l-127 -119h-81z" glyph-name="Ncaron" horiz-adv-x="613" unicode="Ň"/><glyph d="M30 500h53v-87q0 -31 -9 -67h2q11 45 23 63q59 99 170 99q40 0 69 -21.5t43.5 -57t21 -72t6.5 -75.5v-282h-53v282q0 172 -100 172q-16 0 -35 -5.5t-44.5 -23t-45.5 -45t-34 -78t-14 -115.5v-187h-53v500zM74 700h79l89 -85l88 85h79l-127 -119h-81z" glyph-name="ncaron" horiz-adv-x="439" unicode="ň"/><glyph d="M30 500h53v-87q0 -31 -9 -67h2q11 45 23 63q59 99 170 99q40 0 69 -21.5t43.5 -57t21 -72t6.5 -75.5v-282h-53v282q0 172 -100 172q-16 0 -35 -5.5t-44.5 -23t-45.5 -45t-34 -78t-14 -115.5v-187h-53v500zM231 701l10 47h56l-50 -193h-16v146z" glyph-name="napostrophe" horiz-adv-x="439" unicode="ŉ"/><glyph d="M356 -7q-146 0 -240 91.5t-94 265.5q0 175 94 267t240 90q147 -2 240.5 -93t93.5 -264q0 -174 -94 -265.5t-240 -91.5zM75 350q0 -138 83.5 -221t197.5 -83q118 0 199.5 82t81.5 222q0 139 -83.5 220.5t-197.5 83.5q-113 2 -197 -82t-84 -222zM495 787h-275v53h275v-53z " glyph-name="Omacron" horiz-adv-x="712" unicode="Ō"/><glyph d="M268 -6q-105 0 -175.5 66t-70.5 190t70.5 190.5t175.5 65.5q106 -1 176 -67t70 -189q0 -124 -70.5 -190t-175.5 -66zM75 250q0 -101 54 -152t139 -51q83 0 138 52t55 151q0 98 -55 150t-138 53q-80 1 -136.5 -52.5t-56.5 -150.5zM407 587h-275v53h275v-53z" glyph-name="omacron" horiz-adv-x="536" unicode="ō"/><glyph d="M356 -7q-146 0 -240 91.5t-94 265.5q0 175 94 267t240 90q147 -2 240.5 -93t93.5 -264q0 -174 -94 -265.5t-240 -91.5zM356 654q-113 2 -197 -82t-84 -222t83.5 -221t197.5 -83q118 0 199.5 82t81.5 222q0 139 -83.5 220.5t-197.5 83.5zM356 743q-66 0 -109.5 44.5 t-43.5 111.5h53q0 -45 26.5 -74t73.5 -29t73.5 29t26.5 74h53q0 -67 -43.5 -111.5t-109.5 -44.5z" glyph-name="Obreve" horiz-adv-x="712" unicode="Ŏ"/><glyph d="M268 -6q-105 0 -175.5 66t-70.5 190t70.5 190.5t175.5 65.5q106 -1 176 -67t70 -189q0 -124 -70.5 -190t-175.5 -66zM268 453q-80 1 -136.5 -52.5t-56.5 -150.5q0 -101 54 -152t139 -51q83 0 138 52t55 151q0 98 -55 150t-138 53zM268 543q-66 0 -109.5 44.5t-43.5 111.5 h53q0 -45 26.5 -74t73.5 -29t73.5 29t26.5 74h53q0 -67 -43.5 -111.5t-109.5 -44.5z" glyph-name="obreve" horiz-adv-x="536" unicode="ŏ"/><glyph d="M356 -7q-146 0 -240 91.5t-94 265.5q0 175 94 267t240 90q147 -2 240.5 -93t93.5 -264q0 -174 -94 -265.5t-240 -91.5zM75 350q0 -138 83.5 -221t197.5 -83q118 0 199.5 82t81.5 222q0 139 -83.5 220.5t-197.5 83.5q-113 2 -197 -82t-84 -222zM422 758h-29l58 142h68z M292 758h-29l58 142h68z" glyph-name="Ohungarumlaut" horiz-adv-x="712" unicode="Ő"/><glyph d="M268 -6q-105 0 -175.5 66t-70.5 190t70.5 190.5t175.5 65.5q106 -1 176 -67t70 -189q0 -124 -70.5 -190t-175.5 -66zM75 250q0 -101 54 -152t139 -51q83 0 138 52t55 151q0 98 -55 150t-138 53q-80 1 -136.5 -52.5t-56.5 -150.5zM334 558h-29l58 142h68zM204 558h-29 l58 142h68z" glyph-name="ohungarumlaut" horiz-adv-x="536" unicode="ő"/><glyph d="M356 -7q-146 0 -240 91.5t-94 265.5q0 175 94 267t240 90q77 -1 146 -42t109 -117v152h440v-53h-389l2 -271h332v-53h-332v-270h387v-53h-440v141q-37 -66 -109 -107t-146 -41zM356 659q-125 2 -203 -82t-78 -227q0 -142 79.5 -225.5t201.5 -83.5q102 0 179.5 85.5 t77.5 223.5q0 139 -77.5 223.5t-179.5 85.5z" glyph-name="OE" horiz-adv-x="1081" unicode="Œ"/><glyph d="M268 -6q-105 0 -175.5 66t-70.5 190t70.5 190.5t175.5 65.5q64 -1 122.5 -35t82.5 -86q18 51 81.5 86.5t128.5 34.5q102 -1 162.5 -65.5t60.5 -190.5q0 -4 -3 -23h-405q1 -73 51 -127t134 -53q53 1 102 31.5t63 90.5l46 -30q-59 -143 -211 -145q-64 -1 -122 28.5 t-88 81.5q-31 -51 -86.5 -80.5t-118.5 -29.5zM75 250q0 -102 54 -152.5t139 -50.5q179 0 179 203q0 90 -51 146t-128 57q-81 1 -137 -56t-56 -147zM683 453q-81 1 -133 -62t-52 -164q16 25 46.5 37.5t51.5 14t59 1.5h196q0 71 -45 121.5t-123 51.5z" glyph-name="oe" horiz-adv-x="928" unicode="œ"/><glyph d="M30 0v700h254q256 0 256 -215q0 -84 -39 -124t-125 -57v-2q68 13 88 13q82 0 82 -86l2 -229h-55v220q0 25 -11 35.5t-48 10.5l-351 -1v-265h-53zM83 319h201q93 0 147.5 48.5t54.5 117.5q0 88 -50 125t-152 37h-201v-328zM271 758h-42l58 142h61z" glyph-name="Racute" horiz-adv-x="570" unicode="Ŕ"/><glyph d="M30 0v397q0 50 26.5 76.5t75.5 26.5h169v-53l-151 -1q-45 0 -56 -10t-11 -59v-377h-53zM101 558l58 142h61l-77 -142h-42z" glyph-name="racute" horiz-adv-x="321" unicode="ŕ"/><glyph d="M30 0v700h254q256 0 256 -215q0 -84 -39 -124t-125 -57v-2q68 13 88 13q82 0 82 -86l2 -229h-55v220q0 25 -11 35.5t-48 10.5l-351 -1v-265h-53zM83 319h201q93 0 147.5 48.5t54.5 117.5q0 88 -50 125t-152 37h-201v-328zM268 -192h-43l58 142h62z" glyph-name="uni0156" horiz-adv-x="570" unicode="Ŗ"/><glyph d="M30 0v397q0 50 26.5 76.5t75.5 26.5h169v-53l-151 -1q-45 0 -56 -10t-11 -59v-377h-53zM101 -192l58 142h62l-77 -142h-43z" glyph-name="uni0157" horiz-adv-x="321" unicode="ŗ"/><glyph d="M30 0v700h254q256 0 256 -215q0 -84 -39 -124t-125 -57v-2q68 13 88 13q82 0 82 -86l2 -229h-55v220q0 25 -11 35.5t-48 10.5l-351 -1v-265h-53zM83 647v-328h201q93 0 147.5 48.5t54.5 117.5q0 88 -50 125t-152 37h-201zM99 900h79l89 -85l88 85h79l-127 -119h-81z" glyph-name="Rcaron" horiz-adv-x="570" unicode="Ř"/><glyph d="M30 0v397q0 50 26.5 76.5t75.5 26.5h169v-53l-151 -1q-45 0 -56 -10t-11 -59v-377h-53zM-7 700h79l89 -85l88 85h79l-127 -119h-81z" glyph-name="rcaron" horiz-adv-x="321" unicode="ř"/><glyph d="M22 185l51 16q6 -70 62.5 -111.5t148.5 -41.5q99 0 153 43t54 121q0 40 -25 66.5t-65 39t-88.5 21t-97 18.5t-88.5 25.5t-65 47.5t-25 80q0 92 67.5 147t176.5 53q93 -2 156.5 -47t75.5 -122l-51 -17q-16 133 -181 133q-89 0 -140 -39t-51 -108q0 -42 33.5 -66.5 t84 -32.5t109.5 -19.5t109.5 -26t84 -53.5t33.5 -100q0 -38 -12 -73t-39 -69t-81 -54.5t-128 -20.5q-71 0 -122.5 16.5t-80 46t-42 60.5t-17.5 67zM243 758l58 142h61l-77 -142h-42z" glyph-name="Sacute" horiz-adv-x="566" unicode="Ś"/><glyph d="M21 135l49 16q10 -57 48 -80.5t113 -23.5q81 0 120 26t39 87q0 30 -37 45.5t-90 21t-106 14.5t-90 37t-37 77q0 50 22.5 83.5t59.5 47t63.5 17.5t55.5 4q177 0 200 -118l-51 -14q-11 46 -45 62.5t-104 16.5q-79 0 -113.5 -21t-34.5 -78q0 -32 37 -47.5t90 -21.5t106 -15 t90 -36t37 -75q0 -43 -17.5 -75.5t-41 -49t-55.5 -26.5t-54 -12.5t-44 -2.5q-26 0 -53 4.5t-63.5 17t-62 43.5t-31.5 76zM193 558l58 142h61l-77 -142h-42z" glyph-name="sacute" horiz-adv-x="465" unicode="ś"/><glyph d="M22 185l51 16q6 -70 62.5 -111.5t148.5 -41.5q99 0 153 43t54 121q0 40 -25 66.5t-65 39t-88.5 21t-97 18.5t-88.5 25.5t-65 47.5t-25 80q0 92 67.5 147t176.5 53q93 -2 156.5 -47t75.5 -122l-51 -17q-16 133 -181 133q-89 0 -140 -39t-51 -108q0 -42 33.5 -66.5 t84 -32.5t109.5 -19.5t109.5 -26t84 -53.5t33.5 -100q0 -38 -12 -73t-39 -69t-81 -54.5t-128 -20.5q-71 0 -122.5 16.5t-80 46t-42 60.5t-17.5 67zM192 781h-79l127 119h81l127 -119h-79l-88 84z" glyph-name="Scircumflex" horiz-adv-x="566" unicode="Ŝ"/><glyph d="M21 135l49 16q10 -57 48 -80.5t113 -23.5q81 0 120 26t39 87q0 30 -37 45.5t-90 21t-106 14.5t-90 37t-37 77q0 50 22.5 83.5t59.5 47t63.5 17.5t55.5 4q177 0 200 -118l-51 -14q-11 46 -45 62.5t-104 16.5q-79 0 -113.5 -21t-34.5 -78q0 -32 37 -47.5t90 -21.5t106 -15 t90 -36t37 -75q0 -43 -17.5 -75.5t-41 -49t-55.5 -26.5t-54 -12.5t-44 -2.5q-26 0 -53 4.5t-63.5 17t-62 43.5t-31.5 76zM142 581h-79l127 119h81l127 -119h-79l-88 84z" glyph-name="scircumflex" horiz-adv-x="465" unicode="ŝ"/><glyph d="M22 185l51 16q6 -70 62.5 -111.5t148.5 -41.5q99 0 153 43t54 121q0 40 -25 66.5t-65 39t-88.5 21t-97 18.5t-88.5 25.5t-65 47.5t-25 80q0 92 67.5 147t176.5 53q93 -2 156.5 -47t75.5 -122l-51 -17q-16 133 -181 133q-89 0 -140 -39t-51 -108q0 -42 33.5 -66.5 t84 -32.5t109.5 -19.5t109.5 -26t84 -53.5t33.5 -100q0 -36 -10.5 -69t-34 -65.5t-69.5 -54.5t-109 -27l-27 -57q48 0 83 -22.5t35 -69.5q0 -52 -34.5 -80t-84.5 -28q-37 0 -70.5 16t-52.5 44l36 37q13 -21 39 -34t52 -13q27 0 44.5 14.5t17.5 43.5q1 49 -130 49l36 99 q-65 3 -113 20.5t-74 46t-39 58.5t-17 65z" glyph-name="Scedilla" horiz-adv-x="566" unicode="Ş"/><glyph d="M21 135l49 16q10 -57 48 -80.5t113 -23.5q81 0 120 26t39 87q0 30 -37 45.5t-90 21t-106 14.5t-90 37t-37 77q0 50 22.5 83.5t59.5 47t63.5 17.5t55.5 4q177 0 200 -118l-51 -14q-11 46 -45 62.5t-104 16.5q-79 0 -113.5 -21t-34.5 -78q0 -32 37 -47.5t90 -21.5t106 -15 t90 -36t37 -75q0 -45 -17 -77.5t-45.5 -49.5t-55.5 -25.5t-57 -11.5l-27 -57q48 0 83 -22.5t35 -69.5q0 -52 -34.5 -80t-84.5 -28q-37 0 -70.5 16t-52.5 44l36 37q13 -21 39 -34t52 -13q27 0 44.5 14.5t17.5 43.5q1 49 -130 49l36 99q-28 1 -54.5 7.5t-57.5 20.5t-52.5 43 t-26.5 69z" glyph-name="scedilla" horiz-adv-x="465" unicode="ş"/><glyph d="M22 185l51 16q6 -70 62.5 -111.5t148.5 -41.5q99 0 153 43t54 121q0 40 -25 66.5t-65 39t-88.5 21t-97 18.5t-88.5 25.5t-65 47.5t-25 80q0 92 67.5 147t176.5 53q93 -2 156.5 -47t75.5 -122l-51 -17q-16 133 -181 133q-89 0 -140 -39t-51 -108q0 -42 33.5 -66.5 t84 -32.5t109.5 -19.5t109.5 -26t84 -53.5t33.5 -100q0 -38 -12 -73t-39 -69t-81 -54.5t-128 -20.5q-71 0 -122.5 16.5t-80 46t-42 60.5t-17.5 67zM113 900h79l89 -85l88 85h79l-127 -119h-81z" glyph-name="Scaron" horiz-adv-x="566" unicode="Š"/><glyph d="M21 135l49 16q10 -57 48 -80.5t113 -23.5q81 0 120 26t39 87q0 30 -37 45.5t-90 21t-106 14.5t-90 37t-37 77q0 50 22.5 83.5t59.5 47t63.5 17.5t55.5 4q177 0 200 -118l-51 -14q-11 46 -45 62.5t-104 16.5q-79 0 -113.5 -21t-34.5 -78q0 -32 37 -47.5t90 -21.5t106 -15 t90 -36t37 -75q0 -43 -17.5 -75.5t-41 -49t-55.5 -26.5t-54 -12.5t-44 -2.5q-26 0 -53 4.5t-63.5 17t-62 43.5t-31.5 76zM63 700h79l89 -85l88 85h79l-127 -119h-81z" glyph-name="scaron" horiz-adv-x="465" unicode="š"/><glyph d="M20 700h550v-53h-214q-34 0 -57 25l-2 -2q25 -23 25 -57v-613h-53v647h-249v53zM127 900h79l89 -85l88 85h79l-127 -119h-81z" glyph-name="Tcaron" horiz-adv-x="590" unicode="Ť"/><glyph d="M10 453v53h8q31 0 67 44.5t36 88.5l55 1q-2 -72 -54 -120q-11 -9 -65 -20v-2q40 8 68 8h148v-53h-103v-346q0 -31 14 -42.5t40 -11.5h74v-53h-42q-47 0 -74 5.5t-42 22t-19 38.5t-4 62v325h-107zM331 507h-16v146l10 47h56z" glyph-name="tcaron" horiz-adv-x="401" unicode="ť"/><glyph d="M269 647h-249v53h550v-53h-214q-34 0 -57 25l-2 -2q25 -23 25 -57v-194h111v-53h-111v-366h-53v366h-111v53h111v228z" glyph-name="Tbar" horiz-adv-x="590" unicode="Ŧ"/><glyph d="M10 506h8q31 0 67 44.5t36 88.5l55 1q-2 -72 -54 -120q-11 -9 -65 -20v-2q40 8 68 8h148v-53h-103v-140h115v-53h-115v-153q0 -31 14 -42.5t40 -11.5h74v-53h-42q-47 0 -74 5.5t-42 22t-19 38.5t-4 62v132h-107v53h107v140h-107v53z" glyph-name="tbar" horiz-adv-x="295" unicode="ŧ"/><glyph d="M30 293v407h53v-408q0 -115 61 -181t168 -66t168 66.5t61 180.5v408h53v-407q0 -146 -79.5 -223.5t-202.5 -77.5t-202.5 77.5t-79.5 223.5zM245 866q38 0 77.5 -28.5t56.5 -29.5q49 -3 71 58l47 -23q-11 -34 -41.5 -61.5t-79.5 -24.5q-34 2 -66.5 29t-55.5 28 q-31 1 -55.5 -15t-35.5 -40l-43 32q38 75 125 75z" glyph-name="Utilde" horiz-adv-x="624" unicode="Ũ"/><glyph d="M30 218v282h53v-282q0 -89 29.5 -130.5t96.5 -41.5q12 0 27.5 5.5t36.5 23t37.5 45t28.5 78t12 115.5v187h53v-500h-53v77q0 31 9 67h-2q-19 -72 -57 -112t-108 -40q-163 0 -163 226zM48 591q38 75 125 75q38 0 77.5 -28.5t56.5 -29.5q49 -3 71 58l47 -23 q-11 -34 -41.5 -61.5t-79.5 -24.5q-34 2 -66.5 29t-55.5 28q-31 1 -55.5 -15t-35.5 -40z" glyph-name="utilde" horiz-adv-x="481" unicode="ũ"/><glyph d="M30 293v407h53v-408q0 -115 61 -181t168 -66t168 66.5t61 180.5v408h53v-407q0 -146 -79.5 -223.5t-202.5 -77.5t-202.5 77.5t-79.5 223.5zM451 787h-275v53h275v-53z" glyph-name="Umacron" horiz-adv-x="624" unicode="Ū"/><glyph d="M30 500h53v-282q0 -89 29.5 -130.5t96.5 -41.5q12 0 27.5 5.5t36.5 23t37.5 45t28.5 78t12 115.5v187h53v-500h-53v77q0 31 9 67h-2q-19 -72 -57 -112t-108 -40q-163 0 -163 226v282zM379 587h-275v53h275v-53z" glyph-name="umacron" horiz-adv-x="481" unicode="ū"/><glyph d="M30 293v407h53v-408q0 -115 61 -181t168 -66t168 66.5t61 180.5v408h53v-407q0 -146 -79.5 -223.5t-202.5 -77.5t-202.5 77.5t-79.5 223.5zM159 899h53q0 -45 26.5 -74t73.5 -29t73.5 29t26.5 74h53q0 -67 -43.5 -111.5t-109.5 -44.5t-109.5 44.5t-43.5 111.5z" glyph-name="Ubreve" horiz-adv-x="624" unicode="Ŭ"/><glyph d="M30 500h53v-282q0 -89 29.5 -130.5t96.5 -41.5q12 0 27.5 5.5t36.5 23t37.5 45t28.5 78t12 115.5v187h53v-500h-53v77q0 31 9 67h-2q-19 -72 -57 -112t-108 -40q-163 0 -163 226v282zM87 699h53q0 -45 26.5 -74t73.5 -29t73.5 29t26.5 74h53q0 -67 -43.5 -111.5 t-109.5 -44.5t-109.5 44.5t-43.5 111.5z" glyph-name="ubreve" horiz-adv-x="481" unicode="ŭ"/><glyph d="M30 293v407h53v-408q0 -115 61 -181t168 -66t168 66.5t61 180.5v408h53v-407q0 -146 -79.5 -223.5t-202.5 -77.5t-202.5 77.5t-79.5 223.5zM312 925q38 0 64 -26.5t26 -63.5q0 -38 -26 -64.5t-64 -26.5t-64.5 26.5t-26.5 64.5t26.5 64t64.5 26zM253 835q0 -24 17.5 -41.5 t41.5 -17.5q23 0 40.5 17.5t17.5 41.5q0 23 -17.5 40.5t-40.5 17.5q-24 0 -41.5 -17.5t-17.5 -40.5z" glyph-name="Uring" horiz-adv-x="624" unicode="Ů"/><glyph d="M30 500h53v-282q0 -89 29.5 -130.5t96.5 -41.5q12 0 27.5 5.5t36.5 23t37.5 45t28.5 78t12 115.5v187h53v-500h-53v77q0 31 9 67h-2q-19 -72 -57 -112t-108 -40q-163 0 -163 226v282zM149 635q0 38 26.5 64t64.5 26t64 -26.5t26 -63.5q0 -38 -26 -64.5t-64 -26.5 t-64.5 26.5t-26.5 64.5zM181 635q0 -24 17.5 -41.5t41.5 -17.5q23 0 40.5 17.5t17.5 41.5q0 23 -17.5 40.5t-40.5 17.5q-24 0 -41.5 -17.5t-17.5 -40.5z" glyph-name="uring" horiz-adv-x="481" unicode="ů"/><glyph d="M30 293v407h53v-408q0 -115 61 -181t168 -66t168 66.5t61 180.5v408h53v-407q0 -146 -79.5 -223.5t-202.5 -77.5t-202.5 77.5t-79.5 223.5zM349 758l58 142h68l-97 -142h-29zM219 758l58 142h68l-97 -142h-29z" glyph-name="Uhungarumlaut" horiz-adv-x="624" unicode="Ű"/><glyph d="M30 218v282h53v-282q0 -89 29.5 -130.5t96.5 -41.5q12 0 27.5 5.5t36.5 23t37.5 45t28.5 78t12 115.5v187h53v-500h-53v77q0 31 9 67h-2q-19 -72 -57 -112t-108 -40q-163 0 -163 226zM277 558l58 142h68l-97 -142h-29zM147 558l58 142h68l-97 -142h-29z" glyph-name="uhungarumlaut" horiz-adv-x="481" unicode="ű"/><glyph d="M30 700h53v-408q0 -115 61 -181t168 -66t168 66.5t61 180.5v408h53v-407q0 -142 -78 -222q-32 -41 -44.5 -83t0.5 -70.5t54 -28.5q18 0 47 8l33 -39q-26 -21 -78 -21q-42 0 -72.5 16.5t-43 56t20.5 105.5q-57 -23 -121 -23q-123 0 -202.5 77.5t-79.5 223.5v407z" glyph-name="Uogonek" horiz-adv-x="624" unicode="Ų"/><glyph d="M193 -8q-163 0 -163 226v282h53v-282q0 -89 29.5 -130.5t96.5 -41.5q12 0 27.5 5.5t36.5 23t37.5 45t28.5 78t12 115.5v187h53v-498h1l-1 -1v-1q-37 -41 -54 -87t-5 -78t54 -32q24 0 48 8l33 -39q-27 -22 -78 -22q-28 0 -52 7.5t-42 26.5t-22.5 46.5t11 71.5t54.5 98v77 q0 31 9 67h-2q-19 -72 -57 -112t-108 -40z" glyph-name="uogonek" horiz-adv-x="481" unicode="ų"/><glyph d="M241 0l-219 700h56l207 -661q3 -9 5 -35h2q-2 17 2 35l158 661h105l156 -662q2 -10 2 -33h2q0 16 5 33l207 662h56l-219 -700h-99l-162 685v11h-2v-11l-163 -685h-99zM308 781l127 119h81l127 -119h-79l-88 84l-89 -84h-79z" glyph-name="Wcircumflex" horiz-adv-x="1006" unicode="Ŵ"/><glyph d="M177 0l-157 500h58l133 -432q9 -27 9 -63h2q0 34 8 63l128 432h82l138 -432q9 -27 9 -63h2q0 34 8 63l135 432h58l-157 -500h-90l-132 417q-11 35 -11 74h-2q0 -41 -9 -74l-123 -417h-89zM190 581l127 119h81l127 -119h-79l-88 84l-89 -84h-79z" glyph-name="wcircumflex" horiz-adv-x="714" unicode="ŵ"/><glyph d="M15 699h67l203 -270q22 -28 22 -68h2q0 40 22 68l203 270h67l-266 -354v-345h-53v345zM220 781h-79l127 119h81l127 -119h-79l-88 84z" glyph-name="Ycircumflex" horiz-adv-x="616" unicode="Ŷ"/><glyph d="M70 500h54l137 -367q12 -33 12 -74h2q0 42 13 74l139 367h55l-214 -571q-25 -76 -72 -110t-94 -34h-27v53h27q24 0 57.5 22t50.5 67l31 102zM80 581l127 119h81l127 -119h-79l-88 84l-89 -84h-79z" glyph-name="ycircumflex" horiz-adv-x="497" unicode="ŷ"/><glyph d="M15 699h67l203 -270q22 -28 22 -68h2q0 40 22 68l203 270h67l-266 -354v-345h-53v345zM354 900h53v-60h-53v60zM215 900h53v-60h-53v60z" glyph-name="Ydieresis" horiz-adv-x="616" unicode="Ÿ"/><glyph d="M22 0v89l494 530q25 27 61 42l-1 2q-36 -16 -72 -16h-474v53h551v-89l-493 -530q-25 -27 -61 -42l1 -2q37 16 72 16h490v-53h-568zM267 758l58 142h61l-77 -142h-42z" glyph-name="Zacute" horiz-adv-x="612" unicode="Ź"/><glyph d="M25 79l331 341q23 25 61 41v2q-37 -16 -73 -16h-311v53h394v-79l-327 -341q-23 -25 -61 -41v-2q37 16 73 16h318v-53h-405v79zM190 558l58 142h61l-77 -142h-42z" glyph-name="zacute" horiz-adv-x="455" unicode="ź"/><glyph d="M22 0v89l494 530q25 27 61 42l-1 2q-36 -16 -72 -16h-474v53h551v-89l-493 -530q-25 -27 -61 -42l1 -2q37 16 72 16h490v-53h-568zM271 900h70v-65h-70v65z" glyph-name="Zdotaccent" horiz-adv-x="612" unicode="Ż"/><glyph d="M430 0h-405v79l331 341q23 25 61 41v2q-37 -16 -73 -16h-311v53h394v-79l-327 -341q-23 -25 -61 -41v-2q37 16 73 16h318v-53zM194 700h70v-65h-70v65z" glyph-name="zdotaccent" horiz-adv-x="455" unicode="ż"/><glyph d="M22 89l494 530q25 27 61 42l-1 2q-36 -16 -72 -16h-474v53h551v-89l-493 -530q-25 -27 -61 -42l1 -2q37 16 72 16h490v-53h-568v89zM137 900h79l89 -85l88 85h79l-127 -119h-81z" glyph-name="Zcaron" horiz-adv-x="612" unicode="Ž"/><glyph d="M25 0v79l331 341q23 25 61 41v2q-37 -16 -73 -16h-311v53h394v-79l-327 -341q-23 -25 -61 -41v-2q37 16 73 16h318v-53h-405zM60 700h79l89 -85l88 85h79l-127 -119h-81z" glyph-name="zcaron" horiz-adv-x="455" unicode="ž"/><glyph d="M22 185l51 16q6 -70 62.5 -111.5t148.5 -41.5q99 0 153 43t54 121q0 40 -25 66.5t-65 39t-88.5 21t-97 18.5t-88.5 25.5t-65 47.5t-25 80q0 92 67.5 147t176.5 53q93 -2 156.5 -47t75.5 -122l-51 -17q-16 133 -181 133q-89 0 -140 -39t-51 -108q0 -42 33.5 -66.5 t84 -32.5t109.5 -19.5t109.5 -26t84 -53.5t33.5 -100q0 -38 -12 -73t-39 -69t-81 -54.5t-128 -20.5q-71 0 -122.5 16.5t-80 46t-42 60.5t-17.5 67zM223 -192l58 142h62l-77 -142h-43z" glyph-name="uni0218" horiz-adv-x="566" unicode="Ș"/><glyph d="M21 135l49 16q10 -57 48 -80.5t113 -23.5q81 0 120 26t39 87q0 30 -37 45.5t-90 21t-106 14.5t-90 37t-37 77q0 50 22.5 83.5t59.5 47t63.5 17.5t55.5 4q177 0 200 -118l-51 -14q-11 46 -45 62.5t-104 16.5q-79 0 -113.5 -21t-34.5 -78q0 -32 37 -47.5t90 -21.5t106 -15 t90 -36t37 -75q0 -43 -17.5 -75.5t-41 -49t-55.5 -26.5t-54 -12.5t-44 -2.5q-26 0 -53 4.5t-63.5 17t-62 43.5t-31.5 76zM173 -192l58 142h62l-77 -142h-43z" glyph-name="uni0219" horiz-adv-x="465" unicode="ș"/><glyph d="M269 647h-249v53h550v-53h-214q-34 0 -57 25l-2 -2q25 -23 25 -57v-613h-53v647zM235 -192l58 142h62l-77 -142h-43z" glyph-name="uni021A" horiz-adv-x="590" unicode="Ț"/><glyph d="M10 453v53h8q31 0 67 44.5t36 88.5l55 1q-2 -72 -54 -120q-11 -9 -65 -20v-2q40 8 68 8h148v-53h-103v-346q0 -31 14 -42.5t40 -11.5h74v-53h-42q-47 0 -74 5.5t-42 22t-19 38.5t-4 62v325h-107zM131 -192h-43l58 142h62z" glyph-name="uni021B" horiz-adv-x="295" unicode="ț"/><glyph d="M108 581h-78l127 119h81l127 -119h-76l-92 85z" glyph-name="circumflex" horiz-adv-x="395" unicode="ˆ"/><glyph d="M30 700h76l92 -85l89 85h78l-127 -119h-81z" glyph-name="caron" horiz-adv-x="359" unicode="ˇ"/><glyph d="M30 591v53h316v-53h-316z" glyph-name="uni02C9" horiz-adv-x="377" unicode="ˉ"/><glyph d="M20 699h52q0 -42 27.5 -72.5t73.5 -30.5q47 0 73.5 30.5t26.5 72.5h53q0 -67 -43.5 -111.5t-109.5 -44.5t-109.5 44.5t-43.5 111.5z" glyph-name="breve" horiz-adv-x="346" unicode="˘"/><glyph d="M80 635h-70v65h70v-65z" glyph-name="dotaccent" horiz-adv-x="90" unicode="˙"/><glyph d="M20 635q0 38 26.5 64t64.5 26q37 0 63.5 -26.5t26.5 -63.5q0 -38 -26 -64.5t-64 -26.5t-64.5 26.5t-26.5 64.5zM73 635q0 -16 11 -27t27 -11q15 0 26 11t11 27q0 15 -11 26t-26 11q-16 0 -27 -11t-11 -26z" glyph-name="ring" horiz-adv-x="221" unicode="˚"/><glyph d="M87 4h53q-10 -10 -27.5 -39.5t-33 -66.5t-5 -65t54.5 -28q19 0 46 6l40 -37q-27 -22 -78 -22q-28 0 -52 7.5t-42 26.5t-22.5 47t11.5 72.5t55 98.5z" glyph-name="ogonek" horiz-adv-x="235" unicode="˛"/><glyph d="M52 589l-42 33q23 46 51.5 65t77.5 16q37 -2 71 -29t51 -28q25 -1 39 11t24 40l54 -15q-11 -34 -44.5 -62.5t-84.5 -25.5q-34 2 -66.5 29t-55.5 28q-15 1 -27.5 -4t-21.5 -15.5t-14 -19.5t-12 -23z" glyph-name="tilde" horiz-adv-x="397" unicode="˜"/><glyph d="M179 558h-29l58 142h68zM49 558h-29l58 142h68z" glyph-name="hungarumlaut" horiz-adv-x="296" unicode="˝"/><glyph d="M-88 700l58 -142h-54l-77 142h73z" glyph-name="gravecomb" horiz-adv-x="0" unicode="̀"/><glyph d="M-86 558h-42l58 142h61z" glyph-name="acutecomb" horiz-adv-x="0" unicode="́"/><glyph d="M-286 581h-79l127 119h81l127 -119h-79l-88 84z" glyph-name="uni0302" horiz-adv-x="0" unicode="̂"/><glyph d="M-344 590l-43 32q37 75 125 75q38 0 77.5 -28.5t56.5 -29.5q49 -3 71 58l47 -23q-11 -34 -41.5 -61.5t-79.5 -24.5q-34 2 -66.5 29t-55.5 28q-31 1 -55.5 -15t-35.5 -40z" glyph-name="tildecomb" horiz-adv-x="0" unicode="̃"/><glyph d="M-295 587v53h275v-53h-275z" glyph-name="uni0304" horiz-adv-x="0" unicode="̄"/><glyph d="M-326 699h53q0 -45 26.5 -74t73.5 -29t73.5 29t26.5 74h53q0 -67 -43.5 -111.5t-109.5 -44.5t-109.5 44.5t-43.5 111.5z" glyph-name="uni0306" horiz-adv-x="0" unicode="̆"/><glyph d="M-25 635h-70v65h70v-65z" glyph-name="uni0307" horiz-adv-x="0" unicode="̇"/><glyph d="M-170 640h-53v60h53v-60zM-84 700h53v-60h-53v60z" glyph-name="uni0308" horiz-adv-x="0" unicode="̈"/><glyph d="M-201 635q0 38 26.5 64t64.5 26t64 -26.5t26 -63.5q0 -38 -26 -64.5t-64 -26.5t-64.5 26.5t-26.5 64.5zM-169 635q0 -24 17.5 -41.5t41.5 -17.5q23 0 40.5 17.5t17.5 41.5q0 23 -17.5 40.5t-40.5 17.5q-24 0 -41.5 -17.5t-17.5 -40.5z" glyph-name="uni030A" horiz-adv-x="0" unicode="̊"/><glyph d="M-141 558h-29l58 142h68zM-271 558h-29l58 142h68z" glyph-name="uni030B" horiz-adv-x="0" unicode="̋"/><glyph d="M-365 700h79l89 -85l88 85h79l-127 -119h-81z" glyph-name="uni030C" horiz-adv-x="0" unicode="̌"/><glyph d="M-147 -192h-43l58 142h62z" glyph-name="uni0326" horiz-adv-x="0" unicode="̦"/><glyph d="M-262 -211l36 37q12 -21 38.5 -34t52.5 -13q27 0 44.5 14.5t17.5 43.5q1 49 -130 49l43 118h57l-35 -75q48 0 83 -22.5t35 -69.5q0 -52 -34.5 -80t-84.5 -28q-37 0 -70.5 16t-52.5 44z" glyph-name="uni0327" horiz-adv-x="0" unicode="̧"/><glyph d="M-148 4h53q-38 -42 -55 -88t-5 -78.5t55 -32.5q23 0 47 8l33 -39q-27 -22 -78 -22q-28 0 -52 7.5t-42 26.5t-22.5 47t11.5 72.5t55 98.5z" glyph-name="uni0328" horiz-adv-x="0" unicode="̨"/><glyph d="M30 -132v350v282h53v-282q0 -89 29.5 -130.5t96.5 -41.5q12 0 27.5 5.5t36.5 23t37.5 45t28.5 78t12 115.5v187h53v-500h-53v77q0 31 9 67h-2q-19 -72 -57 -112t-108 -40q-80 0 -110 67v-191h-53z" glyph-name="uni03BC" horiz-adv-x="434" unicode="μ"/><glyph d="M241 0l-219 700h56l207 -661q3 -9 5 -35h2q-2 17 2 35l158 661h105l156 -662q2 -10 2 -33h2q0 16 5 33l207 662h56l-219 -700h-99l-162 685v11h-2v-11l-163 -685h-99zM383 900h73l58 -142h-54z" glyph-name="Wgrave" horiz-adv-x="1006" unicode="Ẁ"/><glyph d="M20 500h58l133 -432q9 -27 9 -63h2q0 34 8 63l128 432h82l138 -432q9 -27 9 -63h2q0 34 8 63l135 432h58l-157 -500h-90l-132 417q-11 35 -11 74h-2q0 -41 -9 -74l-123 -417h-89zM342 558l-77 142h73l58 -142h-54z" glyph-name="wgrave" horiz-adv-x="714" unicode="ẁ"/><glyph d="M22 700h56l207 -661q3 -9 5 -35h2q-2 17 2 35l158 661h105l156 -662q2 -10 2 -33h2q0 16 5 33l207 662h56l-219 -700h-99l-162 685v11h-2v-11l-163 -685h-99zM438 758l58 142h61l-77 -142h-42z" glyph-name="Wacute" horiz-adv-x="1006" unicode="Ẃ"/><glyph d="M20 500h58l133 -432q9 -27 9 -63h2q0 34 8 63l128 432h82l138 -432q9 -27 9 -63h2q0 34 8 63l135 432h58l-157 -500h-90l-132 417q-11 35 -11 74h-2q0 -41 -9 -74l-123 -417h-89zM320 558l58 142h61l-77 -142h-42z" glyph-name="wacute" horiz-adv-x="714" unicode="ẃ"/><glyph d="M22 700h56l207 -661q3 -9 5 -35h2q-2 17 2 35l158 661h105l156 -662q2 -10 2 -33h2q0 16 5 33l207 662h56l-219 -700h-99l-162 685v11h-2v-11l-163 -685h-99zM574 840h-53v60h53v-60zM435 840h-53v60h53v-60z" glyph-name="Wdieresis" horiz-adv-x="1006" unicode="Ẅ"/><glyph d="M20 500h58l133 -432q9 -27 9 -63h2q0 34 8 63l128 432h82l138 -432q9 -27 9 -63h2q0 34 8 63l135 432h58l-157 -500h-90l-132 417q-11 35 -11 74h-2q0 -41 -9 -74l-123 -417h-89zM456 640h-53v60h53v-60zM264 700h53v-60h-53v60z" glyph-name="wdieresis" horiz-adv-x="714" unicode="ẅ"/><glyph d="M30 276v53h463v-53h-463z" glyph-name="endash" horiz-adv-x="523" unicode="–"/><glyph d="M30 276v53h747v-53h-747z" glyph-name="emdash" horiz-adv-x="807" unicode="—"/><glyph d="M20 507v146l10 47h56l-50 -193h-16z" glyph-name="quoteleft" horiz-adv-x="106" unicode="‘"/><glyph d="M86 700l-50 -193h-16v146l10 47h56z" glyph-name="quoteright" horiz-adv-x="106" unicode="’"/><glyph d="M30 62h70v-70q0 -47 -12.5 -63.5t-47.5 -16.5h-10v26h10q15 0 23 9t9.5 18.5t1.5 26.5h-44v70z" glyph-name="quotesinglbase" horiz-adv-x="130" unicode="‚"/><glyph d="M30 549v70q0 47 12.5 63.5t47.5 16.5h10v-26h-10q-15 0 -23 -9t-9.5 -18.5t-1.5 -26.5h44v-70h-70zM123 619q0 47 13 63.5t47 16.5h10v-26h-10q-15 0 -23 -9t-9.5 -18.5t-1.5 -26.5h44v-70h-70v70z" glyph-name="quotedblleft" horiz-adv-x="223" unicode="“"/><glyph d="M123 699h70v-70q0 -47 -12.5 -63.5t-47.5 -16.5h-10v25h10q12 0 19.5 4.5t10 13.5t3.5 16.5t1 20.5h-44v70zM74 629h-44v70h70v-70q0 -47 -12.5 -63.5t-47.5 -16.5h-10v25h10q12 0 19.5 4.5t10 13.5t3.5 16.5t1 20.5z" glyph-name="quotedblright" horiz-adv-x="223" unicode="”"/><glyph d="M168 67h70v-70q0 -47 -12.5 -63t-47.5 -16h-10v25h10q15 0 23 9t9.5 18.5t1.5 26.5h-44v70zM75 67h70v-70q0 -47 -12.5 -63t-47.5 -16h-10v25h10q15 0 23 9t9.5 18.5t1.5 26.5h-44v70z" glyph-name="quotedblbase" horiz-adv-x="306" unicode="„"/><glyph d="M112 563h-97v53h97v84h53v-84h93v-53h-93v-219h-53v219z" glyph-name="dagger" horiz-adv-x="273" unicode="†"/><glyph d="M15 563v53h95v84h53v-84h95v-53h-95v-64h95v-53h-95v-102h-53v102h-95v53h95v64h-95z" glyph-name="daggerdbl" horiz-adv-x="273" unicode="‡"/><glyph d="M20 294q0 58 41 99.5t100 41.5t100 -41.5t41 -99.5t-41 -99.5t-100 -41.5t-100 41.5t-41 99.5z" glyph-name="bullet" horiz-adv-x="322" unicode="•"/><glyph d="M404 -8v65h70v-65h-70zM212 -8v65h70v-65h-70zM20 57h70v-65h-70v65z" glyph-name="ellipsis" horiz-adv-x="530" unicode="…"/><glyph d="M161 410q-40 0 -71.5 16t-47.5 41.5t-23.5 56.5t0 62t23.5 56.5t47.5 41.5t71.5 16t71.5 -16t47.5 -41.5t23.5 -56.5t0 -62t-23.5 -56.5t-47.5 -41.5t-71.5 -16zM60 0l463 700h63l-463 -700h-63zM161 460q44 0 68.5 29.5t24.5 65.5t-24.5 65.5t-68.5 29.5t-68.5 -29.5 t-24.5 -65.5t24.5 -65.5t68.5 -29.5zM481 0q-46 0 -80 21.5t-49.5 53.5t-15.5 70t15.5 70t49.5 53.5t80 21.5t80 -21.5t49.5 -53.5t15.5 -70t-15.5 -70t-49.5 -53.5t-80 -21.5zM481 50q44 0 69 29.5t25 65.5t-25 65.5t-69 29.5t-69 -29.5t-25 -65.5t25 -65.5t69 -29.5z M841 0q-46 0 -80 21.5t-49.5 53.5t-15.5 70t15.5 70t49.5 53.5t80 21.5t80 -21.5t49.5 -53.5t15.5 -70t-15.5 -70t-49.5 -53.5t-80 -21.5zM841 50q44 0 69 29.5t25 65.5t-25 65.5t-69 29.5t-69 -29.5t-25 -65.5t25 -65.5t69 -29.5z" glyph-name="perthousand" horiz-adv-x="1019" unicode="‰"/><glyph d="M235 88l-220 144v89l220 144v-63l-191 -126l191 -126v-62z" glyph-name="guilsinglleft" horiz-adv-x="250" unicode="‹"/><glyph d="M15 151l191 126l-191 126v62l220 -144v-89l-220 -144v63z" glyph-name="guilsinglright" horiz-adv-x="250" unicode="›"/><glyph d="M15 0l463 700h64l-463 -700h-64z" glyph-name="fraction" horiz-adv-x="557" unicode="⁄"/><glyph d="M346 -7q-145 -1 -234.5 90.5t-89.5 266.5q0 176 90 267.5t234 89.5q99 -2 175 -45t115 -126l-46 -26q-30 67 -99.5 105t-144.5 39q-95 1 -166.5 -49.5t-93.5 -149.5h224l-9 -53h-224q-6 -37 -1 -78h234l-11 -53h-218q15 -104 88.5 -165t176.5 -60q75 1 144.5 39.5 t99.5 105.5l46 -27q-40 -84 -116 -127t-174 -44z" glyph-name="Euro" horiz-adv-x="658" unicode="€"/><glyph d="M95 610v90h27l27 -63l28 63h27v-90h-26v36l-17 -36h-24l-17 37v-37h-25zM36 674h-26v26h78v-26h-26v-64h-26v64z" glyph-name="trademark" horiz-adv-x="214" unicode="™"/><glyph d="M21 347l298 298l36 -39l-233 -233h599v-53h-599l234 -237l-37 -34z" glyph-name="arrowleft" horiz-adv-x="740" unicode="←"/><glyph d="M318 700l298 -298l-39 -36l-232 233v-599h-53v599l-238 -234l-34 37z" glyph-name="arrowup" horiz-adv-x="636" unicode="↑"/><glyph d="M720 347l-298 -298l-36 39l233 232h-599v53h599l-234 238l37 34z" glyph-name="arrowright" horiz-adv-x="740" unicode="→"/><glyph d="M318 0l-298 298l39 36l232 -233v599h53v-599l238 234l34 -37z" glyph-name="arrowdown" horiz-adv-x="636" unicode="↓"/><glyph d="M566 595l36 36l298 -298l-298 -298l-38 37l235 234h-678l233 -232l-36 -39l-298 298l298 298l35 -36l-232 -236l679 -1z" glyph-name="arrowboth" horiz-adv-x="920" unicode="↔"/><glyph d="M57 434l-36 36l298 298l298 -298l-37 -38l-234 235v-678l232 233l39 -36l-298 -298l-298 298l36 35l236 -232l1 679z" glyph-name="arrowupdn" horiz-adv-x="642" unicode="↕"/><glyph d="M28 615h421l-2 -53h-329l424 -423l-38 -38l-424 424l-2 -334l-50 2v422z" glyph-name="uni2196" horiz-adv-x="569" unicode="↖"/><glyph d="M542 598v-422l-53 2v329l-424 -423l-37 37l424 424l-334 2l2 51h422z" glyph-name="uni2197" horiz-adv-x="569" unicode="↗"/><glyph d="M540 29h-422l2 53l329 -1l-423 424l37 37l424 -423l3 333l50 -2v-421z" glyph-name="uni2198" horiz-adv-x="569" unicode="↘"/><glyph d="M23 29v421l53 -2l-1 -329l424 424l37 -38l-423 -423l333 -3l-2 -50h-421z" glyph-name="uni2199" horiz-adv-x="569" unicode="↙"/><glyph d="M201 4q-89 14 -144.5 81.5t-36.5 178.5q16 90 78 137.5t142 47.5q73 0 133 -38t80 -105q12 89 3 153t-37 107.5t-58.5 65.5t-61.5 28l13 44q82 -15 133 -78t62.5 -153.5t-5.5 -200.5q-25 -138 -91 -205t-162 -67q-27 0 -48 4zM71 248q-13 -74 30.5 -128.5t125.5 -67.5 q59 -9 122.5 32t76.5 112q12 70 -38.5 127.5t-109.5 68.5q-16 3 -33 3q-63 0 -112.5 -41t-61.5 -106z" glyph-name="partialdiff" horiz-adv-x="528" unicode="∂"/><glyph d="M22 334q0 113 80.5 193.5t194.5 80.5t194.5 -80.5t80.5 -193.5q0 -114 -80.5 -194.5t-194.5 -80.5t-194.5 80.5t-80.5 194.5zM160 160q69 -49 137 -49q92 0 157.5 65t65.5 158q0 65 -49 138zM297 556q-92 0 -157.5 -65t-65.5 -157q0 -70 48 -136l312 312q-68 46 -137 46z " glyph-name="emptyset" horiz-adv-x="594" unicode="∅"/><glyph d="M15 648v52h605v-52h-169v-648h-52v648h-160v-648h-52v648h-172z" glyph-name="product" horiz-adv-x="635" unicode="∏"/><glyph d="M523 0h-493l177 358l-177 358h493v-53h-407l150 -305l-150 -305h407v-53z" glyph-name="summation" horiz-adv-x="538" unicode="∑"/><glyph d="M30 276v53h463v-53h-463z" glyph-name="minus" horiz-adv-x="523" unicode="−"/><glyph d="M558 571l73 -163h-58l-28 63l-293 -591h-91l-145 322h58l131 -298l331 667h22z" glyph-name="radical" horiz-adv-x="645" unicode="√"/><glyph d="M179 164q-67 0 -112 40.5t-45 106.5q0 67 45 107t112 40q89 0 191 -98q49 46 94 72t98 26q66 0 111 -40.5t45 -106.5q0 -67 -44.5 -107t-111.5 -40q-94 0 -192 94q-96 -94 -191 -94zM561 405q-34 0 -68 -16t-54.5 -33t-52.5 -48q47 -45 86 -68t90 -23q47 0 75 23.5 t28 70.5q0 48 -28 71t-76 23zM179 405q-48 0 -76 -23.5t-28 -70.5q0 -46 29 -70t75 -24q49 0 87.5 23.5t83.5 67.5q-32 31 -51.5 47.5t-53 33t-66.5 16.5z" glyph-name="infinity" horiz-adv-x="740" unicode="∞"/><glyph d="M15 -72h22q28 0 36.5 14.5t14.5 57.5l80 662q9 83 39 121.5t112 38.5h22v-53h-44q-22 0 -36.5 -9.5t-22.5 -28.5t-11 -34t-6 -40l-75 -622q-3 -34 -6.5 -55t-11 -43t-18.5 -34t-29.5 -20t-43.5 -8h-22v53z" glyph-name="integral" horiz-adv-x="356" unicode="∫"/><glyph d="M133 309q27 3 54.5 -12t46 -35t40 -36t37.5 -14q39 2 56.5 27t14.5 51l50 10q6 -58 -24 -96t-88 -44q-26 -2 -49.5 9.5t-40.5 27.5t-33.5 31.5t-36 23t-40.5 1.5q-17 -6 -34 -29.5t-16 -45.5l-49 -9q-6 56 24 95t88 45zM133 469q27 3 54.5 -12.5t46 -35.5t40 -35.5 t37.5 -13.5q39 2 56.5 27t14.5 51l50 10q6 -58 -24 -96t-88 -44q-26 -2 -49.5 9.5t-40.5 27.5t-33.5 31.5t-36 23t-40.5 1.5q-17 -6 -34 -29.5t-16 -45.5l-49 -9q-6 55 23.5 94t88.5 46z" glyph-name="approxequal" horiz-adv-x="453" unicode="≈"/><glyph d="M188 190h-158v53h178l45 117h-223v53h245l46 116h57l-46 -116h161v-53h-183l-45 -117h228v-53h-248l-48 -112h-57z" glyph-name="notequal" horiz-adv-x="525" unicode="≠"/><glyph d="M15 351l322 144v-58l-290 -130l290 -133v-56l-322 144v89zM15 53h322v-53h-322v53z" glyph-name="lessequal" horiz-adv-x="352" unicode="≤"/><glyph d="M306 307l-291 130v58l322 -144v-89l-322 -144v56zM15 53h322v-53h-322v53z" glyph-name="greaterequal" horiz-adv-x="352" unicode="≥"/><glyph d="M164 547h89l144 -220l-144 -220h-89l-144 220zM84 327l125 -191l124 191l-124 191z" glyph-name="lozenge" horiz-adv-x="417" unicode="◊"/><glyph d="M10 506h108q-15 0 -33.5 19.5t-18.5 50.5q0 51 49.5 87.5t157.5 36.5v-54q-70 0 -112 -18.5t-42 -50.5t32 -51.5t64 -19.5h158q-18 0 -54 34t-33 80q5 65 62.5 99.5t179.5 39.5v-54q-87 6 -135.5 -17.5t-53.5 -66.5q-5 -41 21.5 -69t56 -37t53.5 -9h58v-53h-105v-453h-53 v453h-203v-453h-53v453h-104v53z" glyph-name="uniFB00" horiz-adv-x="540" unicode="ﬀ"/><glyph d="M10 453v53h108q-15 0 -33.5 19.5t-18.5 50.5q0 38 29.5 71t94.5 33q77 0 186 -52v-54q-102 59 -174 59q-40 0 -61.5 -17.5t-21.5 -38.5q0 -32 32 -51.5t64 -19.5h58v-53h-106v-453h-53v453h-104zM327 500h53v-500h-53v500z" glyph-name="uniFB01" horiz-adv-x="458" unicode="ﬁ"/><glyph d="M374 453h-101v53h105q-14 0 -33 26t-19 58q0 37 44 77t113 40q73 0 157 -51v-54q-88 60 -159 60q-47 0 -74.5 -23t-27.5 -48q0 -32 33 -58.5t63 -26.5h58v-53h-106v-453h-53v453zM114 453h-104v53h108q-14 0 -33 26t-19 58q0 40 34 77t101 37q62 0 140 -35l-25 -41 q-67 31 -117 31q-41 0 -60.5 -20.5t-19.5 -47.5q0 -32 33 -58.5t63 -26.5h58v-53h-106v-453h-53v453zM640 0h-53v500h53v-500z" glyph-name="uniFB03" horiz-adv-x="693" unicode="ﬃ"/><glyph d="M163 507h-16v146l10 47h56zM20 507v146l10 47h56l-50 -193h-16z" glyph-name="glyph390" horiz-adv-x="274"/><glyph d="M238 507l-50 193h56l10 -47v-146h-16zM111 507l-50 193h56l10 -47v-146h-16z" glyph-name="glyph391" horiz-adv-x="274"/></font>
</defs>
</svg>
