<svg xmlns="http://www.w3.org/2000/svg">
<defs>
<font horiz-adv-x="225" id="ywftsvg"><font-face ascent="800" bbox="-383 -292 1416 963" cap-height="700" descent="-200" font-family="" font-stretch="normal" font-weight="800" panose-1="0 0 0 0 0 0 0 0 0 0" underline-position="0" underline-thickness="0" unicode-range="U+000D-FB03" units-per-em="1000" x-height="500"/><missing-glyph d="M348 23l50 188h64q-1 -14 -5 -43.5t-6 -44.5l35 88h63l-50 -188h-43l34 127l-51 -127h-30l15 124l-33 -124h-43zM237 101l9 32q6 21 10 32t12.5 24.5t22 19.5t33.5 6q38 0 43 -24.5t-8 -57.5l-9 -32q-7 -27 -13 -42t-22.5 -27.5t-42.5 -12.5q-38 0 -43 24.5t8 57.5z M102 90l15 55q9 35 26 52.5t52 17.5q37 0 42.5 -22.5t-7.5 -57.5l-1 -6h-49l7 26q4 16 5 25l-6 3l-9 -4l-7 -19l-23 -87l-3 -18l6 -4l8 4q8 18 13 43h49l-2 -7q-9 -36 -26 -54t-52 -18q-34 0 -41.5 19t3.5 52zM405 242h-49l51 189h49q31 0 44 -13q4 -18 -4 -49 q-8 -24 -13 -34q-17 -17 -57 -17zM402 498h-42l20 129h32l-17 -88q14 40 33 88h35q-4 -25 -17 -92q13 41 33 92h33l-49 -129h-42q4 44 8 68zM561 242h-85l50 189h82l-10 -38h-33l-9 -36h30l-9 -36h-31l-11 -41h36zM198 242h-49l40 151h-29l10 38h107l-10 -38h-29zM276 268 q19 69 7 163h45q-5 -58 -8 -75q10 25 34 75h44q-80 -121 -86 -189h-45q6 14 9 26zM276 551l6 22q7 29 17.5 42.5t36.5 13.5t29.5 -16.5t-5.5 -39.5l-6 -22q-7 -28 -17.5 -41.5t-36.5 -13.5t-29.5 16t5.5 39zM169 453l6 23h449l-6 -23h-449zM589 498h-34l35 129h34 q22 0 29.5 -7t1.5 -27q-3 -11 -9 -22q-10 -5 -17 -6q7 -1 12 -6l2 -8l-4 -19l-9 -34h-31l9 32q4 16 4 24l-8 2zM182 498l34 129h34q20 0 29 -9q4 -11 -2 -33q-2 -11 -9 -23q-11 -12 -39 -12l-14 -52h-33zM544 498h-60l35 129h59l-8 -30h-26l-6 -20h27l-8 -29h-26l-5 -19h26z M275 55l5 -4l8 4l7 21l23 87l3 17l-5 3l-7 -3q-5 -14 -6 -17l-24 -88zM72 23h-36l10 38h36zM302 520l4 -3l5 3l5 15l16 59l2 11l-4 3l-4 -2q-4 -8 -5 -12zM447 398l-13 -48h4l10 4q6 11 6 13l5 16v12zM235 572h2l7 2q0 1 2 4.5t2 5.5l3 10q1 2 1 5v4l-9 2zM609 576l9 2 q0 2 2 5t3 5l2 7v8l-8 2z" horiz-adv-x="526"/><glyph d="M348 23l50 188h64q-1 -14 -5 -43.5t-6 -44.5l35 88h63l-50 -188h-43l34 127l-51 -127h-30l15 124l-33 -124h-43zM237 101l9 32q6 21 10 32t12.5 24.5t22 19.5t33.5 6q38 0 43 -24.5t-8 -57.5l-9 -32q-7 -27 -13 -42t-22.5 -27.5t-42.5 -12.5q-38 0 -43 24.5t8 57.5z M102 90l15 55q9 35 26 52.5t52 17.5q37 0 42.5 -22.5t-7.5 -57.5l-1 -6h-49l7 26q4 16 5 25l-6 3l-9 -4l-7 -19l-23 -87l-3 -18l6 -4l8 4q8 18 13 43h49l-2 -7q-9 -36 -26 -54t-52 -18q-34 0 -41.5 19t3.5 52zM405 242h-49l51 189h49q31 0 44 -13q4 -18 -4 -49 q-8 -24 -13 -34q-17 -17 -57 -17zM402 498h-42l20 129h32l-17 -88q14 40 33 88h35q-4 -25 -17 -92q13 41 33 92h33l-49 -129h-42q4 44 8 68zM561 242h-85l50 189h82l-10 -38h-33l-9 -36h30l-9 -36h-31l-11 -41h36zM198 242h-49l40 151h-29l10 38h107l-10 -38h-29zM276 268 q19 69 7 163h45q-5 -58 -8 -75q10 25 34 75h44q-80 -121 -86 -189h-45q6 14 9 26zM276 551l6 22q7 29 17.5 42.5t36.5 13.5t29.5 -16.5t-5.5 -39.5l-6 -22q-7 -28 -17.5 -41.5t-36.5 -13.5t-29.5 16t5.5 39zM169 453l6 23h449l-6 -23h-449zM589 498h-34l35 129h34 q22 0 29.5 -7t1.5 -27q-3 -11 -9 -22q-10 -5 -17 -6q7 -1 12 -6l2 -8l-4 -19l-9 -34h-31l9 32q4 16 4 24l-8 2zM182 498l34 129h34q20 0 29 -9q4 -11 -2 -33q-2 -11 -9 -23q-11 -12 -39 -12l-14 -52h-33zM544 498h-60l35 129h59l-8 -30h-26l-6 -20h27l-8 -29h-26l-5 -19h26z M275 55l5 -4l8 4l7 21l23 87l3 17l-5 3l-7 -3q-5 -14 -6 -17l-24 -88zM72 23h-36l10 38h36zM302 520l4 -3l5 3l5 15l16 59l2 11l-4 3l-4 -2q-4 -8 -5 -12zM447 398l-13 -48h4l10 4q6 11 6 13l5 16v12zM235 572h2l7 2q0 1 2 4.5t2 5.5l3 10q1 2 1 5v4l-9 2zM609 576l9 2 q0 2 2 5t3 5l2 7v8l-8 2z" glyph-name=".notdef" horiz-adv-x="526"/><glyph glyph-name="glyph1" horiz-adv-x="0"/><glyph glyph-name="glyph1" horiz-adv-x="0"/><glyph glyph-name="space" horiz-adv-x="200" unicode=" "/><glyph d="M184 199l-11 206l80 295h164l-79 -295l-120 -206h-34zM52 -8h188l42 155h-188z" glyph-name="exclam" horiz-adv-x="296" unicode="!"/><glyph d="M189 632l18 68h183l-18 -68l-126 -213h-45zM415 419l-12 213l18 68h183l-18 -68l-126 -213h-45z" glyph-name="quotedbl" horiz-adv-x="436" unicode="&quot;"/><glyph d="M156 138h-128l98 151h123l64 108h-128l100 152h123l92 151h176l-92 -151h112l92 151h177l-93 -151h183l-100 -152h-178l-63 -108h181l-97 -151h-178l-83 -138h-176l83 138h-112l-83 -138h-176zM426 289h112l63 108h-112z" glyph-name="numbersign" horiz-adv-x="923" unicode="#"/><glyph d="M111 228l156 4q-10 -40 9.5 -58.5t70.5 -20.5l40 151q-32 4 -50 6.5t-44.5 8t-41 12.5t-31.5 17.5t-24.5 25.5t-13 35.5t-3 47.5t11.5 60q15 53 49.5 92.5t79.5 59.5t88.5 29.5t87.5 10.5l9 35h154l-10 -36q113 -2 160 -57.5t24 -153.5l-153 -4q7 33 -12 51t-57 20 l-38 -139q78 -5 133 -26t82.5 -65.5t10.5 -108.5q-20 -73 -55 -119t-105.5 -75.5t-180.5 -34.5l-11 -42h-153l11 42q-74 5 -121 26t-63.5 52.5t-19.5 71t10 82.5zM622 220q8 34 -12 49t-72 24l-38 -141q103 3 122 68zM424 442l33 122q-37 -2 -67 -19t-38 -44q-6 -25 10 -39 t62 -20z" glyph-name="dollar" horiz-adv-x="791" unicode="$"/><glyph d="M250 0h-221l774 700h221zM728 290q110 0 141 -69q26 -58 -17 -123q-50 -76 -151 -94q-25 -4 -51 -4q-110 0 -141 69q-26 58 17 123q50 76 151 94q25 4 51 4zM407 700q110 0 142 -69q26 -58 -18 -123q-49 -76 -150 -94q-25 -4 -51 -4q-110 0 -141 69q-26 58 17 123 q50 76 150 94q25 4 51 4zM354 501q49 0 70 39q19 34 -3 56q-13 13 -38 13q-48 0 -70 -39q-19 -34 3 -56q13 -13 38 -13zM675 92q48 0 69 38q19 33 -2 55q-13 13 -39 13q-48 0 -69 -38q-19 -33 2 -55q13 -13 39 -13z" glyph-name="percent" horiz-adv-x="864" unicode="%"/><glyph d="M317 0q-129 0 -192.5 55t-39.5 145q11 41 36 72t61 50.5t74.5 31.5t87.5 20q-90 13 -123.5 58t-18.5 101q22 80 116 123.5t240 43.5q118 0 181 -21t109 -67l-112 -85q-67 61 -209 61q-58 0 -100 -21.5t-52 -58.5q-10 -40 19 -66t91 -26l168 -1l24 87l159 -21l-18 -65h113 l-27 -102h-113l-85 -315h-164l43 161q-28 -75 -89 -117.5t-179 -42.5zM247 200q-9 -35 17 -60.5t82 -25.5q125 0 187.5 43t86.5 133l6 24h-132q-54 -2 -90.5 -6.5t-71 -16t-55.5 -34t-30 -57.5z" glyph-name="ampersand" horiz-adv-x="842" unicode="&amp;"/><glyph d="M200 419l-12 213l18 68h183l-18 -68l-126 -213h-45z" glyph-name="quotesingle" horiz-adv-x="220" unicode="'"/><glyph d="M147 -84q-4 6 -11.5 17.5t-22.5 50t-23.5 81t-6.5 108.5t20 135t51 134.5t67 110t65 79.5t51 52l20 16h161q-8 -6 -20.5 -17.5t-48 -50t-66 -81t-64 -108.5t-51.5 -135q-28 -123 -19 -210.5t34 -134.5l25 -47h-161z" glyph-name="parenleft" horiz-adv-x="356" unicode="("/><glyph d="M159 -84h-162q8 6 20.5 17.5t48 50t66 81t64.5 108.5t52 135t20.5 134.5t-6.5 110t-21 79.5t-23 52l-10 16h161q4 -6 11.5 -17.5t22.5 -50t23.5 -81t6.5 -108.5t-20 -135t-51 -134.5t-67 -110t-65 -79.5t-51 -52z" glyph-name="parenright" horiz-adv-x="356" unicode=")"/><glyph d="M576 671l51 -110l-173 -38l153 -40l-103 -102l-90 100l5 -145l-1 -1h-160v1l91 145l-152 -93l-48 95l183 40l-162 38l113 110l90 -104l-15 141h160l-81 -141z" glyph-name="asterisk" horiz-adv-x="498" unicode="*"/><glyph d="M270 213h-190l40 151h190l41 152h165l-41 -152h189l-41 -151h-188l-43 -160h-165z" glyph-name="plus" horiz-adv-x="589" unicode="+"/><glyph d="M25 -132h-25l17 63h25q84 0 101 61h-110l42 156h175l-42 -156q-17 -65 -58.5 -94.5t-124.5 -29.5z" glyph-name="comma" horiz-adv-x="246" unicode=","/><glyph d="M73 162l45 165h450l-45 -165h-450z" glyph-name="hyphen" horiz-adv-x="510" unicode="-"/><glyph d="M221 -8h-188l42 155h188z" glyph-name="period" horiz-adv-x="261" unicode="."/><glyph d="M-11 -95l610 795h185l-609 -795h-186z" glyph-name="slash" horiz-adv-x="611" unicode="/"/><glyph d="M318 -10q-58 0 -101.5 13.5t-68.5 34.5t-39 53t-17.5 62t0 69t9 66t14.5 60t18 60t26 66t36.5 69t51 62t67.5 53t86.5 34.5t109.5 13.5q58 0 101.5 -13.5t68.5 -34.5t39 -53t17.5 -62t0 -68.5t-9.5 -66t-15 -60.5q-13 -49 -27 -87t-45.5 -92.5t-71 -90.5t-105 -62 t-145.5 -26zM281 348q-13 -53 -15 -93.5t22.5 -65.5t76.5 -25q133 0 182 184t-84 184q-73 0 -116 -47.5t-66 -136.5z" glyph-name="zero" horiz-adv-x="641" unicode="0"/><glyph d="M130 427l40 151q154 0 187 122h165l-188 -700h-165l130 486q5 18 27 75h-1q-28 -62 -37 -73q-47 -61 -158 -61z" glyph-name="one" horiz-adv-x="352" unicode="1"/><glyph d="M22 0l5 20q22 81 71 145t106.5 100.5t121.5 67t117 48.5t91 41.5t45 49.5q13 47 -16.5 68.5t-81.5 21.5q-61 0 -103.5 -34t-60.5 -90l-164 3q40 140 132.5 202.5t245.5 62.5q137 0 198 -52t34 -154q-16 -60 -48.5 -101.5t-77 -68t-90 -46t-104.5 -48.5t-103 -62 q-32 -22 -71 -36v-1q40 14 76 14h328l-40 -151h-611z" glyph-name="two" horiz-adv-x="653" unicode="2"/><glyph d="M350 -6q-152 0 -219 61.5t-35 190.5l165 3q-11 -42 21 -72.5t93 -30.5t106.5 28.5t56.5 68.5q11 43 -18 59t-99 17h-62l23 91h64q62 0 100.5 22.5t49.5 62.5q10 40 -20 64.5t-84 24.5q-62 0 -106 -33.5t-59 -80.5l-163 3q66 234 374 232q125 -1 179.5 -45t30.5 -136 q-16 -58 -73.5 -88.5t-124.5 -33.5l-1 -2q51 2 73 -5q56 -16 72.5 -53t-4.5 -124q-29 -109 -117 -166.5t-223 -57.5z" glyph-name="three" horiz-adv-x="661" unicode="3"/><glyph d="M58 159l22 85l480 456h180l-107 -399h113l-22 -142h-91q-36 0 -57 28l-1 -1q20 -28 10 -65l-32 -121h-168l42 159h-369zM524 518l-194 -207h139z" glyph-name="four" horiz-adv-x="702" unicode="4"/><glyph d="M348 -4q-156 0 -222 60t-33 190l163 2q-16 -66 16 -101t107 -35q90 0 134 32t59 88q17 62 -14.5 94t-88.5 32q-44 0 -88 -17.5t-70 -46.5h-206l157 406h558l-27 -132h-441l-32 -102q-12 -33 -41 -62l2 -1q31 31 60 41q96 32 181 32q120 0 183 -63t32 -181 q-33 -124 -135.5 -180t-253.5 -56z" glyph-name="five" horiz-adv-x="699" unicode="5"/><glyph d="M356 -4q-155 0 -223.5 79.5t-26.5 237.5q46 173 165 282.5t295 109.5q60 0 108 -14.5t76.5 -38t47 -54t19 -62.5t-6.5 -63l-180 -5q-3 20 -6.5 32t-13 28.5t-28.5 25t-47 8.5q-76 0 -143.5 -52.5t-107.5 -171.5q-16 -44 -29 -70l2 -1q24 50 37 65q41 47 108.5 73 t139.5 26q50 0 93 -12.5t74.5 -38.5t43 -65.5t-1.5 -92.5q-21 -78 -84 -130.5t-141.5 -74t-169.5 -21.5zM256 222q-12 -47 23 -76t111 -29q168 0 196 105q12 45 -20.5 75t-108.5 31q-72 1 -130 -28.5t-71 -77.5z" glyph-name="six" horiz-adv-x="713" unicode="6"/><glyph d="M310 -4h-191l443 524q22 26 59 44l-1 2q-34 -17 -72 -17h-385l41 151h651l-23 -86z" glyph-name="seven" horiz-adv-x="689" unicode="7"/><glyph d="M357 -6q-148 0 -228.5 53.5t-53.5 152.5q28 108 163 159q32 12 74 8v2q-48 4 -71 20q-66 45 -43 129q25 91 121 139.5t229 47.5t203 -49t46 -138q-17 -63 -73 -105t-122 -42v-2q47 0 73 -13q103 -48 75 -156q-27 -99 -136 -152.5t-257 -53.5zM249 225q-13 -49 27 -74.5 t116 -25.5q73 0 129.5 25t70.5 75q13 49 -28.5 69t-120.5 20q-170 2 -194 -89zM351 500q-12 -46 20.5 -68t96.5 -22q142 0 166 90q13 51 -18.5 72.5t-97.5 21.5q-142 0 -167 -94z" glyph-name="eight" horiz-adv-x="717" unicode="8"/><glyph d="M335 -4q-147 0 -213 58.5t-45 155.5l185 6q1 -43 29 -63.5t98 -19.5q68 2 137 63t105 153q19 50 29 70l-2 1q-23 -48 -37 -66q-43 -58 -107 -87t-133 -29q-72 0 -131.5 28.5t-89 85t-10.5 127.5q22 81 85 133.5t143.5 72.5t183.5 20q170 0 232 -74t16 -243 q-22 -82 -62.5 -151.5t-98.5 -124t-138.5 -85.5t-175.5 -31zM333 477q-11 -40 10 -65.5t56 -35t81 -10.5q56 -1 115 33t71 78q11 40 -24 77t-102 37q-73 0 -132 -27t-75 -87z" glyph-name="nine" horiz-adv-x="731" unicode="9"/><glyph d="M284 312h-165l41 153h165zM211 35h-166l41 154h166z" glyph-name="colon" horiz-adv-x="237" unicode=":"/><glyph d="M16 -90l17 64h25q84 0 101 60h-110l42 156h175l-42 -156q-18 -66 -59 -95t-124 -29h-25zM299 313h-175l41 152h175z" glyph-name="semicolon" horiz-adv-x="254" unicode=";"/><glyph d="M99 329l383 172l-44 -163l-144 -62l111 -61l-43 -163l-292 172z" glyph-name="less" horiz-adv-x="352" unicode="&lt;"/><glyph d="M116 321l40 150h545l-41 -150h-544zM56 96l40 150h544l-40 -150h-544z" glyph-name="equal" horiz-adv-x="613" unicode="="/><glyph d="M441 329l-28 -105l-383 -172l43 163l144 61l-111 62l44 163z" glyph-name="greater" horiz-adv-x="369" unicode=">"/><glyph d="M149 500q25 95 121 150.5t227 55.5q133 0 194.5 -51.5t34.5 -154.5q-13 -50 -46 -81t-71.5 -46.5l-77 -31t-71 -46t-45.5 -79.5l-5 -17h-165l4 17q18 68 54 116t75.5 71t77 39t65 33t33.5 41q10 36 -13.5 56t-74.5 20q-57 0 -98.5 -24t-53.5 -68h-165zM179 -2l41 154h188 l-41 -154h-188z" glyph-name="question" horiz-adv-x="629" unicode="?"/><glyph d="M866 -55q-220 -58 -384 -58q-233 0 -331 113t-43 320q47 176 222.5 292t401.5 116q124 0 208 -30.5t121.5 -84.5t45.5 -129t-19 -164q-22 -81 -68.5 -135.5t-97.5 -75.5t-105 -21q-49 0 -87.5 17.5t-52.5 46.5q-11 21 8 72l-2 1q-16 -42 -40 -61q-63 -50 -143 -50 q-87 0 -137.5 50.5t-28.5 132.5q23 85 101.5 138.5t165.5 53.5q78 0 114 -31q15 -14 25 -62l2 1q-7 34 1 66l4 13h146l-41 -152q-10 -40 -5.5 -61t18.5 -21q18 0 40 34t39 99q23 89 -31 148.5t-188 59.5q-171 0 -295.5 -70.5t-156.5 -192.5q-38 -142 41 -220.5t259 -78.5 q139 0 326 49zM488 298q-13 -47 12.5 -73.5t82.5 -26.5q89 0 119 109q15 55 -2 76t-61 21q-53 0 -95.5 -28t-55.5 -78z" glyph-name="at" horiz-adv-x="1019" unicode="@"/><glyph d="M22 0l451 700h213l77 -700h-177l-20 132h-279l-86 -132h-179zM527 513l-160 -246q115 0 141 -10q13 -5 25 -23t17.5 -33.5t14.5 -44.5z" glyph-name="A" horiz-adv-x="784" unicode="A"/><glyph d="M415 0h-391l188 700h361q118 0 172 -43t30 -132q-7 -28 -40 -59t-82 -49q-21 -8 -54 -8v-2q38 0 54 -5q64 -20 81 -67t-6 -124q-57 -211 -313 -211zM338 553l-38 -143h227q86 0 105 72q9 35 -14.5 53t-67.5 18h-212zM230 150h241q38 0 67 19.5t39 53.5q8 29 -8 46.5 t-52 17.5h-250z" glyph-name="B" horiz-adv-x="693" unicode="B"/><glyph d="M116 350q47 176 173.5 267.5t289.5 89.5q134 -2 213 -64t78 -182l-172 -37q-2 49 -44.5 83t-120.5 34q-97 1 -163 -51.5t-89 -139.5t17.5 -139.5t131.5 -52.5q82 1 142 35t86 83l152 -37q-62 -120 -174.5 -182t-248.5 -64q-164 -2 -241 89.5t-30 267.5z" glyph-name="C" horiz-adv-x="767" unicode="C"/><glyph d="M376 0h-346l188 700h346q100 0 168.5 -38t97 -115.5t-3.5 -196.5q-31 -115 -101.5 -195.5t-159.5 -117.5t-189 -37zM237 151h194q39 0 83 19.5t86.5 67t59.5 112.5q25 93 -17 146t-106 53h-288q94 0 85 -33q-5 -20 -97 -365z" glyph-name="D" horiz-adv-x="761" unicode="D"/><glyph d="M848 700l-41 -151h-465l-38 -143h428l-33 -126h-429l-34 -129h465l-41 -151h-630l188 700h630z" glyph-name="E" horiz-adv-x="689" unicode="E"/><glyph d="M30 0l188 700h603l-40 -151h-417q-20 0 -34 18l-2 -1q13 -19 9 -38l-33 -122h406l-34 -126h-380q-24 0 -41 20l-1 -1q15 -20 10 -44l-69 -255h-165z" glyph-name="F" horiz-adv-x="662" unicode="F"/><glyph d="M371 -7q-163 0 -232.5 90t-22.5 267q32 118 103.5 200t164 120t199.5 37q136 -2 216 -64t79 -182l-164 -41q-9 66 -58 101t-114 35q-86 1 -160 -52.5t-101 -153.5q-26 -97 16.5 -151.5t131.5 -54.5q51 0 94 35t65 77h-93l31 118h265q74 0 56 -69q-10 -34 -82 -305h-162 l69 255h-11q-44 -149 -110.5 -205.5t-179.5 -56.5z" glyph-name="G" horiz-adv-x="788" unicode="G"/><glyph d="M30 0l188 700h165l-72 -267h351l72 267h165l-187 -700h-166l72 268h-351l-72 -268h-165z" glyph-name="H" horiz-adv-x="742" unicode="H"/><glyph d="M30 0l188 700h165l-188 -700h-165z" glyph-name="I" unicode="I"/><glyph d="M349 -7q-46 0 -87 7.5t-80 25t-62 46t-33 71t6 100.5l167 41q-13 -57 18 -98.5t112 -41.5q70 0 132.5 53t88.5 151l94 352h165l-96 -360q-25 -94 -68.5 -162.5t-100 -108t-120 -58t-136.5 -18.5z" glyph-name="J" horiz-adv-x="713" unicode="J"/><glyph d="M30 0l188 700h165l-79 -296q-12 -41 -36 -76l2 -1q23 37 57 67l348 306h216l-378 -333l201 -367h-219l-171 314l-87 -160l-42 -154h-165z" glyph-name="K" horiz-adv-x="741" unicode="K"/><glyph d="M30 0l188 700h165l-137 -511q-10 -37 -45 -64l1 -1q35 27 71 27h377l-40 -151h-580z" glyph-name="L" horiz-adv-x="636" unicode="L"/><glyph d="M195 0h-165l188 700h174l94 -444q4 -15 0 -35l2 -1q4 19 13 32l336 448h174l-188 -699l-165 -1l82 306q18 63 48 125l-2 1q-32 -65 -69 -115l-234 -317h-112l-62 305q-14 60 -12 133h-2q-2 -75 -18 -132z" glyph-name="M" horiz-adv-x="853" unicode="M"/><glyph d="M30 0l188 700h172l221 -418q18 -32 22 -78l2 1q-4 47 8 87l109 408h165l-188 -700h-172l-222 415q-16 31 -22 78h-2q4 -47 -7 -88l-109 -405h-165z" glyph-name="N" horiz-adv-x="759" unicode="N"/><glyph d="M391 -7q-105 0 -176.5 39t-101.5 118t3 200q31 117 104 200t165.5 120.5t197.5 36.5t176.5 -39.5t101.5 -117.5t-3 -200q-47 -174 -175.5 -265.5t-291.5 -91.5zM282 350q-25 -93 21 -149.5t129 -56.5q86 0 160.5 56t99.5 150q25 93 -21 149t-129 57q-82 1 -158.5 -56 t-101.5 -150z" glyph-name="O" horiz-adv-x="787" unicode="O"/><glyph d="M30 0l188 700h388q121 0 172 -61.5t21 -172.5q-24 -91 -114.5 -163.5t-204.5 -72.5h-223l-62 -230h-165zM347 566l-57 -209h199q46 0 89 31t54 73q14 51 -11.5 78t-75.5 27h-198z" glyph-name="P" horiz-adv-x="702" unicode="P"/><glyph d="M390 -7q-105 0 -176 39t-101 118t3 200q47 175 176 267t290 90q105 -1 176 -39.5t101 -117.5t-3 -200q-21 -82 -65.5 -133t-136.5 -98q-26 -12 -70 -27v-2q51 16 72 21l171 40l-42 -158h-395zM281 350q-24 -92 20.5 -142t133.5 -50q96 0 164.5 53t91.5 139q25 93 -22 142 t-131 50q-86 1 -159.5 -49.5t-97.5 -142.5z" glyph-name="Q" horiz-adv-x="805" unicode="Q"/><glyph d="M30 0l188 700h419q123 0 177.5 -46.5t29.5 -139.5q-11 -39 -31.5 -65.5t-38 -37.5t-45.5 -22q-43 -23 -107 -29l-1 -2q75 7 101 -10q15 -7 25 -17t18.5 -30t6 -55t-15.5 -84l-43 -162h-165l42 159q10 36 -9 54t-60 18l-263 -1l-61 -230h-167zM348 566l-53 -198h204 q63 0 118.5 25t68.5 72q15 55 -14 78t-91 23h-233z" glyph-name="R" horiz-adv-x="741" unicode="R"/><glyph d="M91 228l162 5q-10 -45 26 -65.5t111 -21.5q191 -2 212 79q6 22 -18.5 34.5t-68 18.5t-96 11.5t-103.5 17t-90.5 30.5t-57 57t-3.5 92q32 117 139.5 171.5t252.5 52.5q141 -2 211.5 -55.5t44.5 -164.5l-158 -5q9 41 -24.5 58t-114.5 17q-166 0 -186 -72q-5 -20 19.5 -31.5 t68 -16.5t96.5 -10t104 -16.5t90.5 -30.5t57.5 -57.5t3 -92.5q-9 -33 -26 -64t-50 -63.5t-77.5 -56.5t-112.5 -39t-150 -15q-74 0 -128 12.5t-83 34.5t-45 52t-14.5 64t8.5 70z" glyph-name="S" horiz-adv-x="735" unicode="S"/><glyph d="M167 549l41 151h679l-41 -151h-223q-32 0 -50 25l-2 -1q18 -27 9 -58l-138 -515h-165l147 549h-257z" glyph-name="T" horiz-adv-x="719" unicode="T"/><glyph d="M116 320l102 380h165l-102 -381q-22 -81 18 -128.5t120 -47.5q83 0 144.5 45t84.5 131l102 381h165l-102 -380q-22 -82 -68 -146t-106 -103t-126 -59t-134 -20q-75 0 -131.5 18.5t-96 58t-48 101.5t12.5 150z" glyph-name="U" horiz-adv-x="753" unicode="U"/><glyph d="M275 0l-65 700h174l51 -547q1 -15 -4 -33l2 -1q7 23 12 32l345 549h177l-440 -700h-252z" glyph-name="V" horiz-adv-x="802" unicode="V"/><glyph d="M267 0l-57 700h175l34 -473q1 -15 -4 -35h2q7 24 12 35l239 473h154l-14 -474q0 -10 -7 -33h2q6 19 14 33l293 474h176l-432 -700h-201l11 383q0 5 2 11h-2q0 -1 -1 -5t-2 -6l-195 -383h-199z" glyph-name="W" horiz-adv-x="1121" unicode="W"/><glyph d="M235 -1h-212l356 351l-165 349h211l95 -195q6 -15 3 -32h2q3 17 14 29l205 198h215l-365 -348l182 -352h-215l-101 194q-8 14 -4 32h-2q-4 -17 -14 -28z" glyph-name="X" horiz-adv-x="796" unicode="X"/><glyph d="M392 306l-188 393h203l95 -215q13 -30 2 -69h2q11 39 39 69l210 215h202l-400 -393l-82 -306h-165z" glyph-name="Y" horiz-adv-x="782" unicode="Y"/><glyph d="M22 0l24 89l527 433q31 26 73 42l-1 1q-38 -15 -76 -15h-392l41 150h691l-24 -89l-519 -432q-30 -26 -72 -42v-2q43 16 77 16h400l-41 -151h-708z" glyph-name="Z" horiz-adv-x="752" unicode="Z"/><glyph d="M-5 -132l223 832h354l-40 -151h-152q-36 0 -60 31l-1 -1q22 -31 14 -66l-123 -457q-10 -37 -40 -60l1 -1q31 24 67 24h152l-41 -151h-354z" glyph-name="bracketleft" horiz-adv-x="415" unicode="["/><glyph d="M570 -95h-184l-183 795h184z" glyph-name="backslash" horiz-adv-x="622" unicode="\"/><glyph d="M349 -132h-354l40 151h152q36 0 60 -31l1 1q-22 31 -14 67l123 457q10 35 40 59l-1 1q-31 -24 -67 -24h-152l41 151h354z" glyph-name="bracketright" horiz-adv-x="415" unicode="]"/><glyph d="M341 500h-182l224 300h340l64 -300h-182l-56 246q-4 22 1 48h-2q-6 -27 -19 -43z" glyph-name="asciicircum" horiz-adv-x="678" unicode="^"/><glyph d="M16 -128l40 151h424l-40 -151h-424z" glyph-name="underscore" horiz-adv-x="524" unicode="_"/><glyph d="M353 700l20 -142h-137l-70 142h187z" glyph-name="grave" horiz-adv-x="207" unicode="`"/><glyph d="M467 130q-33 -63 -99.5 -96t-140.5 -33q-81 0 -130 38.5t-32 102.5q14 52 53 84.5t87 43.5t102 16.5t98.5 4.5t76 5.5t35.5 22.5q8 34 -19 50t-86 16q-126 0 -149 -67l-143 5q18 60 72.5 102.5t119 60.5t131.5 17q57 0 102 -10t83 -32.5t48.5 -60t-1.5 -93.5l-33 -123 q-5 -19 1.5 -26t25.5 -7h28l-41 -151h-117q-43 0 -67.5 28t-14.5 65zM234 147q-7 -26 14 -39t59 -13q55 0 109 23.5t63 58.5l14 50q-20 -13 -63.5 -17.5t-81.5 -5t-72 -14t-42 -43.5z" glyph-name="a" horiz-adv-x="682" unicode="a"/><glyph d="M195 0h-165l188 700h164l-71 -267q-10 -35 -29 -68l1 -1q29 46 45 60q43 37 102 60t110 22q267 -2 199 -256q-70 -256 -336 -256q-49 0 -94.5 19.5t-69.5 51.5q-14 18 -21 72l-2 -1q5 -35 -4 -74zM262 250q-15 -54 22.5 -90t111.5 -36q145 0 179 126q36 134 -109 135 q-74 1 -131.5 -39.5t-72.5 -95.5z" glyph-name="b" horiz-adv-x="699" unicode="b"/><glyph d="M89 250q33 124 142 190.5t245 65.5q69 -1 126.5 -23t91 -71.5t20.5 -117.5l-154 -5q-2 39 -31.5 65t-86.5 26q-71 1 -121.5 -34.5t-66.5 -95.5q-15 -58 16.5 -94t102.5 -35q112 3 164 87l152 -6q-23 -66 -83 -115t-129 -70.5t-138 -22.5q-137 -1 -210 65.5t-40 190.5z " glyph-name="c" horiz-adv-x="656" unicode="c"/><glyph d="M294 -6q-269 0 -199 256q68 254 336 256q50 1 96 -21t70 -58q13 -19 15 -66h2q-2 40 7 74l71 265h165l-187 -700h-165l16 61q9 34 33 73l-2 1q-31 -50 -51 -66q-42 -34 -99.5 -54.5t-107.5 -20.5zM259 250q-34 -126 111 -126q74 0 130.5 36t71.5 90q14 55 -22 95.5 t-110 39.5q-145 -1 -181 -135z" glyph-name="d" horiz-adv-x="700" unicode="d"/><glyph d="M340 -6q-138 -1 -211 65.5t-40 190.5t142 190.5t246 65.5q135 -1 201 -66t33 -190q-1 -5 -2.5 -10t-2.5 -8.5t-3 -9.5h-453q-5 -48 31.5 -77.5t95.5 -28.5q63 0 99 14.5t62 57.5l152 -5q-28 -57 -65.5 -95.5t-84 -58t-93 -27.5t-107.5 -8zM250 222q43 71 106 71h220 q10 50 -26 74.5t-98 25.5q-28 0 -57 -8.5t-59 -27t-53 -53.5t-33 -82z" glyph-name="e" horiz-adv-x="683" unicode="e"/><glyph d="M104 351l40 151h125q22 0 67 -9v1q-51 13 -63 24q-34 30 -24 65q8 29 26 48.5t55.5 36t102.5 24.5t160 8l-35 -129q-153 0 -163 -35q-4 -16 11 -25t43 -9h90l-41 -151h-121l-94 -351h-165l94 351h-108z" glyph-name="f" horiz-adv-x="419" unicode="f"/><glyph d="M-12 -43q15 54 49.5 82t98.5 51q-69 17 -55 67q13 48 102 71q0 1 -3.5 6.5t-8.5 14.5t-9 22t-5 27.5t3 31.5q22 82 115 125.5t197 43.5q40 0 107 -14q-16 55 46.5 82.5t185.5 23.5l-29 -107h-70q-29 0 -52.5 -6t-10.5 -22l5 -4l8 -10t10 -13.5t10.5 -18.5t7.5 -21.5 t2.5 -26t-4.5 -29.5q-22 -81 -114 -124.5t-195 -43.5q-40 0 -69 7q-4 1 -9 2.5t-8 2.5t-4 1q-10 0 -20.5 -5t-11.5 -12q-2 -9 12 -14t40 -6.5t59.5 -4t70.5 -5t73 -9.5t67 -18.5t52.5 -31t29 -47.5t-2.5 -68q-20 -75 -126.5 -116t-241.5 -41q-83 0 -155 16.5t-116 53.5 t-31 87zM319 -100q63 0 115.5 17.5t61.5 50.5q6 22 -16.5 38t-54.5 23t-75 10q-26 2 -41 2q-46 0 -94.5 -21t-56.5 -52q-8 -32 41 -50t120 -18zM408 270q99 0 115 62q9 32 -16.5 46.5t-64.5 14.5q-41 0 -74 -14.5t-42 -47.5q-9 -32 16.5 -46.5t65.5 -14.5z" glyph-name="g" horiz-adv-x="681" unicode="g"/><glyph d="M195 0h-165l188 700h165l-77 -287q-8 -29 -30 -74l2 -1q24 48 45 70q91 100 238 100q98 0 146 -70.5t12 -203.5l-62 -234h-165l62 234q15 57 -10.5 94t-88.5 37q-60 0 -123 -45t-87 -133z" glyph-name="h" horiz-adv-x="685" unicode="h"/><glyph d="M182 568h166l36 132h-166zM32 0l134 500h162l-134 -500h-162z" glyph-name="i" horiz-adv-x="226" unicode="i"/><glyph d="M-97 -189h-22l31 119h22q52 0 81.5 23t44.5 79l125 468h166l-126 -468q-32 -121 -105 -171t-217 -50zM369 568h-166l36 132h165z" glyph-name="j" horiz-adv-x="247" unicode="j"/><glyph d="M197 0h-167l188 700h166l-92 -334q-12 -38 -38 -71l2 -1q28 35 61 57l227 149h239l-301 -195l182 -304h-72v-1l-1 1h-136l-123 208l-96 -62z" glyph-name="k" horiz-adv-x="687" unicode="k"/><glyph d="M35 0l197 735h165l-197 -735h-165z" glyph-name="l" horiz-adv-x="235" unicode="l"/><glyph d="M195 0h-165l134 500h165l-32 -119q-8 -31 -26 -72h2q20 46 34 67q43 66 96 99t103 33q75 0 106 -37.5t33 -92.5q1 -27 -14 -73l2 -1q27 80 94.5 142t144.5 62q85 0 118.5 -57t1.5 -176l-74 -275h-165l60 222q16 59 -2 89.5t-61 30.5q-41 0 -81.5 -37.5t-59.5 -109.5 l-52 -195h-165l59 222q16 60 -0.5 90t-58.5 30q-38 0 -82 -38t-63 -109z" glyph-name="m" horiz-adv-x="960" unicode="m"/><glyph d="M195 0h-165l134 500h165l-34 -127q-10 -34 -25 -68h2q21 48 34 66q46 67 111 102t121 35q210 0 131 -293l-57 -215h-165l57 215q17 61 -4.5 94.5t-69.5 33.5q-56 0 -109.5 -36.5t-75.5 -119.5z" glyph-name="n" horiz-adv-x="643" unicode="n"/><glyph d="M342 -6q-137 0 -211.5 66t-41.5 190t143 190.5t247 65.5q138 -1 212.5 -66.5t41.5 -189.5q-34 -124 -143.5 -190t-247.5 -66zM254 250q-15 -58 20.5 -92t102.5 -34q66 0 120.5 34.5t69.5 91.5t-21 92t-101 35q-63 1 -119.5 -35t-71.5 -92z" glyph-name="o" horiz-adv-x="687" unicode="o"/><glyph d="M-23 -200l187 700h165l-17 -63q-7 -31 -29 -69l2 -1q25 43 44 60q42 36 101 57.5t110 21.5q267 0 199 -256q-68 -254 -336 -256q-49 0 -94 20.5t-69 53.5q-16 21 -20 72h-2q4 -43 -5 -75l-71 -265h-165zM263 250q-15 -55 21 -95t110 -40q145 1 181 135q34 126 -111 126 q-74 0 -130 -36t-71 -90z" glyph-name="p" horiz-adv-x="700" unicode="p"/><glyph d="M288 -6q-267 2 -199 256q68 256 336 256q49 0 94.5 -19.5t69.5 -52.5q16 -21 20 -72h2q-4 43 5 75l17 63h165l-188 -700h-164l71 265q10 36 29 69l-2 1q-25 -43 -44 -60q-42 -36 -101.5 -58.5t-110.5 -22.5zM253 250q-36 -135 109 -135q73 -1 131 39.5t73 95.5 q15 54 -22.5 90t-111.5 36q-146 0 -179 -126z" glyph-name="q" horiz-adv-x="688" unicode="q"/><glyph d="M195 0h-165l86 321q25 94 78.5 136.5t149.5 42.5h248l-40 -151h-196q-42 0 -58.5 -16t-30.5 -68z" glyph-name="r" horiz-adv-x="485" unicode="r"/><glyph d="M66 158l168 18q-7 -36 24 -53t92 -17q59 0 96.5 15.5t44.5 42.5q5 18 -36 25.5t-100.5 11.5t-117.5 14.5t-92 43.5t-19 88q14 50 56.5 85t98.5 49.5t98 20t80 5.5q64 0 119.5 -16t90.5 -54t22 -90l-149 -13q5 31 -24.5 45.5t-93.5 14.5q-121 0 -135 -54q-4 -15 25 -22.5 t74.5 -9.5t97 -9t94.5 -19.5t65 -43t10 -76.5q-14 -53 -57.5 -89.5t-101.5 -51.5t-100 -20t-83 -5q-34 0 -74 6.5t-87 22.5t-72.5 51t-13.5 84z" glyph-name="s" horiz-adv-x="634" unicode="s"/><glyph d="M104 351l40 151h35q41 0 88.5 58t65.5 123h165q-31 -115 -146 -170q-19 -9 -71 -16v-2q49 7 70 7h219l-41 -151h-161l-39 -147q-15 -53 40 -53h131l-40 -151h-166q-101 0 -129.5 57t3.5 163l35 131h-99z" glyph-name="t" horiz-adv-x="466" unicode="t"/><glyph d="M246 -2q-216 0 -138 293l58 215h165l-58 -215q-17 -64 6 -96t76 -32t103.5 36.5t72.5 119.5l50 187h165l-134 -500h-165l33 124q10 34 25 68h-2q-21 -48 -34 -66q-44 -66 -105.5 -100t-117.5 -34z" glyph-name="u" horiz-adv-x="660" unicode="u"/><glyph d="M207 0l-53 500h178l29 -321q3 -35 -6 -75h2q9 41 27 69l199 327h177l-321 -500h-232z" glyph-name="v" horiz-adv-x="646" unicode="v"/><glyph d="M177 0l-41 500h177l25 -339q3 -27 -6 -63h2q9 35 24 64l182 338h270l4 -340q0 -29 -11 -64h2q13 40 28 63l208 341h176l-309 -500h-262l-4 334q0 33 11 75h-2q-11 -42 -29 -75l-179 -334h-266z" glyph-name="w" horiz-adv-x="1084" unicode="w"/><glyph d="M18 0l262 251l-128 249h210l56 -110q8 -15 4 -35h2q4 20 16 31l119 114h210l-261 -249l127 -251h-209l-57 112q-8 15 -4 35h-2q-4 -20 -16 -31l-121 -116h-208z" glyph-name="x" horiz-adv-x="653" unicode="x"/><glyph d="M137 -204h-181l32 118h87q19 0 41.5 2.5t51 12t38.5 25.5l29 48l-90 498h181l45 -269q6 -31 -5 -73h2q10 40 34 73l188 269h181l-404 -571q-87 -133 -230 -133z" glyph-name="y" horiz-adv-x="663" unicode="y"/><glyph d="M625 0h-600l34 126l311 201q34 20 76 33v2q-45 -13 -77 -13h-240l41 151h585l-34 -126l-309 -201q-34 -20 -76 -33v-2q43 13 77 13h253z" glyph-name="z" horiz-adv-x="654" unicode="z"/><glyph d="M316 -121q-38 0 -59 0.5t-49 3t-41.5 8t-30 14.5t-22.5 23t-9.5 34.5t0 48t13.5 62.5l26 97q6 22 -4.5 33.5t-21 12.5t-27.5 1h-4l41 151q48 0 67 19q10 11 14 28l27 98q10 38 24 67.5t29 49.5t37.5 33t41.5 20.5t50.5 11t54.5 4.5t63 1l-41 -150q-85 0 -105 -77 l-27 -101q-12 -45 -41 -65q-21 -16 -72 -12v-2q55 -5 67 -27q12 -21 2 -59l-27 -101q-11 -38 3.5 -57t60.5 -19z" glyph-name="braceleft" horiz-adv-x="407" unicode="{"/><glyph d="M-24 -200l242 900h165l-241 -900h-166z" glyph-name="bar" unicode="|"/><glyph d="M299 73q-13 -47 -28 -80.5t-37 -54.5t-42 -33t-55.5 -18t-62 -7t-77.5 -1l40 151q46 0 70.5 19t34.5 57l28 101q12 44 41 66q25 18 72 12v2q-57 7 -68 27q-12 20 -1 58l27 101q20 77 -65 77l41 150q31 0 49.5 -0.5t43 -2t39 -5.5t31.5 -10.5t25 -16t16 -23.5t9 -32 t-2 -42.5t-11 -54.5l-27 -98q-6 -22 5 -33.5t21.5 -12.5t26.5 -1h4l-41 -151q-48 0 -67 -19q-10 -11 -14 -28z" glyph-name="braceright" horiz-adv-x="380" unicode="}"/><glyph d="M331 424q52 3 89.5 -13t65.5 -32.5t58 -14.5q28 1 52.5 22t29.5 48l199 8q-18 -95 -97 -162t-186 -74q-44 -2 -80.5 15.5t-65 33t-56.5 10.5q-31 -4 -52.5 -25.5t-27.5 -49.5l-183 -8q10 82 88 159.5t166 82.5z" glyph-name="asciitilde" horiz-adv-x="733" unicode="~"/><glyph d="M360 500h-187l-41 -153h187zM229 293l10 -206l-79 -295h-165l80 295l120 206h34z" glyph-name="exclamdown" horiz-adv-x="265" unicode="¡"/><glyph d="M269 96q-80 4 -131.5 72.5t-21.5 180.5t118.5 181.5t167.5 71.5l26 98h152l-27 -99q65 -1 110.5 -39.5t49.5 -108.5l-149 -57q-7 70 -121 70q-64 0 -111 -28.5t-63 -87.5q-16 -57 17.5 -85.5t94.5 -27.5q50 0 94.5 17.5t64.5 47.5l117 -57q-42 -67 -107.5 -105.5 t-129.5 -42.5l-26 -97h-151z" glyph-name="cent" horiz-adv-x="613" unicode="¢"/><glyph d="M775 0h-760l36 136q100 0 152 30t64 70q12 38 3 64h-135l62 99h67q-27 53 -10 119q25 90 124.5 138t239.5 49q139 1 208 -53.5t40 -175.5l-152 -7q10 52 -29.5 75.5t-98.5 23.5q-149 0 -169 -77q-13 -44 17 -92h204l-47 -99h-134q9 -29 0 -63q-23 -80 -123 -112l1 -2 q39 13 73 13h388z" glyph-name="sterling" horiz-adv-x="798" unicode="£"/><glyph d="M59 174l92 62q-16 29 0 89q15 55 51 89l-59 62l102 69l59 -62q46 28 119 28q67 0 98 -25l90 62l69 -77l-92 -62q20 -27 5 -84q-7 -26 -22.5 -52.5t-32.5 -39.5l59 -62l-102 -69l-58 62q-18 -11 -53 -21.5t-63 -10.5q-62 0 -101 27l-92 -62zM296 325q-8 -28 9.5 -48 t48.5 -20t59 20t36 48q7 28 -10 48t-48 20t-59 -20t-36 -48z" glyph-name="currency" horiz-adv-x="567" unicode="¤"/><glyph d="M198 79l26 98h146l9 34h-146l28 104h146l8 30l-170 354h203l75 -182q15 -34 6 -72h2q9 40 33 64l186 190h209l-379 -354l-8 -30h146l-28 -104h-146l-9 -34h146l-26 -98h-146l-21 -79h-165l21 79h-146z" glyph-name="yen" horiz-adv-x="807" unicode="¥"/><glyph d="M116 319l101 379h165l-101 -379h-165zM-24 -200l102 379h165l-101 -379h-166z" glyph-name="brokenbar" unicode="¦"/><glyph d="M349 -89q-145 0 -219.5 48.5t-68.5 144.5l168 3q-2 -43 32 -68t116 -25q167 0 184 63q5 20 -28.5 33t-87.5 19.5t-116 17.5t-114 25t-81 44.5t-17 73.5q11 43 56 69.5t133 39.5q32 6 75 4v2q-54 2 -75 8q-66 14 -107 43.5t-29 73.5q14 53 64 89.5t118 51.5t117 20t97 5 q132 0 216 -49t78 -141l-163 -5q4 46 -40.5 71t-116.5 25q-130 0 -146 -60q-5 -17 26 -30t80.5 -21t106 -20.5t104 -28t73.5 -46t15 -71.5q-13 -49 -52 -68.5t-107 -28.5q-28 -5 -75 -5v-2q51 0 75 -7q57 -14 88.5 -47t17.5 -85q-14 -53 -64 -89.5t-118 -51.5t-117.5 -20 t-97.5 -5zM294 325q-10 -39 36 -61.5t124 -32.5q26 -3 47 -3q113 0 131 67q6 21 -8 38t-42.5 27.5t-56 17t-61.5 10.5q-36 4 -50 4q-102 0 -120 -67z" glyph-name="section" horiz-adv-x="753" unicode="§"/><glyph d="M317 487h-165l57 213h165zM370 487l57 213h165l-57 -213h-165z" glyph-name="dieresis" horiz-adv-x="426" unicode="¨"/><glyph d="M471 -50q-191 0 -297 110t-65 265q42 155 207 265t356 110t297 -110t64 -265q-41 -155 -206 -265t-356 -110zM224 325q-32 -118 47.5 -201.5t223.5 -83.5q94 0 184 38t154 104t85 143q32 118 -47.5 201.5t-223.5 83.5q-94 0 -184 -38t-154 -104t-85 -143zM520 109 q-114 -1 -175.5 55t-34.5 160q28 104 119 159.5t206 54.5q91 0 153 -47t47 -130l-133 -6q-1 33 -25.5 53.5t-70.5 21.5q-126 0 -154 -106q-13 -48 12.5 -77t85.5 -28q91 2 134 70l130 -5q-29 -83 -115.5 -128.5t-178.5 -46.5z" glyph-name="copyright" horiz-adv-x="958" unicode="©"/><glyph d="M426 479q-23 -39 -67 -59.5t-92 -20.5q-55 0 -87.5 25.5t-21.5 69.5q11 41 45.5 64t76 28.5t81.5 6.5t69 4.5t32 15.5q5 23 -13 33.5t-57 10.5q-84 0 -98 -45l-99 4q18 59 82.5 90t135.5 31q53 -1 91 -12t59 -41.5t8 -78.5l-22 -83q-4 -12 0.5 -17t17.5 -5h19l-28 -102 h-81q-29 0 -45.5 19t-9.5 44zM275 497q-5 -17 9 -26t38 -9q36 0 72 16t42 40l9 33q-15 -11 -56 -12.5t-74 -8.5t-40 -33z" glyph-name="ordfeminine" horiz-adv-x="477" unicode="ª"/><glyph d="M457 501l-44 -166l-115 -59l83 -59l-44 -165l-262 172l28 105zM775 501l-44 -166l-115 -59l83 -59l-44 -165l-262 172l28 105z" glyph-name="guillemotleft" horiz-adv-x="656" unicode="«"/><glyph d="M140 430h604l-95 -354h-165l54 204h-438z" glyph-name="logicalnot" horiz-adv-x="655" unicode="¬"/><glyph d="M314 419q-77 0 -118.5 48.5t-22.5 117.5q18 69 85.5 117.5t144.5 48.5t118.5 -48.5t22.5 -117.5q-18 -69 -85.5 -117.5t-144.5 -48.5zM235 585q-13 -46 15 -79t79 -33t96 33t57 79q13 46 -14.5 79t-79.5 33q-51 0 -96 -33t-57 -79zM272 514l40 146h85q26 0 37 -10t6 -30 q-3 -11 -8 -17t-14.5 -10t-10.5 -5l6 -1q19 -5 10 -37l-10 -36h-36l9 32q3 15 -13 15l-51 -1l-13 -46h-37zM341 631l-11 -40h39q32 0 36 19q6 21 -19 21h-45z" glyph-name="registered" horiz-adv-x="403" unicode="®"/><glyph d="M177 587l31 113h402l-31 -113h-402z" glyph-name="macron" horiz-adv-x="442" unicode="¯"/><glyph d="M341 433q-84 0 -131 45.5t-30 110.5q17 64 89 110t156 46t131 -45.5t30 -110.5q-17 -64 -89 -110t-156 -46zM298 589q-8 -29 11.5 -49t55.5 -20q35 0 65 20t38 49t-12 49t-55 20t-65 -20t-38 -49z" glyph-name="degree" horiz-adv-x="450" unicode="°"/><glyph d="M519 524l118 -47l21 -136l-135 -15l-84 -100l-162 -48l12 100l-119 48l-23 136l135 15l85 95l162 47zM143 -44l-96 136l416 15l95 -136z" glyph-name="plusminus" horiz-adv-x="589" unicode="±"/><glyph d="M129 400l3 10q13 50 46 86.5t70.5 56t74 33.5t63 27.5t30.5 29.5q6 24 -9 35t-42 11q-64 0 -84 -64l-84 2q21 72 68.5 104t126.5 32q70 0 101.5 -27t17.5 -79q-13 -46 -42.5 -71t-82.5 -47.5t-80 -40.5q-30 -19 -66 -31l1 -2q36 12 73 12h151l-21 -77h-315z" glyph-name="uni00B2" horiz-adv-x="359" unicode="²"/><glyph d="M296 406q-75 0 -107.5 30t-16.5 93l80 1q-5 -21 10.5 -35.5t44.5 -14.5q30 0 52.5 14t27.5 33q6 21 -8.5 29t-48.5 8h-30l11 45h31q62 0 73 41q5 19 -9.5 31t-40.5 12q-30 0 -52 -16t-29 -39l-79 1q32 115 182 113q61 0 87.5 -21.5t14.5 -66.5q-15 -58 -116 -58v-2 q55 0 73 -12q31 -18 15 -77q-14 -53 -56.5 -81t-108.5 -28z" glyph-name="uni00B3" horiz-adv-x="353" unicode="³"/><glyph d="M276 557h-137l96 142h188z" glyph-name="acute" horiz-adv-x="190" unicode="´"/><glyph d="M423 287q-160 0 -225 48.5t-35 161.5q29 108 122 158.5t250 50.5h165l-213 -794h-165zM731 -88h-165l213 794h165z" glyph-name="paragraph" horiz-adv-x="785" unicode="¶"/><glyph d="M270 316h-165l41 153h165z" glyph-name="periodcentered" horiz-adv-x="205" unicode="·"/><glyph d="M-88 -218l68 59q16 -41 72 -41q30 0 55 14t31 38q4 16 -6.5 26t-34.5 13.5t-39 4.5t-40 1h-7l80 118h130l-53 -67q43 0 60 -25.5t3 -75.5q-17 -64 -69.5 -96.5t-116.5 -32.5q-47 0 -84 17.5t-49 46.5z" glyph-name="cedilla" horiz-adv-x="282" unicode="¸"/><glyph d="M184 606l20 72q73 0 89 59h79l-90 -336h-79l58 214q10 35 27 70l-1 1q-3 -5 -8.5 -16t-9 -18.5t-10 -15.5t-12.5 -13q-20 -17 -63 -17z" glyph-name="uni00B9" horiz-adv-x="197" unicode="¹"/><glyph d="M287 376q-163 0 -116 181q9 34 24 63t39.5 57t63 44.5t86.5 16.5q39 0 66.5 -11.5t40.5 -29t17.5 -42.5t2 -48.5t-9.5 -49.5q-9 -34 -24 -63t-39.5 -57t-63 -44.5t-87.5 -16.5zM255 557q-12 -43 2 -68t54 -25q39 0 66.5 25.5t39.5 67.5q11 42 -3.5 67t-52.5 25 q-39 1 -67 -24t-39 -68z" glyph-name="ordmasculine" horiz-adv-x="379" unicode="º"/><glyph d="M467 501l262 -172l-28 -105l-354 -172l44 165l114 59l-83 59zM149 501l262 -172l-28 -105l-354 -172l44 165l114 59l-83 59z" glyph-name="guillemotright" horiz-adv-x="664" unicode="»"/><glyph d="M200 0l537 700h163l-537 -700h-163zM558 95l13 50l284 270h107l-64 -236h67l-13 -84h-54q-21 0 -33 16h-1q11 -16 6 -38l-19 -72h-100l26 94h-219zM272 566q-29 -39 -101 -39l26 96q98 0 118 77h105l-119 -444h-105l83 308q5 19 17 48h-1q-16 -38 -23 -46zM719 185h82 l33 122z" glyph-name="onequarter" horiz-adv-x="957" unicode="¼"/><glyph d="M118 0l537 700h162l-536 -700h-163zM848 -4h-358l3 12q15 56 52.5 98t80.5 64t84 38t71 31.5t35 33.5q8 27 -9 39.5t-48 12.5q-36 0 -61 -19.5t-35 -52.5l-96 1q23 82 77.5 119t143.5 37q81 0 116.5 -30.5t19.5 -90.5q-11 -43 -39.5 -72t-58 -41.5t-74.5 -33.5t-76 -44 q-15 -11 -41 -21v-1q21 8 44 8h193zM176 544l23 86q88 0 107 70h94l-107 -401h-95l75 278q4 17 16 43h-1q-2 -4 -6 -13t-7.5 -16t-7.5 -12q-27 -35 -91 -35z" glyph-name="onehalf" horiz-adv-x="879" unicode="½"/><glyph d="M245 0l536 700h163l-536 -700h-163zM285 286q-89 0 -129 36.5t-21 112.5l97 1q-6 -25 12.5 -42.5t54.5 -17.5q37 0 63.5 16.5t32.5 40.5q7 25 -10 34.5t-58 10.5h-37l14 54h37q74 0 89 49q6 24 -12 38.5t-49 14.5q-37 0 -63 -20t-34 -47l-97 2q39 138 220 136 q74 -1 106.5 -27t17.5 -79q-9 -33 -43.5 -52.5t-72.5 -19.5l-1 -1q32 0 43 -4q33 -9 42.5 -31t-2.5 -73q-17 -64 -69 -98t-131 -34zM564 84l12 45l258 245h96l-57 -215h60l-12 -75h-48q-19 0 -31 15l-1 -1q11 -14 6 -35l-17 -65h-90l22 86h-198zM814 276l-104 -111h75z" glyph-name="threequarters" horiz-adv-x="917" unicode="¾"/><glyph d="M243 -208q-132 0 -194 52t-34 154q13 50 45.5 81.5t71.5 47t77.5 31t71 46t45.5 79.5l4 17h165l-4 -17q-18 -68 -54 -116t-75.5 -71.5t-76.5 -39.5t-65 -33t-34 -41q-10 -35 13.5 -55.5t74.5 -20.5q56 0 98 24t54 68h165q-25 -95 -121 -150.5t-227 -55.5zM332 346l42 155 h187l-41 -155h-188z" glyph-name="questiondown" horiz-adv-x="607" unicode="¿"/><glyph d="M34 0l452 700h213l76 -700h-177l-20 132h-278l-87 -132h-179zM540 513l-160 -246q114 0 140 -10q13 -5 25 -23t17.5 -33.5t14.5 -44.5zM560 758l-71 142h190l20 -142h-139z" glyph-name="Agrave" horiz-adv-x="797" unicode="À"/><glyph d="M29 0l452 700h213l76 -700h-177l-20 132h-278l-87 -132h-179zM535 513l-160 -246q114 0 140 -10q13 -5 25 -23t17.5 -33.5t14.5 -44.5zM648 758h-136l96 142h187z" glyph-name="Aacute" horiz-adv-x="787" unicode="Á"/><glyph d="M29 0l452 700h213l76 -700h-177l-20 132h-278l-87 -132h-179zM367 778l173 171h217l81 -171h-167l-41 100l-95 -100h-168zM535 513l-160 -246q114 0 140 -10q13 -5 25 -23t17.5 -33.5t14.5 -44.5z" glyph-name="Acircumflex" horiz-adv-x="787" unicode="Â"/><glyph d="M29 0l452 700h213l76 -700h-177l-20 132h-278l-87 -132h-179zM357 758q55 160 214 160q28 0 49.5 -9t32 -19.5t23.5 -19.5t26 -10q41 -2 66 58l120 -6q-22 -76 -74.5 -121.5t-131.5 -44.5q-38 0 -61.5 14t-40 28t-35.5 15q-30 1 -54.5 -15t-34.5 -40zM375 267 q114 0 140 -10q13 -5 25 -23t17.5 -33.5t14.5 -44.5l-37 357z" glyph-name="Atilde" horiz-adv-x="787" unicode="Ã"/><glyph d="M29 0l452 700h213l76 -700h-177l-20 132h-278l-87 -132h-179zM535 513l-160 -246q114 0 140 -10q13 -5 25 -23t17.5 -33.5t14.5 -44.5zM784 769h-165l35 131h165zM407 769l35 131h165l-35 -131h-165z" glyph-name="Adieresis" horiz-adv-x="787" unicode="Ä"/><glyph d="M29 0l452 700h213l76 -700h-177l-20 132h-278l-87 -132h-179zM598 742q-66 0 -103 32t-24 78q12 46 66 78t120 32q65 0 102 -32t25 -78q-13 -46 -67 -78t-119 -32zM535 513l-160 -246q114 0 140 -10q13 -5 25 -23t17.5 -33.5t14.5 -44.5zM569 852q-4 -18 9.5 -30.5 t37.5 -12.5t44.5 12.5t24.5 30.5q5 17 -9 30t-37 13q-24 0 -44.5 -13t-25.5 -30z" glyph-name="Aring" horiz-adv-x="787" unicode="Å"/><glyph d="M30 0l451 700h712l-41 -151h-383l-37 -135h329l-34 -126h-328l-37 -137h384l-41 -151h-549l39 143h-197l-91 -143h-177zM623 647l-223 -345h137l93 345h-7z" glyph-name="AE" horiz-adv-x="1037" unicode="Æ"/><glyph d="M116 350q47 176 173.5 267.5t289.5 89.5q134 -2 213 -64t78 -182l-172 -37q-2 49 -44.5 83t-120.5 34q-97 1 -163 -51.5t-89 -139.5t17.5 -139.5t131.5 -52.5q82 1 142 35t86 83l152 -37q-55 -106 -151 -167.5t-213 -74.5l-39 -49q43 0 60 -25.5t3 -75.5 q-18 -64 -70.5 -96.5t-115.5 -32.5q-47 0 -84 17.5t-49 46.5l68 60q7 -20 28 -31t48 -11q29 0 52 13t30 39q4 16 -5 26t-32 13.5t-37 4t-39 0.5h-9l27 40l37 61q-131 17 -188 107t-15 246z" glyph-name="Ccedilla" horiz-adv-x="768" unicode="Ç"/><glyph d="M848 700l-41 -151h-465l-38 -143h428l-33 -126h-429l-34 -129h465l-41 -151h-630l188 700h630zM627 900l19 -142h-139l-70 142h190z" glyph-name="Egrave" horiz-adv-x="689" unicode="È"/><glyph d="M848 700l-41 -151h-465l-38 -143h428l-33 -126h-429l-34 -129h465l-41 -151h-630l188 700h630zM592 758h-136l96 142h187z" glyph-name="Eacute" horiz-adv-x="689" unicode="É"/><glyph d="M660 0h-630l188 700h630l-41 -151h-465l-38 -143h428l-33 -126h-429l-34 -129h465zM498 766h-168l173 171h217l81 -171h-167l-41 100z" glyph-name="Ecircumflex" horiz-adv-x="689" unicode="Ê"/><glyph d="M660 0h-630l188 700h630l-41 -151h-465l-38 -143h428l-33 -126h-429l-34 -129h465zM754 769h-166l36 131h165zM376 769l35 131h166l-35 -131h-166z" glyph-name="Edieresis" horiz-adv-x="689" unicode="Ë"/><glyph d="M30 0l188 700h165l-188 -700h-165zM380 900l20 -142h-139l-71 142h190z" glyph-name="Igrave" unicode="Ì"/><glyph d="M30 0l188 700h165l-188 -700h-165zM376 758h-136l96 142h187z" glyph-name="Iacute" unicode="Í"/><glyph d="M195 0h-165l188 700h165zM84 763l173 171h217l81 -171h-167l-41 100l-95 -100h-168z" glyph-name="Icircumflex" unicode="Î"/><glyph d="M195 0h-165l188 700h165zM515 769h-165l35 131h165zM303 769h-165l35 131h165z" glyph-name="Idieresis" unicode="Ï"/><glyph d="M76 263l44 166h95l73 271h346q100 0 168.5 -38t97 -115.5t-3.5 -196.5q-31 -115 -101.5 -195.5t-159.5 -117.5t-189 -37h-346l71 263h-95zM526 263h-189q-6 -20 -30 -112h194q39 0 83 19.5t86.5 67t59.5 112.5q25 93 -17 146t-106 53h-288q95 0 85 -33q-1 -7 -23 -88 l189 1z" glyph-name="Eth" horiz-adv-x="819" unicode="Ð"/><glyph d="M195 0h-165l188 700h172l221 -418q18 -32 22 -78l2 1q-4 47 8 87l109 408h165l-188 -700h-172l-222 415q-16 31 -22 78h-2q4 -47 -7 -88zM337 755q55 160 214 160q28 0 49.5 -9t32 -19.5t23.5 -19.5t26 -10q41 -2 66 58l120 -7q-22 -76 -75 -121.5t-132 -44.5 q-37 0 -60.5 14t-40 28t-35.5 15q-31 2 -55 -13.5t-34 -40.5z" glyph-name="Ntilde" horiz-adv-x="759" unicode="Ñ"/><glyph d="M391 -7q-105 0 -176.5 39t-101.5 118t3 200q31 117 104 200t165.5 120.5t197.5 36.5t176.5 -39.5t101.5 -117.5t-3 -200q-47 -174 -175.5 -265.5t-291.5 -91.5zM282 350q-25 -93 21 -149.5t129 -56.5q86 0 160.5 56t99.5 150q25 93 -21 149t-129 57q-82 1 -158.5 -56 t-101.5 -150zM452 900h190l20 -142h-139z" glyph-name="Ograve" horiz-adv-x="787" unicode="Ò"/><glyph d="M391 -7q-105 0 -176.5 39t-101.5 118t3 200q31 117 104 200t165.5 120.5t197.5 36.5t176.5 -39.5t101.5 -117.5t-3 -200q-47 -174 -175.5 -265.5t-291.5 -91.5zM282 350q-25 -93 21 -149.5t129 -56.5q86 0 160.5 56t99.5 150q25 93 -21 149t-129 57q-82 1 -158.5 -56 t-101.5 -150zM479 758l96 142h186l-147 -142h-135z" glyph-name="Oacute" horiz-adv-x="786" unicode="Ó"/><glyph d="M391 -7q-105 0 -176.5 39t-101.5 118t3 200q31 117 104 200t165.5 120.5t197.5 36.5t176.5 -39.5t101.5 -117.5t-3 -200q-47 -174 -175.5 -265.5t-291.5 -91.5zM282 350q-25 -93 21 -149.5t129 -56.5q86 0 160.5 56t99.5 150q25 93 -21 149t-129 57q-82 1 -158.5 -56 t-101.5 -150zM367 781l173 171h217l81 -171h-167l-41 100l-96 -100h-167z" glyph-name="Ocircumflex" horiz-adv-x="786" unicode="Ô"/><glyph d="M391 -7q-105 0 -176.5 39t-101.5 118t3 200q31 117 104 200t165.5 120.5t197.5 36.5t176.5 -39.5t101.5 -117.5t-3 -200q-47 -174 -175.5 -265.5t-291.5 -91.5zM282 350q-25 -93 21 -149.5t129 -56.5q86 0 160.5 56t99.5 150q25 93 -21 149t-129 57q-82 1 -158.5 -56 t-101.5 -150zM343 758q55 160 214 160q28 0 49.5 -9t32 -19.5t23.5 -19.5t26 -10q41 -2 66 58l120 -6q-22 -76 -74.5 -121.5t-131.5 -44.5q-38 0 -61.5 14t-40 28t-35.5 15q-31 1 -55 -14.5t-34 -40.5z" glyph-name="Otilde" horiz-adv-x="786" unicode="Õ"/><glyph d="M391 -7q-105 0 -176.5 39t-101.5 118t3 200q31 117 104 200t165.5 120.5t197.5 36.5t176.5 -39.5t101.5 -117.5t-3 -200q-47 -174 -175.5 -265.5t-291.5 -91.5zM282 350q-25 -93 21 -149.5t129 -56.5q86 0 160.5 56t99.5 150q25 93 -21 149t-129 57q-82 1 -158.5 -56 t-101.5 -150zM629 769l35 131h165l-35 -131h-165zM582 769h-165l35 131h165z" glyph-name="Odieresis" horiz-adv-x="786" unicode="Ö"/><glyph d="M462 362h191l-40 -151h-192l-42 -158h-165l42 158h-187l41 151h187l41 154h165z" glyph-name="multiply" horiz-adv-x="568" unicode="×"/><glyph d="M177 57q-114 95 -61 293q31 117 104 200t165.5 120.5t197.5 36.5q42 0 85 -8l33 43h185l-81 -107q105 -95 53 -285q-47 -174 -175.5 -265.5t-291.5 -91.5q-39 0 -74 6l-40 -52h-185zM295 212l263 343q-5 1 -16 1q-82 1 -158.5 -56t-101.5 -150q-22 -82 13 -138zM428 144 q93 0 166.5 57.5t97.5 148.5q20 76 -7 129z" glyph-name="Oslash" horiz-adv-x="786" unicode="Ø"/><glyph d="M116 320l102 380h165l-102 -381q-22 -81 18 -128.5t120 -47.5q83 0 144.5 45t84.5 131l102 381h165l-102 -380q-22 -82 -68 -146t-106 -103t-126 -59t-134 -20q-75 0 -131.5 18.5t-96 58t-48 101.5t12.5 150zM449 900h190l20 -142h-139z" glyph-name="Ugrave" horiz-adv-x="757" unicode="Ù"/><glyph d="M116 320l102 380h165l-102 -381q-22 -81 18 -128.5t120 -47.5q83 0 144.5 45t84.5 131l102 381h165l-102 -380q-22 -82 -68 -146t-106 -103t-126 -59t-134 -20q-75 0 -131.5 18.5t-96 58t-48 101.5t12.5 150zM497 758l97 142h186l-147 -142h-136z" glyph-name="Uacute" horiz-adv-x="757" unicode="Ú"/><glyph d="M116 320l102 380h165l-102 -381q-22 -81 18 -128.5t120 -47.5q83 0 144.5 45t84.5 131l102 381h165l-102 -380q-22 -82 -68 -146t-106 -103t-126 -59t-134 -20q-75 0 -131.5 18.5t-96 58t-48 101.5t12.5 150zM353 777l173 171h217l81 -171h-167l-41 100l-95 -100h-168z " glyph-name="Ucircumflex" horiz-adv-x="757" unicode="Û"/><glyph d="M116 320l102 380h165l-102 -381q-22 -81 18 -128.5t120 -47.5q83 0 144.5 45t84.5 131l102 381h165l-102 -380q-22 -82 -68 -146t-106 -103t-126 -59t-134 -20q-75 0 -131.5 18.5t-96 58t-48 101.5t12.5 150zM616 769l36 131h165l-35 -131h-166zM404 769l35 131h166 l-35 -131h-166z" glyph-name="Udieresis" horiz-adv-x="757" unicode="Ü"/><glyph d="M392 306l-188 393h203l95 -215q13 -30 2 -69h2q11 39 39 69l210 215h202l-400 -393l-82 -306h-165zM649 758h-136l96 142h187z" glyph-name="Yacute" horiz-adv-x="786" unicode="Ý"/><glyph d="M196 0h-166l188 700h165l-29 -110h194q135 0 190 -59t25 -173q-30 -112 -117.5 -172t-221.5 -60h-195zM319 461l-55 -206h136q103 0 143.5 26t53.5 77q15 54 -11 78.5t-130 24.5h-137z" glyph-name="Thorn" horiz-adv-x="694" unicode="Þ"/><glyph d="M195 0h-165l141 527q21 79 117 127.5t212 48.5q152 0 220 -40.5t43 -135.5q-26 -96 -203 -139q197 -27 156 -176q-55 -212 -423 -212l36 133q102 -1 158 27.5t69 75.5q12 46 -26.5 74t-145.5 30l21 79q61 0 106.5 24t56.5 64q11 44 -14 71.5t-80 27.5q-47 0 -91 -34.5 t-58 -88.5z" glyph-name="germandbls" horiz-adv-x="687" unicode="ß"/><glyph d="M489 130q-34 -63 -100.5 -96t-139.5 -33q-81 0 -130 38.5t-32 102.5q14 52 53 84.5t87 43.5t102 16.5t98.5 4.5t76 5.5t35.5 22.5q8 34 -19 50t-86 16q-126 0 -149 -67l-143 5q18 60 72.5 102.5t119 60.5t131.5 17q57 0 102 -10t83 -32.5t48.5 -60t-1.5 -93.5l-33 -123 q-5 -19 1.5 -26t25.5 -7h28l-41 -151h-117q-43 0 -67.5 28t-14.5 65zM255 147q-6 -26 15 -39t59 -13q55 0 109 23.5t63 58.5l14 50q-20 -13 -63.5 -17.5t-82 -5t-72.5 -14t-42 -43.5zM360 700h190l19 -142h-139z" glyph-name="agrave" horiz-adv-x="702" unicode="à"/><glyph d="M489 130q-34 -63 -100.5 -96t-139.5 -33q-81 0 -130 38.5t-32 102.5q14 52 53 84.5t87 43.5t102 16.5t98.5 4.5t76 5.5t35.5 22.5q8 34 -19 50t-86 16q-126 0 -149 -67l-143 5q18 60 72.5 102.5t119 60.5t131.5 17q57 0 102 -10t83 -32.5t48.5 -60t-1.5 -93.5l-33 -123 q-5 -19 1.5 -26t25.5 -7h28l-41 -151h-117q-43 0 -67.5 28t-14.5 65zM255 147q-6 -26 15 -39t59 -13q55 0 109 23.5t63 58.5l14 50q-20 -13 -63.5 -17.5t-82 -5t-72.5 -14t-42 -43.5zM424 558l96 142h186l-147 -142h-135z" glyph-name="aacute" horiz-adv-x="710" unicode="á"/><glyph d="M489 130q-34 -63 -100.5 -96t-139.5 -33q-81 0 -130 38.5t-32 102.5q14 52 53 84.5t87 43.5t102 16.5t98.5 4.5t76 5.5t35.5 22.5q8 34 -19 50t-86 16q-126 0 -149 -67l-143 5q18 60 72.5 102.5t119 60.5t131.5 17q57 0 102 -10t83 -32.5t48.5 -60t-1.5 -93.5l-33 -123 q-5 -19 1.5 -26t25.5 -7h28l-41 -151h-117q-43 0 -67.5 28t-14.5 65zM426 569h-167l173 171h217l81 -171h-167l-41 100zM255 147q-6 -26 15 -39t59 -13q55 0 109 23.5t63 58.5l14 50q-20 -13 -63.5 -17.5t-82 -5t-72.5 -14t-42 -43.5z" glyph-name="acircumflex" horiz-adv-x="710" unicode="â"/><glyph d="M489 130q-34 -63 -100.5 -96t-139.5 -33q-81 0 -130 38.5t-32 102.5q14 52 53 84.5t87 43.5t102 16.5t98.5 4.5t76 5.5t35.5 22.5q8 34 -19 50t-86 16q-126 0 -149 -67l-143 5q18 60 72.5 102.5t119 60.5t131.5 17q57 0 102 -10t83 -32.5t48.5 -60t-1.5 -93.5l-33 -123 q-5 -19 1.5 -26t25.5 -7h28l-41 -151h-117q-43 0 -67.5 28t-14.5 65zM250 558q56 160 215 160q35 0 59 -14t40 -28.5t32 -15.5q40 -2 65 58l121 -6q-23 -76 -75.5 -121.5t-131.5 -44.5q-37 0 -60.5 14t-40 28t-36.5 15q-30 1 -54.5 -15t-33.5 -40zM255 147q-6 -26 15 -39 t59 -13q55 0 109 23.5t63 58.5l14 50q-20 -13 -63.5 -17.5t-82 -5t-72.5 -14t-42 -43.5z" glyph-name="atilde" horiz-adv-x="710" unicode="ã"/><glyph d="M489 130q-34 -63 -100.5 -96t-139.5 -33q-81 0 -130 38.5t-32 102.5q14 52 53 84.5t87 43.5t102 16.5t98.5 4.5t76 5.5t35.5 22.5q8 34 -19 50t-86 16q-126 0 -149 -67l-143 5q18 60 72.5 102.5t119 60.5t131.5 17q57 0 102 -10t83 -32.5t48.5 -60t-1.5 -93.5l-33 -123 q-5 -19 1.5 -26t25.5 -7h28l-41 -151h-117q-43 0 -67.5 28t-14.5 65zM255 147q-6 -26 15 -39t59 -13q55 0 109 23.5t63 58.5l14 50q-20 -13 -63.5 -17.5t-82 -5t-72.5 -14t-42 -43.5zM700 569h-166l35 131h166zM487 569h-165l35 131h166z" glyph-name="adieresis" horiz-adv-x="710" unicode="ä"/><glyph d="M489 130q-34 -63 -100.5 -96t-139.5 -33q-81 0 -130 38.5t-32 102.5q14 52 53 84.5t87 43.5t102 16.5t98.5 4.5t76 5.5t35.5 22.5q8 34 -19 50t-86 16q-126 0 -149 -67l-143 5q18 60 72.5 102.5t119 60.5t131.5 17q57 0 102 -10t83 -32.5t48.5 -60t-1.5 -93.5l-33 -123 q-5 -19 1.5 -26t25.5 -7h28l-41 -151h-117q-43 0 -67.5 28t-14.5 65zM489 544q-66 0 -103 32t-25 78t66.5 77.5t120.5 31.5q65 0 102 -31.5t24 -77.5q-12 -46 -66 -78t-119 -32zM255 147q-6 -26 15 -39t59 -13q55 0 109 23.5t63 58.5l14 50q-20 -13 -63.5 -17.5t-82 -5 t-72.5 -14t-42 -43.5zM460 654q-5 -18 8.5 -30.5t38.5 -12.5q23 0 43.5 12.5t25.5 30.5q5 17 -9 30t-37 13q-24 0 -44.5 -13t-25.5 -30z" glyph-name="aring" horiz-adv-x="710" unicode="å"/><glyph d="M527 154q-40 -75 -123.5 -115.5t-171.5 -40.5q-87 0 -138.5 38.5t-33.5 105.5q15 54 53.5 87.5t85.5 44.5t100 16t97.5 4.5t76.5 9t38 31.5q8 30 -25 49t-77 21q-37 3 -78.5 -14.5t-54.5 -53.5l-158 3q18 56 72.5 95t117 54t127.5 14q82 -1 126.5 -35t49.5 -95 q35 55 118 94.5t172 38.5q127 -1 185.5 -66t25.5 -190q-2 -6 -11 -26h-467q-7 -29 3 -51.5t30.5 -34t43 -17t43.5 -5.5q41 1 90 19t75 52l167 -6q-32 -90 -131.5 -138t-212.5 -49q-99 -1 -158 44.5t-57 115.5zM224 158q-6 -23 13.5 -36t54.5 -13q60 0 118 36.5t77 104.5 l10 37q-12 -24 -55.5 -40.5t-88 -24t-84 -24t-45.5 -40.5zM833 394q-62 0 -118 -42.5t-81 -127.5q20 25 46 37t45.5 14t60.5 2h159q13 55 -17 86t-95 31z" glyph-name="ae" horiz-adv-x="1066" unicode="æ"/><glyph d="M89 250q33 124 142 190.5t245 65.5q69 -1 126.5 -23t91 -71.5t20.5 -117.5l-154 -5q-2 39 -31.5 65t-86.5 26q-71 1 -121.5 -34.5t-66.5 -95.5q-15 -58 16.5 -94t102.5 -35q112 3 164 87l152 -6q-30 -84 -111 -136.5t-178 -66.5l-41 -51q43 0 60 -25.5t3 -75.5 q-18 -64 -70.5 -96.5t-115.5 -32.5q-47 0 -84 17.5t-49 46.5l68 60q7 -20 28.5 -31t48.5 -11q28 0 51 13t30 39q3 11 -0.5 19t-14.5 12.5t-20 7.5t-27 4t-25.5 1h-24.5h-9l26 40l38 62q-108 15 -160 79.5t-23 172.5z" glyph-name="ccedilla" horiz-adv-x="657" unicode="ç"/><glyph d="M340 -6q-138 -1 -211 65.5t-40 190.5t142 190.5t246 65.5q135 -1 201 -66t33 -190q-1 -5 -2.5 -10t-2.5 -8.5t-3 -9.5h-453q-5 -48 31.5 -77.5t95.5 -28.5q63 0 99 14.5t62 57.5l152 -5q-28 -57 -65.5 -95.5t-84 -58t-93 -27.5t-107.5 -8zM452 393q-28 0 -57 -8.5 t-59 -27t-53 -53.5t-33 -82q43 71 106 71h220q10 50 -26 74.5t-98 25.5zM389 700h189l20 -142h-139z" glyph-name="egrave" horiz-adv-x="672" unicode="è"/><glyph d="M340 -6q-138 -1 -211 65.5t-40 190.5t142 190.5t246 65.5q135 -1 201 -66t33 -190q-1 -5 -2.5 -10t-2.5 -8.5t-3 -9.5h-453q-5 -48 31.5 -77.5t95.5 -28.5q63 0 99 14.5t62 57.5l152 -5q-28 -57 -65.5 -95.5t-84 -58t-93 -27.5t-107.5 -8zM452 393q-28 0 -57 -8.5 t-59 -27t-53 -53.5t-33 -82q43 71 106 71h220q10 50 -26 74.5t-98 25.5zM419 558l96 142h186l-147 -142h-135z" glyph-name="eacute" horiz-adv-x="666" unicode="é"/><glyph d="M340 -6q-138 -1 -211 65.5t-40 190.5t142 190.5t246 65.5q135 -1 201 -66t33 -190q-1 -5 -2.5 -10t-2.5 -8.5t-3 -9.5h-453q-5 -48 31.5 -77.5t95.5 -28.5q63 0 99 14.5t62 57.5l152 -5q-28 -57 -65.5 -95.5t-84 -58t-93 -27.5t-107.5 -8zM266 581l173 171h217l82 -171 h-168l-41 100l-95 -100h-168zM452 393q-28 0 -57 -8.5t-59 -27t-53 -53.5t-33 -82q43 71 106 71h220q10 50 -26 74.5t-98 25.5z" glyph-name="ecircumflex" horiz-adv-x="666" unicode="ê"/><glyph d="M340 -6q-138 -1 -211 65.5t-40 190.5t142 190.5t246 65.5q135 -1 201 -66t33 -190q-1 -5 -2.5 -10t-2.5 -8.5t-3 -9.5h-453q-5 -48 31.5 -77.5t95.5 -28.5q63 0 99 14.5t62 57.5l152 -5q-28 -57 -65.5 -95.5t-84 -58t-93 -27.5t-107.5 -8zM452 393q-28 0 -57 -8.5 t-59 -27t-53 -53.5t-33 -82q43 71 106 71h220q10 50 -26 74.5t-98 25.5zM476 569h-165l35 131h165zM688 569h-165l35 131h165z" glyph-name="edieresis" horiz-adv-x="666" unicode="ë"/><glyph d="M30 0l134 500h165l-134 -500h-165zM323 700l20 -142h-139l-71 142h190z" glyph-name="igrave" unicode="ì"/><glyph d="M30 0l134 500h165l-134 -500h-165zM317 558h-135l96 142h186z" glyph-name="iacute" unicode="í"/><glyph d="M195 0h-165l134 500h165zM200 581h-167l173 171h217l81 -171h-167l-41 100z" glyph-name="icircumflex" unicode="î"/><glyph d="M195 0h-165l134 500h165zM241 569h-165l35 131h165zM453 569h-165l35 131h166z" glyph-name="idieresis" unicode="ï"/><glyph d="M349 -4q-66 0 -119.5 12.5t-92.5 39t-54 71t-1 103.5q25 105 126.5 166t214.5 61q87 0 144.5 -38t56.5 -110q6 41 6.5 73t-4.5 56.5t-8.5 36.5t-11.5 32l-122 -22l-17 81l82 15q-22 25 -74 27q-40 3 -81 -19l-69 90q84 34 179 34q93 0 149.5 -23.5t86.5 -77.5l54 8 l18 -80l-50 -7q30 -104 1 -212q-42 -158 -151.5 -237.5t-262.5 -79.5zM253 224q-11 -40 16.5 -64t68.5 -29.5t84 0.5q55 9 104.5 39t67.5 71q14 35 7.5 58t-32.5 35.5t-56 16.5t-62 2q-75 -5 -129 -39t-69 -90z" glyph-name="eth" horiz-adv-x="701" unicode="ð"/><glyph d="M30 0l134 500h165l-34 -127q-10 -34 -25 -68h2q21 48 34 66q46 67 111 102t121 35q210 0 131 -293l-57 -215h-165l57 215q17 61 -4.5 94.5t-69.5 33.5q-56 0 -109.5 -36.5t-75.5 -119.5l-50 -187h-165zM238 558q56 160 215 160q35 0 59 -14t40 -28.5t32 -15.5 q40 -2 65 58l121 -6q-23 -76 -75.5 -121.5t-131.5 -44.5q-37 0 -60.5 14t-40 28t-36.5 15q-30 1 -54.5 -15t-33.5 -40z" glyph-name="ntilde" horiz-adv-x="642" unicode="ñ"/><glyph d="M342 -6q-137 0 -211.5 66t-41.5 190t143 190.5t247 65.5q138 -1 212.5 -66.5t41.5 -189.5q-34 -124 -143.5 -190t-247.5 -66zM254 250q-15 -58 20.5 -92t102.5 -34q66 0 120.5 34.5t69.5 91.5t-21 92t-101 35q-63 1 -119.5 -35t-71.5 -92zM442 558l-71 142h190l20 -142 h-139z" glyph-name="ograve" horiz-adv-x="688" unicode="ò"/><glyph d="M342 -6q-137 0 -211.5 66t-41.5 190t143 190.5t247 65.5q138 -1 212.5 -66.5t41.5 -189.5q-34 -124 -143.5 -190t-247.5 -66zM254 250q-15 -58 20.5 -92t102.5 -34q66 0 120.5 34.5t69.5 91.5t-21 92t-101 35q-63 1 -119.5 -35t-71.5 -92zM421 558l96 142h186l-147 -142 h-135z" glyph-name="oacute" horiz-adv-x="688" unicode="ó"/><glyph d="M342 -6q-137 0 -211.5 66t-41.5 190t143 190.5t247 65.5q138 -1 212.5 -66.5t41.5 -189.5q-34 -124 -143.5 -190t-247.5 -66zM254 250q-15 -58 20.5 -92t102.5 -34q66 0 120.5 34.5t69.5 91.5t-21 92t-101 35q-63 1 -119.5 -35t-71.5 -92zM264 581l173 171h217l81 -171 h-168l-40 100l-96 -100h-167z" glyph-name="ocircumflex" horiz-adv-x="688" unicode="ô"/><glyph d="M342 -6q-137 0 -211.5 66t-41.5 190t143 190.5t247 65.5q138 -1 212.5 -66.5t41.5 -189.5q-34 -124 -143.5 -190t-247.5 -66zM254 250q-15 -58 20.5 -92t102.5 -34q66 0 120.5 34.5t69.5 91.5t-21 92t-101 35q-63 1 -119.5 -35t-71.5 -92zM364 548l-100 10 q56 160 215 160q35 0 59 -14t40 -28.5t32 -15.5q40 -2 65 58l121 -6q-23 -76 -75.5 -121.5t-131.5 -44.5q-37 0 -60.5 14t-40 28t-36.5 15q-30 1 -54.5 -15t-33.5 -40z" glyph-name="otilde" horiz-adv-x="688" unicode="õ"/><glyph d="M342 -6q-137 0 -211.5 66t-41.5 190t143 190.5t247 65.5q138 -1 212.5 -66.5t41.5 -189.5q-34 -124 -143.5 -190t-247.5 -66zM254 250q-15 -58 20.5 -92t102.5 -34q66 0 120.5 34.5t69.5 91.5t-21 92t-101 35q-63 1 -119.5 -35t-71.5 -92zM522 569l35 131h166l-36 -131 h-165zM310 569l35 131h165l-35 -131h-165z" glyph-name="odieresis" horiz-adv-x="688" unicode="ö"/><glyph d="M162 284l57 136l53 -2l152 122l163 -18l-140 -113l174 -7l-57 -136zM227 14l31 117h148l-31 -117h-148z" glyph-name="divide" horiz-adv-x="617" unicode="÷"/><glyph d="M226 -39h-185l93 96q-78 68 -45 193q33 124 143 190.5t247 65.5q37 0 82 -7l28 29h185l-84 -87q76 -69 43 -191q-34 -124 -143.5 -190t-247.5 -66q-40 0 -78 6zM257 184l187 193q-63 0 -119 -35.5t-71 -91.5q-10 -36 3 -66zM566 312l-182 -188q64 2 116 36.5t67 89.5 q10 35 -1 62z" glyph-name="oslash" horiz-adv-x="688" unicode="ø"/><glyph d="M246 -2q-216 0 -138 293l58 215h165l-58 -215q-17 -64 6 -96t76 -32t103.5 36.5t72.5 119.5l50 187h165l-134 -500h-165l33 124q10 34 25 68h-2q-21 -48 -34 -66q-44 -66 -105.5 -100t-117.5 -34zM418 558l-71 142h190l20 -142h-139z" glyph-name="ugrave" horiz-adv-x="654" unicode="ù"/><glyph d="M246 -2q-216 0 -138 293l58 215h165l-58 -215q-17 -64 6 -96t76 -32t103.5 36.5t72.5 119.5l50 187h165l-134 -500h-165l33 124q10 34 25 68h-2q-21 -48 -34 -66q-44 -66 -105.5 -100t-117.5 -34zM533 558h-136l96 142h187z" glyph-name="uacute" horiz-adv-x="654" unicode="ú"/><glyph d="M246 -2q-216 0 -138 293l58 215h165l-58 -215q-17 -64 6 -96t76 -32t103.5 36.5t72.5 119.5l50 187h165l-134 -500h-165l33 124q10 34 25 68h-2q-21 -48 -34 -66q-44 -66 -105.5 -100t-117.5 -34zM258 581l173 171h217l81 -171h-167l-41 100l-95 -100h-168z" glyph-name="ucircumflex" horiz-adv-x="654" unicode="û"/><glyph d="M246 -2q-216 0 -138 293l58 215h165l-58 -215q-17 -64 6 -96t76 -32t103.5 36.5t72.5 119.5l50 187h165l-134 -500h-165l33 124q10 34 25 68h-2q-21 -48 -34 -66q-44 -66 -105.5 -100t-117.5 -34zM313 569l35 131h166l-35 -131h-166zM691 569h-166l36 131h165z" glyph-name="udieresis" horiz-adv-x="654" unicode="ü"/><glyph d="M169 -204h-181l32 118h87q19 0 41.5 2.5t51 12t38.5 25.5l29 48l-90 498h182l44 -269q7 -35 -5 -73h2q13 44 34 73l188 269h181l-404 -571q-87 -133 -230 -133zM544 558h-136l96 142h187z" glyph-name="yacute" horiz-adv-x="695" unicode="ý"/><glyph d="M142 -200h-163l239 900h165l-66 -249q-10 -35 -32 -68l2 -1q24 38 49 56q100 70 242 68q100 -1 152 -71t22 -185q-32 -118 -121 -187t-191 -69q-129 0 -196 63q-23 22 -33 66h-2q10 -37 0 -74zM263 250q-19 -73 16.5 -113t105.5 -40t126 40.5t75 112.5q20 74 -15.5 114 t-102.5 41q-69 1 -127.5 -40.5t-77.5 -114.5z" glyph-name="thorn" horiz-adv-x="713" unicode="þ"/><glyph d="M169 -204h-181l32 118h87q19 0 41.5 2.5t51 12t38.5 25.5l29 48l-90 498h182l44 -269q7 -35 -5 -73h2q13 44 34 73l188 269h181l-404 -571q-87 -133 -230 -133zM526 569l36 131h165l-35 -131h-166zM314 569l35 131h166l-35 -131h-166z" glyph-name="ydieresis" horiz-adv-x="695" unicode="ÿ"/><glyph d="M34 0l452 700h213l76 -700h-177l-20 132h-278l-87 -132h-179zM839 796h-436l27 101h436zM540 513l-160 -246q114 0 140 -10q13 -5 25 -23t17.5 -33.5t14.5 -44.5z" glyph-name="Amacron" horiz-adv-x="797" unicode="Ā"/><glyph d="M461 130q-33 -63 -99.5 -96t-140.5 -33q-81 0 -130 38.5t-32 102.5q16 61 67.5 95.5t113 42.5t121.5 9t103 6t48 24q7 34 -20 50t-86 16q-126 0 -149 -67l-143 5q18 60 72.5 102.5t119 60.5t131.5 17q45 0 83 -6t72.5 -20t54 -36.5t28.5 -55.5t-5 -78l-34 -123 q-4 -19 2 -26t25 -7h28l-41 -151h-117q-43 0 -67.5 28t-14.5 65zM267 596l27 101h436l-27 -101h-436zM228 147q-7 -26 14 -39t59 -13q55 0 109 23.5t64 58.5l13 50q-20 -13 -63.5 -17.5t-81.5 -5t-72 -14t-42 -43.5z" glyph-name="amacron" horiz-adv-x="677" unicode="ā"/><glyph d="M34 0l452 700h213l76 -700h-177l-20 132h-278l-87 -132h-179zM607 755q-53 0 -88.5 17t-48.5 44.5t-16 61.5t8 67h126q-4 -20 -5.5 -39.5t11.5 -34.5t40 -15q39 0 61.5 26.5t32.5 62.5h126q-20 -78 -82 -134t-165 -56zM380 267q114 0 140 -10q13 -5 25 -23t17.5 -33.5 t14.5 -44.5l-37 357z" glyph-name="Abreve" horiz-adv-x="797" unicode="Ă"/><glyph d="M461 130q-33 -63 -99.5 -96t-140.5 -33q-81 0 -130 38.5t-32 102.5q16 61 67.5 95.5t113 42.5t121.5 9t103 6t48 24q7 34 -20 50t-86 16q-126 0 -149 -67l-143 5q18 60 72.5 102.5t119 60.5t131.5 17q45 0 83 -6t72.5 -20t54 -36.5t28.5 -55.5t-5 -78l-34 -123 q-4 -19 2 -26t25 -7h28l-41 -151h-117q-43 0 -67.5 28t-14.5 65zM458 554q-53 0 -88.5 17t-48.5 44.5t-16 61.5t8 67h126q-4 -20 -5.5 -39.5t11.5 -34.5t40 -15q39 0 61.5 26.5t32.5 62.5h127q-21 -78 -83.5 -134t-164.5 -56zM228 147q-7 -26 14 -39t59 -13q55 0 109 23.5 t64 58.5l13 50q-20 -13 -63.5 -17.5t-81.5 -5t-72 -14t-42 -43.5z" glyph-name="abreve" horiz-adv-x="677" unicode="ă"/><glyph d="M34 0l452 700h213l76 -700h-31q-71 -61 -80 -116q-2 -40 31 -42q21 0 55 19l47 -48q-28 -30 -70.5 -47t-85.5 -17q-33 0 -58.5 9.5t-38.5 30t-10 49.5t33 71t85 91h-54l-20 132h-278l-87 -132h-179zM380 267q114 0 140 -10q13 -5 25 -23t17.5 -33.5t14.5 -44.5l-37 357z " glyph-name="Aogonek" horiz-adv-x="797" unicode="Ą"/><glyph d="M461 130q-33 -63 -99.5 -96t-140.5 -33q-81 0 -130 38.5t-32 102.5q16 61 67.5 95.5t113 42.5t121.5 9t103 6t48 24q7 34 -20 50t-86 16q-126 0 -149 -67l-143 5q18 60 72.5 102.5t119 60.5t131.5 17q45 0 83 -6t72.5 -20t54 -36.5t28.5 -55.5t-5 -78l-34 -123 q-4 -19 2 -26t25 -7h28l-41 -151h-7q-70 -61 -76 -115q-3 -38 31 -39q23 0 55 18l47 -48q-28 -30 -70.5 -47t-85.5 -17q-33 0 -58.5 9.5t-38.5 30t-10 48.5t32 70t83 90h-19q-43 0 -67.5 28t-14.5 65zM228 147q-7 -26 14 -39t59 -13q55 0 109 23.5t64 58.5l13 50 q-20 -13 -63.5 -17.5t-81.5 -5t-72 -14t-42 -43.5z" glyph-name="aogonek" horiz-adv-x="677" unicode="ą"/><glyph d="M116 350q47 176 173.5 267.5t289.5 89.5q134 -2 213 -64t78 -182l-172 -37q-2 49 -44.5 83t-120.5 34q-97 1 -163 -51.5t-89 -139.5t17.5 -139.5t131.5 -52.5q82 1 142 35t86 83l152 -37q-62 -120 -174.5 -182t-248.5 -64q-164 -2 -241 89.5t-30 267.5zM510 758l96 142 h187l-147 -142h-136z" glyph-name="Cacute" horiz-adv-x="768" unicode="Ć"/><glyph d="M89 250q33 124 142 190.5t245 65.5q69 -1 126.5 -23t91 -71.5t20.5 -117.5l-154 -5q-2 39 -31.5 65t-86.5 26q-71 1 -121.5 -34.5t-66.5 -95.5q-15 -58 16.5 -94t102.5 -35q112 3 164 87l152 -6q-23 -66 -83 -115t-129 -70.5t-138 -22.5q-137 -1 -210 65.5t-40 190.5z M543 558h-135l96 142h186z" glyph-name="cacute" horiz-adv-x="657" unicode="ć"/><glyph d="M116 350q47 176 173.5 267.5t289.5 89.5q134 -2 213 -64t78 -182l-172 -37q-2 49 -44.5 83t-120.5 34q-97 1 -163 -51.5t-89 -139.5t17.5 -139.5t131.5 -52.5q82 1 142 35t86 83l152 -37q-62 -120 -174.5 -182t-248.5 -64q-164 -2 -241 89.5t-30 267.5zM530 781h-167 l172 171h218l81 -171h-168l-41 100z" glyph-name="Ccircumflex" horiz-adv-x="768" unicode="Ĉ"/><glyph d="M89 250q33 124 142 190.5t245 65.5q69 -1 126.5 -23t91 -71.5t20.5 -117.5l-154 -5q-2 39 -31.5 65t-86.5 26q-71 1 -121.5 -34.5t-66.5 -95.5q-15 -58 16.5 -94t102.5 -35q112 3 164 87l152 -6q-23 -66 -83 -115t-129 -70.5t-138 -22.5q-137 -1 -210 65.5t-40 190.5z M263 581l173 171h217l82 -171h-168l-41 100l-95 -100h-168z" glyph-name="ccircumflex" horiz-adv-x="657" unicode="ĉ"/><glyph d="M116 350q47 176 173.5 267.5t289.5 89.5q134 -2 213 -64t78 -182l-172 -37q-2 49 -44.5 83t-120.5 34q-97 1 -163 -51.5t-89 -139.5t17.5 -139.5t131.5 -52.5q82 1 142 35t86 83l152 -37q-62 -120 -174.5 -182t-248.5 -64q-164 -2 -241 89.5t-30 267.5zM510 767l36 133 h170l-36 -133h-170z" glyph-name="Cdotaccent" horiz-adv-x="768" unicode="Ċ"/><glyph d="M89 250q33 124 142 190.5t245 65.5q69 -1 126.5 -23t91 -71.5t20.5 -117.5l-154 -5q-2 39 -31.5 65t-86.5 26q-71 1 -121.5 -34.5t-66.5 -95.5q-15 -58 16.5 -94t102.5 -35q112 3 164 87l152 -6q-23 -66 -83 -115t-129 -70.5t-138 -22.5q-137 -1 -210 65.5t-40 190.5z M578 567h-170l35 133h170z" glyph-name="cdotaccent" horiz-adv-x="657" unicode="ċ"/><glyph d="M116 350q47 176 173.5 267.5t289.5 89.5q134 -2 213 -64t78 -182l-172 -37q-2 49 -44.5 83t-120.5 34q-97 1 -163 -51.5t-89 -139.5t17.5 -139.5t131.5 -52.5q82 1 142 35t86 83l152 -37q-62 -120 -174.5 -182t-248.5 -64q-164 -2 -241 89.5t-30 267.5zM410 952h167 l42 -100l95 100h167l-173 -171h-217z" glyph-name="Ccaron" horiz-adv-x="768" unicode="Č"/><glyph d="M89 250q33 124 142 190.5t245 65.5q69 -1 126.5 -23t91 -71.5t20.5 -117.5l-154 -5q-2 39 -31.5 65t-86.5 26q-71 1 -121.5 -34.5t-66.5 -95.5q-15 -58 16.5 -94t102.5 -35q112 3 164 87l152 -6q-23 -66 -83 -115t-129 -70.5t-138 -22.5q-137 -1 -210 65.5t-40 190.5z M308 752h168l41 -100l95 100h167l-173 -171h-217z" glyph-name="ccaron" horiz-adv-x="657" unicode="č"/><glyph d="M28 0l188 700h346q100 0 168.5 -38t97 -115.5t-3.5 -196.5q-31 -115 -101.5 -195.5t-159.5 -117.5t-189 -37h-346zM235 151h194q39 0 83 19.5t86.5 67t59.5 112.5q25 93 -17 146t-106 53h-288q95 0 86 -33q-10 -35 -98 -365zM326 952h168l41 -100l95 100h167l-173 -171 h-217z" glyph-name="Dcaron" horiz-adv-x="756" unicode="Ď"/><glyph d="M294 -6q-269 0 -199 256q68 254 336 256q50 1 96 -21t70 -58q13 -19 15 -66h2q-2 40 7 74l71 265h168l-5 -10l-185 -690h-165l16 61q9 34 33 73l-2 1q-31 -50 -51 -66q-42 -34 -99.5 -54.5t-107.5 -20.5zM259 250q-34 -126 111 -126q74 0 130.5 36t71.5 90 q14 55 -22 95.5t-110 39.5q-145 -1 -181 -135z" glyph-name="dcaron" horiz-adv-x="704" unicode="ď"/><glyph d="M81 263l44 166h95l73 271h346q100 0 168.5 -38t97 -115.5t-3.5 -196.5q-31 -115 -101.5 -195.5t-159.5 -117.5t-189 -37h-346l71 263h-95zM531 263h-189q-6 -20 -30 -112h194q39 0 83 19.5t86.5 67t59.5 112.5q25 93 -17 146t-106 53h-288q95 0 85 -33q-1 -7 -23 -88 l189 1z" glyph-name="Dcroat" horiz-adv-x="829" unicode="Đ"/><glyph d="M294 -6q-269 0 -199 256q68 254 336 256q50 1 96 -21t70 -58q13 -19 15 -66h2q-2 40 7 74l26 97h-141l31 113h141l14 55h165l-14 -55h95l-30 -113h-96l-142 -532h-165l16 61q9 34 33 73l-2 1q-31 -50 -51 -66q-42 -34 -99.5 -54.5t-107.5 -20.5zM259 250 q-34 -126 111 -126q74 0 130.5 36t71.5 90q14 55 -22 95.5t-110 39.5q-145 -1 -181 -135z" glyph-name="dcroat" horiz-adv-x="694" unicode="đ"/><glyph d="M848 700l-41 -151h-465l-38 -143h428l-33 -126h-429l-34 -129h465l-41 -151h-630l188 700h630zM337 796l27 101h436l-27 -101h-436z" glyph-name="Emacron" horiz-adv-x="689" unicode="Ē"/><glyph d="M340 -6q-138 -1 -211 65.5t-40 190.5t142 190.5t246 65.5q135 -1 201 -66t33 -190q-1 -5 -2.5 -10t-2.5 -8.5t-3 -9.5h-453q-5 -48 31.5 -77.5t95.5 -28.5q63 0 99 14.5t62 57.5l152 -5q-28 -57 -65.5 -95.5t-84 -58t-93 -27.5t-107.5 -8zM724 596h-436l27 101h436z M452 393q-28 0 -57 -8.5t-59 -27t-53 -53.5t-33 -82q43 71 106 71h220q10 50 -26 74.5t-98 25.5z" glyph-name="emacron" horiz-adv-x="666" unicode="ē"/><glyph d="M30 0l188 700h630l-41 -151h-465l-38 -143h428l-33 -126h-429l-34 -129h465l-41 -151h-630zM555 755q-53 0 -89 17t-49 44.5t-16 61.5t8 67h127q-23 -89 46 -89q70 0 93 89h127q-21 -78 -83 -134t-164 -56z" glyph-name="Ebreve" horiz-adv-x="689" unicode="Ĕ"/><glyph d="M340 -6q-138 -1 -211 65.5t-40 190.5t142 190.5t246 65.5q135 -1 201 -66t33 -190q-1 -5 -2.5 -10t-2.5 -8.5t-3 -9.5h-453q-5 -48 31.5 -77.5t95.5 -28.5q63 0 99 14.5t62 57.5l152 -5q-28 -57 -65.5 -95.5t-84 -58t-93 -27.5t-107.5 -8zM492 554q-53 0 -89 17t-49 44.5 t-16 61.5t8 67h127q-23 -89 46 -89q70 0 93 89h127q-21 -78 -83 -134t-164 -56zM250 222q43 71 106 71h220q10 50 -26 74.5t-98 25.5q-28 0 -57 -8.5t-59 -27t-53 -53.5t-33 -82z" glyph-name="ebreve" horiz-adv-x="666" unicode="ĕ"/><glyph d="M848 700l-41 -151h-465l-38 -143h428l-33 -126h-429l-34 -129h465l-41 -151h-630l188 700h630zM640 767h-170l36 133h170z" glyph-name="Edotaccent" horiz-adv-x="689" unicode="Ė"/><glyph d="M340 -6q-138 -1 -211 65.5t-40 190.5t142 190.5t246 65.5q135 -1 201 -66t33 -190q-1 -5 -2.5 -10t-2.5 -8.5t-3 -9.5h-453q-5 -48 31.5 -77.5t95.5 -28.5q63 0 99 14.5t62 57.5l152 -5q-28 -57 -65.5 -95.5t-84 -58t-93 -27.5t-107.5 -8zM452 393q-28 0 -57 -8.5 t-59 -27t-53 -53.5t-33 -82q43 71 106 71h220q10 50 -26 74.5t-98 25.5zM411 567l35 133h170l-35 -133h-170z" glyph-name="edotaccent" horiz-adv-x="666" unicode="ė"/><glyph d="M396 0h-366l188 700h630l-41 -151h-465l-38 -143h428l-33 -126h-429l-34 -129h465l-41 -151h-172q-71 -61 -80 -116q-2 -40 31 -42q21 0 55 19l47 -48q-28 -30 -70.5 -47t-85.5 -17q-33 0 -58.5 9.5t-38.5 30t-10 49.5t33 71t85 91z" glyph-name="Eogonek" horiz-adv-x="689" unicode="Ę"/><glyph d="M450 -159q-28 -30 -70.5 -47t-85.5 -17q-31 0 -55.5 8.5t-38.5 26.5t-14 43t21.5 62.5t65.5 80.5q-108 15 -160.5 79.5t-23.5 172.5q33 124 142 190.5t246 65.5q135 -1 201 -66t33 -190q-1 -5 -2.5 -10t-2.5 -8.5t-3 -9.5h-453q-5 -48 31.5 -77.5t95.5 -28.5 q63 0 99 14.5t62 57.5l152 -5q-51 -104 -131.5 -145t-196.5 -44q-53 -60 -45 -100q4 -23 30 -23q21 0 55 19zM452 393q-28 0 -57 -8.5t-59 -27t-53 -53.5t-33 -82q43 71 106 71h220q10 50 -26 74.5t-98 25.5z" glyph-name="eogonek" horiz-adv-x="666" unicode="ę"/><glyph d="M660 0h-630l188 700h630l-41 -151h-465l-38 -143h428l-33 -126h-429l-34 -129h465zM381 952h168l41 -100l95 100h167l-172 -171h-218z" glyph-name="Ecaron" horiz-adv-x="689" unicode="Ě"/><glyph d="M340 -6q-138 -1 -211 65.5t-40 190.5t142 190.5t246 65.5q135 -1 201 -66t33 -190q-1 -5 -2.5 -10t-2.5 -8.5t-3 -9.5h-453q-5 -48 31.5 -77.5t95.5 -28.5q63 0 99 14.5t62 57.5l152 -5q-28 -57 -65.5 -95.5t-84 -58t-93 -27.5t-107.5 -8zM311 752h168l41 -100l95 100 h167l-173 -171h-217zM250 222q43 71 106 71h220q10 50 -26 74.5t-98 25.5q-28 0 -57 -8.5t-59 -27t-53 -53.5t-33 -82z" glyph-name="ecaron" horiz-adv-x="666" unicode="ě"/><glyph d="M371 -7q-163 0 -232.5 90t-22.5 267q32 118 103.5 200t164 120t199.5 37q136 -2 216 -64t79 -182l-164 -41q-9 66 -58 101t-114 35q-86 1 -160 -52.5t-101 -153.5q-26 -97 16.5 -151.5t131.5 -54.5q51 0 94 35t65 77h-93l31 118h265q74 0 56 -69q-10 -34 -82 -305h-162 l69 255h-11q-44 -149 -110.5 -205.5t-179.5 -56.5zM521 781h-168l173 171h218l81 -171h-168l-41 100z" glyph-name="Gcircumflex" horiz-adv-x="787" unicode="Ĝ"/><glyph d="M-12 -43q15 54 49.5 82t98.5 51q-69 17 -55 67q13 48 102 71q0 1 -3.5 6.5t-8.5 14.5t-9 22t-5 27.5t3 31.5q22 82 115 125.5t197 43.5q40 0 107 -14q-16 55 46.5 82.5t185.5 23.5l-29 -107h-70q-29 0 -52.5 -6t-10.5 -22l5 -4l8 -10t10 -13.5t10.5 -18.5t7.5 -21.5 t2.5 -26t-4.5 -29.5q-22 -81 -114 -124.5t-195 -43.5q-40 0 -69 7q-4 1 -9 2.5t-8 2.5t-4 1q-10 0 -20.5 -5t-11.5 -12q-2 -9 12 -14t40 -6.5t59.5 -4t70.5 -5t73 -9.5t67 -18.5t52.5 -31t29 -47.5t-2.5 -68q-20 -75 -126.5 -116t-241.5 -41q-83 0 -155 16.5t-116 53.5 t-31 87zM448 625h-167l173 171h217l81 -171h-167l-41 100zM319 -100q63 0 115.5 17.5t61.5 50.5q6 22 -16.5 38t-54.5 23t-75 10q-26 2 -41 2q-46 0 -94.5 -21t-56.5 -52q-8 -32 41 -50t120 -18zM408 270q99 0 115 62q9 32 -16.5 46.5t-64.5 14.5q-41 0 -74 -14.5t-42 -47.5 q-9 -32 16.5 -46.5t65.5 -14.5z" glyph-name="gcircumflex" horiz-adv-x="690" unicode="ĝ"/><glyph d="M371 -7q-163 0 -232.5 90t-22.5 267q32 118 103.5 200t164 120t199.5 37q136 -2 216 -64t79 -182l-164 -41q-9 66 -58 101t-114 35q-86 1 -160 -52.5t-101 -153.5q-26 -97 16.5 -151.5t131.5 -54.5q51 0 94 35t65 77h-93l31 118h265q74 0 56 -69q-10 -34 -82 -305h-162 l69 255h-11q-44 -149 -110.5 -205.5t-179.5 -56.5zM607 754q-53 0 -89 17t-49 44.5t-16 61.5t8 67h127q-24 -89 46 -89q69 0 93 89h127q-21 -78 -83 -134t-164 -56z" glyph-name="Gbreve" horiz-adv-x="787" unicode="Ğ"/><glyph d="M-12 -43q15 54 49.5 82t98.5 51q-69 17 -55 67q13 48 102 71q0 1 -3.5 6.5t-8.5 14.5t-9 22t-5 27.5t3 31.5q22 82 115 125.5t197 43.5q40 0 107 -14q-16 55 46.5 82.5t185.5 23.5l-29 -107h-70q-29 0 -52.5 -6t-10.5 -22l5 -4l8 -10t10 -13.5t10.5 -18.5t7.5 -21.5 t2.5 -26t-4.5 -29.5q-22 -81 -114 -124.5t-195 -43.5q-40 0 -69 7q-4 1 -9 2.5t-8 2.5t-4 1q-10 0 -20.5 -5t-11.5 -12q-2 -9 12 -14t40 -6.5t59.5 -4t70.5 -5t73 -9.5t67 -18.5t52.5 -31t29 -47.5t-2.5 -68q-20 -75 -126.5 -116t-241.5 -41q-83 0 -155 16.5t-116 53.5 t-31 87zM345 777h127q-23 -89 46 -89q70 0 93 89h127q-21 -78 -83 -134t-164 -56q-53 0 -89 17t-49 44.5t-16 61.5t8 67zM319 -100q63 0 115.5 17.5t61.5 50.5q6 22 -16.5 38t-54.5 23t-75 10q-26 2 -41 2q-46 0 -94.5 -21t-56.5 -52q-8 -32 41 -50t120 -18zM408 270 q99 0 115 62q9 32 -16.5 46.5t-64.5 14.5q-41 0 -74 -14.5t-42 -47.5q-9 -32 16.5 -46.5t65.5 -14.5z" glyph-name="gbreve" horiz-adv-x="690" unicode="ğ"/><glyph d="M371 -7q-163 0 -232.5 90t-22.5 267q32 118 103.5 200t164 120t199.5 37q136 -2 216 -64t79 -182l-164 -41q-9 66 -58 101t-114 35q-86 1 -160 -52.5t-101 -153.5q-26 -97 16.5 -151.5t131.5 -54.5q51 0 94 35t65 77h-93l31 118h265q74 0 56 -69q-10 -34 -82 -305h-162 l69 255h-11q-44 -149 -110.5 -205.5t-179.5 -56.5zM511 767l36 133h170l-36 -133h-170z" glyph-name="Gdotaccent" horiz-adv-x="787" unicode="Ġ"/><glyph d="M-12 -43q15 54 49.5 82t98.5 51q-69 17 -55 67q13 48 102 71q0 1 -3.5 6.5t-8.5 14.5t-9 22t-5 27.5t3 31.5q22 82 115 125.5t197 43.5q40 0 107 -14q-16 55 46.5 82.5t185.5 23.5l-29 -107h-70q-29 0 -52.5 -6t-10.5 -22l5 -4l8 -10t10 -13.5t10.5 -18.5t7.5 -21.5 t2.5 -26t-4.5 -29.5q-22 -81 -114 -124.5t-195 -43.5q-40 0 -69 7q-4 1 -9 2.5t-8 2.5t-4 1q-10 0 -20.5 -5t-11.5 -12q-2 -9 12 -14t40 -6.5t59.5 -4t70.5 -5t73 -9.5t67 -18.5t52.5 -31t29 -47.5t-2.5 -68q-20 -75 -126.5 -116t-241.5 -41q-83 0 -155 16.5t-116 53.5 t-31 87zM319 -100q63 0 115.5 17.5t61.5 50.5q6 22 -16.5 38t-54.5 23t-75 10q-26 2 -41 2q-46 0 -94.5 -21t-56.5 -52q-8 -32 41 -50t120 -18zM408 270q99 0 115 62q9 32 -16.5 46.5t-64.5 14.5q-41 0 -74 -14.5t-42 -47.5q-9 -32 16.5 -46.5t65.5 -14.5zM428 634l36 133 h170l-36 -133h-170z" glyph-name="gdotaccent" horiz-adv-x="690" unicode="ġ"/><glyph d="M371 -7q-163 0 -232.5 90t-22.5 267q32 118 103.5 200t164 120t199.5 37q136 -2 216 -64t79 -182l-164 -41q-9 66 -58 101t-114 35q-86 1 -160 -52.5t-101 -153.5q-26 -97 16.5 -151.5t131.5 -54.5q51 0 94 35t65 77h-93l31 118h265q74 0 56 -69q-10 -34 -82 -305h-162 l69 255h-11q-44 -149 -110.5 -205.5t-179.5 -56.5zM322 -192h-107l97 142h125z" glyph-name="uni0122" horiz-adv-x="787" unicode="Ģ"/><glyph d="M-12 -43q15 54 49.5 82t98.5 51q-69 17 -55 67q13 48 102 71q0 1 -3.5 6.5t-8.5 14.5t-9 22t-5 27.5t3 31.5q22 82 115 125.5t197 43.5q40 0 107 -14q-16 55 46.5 82.5t185.5 23.5l-29 -107h-70q-29 0 -52.5 -6t-10.5 -22l5 -4l8 -10t10 -13.5t10.5 -18.5t7.5 -21.5 t2.5 -26t-4.5 -29.5q-22 -81 -114 -124.5t-195 -43.5q-40 0 -69 7q-4 1 -9 2.5t-8 2.5t-4 1q-10 0 -20.5 -5t-11.5 -12q-2 -9 12 -14t40 -6.5t59.5 -4t70.5 -5t73 -9.5t67 -18.5t52.5 -31t29 -47.5t-2.5 -68q-20 -75 -126.5 -116t-241.5 -41q-83 0 -155 16.5t-116 53.5 t-31 87zM319 -100q63 0 115.5 17.5t61.5 50.5q6 22 -16.5 38t-54.5 23t-75 10q-26 2 -41 2q-46 0 -94.5 -21t-56.5 -52q-8 -32 41 -50t120 -18zM507 569h-108l62 234l23 47h171zM408 270q99 0 115 62q9 32 -16.5 46.5t-64.5 14.5q-41 0 -74 -14.5t-42 -47.5 q-9 -32 16.5 -46.5t65.5 -14.5z" glyph-name="uni0123" horiz-adv-x="690" unicode="ģ"/><glyph d="M30 0l188 700h165l-72 -267h351l72 267h165l-187 -700h-166l72 268h-351l-72 -268h-165zM349 781l173 171h217l81 -171h-167l-41 100l-96 -100h-167z" glyph-name="Hcircumflex" horiz-adv-x="742" unicode="Ĥ"/><glyph d="M31 0l188 700h165l-77 -287q-9 -33 -31 -74l2 -1q28 50 45 70q93 100 239 100q98 0 146 -70.5t12 -203.5l-63 -234h-165l63 234q15 57 -11 94t-88 37q-60 0 -123 -45t-87 -133l-50 -187h-165zM85 761l172 171h218l81 -171h-168l-41 100l-95 -100h-167z" glyph-name="hcircumflex" horiz-adv-x="686" unicode="ĥ"/><glyph d="M191 602l27 98h165l-27 -98h352l26 98h165l-26 -98h88l-30 -113h-88l-131 -489h-166l72 268h-351l-72 -268h-165l131 489h-73l30 113h73zM677 489h-351l-15 -56h351z" glyph-name="Hbar" horiz-adv-x="742" unicode="Ħ"/><glyph d="M204 645l15 55h165l-15 -55h139l-30 -113h-140l-31 -119q-9 -33 -31 -74l2 -1q28 50 45 70q93 100 239 100q98 0 146 -70.5t12 -203.5l-63 -234h-165l63 234q15 57 -11 94t-88 37q-60 0 -123 -45t-87 -133l-50 -187h-165l143 532h-98l30 113h98z" glyph-name="hbar" horiz-adv-x="686" unicode="ħ"/><glyph d="M30 0l188 700h165l-188 -700h-165zM188 748l-99 10q55 160 214 160q28 0 49.5 -9t32 -19.5t23.5 -19.5t26 -10q41 -2 66 58l120 -6q-22 -76 -74.5 -121.5t-131.5 -44.5q-38 0 -61.5 14t-40 28t-35.5 15q-31 1 -55 -14.5t-34 -40.5z" glyph-name="Itilde" unicode="Ĩ"/><glyph d="M195 0h-165l134 500h165zM127 550l-99 10q55 160 214 160q28 0 49.5 -9t32 -19.5t23.5 -19.5t26 -10q41 -2 66 58l120 -7q-22 -75 -74.5 -120.5t-131.5 -44.5q-38 0 -61.5 14t-40 28t-35.5 15q-31 1 -55 -14.5t-34 -40.5z" glyph-name="itilde" unicode="ĩ"/><glyph d="M30 0l188 700h165l-188 -700h-165zM130 787l30 113h402l-30 -113h-402z" glyph-name="Imacron" unicode="Ī"/><glyph d="M30 0l134 500h165l-134 -500h-165zM57 596l27 101h436l-27 -101h-436z" glyph-name="imacron" horiz-adv-x="113" unicode="ī"/><glyph d="M65 0h-35l188 700h165l-188 -700h-38q-71 -61 -78 -115q-1 -38 31 -40q23 0 55 18l47 -48q-28 -30 -70.5 -47t-85.5 -17q-33 0 -58.5 9.5t-39 30t-10 48.5t32.5 70t84 91z" glyph-name="Iogonek" unicode="Į"/><glyph d="M32 0l134 500h162l-134 -500h-162zM73 0h91q-71 -61 -80 -116q-2 -40 31 -42q21 0 55 19l48 -48q-28 -30 -70.5 -47t-85.5 -17q-33 0 -58.5 9.5t-39 30t-10 49.5t33.5 71t85 91zM348 568h-166l36 132h166z" glyph-name="iogonek" horiz-adv-x="239" unicode="į"/><glyph d="M30 0l188 700h165l-188 -700h-165zM403 767h-170l35 133h170z" glyph-name="Idotaccent" unicode="İ"/><glyph d="M30 0l134 500h165l-134 -500h-165z" glyph-name="dotlessi" unicode="ı"/><glyph d="M188 -230h-220l35 129h108q166 0 198 123l182 678h165l-187 -700q-29 -110 -107.5 -170t-173.5 -60zM196 0h-166l188 700h165z" glyph-name="IJ" horiz-adv-x="602" unicode="Ĳ"/><glyph d="M104 -189h-22l31 119h22q52 0 81.5 23t44.5 79l125 468h165l-125 -468q-32 -121 -105 -171t-217 -50zM194 0h-162l134 500h162zM348 568h-166l36 132h166zM404 568l36 132h165l-35 -132h-166z" glyph-name="ij" horiz-adv-x="448" unicode="ĳ"/><glyph d="M349 -7q-46 0 -87 7.5t-80 25t-62 46t-33 71t6 100.5l167 41q-13 -57 18 -98.5t112 -41.5q70 0 132.5 53t88.5 151l94 352h165l-96 -360q-25 -94 -68.5 -162.5t-100 -108t-120 -58t-136.5 -18.5zM743 781h-168l173 171h217l81 -171h-167l-41 100z" glyph-name="Jcircumflex" horiz-adv-x="713" unicode="Ĵ"/><glyph d="M-60 -189h-22l32 119h22q52 0 81.5 23t44.5 79l125 468h165l-125 -468q-32 -121 -105.5 -171t-217.5 -50zM88 549l173 171h217l82 -171h-168l-8 19h-110l-18 -19h-168z" glyph-name="jcircumflex" horiz-adv-x="285" unicode="ĵ"/><glyph d="M195 0h-165l188 700h165l-79 -296q-12 -41 -36 -76l2 -1q23 37 57 67l348 306h216l-378 -333l201 -367h-219l-171 314l-87 -160zM280 -192h-106l96 142h125z" glyph-name="uni0136" horiz-adv-x="741" unicode="Ķ"/><glyph d="M30 0l188 700h166l-92 -334q-12 -38 -38 -71l2 -1q28 35 61 57l227 149h239l-301 -195l182 -304h-72v-1l-1 1h-136l-123 208l-96 -62l-39 -147h-167zM134 -186l96 142h125l-115 -142h-106z" glyph-name="uni0137" horiz-adv-x="691" unicode="ķ"/><glyph d="M507 502h160l-279 -237l149 -265h-162l-107 179l-84 -64l-31 -115h-123l134 501h123l-63 -231z" glyph-name="kgreenlandic" horiz-adv-x="564" unicode="ĸ"/><glyph d="M30 0l188 700h165l-137 -511q-10 -37 -45 -64l1 -1q35 27 71 27h377l-40 -151h-580zM380 758h-136l96 142h187z" glyph-name="Lacute" horiz-adv-x="636" unicode="Ĺ"/><glyph d="M35 0l197 735h165l-197 -735h-165zM387 776h-136l96 142h187z" glyph-name="lacute" horiz-adv-x="235" unicode="ĺ"/><glyph d="M610 0h-580l188 700h165l-137 -511q-10 -37 -45 -64l1 -1q35 27 71 27h377zM164 -190l96 142h126l-115 -142h-107z" glyph-name="uni013B" horiz-adv-x="636" unicode="Ļ"/><glyph d="M35 0l197 735h165l-197 -735h-165zM63 -194h-107l96 142h126z" glyph-name="uni013C" horiz-adv-x="235" unicode="ļ"/><glyph d="M30 0l188 700h165l-137 -511q-10 -37 -45 -64l1 -1q35 27 71 27h377l-40 -151h-580zM496 407h-88l22 137l12 33l167 42z" glyph-name="Lcaron" horiz-adv-x="636" unicode="Ľ"/><glyph d="M35 0l197 735h165l-197 -735h-165zM370 363l22 137l12 33l167 42l-113 -212h-88z" glyph-name="lcaron" horiz-adv-x="458" unicode="ľ"/><glyph d="M30 0l188 700h165l-137 -511q-10 -37 -45 -64l1 -1q35 27 71 27h377l-40 -151h-580zM567 318h-165l41 153h165z" glyph-name="Ldot" horiz-adv-x="636" unicode="Ŀ"/><glyph d="M35 0l197 735h165l-197 -735h-165zM489 302h-165l41 153h165z" glyph-name="ldot" horiz-adv-x="438" unicode="ŀ"/><glyph d="M465 461l177 61l17 -154l-241 -83l-26 -96q-9 -36 -44 -64l1 -1q34 27 71 27h377l-41 -151h-580l60 223l-165 -57l-17 154l229 79l81 301h165z" glyph-name="Lslash" horiz-adv-x="776" unicode="Ł"/><glyph d="M60 343l229 71l86 321h166l-72 -265l181 56l11 -157l-238 -74l-79 -295h-166l64 239l-171 -53z" glyph-name="lslash" horiz-adv-x="530" unicode="ł"/><glyph d="M30 0l188 700h172l221 -418q18 -32 22 -78l2 1q-4 47 8 87l109 408h165l-188 -700h-172l-222 415q-16 31 -22 78h-2q4 -47 -7 -88l-109 -405h-165zM497 758l96 142h187l-147 -142h-136z" glyph-name="Nacute" horiz-adv-x="759" unicode="Ń"/><glyph d="M30 0l134 500h165l-34 -127q-10 -34 -25 -68h2q21 48 34 66q46 67 111 102t121 35q210 0 131 -293l-57 -215h-165l57 215q17 61 -4.5 94.5t-69.5 33.5q-56 0 -109.5 -36.5t-75.5 -119.5l-50 -187h-165zM447 558h-136l96 142h187z" glyph-name="nacute" horiz-adv-x="642" unicode="ń"/><glyph d="M195 0h-165l188 700h172l221 -418q18 -32 22 -78l2 1q-4 47 8 87l109 408h165l-188 -700h-172l-222 415q-16 31 -22 78h-2q4 -47 -7 -88zM328 -190h-106l96 142h125z" glyph-name="uni0145" horiz-adv-x="759" unicode="Ņ"/><glyph d="M30 0l134 500h165l-34 -127q-10 -34 -25 -68h2q21 48 34 66q46 67 111 102t121 35q210 0 131 -293l-57 -215h-165l57 215q17 61 -4.5 94.5t-69.5 33.5q-56 0 -109.5 -36.5t-75.5 -119.5l-50 -187h-165zM153 -192l96 142h125l-115 -142h-106z" glyph-name="uni0146" horiz-adv-x="642" unicode="ņ"/><glyph d="M195 0h-165l188 700h172l221 -418q18 -32 22 -78l2 1q-4 47 8 87l109 408h165l-188 -700h-172l-222 415q-16 31 -22 78h-2q4 -47 -7 -88zM403 952h168l42 -100l94 100h168l-173 -171h-217z" glyph-name="Ncaron" horiz-adv-x="759" unicode="Ň"/><glyph d="M195 0h-165l134 500h165l-34 -127q-10 -34 -25 -68h2q21 48 34 66q46 67 111 102t121 35q210 0 131 -293l-57 -215h-165l57 215q17 61 -4.5 94.5t-69.5 33.5q-56 0 -109.5 -36.5t-75.5 -119.5zM291 752h167l42 -100l95 100h167l-173 -171h-217z" glyph-name="ncaron" horiz-adv-x="642" unicode="ň"/><glyph d="M195 0h-165l134 500h165l-34 -127q-10 -34 -25 -68h2q21 48 34 66q46 67 111 102t121 35q210 0 131 -293l-57 -215h-165l57 215q17 61 -4.5 94.5t-69.5 33.5q-56 0 -109.5 -36.5t-75.5 -119.5zM535 608h-88l23 137l11 34l167 41z" glyph-name="napostrophe" horiz-adv-x="642" unicode="ŉ"/><glyph d="M391 -7q-105 0 -176.5 39t-101.5 118t3 200q31 117 104 200t165.5 120.5t197.5 36.5t176.5 -39.5t101.5 -117.5t-3 -200q-47 -174 -175.5 -265.5t-291.5 -91.5zM282 350q-25 -93 21 -149.5t129 -56.5q86 0 160.5 56t99.5 150q25 93 -21 149t-129 57q-82 1 -158.5 -56 t-101.5 -150zM835 796h-436l27 101h436z" glyph-name="Omacron" horiz-adv-x="786" unicode="Ō"/><glyph d="M342 -6q-137 0 -211.5 66t-41.5 190t143 190.5t247 65.5q138 -1 212.5 -66.5t41.5 -189.5q-34 -124 -143.5 -190t-247.5 -66zM254 250q-15 -58 20.5 -92t102.5 -34q66 0 120.5 34.5t69.5 91.5t-21 92t-101 35q-63 1 -119.5 -35t-71.5 -92zM723 596h-436l27 101h436z" glyph-name="omacron" horiz-adv-x="688" unicode="ō"/><glyph d="M391 -7q-105 0 -176.5 39t-101.5 118t3 200q31 117 104 200t165.5 120.5t197.5 36.5t176.5 -39.5t101.5 -117.5t-3 -200q-47 -174 -175.5 -265.5t-291.5 -91.5zM282 350q-25 -93 21 -149.5t129 -56.5q86 0 160.5 56t99.5 150q25 93 -21 149t-129 57q-82 1 -158.5 -56 t-101.5 -150zM595 754q-53 0 -88.5 17t-48.5 44.5t-16 61.5t8 67h126q-4 -20 -5.5 -39.5t11.5 -34.5t40 -15q39 0 61.5 26.5t32.5 62.5h127q-21 -78 -83.5 -134t-164.5 -56z" glyph-name="Obreve" horiz-adv-x="786" unicode="Ŏ"/><glyph d="M342 -6q-137 0 -211.5 66t-41.5 190t143 190.5t247 65.5q138 -1 212.5 -66.5t41.5 -189.5q-34 -124 -143.5 -190t-247.5 -66zM254 250q-15 -58 20.5 -92t102.5 -34q66 0 120.5 34.5t69.5 91.5t-21 92t-101 35q-63 1 -119.5 -35t-71.5 -92zM492 554q-53 0 -88.5 17 t-48.5 44.5t-16 61.5t8 67h126q-4 -20 -5.5 -39.5t11.5 -34.5t40 -15q39 0 61.5 26.5t32.5 62.5h126q-20 -78 -82 -134t-165 -56z" glyph-name="obreve" horiz-adv-x="688" unicode="ŏ"/><glyph d="M391 -7q-105 0 -176.5 39t-101.5 118t3 200q31 117 104 200t165.5 120.5t197.5 36.5t176.5 -39.5t101.5 -117.5t-3 -200q-47 -174 -175.5 -265.5t-291.5 -91.5zM282 350q-25 -93 21 -149.5t129 -56.5q86 0 160.5 56t99.5 150q25 93 -21 149t-129 57q-82 1 -158.5 -56 t-101.5 -150zM622 758l96 142h189l-153 -142h-132zM542 758h-132l96 142h188z" glyph-name="Ohungarumlaut" horiz-adv-x="786" unicode="Ő"/><glyph d="M342 -6q-137 0 -211.5 66t-41.5 190t143 190.5t247 65.5q138 -1 212.5 -66.5t41.5 -189.5q-34 -124 -143.5 -190t-247.5 -66zM254 250q-15 -58 20.5 -92t102.5 -34q66 0 120.5 34.5t69.5 91.5t-21 92t-101 35q-63 1 -119.5 -35t-71.5 -92zM305 558l96 142h188l-152 -142 h-132zM517 558l96 142h189l-153 -142h-132z" glyph-name="ohungarumlaut" horiz-adv-x="688" unicode="ő"/><glyph d="M412 -7q-111 0 -187 39t-109 118t0 200q31 117 107 200t173 120.5t207 36.5q90 -1 160 -42t97 -117l40 152h516l-40 -151h-363l-37 -140h298l-34 -126h-298l-35 -132h362l-40 -151h-516l38 141q-61 -66 -156.5 -107t-182.5 -41zM327 350q-29 -110 24.5 -175t163.5 -65 q91 0 178 66t116 174t-22.5 173.5t-143.5 66.5q-112 2 -199 -63.5t-117 -176.5z" glyph-name="OE" horiz-adv-x="1252" unicode="Œ"/><glyph d="M316 -6q-126 0 -193 66t-34 190t135.5 190.5t229.5 65.5q76 -1 137.5 -35t76.5 -86q35 51 121 86.5t164 34.5q122 -1 177.5 -65.5t22.5 -190.5q-1 -3 -10 -23h-462q-11 -47 26 -79.5t105 -31.5q104 0 161 68l148 -8q-39 -77 -127 -129t-178 -53q-78 -1 -139.5 28.5 t-84.5 81.5q-51 -51 -125 -80.5t-151 -29.5zM254 250q-19 -71 19 -106.5t113 -35.5q158 0 196 142q17 63 -17.5 102.5t-102.5 39.5q-71 1 -131.5 -39t-76.5 -103zM681 227q67 74 167 74q58 -1 164 0q10 38 -21.5 64.5t-98.5 26.5q-68 1 -129 -44t-82 -121z" glyph-name="oe" horiz-adv-x="1102" unicode="œ"/><glyph d="M30 0l188 700h419q123 0 177.5 -46.5t29.5 -139.5q-11 -39 -31.5 -65.5t-38 -37.5t-45.5 -22q-43 -23 -107 -29l-1 -2q75 7 101 -10q15 -7 25 -17t18.5 -30t6 -55t-15.5 -84l-43 -162h-165l42 159q10 36 -9 54t-60 18l-263 -1l-61 -230h-167zM295 368h204q63 0 118.5 25 t68.5 72q15 55 -14 78t-91 23h-233zM607 758h-135l96 142h186z" glyph-name="Racute" horiz-adv-x="741" unicode="Ŕ"/><glyph d="M30 0l86 321q25 94 78.5 136.5t149.5 42.5h248l-40 -151h-196q-42 0 -58.5 -16t-30.5 -68l-72 -265h-165zM321 558l97 142h186l-147 -142h-136z" glyph-name="racute" horiz-adv-x="485" unicode="ŕ"/><glyph d="M197 0h-167l188 700h419q123 0 177.5 -46.5t29.5 -139.5q-11 -39 -31.5 -65.5t-38 -37.5t-45.5 -22q-43 -23 -107 -29l-1 -2q75 7 101 -10q15 -7 25 -17t18.5 -30t6 -55t-15.5 -84l-43 -162h-165l42 159q10 36 -9 54t-60 18l-263 -1zM348 566l-53 -198h204q63 0 118.5 25 t68.5 72q15 55 -14 78t-91 23h-233zM313 -191h-107l96 142h126z" glyph-name="uni0156" horiz-adv-x="741" unicode="Ŗ"/><glyph d="M195 0h-165l86 321q25 94 78.5 136.5t149.5 42.5h248l-40 -151h-196q-42 0 -58.5 -16t-30.5 -68zM-14 -192l96 142h125l-115 -142h-106z" glyph-name="uni0157" horiz-adv-x="485" unicode="ŗ"/><glyph d="M197 0h-167l188 700h419q123 0 177.5 -46.5t29.5 -139.5q-11 -39 -31.5 -65.5t-38 -37.5t-45.5 -22q-43 -23 -107 -29l-1 -2q75 7 101 -10q15 -7 25 -17t18.5 -30t6 -55t-15.5 -84l-43 -162h-165l42 159q10 36 -9 54t-60 18l-263 -1zM348 566l-53 -198h204q63 0 118.5 25 t68.5 72q15 55 -14 78t-91 23h-233zM382 952h167l42 -100l94 100h168l-173 -171h-217z" glyph-name="Rcaron" horiz-adv-x="741" unicode="Ř"/><glyph d="M195 0h-165l86 321q25 94 78.5 136.5t149.5 42.5h248l-40 -151h-196q-42 0 -58.5 -16t-30.5 -68zM216 752h167l42 -100l94 100h168l-173 -171h-217z" glyph-name="rcaron" horiz-adv-x="485" unicode="ř"/><glyph d="M96 228l161 5q-10 -45 26 -65.5t111 -21.5q192 -2 212 79q6 22 -18.5 34.5t-67.5 18.5t-95.5 11.5t-103.5 17t-91 30.5t-57.5 57t-3.5 92q32 117 139.5 171.5t252.5 52.5q141 -2 211.5 -55.5t44.5 -164.5l-158 -5q9 41 -24.5 58t-113.5 17q-167 0 -187 -72 q-6 -23 28.5 -35.5t90 -15.5t118.5 -14t115 -27.5t78.5 -58t9.5 -104.5q-12 -43 -38 -81t-73 -75.5t-126 -59.5t-180 -22q-74 0 -128 12.5t-83 34.5t-45 52t-14 64t9 70zM494 758l97 142h186l-147 -142h-136z" glyph-name="Sacute" horiz-adv-x="745" unicode="Ś"/><glyph d="M66 158l168 18q-7 -36 24 -53t92 -17q59 0 96.5 15.5t44.5 42.5q5 18 -36 25.5t-100.5 11.5t-117.5 14.5t-92 43.5t-19 88q14 50 56.5 85t98.5 49.5t98 20t80 5.5q64 0 119.5 -16t90.5 -54t22 -90l-149 -13q5 31 -24.5 45.5t-93.5 14.5q-121 0 -135 -54q-4 -15 25 -22.5 t74.5 -9.5t97 -9t94.5 -19.5t65 -43t10 -76.5q-14 -53 -57.5 -89.5t-101.5 -51.5t-100 -20t-83 -5q-34 0 -74 6.5t-87 22.5t-72.5 51t-13.5 84zM391 558l96 142h186l-147 -142h-135z" glyph-name="sacute" horiz-adv-x="637" unicode="ś"/><glyph d="M93 228l161 5q-10 -45 26 -65.5t111 -21.5q191 -2 212 79q6 22 -18.5 34.5t-67.5 18.5t-95.5 11.5t-103.5 17t-91 30.5t-57.5 57t-3.5 92q32 117 139.5 171.5t252.5 52.5q141 -2 211.5 -55.5t44.5 -164.5l-158 -5q9 41 -24.5 58t-114.5 17q-166 0 -186 -72 q-5 -20 19.5 -31.5t68 -16.5t96.5 -10t104 -16.5t91 -30.5t57.5 -57.5t3.5 -92.5q-12 -43 -38 -81t-73 -75.5t-126 -59.5t-180 -22q-74 0 -128 12.5t-83 34.5t-45 52t-14 64t9 70zM506 781h-168l173 171h217l81 -171h-167l-41 100z" glyph-name="Scircumflex" horiz-adv-x="740" unicode="Ŝ"/><glyph d="M66 158l168 18q-7 -36 24 -53t92 -17q59 0 96.5 15.5t44.5 42.5q5 18 -36 25.5t-100.5 11.5t-117.5 14.5t-92 43.5t-19 88q14 50 56.5 85t98.5 49.5t98 20t80 5.5q64 0 119.5 -16t90.5 -54t22 -90l-149 -13q5 31 -24.5 45.5t-93.5 14.5q-121 0 -135 -54q-4 -15 25 -22.5 t74.5 -9.5t97 -9t94.5 -19.5t65 -43t10 -76.5q-14 -53 -57.5 -89.5t-101.5 -51.5t-100 -20t-83 -5q-34 0 -74 6.5t-87 22.5t-72.5 51t-13.5 84zM243 581l173 171h217l81 -171h-168l-41 100l-95 -100h-167z" glyph-name="scircumflex" horiz-adv-x="637" unicode="ŝ"/><glyph d="M93 228l161 5q-10 -45 26 -65.5t111 -21.5q191 -2 212 79q6 22 -18.5 34.5t-67.5 18.5t-95.5 11.5t-103.5 17t-91 30.5t-57.5 57t-3.5 92q32 117 139.5 171.5t252.5 52.5q141 -2 211.5 -55.5t44.5 -164.5l-158 -5q9 41 -24.5 58t-114.5 17q-166 0 -186 -72 q-5 -20 19.5 -31.5t68 -16.5t96.5 -10t104 -16.5t91 -30.5t57.5 -57.5t3.5 -92.5q-10 -38 -32.5 -73.5t-62 -70.5t-104 -59.5t-147.5 -31.5l-40 -50q89 0 63 -101q-18 -64 -70.5 -96.5t-115.5 -32.5q-47 0 -84 17.5t-49 46.5l67 60q7 -20 28.5 -31t48.5 -11q28 0 51 13 t30 39q5 16 -4.5 26t-32 13.5t-36.5 4t-39 0.5h-9l64 101q-257 20 -204 231z" glyph-name="Scedilla" horiz-adv-x="740" unicode="Ş"/><glyph d="M66 158l168 18q-7 -36 24 -53t92 -17q59 0 96.5 15.5t44.5 42.5q5 18 -36 25.5t-100.5 11.5t-117.5 14.5t-92 43.5t-19 88q14 50 56.5 85t98.5 49.5t98 20t80 5.5q64 0 119.5 -16t90.5 -54t22 -90l-149 -13q5 31 -24.5 45.5t-93.5 14.5q-121 0 -135 -54q-4 -15 25 -22.5 t74.5 -9.5t97 -9t94.5 -19.5t65 -43t10 -76.5q-37 -139 -271 -163l-40 -49q43 0 60 -25.5t3 -75.5q-18 -64 -70.5 -96.5t-115.5 -32.5q-47 0 -84 17.5t-49 46.5l68 60q7 -20 28 -31t48 -11q29 0 52 13t30 39q3 11 -0.5 19t-14.5 12.5t-20 7.5t-27 4t-25.5 1h-24.5h-9l26 40 l38 62q-38 4 -71.5 14t-66 27.5t-47.5 48t-6 70.5z" glyph-name="scedilla" horiz-adv-x="637" unicode="ş"/><glyph d="M96 228l161 5q-10 -45 26 -65.5t111 -21.5q192 -2 212 79q6 22 -18.5 34.5t-67.5 18.5t-95.5 11.5t-103.5 17t-91 30.5t-57.5 57t-3.5 92q32 117 139.5 171.5t252.5 52.5q141 -2 211.5 -55.5t44.5 -164.5l-158 -5q9 41 -24.5 58t-113.5 17q-167 0 -187 -72 q-6 -23 28.5 -35.5t90 -15.5t118.5 -14t115 -27.5t78.5 -58t9.5 -104.5q-12 -43 -38 -81t-73 -75.5t-126 -59.5t-180 -22q-74 0 -128 12.5t-83 34.5t-45 52t-14 64t9 70zM463 781l-82 171h168l42 -100l94 100h168l-173 -171h-217z" glyph-name="Scaron" horiz-adv-x="745" unicode="Š"/><glyph d="M66 158l168 18q-7 -36 24 -53t92 -17q59 0 96.5 15.5t44.5 42.5q5 18 -36 25.5t-100.5 11.5t-117.5 14.5t-92 43.5t-19 88q14 50 56.5 85t98.5 49.5t98 20t80 5.5q64 0 119.5 -16t90.5 -54t22 -90l-149 -13q5 31 -24.5 45.5t-93.5 14.5q-121 0 -135 -54q-4 -15 25 -22.5 t74.5 -9.5t97 -9t94.5 -19.5t65 -43t10 -76.5q-14 -53 -57.5 -89.5t-101.5 -51.5t-100 -20t-83 -5q-34 0 -74 6.5t-87 22.5t-72.5 51t-13.5 84zM360 581l-81 171h167l42 -100l95 100h167l-173 -171h-217z" glyph-name="scaron" horiz-adv-x="637" unicode="š"/><glyph d="M167 549l41 151h679l-41 -151h-223q-32 0 -50 25l-2 -1q18 -27 9 -58l-138 -515h-165l147 549h-257zM381 952h168l41 -100l95 100h167l-173 -171h-217z" glyph-name="Tcaron" horiz-adv-x="719" unicode="Ť"/><glyph d="M203 351h-99l40 151h35q41 0 88.5 58t65.5 123h165q-31 -115 -146 -170q-19 -9 -71 -16v-2q49 7 70 7h219l-41 -151h-161l-39 -147q-15 -53 40 -53h131l-40 -151h-166q-101 0 -129.5 57t3.5 163zM547 585l22 137l12 33l167 42l-113 -212h-88z" glyph-name="tcaron" horiz-adv-x="566" unicode="ť"/><glyph d="M167 549l41 151h679l-41 -151h-223q-32 0 -50 25l-2 -1q18 -27 9 -58l-27 -99h117l-30 -113h-117l-81 -303h-165l81 303h-120l30 113h121l35 133h-257z" glyph-name="Tbar" horiz-adv-x="719" unicode="Ŧ"/><glyph d="M159 185h-101l31 114h100l14 52h-99l40 151h35q41 0 88.5 58t65.5 123h165q-31 -115 -146 -170q-19 -9 -71 -16v-2q49 7 70 7h219l-41 -151h-161l-14 -52h137l-31 -114h-135q-1 -20 10.5 -27t33.5 -7h131l-40 -151h-166q-93 0 -123.5 46t-11.5 139z" glyph-name="tbar" horiz-adv-x="466" unicode="ŧ"/><glyph d="M116 320l102 380h165l-102 -381q-22 -81 18 -128.5t120 -47.5q83 0 144.5 45t84.5 131l102 381h165l-102 -380q-22 -82 -68 -146t-106 -103t-126 -59t-134 -20q-75 0 -131.5 18.5t-96 58t-48 101.5t12.5 150zM444 749l-99 10q55 160 214 160q36 0 60 -14t40 -28.5 t32 -15.5q40 -2 65 58l121 -7q-23 -75 -75.5 -121t-131.5 -45q-30 1 -51.5 9.5t-31.5 19t-24 19t-30 9.5q-30 2 -54.5 -13.5t-34.5 -40.5z" glyph-name="Utilde" horiz-adv-x="757" unicode="Ũ"/><glyph d="M246 -2q-216 0 -138 293l58 215h165l-58 -215q-17 -64 6 -96t76 -32t103.5 36.5t72.5 119.5l50 187h165l-134 -500h-165l33 124q10 34 25 68h-2q-21 -48 -34 -66q-44 -66 -105.5 -100t-117.5 -34zM236 558q56 160 215 160q35 0 59 -14t40 -28.5t32 -15.5q40 -2 65 58 l121 -6q-23 -76 -75.5 -121.5t-131.5 -44.5q-37 0 -60.5 14t-40 28t-36.5 15q-30 1 -54.5 -15t-33.5 -40z" glyph-name="utilde" horiz-adv-x="654" unicode="ũ"/><glyph d="M116 320l102 380h165l-102 -381q-22 -81 18 -128.5t120 -47.5q83 0 144.5 45t84.5 131l102 381h165l-102 -380q-22 -82 -68 -146t-106 -103t-126 -59t-134 -20q-75 0 -131.5 18.5t-96 58t-48 101.5t12.5 150zM809 796h-436l27 101h436z" glyph-name="Umacron" horiz-adv-x="757" unicode="Ū"/><glyph d="M246 -2q-216 0 -138 293l58 215h165l-58 -215q-17 -64 6 -96t76 -32t103.5 36.5t72.5 119.5l50 187h165l-134 -500h-165l33 124q10 34 25 68h-2q-21 -48 -34 -66q-44 -66 -105.5 -100t-117.5 -34zM267 596l27 101h436l-27 -101h-436z" glyph-name="umacron" horiz-adv-x="654" unicode="ū"/><glyph d="M116 320l102 380h165l-102 -381q-22 -81 18 -128.5t120 -47.5q83 0 144.5 45t84.5 131l102 381h165l-102 -380q-22 -82 -68 -146t-106 -103t-126 -59t-134 -20q-75 0 -131.5 18.5t-96 58t-48 101.5t12.5 150zM424 944h127q-24 -89 46 -89q68 0 94 89h126 q-21 -78 -83 -134t-164 -56q-53 0 -88.5 17t-49 44.5t-16.5 61.5t8 67z" glyph-name="Ubreve" horiz-adv-x="757" unicode="Ŭ"/><glyph d="M246 -2q-216 0 -138 293l58 215h165l-58 -215q-17 -64 6 -96t76 -32t103.5 36.5t72.5 119.5l50 187h165l-134 -500h-165l33 124q10 34 25 68h-2q-21 -48 -34 -66q-44 -66 -105.5 -100t-117.5 -34zM462 554q-53 0 -88.5 17t-48.5 44.5t-16 61.5t8 67h126q-24 -88 46 -88 t94 88h126q-20 -78 -82 -134t-165 -56z" glyph-name="ubreve" horiz-adv-x="654" unicode="ŭ"/><glyph d="M116 320l102 380h165l-102 -381q-22 -81 18 -128.5t120 -47.5q83 0 144.5 45t84.5 131l102 381h165l-102 -380q-22 -82 -68 -146t-106 -103t-126 -59t-134 -20q-75 0 -131.5 18.5t-96 58t-48 101.5t12.5 150zM440 854q12 46 66 77.5t120 31.5q65 0 102 -31.5t25 -77.5 q-13 -46 -67 -78t-118 -32q-67 0 -104 32t-24 78zM585 811q24 0 44.5 12.5t24.5 30.5q4 17 -9 30t-36 13q-24 0 -45 -12.5t-26 -30.5q-4 -18 9.5 -30.5t37.5 -12.5z" glyph-name="Uring" horiz-adv-x="757" unicode="Ů"/><glyph d="M246 -2q-216 0 -138 293l58 215h165l-58 -215q-17 -64 6 -96t76 -32t103.5 36.5t72.5 119.5l50 187h165l-134 -500h-165l33 124q10 34 25 68h-2q-21 -48 -34 -66q-44 -66 -105.5 -100t-117.5 -34zM465 544q-66 0 -103 32t-24 78q12 46 66 77.5t120 31.5q65 0 102 -31.5 t25 -77.5q-13 -46 -67 -78t-119 -32zM436 654q-4 -18 9.5 -30.5t37.5 -12.5t44.5 12.5t24.5 30.5q5 17 -9 30t-37 13q-24 0 -44.5 -13t-25.5 -30z" glyph-name="uring" horiz-adv-x="654" unicode="ů"/><glyph d="M116 320l102 380h165l-102 -381q-22 -81 18 -128.5t120 -47.5q83 0 144.5 45t84.5 131l102 381h165l-102 -380q-22 -82 -68 -146t-106 -103t-126 -59t-134 -20q-75 0 -131.5 18.5t-96 58t-48 101.5t12.5 150zM719 758h-132l96 142h188zM374 758l96 142h189l-153 -142 h-132z" glyph-name="Uhungarumlaut" horiz-adv-x="757" unicode="Ű"/><glyph d="M246 -2q-216 0 -138 293l58 215h165l-58 -215q-17 -64 6 -96t76 -32t103.5 36.5t72.5 119.5l50 187h165l-134 -500h-165l33 124q10 34 25 68h-2q-21 -48 -34 -66q-44 -66 -105.5 -100t-117.5 -34zM613 562h-131l96 142h188zM269 562l96 142h189l-153 -142h-132z" glyph-name="uhungarumlaut" horiz-adv-x="654" unicode="ű"/><glyph d="M116 320l102 380h165l-102 -381q-22 -81 18 -128.5t120 -47.5q83 0 144.5 45t84.5 131l102 381h165l-102 -380q-38 -140 -140 -222.5t-229 -100.5q-57 -61 -53 -105q3 -26 31 -26q21 0 55 19l48 -49q-28 -30 -70.5 -47t-85.5 -17q-31 0 -55.5 8.5t-38.5 26.5t-14.5 43 t21.5 62.5t65 80.5q-141 8 -207 88.5t-24 238.5z" glyph-name="Uogonek" horiz-adv-x="757" unicode="Ų"/><glyph d="M246 -2q-216 0 -138 293l58 215h165l-58 -215q-17 -64 6 -96t76 -32t103.5 36.5t72.5 119.5l50 187h165l-134 -500h-39q-71 -61 -79 -116q-3 -39 29 -41q22 0 56 19l48 -49q-28 -30 -70.5 -47t-85.5 -17q-33 0 -59 9.5t-39 30t-10 49.5t33 71t85 91h-34l33 124 q10 34 25 68h-2q-21 -48 -34 -66q-44 -66 -105.5 -100t-117.5 -34z" glyph-name="uogonek" horiz-adv-x="654" unicode="ų"/><glyph d="M267 0l-57 700h175l34 -473q1 -15 -4 -35h2q7 24 12 35l239 473h154l-14 -474q0 -10 -7 -33h2q6 19 14 33l293 474h176l-432 -700h-201l11 383q0 5 2 11h-2q0 -1 -1 -5t-2 -6l-195 -383h-199zM617 781h-168l173 171h217l81 -171h-167l-41 100z" glyph-name="Wcircumflex" horiz-adv-x="1120" unicode="Ŵ"/><glyph d="M143 500h177l26 -339q1 -26 -6 -63h2q7 33 23 64l182 338h270l4 -340q0 -29 -11 -64h2q11 36 28 63l209 341h175l-308 -500h-263l-4 334q0 33 11 75h-2q-10 -40 -28 -75l-180 -334h-266zM620 581h-167l173 171h217l81 -171h-167l-41 100z" glyph-name="wcircumflex" horiz-adv-x="1072" unicode="ŵ"/><glyph d="M392 306l-188 393h203l95 -215q13 -30 2 -69h2q11 39 39 69l210 215h202l-400 -393l-82 -306h-165zM368 781l173 171h217l81 -171h-167l-41 100l-95 -100h-168z" glyph-name="Ycircumflex" horiz-adv-x="786" unicode="Ŷ"/><glyph d="M-18 -204l32 118h87q19 0 41.5 2.5t51 12t38.5 25.5l29 48l-90 498h182l45 -269q5 -35 -5 -73h2q10 39 33 73l189 269h180l-403 -571q-88 -133 -230 -133h-182zM266 581l172 171h218l81 -171h-168l-41 100l-95 -100h-167z" glyph-name="ycircumflex" horiz-adv-x="683" unicode="ŷ"/><glyph d="M392 306l-188 393h203l95 -215q13 -30 2 -69h2q11 39 39 69l210 215h202l-400 -393l-82 -306h-165zM786 769h-165l35 131h165zM409 769l35 131h165l-35 -131h-165z" glyph-name="Ydieresis" horiz-adv-x="786" unicode="Ÿ"/><glyph d="M730 0h-708l24 89l527 433q31 26 73 42l-1 1q-38 -15 -76 -15h-392l41 150h691l-24 -89l-519 -432q-30 -26 -72 -42v-2q43 16 77 16h400zM497 758l96 142h186l-147 -142h-135z" glyph-name="Zacute" horiz-adv-x="752" unicode="Ź"/><glyph d="M625 0h-600l34 126l311 201q34 20 76 33v2q-45 -13 -77 -13h-240l41 151h585l-34 -126l-309 -201q-34 -20 -76 -33v-2q43 13 77 13h253zM394 560l96 142h187l-147 -142h-136z" glyph-name="zacute" horiz-adv-x="650" unicode="ź"/><glyph d="M730 0h-708l24 89l527 433q31 26 73 42l-1 1q-38 -15 -76 -15h-392l41 150h691l-24 -89l-519 -432q-30 -26 -72 -42v-2q43 16 77 16h400zM489 767l36 133h170l-36 -133h-170z" glyph-name="Zdotaccent" horiz-adv-x="752" unicode="Ż"/><glyph d="M625 0h-600l34 126l311 201q34 20 76 33v2q-45 -13 -77 -13h-240l41 151h585l-34 -126l-309 -201q-34 -20 -76 -33v-2q43 13 77 13h253zM394 567l35 133h170l-35 -133h-170z" glyph-name="zdotaccent" horiz-adv-x="650" unicode="ż"/><glyph d="M730 0h-708l24 89l527 433q31 26 73 42l-1 1q-38 -15 -76 -15h-392l41 150h691l-24 -89l-519 -432q-30 -26 -72 -42v-2q43 16 77 16h400zM392 952h167l42 -100l95 100h167l-173 -171h-217z" glyph-name="Zcaron" horiz-adv-x="752" unicode="Ž"/><glyph d="M625 0h-600l34 126l311 201q34 20 76 33v2q-45 -13 -77 -13h-240l41 151h585l-34 -126l-309 -201q-34 -20 -76 -33v-2q43 13 77 13h253zM385 581l-81 171h167l42 -100l95 100h167l-173 -171h-217z" glyph-name="zcaron" horiz-adv-x="650" unicode="ž"/><glyph d="M89 228l161 5q-18 -85 137 -87q192 -2 213 79q6 22 -18.5 34.5t-68 18.5t-96 11.5t-103.5 17t-91 30.5t-57.5 57t-3.5 92q32 117 139.5 171.5t252.5 52.5q141 -2 212 -55.5t44 -164.5l-157 -5q9 41 -25 58t-114 17q-168 0 -186 -72q-5 -20 19.5 -31.5t68 -16.5t96.5 -10 t104 -16.5t90.5 -30.5t57.5 -57.5t3 -92.5q-9 -33 -26 -64t-50.5 -63.5t-78 -56.5t-112.5 -39t-150 -15q-74 0 -127.5 12.5t-82.5 34.5t-45 52t-14.5 64t8.5 70zM193 -192l96 142h126l-115 -142h-107z" glyph-name="uni0218" horiz-adv-x="732" unicode="Ș"/><glyph d="M66 158l168 18q-7 -36 24 -53t92 -17q59 0 96.5 15.5t44.5 42.5q5 18 -36 25.5t-100.5 11.5t-117.5 14.5t-92 43.5t-19 88q14 50 56.5 85t98.5 49.5t98 20t80 5.5q64 0 119.5 -16t90.5 -54t22 -90l-149 -13q5 31 -24.5 45.5t-93.5 14.5q-121 0 -135 -54q-4 -15 25 -22.5 t74.5 -9.5t97 -9t94.5 -19.5t65 -43t10 -76.5q-14 -53 -57.5 -89.5t-101.5 -51.5t-100 -20t-83 -5q-34 0 -74 6.5t-87 22.5t-72.5 51t-13.5 84zM153 -192l96 142h125l-115 -142h-106z" glyph-name="uni0219" horiz-adv-x="634" unicode="ș"/><glyph d="M167 549l41 151h679l-41 -151h-223q-32 0 -50 25l-2 -1q18 -27 9 -58l-138 -515h-165l147 549h-257zM200 -192l96 142h126l-115 -142h-107z" glyph-name="uni021A" horiz-adv-x="719" unicode="Ț"/><glyph d="M214 351h-99l40 151h35q41 0 88.5 58t64.5 123h166q-34 -118 -147 -170q-17 -8 -70 -16v-2q49 7 69 7h219l-40 -151h-161l-40 -147q-8 -30 3 -41.5t38 -11.5h131l-41 -151h-165q-101 0 -130 57t3 163zM133 -192l96 142h126l-115 -142h-107z" glyph-name="uni021B" horiz-adv-x="488" unicode="ț"/><glyph d="M294 492h-150l222 208h104l110 -208h-149l-46 82z" glyph-name="circumflex" horiz-adv-x="460" unicode="ˆ"/><glyph d="M391 492l-108 34l-62 174l148 -24l60 -34l79 58l82 -34z" glyph-name="caron" horiz-adv-x="450" unicode="ˇ"/><glyph d="M170 522l32 122h316l-32 -122h-316z" glyph-name="uni02C9" horiz-adv-x="377" unicode="ˉ"/><glyph d="M357 541q-53 0 -88.5 17t-48.5 44.5t-16 61.5t8 67h126q-4 -19 -5.5 -39t11.5 -35t40 -15q69 0 94 89h126q-20 -78 -82 -134t-165 -56z" glyph-name="breve" horiz-adv-x="424" unicode="˘"/><glyph d="M332 567h-170l36 133h170z" glyph-name="dotaccent" horiz-adv-x="190" unicode="˙"/><glyph d="M315 544q-66 0 -103 32t-24 78q12 46 66 77.5t120 31.5q65 0 102 -31.5t25 -77.5q-13 -46 -67 -78t-119 -32zM292 654q-4 -16 8.5 -26.5t34.5 -10.5q21 0 39 11t22 26t-8.5 26t-32.5 11q-22 0 -40.5 -11t-22.5 -26z" glyph-name="ring" horiz-adv-x="338" unicode="˚"/><glyph d="M74 4h92q-58 -49 -75 -105q-12 -49 24 -51q21 0 55 17l49 -48q-28 -30 -70.5 -47t-85.5 -17q-33 0 -58.5 9.5t-39 30t-10 49.5t33.5 71t85 91z" glyph-name="ogonek" horiz-adv-x="235" unicode="˛"/><glyph d="M268 579l-99 10q58 163 216 162q36 0 59 -14.5t38.5 -28.5t30.5 -15q39 -2 63 56l123 -4q-23 -76 -76 -122t-133 -45q-30 0 -51.5 9t-31.5 19t-24 19t-30 10q-30 2 -52 -14.5t-33 -41.5z" glyph-name="tilde" horiz-adv-x="513" unicode="˜"/><glyph d="M360 558l96 142h188l-152 -142h-132zM271 558h-131l96 142h188z" glyph-name="hungarumlaut" horiz-adv-x="432" unicode="˝"/><glyph d="M164 700l20 -142h-139l-71 142h190z" glyph-name="gravecomb" horiz-adv-x="0" unicode="̀"/><glyph d="M115 558h-136l96 142h187z" glyph-name="acutecomb" horiz-adv-x="0" unicode="́"/><glyph d="M-110 581h-167l172 171h218l81 -171h-168l-41 100z" glyph-name="uni0302" horiz-adv-x="0" unicode="̂"/><glyph d="M-186 579l-100 10q56 160 215 160q28 0 49.5 -9t32 -19.5t23.5 -19.5t26 -10q41 -2 66 58l120 -6q-22 -76 -75 -121.5t-132 -44.5q-37 0 -60.5 14t-40 28t-35.5 15q-31 1 -55.5 -15t-33.5 -40z" glyph-name="tildecomb" horiz-adv-x="0" unicode="̃"/><glyph d="M-219 596l27 101h436l-27 -101h-436z" glyph-name="uni0304" horiz-adv-x="0" unicode="̄"/><glyph d="M-25 554q-53 0 -88.5 17t-48.5 44.5t-16 61.5t8 67h126q-23 -89 47 -89q38 0 61 26.5t32 62.5h127q-21 -78 -83.5 -134t-164.5 -56z" glyph-name="uni0306" horiz-adv-x="0" unicode="̆"/><glyph d="M178 567h-170l35 133h170z" glyph-name="uni0307" horiz-adv-x="0" unicode="̇"/><glyph d="M2 569h-165l35 131h166zM49 569l35 131h166l-35 -131h-166z" glyph-name="uni0308" horiz-adv-x="0" unicode="̈"/><glyph d="M34 544q-66 0 -103 32t-25 78q13 46 67 77.5t120 31.5q65 0 102 -31.5t25 -77.5q-13 -46 -67 -78t-119 -32zM5 654q-4 -18 9.5 -30.5t37.5 -12.5t44.5 12.5t24.5 30.5q5 17 -9 30t-37 13q-24 0 -44.5 -13t-25.5 -30z" glyph-name="uni030A" horiz-adv-x="0" unicode="̊"/><glyph d="M-111 558h-132l96 142h189zM102 558h-132l96 142h188z" glyph-name="uni030B" horiz-adv-x="0" unicode="̋"/><glyph d="M-232 752h168l41 -100l95 100h168l-173 -171h-217z" glyph-name="uni030C" horiz-adv-x="0" unicode="̌"/><glyph d="M-198 -192h-107l96 142h126z" glyph-name="uni0326" horiz-adv-x="0" unicode="̦"/><glyph d="M-383 -228l68 60q7 -20 28.5 -31t48.5 -11q28 0 51 13t30 39q3 11 -0.5 19t-14.5 12.5t-20 7.5t-27 4t-25.5 1h-24.5h-9l26 40l48 78h130l-53 -66q43 0 60 -25.5t3 -75.5q-17 -64 -69.5 -96.5t-116.5 -32.5q-47 0 -84 17.5t-49 46.5z" glyph-name="uni0327" horiz-adv-x="0" unicode="̧"/><glyph d="M-186 4h92q-71 -61 -80 -116q-2 -40 31 -42q21 0 55 19l47 -48q-28 -30 -70.5 -47t-85.5 -17q-33 0 -58.5 9.5t-39 30t-10 49.5t33.5 71t85 91z" glyph-name="uni0328" horiz-adv-x="0" unicode="̨"/><glyph d="M-5 -132q50 179 93 350l76 282h166l-41 -153q-25 -88 -9.5 -130t76.5 -42q19 0 50.5 16t70.5 61.5t56 110.5l36 137h167l-134 -500h-167l21 78q10 33 25 63l-2 1q-74 -150 -187 -150q-70 0 -80 67l-52 -191h-165z" glyph-name="uni03BC" horiz-adv-x="632" unicode="μ"/><glyph d="M267 0l-57 700h175l34 -473q1 -15 -4 -35h2q7 24 12 35l239 473h154l-14 -474q0 -10 -7 -33h2q6 19 14 33l293 474h176l-432 -700h-201l11 383q0 5 2 11h-2q0 -1 -1 -5t-2 -6l-195 -383h-199zM623 900h190l20 -142h-139z" glyph-name="Wgrave" horiz-adv-x="1120" unicode="Ẁ"/><glyph d="M177 0l-41 500h177l25 -339q3 -27 -6 -63h2q9 35 24 64l182 338h270l4 -340q0 -29 -11 -64h2q13 40 28 63l208 341h176l-309 -500h-262l-4 334q0 33 11 75h-2q-11 -42 -29 -75l-179 -334h-266zM568 700h190l20 -142h-139z" glyph-name="wgrave" horiz-adv-x="1065" unicode="ẁ"/><glyph d="M267 0l-57 700h175l34 -473q1 -15 -4 -35h2q7 24 12 35l239 473h154l-14 -474q0 -10 -7 -33h2q6 19 14 33l293 474h176l-432 -700h-201l11 383q0 5 2 11h-2q0 -1 -1 -5t-2 -6l-195 -383h-199zM660 758l96 142h187l-147 -142h-136z" glyph-name="Wacute" horiz-adv-x="1120" unicode="Ẃ"/><glyph d="M177 0l-41 500h177l25 -339q3 -27 -6 -63h2q9 35 24 64l182 338h270l4 -340q0 -29 -11 -64h2q13 40 28 63l208 341h176l-309 -500h-262l-4 334q0 33 11 75h-2q-11 -42 -29 -75l-179 -334h-266zM585 558l96 142h187l-147 -142h-136z" glyph-name="wacute" horiz-adv-x="1065" unicode="ẃ"/><glyph d="M267 0l-57 700h175l34 -473q1 -15 -4 -35h2q7 24 12 35l239 473h154l-14 -474q0 -10 -7 -33h2q6 19 14 33l293 474h176l-432 -700h-201l11 383q0 5 2 11h-2q0 -1 -1 -5t-2 -6l-195 -383h-199zM738 769h-165l35 131h166zM950 769h-165l35 131h166z" glyph-name="Wdieresis" horiz-adv-x="1120" unicode="Ẅ"/><glyph d="M177 0l-41 500h177l25 -339q3 -27 -6 -63h2q9 35 24 64l182 338h270l4 -340q0 -29 -11 -64h2q13 40 28 63l208 341h176l-309 -500h-262l-4 334q0 33 11 75h-2q-11 -42 -29 -75l-179 -334h-266zM874 569h-165l35 131h165zM662 569h-165l35 131h165z" glyph-name="wdieresis" horiz-adv-x="1058" unicode="ẅ"/><glyph d="M83 196l44 165h571l-44 -165h-571z" glyph-name="endash" horiz-adv-x="631" unicode="–"/><glyph d="M88 216l44 166h876l-44 -166h-876z" glyph-name="emdash" horiz-adv-x="936" unicode="—"/><glyph d="M132 419l63 234l23 47h171l-148 -281h-109z" glyph-name="quoteleft" horiz-adv-x="221" unicode="‘"/><glyph d="M166 474l22 137l12 34l167 42l-113 -213h-88z" glyph-name="quoteright" horiz-adv-x="221" unicode="’"/><glyph d="M-2 -132l18 63h25q85 0 100 61h-109l42 156h175l-42 -156q-18 -66 -59 -95t-124 -29h-26z" glyph-name="quotesinglbase" horiz-adv-x="243" unicode="‚"/><glyph d="M341 420l42 156q17 65 58.5 94.5t124.5 29.5h25l-17 -64h-25q-84 0 -101 -60h110l-42 -156h-175zM321 420h-175l42 156q18 66 59 95t124 29h25l-17 -64h-25q-85 0 -100 -60h109z" glyph-name="quotedblleft" horiz-adv-x="438" unicode="“"/><glyph d="M341 420l17 63h25q85 0 100 61h-109l42 156h175l-42 -156q-18 -66 -59 -95t-124 -29h-25zM146 420l17 63h25q84 0 101 61h-109l41 156h175l-41 -156q-18 -66 -59.5 -95t-124.5 -29h-25z" glyph-name="quotedblright" horiz-adv-x="433" unicode="”"/><glyph d="M206 -131l17 64h25q84 0 101 60h-109l41 157h175l-41 -157q-18 -66 -59.5 -95t-124.5 -29h-25zM12 -131l17 64h25q84 0 101 60h-110l42 157h175l-42 -157q-18 -66 -59 -95t-124 -29h-25z" glyph-name="quotedblbase" horiz-adv-x="461" unicode="„"/><glyph d="M225 486h-79l38 143h79l19 71h165l-18 -71h73l-38 -143h-74l-39 -142h-165z" glyph-name="dagger" horiz-adv-x="349" unicode="†"/><glyph d="M218 352h-98l33 122h98l11 40h-98l32 123h98l17 63h166l-17 -63h98l-33 -123h-98l-11 -40h98l-33 -122h-98l-20 -76h-165z" glyph-name="daggerdbl" horiz-adv-x="413" unicode="‡"/><glyph d="M235 71q-81 0 -123 57.5t-20 138.5q22 82 94.5 139t153.5 57q82 0 124 -57t20 -139q-22 -81 -94.5 -138.5t-154.5 -57.5z" glyph-name="bullet" horiz-adv-x="432" unicode="•"/><glyph d="M302 36l42 154h166l-41 -154h-167zM196 36h-166l41 154h166zM577 36l42 154h166l-41 -154h-167z" glyph-name="ellipsis" horiz-adv-x="764" unicode="…"/><glyph d="M250 0h-221l774 700h221zM1131 290q110 0 141 -69q26 -58 -17 -123q-50 -76 -150 -94q-25 -4 -51 -4q-110 0 -141 69q-26 58 17 123q50 76 150 94q25 4 51 4zM728 290q110 0 141 -69q26 -58 -17 -123q-50 -76 -151 -94q-25 -4 -51 -4q-110 0 -141 69q-26 58 17 123 q50 76 151 94q25 4 51 4zM407 700q110 0 142 -69q26 -58 -18 -123q-49 -76 -150 -94q-25 -4 -51 -4q-110 0 -141 69q-26 58 17 123q50 76 150 94q25 4 51 4zM354 501q49 0 70 39q19 34 -3 56q-13 13 -38 13q-48 0 -70 -39q-19 -34 3 -56q13 -13 38 -13zM1078 92q48 0 70 38 q19 33 -2 55q-13 13 -39 13q-48 0 -70 -38q-19 -33 2 -55q13 -13 39 -13zM675 92q48 0 69 38q19 33 -2 55q-13 13 -39 13q-48 0 -69 -38q-19 -33 2 -55q13 -13 39 -13z" glyph-name="perthousand" horiz-adv-x="1259" unicode="‰"/><glyph d="M103 329l354 172l-44 -166l-115 -59l83 -59l-44 -165l-262 172z" glyph-name="guilsinglleft" horiz-adv-x="338" unicode="‹"/><glyph d="M383 224l-354 -172l44 165l114 59l-83 59l45 166l262 -172z" glyph-name="guilsinglright" horiz-adv-x="338" unicode="›"/><glyph d="M15 0l651 700h198l-651 -700h-198z" glyph-name="fraction" horiz-adv-x="691" unicode="⁄"/><glyph d="M446 -7q-190 -1 -283.5 90.5t-46.5 266.5q32 118 110.5 200t183 120t227.5 37q130 -2 218 -45t118 -126l-171 -68q-36 97 -204 97q-178 2 -239 -87h245l-45 -90h-261q-14 -23 -17 -57h271l-38 -89h-217q7 -47 55 -74t132 -27q166 0 254 91l135 -68q-75 -84 -186.5 -127 t-240.5 -44z" glyph-name="Euro" horiz-adv-x="851" unicode="€"/><glyph d="M355 547l41 153h60l34 -87l80 87h60l-41 -153h-57l16 62l-58 -62h-36l-25 63l-17 -63h-57zM196 640l16 60h168l-16 -60h-56l-25 -93h-56l25 93h-56z" glyph-name="trademark" horiz-adv-x="472" unicode="™"/><glyph d="M135 360l429 338l70 -98l-202 -158h425l-44 -165h-425l116 -161l-121 -95z" glyph-name="arrowleft" horiz-adv-x="776" unicode="←"/><glyph d="M567 711l248 -339l-124 -96l-116 159l-113 -424h-165l113 424l-203 -159l-69 96z" glyph-name="arrowup" horiz-adv-x="753" unicode="↑"/><glyph d="M834 359l-429 -338l-70 98l202 158h-425l44 165h425l-116 161l121 95z" glyph-name="arrowright" horiz-adv-x="776" unicode="→"/><glyph d="M379 11l-248 338l124 96l116 -159l114 425h165l-114 -425l204 160l69 -96z" glyph-name="arrowdown" horiz-adv-x="753" unicode="↓"/><glyph d="M735 585l119 95l246 -335l-425 -335l-70 96l201 158h-436l115 -158l-120 -95l-245 335l424 334l69 -95l-200 -159h437z" glyph-name="arrowboth" horiz-adv-x="1034" unicode="↔"/><glyph d="M220 360l-69 94l425 336l245 -335l-122 -96l-115 159l-114 -421l200 158l70 -95l-425 -335l-245 334l121 95l116 -157l114 421z" glyph-name="arrowupdn" horiz-adv-x="727" unicode="↕"/><glyph d="M205 617h479l-38 -138l-225 1l220 -301l-148 -116l-219 300l-62 -227l-135 1z" glyph-name="uni2196" horiz-adv-x="633" unicode="↖"/><glyph d="M757 608l-128 -479l-138 2l61 224l-380 -300l-86 117l381 300l-226 1l36 135h480z" glyph-name="uni2197" horiz-adv-x="634" unicode="↗"/><glyph d="M608 59h-478l38 138l224 -1l-219 300l147 117l220 -300l62 226h135z" glyph-name="uni2198" horiz-adv-x="633" unicode="↘"/><glyph d="M56 64l128 478l137 -1l-60 -224l380 300l85 -117l-380 -300l226 -1l-37 -135h-479z" glyph-name="uni2199" horiz-adv-x="634" unicode="↙"/><glyph d="M263 4q-109 13 -161 80t-3 180q44 101 138.5 153.5t198.5 52.5q114 0 179 -58t29 -154q41 80 37 137.5t-30.5 95.5t-75 60t-95.5 30.5t-93 6.5l80 113q102 -3 172.5 -28.5t111 -75t35.5 -132.5t-60 -193q-68 -138 -172 -205t-229 -67q-34 0 -62 4zM278 269 q-30 -60 3.5 -103.5t113.5 -54.5q58 -7 131.5 26t101.5 90q28 55 -11 101.5t-97 55.5q-70 11 -141 -22t-101 -93z" glyph-name="partialdiff" horiz-adv-x="693" unicode="∂"/><glyph d="M431 17q-162 0 -251 96t-53 232q37 135 177.5 231t302.5 96q163 0 252 -96t53 -231q-37 -136 -177.5 -232t-303.5 -96zM288 345q-3 -12 -4.5 -22.5t-0.5 -19t2.5 -13t4.5 -12.5t3 -9l357 249q-29 21 -80 21q-95 0 -177.5 -57t-104.5 -137zM391 166q23 -17 74 -17 q95 0 179.5 57t102.5 138q11 50 1 71z" glyph-name="emptyset" horiz-adv-x="854" unicode="∅"/><glyph d="M348 549h-186l41 151h817l-40 -151h-182l-147 -549h-164l147 549h-122l-147 -549h-164z" glyph-name="product" horiz-adv-x="848" unicode="∏"/><glyph d="M822 716l-37 -138h-360l49 -221l-167 -220h360l-36 -137h-601l273 358l-81 358h600z" glyph-name="summation" horiz-adv-x="656" unicode="∑"/><glyph d="M88 217l41 151h518l-40 -151h-519z" glyph-name="minus" horiz-adv-x="579" unicode="−"/><glyph d="M974 664l97 -237h-197l-23 63l-493 -610h-165l-123 322h188l44 -152l493 614h179z" glyph-name="radical" horiz-adv-x="981" unicode="√"/><glyph d="M252 122q-83 0 -126 50.5t-20 133.5q22 83 91.5 133t152.5 50q45 0 87 -18.5t65 -38.5t57 -54q56 36 87 54t84 37.5t98 19.5q83 0 125.5 -50.5t20.5 -132.5q-22 -83 -91.5 -133.5t-152.5 -50.5q-66 0 -113.5 28t-97.5 78q-75 -50 -137.5 -78t-129.5 -28zM776 371 q-12 0 -25.5 -3t-23.5 -7t-25.5 -12t-23.5 -13t-26 -16.5t-25 -15.5q23 -23 35 -33.5t34 -20.5t46 -10q70 0 89 66q17 65 -55 65zM249 306q-8 -32 7.5 -48.5t46.5 -16.5q23 0 49 10t43 20.5t51 32.5q-5 5 -19 18.5t-21 19t-19 13.5t-24 11.5t-26 3.5q-71 0 -88 -64z" glyph-name="infinity" horiz-adv-x="919" unicode="∞"/><glyph d="M-8 -125l39 144h47q28 0 40 14.5t30 57.5l233 571q17 42 31 67t36 48.5t53 34t74 10.5h159l-38 -144h-69q-22 0 -39 -9t-30 -29t-19.5 -33.5t-17.5 -40.5l-217 -531q-32 -86 -62.5 -123t-89.5 -37h-160z" glyph-name="integral" horiz-adv-x="539" unicode="∫"/><glyph d="M221 51l-182 -11q10 81 86.5 158.5t165.5 84.5q41 3 74 -7.5t50.5 -25.5t41 -26t48.5 -9q32 1 56 23t30 49l195 11q-18 -95 -95.5 -163.5t-183.5 -76.5q-36 -2 -67.5 10t-49.5 27.5t-43 25t-52 3.5q-26 -5 -47.5 -27.5t-26.5 -45.5zM292 314l-182 -10q9 81 86 158.5 t166 84.5q41 3 74 -8t50.5 -25.5t40.5 -25.5t48 -9q32 1 56.5 23t30.5 49l195 10q-18 -95 -95.5 -163.5t-183.5 -76.5q-37 -2 -68 10.5t-49 28t-43 25t-52 3.5q-26 -6 -48 -28.5t-26 -45.5z" glyph-name="approxequal" horiz-adv-x="726" unicode="≈"/><glyph d="M176 125h-113l41 150h188l41 53h-215l40 151h302l101 114h140l-100 -114h124l-41 -151h-203l-40 -53h229l-40 -150h-314l-84 -97h-140z" glyph-name="notequal" horiz-adv-x="627" unicode="≠"/><glyph d="M125 408l384 171l-45 -165l-143 -60l111 -60l-44 -163l-291 171zM340 -52h-339l41 151h339z" glyph-name="lessequal" horiz-adv-x="369" unicode="≤"/><glyph d="M462 408l-28 -106l-383 -171l43 163l144 60l-111 60l44 165zM1 -52l41 151h339l-41 -151h-339z" glyph-name="greaterequal" horiz-adv-x="369" unicode="≥"/><glyph d="M341 547h108l116 -220l-233 -220h-108l-116 220zM255 327l53 -108l110 108l-52 108z" glyph-name="lozenge" horiz-adv-x="498" unicode="◊"/><glyph d="M91 0l94 351h-81l40 151h162q-9 0 -23 3t-32 10t-27.5 23t-3.5 38q19 72 101.5 98t218.5 26l-33 -124q-156 0 -167 -36q-5 -18 18 -28t54 -10h191q-7 0 -20 5t-30 18t-22.5 36t2.5 59q36 128 296 139l-37 -136q-72 1 -105 -14t-44 -46q-11 -29 10 -45t49 -16h58l-41 -151 h-82l-94 -351h-165l93 351h-121l-94 -351h-165z" glyph-name="uniFB00" horiz-adv-x="636" unicode="ﬀ"/><glyph d="M208 351h-104l40 151h108q-15 0 -27.5 21.5t-4.5 52.5q16 59 103 96t190 37q99 0 168 -37t73 -110l-153 -15q-11 31 -40 47t-64 16q-33 0 -58.5 -13t-31.5 -35q-16 -60 55 -60h58l-41 -151h-106l-94 -351h-165zM604 0h-165l134 500h165z" glyph-name="uniFB01" horiz-adv-x="634" unicode="ﬁ"/><glyph d="M424 351l41 151h107q-15 0 -27.5 23.5t-3.5 54.5q16 60 107 98t197 38q99 0 165.5 -36.5t66.5 -109.5l-153 -15q-20 62 -100 62q-34 0 -62 -14t-35 -37q-8 -32 8 -48t46 -16h58l-41 -151h-105l-94 -351h-166l95 351h-104zM256 0h-165l94 351h-81l40 151h162 q-13 0 -33.5 6t-40 25t-11.5 47q16 60 78 90t154 30q50 0 104 -9l-39 -120q-40 8 -79 8q-87 0 -98 -34q-5 -19 18 -31t53 -12h52l-40 -151h-74zM924 0h-166l134 500h166z" glyph-name="uniFB03" horiz-adv-x="946" unicode="ﬃ"/><glyph d="M455 419h-108l63 234l22 47h172zM241 419h-109l63 234l23 47h171z" glyph-name="glyph390" horiz-adv-x="448"/><glyph d="M432 419l2 281h171l-2 -47l-63 -234h-108zM326 419h-109l2 281h172l-3 -47z" glyph-name="glyph391" horiz-adv-x="448"/></font>
</defs>
</svg>
