<?xml version="1.0" encoding="UTF-8" standalone="no"?><!DOCTYPE svg PUBLIC "-//W3C//DTD SVG 1.1//EN" "http://www.w3.org/Graphics/SVG/1.1/DTD/svg11.dtd"><svg width="100%" height="100%" viewBox="0 0 534 534" version="1.1" xmlns="http://www.w3.org/2000/svg" xmlns:xlink="http://www.w3.org/1999/xlink" xml:space="preserve" xmlns:serif="http://www.serif.com/" style="fill-rule:evenodd;clip-rule:evenodd;stroke-linejoin:round;stroke-miterlimit:2;"><circle cx="266.667" cy="266.667" r="255.654"/><g><path d="M32.785,160.289c5.994,-13.144 13.064,-25.696 21.096,-37.543l251.113,0c68.016,0 108.884,27.878 108.884,88.652c0,60.96 -33.709,90.696 -72.788,101.847l112.02,130.095c-8.327,8.784 -17.268,16.981 -26.753,24.522c-75.489,-87.085 -193.393,-224.488 -215.63,-250.517l0,211.128l-41.465,0l-0,-268.184l-136.477,-0Zm279.667,119.503c3.281,-0.372 6.265,-0.93 9.248,-1.673c32.516,-7.62 53.994,-30.108 53.994,-57.986c0,-45.905 -28.041,-59.844 -73.981,-59.844l-90.986,-0l0,1.115l101.725,118.388Z" style="fill:#fff;"/></g></svg>