<svg xmlns="http://www.w3.org/2000/svg">
<defs>
<font horiz-adv-x="270" id="ywftsvg"><font-face ascent="800" bbox="-408 -300 1488 979" cap-height="700" descent="-200" font-family="" font-stretch="normal" font-weight="900" panose-1="0 0 0 0 0 0 0 0 0 0" underline-position="0" underline-thickness="0" unicode-range="U+000D-FB03" units-per-em="1000" x-height="500"/><missing-glyph d="M348 23l50 188h64q-1 -14 -5 -43.5t-6 -44.5l35 88h63l-50 -188h-43l34 127l-51 -127h-30l15 124l-33 -124h-43zM237 101l9 32q6 21 10 32t12.5 24.5t22 19.5t33.5 6q38 0 43 -24.5t-8 -57.5l-9 -32q-7 -27 -13 -42t-22.5 -27.5t-42.5 -12.5q-38 0 -43 24.5t8 57.5z M102 90l15 55q9 35 26 52.5t52 17.5q37 0 42.5 -22.5t-7.5 -57.5l-1 -6h-49l7 26q4 16 5 25l-6 3l-9 -4l-7 -19l-23 -87l-3 -18l6 -4l8 4q8 18 13 43h49l-2 -7q-9 -36 -26 -54t-52 -18q-34 0 -41.5 19t3.5 52zM405 242h-49l51 189h49q31 0 44 -13q4 -18 -4 -49 q-8 -24 -13 -34q-17 -17 -57 -17zM402 498h-42l20 129h32l-17 -88q14 40 33 88h35q-4 -25 -17 -92q13 41 33 92h33l-49 -129h-42q4 44 8 68zM561 242h-85l50 189h82l-10 -38h-33l-9 -36h30l-9 -36h-31l-11 -41h36zM198 242h-49l40 151h-29l10 38h107l-10 -38h-29zM276 268 q19 69 7 163h45q-5 -58 -8 -75q10 25 34 75h44q-80 -121 -86 -189h-45q6 14 9 26zM276 551l6 22q7 29 17.5 42.5t36.5 13.5t29.5 -16.5t-5.5 -39.5l-6 -22q-7 -28 -17.5 -41.5t-36.5 -13.5t-29.5 16t5.5 39zM169 453l6 23h449l-6 -23h-449zM589 498h-34l35 129h34 q22 0 29.5 -7t1.5 -27q-3 -11 -9 -22q-10 -5 -17 -6q7 -1 12 -6l2 -8l-4 -19l-9 -34h-31l9 32q4 16 4 24l-8 2zM182 498l34 129h34q20 0 29 -9q4 -11 -2 -33q-2 -11 -9 -23q-11 -12 -39 -12l-14 -52h-33zM544 498h-60l35 129h59l-8 -30h-26l-6 -20h27l-8 -29h-26l-5 -19h26z M275 55l5 -4l8 4l7 21l23 87l3 17l-5 3l-7 -3q-5 -14 -6 -17l-24 -88zM72 23h-36l10 38h36zM302 520l4 -3l5 3l5 15l16 59l2 11l-4 3l-4 -2q-4 -8 -5 -12zM447 398l-13 -48h4l10 4q6 11 6 13l5 16v12zM235 572h2l7 2q0 1 2 4.5t2 5.5l3 10q1 2 1 5v4l-9 2zM609 576l9 2 q0 2 2 5t3 5l2 7v8l-8 2z" horiz-adv-x="526"/><glyph d="M348 23l50 188h64q-1 -14 -5 -43.5t-6 -44.5l35 88h63l-50 -188h-43l34 127l-51 -127h-30l15 124l-33 -124h-43zM237 101l9 32q6 21 10 32t12.5 24.5t22 19.5t33.5 6q38 0 43 -24.5t-8 -57.5l-9 -32q-7 -27 -13 -42t-22.5 -27.5t-42.5 -12.5q-38 0 -43 24.5t8 57.5z M102 90l15 55q9 35 26 52.5t52 17.5q37 0 42.5 -22.5t-7.5 -57.5l-1 -6h-49l7 26q4 16 5 25l-6 3l-9 -4l-7 -19l-23 -87l-3 -18l6 -4l8 4q8 18 13 43h49l-2 -7q-9 -36 -26 -54t-52 -18q-34 0 -41.5 19t3.5 52zM405 242h-49l51 189h49q31 0 44 -13q4 -18 -4 -49 q-8 -24 -13 -34q-17 -17 -57 -17zM402 498h-42l20 129h32l-17 -88q14 40 33 88h35q-4 -25 -17 -92q13 41 33 92h33l-49 -129h-42q4 44 8 68zM561 242h-85l50 189h82l-10 -38h-33l-9 -36h30l-9 -36h-31l-11 -41h36zM198 242h-49l40 151h-29l10 38h107l-10 -38h-29zM276 268 q19 69 7 163h45q-5 -58 -8 -75q10 25 34 75h44q-80 -121 -86 -189h-45q6 14 9 26zM276 551l6 22q7 29 17.5 42.5t36.5 13.5t29.5 -16.5t-5.5 -39.5l-6 -22q-7 -28 -17.5 -41.5t-36.5 -13.5t-29.5 16t5.5 39zM169 453l6 23h449l-6 -23h-449zM589 498h-34l35 129h34 q22 0 29.5 -7t1.5 -27q-3 -11 -9 -22q-10 -5 -17 -6q7 -1 12 -6l2 -8l-4 -19l-9 -34h-31l9 32q4 16 4 24l-8 2zM182 498l34 129h34q20 0 29 -9q4 -11 -2 -33q-2 -11 -9 -23q-11 -12 -39 -12l-14 -52h-33zM544 498h-60l35 129h59l-8 -30h-26l-6 -20h27l-8 -29h-26l-5 -19h26z M275 55l5 -4l8 4l7 21l23 87l3 17l-5 3l-7 -3q-5 -14 -6 -17l-24 -88zM72 23h-36l10 38h36zM302 520l4 -3l5 3l5 15l16 59l2 11l-4 3l-4 -2q-4 -8 -5 -12zM447 398l-13 -48h4l10 4q6 11 6 13l5 16v12zM235 572h2l7 2q0 1 2 4.5t2 5.5l3 10q1 2 1 5v4l-9 2zM609 576l9 2 q0 2 2 5t3 5l2 7v8l-8 2z" glyph-name=".notdef" horiz-adv-x="526"/><glyph glyph-name="glyph1" horiz-adv-x="0"/><glyph glyph-name="glyph1" horiz-adv-x="0"/><glyph glyph-name="space" horiz-adv-x="200" unicode=" "/><glyph d="M212 213l-28 206l76 281h209l-75 -281l-138 -206h-44zM59 -8h235l51 190h-235z" glyph-name="exclam" horiz-adv-x="355" unicode="!"/><glyph d="M453 384l-25 239l21 77h235l-21 -77l-152 -239h-58zM186 623l21 77h235l-21 -77l-152 -239h-58z" glyph-name="quotedbl" horiz-adv-x="515" unicode="&quot;"/><glyph d="M4 99l124 190h122l55 88h-126l128 191h121l86 132h226l-87 -132h85l87 132h225l-87 -132h189l-129 -191h-182l-55 -88h187l-125 -190h-182l-67 -99h-225l67 99h-86l-66 -99h-225l66 99h-126zM475 289h86l55 88h-86z" glyph-name="numbersign" horiz-adv-x="1014" unicode="#"/><glyph d="M123 245l197 -1q-10 -31 2.5 -40.5t54.5 -9.5l25 92q-29 3 -44.5 4.5t-40 5t-37.5 8t-32 11t-27.5 15.5t-20 21.5t-14.5 28.5t-5 36.5t2 46t12 56.5q16 58 53.5 98.5t87.5 59t92.5 25.5t86.5 7l10 35h190l-10 -36q126 0 175 -60t19 -169l-192 1q7 24 -8 35t-42 13 l-24 -90q129 -6 198 -59.5t43 -148.5q-32 -122 -108.5 -174t-251.5 -60l-11 -42h-190l11 42q-64 4 -108.5 19.5t-67.5 37.5t-32 54t-6.5 64.5t13.5 73.5zM589 275l-22 -82q72 0 81 30q6 24 -6.5 34.5t-52.5 17.5zM448 458l19 70q-22 0 -43 -8.5t-25 -22.5q-1 -9 -1 -17 t12 -14t38 -8z" glyph-name="dollar" horiz-adv-x="874" unicode="$"/><glyph d="M16 0l824 700h284l-824 -700h-284zM795 290q120 0 155 -69q28 -56 -14 -120q-49 -75 -154 -95q-31 -6 -64 -6q-120 0 -155 69q-28 56 14 120q49 75 154 95q31 6 64 6zM431 700q120 0 155 -69q29 -56 -14 -121q-51 -74 -156 -94q-30 -6 -63 -6q-119 0 -154 69 q-29 56 14 120q50 75 155 95q30 6 63 6zM382 518q41 0 57 30q13 25 -10 38q-10 6 -27 6q-41 0 -57 -30q-13 -25 10 -38q10 -6 27 -6zM747 108q41 0 56 30q12 25 -10 38q-10 6 -27 6q-41 0 -56 -30q-12 -25 10 -38q10 -6 27 -6z" glyph-name="percent" horiz-adv-x="952" unicode="%"/><glyph d="M341 0q-141 0 -211 55t-46 145q11 41 37 72t65 50.5t80.5 31.5t94.5 20q-97 13 -135 58t-23 101q45 167 400 167q137 0 210 -23.5t121 -72.5l-140 -104q-68 65 -228 65q-57 0 -95 -17t-46 -48q-9 -35 19 -57t93 -23l133 -1l22 83l204 -21l-16 -61l124 -1l-32 -119h-124 l-81 -301h-209l43 161q-20 -76 -75.5 -118t-184.5 -42zM289 200q-6 -23 17.5 -42.5t69.5 -19.5q72 0 116.5 7t73.5 26.5t43 46t27 72.5l2 10h-114q-119 -5 -156 -17q-62 -20 -79 -83z" glyph-name="ampersand" horiz-adv-x="921" unicode="&amp;"/><glyph d="M210 384l-25 239l20 77h235l-20 -77l-153 -239h-57z" glyph-name="quotesingle" horiz-adv-x="271" unicode="'"/><glyph d="M147 -84q-4 6 -11.5 17.5t-22.5 50t-23.5 81t-6.5 108.5t20 135t51 134.5t67 110t65 79.5t51 52l20 16h206q-8 -6 -20.5 -17.5t-48 -50t-66 -81t-64 -108.5t-51.5 -135q-28 -123 -19 -210.5t34 -134.5l25 -47h-206z" glyph-name="parenleft" horiz-adv-x="395" unicode="("/><glyph d="M204 -84h-207q8 6 20.5 17.5t48 50t66 81t64.5 108.5t52 135t20.5 134.5t-6.5 110t-21 79.5t-23 52l-10 16h206q4 -6 11.5 -17.5t22.5 -50t23.5 -81t6.5 -108.5t-20 -135t-51 -134.5t-67 -110t-65 -79.5t-51 -52z" glyph-name="parenright" horiz-adv-x="395" unicode=")"/><glyph d="M620 673l61 -137l-193 -29l179 -31l-126 -127l-97 112l18 -151v-1h-203v1l112 151l-168 -102l-55 117l203 31l-187 29l138 137l94 -118l-30 153h203l-100 -153z" glyph-name="asterisk" horiz-adv-x="559" unicode="*"/><glyph d="M256 193h-184l51 190h184l35 133h210l-36 -133h182l-51 -190h-182l-38 -140h-209z" glyph-name="plus" horiz-adv-x="615" unicode="+"/><glyph d="M26 -150h-31l21 79h31q105 0 122 63h-136l51 190h217l-51 -190q-20 -73 -70.5 -107.5t-153.5 -34.5z" glyph-name="comma" horiz-adv-x="289" unicode=","/><glyph d="M61 117l57 210h503l-57 -210h-503z" glyph-name="hyphen" horiz-adv-x="563" unicode="-"/><glyph d="M268 -8h-235l51 190h235z" glyph-name="period" horiz-adv-x="309" unicode="."/><glyph d="M-11 -95l610 795h235l-609 -795h-236z" glyph-name="slash" horiz-adv-x="661" unicode="/"/><glyph d="M341 -10q-63 0 -110 13.5t-74 34.5t-43 53t-20.5 62t-1.5 69t8.5 66t14.5 60t18 60t26.5 66t38.5 69t53.5 62t71.5 53t93 34.5t117 13.5t110 -13.5t74.5 -34.5t43 -53.5t20 -62t1.5 -68.5t-8.5 -66t-14.5 -60t-18 -60t-26.5 -66t-38 -69t-53.5 -62t-71.5 -53t-93 -34.5 t-117.5 -13.5zM326 348q-10 -39 -10.5 -69t20.5 -48.5t65 -18.5q112 0 148 136t-75 136q-113 0 -148 -136z" glyph-name="zero" horiz-adv-x="688" unicode="0"/><glyph d="M119 388l51 190q154 0 187 122h210l-188 -700h-210l124 462q4 16 25 76h-2q-21 -60 -31 -75q-47 -75 -166 -75z" glyph-name="one" horiz-adv-x="394" unicode="1"/><glyph d="M22 0l5 20q22 81 72 145.5t109 102t124.5 68t119 47.5t91.5 37t43 41q9 32 -18 48.5t-67 16.5q-58 0 -93.5 -34t-51.5 -84l-210 -1q43 161 143.5 230t277.5 69q150 0 216.5 -52t39.5 -154q-14 -51 -36.5 -89.5t-46.5 -61.5t-63 -44t-70.5 -32.5t-84 -30.5t-89.5 -35 q-39 -17 -78 -25v-2q48 10 77 10h312l-51 -190h-671z" glyph-name="two" horiz-adv-x="715" unicode="2"/><glyph d="M388 -6q-174 0 -247 67.5t-34 213.5h209q-8 -34 17.5 -61.5t83.5 -27.5q55 0 93 23.5t45 50.5q0 9 2.5 16.5t-3 13t-8 9t-12 6t-16 4t-19.5 2.5t-22.5 1h-25.5h-73l26 107h75q53 0 89.5 18t44.5 49q8 29 -20.5 50t-76.5 21q-64 0 -103 -32.5t-51 -76.5h-209 q70 259 421 257q138 -1 196.5 -43.5t33.5 -134.5q-27 -101 -211 -108l-1 -2q48 2 75 -3q44 -9 65.5 -27t28 -57.5t-13.5 -103.5q-30 -113 -121 -172.5t-238 -59.5z" glyph-name="three" horiz-adv-x="720" unicode="3"/><glyph d="M52 137l26 97l521 466h209l-104 -387h103l-30 -176h-82q-37 0 -57 27l-2 -1q21 -27 11 -64l-27 -99h-213l36 137h-391zM528 450l-126 -123h93z" glyph-name="four" horiz-adv-x="760" unicode="4"/><glyph d="M384 -4q-180 0 -251 64t-33 205h207q-15 -57 11 -92.5t103 -35.5q51 0 86.5 9t53.5 26t26 31t13 34q15 54 -12.5 80t-79.5 26q-38 0 -79.5 -13.5t-68.5 -35.5h-255l178 406h599l-29 -164h-460l-18 -40q-15 -34 -45 -58l1 -2q34 28 66 35q92 20 169 20q140 0 209.5 -64 t35.5 -190q-65 -241 -427 -241z" glyph-name="five" horiz-adv-x="772" unicode="5"/><glyph d="M396 -4q-174 0 -253 79.5t-37 237.5q46 174 173.5 283t323.5 109q108 0 180 -41t94.5 -100t1.5 -120h-232q-3 19 -4.5 24.5t-7 20.5t-13 20.5t-22.5 11t-35 5.5q-169 0 -238 -202q-16 -42 -28 -70l2 -1q21 49 35 67q39 51 111.5 78.5t152.5 27.5q72 0 129.5 -21.5 t87.5 -69.5t12 -113q-21 -78 -89 -130.5t-155 -74t-189 -21.5zM302 222q-9 -31 25.5 -54.5t109.5 -23.5q161 0 183 78q9 33 -25 55.5t-105 23.5q-78 1 -128 -19.5t-60 -59.5z" glyph-name="six" horiz-adv-x="792" unicode="6"/><glyph d="M145 -6l413 487q23 27 60 44l-1 2q-36 -17 -72 -17h-392l51 190h733l-23 -86l-526 -620h-243z" glyph-name="seven" horiz-adv-x="774" unicode="7"/><glyph d="M397 -6q-166 0 -257.5 53.5t-64.5 152.5q30 111 181 161q31 10 75 6v2q-50 4 -73 18q-78 43 -55 131q24 91 130 139.5t255 47.5q150 -1 229.5 -49t55.5 -138q-24 -89 -135 -135q-28 -12 -74 -12v-2q48 0 74 -11q122 -49 92 -158q-27 -100 -147 -153t-286 -53zM297 235 q-10 -38 31 -58.5t113 -20.5q70 0 124.5 19.5t64.5 59.5q7 27 -13.5 43t-54 21.5t-81.5 5.5q-165 2 -184 -70zM395 492q-10 -38 22 -56t94 -18q135 0 155 74q11 42 -20 60t-94 18q-135 0 -157 -78z" glyph-name="eight" horiz-adv-x="797" unicode="8"/><glyph d="M376 -4q-165 0 -243.5 61.5t-50.5 173.5h238q6 -69 126 -64q69 3 135 58.5t96 131.5q4 11 13.5 35.5t14.5 34.5l-2 1q-21 -49 -34 -68q-45 -65 -114 -97.5t-146 -32.5q-122 0 -204.5 71.5t-54.5 177.5q61 226 458 226q196 0 267 -72.5t25 -244.5q-48 -179 -179 -285.5 t-345 -106.5zM385 477q-12 -46 34 -67t116 -22q55 0 113 27t67 62q8 31 -30 60.5t-102 29.5q-71 0 -128.5 -21.5t-69.5 -68.5z" glyph-name="nine" horiz-adv-x="817" unicode="9"/><glyph d="M322 312h-203l51 188h203zM254 52h-204l50 190h204z" glyph-name="colon" horiz-adv-x="275" unicode=":"/><glyph d="M11 -91l21 79h31q104 0 122 63h-136l51 191h217l-51 -191q-20 -73 -70.5 -107.5t-153.5 -34.5h-31zM336 313h-217l51 187h216z" glyph-name="semicolon" horiz-adv-x="307" unicode=";"/><glyph d="M98 333l392 182l-55 -207l-71 -32l53 -32l-55 -206l-294 182z" glyph-name="less" horiz-adv-x="352" unicode="&lt;"/><glyph d="M112 305l51 190h576l-50 -190h-577zM49 71l51 189h577l-51 -189h-577z" glyph-name="equal" horiz-adv-x="649" unicode="="/><glyph d="M449 333l-30 -113l-393 -182l55 206l70 32l-52 32l55 207z" glyph-name="greater" horiz-adv-x="375" unicode=">"/><glyph d="M149 500q25 95 131 150.5t254 55.5q150 0 221.5 -51.5t44.5 -154.5q-14 -53 -48.5 -84.5t-75.5 -44.5t-81.5 -25t-74.5 -40t-47 -77l-4 -17h-210l4 17q20 73 58 123t78.5 72t79.5 36t67 28t33 34q6 21 -16.5 33.5t-65.5 12.5q-120 0 -138 -68h-210zM186 -8l51 190h235 l-51 -190h-235z" glyph-name="question" horiz-adv-x="693" unicode="?"/><glyph d="M942 -63q-238 -61 -417 -61q-255 0 -364 117.5t-53 326.5q31 115 130 211t245 152.5t307 56.5q113 0 194 -21t127.5 -57.5t68.5 -90.5t20.5 -115t-21.5 -136q-31 -115 -113.5 -168.5t-179.5 -53.5q-55 0 -101 15.5t-65 39.5q-13 16 2 72h-2q-15 -55 -68 -83t-115 -28 q-95 0 -150 50.5t-33 132.5q22 85 106 138.5t178 53.5q82 0 116 -31q15 -14 25 -62l2 1q-7 36 2 66l3 13h183l-27 -104q-20 -72 -3 -81q13 -7 32 31q15 29 27 75q17 64 -34 112t-178 48q-178 0 -308.5 -63t-160.5 -174q-34 -128 51 -202t274 -74q147 0 341 47zM547 298 q-11 -41 14.5 -64t81.5 -23q39 0 61.5 21.5t36.5 73.5q12 52 1.5 68.5t-51.5 16.5q-51 0 -91.5 -24.5t-52.5 -68.5z" glyph-name="at" horiz-adv-x="1107" unicode="@"/><glyph d="M250 0h-228l452 700h259l77 -700h-225l-20 108h-243zM532 447l-112 -172h20h17.5h14.5h13t10 -0.5t9 -1.5t7.5 -2t7 -2t6 -3t6.5 -4q9 -7 14.5 -28.5t10 -50t8.5 -41.5z" glyph-name="A" horiz-adv-x="832" unicode="A"/><glyph d="M463 0h-441l188 700h411q118 0 175 -42t33 -129q-17 -64 -126 -103q-19 -6 -54 -8v-2q29 2 54 -6q68 -21 83 -65.5t-10 -133.5q-57 -211 -313 -211zM371 516l-27 -98h224q69 0 83 50q6 22 -10.5 35t-46.5 13h-223zM283 189h252q19 0 33 11t19 28q4 15 -4.5 27t-26.5 12 h-252z" glyph-name="B" horiz-adv-x="740" unicode="B"/><glyph d="M116 350q32 118 105 200t168.5 120t206.5 37q141 -2 224.5 -64t83.5 -182l-219 -44q-5 29 -43.5 54.5t-103.5 25.5q-86 0 -140.5 -41.5t-71.5 -104.5q-17 -66 19.5 -107t113.5 -41q71 0 121.5 25.5t69.5 55.5l194 -45q-64 -120 -181 -182t-258 -64q-172 -2 -254 89.5 t-35 267.5z" glyph-name="C" horiz-adv-x="801" unicode="C"/><glyph d="M420 0h-390l188 700h389q155 0 231.5 -89.5t31.5 -260.5q-31 -115 -101.5 -195.5t-159.5 -117.5t-189 -37zM265 510q22 0 35.5 -0.5t33.5 -3.5t29 -10.5t6 -19.5q-11 -39 -77 -286h198q39 0 94 43.5t75 116.5q18 70 -14 115t-69 45h-311z" glyph-name="D" horiz-adv-x="807" unicode="D"/><glyph d="M917 700l-51 -190h-489l-24 -88h438l-41 -155h-438l-21 -77h490l-51 -190h-700l188 700h699z" glyph-name="E" horiz-adv-x="760" unicode="E"/><glyph d="M30 0l188 700h662l-51 -190h-437q-13 0 -24 13l-2 -1q10 -13 7 -27l-20 -73h407l-42 -155h-386q-20 0 -32 17l-2 -2q13 -15 8 -35l-66 -247h-210z" glyph-name="F" horiz-adv-x="722" unicode="F"/><glyph d="M389 -7q-171 0 -245.5 90.5t-27.5 266.5q32 118 106 200t170.5 120t209.5 37q143 -2 228 -64t85 -182l-207 -50q-13 55 -56 80.5t-101 25.5q-78 0 -140 -41.5t-85 -125.5q-21 -80 17.5 -123.5t119.5 -43.5q61 0 114 53h-86l39 145h297q78 0 59 -69q-2 -7 -15 -57 t-33.5 -125.5t-34.5 -129.5h-205l63 236h-3q-31 -104 -66 -156t-79.5 -69.5t-123.5 -17.5z" glyph-name="G" horiz-adv-x="826" unicode="G"/><glyph d="M30 0l188 700h209l-65 -245h320l65 245h211l-188 -700h-210l66 245h-321l-65 -245h-210z" glyph-name="H" horiz-adv-x="800" unicode="H"/><glyph d="M30 0l188 700h209l-187 -700h-210z" glyph-name="I" unicode="I"/><glyph d="M394 -7q-42 0 -81 5t-79 17t-68.5 32t-50.5 50t-24 71.5t10 95.5l212 51q-13 -52 17.5 -92t114.5 -40q67 0 131.5 54t92.5 160l81 303h210l-84 -314q-106 -393 -482 -393z" glyph-name="J" horiz-adv-x="802" unicode="J"/><glyph d="M240 0h-210l188 700h210l-69 -259q-13 -42 -36 -76h2q25 40 57 67l303 268h275l-396 -350l208 -350h-279l-175 293z" glyph-name="K" horiz-adv-x="802" unicode="K"/><glyph d="M30 0l188 700h210l-127 -472q-9 -36 -44 -64l1 -1q34 27 71 27h392l-51 -190h-640z" glyph-name="L" horiz-adv-x="700" unicode="L"/><glyph d="M240 0h-210l188 700h220l98 -363q5 -17 0 -34l2 -1q6 21 14 32l296 367h220l-188 -700l-210 -1l60 222q15 57 48 124l-1 1q-35 -66 -72 -112l-189 -235h-122l-60 222q-16 62 -16 132h-2q0 -70 -16 -132z" glyph-name="M" horiz-adv-x="910" unicode="M"/><glyph d="M30 0l188 700h219l205 -353q20 -33 23 -77l2 1q-4 46 7 87l92 342h210l-188 -700h-220l-204 352q-20 34 -23 78l-2 -1q4 -46 -7 -87l-92 -342h-210z" glyph-name="N" horiz-adv-x="818" unicode="N"/><glyph d="M406 -7q-109 0 -184 39t-107 118t1 200q31 117 106 200t171 120.5t205 36.5t183.5 -39.5t107 -117.5t-0.5 -200q-47 -174 -180 -265.5t-302 -91.5zM327 350q-20 -74 20 -120.5t110 -46.5q73 0 136.5 46t83.5 121t-19.5 120.5t-110.5 46.5q-70 1 -135 -45.5t-85 -121.5z " glyph-name="O" horiz-adv-x="817" unicode="O"/><glyph d="M30 0l188 700h446q119 0 170 -65.5t21 -177.5q-25 -92 -116.5 -166.5t-204.5 -74.5h-236l-58 -216h-210zM383 533l-44 -161h201q33 0 63.5 23.5t38.5 55.5q11 39 -5.5 60.5t-52.5 21.5h-201z" glyph-name="P" horiz-adv-x="762" unicode="P"/><glyph d="M405 -7q-109 0 -183.5 39t-106.5 118t1 200q31 117 106 200t170.5 120.5t203.5 36.5q109 -1 183.5 -39.5t106.5 -117.5t-1 -200q-21 -79 -62.5 -121t-140.5 -87q-19 -9 -70 -28l1 -2q50 19 71 25l185 56l-54 -200h-410zM326 350q-20 -73 19 -110t116 -37q81 0 139 40 t76 107q19 74 -23.5 110.5t-112.5 36.5q-72 1 -133.5 -36.5t-80.5 -110.5z" glyph-name="Q" horiz-adv-x="834" unicode="Q"/><glyph d="M30 0l188 700h486q123 0 178 -43.5t31 -130.5q-9 -34 -24 -58t-35.5 -38t-36 -20t-39.5 -13q-47 -13 -90 -15l-1 -2q49 2 84 -12q15 -5 25.5 -12t21.5 -24t15 -40.5t0 -64t-18 -92.5l-36 -135h-210l37 135q11 41 -12 61.5t-67 20.5l-227 -1l-58 -216h-212zM385 533 l-39 -146h205q54 0 103 15.5t59 54.5q21 76 -82 76h-246z" glyph-name="R" horiz-adv-x="810" unicode="R"/><glyph d="M99 246h204q-8 -35 23 -47t101 -14q95 -2 142 7t55 38q3 13 -17.5 20t-57 10t-83 6.5t-94.5 9.5t-92 19.5t-75 35.5t-44.5 58.5t0.5 87.5q18 66 61 113.5t103 73t125.5 36.5t140.5 10q161 -2 239 -59t45 -182h-199q8 33 -22.5 42t-113.5 9q-158 0 -168 -41 q-3 -12 17.5 -19t57 -9t83 -6.5t95 -9t92 -18.5t75.5 -34.5t45 -57t0 -84.5q-12 -44 -40 -84t-79 -78t-138 -61t-199 -23q-81 0 -139.5 13t-90 36.5t-48.5 55t-15 68.5t11 78z" glyph-name="S" horiz-adv-x="802" unicode="S"/><glyph d="M417 510h-260l51 190h730l-51 -190h-226q-33 0 -51 25l-2 -2q18 -23 10 -57l-128 -476h-209z" glyph-name="T" horiz-adv-x="771" unicode="T"/><glyph d="M119 331l99 369h210l-99 -370q-19 -68 19.5 -108t108.5 -40q74 0 128 36.5t74 111.5l99 370h210l-99 -369q-23 -84 -72.5 -151t-113.5 -107t-135 -60.5t-142 -20.5q-81 0 -142 18.5t-104 59t-53 105t12 156.5z" glyph-name="U" horiz-adv-x="804" unicode="U"/><glyph d="M275 0l-65 700h222l45 -501q1 -12 -3 -33l2 -1q4 20 12 32l315 503h225l-440 -700h-313z" glyph-name="V" horiz-adv-x="863" unicode="V"/><glyph d="M277 0l-67 700h223l36 -398q0 -20 -4 -35h2q7 24 12 35l201 398h173l-11 -398q0 -11 -7 -34h2q5 16 15 33l256 399h224l-443 -700h-241l6 263q0 3 2 11h-2q-3 -10 -3 -11l-135 -263h-239z" glyph-name="W" horiz-adv-x="1166" unicode="W"/><glyph d="M25 -1l351 347l-164 353h270l76 -160q6 -16 3 -32l2 -1q4 19 15 29l167 164h273l-368 -352l180 -348h-273l-80 151q-7 16 -4 32h-2q-4 -19 -14 -29l-163 -154h-269z" glyph-name="X" horiz-adv-x="856" unicode="X"/><glyph d="M399 290l-194 409h257l80 -194q13 -28 2 -69h2q11 41 39 69l183 194h256l-416 -409l-77 -290h-210z" glyph-name="Y" horiz-adv-x="849" unicode="Y"/><glyph d="M22 0l24 89l484 394q30 26 72 42v1q-38 -15 -77 -15h-358l51 189h747l-24 -89l-472 -393q-30 -26 -72 -42v-2q41 16 77 16h363l-51 -190h-764z" glyph-name="Z" horiz-adv-x="808" unicode="Z"/><glyph d="M-5 -132l223 832h401l-51 -190h-153q-37 0 -61 31l-1 -1q24 -30 14 -66l-102 -379q-8 -34 -40 -59l1 -2q31 24 68 24h153l-51 -190h-401z" glyph-name="bracketleft" horiz-adv-x="462" unicode="["/><glyph d="M620 -95h-234l-183 795h234z" glyph-name="backslash" horiz-adv-x="661" unicode="\"/><glyph d="M396 -132h-401l51 190h153q36 0 60 -31l2 2q-24 30 -14 66l101 379q9 34 41 59l-1 1q-31 -24 -68 -24h-153l51 190h401z" glyph-name="bracketright" horiz-adv-x="461" unicode="]"/><glyph d="M391 500h-232l224 300h440l64 -300h-232l-56 246q-4 22 1 48h-2q-6 -27 -19 -43z" glyph-name="asciicircum" horiz-adv-x="778" unicode="^"/><glyph d="M15 -132l51 190h424l-51 -190h-424z" glyph-name="underscore" horiz-adv-x="524" unicode="_"/><glyph d="M402 700l20 -142h-173l-83 142h236z" glyph-name="grave" horiz-adv-x="243" unicode="`"/><glyph d="M476 134q-32 -65 -99.5 -99t-141.5 -34q-82 0 -133 38.5t-34 102.5q16 61 68 96.5t114.5 44t123 10.5t104 6t47.5 20q5 18 -21 28.5t-74 10.5q-55 0 -88.5 -8.5t-39.5 -36.5h-188q17 61 76 106t131.5 65t146.5 19q64 0 115 -10t91.5 -31.5t56.5 -61t1 -93.5l-22 -84 q-5 -19 2 -26t29 -7h30l-51 -190h-156q-48 0 -77.5 31.5t-18.5 71.5zM289 149q-5 -18 10 -27t42 -9q45 0 92.5 19t53.5 45l11 40q-14 -15 -63.5 -18.5t-93.5 -12t-52 -37.5z" glyph-name="a" horiz-adv-x="741" unicode="a"/><glyph d="M30 0l188 700h209l-71 -267q-11 -37 -30 -68l2 -1q25 43 44 60q43 37 100 59.5t107 22.5q144 -1 198.5 -64t20.5 -192q-68 -256 -356 -256q-48 0 -91.5 19t-67.5 52q-13 18 -20 72l-2 -1q5 -37 -5 -74l-16 -62h-210zM307 250q-10 -37 22.5 -66t108.5 -29q70 0 106 28.5 t46 66.5q11 41 -8 74t-90 34q-75 1 -124.5 -34t-60.5 -74z" glyph-name="b" horiz-adv-x="761" unicode="b"/><glyph d="M89 250q22 83 86.5 142.5t149 87t181.5 26.5q56 0 107.5 -15t92 -43t57.5 -74.5t2 -103.5h-194q-1 31 -27 56t-80 25q-68 0 -110.5 -28t-54.5 -73q-12 -41 16.5 -71t95.5 -28q102 3 148 74h194q-20 -74 -86 -128t-143.5 -78t-154.5 -25q-97 -1 -167 26.5t-102.5 87 t-10.5 142.5z" glyph-name="c" horiz-adv-x="714" unicode="c"/><glyph d="M316 -6q-287 0 -219 256q68 254 356 256q50 0 94 -21.5t67 -57.5q13 -19 15 -66h2q-2 40 7 74l71 265h210l-188 -700h-209l16 61q9 36 32 74h-1q-30 -48 -52 -66q-40 -35 -95.5 -55t-105.5 -20zM305 250q-10 -38 10.5 -66.5t90.5 -28.5q76 0 124 29t58 66q11 39 -20 74 t-107 34q-72 -1 -108.5 -34t-47.5 -74z" glyph-name="d" horiz-adv-x="761" unicode="d"/><glyph d="M371 -6q-150 -1 -232.5 65.5t-49.5 190.5t151 190.5t268 65.5q147 -1 219 -66t39 -190q-1 -5 -2.5 -10t-2.5 -8.5t-3 -9.5h-463q-3 -33 33.5 -56t88.5 -23q64 0 91.5 9t47.5 46h196q-24 -53 -55.5 -90.5t-65 -59t-78.5 -34t-85.5 -16.5t-96.5 -4zM295 222q49 78 108 78 h194q10 35 -26.5 52t-92.5 17q-24 0 -48 -5.5t-52.5 -20t-50.5 -45.5t-32 -76z" glyph-name="e" horiz-adv-x="744" unicode="e"/><glyph d="M93 310l51 190h145q27 0 67 -8v1q-53 13 -64 22q-42 32 -32 71q11 41 42.5 64t114.5 36.5t229 13.5l-43 -159q-154 0 -159 -21q-2 -10 8 -15t37 -5h102l-51 -190h-128l-83 -310h-210l83 310h-109z" glyph-name="f" horiz-adv-x="468" unicode="f"/><glyph d="M-10 -37q15 55 48.5 85t100.5 55q-40 9 -49.5 24t-3.5 36q11 42 107 65q0 1 -4 6.5t-9 14.5t-10 22t-6.5 27.5t2.5 31.5q15 56 71.5 96t124.5 56.5t139 16.5q39 0 106 -10q-19 58 47.5 93t216.5 30l-35 -130h-76q-29 0 -54.5 -6.5t-12.5 -19.5l3 -3q4 -3 7 -6t8 -8.5 t9.5 -12t9 -14t7 -16.5t4.5 -18.5t1 -21t-4 -23.5q-22 -81 -121 -124.5t-210 -43.5q-34 0 -61 3l-10 2t-8 2t-4 1q-12 2 -15 -7q-1 -4 9 -6q5 -1 112 -4q229 -6 278 -89q25 -42 8 -104q-19 -72 -131 -117.5t-266 -45.5q-149 0 -248.5 46.5t-80.5 116.5zM353 -81q64 0 107 16 t50 44q7 25 -26 40.5t-94 20.5q-14 1 -41 1q-47 0 -91 -18.5t-51 -43.5q-8 -26 33 -43t113 -17zM441 291q77 0 87 41q6 21 -13.5 30.5t-50.5 9.5q-76 0 -88 -41q-5 -21 15 -30.5t50 -9.5z" glyph-name="g" horiz-adv-x="735" unicode="g"/><glyph d="M240 0h-210l188 700h209l-77 -287q-9 -36 -30 -74l2 -1q28 50 45 70q93 100 249 100q46 0 84 -14.5t69 -48.5t36.5 -90.5t-13.5 -140.5l-57 -214h-210l57 214q13 48 -15.5 81.5t-91.5 33.5q-60 0 -114 -39t-71 -103z" glyph-name="h" horiz-adv-x="765" unicode="h"/><glyph d="M174 536h209l44 164h-209zM32 0l134 500h206l-134 -500h-206z" glyph-name="i" unicode="i"/><glyph d="M-116 -200h-22l39 145h22q52 0 81 22t44 78l122 455h210l-121 -455q-38 -138 -122 -191.5t-253 -53.5zM390 536h-210l44 164h210z" glyph-name="j" horiz-adv-x="276" unicode="j"/><glyph d="M242 0h-212l188 700h212l-82 -292q-10 -37 -37 -71l1 -1q29 37 62 56l178 108h308l-315 -192l196 -307h-102v-1l-1 1h-163l-120 187l-74 -45z" glyph-name="k" horiz-adv-x="764" unicode="k"/><glyph d="M35 0l201 750h210l-201 -750h-210z" glyph-name="l" horiz-adv-x="280" unicode="l"/><glyph d="M240 0h-210l134 500h210l-38 -140q-10 -38 -25 -72l2 -1q21 52 32 69q45 75 102.5 113.5t108.5 38.5q44 0 75.5 -13.5t47.5 -36.5t23 -46.5t8 -50.5q1 -26 -14 -74h2q14 41 32 68q103 153 221 153q87 0 127 -55t7 -181l-73 -272h-210l53 198q14 50 -6 74.5t-63 24.5 q-35 0 -65.5 -29t-41.5 -70l-53 -198h-209l52 198q14 49 -5.5 74t-59.5 25q-31 0 -66 -30t-45 -69z" glyph-name="m" horiz-adv-x="1042" unicode="m"/><glyph d="M240 0h-210l134 500h210l-39 -143q-7 -31 -24 -68h2q24 53 32 66q47 74 117.5 113.5t128.5 39.5q120 0 158 -75t-6 -245l-50 -188h-210l50 189q15 54 -10.5 81.5t-71.5 27.5q-57 0 -101 -27.5t-60 -83.5z" glyph-name="n" horiz-adv-x="725" unicode="n"/><glyph d="M373 -6q-97 0 -168 27t-104.5 86.5t-11.5 142.5t87.5 142.5t151 87t182.5 26.5q98 -1 168.5 -28t104 -86t10.5 -142q-22 -83 -87 -142.5t-150.5 -86.5t-182.5 -27zM299 250q-10 -41 23.5 -68t93.5 -27q58 0 107.5 27.5t59.5 67.5q11 40 -24 68.5t-92 28.5q-55 1 -106 -28 t-62 -69z" glyph-name="o" horiz-adv-x="748" unicode="o"/><glyph d="M186 -200h-210l188 700h210l-17 -62q-9 -35 -30 -69l2 -1q22 39 45 60q42 36 98 57t107 21q287 0 219 -256q-68 -254 -356 -256q-48 0 -91.5 20.5t-66.5 54.5q-15 21 -19 72h-2q3 -38 -5 -74zM307 250q-11 -39 20.5 -74t106.5 -34q72 1 108.5 34t47.5 74 q10 38 -10.5 66.5t-90.5 28.5q-76 0 -124 -29t-58 -66z" glyph-name="p" horiz-adv-x="761" unicode="p"/><glyph d="M308 -6q-144 1 -198.5 64t-20.5 192q68 256 356 256q48 0 91.5 -19t67.5 -52q16 -22 20 -72l2 1q-5 37 5 74l17 62h209l-187 -700h-210l71 267q8 29 30 69l-2 1q-24 -43 -44 -61q-42 -37 -99.5 -59.5t-107.5 -22.5zM297 250q-11 -41 8 -74t90 -34q75 -1 124.5 34t60.5 74 q10 37 -22.5 66t-108.5 29q-70 0 -106 -28.5t-46 -66.5z" glyph-name="q" horiz-adv-x="745" unicode="q"/><glyph d="M240 0h-210l77 290q30 113 91.5 161.5t176.5 48.5h280l-51 -190h-214q-41 -1 -58.5 -19t-31.5 -70z" glyph-name="r" horiz-adv-x="551" unicode="r"/><glyph d="M70 168l213 17q-7 -27 23.5 -41.5t86.5 -14.5q49 0 83.5 12t37.5 25q2 8 -11.5 12.5t-38.5 6t-57 3.5t-67.5 4.5t-70 8.5t-64.5 16t-51 27t-29 41t1 59q14 50 61 85.5t109.5 50.5t110.5 21t89 6q119 0 200.5 -49t57.5 -127l-187 -13q7 25 -23 38.5t-91 13.5 q-110 0 -119 -36q-3 -10 28.5 -14.5t79.5 -5t102.5 -8t99.5 -20.5t68.5 -45.5t10.5 -80.5q-14 -53 -61.5 -89.5t-112 -51.5t-111 -20t-91.5 -5q-37 0 -82.5 7.5t-98.5 24.5t-81.5 54t-14.5 88z" glyph-name="s" horiz-adv-x="702" unicode="s"/><glyph d="M189 310h-96l51 190h46q45 0 92 63t67 137h209q-38 -133 -170 -190q-17 -6 -70 -14l-1 -2q44 6 70 6h247l-51 -190h-184l-18 -66q-8 -31 3 -42.5t37 -11.5h154l-50 -190h-215q-205 0 -135 257z" glyph-name="t" horiz-adv-x="535" unicode="t"/><glyph d="M268 0q-120 0 -158 75t6 245l50 188h210l-50 -188q-15 -55 10.5 -82.5t71.5 -27.5q57 0 101.5 27.5t59.5 83.5l50 187h210l-134 -500h-210l39 143q7 31 24 68h-2q-24 -53 -32 -66q-47 -74 -117.5 -113.5t-128.5 -39.5z" glyph-name="u" horiz-adv-x="731" unicode="u"/><glyph d="M207 0l-53 500h226l21 -282q3 -37 -7 -75h2q11 41 27 70l169 287h226l-321 -500h-290z" glyph-name="v" horiz-adv-x="704" unicode="v"/><glyph d="M177 0l-48 500h224l29 -302q3 -24 -5 -63h2q6 30 22 64l158 301h345l-3 -304q-2 -30 -12 -63l2 -1q10 34 28 63l193 305h222l-316 -500h-331l3 301q0 29 12 75h-2q-11 -42 -29 -75l-158 -301h-336z" glyph-name="w" horiz-adv-x="1193" unicode="w"/><glyph d="M18 0l261 250l-127 250h266l40 -80q8 -17 5 -35h2q4 21 15 32l88 83h267l-262 -250l128 -250h-266l-42 80q-8 15 -4 35l-2 1q-3 -19 -16 -32l-88 -84h-265z" glyph-name="x" horiz-adv-x="718" unicode="x"/><glyph d="M196 -200h-242l38 145h111q117 0 131 20l17 25l-108 510h233l47 -230q8 -32 -3 -73h2q10 40 34 73l168 230h231l-418 -571q-89 -129 -241 -129z" glyph-name="y" horiz-adv-x="752" unicode="y"/><glyph d="M703 0h-678l39 145l267 145q33 17 77 30v2q-41 -12 -77 -12h-211l51 190h662l-39 -145l-267 -145q-36 -20 -76 -30v-2q39 12 77 12h226z" glyph-name="z" horiz-adv-x="733" unicode="z"/><glyph d="M361 -121q-143 0 -186 13q-64 19 -68 87q-2 45 18 120l14 52q6 22 -5 33.5t-21.5 12.5t-26.5 1h-4l51 190q49 0 67 20q10 10 15 27l14 55q8 31 18 56.5t23 45.5t24 35.5t29.5 27t31.5 19.5t37.5 13t39.5 7.5t46 4t48.5 1.5h54.5l-51 -190q-86 0 -106 -77l-16 -61 q-12 -45 -41 -65q-22 -16 -72 -12v-2q55 -5 67 -27q11 -19 2 -59l-17 -62q-10 -38 4.5 -57t60.5 -19z" glyph-name="braceleft" horiz-adv-x="464" unicode="{"/><glyph d="M-24 -200l242 900h210l-242 -900h-210z" glyph-name="bar" unicode="|"/><glyph d="M351 99q-9 -33 -18.5 -60t-22.5 -48t-23 -37t-28 -28l-30 -20t-37 -13t-39 -8t-46.5 -4.5t-50.5 -1.5h-59l51 190q85 0 105 76l17 62q12 44 41 66q25 18 72 12v2q-57 7 -68 27q-12 20 -1 58l16 61q20 77 -64 77l51 190q60 0 88 -1t68.5 -6.5t55.5 -18.5t30 -36 t12.5 -59.5t-16.5 -88.5l-14 -55q-3 -10 -2.5 -17.5t3.5 -12.5t7.5 -8.5t10.5 -5t12 -2.5t11.5 -1h9.5h4l-51 -190q-48 0 -67 -19q-10 -11 -14 -28z" glyph-name="braceright" horiz-adv-x="422" unicode="}"/><glyph d="M369 450q47 3 83.5 -6t55.5 -21.5t45 -22t54 -7.5q29 2 53.5 22t30.5 48l252 11q-22 -110 -114.5 -190.5t-216.5 -89.5q-48 -3 -88.5 15t-73 33t-65.5 8q-29 -6 -50 -27.5t-25 -45.5l-234 -11q10 91 101 183.5t192 100.5z" glyph-name="asciitilde" horiz-adv-x="845" unicode="~"/><glyph d="M408 500h-235l-51 -190h235zM254 279l28 -206l-75 -281h-210l76 281l138 206h43z" glyph-name="exclamdown" horiz-adv-x="313" unicode="¡"/><glyph d="M271 96q-33 2 -66 19t-59.5 49t-35.5 78t6 107q20 76 75 136t111.5 88t101.5 29l26 98h191l-27 -99q64 -1 109.5 -39.5t49.5 -108.5l-187 -72q-4 25 -36 38.5t-75 13.5q-53 0 -94 -22t-52 -61q-10 -39 20 -58t83 -19q41 0 82.5 11.5t56.5 32.5l147 -72 q-43 -66 -108.5 -105t-127.5 -43l-26 -97h-191z" glyph-name="cent" horiz-adv-x="654" unicode="¢"/><glyph d="M876 0h-861l45 169q106 0 155 22t58 52q10 33 3 49h-146l74 118h71q-24 48 -8 108q25 90 136 138t270 49q160 1 237.5 -57.5t43.5 -195.5l-191 -7q11 46 -31 67.5t-100 21.5q-144 0 -158 -54q-9 -34 16 -70h229l-57 -118h-146q11 -19 4 -48q-6 -22 -40 -52 q-26 -20 -67 -35l1 -1q41 13 74 13h416z" glyph-name="sterling" horiz-adv-x="902" unicode="£"/><glyph d="M52 181l97 62q-12 23 4 82q16 54 45 83l-64 62l124 82l64 -62q39 22 119 22q69 0 99 -19l95 62l85 -93l-96 -62q15 -24 2 -75q-7 -25 -21 -50t-28 -35l64 -62l-124 -82l-62 62q-62 -31 -118 -31q-57 0 -103 23l-97 -62zM334 325q-4 -18 9 -30.5t36 -12.5q22 0 42 12.5 t24 30.5q5 18 -7.5 30.5t-35.5 12.5t-43.5 -12.5t-24.5 -30.5z" glyph-name="currency" horiz-adv-x="601" unicode="¤"/><glyph d="M183 65l31 115h167l5 21h-167l34 125h167l5 19l-180 354h257l63 -149q13 -34 6 -72l2 -1q7 39 33 65l155 157h268l-394 -354l-5 -19h166l-34 -125h-166l-6 -21h167l-31 -115h-166l-18 -65h-210l18 65h-167z" glyph-name="yen" horiz-adv-x="872" unicode="¥"/><glyph d="M116 319l101 379h210l-101 -379h-210zM-24 -200l102 379h210l-101 -379h-211z" glyph-name="brokenbar" unicode="¦"/><glyph d="M410 -75q-179 0 -259 55.5t-77 157.5l214 -2q-5 -89 155 -89q171 0 182 44q4 15 -24 25t-75.5 17t-105 14t-114 18.5t-101 27.5t-67.5 44.5t-13 66.5q23 87 218 108q25 3 76 1v2q-55 2 -76 7q-78 14 -128.5 45t-38.5 77q14 53 70 89.5t134.5 51.5t135 20t112.5 5 q160 0 253.5 -57t90.5 -153h-208q2 37 -44.5 64t-123.5 27q-116 0 -127 -39q-3 -10 16.5 -18.5t53.5 -14.5t77 -14.5t87.5 -17t86 -22.5t72.5 -31t45.5 -43t6.5 -57q-6 -22 -19.5 -38t-28.5 -25t-40.5 -15t-43.5 -8t-50 -5q-33 -3 -76 -1v-2q55 -2 75 -7q68 -16 107 -52 t25 -90q-10 -36 -40 -65t-73 -46t-88.5 -29t-97 -17t-86 -7t-68.5 -2zM351 353q-11 -42 44 -68.5t148 -35.5q77 -8 113 5t45 45q8 30 -25.5 53t-79 34t-100.5 17q-44 4 -57 4q-39 0 -59.5 -12t-28.5 -42z" glyph-name="section" horiz-adv-x="868" unicode="§"/><glyph d="M355 445h-210l69 255h210zM395 445l68 255h210l-68 -255h-210z" glyph-name="dieresis" horiz-adv-x="511" unicode="¨"/><glyph d="M505 -50q-205 0 -321 110t-75 265q42 155 217 265t380 110q206 0 322 -110t75 -265q-42 -155 -217 -265t-381 -110zM248 325q-29 -112 54.5 -191t231.5 -79q147 0 273 79t156 191t-53.5 191t-231.5 79t-274 -79t-156 -191zM555 107q-82 -1 -141 22t-86.5 73.5t-8.5 120.5 q28 105 127 161t225 55q47 0 90.5 -13t77.5 -36.5t48.5 -62.5t1.5 -87h-164q0 26 -22 47t-68 21q-57 0 -93 -23.5t-46 -61.5q-10 -35 14 -60t81 -24q86 3 124 63h164q-17 -63 -72.5 -109t-121 -66t-130.5 -20z" glyph-name="copyright" horiz-adv-x="1024" unicode="©"/><glyph d="M437 489q-21 -44 -67 -67t-96 -23q-54 0 -88 26t-23 69q13 50 62.5 74.5t101.5 25.5t96 3.5t47 15.5q4 13 -13.5 20t-50.5 7q-79 0 -86 -31h-126q16 61 87.5 95t150.5 33q59 -1 101 -12t66 -41.5t11 -78.5l-16 -57q-3 -12 1.5 -16.5t19.5 -4.5h20l-34 -128h-105 q-32 0 -52 21t-13 48zM311 499q-4 -12 6 -18t29 -6q30 0 62 13t37 30l7 26q-10 -10 -72 -15t-69 -30z" glyph-name="ordfeminine" horiz-adv-x="524" unicode="ª"/><glyph d="M496 515l-55 -207l-71 -32l53 -32l-55 -206l-294 182l30 113zM865 515l-56 -207l-70 -32l53 -32l-55 -206l-295 182l30 113z" glyph-name="guillemotleft" horiz-adv-x="742" unicode="«"/><glyph d="M146 450h674l-103 -387h-210l53 198h-465z" glyph-name="logicalnot" horiz-adv-x="725" unicode="¬"/><glyph d="M322 415q-82 0 -126.5 50t-25.5 120t90.5 120t153.5 50t126.5 -50t25.5 -120t-90.5 -120t-153.5 -50zM246 585q-11 -44 16.5 -74.5t77.5 -30.5t94 30.5t56 74.5q11 44 -16.5 74.5t-77.5 30.5t-94 -30.5t-56 -74.5zM280 519l36 138h96q24 0 34.5 -8.5t6.5 -26.5 q-3 -11 -8.5 -16.5t-16 -8.5t-11.5 -3l6 -2q21 -8 11 -46l-7 -27h-42l8 27q4 16 -16 16h-44l-12 -43h-41zM349 624l-7 -29h40q28 0 32 14q2 8 -2.5 11.5t-13.5 3.5h-49z" glyph-name="registered" horiz-adv-x="422" unicode="®"/><glyph d="M177 587l37 137h453l-37 -137h-453z" glyph-name="macron" horiz-adv-x="493" unicode="¯"/><glyph d="M360 433q-92 0 -144.5 46t-35.5 110q17 65 94.5 110.5t169.5 45.5t144.5 -46t35.5 -110t-94.5 -110t-169.5 -46zM324 589q-6 -23 12.5 -39t50.5 -16t59 16t34 39q6 23 -13 39t-51 16t-59 -16.5t-33 -38.5z" glyph-name="degree" horiz-adv-x="488" unicode="°"/><glyph d="M107 326l51 190h184l36 133h209l-35 -133h182l-51 -190h-182l-38 -140h-209l37 140h-184zM575 -78h-576l51 190h576z" glyph-name="plusminus" horiz-adv-x="615" unicode="±"/><glyph d="M129 399l3 11q16 61 63 103.5t94 59.5t87 33.5t44 30.5q5 16 -9.5 24.5t-34.5 8.5q-57 0 -75 -60l-108 -1q22 83 74 118.5t143 35.5q78 0 112 -26.5t20 -79.5q-7 -25 -18 -44t-22 -30.5t-31 -22.5t-32.5 -16.5t-40.5 -15t-42 -15.5q-36 -15 -72 -22v-2q44 8 75 8h142 l-26 -98h-346z" glyph-name="uni00B2" horiz-adv-x="390" unicode="²"/><glyph d="M316 406q-175 0 -137 137h102q-4 -16 8 -29.5t40 -13.5q27 0 46 11.5t22 24.5q5 16 -7.5 20.5t-43.5 4.5h-35l12 52h37q26 0 43.5 9t21.5 24q4 14 -10 24t-37 10q-31 0 -50 -16t-25 -37h-102q34 127 205 125q67 0 95.5 -20.5t16.5 -65.5q-15 -52 -122 -52v-2q59 0 75 -7 q38 -17 19 -86q-29 -113 -174 -113z" glyph-name="uni00B3" horiz-adv-x="384" unicode="³"/><glyph d="M301 558h-173l96 142h236z" glyph-name="acute" horiz-adv-x="190" unicode="´"/><glyph d="M465 287q-191 0 -262.5 44t-39.5 166q31 116 129 162.5t286 46.5h209l-213 -794h-209zM851 -88h-210l213 794h210z" glyph-name="paragraph" horiz-adv-x="905" unicode="¶"/><glyph d="M303 300h-203l51 188h203z" glyph-name="periodcentered" horiz-adv-x="243" unicode="·"/><glyph d="M-109 -225l76 70q15 -41 76 -41q29 0 53 13t30 37q4 16 -5 25.5t-31.5 13t-36.5 4t-39 0.5h-11l75 118h158l-51 -63q79 0 50 -104q-18 -69 -75.5 -103.5t-126.5 -34.5q-50 0 -90 18t-52 47z" glyph-name="cedilla" horiz-adv-x="282" unicode="¸"/><glyph d="M179 586l24 91q74 0 90 59h101l-90 -336h-101l55 203q8 35 26 71l-2 1q-2 -4 -7 -16.5t-8 -19.5t-8.5 -16.5t-11.5 -14.5q-23 -22 -68 -22z" glyph-name="uni00B9" horiz-adv-x="219" unicode="¹"/><glyph d="M286 374q-44 0 -72.5 13.5t-40 31.5t-13.5 45.5t1 47t10 44.5q48 182 212 182q166 0 115 -182q-6 -25 -13.5 -44.5t-24 -47t-37.5 -45.5t-57 -31.5t-80 -13.5zM278 556q-10 -29 -2.5 -49t40.5 -20q57 0 75 69q19 69 -38 69q-56 0 -75 -69z" glyph-name="ordmasculine" horiz-adv-x="379" unicode="º"/><glyph d="M521 515l295 -182l-30 -113l-392 -182l55 206l69 32l-52 32zM152 515l295 -182l-30 -113l-392 -182l55 206l70 32l-53 32z" glyph-name="guillemotright" horiz-adv-x="742" unicode="»"/><glyph d="M200 0l537 700h207l-536 -700h-208zM549 82l15 58l308 276h124l-61 -229h61l-18 -105h-49q-21 0 -33 17l-1 -1q11 -16 6 -38l-16 -58h-126l21 80h-231zM270 550q-30 -48 -105 -48l32 121q98 0 118 77h134l-119 -444h-134l79 293q3 13 16 48h-1q-2 -5 -5.5 -15t-7 -18 t-7.5 -14zM831 268l-75 -73h55z" glyph-name="onequarter" horiz-adv-x="985" unicode="¼"/><glyph d="M118 0l537 700h207l-536 -700h-208zM912 -4h-393l3 12q15 56 53 98.5t82 65t86 38t72.5 29t34.5 27.5q5 19 -11 28.5t-39 9.5q-34 0 -55 -20t-30 -49l-123 -1q25 95 84 135.5t162 40.5q89 0 127.5 -30.5t22.5 -90.5q-10 -35 -24.5 -59.5t-39.5 -41t-44.5 -25t-58 -22 t-61.5 -23.5q-24 -10 -46 -15v-1q23 5 45 5h183zM170 522l29 108q88 0 107 70h120l-107 -401h-121l71 265q6 20 15 43h-1q-15 -38 -18 -43q-26 -42 -95 -42z" glyph-name="onehalf" horiz-adv-x="943" unicode="½"/><glyph d="M255 0l536 700h207l-536 -700h-207zM301 286q-210 0 -166 166h124q-5 -20 9.5 -36.5t49.5 -16.5q32 0 55 14t26 30q5 20 -10 25.5t-51 5.5h-43l15 63h45q31 0 52.5 10.5t25.5 28.5q5 17 -12 29.5t-45 12.5q-38 0 -60.5 -19t-29.5 -45h-124q41 153 249 151 q81 -1 115.5 -26t19.5 -79q-9 -34 -45.5 -48.5t-79.5 -14.5v-2q27 2 44 -1q39 -8 50 -30.5t-3 -80.5q-36 -137 -211 -137zM592 72l14 52l279 250h112l-55 -208h55l-16 -94h-44q-19 0 -31 14q10 -15 5 -35l-14 -53h-115l20 74h-210zM848 239l-68 -65h50z" glyph-name="threequarters" horiz-adv-x="975" unicode="¾"/><glyph d="M278 -214q-150 0 -221.5 51.5t-43.5 154.5q14 54 48.5 85.5t75.5 44t81 24.5t74 40.5t47 77.5l5 17h210l-5 -17q-16 -62 -46 -107.5t-62.5 -68.5t-68 -40.5t-64 -25.5t-49.5 -21.5t-26 -30.5q-5 -21 17.5 -33.5t64.5 -12.5q120 0 139 68h210q-26 -95 -132 -150.5 t-254 -55.5zM341 310l51 190h235l-51 -190h-235z" glyph-name="questiondown" horiz-adv-x="681" unicode="¿"/><glyph d="M250 0h-228l452 700h259l77 -700h-225l-20 108h-243zM560 758l-84 142h237l20 -142h-173zM532 447l-112 -172h20h17.5h14.5h13t10 -0.5t9 -1.5t7.5 -2t7 -2t6 -3t6.5 -4q9 -7 14.5 -28.5t10 -50t8.5 -41.5z" glyph-name="Agrave" horiz-adv-x="832" unicode="À"/><glyph d="M243 0h-228l452 700h259l77 -700h-225l-20 108h-243zM675 758h-173l96 142h236zM525 447l-112 -172h20h17.5h14.5h13t10 -0.5t9 -1.5t7.5 -2t7 -2t6 -3t6.5 -4q9 -7 14.5 -28.5t10 -50t8.5 -41.5z" glyph-name="Aacute" horiz-adv-x="818" unicode="Á"/><glyph d="M15 0l452 700h259l77 -700h-225l-20 108h-243l-72 -108h-228zM348 777l179 192h271l76 -192h-203l-31 106l-89 -106h-203zM525 447l-112 -172h20h17.5h14.5h13t10 -0.5t9 -1.5t7.5 -2t7 -2t6 -3t6.5 -4q9 -7 14.5 -28.5t10 -50t8.5 -41.5z" glyph-name="Acircumflex" horiz-adv-x="818" unicode="Â"/><glyph d="M15 0l452 700h259l77 -700h-225l-20 108h-243l-72 -108h-228zM342 745q53 194 243 194q30 0 52.5 -9t33.5 -19.5t24 -19.5t26 -10q22 -1 37 18t20 40h152q-53 -198 -231 -198q-42 0 -68.5 14t-44 28t-36.5 15q-30 2 -52.5 -13.5t-29.5 -40.5zM413 275h20h17.5h14.5h13 t10 -0.5t9 -1.5t7.5 -2t7 -2t6 -3t6.5 -4q9 -7 14.5 -28.5t10 -50t8.5 -41.5l-32 305z" glyph-name="Atilde" horiz-adv-x="818" unicode="Ã"/><glyph d="M243 0h-228l452 700h259l77 -700h-225l-20 108h-243zM819 740h-210l43 160h210zM578 740h-210l43 160h210zM525 447l-112 -172h20h17.5h14.5h13t10 -0.5t9 -1.5t7.5 -2t7 -2t6 -3t6.5 -4q9 -7 14.5 -28.5t10 -50t8.5 -41.5z" glyph-name="Adieresis" horiz-adv-x="818" unicode="Ä"/><glyph d="M243 0h-228l452 700h259l77 -700h-225l-20 108h-243zM609 741q-77 0 -121 34.5t-31 83.5t75.5 83t139.5 34q76 0 120 -34t31 -83t-75.5 -83.5t-138.5 -34.5zM413 275h20h17.5h14.5h13t10 -0.5t9 -1.5t7.5 -2t7 -2t6 -3t6.5 -4q9 -7 14.5 -28.5t10 -50t8.5 -41.5l-32 305z M582 859q-5 -15 9.5 -26t38.5 -11q23 0 43 11t24 26t-10 26t-37 11q-24 0 -44 -11t-24 -26z" glyph-name="Aring" horiz-adv-x="818" unicode="Å"/><glyph d="M258 0h-225l452 700h759l-51 -190h-384l-24 -88h329l-41 -155h-329l-21 -77h384l-51 -190h-594l30 111h-163zM608 545l-150 -232h88z" glyph-name="AE" horiz-adv-x="1089" unicode="Æ"/><glyph d="M116 350q32 118 105 200t168.5 120t206.5 37q141 -2 224.5 -64t83.5 -182l-219 -44q-5 29 -43.5 54.5t-103.5 25.5q-86 0 -140.5 -41.5t-71.5 -104.5q-17 -66 19.5 -107t113.5 -41q71 0 121.5 25.5t69.5 55.5l194 -45q-56 -105 -153.5 -166t-218.5 -76l-37 -46 q79 0 50 -104q-18 -69 -75 -103t-126 -34q-51 0 -91 17.5t-52 47.5l76 69q15 -41 76 -41q29 0 53 13t30 37q4 16 -5 25.5t-31.5 13t-36.5 4t-39 0.5h-11l65 103q-130 21 -186.5 110.5t-15.5 240.5z" glyph-name="Ccedilla" horiz-adv-x="802" unicode="Ç"/><glyph d="M917 700l-51 -190h-489l-24 -88h438l-41 -155h-438l-21 -77h490l-51 -190h-700l188 700h699zM686 900l20 -142h-173l-83 142h236z" glyph-name="Egrave" horiz-adv-x="760" unicode="È"/><glyph d="M917 700l-51 -190h-489l-24 -88h438l-41 -155h-438l-21 -77h490l-51 -190h-700l188 700h699zM643 758h-173l96 142h237z" glyph-name="Eacute" horiz-adv-x="760" unicode="É"/><glyph d="M730 0h-700l188 700h699l-51 -190h-489l-24 -88h438l-41 -155h-438l-21 -77h490zM546 760h-203l179 192h271l76 -192h-203l-31 107z" glyph-name="Ecircumflex" horiz-adv-x="760" unicode="Ê"/><glyph d="M730 0h-700l188 700h699l-51 -190h-489l-24 -88h438l-41 -155h-438l-21 -77h490zM823 740h-210l43 160h210zM372 740l43 160h210l-43 -160h-210z" glyph-name="Edieresis" horiz-adv-x="760" unicode="Ë"/><glyph d="M30 0l188 700h209l-187 -700h-210zM412 900l20 -142h-173l-84 142h237z" glyph-name="Igrave" unicode="Ì"/><glyph d="M30 0l188 700h209l-187 -700h-210zM412 758h-173l96 142h237z" glyph-name="Iacute" unicode="Í"/><glyph d="M240 0h-210l188 700h209zM273 755h-203l179 192h271l76 -192h-203l-31 107z" glyph-name="Icircumflex" unicode="Î"/><glyph d="M240 0h-210l188 700h209zM319 740h-210l43 160h210zM561 740h-210l42 160h211z" glyph-name="Idieresis" unicode="Ï"/><glyph d="M79 239l56 210h114l67 251h390q100 0 168.5 -38t97 -115.5t-3.5 -196.5q-31 -115 -101.5 -195.5t-159.5 -117.5t-189 -37h-390l64 239h-113zM582 239h-179q-2 -9 -6.5 -25.5t-6.5 -23.5h198q39 0 94 43.5t75 116.5q19 70 -13 115t-70 45h-311q22 0 35.5 -0.5t34 -3.5 t29 -10.5t5.5 -19.5q-1 -3 -7 -27h178z" glyph-name="Eth" horiz-adv-x="889" unicode="Ð"/><glyph d="M240 0h-210l188 700h219l205 -353q20 -33 23 -77l2 1q-4 46 7 87l92 342h210l-188 -700h-220l-204 352q-20 34 -23 78l-2 -1q4 -46 -7 -87zM338 740q53 194 242 194q39 0 64 -14t41 -28.5t32 -15.5q22 -1 37 18t20 40h152q-25 -93 -82.5 -145t-148.5 -52 q-42 0 -68.5 13.5t-44 28t-36.5 15.5q-31 1 -53.5 -14.5t-28.5 -40.5z" glyph-name="Ntilde" horiz-adv-x="818" unicode="Ñ"/><glyph d="M406 -7q-109 0 -184 39t-107 118t1 200q31 117 106 200t171 120.5t205 36.5t183.5 -39.5t107 -117.5t-0.5 -200q-47 -174 -180 -265.5t-302 -91.5zM327 350q-20 -74 20 -120.5t110 -46.5q73 0 136.5 46t83.5 121t-19.5 120.5t-110.5 46.5q-70 1 -135 -45.5t-85 -121.5z M514 758l-83 142h236l20 -142h-173z" glyph-name="Ograve" horiz-adv-x="817" unicode="Ò"/><glyph d="M406 -7q-109 0 -184 39t-107 118t1 200q31 117 106 200t171 120.5t205 36.5t183.5 -39.5t107 -117.5t-0.5 -200q-47 -174 -180 -265.5t-302 -91.5zM327 350q-20 -74 20 -120.5t110 -46.5q73 0 136.5 46t83.5 121t-19.5 120.5t-110.5 46.5q-70 1 -135 -45.5t-85 -121.5z M462 758l96 142h236l-159 -142h-173z" glyph-name="Oacute" horiz-adv-x="816" unicode="Ó"/><glyph d="M406 -7q-109 0 -184 39t-107 118t1 200q31 117 106 200t171 120.5t205 36.5t183.5 -39.5t107 -117.5t-0.5 -200q-47 -174 -180 -265.5t-302 -91.5zM327 350q-20 -74 20 -120.5t110 -46.5q73 0 136.5 46t83.5 121t-19.5 120.5t-110.5 46.5q-70 1 -135 -45.5t-85 -121.5z M355 781l178 192h272l76 -192h-203l-31 106l-89 -106h-203z" glyph-name="Ocircumflex" horiz-adv-x="816" unicode="Ô"/><glyph d="M406 -7q-109 0 -184 39t-107 118t1 200q31 117 106 200t171 120.5t205 36.5t183.5 -39.5t107 -117.5t-0.5 -200q-47 -174 -180 -265.5t-302 -91.5zM327 350q-20 -74 20 -120.5t110 -46.5q73 0 136.5 46t83.5 121t-19.5 120.5t-110.5 46.5q-70 1 -135 -45.5t-85 -121.5z M455 744l-126 1q53 194 242 194q39 0 64 -14t41 -28.5t32 -15.5q22 -1 37 18t20 40h152q-53 -198 -231 -198q-42 0 -68.5 14t-44 28t-36.5 15q-31 2 -53.5 -13.5t-28.5 -40.5z" glyph-name="Otilde" horiz-adv-x="816" unicode="Õ"/><glyph d="M406 -7q-109 0 -184 39t-107 118t1 200q31 117 106 200t171 120.5t205 36.5t183.5 -39.5t107 -117.5t-0.5 -200q-47 -174 -180 -265.5t-302 -91.5zM327 350q-20 -74 20 -120.5t110 -46.5q73 0 136.5 46t83.5 121t-19.5 120.5t-110.5 46.5q-70 1 -135 -45.5t-85 -121.5z M629 740l43 160h211l-43 -160h-211zM388 740l43 160h210l-43 -160h-210z" glyph-name="Odieresis" horiz-adv-x="816" unicode="Ö"/><glyph d="M256 193h-184l51 190h184l35 133h210l-36 -133h182l-51 -190h-182l-38 -140h-209z" glyph-name="multiply" horiz-adv-x="615" unicode="×"/><glyph d="M173 65q-108 95 -57 285q31 117 106 200t171 120.5t205 36.5q24 0 64 -4l30 39h236l-89 -116q98 -94 49 -276q-47 -174 -180 -265.5t-302 -91.5q-18 0 -50 2l-37 -48h-236zM327 265l192 250q-64 -9 -119 -53.5t-73 -111.5q-13 -46 0 -85zM681 420l-178 -232q61 13 109 56 t65 106q10 38 4 70z" glyph-name="Oslash" horiz-adv-x="816" unicode="Ø"/><glyph d="M119 331l99 369h210l-99 -370q-19 -68 19.5 -108t108.5 -40q74 0 128 36.5t74 111.5l99 370h210l-99 -369q-23 -84 -72.5 -151t-113.5 -107t-135 -60.5t-142 -20.5q-81 0 -142 18.5t-104 59t-53 105t12 156.5zM528 758l-83 142h236l20 -142h-173z" glyph-name="Ugrave" horiz-adv-x="810" unicode="Ù"/><glyph d="M119 331l99 369h210l-99 -370q-19 -68 19.5 -108t108.5 -40q74 0 128 36.5t74 111.5l99 370h210l-99 -369q-23 -84 -72.5 -151t-113.5 -107t-135 -60.5t-142 -20.5q-81 0 -142 18.5t-104 59t-53 105t12 156.5zM506 758l96 142h236l-159 -142h-173z" glyph-name="Uacute" horiz-adv-x="810" unicode="Ú"/><glyph d="M119 331l99 369h210l-99 -370q-19 -68 19.5 -108t108.5 -40q74 0 128 36.5t74 111.5l99 370h210l-99 -369q-23 -84 -72.5 -151t-113.5 -107t-135 -60.5t-142 -20.5q-81 0 -142 18.5t-104 59t-53 105t12 156.5zM353 775l179 192h271l76 -192h-203l-31 107l-89 -107h-203z " glyph-name="Ucircumflex" horiz-adv-x="810" unicode="Û"/><glyph d="M119 331l99 369h210l-99 -370q-19 -68 19.5 -108t108.5 -40q74 0 128 36.5t74 111.5l99 370h210l-99 -369q-23 -84 -72.5 -151t-113.5 -107t-135 -60.5t-142 -20.5q-81 0 -142 18.5t-104 59t-53 105t12 156.5zM630 740l43 160h210l-43 -160h-210zM389 740l42 160h211 l-43 -160h-210z" glyph-name="Udieresis" horiz-adv-x="810" unicode="Ü"/><glyph d="M205 699h257l80 -194q13 -28 2 -69h2q11 41 39 69l183 194h256l-416 -409l-77 -290h-210l78 290zM529 758l96 142h237l-160 -142h-173z" glyph-name="Yacute" horiz-adv-x="855" unicode="Ý"/><glyph d="M241 0h-211l188 700h210l-29 -110h197q139 0 195.5 -59t25.5 -173q-30 -112 -118.5 -172t-227.5 -60h-197zM356 430l-39 -144h116q68 0 104.5 8.5t49.5 22.5t20 41q9 27 2.5 43t-37 22.5t-100.5 6.5h-116z" glyph-name="Thorn" horiz-adv-x="751" unicode="Þ"/><glyph d="M240 0h-210l141 527q21 79 126.5 127.5t235.5 48.5q170 0 247.5 -40.5t51.5 -135.5q-26 -97 -222 -139q33 -4 59.5 -10.5t56 -19.5t44.5 -32t24 -47.5t-4 -66.5q-57 -212 -466 -212l44 165q197 0 219 81q6 24 -6 42t-54.5 30.5t-113.5 13.5l23 87q58 0 96.5 21.5 t48.5 58.5q8 33 -13.5 61.5t-65.5 28.5q-40 0 -81.5 -35t-55.5 -88z" glyph-name="germandbls" horiz-adv-x="763" unicode="ß"/><glyph d="M507 134q-32 -65 -99.5 -99t-142.5 -34q-82 0 -132.5 38.5t-33.5 102.5q16 61 68 96.5t114.5 44t123 10.5t104 6t47.5 20q5 18 -21 28.5t-74 10.5q-55 0 -88.5 -8.5t-39.5 -36.5h-188q25 90 131 140.5t223 49.5q50 0 92.5 -6t81 -20t61 -36.5t33 -55.5t-3.5 -78l-22 -84 q-5 -19 2 -26t28 -7h31l-51 -190h-156q-48 0 -77.5 31.5t-18.5 71.5zM364 700h237l20 -142h-173zM320 149q-5 -18 10 -27t42 -9q45 0 92.5 19t53.5 45l11 40q-15 -15 -64.5 -18.5t-93 -12t-51.5 -37.5z" glyph-name="agrave" horiz-adv-x="769" unicode="à"/><glyph d="M507 134q-32 -65 -99.5 -99t-142.5 -34q-82 0 -132.5 38.5t-33.5 102.5q16 61 68 96.5t114.5 44t123 10.5t104 6t47.5 20q5 18 -21 28.5t-74 10.5q-55 0 -88.5 -8.5t-39.5 -36.5h-188q25 90 131 140.5t223 49.5q50 0 92.5 -6t81 -20t61 -36.5t33 -55.5t-3.5 -78l-22 -84 q-5 -19 2 -26t28 -7h31l-51 -190h-156q-48 0 -77.5 31.5t-18.5 71.5zM447 558l96 142h237l-160 -142h-173zM320 149q-5 -18 10 -27t42 -9q45 0 92.5 19t53.5 45l11 40q-15 -15 -64.5 -18.5t-93 -12t-51.5 -37.5z" glyph-name="aacute" horiz-adv-x="781" unicode="á"/><glyph d="M507 134q-32 -65 -99.5 -99t-142.5 -34q-82 0 -132.5 38.5t-33.5 102.5q16 61 68 96.5t114.5 44t123 10.5t104 6t47.5 20q5 18 -21 28.5t-74 10.5q-55 0 -88.5 -8.5t-39.5 -36.5h-188q25 90 131 140.5t223 49.5q50 0 92.5 -6t81 -20t61 -36.5t33 -55.5t-3.5 -78l-22 -84 q-5 -19 2 -26t28 -7h31l-51 -190h-156q-48 0 -77.5 31.5t-18.5 71.5zM266 564l178 192h272l76 -192h-203l-31 107l-89 -107h-203zM320 149q-5 -18 10 -27t42 -9q45 0 92.5 19t53.5 45l11 40q-15 -15 -64.5 -18.5t-93 -12t-51.5 -37.5z" glyph-name="acircumflex" horiz-adv-x="781" unicode="â"/><glyph d="M507 134q-32 -65 -99.5 -99t-142.5 -34q-82 0 -132.5 38.5t-33.5 102.5q16 61 68 96.5t114.5 44t123 10.5t104 6t47.5 20q5 18 -21 28.5t-74 10.5q-55 0 -88.5 -8.5t-39.5 -36.5h-188q25 90 131 140.5t223 49.5q50 0 92.5 -6t81 -20t61 -36.5t33 -55.5t-3.5 -78l-22 -84 q-5 -19 2 -26t28 -7h31l-51 -190h-156q-48 0 -77.5 31.5t-18.5 71.5zM262 545q53 194 242 194q39 0 64 -14t41 -28.5t32 -15.5q22 -1 37 18t20 40h152q-53 -198 -232 -198q-41 0 -67.5 14t-44 28t-36.5 15q-31 2 -53.5 -13.5t-28.5 -40.5zM320 149q-5 -18 10 -27t42 -9 q45 0 92.5 19t53.5 45l11 40q-15 -15 -64.5 -18.5t-93 -12t-51.5 -37.5z" glyph-name="atilde" horiz-adv-x="781" unicode="ã"/><glyph d="M507 134q-32 -65 -99.5 -99t-142.5 -34q-82 0 -132.5 38.5t-33.5 102.5q16 61 68 96.5t114.5 44t123 10.5t104 6t47.5 20q5 18 -21 28.5t-74 10.5q-55 0 -88.5 -8.5t-39.5 -36.5h-188q25 90 131 140.5t223 49.5q50 0 92.5 -6t81 -20t61 -36.5t33 -55.5t-3.5 -78l-22 -84 q-5 -19 2 -26t28 -7h31l-51 -190h-156q-48 0 -77.5 31.5t-18.5 71.5zM770 540h-210l42 160h211zM318 540l43 160h210l-43 -160h-210zM320 149q-5 -18 10 -27t42 -9q45 0 92.5 19t53.5 45l11 40q-15 -15 -64.5 -18.5t-93 -12t-51.5 -37.5z" glyph-name="adieresis" horiz-adv-x="781" unicode="ä"/><glyph d="M507 134q-32 -65 -99.5 -99t-142.5 -34q-82 0 -132.5 38.5t-33.5 102.5q16 61 68 96.5t114.5 44t123 10.5t104 6t47.5 20q5 18 -21 28.5t-74 10.5q-55 0 -88.5 -8.5t-39.5 -36.5h-188q25 90 131 140.5t223 49.5q50 0 92.5 -6t81 -20t61 -36.5t33 -55.5t-3.5 -78l-22 -84 q-5 -19 2 -26t28 -7h31l-51 -190h-156q-48 0 -77.5 31.5t-18.5 71.5zM525 544q-77 0 -121.5 34t-31.5 84q14 49 76.5 83t139.5 34q76 0 120 -34t31 -83t-75.5 -83.5t-138.5 -34.5zM320 149q-5 -18 10 -27t42 -9q45 0 92.5 19t53.5 45l11 40q-15 -15 -64.5 -18.5t-93 -12 t-51.5 -37.5zM498 662q-4 -16 10 -27t38 -11q23 0 43 11t24 27q4 15 -10 25.5t-37 10.5q-24 0 -44 -10.5t-24 -25.5z" glyph-name="aring" horiz-adv-x="781" unicode="å"/><glyph d="M562 154q-42 -75 -130.5 -115.5t-183.5 -40.5q-93 0 -149.5 38.5t-38.5 105.5q17 64 70 99t117 42.5t126 9t107.5 9.5t52.5 33q5 17 -13 29.5t-44 17.5t-53 5q-33 0 -68 -14t-41 -36h-203q12 43 49 76.5t87 52.5t103 28t104 9q181 -1 195 -130q36 55 124 94.5t185 38.5 q136 -1 201 -66t32 -190q-2 -6 -11 -26h-493q-5 -24 6.5 -41.5t33 -26t41.5 -12t39 -3.5q102 3 148 57h216q-18 -67 -80 -114.5t-137.5 -68t-155.5 -21.5q-109 -1 -173.5 46t-62.5 114zM869 370q-58 0 -107.5 -33.5t-74.5 -112.5q19 25 47.5 37t51 14t66.5 2h124 q11 43 -19 68t-88 25zM268 164q-4 -16 12 -25t45 -9q56 0 113 31t72 89l13 47q-10 -36 -70.5 -57.5t-119.5 -37.5t-65 -38z" glyph-name="ae" horiz-adv-x="1144" unicode="æ"/><glyph d="M89 250q22 83 86.5 142.5t149 87t181.5 26.5q56 0 107.5 -15t92 -43t57.5 -74.5t2 -103.5h-194q-1 31 -27 56t-80 25q-68 0 -110.5 -28t-54.5 -73q-12 -41 16.5 -71t95.5 -28q102 3 148 74h194q-25 -92 -114.5 -150t-199.5 -75l-39 -49q79 0 50 -104q-18 -69 -75 -103 t-126 -34q-51 0 -91 17.5t-52 47.5l76 69q15 -41 76 -41q29 0 53 13t30 37q4 16 -5 25.5t-31.5 13t-36.5 4t-39 0.5h-11l66 104q-113 17 -168 81t-27 169z" glyph-name="ccedilla" horiz-adv-x="715" unicode="ç"/><glyph d="M371 -6q-150 -1 -232.5 65.5t-49.5 190.5t151 190.5t268 65.5q147 -1 219 -66t39 -190q-1 -5 -2.5 -10t-2.5 -8.5t-3 -9.5h-463q-3 -33 33.5 -56t88.5 -23q64 0 91.5 9t47.5 46h196q-24 -53 -55.5 -90.5t-65 -59t-78.5 -34t-85.5 -16.5t-96.5 -4zM483 558l-83 142h236 l20 -142h-173zM478 369q-24 0 -48 -5.5t-52.5 -20t-50.5 -45.5t-32 -76q49 78 108 78h194q10 35 -26.5 52t-92.5 17z" glyph-name="egrave" horiz-adv-x="728" unicode="è"/><glyph d="M371 -6q-150 -1 -232.5 65.5t-49.5 190.5t151 190.5t268 65.5q147 -1 219 -66t39 -190q-1 -5 -2.5 -10t-2.5 -8.5t-3 -9.5h-463q-3 -33 33.5 -56t88.5 -23q64 0 91.5 9t47.5 46h196q-24 -53 -55.5 -90.5t-65 -59t-78.5 -34t-85.5 -16.5t-96.5 -4zM435 558l96 142h237 l-160 -142h-173zM478 369q-24 0 -48 -5.5t-52.5 -20t-50.5 -45.5t-32 -76q49 78 108 78h194q10 35 -26.5 52t-92.5 17z" glyph-name="eacute" horiz-adv-x="720" unicode="é"/><glyph d="M371 -6q-150 -1 -232.5 65.5t-49.5 190.5t151 190.5t268 65.5q147 -1 219 -66t39 -190q-1 -5 -2.5 -10t-2.5 -8.5t-3 -9.5h-463q-3 -33 33.5 -56t88.5 -23q64 0 91.5 9t47.5 46h196q-24 -53 -55.5 -90.5t-65 -59t-78.5 -34t-85.5 -16.5t-96.5 -4zM272 581l178 192h272 l75 -192h-203l-31 106l-89 -106h-202zM478 369q-24 0 -48 -5.5t-52.5 -20t-50.5 -45.5t-32 -76q49 78 108 78h194q10 35 -26.5 52t-92.5 17z" glyph-name="ecircumflex" horiz-adv-x="720" unicode="ê"/><glyph d="M371 -6q-150 -1 -232.5 65.5t-49.5 190.5t151 190.5t268 65.5q147 -1 219 -66t39 -190q-1 -5 -2.5 -10t-2.5 -8.5t-3 -9.5h-463q-3 -33 33.5 -56t88.5 -23q64 0 91.5 9t47.5 46h196q-24 -53 -55.5 -90.5t-65 -59t-78.5 -34t-85.5 -16.5t-96.5 -4zM508 540h-210l42 160 h211zM749 540h-210l43 160h210zM478 369q-24 0 -48 -5.5t-52.5 -20t-50.5 -45.5t-32 -76q49 78 108 78h194q10 35 -26.5 52t-92.5 17z" glyph-name="edieresis" horiz-adv-x="720" unicode="ë"/><glyph d="M30 0l134 500h210l-134 -500h-210zM363 700l20 -142h-173l-84 142h237z" glyph-name="igrave" unicode="ì"/><glyph d="M30 0l134 500h210l-134 -500h-210zM360 558h-173l96 142h236z" glyph-name="iacute" unicode="í"/><glyph d="M240 0h-210l134 500h210zM28 581l179 192h271l76 -192h-203l-31 106l-89 -106h-203z" glyph-name="icircumflex" unicode="î"/><glyph d="M240 0h-210l134 500h210zM52 540l43 160h210l-42 -160h-211zM504 540h-210l43 160h210z" glyph-name="idieresis" unicode="ï"/><glyph d="M386 -4q-73 0 -132.5 12.5t-104 39t-63 71t-4.5 103.5q24 105 131.5 166.5t229.5 61.5q98 0 161 -42t57 -121q5 45 5.5 76.5t-4.5 53.5t-9.5 32t-13.5 26q-3 5 -4 7l-113 -17l-22 93l60 9q-34 12 -67 12q-36 -2 -69 -19l-85 111q93 34 198 34q103 0 166 -23.5t99 -77.5 l60 8l24 -92l-55 -7q33 -99 6 -200q-43 -158 -162.5 -237.5t-288.5 -79.5zM300 225q-9 -35 26 -51.5t89 -16.5q60 0 128.5 25t93.5 67q19 32 10.5 53t-35.5 28t-60.5 9.5t-64.5 -2.5q-73 -7 -124.5 -38t-62.5 -74z" glyph-name="eth" horiz-adv-x="775" unicode="ð"/><glyph d="M30 0l134 500h210l-39 -143q-7 -31 -24 -68h2q24 53 32 66q47 74 117.5 113.5t128.5 39.5q120 0 158 -75t-6 -245l-50 -188h-210l50 189q15 54 -10.5 81.5t-71.5 27.5q-57 0 -101 -27.5t-60 -83.5l-50 -187h-210zM250 545q53 194 242 194q39 0 64 -14t41 -28.5t32 -15.5 q22 -1 37 18t20 40h152q-53 -198 -232 -198q-41 0 -67.5 14t-44 28t-36.5 15q-31 2 -53.5 -13.5t-28.5 -40.5z" glyph-name="ntilde" horiz-adv-x="723" unicode="ñ"/><glyph d="M373 -6q-97 0 -168 27t-104.5 86.5t-11.5 142.5t87.5 142.5t151 87t182.5 26.5q98 -1 168.5 -28t104 -86t10.5 -142q-22 -83 -87 -142.5t-150.5 -86.5t-182.5 -27zM299 250q-10 -41 23.5 -68t93.5 -27q58 0 107.5 27.5t59.5 67.5q11 40 -24 68.5t-92 28.5q-55 1 -106 -28 t-62 -69zM458 558l-84 142h237l19 -142h-172z" glyph-name="ograve" horiz-adv-x="748" unicode="ò"/><glyph d="M373 -6q-97 0 -168 27t-104.5 86.5t-11.5 142.5t87.5 142.5t151 87t182.5 26.5q98 -1 168.5 -28t104 -86t10.5 -142q-22 -83 -87 -142.5t-150.5 -86.5t-182.5 -27zM299 250q-10 -41 23.5 -68t93.5 -27q58 0 107.5 27.5t59.5 67.5q11 40 -24 68.5t-92 28.5q-55 1 -106 -28 t-62 -69zM437 558l96 142h237l-160 -142h-173z" glyph-name="oacute" horiz-adv-x="748" unicode="ó"/><glyph d="M373 -6q-97 0 -168 27t-104.5 86.5t-11.5 142.5t87.5 142.5t151 87t182.5 26.5q98 -1 168.5 -28t104 -86t10.5 -142q-22 -83 -87 -142.5t-150.5 -86.5t-182.5 -27zM470 581h-203l178 192h272l76 -192h-203l-31 106zM299 250q-10 -41 23.5 -68t93.5 -27q58 0 107.5 27.5 t59.5 67.5q11 40 -24 68.5t-92 28.5q-55 1 -106 -28t-62 -69z" glyph-name="ocircumflex" horiz-adv-x="748" unicode="ô"/><glyph d="M373 -6q-97 0 -168 27t-104.5 86.5t-11.5 142.5t87.5 142.5t151 87t182.5 26.5q98 -1 168.5 -28t104 -86t10.5 -142q-22 -83 -87 -142.5t-150.5 -86.5t-182.5 -27zM402 544l-126 1q53 194 242 194q39 0 64 -14t41 -28.5t32 -15.5q22 -1 37 18t20 40h152 q-53 -198 -232 -198q-41 0 -67.5 14t-44 28t-36.5 15q-31 2 -53.5 -13.5t-28.5 -40.5zM299 250q-10 -41 23.5 -68t93.5 -27q58 0 107.5 27.5t59.5 67.5q11 40 -24 68.5t-92 28.5q-55 1 -106 -28t-62 -69z" glyph-name="otilde" horiz-adv-x="748" unicode="õ"/><glyph d="M373 -6q-97 0 -168 27t-104.5 86.5t-11.5 142.5t87.5 142.5t151 87t182.5 26.5q98 -1 168.5 -28t104 -86t10.5 -142q-22 -83 -87 -142.5t-150.5 -86.5t-182.5 -27zM299 250q-10 -41 23.5 -68t93.5 -27q58 0 107.5 27.5t59.5 67.5q11 40 -24 68.5t-92 28.5q-55 1 -106 -28 t-62 -69zM537 540l43 160h210l-43 -160h-210zM506 540h-210l42 160h211z" glyph-name="odieresis" horiz-adv-x="748" unicode="ö"/><glyph d="M82 193l51 190h569l-51 -190h-569zM545 435h-235l51 190h235zM418 -41h-235l51 190h235z" glyph-name="divide" horiz-adv-x="655" unicode="÷"/><glyph d="M140 59q-84 69 -51 191q22 83 87.5 142.5t151 87t182.5 26.5q30 0 59 -3l25 25h235l-85 -89q82 -69 49 -189q-22 -83 -87 -142.5t-150.5 -86.5t-182.5 -27q-30 0 -57 3l-35 -36h-235zM298 222l114 117q-41 -11 -73 -35.5t-40 -53.5q-3 -17 -1 -28zM585 275l-109 -112 q40 11 69.5 34.5t37.5 52.5q3 15 2 25z" glyph-name="oslash" horiz-adv-x="748" unicode="ø"/><glyph d="M268 0q-120 0 -158 75t6 245l50 188h210l-50 -188q-15 -55 10.5 -82.5t71.5 -27.5q57 0 101.5 27.5t59.5 83.5l50 187h210l-134 -500h-210l39 143q7 31 24 68h-2q-24 -53 -32 -66q-47 -74 -117.5 -113.5t-128.5 -39.5zM436 558l-84 142h237l20 -142h-173z" glyph-name="ugrave" horiz-adv-x="723" unicode="ù"/><glyph d="M268 0q-120 0 -158 75t6 245l50 188h210l-50 -188q-15 -55 10.5 -82.5t71.5 -27.5q57 0 101.5 27.5t59.5 83.5l50 187h210l-134 -500h-210l39 143q7 31 24 68h-2q-24 -53 -32 -66q-47 -74 -117.5 -113.5t-128.5 -39.5zM589 558h-173l96 142h236z" glyph-name="uacute" horiz-adv-x="723" unicode="ú"/><glyph d="M268 0q-120 0 -158 75t6 245l50 188h210l-50 -188q-15 -55 10.5 -82.5t71.5 -27.5q57 0 101.5 27.5t59.5 83.5l50 187h210l-134 -500h-210l39 143q7 31 24 68h-2q-24 -53 -32 -66q-47 -74 -117.5 -113.5t-128.5 -39.5zM270 581l179 192h271l76 -192h-203l-31 106 l-89 -106h-203z" glyph-name="ucircumflex" horiz-adv-x="723" unicode="û"/><glyph d="M268 0q-120 0 -158 75t6 245l50 188h210l-50 -188q-15 -55 10.5 -82.5t71.5 -27.5q57 0 101.5 27.5t59.5 83.5l50 187h210l-134 -500h-210l39 143q7 31 24 68h-2q-24 -53 -32 -66q-47 -74 -117.5 -113.5t-128.5 -39.5zM311 540l43 160h210l-42 -160h-211zM763 540h-210 l43 160h210z" glyph-name="udieresis" horiz-adv-x="723" unicode="ü"/><glyph d="M219 -200h-243l39 145h111q117 0 131 20l17 25l-108 510h233l47 -230q7 -30 -4 -73h2q11 41 35 73l168 230h231l-419 -571q-88 -129 -240 -129zM428 558l96 142h237l-160 -142h-173z" glyph-name="yacute" horiz-adv-x="774" unicode="ý"/><glyph d="M-21 -200l239 900h210l-67 -249q-10 -35 -32 -68l2 -1q27 39 50 55q102 71 251 69q104 -1 159.5 -71t24.5 -185q-31 -118 -123 -187t-198 -69q-135 0 -206 64q-21 19 -34 65h-2q10 -37 0 -74l-66 -249h-208zM307 250q-17 -64 17 -99t98 -35q65 0 115.5 35.5t67.5 98.5 q17 65 -16 100t-95 36q-64 0 -117 -35.5t-70 -100.5z" glyph-name="thorn" horiz-adv-x="779" unicode="þ"/><glyph d="M219 -200h-243l39 145h111q117 0 131 20l17 25l-108 510h233l47 -230q7 -30 -4 -73h2q11 41 35 73l168 230h231l-419 -571q-88 -129 -240 -129zM761 540h-210l43 160h210zM310 540l43 160h210l-43 -160h-210z" glyph-name="ydieresis" horiz-adv-x="774" unicode="ÿ"/><glyph d="M22 0l452 700h259l77 -700h-225l-20 108h-243l-72 -108h-228zM885 800h-500l32 119h500zM532 447l-112 -172h20h17.5h14.5h13t10 -0.5t9 -1.5t7.5 -2t7 -2t6 -3t6.5 -4q9 -7 14.5 -28.5t10 -50t8.5 -41.5z" glyph-name="Amacron" horiz-adv-x="832" unicode="Ā"/><glyph d="M468 134q-32 -65 -99.5 -99t-142.5 -34q-82 0 -132.5 38.5t-33.5 102.5q16 61 68 96.5t114.5 44t123 10.5t104 6t47.5 20q5 18 -21 28.5t-74 10.5q-55 0 -88.5 -8.5t-39.5 -36.5h-188q25 90 131 140.5t223 49.5q50 0 92.5 -6t81 -20t61 -36.5t33 -55.5t-3.5 -78l-22 -84 q-5 -19 2 -26t28 -7h31l-51 -190h-156q-48 0 -77.5 31.5t-18.5 71.5zM264 600l32 119h500l-32 -119h-500zM281 149q-5 -18 10 -27t42 -9q45 0 92.5 19t53.5 45l11 40q-15 -15 -64.5 -18.5t-93 -12t-51.5 -37.5z" glyph-name="amacron" horiz-adv-x="734" unicode="ā"/><glyph d="M22 0l452 700h259l77 -700h-225l-20 108h-243l-72 -108h-228zM621 760q-50 0 -85 13t-53 33t-25 47.5t-5.5 54t9.5 55.5h156q-23 -83 36 -83t79 83h157q-10 -37 -28.5 -70t-49.5 -64.5t-80 -50t-111 -18.5zM420 275h20h17.5h14.5h13t10 -0.5t9 -1.5t7.5 -2t7 -2t6 -3 t6.5 -4q9 -7 14.5 -28.5t10 -50t8.5 -41.5l-32 305z" glyph-name="Abreve" horiz-adv-x="832" unicode="Ă"/><glyph d="M468 134q-32 -65 -99.5 -99t-142.5 -34q-82 0 -132.5 38.5t-33.5 102.5q16 61 68 96.5t114.5 44t123 10.5t104 6t47.5 20q5 18 -21 28.5t-74 10.5q-55 0 -88.5 -8.5t-39.5 -36.5h-188q25 90 131 140.5t223 49.5q50 0 92.5 -6t81 -20t61 -36.5t33 -55.5t-3.5 -78l-22 -84 q-5 -19 2 -26t28 -7h31l-51 -190h-156q-48 0 -77.5 31.5t-18.5 71.5zM482 559q-50 0 -85 13t-53 33t-25 47.5t-5.5 54t9.5 55.5h156q-23 -83 35 -83q57 0 80 83h156q-10 -37 -28.5 -70t-49 -64.5t-79.5 -50t-111 -18.5zM281 149q-5 -18 10 -27t42 -9q45 0 92.5 19t53.5 45 l11 40q-15 -15 -64.5 -18.5t-93 -12t-51.5 -37.5z" glyph-name="abreve" horiz-adv-x="734" unicode="ă"/><glyph d="M22 0l452 700h259l77 -700h-43q-68 -59 -71 -110q0 -32 27 -33q22 0 56 25l58 -51q-32 -39 -83 -60.5t-102 -21.5q-35 0 -62 10t-40.5 31t-10.5 50t33.5 71t87.5 89h-75l-20 108h-243l-72 -108h-228zM420 275h20h17.5h14.5h13t10 -0.5t9 -1.5t7.5 -2t7 -2t6 -3t6.5 -4 q9 -7 14.5 -28.5t10 -50t8.5 -41.5l-32 305z" glyph-name="Aogonek" horiz-adv-x="832" unicode="Ą"/><glyph d="M468 134q-32 -65 -99.5 -99t-142.5 -34q-82 0 -132.5 38.5t-33.5 102.5q16 61 68 96.5t114.5 44t123 10.5t104 6t47.5 20q5 18 -21 28.5t-74 10.5q-55 0 -88.5 -8.5t-39.5 -36.5h-188q25 90 131 140.5t223 49.5q50 0 92.5 -6t81 -20t61 -36.5t33 -55.5t-3.5 -78l-22 -84 q-5 -19 2 -26t28 -7h31l-51 -190h-15q-67 -59 -68 -108q0 -31 27 -32q22 0 56 25l58 -51q-32 -39 -83 -60.5t-102 -21.5q-35 0 -62 10t-40.5 30.5t-10.5 49t32.5 70t85.5 88.5h-34q-48 0 -77.5 31.5t-18.5 71.5zM281 149q-5 -18 10 -27t42 -9q45 0 92.5 19t53.5 45l11 40 q-15 -15 -64.5 -18.5t-93 -12t-51.5 -37.5z" glyph-name="aogonek" horiz-adv-x="734" unicode="ą"/><glyph d="M116 350q32 118 105 200t168.5 120t206.5 37q141 -2 224.5 -64t83.5 -182l-219 -44q-5 29 -43.5 54.5t-103.5 25.5q-86 0 -140.5 -41.5t-71.5 -104.5q-17 -66 19.5 -107t113.5 -41q71 0 121.5 25.5t69.5 55.5l194 -45q-64 -120 -181 -182t-258 -64q-172 -2 -254 89.5 t-35 267.5zM510 758l96 142h237l-160 -142h-173z" glyph-name="Cacute" horiz-adv-x="802" unicode="Ć"/><glyph d="M89 250q22 83 86.5 142.5t149 87t181.5 26.5q56 0 107.5 -15t92 -43t57.5 -74.5t2 -103.5h-194q-1 31 -27 56t-80 25q-68 0 -110.5 -28t-54.5 -73q-12 -41 16.5 -71t95.5 -28q102 3 148 74h194q-20 -74 -86 -128t-143.5 -78t-154.5 -25q-97 -1 -167 26.5t-102.5 87 t-10.5 142.5zM593 558h-173l96 142h237z" glyph-name="cacute" horiz-adv-x="715" unicode="ć"/><glyph d="M116 350q32 118 105 200t168.5 120t206.5 37q141 -2 224.5 -64t83.5 -182l-219 -44q-5 29 -43.5 54.5t-103.5 25.5q-86 0 -140.5 -41.5t-71.5 -104.5q-17 -66 19.5 -107t113.5 -41q71 0 121.5 25.5t69.5 55.5l194 -45q-64 -120 -181 -182t-258 -64q-172 -2 -254 89.5 t-35 267.5zM353 781l178 192h272l75 -192h-203l-31 106l-88 -106h-203z" glyph-name="Ccircumflex" horiz-adv-x="802" unicode="Ĉ"/><glyph d="M89 250q22 83 86.5 142.5t149 87t181.5 26.5q56 0 107.5 -15t92 -43t57.5 -74.5t2 -103.5h-194q-1 31 -27 56t-80 25q-68 0 -110.5 -28t-54.5 -73q-12 -41 16.5 -71t95.5 -28q102 3 148 74h194q-20 -74 -86 -128t-143.5 -78t-154.5 -25q-97 -1 -167 26.5t-102.5 87 t-10.5 142.5zM268 581l178 192h272l75 -192h-202l-32 106l-88 -106h-203z" glyph-name="ccircumflex" horiz-adv-x="715" unicode="ĉ"/><glyph d="M116 350q32 118 105 200t168.5 120t206.5 37q141 -2 224.5 -64t83.5 -182l-219 -44q-5 29 -43.5 54.5t-103.5 25.5q-86 0 -140.5 -41.5t-71.5 -104.5q-17 -66 19.5 -107t113.5 -41q71 0 121.5 25.5t69.5 55.5l194 -45q-64 -120 -181 -182t-258 -64q-172 -2 -254 89.5 t-35 267.5zM500 740l43 160h210l-43 -160h-210z" glyph-name="Cdotaccent" horiz-adv-x="802" unicode="Ċ"/><glyph d="M89 250q22 83 86.5 142.5t149 87t181.5 26.5q56 0 107.5 -15t92 -43t57.5 -74.5t2 -103.5h-194q-1 31 -27 56t-80 25q-68 0 -110.5 -28t-54.5 -73q-12 -41 16.5 -71t95.5 -28q102 3 148 74h194q-20 -74 -86 -128t-143.5 -78t-154.5 -25q-97 -1 -167 26.5t-102.5 87 t-10.5 142.5zM621 540h-210l43 160h210z" glyph-name="cdotaccent" horiz-adv-x="715" unicode="ċ"/><glyph d="M116 350q32 118 105 200t168.5 120t206.5 37q141 -2 224.5 -64t83.5 -182l-219 -44q-5 29 -43.5 54.5t-103.5 25.5q-86 0 -140.5 -41.5t-71.5 -104.5q-17 -66 19.5 -107t113.5 -41q71 0 121.5 25.5t69.5 55.5l194 -45q-64 -120 -181 -182t-258 -64q-172 -2 -254 89.5 t-35 267.5zM406 973h203l32 -106l88 106h203l-178 -192h-272z" glyph-name="Ccaron" horiz-adv-x="802" unicode="Č"/><glyph d="M89 250q22 83 86.5 142.5t149 87t181.5 26.5q56 0 107.5 -15t92 -43t57.5 -74.5t2 -103.5h-194q-1 31 -27 56t-80 25q-68 0 -110.5 -28t-54.5 -73q-12 -41 16.5 -71t95.5 -28q102 3 148 74h194q-20 -74 -86 -128t-143.5 -78t-154.5 -25q-97 -1 -167 26.5t-102.5 87 t-10.5 142.5zM318 773h202l32 -106l88 106h203l-178 -192h-272z" glyph-name="ccaron" horiz-adv-x="715" unicode="č"/><glyph d="M28 0l187 700h390q100 0 168.5 -38t97 -115.5t-3.5 -196.5q-31 -115 -101.5 -195.5t-159.5 -117.5t-189 -37h-389zM573 510h-310q22 0 35.5 -0.5t33.5 -3.5t28.5 -10.5t5.5 -19.5q-7 -26 -76 -286h198q39 0 94 44t74 116q19 70 -13 115t-70 45zM304 973h203l32 -106 l88 106h203l-178 -192h-272z" glyph-name="Dcaron" horiz-adv-x="800" unicode="Ď"/><glyph d="M316 -6q-287 0 -219 256q68 254 356 256q50 0 94 -21.5t67 -57.5q13 -19 15 -66h2q-2 40 7 74l71 265h210l-188 -700h-209l16 61q9 36 32 74h-1q-30 -48 -52 -66q-40 -35 -95.5 -55t-105.5 -20zM305 250q-10 -38 10.5 -66.5t90.5 -28.5q76 0 124 29t58 66q11 39 -20 74 t-107 34q-72 -1 -108.5 -34t-47.5 -74z" glyph-name="dcaron" horiz-adv-x="704" unicode="ď"/><glyph d="M86 239l56 210h114l67 251h390q100 0 168.5 -38t97 -115.5t-3.5 -196.5q-31 -115 -101.5 -195.5t-159.5 -117.5t-189 -37h-390l64 239h-113zM589 239h-179q-2 -9 -6.5 -25.5t-6.5 -23.5h198q39 0 94 43.5t75 116.5q19 70 -13 115t-70 45h-311q22 0 35.5 -0.5t34 -3.5 t29 -10.5t5.5 -19.5q-1 -3 -7 -27h178z" glyph-name="Dcroat" horiz-adv-x="903" unicode="Đ"/><glyph d="M316 -6q-287 0 -219 256q68 254 356 256q50 0 94 -21.5t67 -57.5q13 -19 15 -66h2q-2 40 7 74l22 82h-150l37 137h150l12 46h210l-13 -46h93l-36 -137h-93l-139 -517h-209l16 61q9 36 32 74h-1q-30 -48 -52 -66q-40 -35 -95.5 -55t-105.5 -20zM305 250 q-10 -38 10.5 -66.5t90.5 -28.5q76 0 124 29t58 66q11 39 -20 74t-107 34q-72 -1 -108.5 -34t-47.5 -74z" glyph-name="dcroat" horiz-adv-x="753" unicode="đ"/><glyph d="M917 700l-51 -190h-489l-24 -88h438l-41 -155h-438l-21 -77h490l-51 -190h-700l188 700h699zM340 800l32 119h500l-32 -119h-500z" glyph-name="Emacron" horiz-adv-x="760" unicode="Ē"/><glyph d="M371 -6q-150 -1 -232.5 65.5t-49.5 190.5t151 190.5t268 65.5q147 -1 219 -66t39 -190q-1 -5 -2.5 -10t-2.5 -8.5t-3 -9.5h-463q-3 -33 33.5 -56t88.5 -23q64 0 91.5 9t47.5 46h196q-24 -53 -55.5 -90.5t-65 -59t-78.5 -34t-85.5 -16.5t-96.5 -4zM788 600h-500l32 119 h500zM478 369q-24 0 -48 -5.5t-52.5 -20t-50.5 -45.5t-32 -76q49 78 108 78h194q10 35 -26.5 52t-92.5 17z" glyph-name="emacron" horiz-adv-x="720" unicode="ē"/><glyph d="M30 0l188 700h699l-51 -190h-489l-24 -88h438l-41 -155h-438l-21 -77h490l-51 -190h-700zM594 759q-50 0 -85 13t-52.5 33t-25 48t-6 54.5t9.5 55.5h156q-4 -18 -5.5 -27t-0.5 -25t11.5 -23.5t30.5 -7.5q58 0 80 83h156q-10 -37 -28.5 -70t-49.5 -64.5t-80 -50.5 t-111 -19z" glyph-name="Ebreve" horiz-adv-x="760" unicode="Ĕ"/><glyph d="M371 -6q-150 -1 -232.5 65.5t-49.5 190.5t151 190.5t268 65.5q147 -1 219 -66t39 -190q-1 -5 -2.5 -10t-2.5 -8.5t-3 -9.5h-463q-3 -33 33.5 -56t88.5 -23q64 0 91.5 9t47.5 46h196q-24 -53 -55.5 -90.5t-65 -59t-78.5 -34t-85.5 -16.5t-96.5 -4zM524 558 q-62 0 -101.5 19.5t-52 49.5t-15 66t9.5 69h156q-4 -16 -5.5 -26.5t-1 -25.5t11 -23t30.5 -8q58 0 80 83h156q-10 -37 -28.5 -70t-49 -65t-79.5 -50.5t-111 -18.5zM295 222q49 78 108 78h194q10 35 -26.5 52t-92.5 17q-24 0 -48 -5.5t-52.5 -20t-50.5 -45.5t-32 -76z" glyph-name="ebreve" horiz-adv-x="720" unicode="ĕ"/><glyph d="M917 700l-51 -190h-489l-24 -88h438l-41 -155h-438l-21 -77h490l-51 -190h-700l188 700h699zM690 740h-210l43 160h210z" glyph-name="Edotaccent" horiz-adv-x="760" unicode="Ė"/><glyph d="M371 -6q-150 -1 -232.5 65.5t-49.5 190.5t151 190.5t268 65.5q147 -1 219 -66t39 -190q-1 -5 -2.5 -10t-2.5 -8.5t-3 -9.5h-463q-3 -33 33.5 -56t88.5 -23q64 0 91.5 9t47.5 46h196q-24 -53 -55.5 -90.5t-65 -59t-78.5 -34t-85.5 -16.5t-96.5 -4zM414 540l43 160h210 l-43 -160h-210zM478 369q-24 0 -48 -5.5t-52.5 -20t-50.5 -45.5t-32 -76q49 78 108 78h194q10 35 -26.5 52t-92.5 17z" glyph-name="edotaccent" horiz-adv-x="720" unicode="ė"/><glyph d="M381 0h-351l188 700h699l-51 -190h-489l-24 -88h438l-41 -155h-438l-21 -77h490l-51 -190h-242q-68 -58 -72 -109q1 -32 28 -34q22 0 56 25l57 -51q-32 -40 -82.5 -61t-101.5 -21q-35 0 -62 10t-40.5 31t-10.5 50t33.5 71t87.5 89z" glyph-name="Eogonek" horiz-adv-x="760" unicode="Ę"/><glyph d="M506 -143q-32 -39 -83 -60.5t-101 -21.5q-42 0 -71 14.5t-40.5 41.5t9.5 71t77 96q-118 15 -177.5 79.5t-30.5 172.5q33 124 151 190.5t268 65.5q147 -1 219 -66t39 -190q-1 -5 -2.5 -10t-2.5 -8.5t-3 -9.5h-463q-3 -33 33.5 -56t88.5 -23q64 0 91.5 9t47.5 46h196 q-28 -61 -64 -102t-82.5 -62t-92.5 -29t-109 -10q-25 -29 -34.5 -55t-3 -41t25.5 -15q22 0 56 25zM478 369q-24 0 -48 -5.5t-52.5 -20t-50.5 -45.5t-32 -76q49 78 108 78h194q10 35 -26.5 52t-92.5 17z" glyph-name="eogonek" horiz-adv-x="720" unicode="ę"/><glyph d="M730 0h-700l188 700h699l-51 -190h-489l-24 -88h438l-41 -155h-438l-21 -77h490zM478 781l-76 192h203l32 -106l88 106h203l-179 -192h-271z" glyph-name="Ecaron" horiz-adv-x="760" unicode="Ě"/><glyph d="M371 -6q-150 -1 -232.5 65.5t-49.5 190.5t151 190.5t268 65.5q147 -1 219 -66t39 -190q-1 -5 -2.5 -10t-2.5 -8.5t-3 -9.5h-463q-3 -33 33.5 -56t88.5 -23q64 0 91.5 9t47.5 46h196q-24 -53 -55.5 -90.5t-65 -59t-78.5 -34t-85.5 -16.5t-96.5 -4zM321 773h203l32 -106 l88 106h203l-178 -192h-272zM478 369q-24 0 -48 -5.5t-52.5 -20t-50.5 -45.5t-32 -76q49 78 108 78h194q10 35 -26.5 52t-92.5 17z" glyph-name="ecaron" horiz-adv-x="720" unicode="ě"/><glyph d="M389 -7q-171 0 -245.5 90.5t-27.5 266.5q32 118 106 200t170.5 120t209.5 37q143 -2 228 -64t85 -182l-207 -50q-13 55 -56 80.5t-101 25.5q-78 0 -140 -41.5t-85 -125.5q-21 -80 17.5 -123.5t119.5 -43.5q61 0 114 53h-86l39 145h297q78 0 59 -69q-2 -7 -15 -57 t-33.5 -125.5t-34.5 -129.5h-205l63 236h-3q-31 -104 -66 -156t-79.5 -69.5t-123.5 -17.5zM543 781h-203l178 192h272l76 -192h-203l-31 106z" glyph-name="Gcircumflex" horiz-adv-x="825" unicode="Ĝ"/><glyph d="M-10 -37q15 55 48.5 85t100.5 55q-40 9 -49.5 24t-3.5 36q11 42 107 65q0 1 -4 6.5t-9 14.5t-10 22t-6.5 27.5t2.5 31.5q15 56 71.5 96t124.5 56.5t139 16.5q39 0 106 -10q-19 58 47.5 93t216.5 30l-35 -130h-76q-29 0 -54.5 -6.5t-12.5 -19.5l3 -3q4 -3 7 -6t8 -8.5 t9.5 -12t9 -14t7 -16.5t4.5 -18.5t1 -21t-4 -23.5q-22 -81 -121 -124.5t-210 -43.5q-34 0 -61 3l-10 2t-8 2t-4 1q-12 2 -15 -7q-1 -4 9 -6q5 -1 112 -4q229 -6 278 -89q25 -42 8 -104q-19 -72 -131 -117.5t-266 -45.5q-149 0 -248.5 46.5t-80.5 116.5zM492 642h-203 l178 192h272l75 -192h-202l-32 107zM353 -81q64 0 107 16t50 44q7 25 -26 40.5t-94 20.5q-14 1 -41 1q-47 0 -91 -18.5t-51 -43.5q-8 -26 33 -43t113 -17zM441 291q77 0 87 41q6 21 -13.5 30.5t-50.5 9.5q-76 0 -88 -41q-5 -21 15 -30.5t50 -9.5z" glyph-name="gcircumflex" horiz-adv-x="748" unicode="ĝ"/><glyph d="M389 -7q-171 0 -245.5 90.5t-27.5 266.5q32 118 106 200t170.5 120t209.5 37q143 -2 228 -64t85 -182l-207 -50q-13 55 -56 80.5t-101 25.5q-78 0 -140 -41.5t-85 -125.5q-21 -80 17.5 -123.5t119.5 -43.5q61 0 114 53h-86l39 145h297q78 0 59 -69q-2 -7 -15 -57 t-33.5 -125.5t-34.5 -129.5h-205l63 236h-3q-31 -104 -66 -156t-79.5 -69.5t-123.5 -17.5zM631 759q-50 0 -85 13t-53 33t-25 47.5t-5.5 54t9.5 55.5h156q-23 -83 35 -83q57 0 80 83h156q-10 -37 -28 -70t-49 -64.5t-80 -50t-111 -18.5z" glyph-name="Gbreve" horiz-adv-x="825" unicode="Ğ"/><glyph d="M-10 -37q15 55 48.5 85t100.5 55q-40 9 -49.5 24t-3.5 36q11 42 107 65q0 1 -4 6.5t-9 14.5t-10 22t-6.5 27.5t2.5 31.5q15 56 71.5 96t124.5 56.5t139 16.5q39 0 106 -10q-19 58 47.5 93t216.5 30l-35 -130h-76q-29 0 -54.5 -6.5t-12.5 -19.5l3 -3q4 -3 7 -6t8 -8.5 t9.5 -12t9 -14t7 -16.5t4.5 -18.5t1 -21t-4 -23.5q-22 -81 -121 -124.5t-210 -43.5q-34 0 -61 3l-10 2t-8 2t-4 1q-12 2 -15 -7q-1 -4 9 -6q5 -1 112 -4q229 -6 278 -89q25 -42 8 -104q-19 -72 -131 -117.5t-266 -45.5q-149 0 -248.5 46.5t-80.5 116.5zM360 808h156 q-23 -83 36 -83t79 83h156q-10 -37 -28 -70t-49 -64.5t-80 -50.5t-111 -19t-101.5 19.5t-52 49.5t-15 66t9.5 69zM353 -81q64 0 107 16t50 44q7 25 -26 40.5t-94 20.5q-14 1 -41 1q-47 0 -91 -18.5t-51 -43.5q-8 -26 33 -43t113 -17zM441 291q77 0 87 41q6 21 -13.5 30.5 t-50.5 9.5q-76 0 -88 -41q-5 -21 15 -30.5t50 -9.5z" glyph-name="gbreve" horiz-adv-x="748" unicode="ğ"/><glyph d="M389 -7q-171 0 -245.5 90.5t-27.5 266.5q32 118 106 200t170.5 120t209.5 37q143 -2 228 -64t85 -182l-207 -50q-13 55 -56 80.5t-101 25.5q-78 0 -140 -41.5t-85 -125.5q-21 -80 17.5 -123.5t119.5 -43.5q61 0 114 53h-86l39 145h297q78 0 59 -69q-2 -7 -15 -57 t-33.5 -125.5t-34.5 -129.5h-205l63 236h-3q-31 -104 -66 -156t-79.5 -69.5t-123.5 -17.5zM502 740l43 160h210l-43 -160h-210z" glyph-name="Gdotaccent" horiz-adv-x="825" unicode="Ġ"/><glyph d="M-10 -37q15 55 48.5 85t100.5 55q-40 9 -49.5 24t-3.5 36q11 42 107 65q0 1 -4 6.5t-9 14.5t-10 22t-6.5 27.5t2.5 31.5q15 56 71.5 96t124.5 56.5t139 16.5q39 0 106 -10q-19 58 47.5 93t216.5 30l-35 -130h-76q-29 0 -54.5 -6.5t-12.5 -19.5l3 -3q4 -3 7 -6t8 -8.5 t9.5 -12t9 -14t7 -16.5t4.5 -18.5t1 -21t-4 -23.5q-22 -81 -121 -124.5t-210 -43.5q-34 0 -61 3l-10 2t-8 2t-4 1q-12 2 -15 -7q-1 -4 9 -6q5 -1 112 -4q229 -6 278 -89q25 -42 8 -104q-19 -72 -131 -117.5t-266 -45.5q-149 0 -248.5 46.5t-80.5 116.5zM436 634l43 160h210 l-43 -160h-210zM353 -81q64 0 107 16t50 44q7 25 -26 40.5t-94 20.5q-14 1 -41 1q-47 0 -91 -18.5t-51 -43.5q-8 -26 33 -43t113 -17zM441 291q77 0 87 41q6 21 -13.5 30.5t-50.5 9.5q-76 0 -88 -41q-5 -21 15 -30.5t50 -9.5z" glyph-name="gdotaccent" horiz-adv-x="748" unicode="ġ"/><glyph d="M389 -7q-171 0 -245.5 90.5t-27.5 266.5q32 118 106 200t170.5 120t209.5 37q143 -2 228 -64t85 -182l-207 -50q-13 55 -56 80.5t-101 25.5q-78 0 -140 -41.5t-85 -125.5q-21 -80 17.5 -123.5t119.5 -43.5q61 0 114 53h-86l39 145h297q78 0 59 -69q-2 -7 -15 -57 t-33.5 -125.5t-34.5 -129.5h-205l63 236h-3q-31 -104 -66 -156t-79.5 -69.5t-123.5 -17.5zM340 -192h-132l96 142h151z" glyph-name="uni0122" horiz-adv-x="825" unicode="Ģ"/><glyph d="M-10 -37q15 55 48.5 85t100.5 55q-40 9 -49.5 24t-3.5 36q11 42 107 65q0 1 -4 6.5t-9 14.5t-10 22t-6.5 27.5t2.5 31.5q15 56 71.5 96t124.5 56.5t139 16.5q39 0 106 -10q-19 58 47.5 93t216.5 30l-35 -130h-76q-29 0 -54.5 -6.5t-12.5 -19.5l3 -3q4 -3 7 -6t8 -8.5 t9.5 -12t9 -14t7 -16.5t4.5 -18.5t1 -21t-4 -23.5q-22 -81 -121 -124.5t-210 -43.5q-34 0 -61 3l-10 2t-8 2t-4 1q-12 2 -15 -7q-1 -4 9 -6q5 -1 112 -4q229 -6 278 -89q25 -42 8 -104q-19 -72 -131 -117.5t-266 -45.5q-149 0 -248.5 46.5t-80.5 116.5zM401 567l72 269 l22 47h218l-167 -316h-145zM353 -81q64 0 107 16t50 44q7 25 -26 40.5t-94 20.5q-14 1 -41 1q-47 0 -91 -18.5t-51 -43.5q-8 -26 33 -43t113 -17zM441 291q77 0 87 41q6 21 -13.5 30.5t-50.5 9.5q-76 0 -88 -41q-5 -21 15 -30.5t50 -9.5z" glyph-name="uni0123" horiz-adv-x="748" unicode="ģ"/><glyph d="M240 0h-210l188 700h209l-65 -245h320l65 245h211l-188 -700h-210l66 245h-321zM555 781h-202l178 192h272l75 -192h-203l-31 106z" glyph-name="Hcircumflex" horiz-adv-x="800" unicode="Ĥ"/><glyph d="M241 0h-210l188 700h209l-77 -287q-9 -36 -30 -74l2 -1q28 50 45 70q93 100 249 100q46 0 84 -14.5t69 -48.5t36.5 -90.5t-13.5 -140.5l-57 -214h-210l57 214q13 48 -15.5 81.5t-91.5 33.5q-60 0 -114 -39t-71 -103zM82 761l179 192h271l76 -192h-203l-31 107l-89 -107 h-203z" glyph-name="hcircumflex" horiz-adv-x="766" unicode="ĥ"/><glyph d="M198 627l20 73h209l-19 -73h320l19 73h211l-20 -73h62l-37 -138h-62l-131 -489h-210l66 245h-321l-65 -245h-210l131 489h-71l37 138h71zM691 489h-320l-9 -34h320z" glyph-name="Hbar" horiz-adv-x="800" unicode="Ħ"/><glyph d="M207 657l12 43h209l-11 -43h147l-36 -137h-148l-29 -107q-9 -36 -30 -74l2 -1q28 50 45 70q93 100 249 100q46 0 84 -14.5t69 -48.5t36.5 -90.5t-13.5 -140.5l-57 -214h-210l57 214q13 48 -15.5 81.5t-91.5 33.5q-60 0 -114 -39t-71 -103l-50 -187h-210l139 520h-95 l37 137h95z" glyph-name="hbar" horiz-adv-x="766" unicode="ħ"/><glyph d="M30 0l188 700h209l-187 -700h-210zM210 744l-125 1q52 194 242 194q30 0 53 -9t33.5 -19.5t23.5 -19.5t26 -10q23 -1 37 17.5t21 40.5h152q-53 -198 -232 -198q-33 0 -57 8.5t-35 19t-26 19.5t-31 10q-30 2 -52.5 -13.5t-29.5 -40.5z" glyph-name="Itilde" unicode="Ĩ"/><glyph d="M240 0h-210l134 500h210zM155 546l-126 2q53 194 243 194q38 0 63 -14t41 -28.5t32 -15.5q22 -1 37 18t20 40h152q-53 -198 -231 -198q-42 0 -68.5 13.5t-44 28t-36.5 15.5q-31 1 -53 -14.5t-29 -40.5z" glyph-name="itilde" unicode="ĩ"/><glyph d="M30 0l188 700h209l-187 -700h-210zM130 787l37 137h452l-36 -137h-453z" glyph-name="Imacron" unicode="Ī"/><glyph d="M30 0l134 500h210l-134 -500h-210zM49 600l32 119h500l-32 -119h-500z" glyph-name="imacron" horiz-adv-x="113" unicode="ī"/><glyph d="M80 0h-50l188 700h209l-187 -700h-53q-68 -59 -69 -109q0 -30 27 -31q24 0 56 24l58 -51q-32 -39 -83 -60.5t-102 -21.5q-35 0 -62 10t-40.5 31t-10.5 49.5t33 70t86 88.5z" glyph-name="Iogonek" unicode="Į"/><glyph d="M32 0l134 500h206l-134 -500h-206zM89 -1h107q-68 -58 -71 -109q-1 -32 27 -33q22 0 56 25l58 -52q-32 -39 -83 -60.5t-102 -21.5q-35 0 -62 10t-40.5 31t-10.5 50t33.5 71t87.5 89zM383 536h-209l44 164h209z" glyph-name="iogonek" unicode="į"/><glyph d="M30 0l188 700h209l-187 -700h-210zM438 740h-210l43 160h210z" glyph-name="Idotaccent" unicode="İ"/><glyph d="M30 0l134 500h210l-134 -500h-210z" glyph-name="dotlessi" unicode="ı"/><glyph d="M-32 -230l43 160h117q83 0 130.5 22.5t61.5 77.5l180 670h210l-187 -700q-30 -111 -108.5 -170.5t-172.5 -59.5h-274zM240 0h-210l188 700h210z" glyph-name="IJ" horiz-adv-x="602" unicode="Ĳ"/><glyph d="M100 -200h-22l39 145h22q52 0 81 22t44 78l122 455h210l-121 -455q-38 -138 -122 -191.5t-253 -53.5zM238 0h-206l134 500h206zM396 536l44 164h210l-44 -164h-210zM383 536h-209l44 164h209z" glyph-name="ij" horiz-adv-x="492" unicode="ĳ"/><glyph d="M394 -7q-42 0 -81 5t-79 17t-68.5 32t-50.5 50t-24 71.5t10 95.5l212 51q-13 -52 17.5 -92t114.5 -40q67 0 131.5 54t92.5 160l81 303h210l-84 -314q-106 -393 -482 -393zM819 781h-203l178 192h272l75 -192h-202l-32 106z" glyph-name="Jcircumflex" horiz-adv-x="802" unicode="Ĵ"/><glyph d="M-63 -200h-22l39 145h22q52 0 81 22t44 78l122 455h210l-121 -455q-38 -138 -122 -191.5t-253 -53.5zM83 536l179 192h271l76 -192h-526z" glyph-name="jcircumflex" horiz-adv-x="329" unicode="ĵ"/><glyph d="M240 0h-210l188 700h210l-69 -259q-13 -42 -36 -76h2q25 40 57 67l303 268h275l-396 -350l208 -350h-279l-175 293zM302 -192h-132l96 142h151z" glyph-name="uni0136" horiz-adv-x="802" unicode="Ķ"/><glyph d="M30 0l188 700h212l-82 -292q-10 -37 -37 -71l1 -1q29 37 62 56l178 108h308l-315 -192l196 -307h-102v-1l-1 1h-163l-120 187l-74 -45l-39 -143h-212zM133 -183l96 142h151l-115 -142h-132z" glyph-name="uni0137" horiz-adv-x="771" unicode="ķ"/><glyph d="M30 0l135 503h151l-58 -214l243 214h197l-284 -252l149 -251h-200l-97 145l-59 -47l-26 -98h-151z" glyph-name="kgreenlandic" horiz-adv-x="593" unicode="ĸ"/><glyph d="M30 0l188 700h210l-127 -472q-9 -36 -44 -64l1 -1q34 27 71 27h392l-51 -190h-640zM243 758l96 142h237l-160 -142h-173z" glyph-name="Lacute" horiz-adv-x="700" unicode="Ĺ"/><glyph d="M35 0l201 750h210l-201 -750h-210zM426 783h-173l96 142h236z" glyph-name="lacute" horiz-adv-x="280" unicode="ĺ"/><glyph d="M670 0h-640l188 700h210l-127 -472q-9 -36 -44 -64l1 -1q34 27 71 27h392zM179 -190l96 142h151l-115 -142h-132z" glyph-name="uni013B" horiz-adv-x="700" unicode="Ļ"/><glyph d="M35 0l201 750h210l-201 -750h-210zM91 -194h-132l96 142h151z" glyph-name="uni013C" horiz-adv-x="280" unicode="ļ"/><glyph d="M30 0l188 700h210l-127 -472q-9 -36 -44 -64l1 -1q34 27 71 27h392l-51 -190h-640zM522 270h-146l73 269l22 47h218z" glyph-name="Lcaron" horiz-adv-x="700" unicode="Ľ"/><glyph d="M35 0l201 750h210l-201 -750h-210zM348 228l72 269l23 47h218l-167 -316h-146z" glyph-name="lcaron" horiz-adv-x="550" unicode="ľ"/><glyph d="M670 0h-640l188 700h210l-127 -472q-9 -36 -44 -64l1 -1q34 27 71 27h392zM435 312l51 188h203l-51 -188h-203z" glyph-name="Ldot" horiz-adv-x="700" unicode="Ŀ"/><glyph d="M35 0l201 750h210l-201 -750h-210zM561 280h-203l50 189h203z" glyph-name="ldot" horiz-adv-x="520" unicode="ŀ"/><glyph d="M133 136l-22 197l235 80l77 287h210l-56 -208l167 58l22 -197l-249 -85l-11 -40q-9 -36 -44 -64l1 -1q34 27 71 27h392l-51 -190h-640l50 188z" glyph-name="Lslash" horiz-adv-x="897" unicode="Ł"/><glyph d="M123 379l233 72l80 299h211l-61 -228l172 53l14 -199l-246 -76l-80 -300h-210l61 229l-160 -49z" glyph-name="lslash" horiz-adv-x="693" unicode="ł"/><glyph d="M30 0l188 700h219l205 -353q20 -33 23 -77l2 1q-4 46 7 87l92 342h210l-188 -700h-220l-204 352q-20 34 -23 78l-2 -1q4 -46 -7 -87l-92 -342h-210zM505 758l96 142h237l-160 -142h-173z" glyph-name="Nacute" horiz-adv-x="818" unicode="Ń"/><glyph d="M30 0l134 500h210l-39 -143q-7 -31 -24 -68h2q24 53 32 66q47 74 117.5 113.5t128.5 39.5q120 0 158 -75t-6 -245l-50 -188h-210l50 189q15 54 -10.5 81.5t-71.5 27.5q-57 0 -101 -27.5t-60 -83.5l-50 -187h-210zM294 558l96 142h237l-160 -142h-173z" glyph-name="nacute" horiz-adv-x="723" unicode="ń"/><glyph d="M240 0h-210l188 700h219l205 -353q20 -33 23 -77l2 1q-4 46 7 87l92 342h210l-188 -700h-220l-204 352q-20 34 -23 78l-2 -1q4 -46 -7 -87zM364 -189h-132l97 142h150z" glyph-name="uni0145" horiz-adv-x="818" unicode="Ņ"/><glyph d="M240 0h-210l134 500h210l-39 -143q-7 -31 -24 -68h2q24 53 32 66q47 74 117.5 113.5t128.5 39.5q120 0 158 -75t-6 -245l-50 -188h-210l50 189q15 54 -10.5 81.5t-71.5 27.5q-57 0 -101 -27.5t-60 -83.5zM170 -192l96 142h151l-115 -142h-132z" glyph-name="uni0146" horiz-adv-x="723" unicode="ņ"/><glyph d="M240 0h-210l188 700h219l205 -353q20 -33 23 -77l2 1q-4 46 7 87l92 342h210l-188 -700h-220l-204 352q-20 34 -23 78l-2 -1q4 -46 -7 -87zM486 781l-75 192h203l32 -106l88 106h202l-178 -192h-272z" glyph-name="Ncaron" horiz-adv-x="818" unicode="Ň"/><glyph d="M240 0h-210l134 500h210l-39 -143q-7 -31 -24 -68h2q24 53 32 66q47 74 117.5 113.5t128.5 39.5q120 0 158 -75t-6 -245l-50 -188h-210l50 189q15 54 -10.5 81.5t-71.5 27.5q-57 0 -101 -27.5t-60 -83.5zM302 773h203l32 -106l88 106h203l-178 -192h-272z" glyph-name="ncaron" horiz-adv-x="723" unicode="ň"/><glyph d="M240 0h-210l134 500h210l-39 -143q-7 -31 -24 -68h2q24 53 32 66q47 74 117.5 113.5t128.5 39.5q120 0 158 -75t-6 -245l-50 -188h-210l50 189q15 54 -10.5 81.5t-71.5 27.5q-57 0 -101 -27.5t-60 -83.5zM573 552h-146l72 269l23 47h218z" glyph-name="napostrophe" horiz-adv-x="723" unicode="ŉ"/><glyph d="M406 -7q-109 0 -184 39t-107 118t1 200q31 117 106 200t171 120.5t205 36.5t183.5 -39.5t107 -117.5t-0.5 -200q-47 -174 -180 -265.5t-302 -91.5zM327 350q-20 -74 20 -120.5t110 -46.5q73 0 136.5 46t83.5 121t-19.5 120.5t-110.5 46.5q-70 1 -135 -45.5t-85 -121.5z M887 800h-500l32 119h500z" glyph-name="Omacron" horiz-adv-x="816" unicode="Ō"/><glyph d="M373 -6q-97 0 -168 27t-104.5 86.5t-11.5 142.5t87.5 142.5t151 87t182.5 26.5q98 -1 168.5 -28t104 -86t10.5 -142q-22 -83 -87 -142.5t-150.5 -86.5t-182.5 -27zM786 600h-500l32 119h500zM299 250q-10 -41 23.5 -68t93.5 -27q58 0 107.5 27.5t59.5 67.5 q11 40 -24 68.5t-92 28.5q-55 1 -106 -28t-62 -69z" glyph-name="omacron" horiz-adv-x="748" unicode="ō"/><glyph d="M406 -7q-109 0 -184 39t-107 118t1 200q31 117 106 200t171 120.5t205 36.5t183.5 -39.5t107 -117.5t-0.5 -200q-47 -174 -180 -265.5t-302 -91.5zM327 350q-20 -74 20 -120.5t110 -46.5q73 0 136.5 46t83.5 121t-19.5 120.5t-110.5 46.5q-70 1 -135 -45.5t-85 -121.5z M612 759q-50 0 -85 13t-53 33t-25.5 47.5t-6 54t9.5 55.5h156q-4 -17 -5.5 -26.5t-0.5 -25t11.5 -23.5t30.5 -8q57 0 80 83h156q-10 -37 -28.5 -70t-49 -64.5t-79.5 -50t-111 -18.5z" glyph-name="Obreve" horiz-adv-x="816" unicode="Ŏ"/><glyph d="M373 -6q-97 0 -168 27t-104.5 86.5t-11.5 142.5t87.5 142.5t151 87t182.5 26.5q98 -1 168.5 -28t104 -86t10.5 -142q-22 -83 -87 -142.5t-150.5 -86.5t-182.5 -27zM524 559q-50 0 -85 13t-53 33t-25 47.5t-5.5 54t9.5 55.5h156q-23 -83 35 -83q57 0 80 83h156 q-10 -37 -28.5 -70t-49 -64.5t-79.5 -50t-111 -18.5zM299 250q-10 -41 23.5 -68t93.5 -27q58 0 107.5 27.5t59.5 67.5q11 40 -24 68.5t-92 28.5q-55 1 -106 -28t-62 -69z" glyph-name="obreve" horiz-adv-x="748" unicode="ŏ"/><glyph d="M406 -7q-109 0 -184 39t-107 118t1 200q31 117 106 200t171 120.5t205 36.5t183.5 -39.5t107 -117.5t-0.5 -200q-47 -174 -180 -265.5t-302 -91.5zM327 350q-20 -74 20 -120.5t110 -46.5q73 0 136.5 46t83.5 121t-19.5 120.5t-110.5 46.5q-70 1 -135 -45.5t-85 -121.5z M632 758l96 142h237l-160 -142h-173zM387 758l96 142h237l-160 -142h-173z" glyph-name="Ohungarumlaut" horiz-adv-x="816" unicode="Ő"/><glyph d="M373 -6q-97 0 -168 27t-104.5 86.5t-11.5 142.5t87.5 142.5t151 87t182.5 26.5q98 -1 168.5 -28t104 -86t10.5 -142q-22 -83 -87 -142.5t-150.5 -86.5t-182.5 -27zM299 250q-10 -41 23.5 -68t93.5 -27q58 0 107.5 27.5t59.5 67.5q11 40 -24 68.5t-92 28.5q-55 1 -106 -28 t-62 -69zM542 558l96 142h237l-160 -142h-173zM470 558h-173l96 142h237z" glyph-name="ohungarumlaut" horiz-adv-x="748" unicode="ő"/><glyph d="M435 -7q-87 0 -155.5 21.5t-114.5 66t-59 111.5t10 158q31 117 110 200t181 120.5t219 36.5q95 -1 170 -41.5t105 -117.5l40 152h547l-51 -190h-353l-23 -88h284l-42 -155h-284l-21 -77h353l-51 -190h-546l37 141q-63 -66 -163.5 -107t-192.5 -41zM390 350 q-26 -97 26.5 -154.5t157.5 -57.5q87 0 168.5 58.5t107.5 153.5q26 96 -25 154t-138 59q-106 1 -188 -57t-109 -156z" glyph-name="OE" horiz-adv-x="1321" unicode="Œ"/><glyph d="M336 -6q-135 0 -207.5 66t-39.5 190t141.5 190.5t243.5 65.5q81 -1 148 -35t83 -86q37 51 128 86.5t174 34.5q131 -1 191 -65.5t27 -190.5q-1 -3 -10 -23h-485q-9 -36 28.5 -60t99.5 -24q55 0 86 10.5t61 36.5h191q-34 -79 -132 -137t-194 -59q-83 -1 -149.5 28.5 t-91.5 81.5q-54 -51 -132.5 -80.5t-160.5 -29.5zM298 250q-16 -59 21.5 -88t108.5 -29q149 0 181 117q14 52 -20 84.5t-98 33.5q-68 0 -123.5 -33t-69.5 -85zM729 227q35 39 80 60.5t86 21.5q51 -1 152 0q6 25 -25.5 42t-94.5 17t-121 -37.5t-77 -103.5z" glyph-name="oe" horiz-adv-x="1171" unicode="œ"/><glyph d="M30 0l188 700h486q123 0 178 -43.5t31 -130.5q-9 -34 -24 -58t-35.5 -38t-36 -20t-39.5 -13q-47 -13 -90 -15l-1 -2q49 2 84 -12q15 -5 25.5 -12t21.5 -24t15 -40.5t0 -64t-18 -92.5l-36 -135h-210l37 135q11 41 -12 61.5t-67 20.5l-227 -1l-58 -216h-212zM385 533 l-39 -146h205q54 0 103 15.5t59 54.5q21 76 -82 76h-246zM661 758h-173l96 142h236z" glyph-name="Racute" horiz-adv-x="809" unicode="Ŕ"/><glyph d="M30 0l77 290q30 113 91.5 161.5t176.5 48.5h280l-51 -190h-214q-41 -1 -58.5 -19t-31.5 -70l-60 -221h-210zM350 558l96 142h237l-160 -142h-173z" glyph-name="racute" horiz-adv-x="551" unicode="ŕ"/><glyph d="M242 0h-212l188 700h486q123 0 178 -43.5t31 -130.5q-9 -34 -24 -58t-35.5 -38t-36 -20t-39.5 -13q-47 -13 -90 -15l-1 -2q49 2 84 -12q15 -5 25.5 -12t21.5 -24t15 -40.5t0 -64t-18 -92.5l-36 -135h-210l37 135q11 41 -12 61.5t-67 20.5l-227 -1zM346 387h205 q54 0 103 15.5t59 54.5q21 76 -82 76h-246zM351 -190h-132l96 142h151z" glyph-name="uni0156" horiz-adv-x="809" unicode="Ŗ"/><glyph d="M240 0h-210l77 290q30 113 91.5 161.5t176.5 48.5h280l-51 -190h-214q-41 -1 -58.5 -19t-31.5 -70zM92 -192h-132l96 142h151z" glyph-name="uni0157" horiz-adv-x="551" unicode="ŗ"/><glyph d="M242 0h-212l188 700h486q123 0 178 -43.5t31 -130.5q-9 -34 -24 -58t-35.5 -38t-36 -20t-39.5 -13q-47 -13 -90 -15l-1 -2q49 2 84 -12q15 -5 25.5 -12t21.5 -24t15 -40.5t0 -64t-18 -92.5l-36 -135h-210l37 135q11 41 -12 61.5t-67 20.5l-227 -1zM474 781l-76 192h203 l32 -106l88 106h203l-179 -192h-271zM346 387h205q54 0 103 15.5t59 54.5q21 76 -82 76h-246z" glyph-name="Rcaron" horiz-adv-x="809" unicode="Ř"/><glyph d="M30 0l77 290q30 113 91.5 161.5t176.5 48.5h280l-51 -190h-214q-41 -1 -58.5 -19t-31.5 -70l-60 -221h-210zM305 581l-75 192h203l31 -106l89 106h202l-178 -192h-272z" glyph-name="rcaron" horiz-adv-x="551" unicode="ř"/><glyph d="M105 246h204q-8 -35 23 -47t101 -14q95 -2 142 7t55 38q3 13 -17.5 20t-57 10t-83 6.5t-94.5 9.5t-92 19.5t-75 35.5t-44.5 58.5t0.5 87.5q18 66 61 113.5t103 73t125.5 36.5t140.5 10q161 -2 239 -59t45 -182h-199q8 33 -22.5 42t-113.5 9q-158 0 -168 -41 q-3 -12 17.5 -19t57 -9t83 -6.5t95 -9t92 -18.5t75.5 -34.5t45 -57t0 -84.5q-12 -44 -40 -84t-79 -78t-138 -61t-200 -23q-81 0 -139 13t-89.5 36.5t-48.5 55t-15 68.5t11 78zM514 758l96 142h236l-159 -142h-173z" glyph-name="Sacute" horiz-adv-x="817" unicode="Ś"/><glyph d="M70 168l213 17q-7 -27 23.5 -41.5t86.5 -14.5q49 0 83.5 12t37.5 25q2 8 -11.5 12.5t-38.5 6t-57 3.5t-67.5 4.5t-70 8.5t-64.5 16t-51 27t-29 41t1 59q14 50 61 85.5t109.5 50.5t110.5 21t89 6q119 0 200.5 -49t57.5 -127l-187 -13q7 25 -23 38.5t-91 13.5 q-110 0 -119 -36q-3 -10 28.5 -14.5t79.5 -5t102.5 -8t99.5 -20.5t68.5 -45.5t10.5 -80.5q-14 -53 -61.5 -89.5t-112 -51.5t-111 -20t-91.5 -5q-37 0 -82.5 7.5t-98.5 24.5t-81.5 54t-14.5 88zM410 558l96 142h237l-160 -142h-173z" glyph-name="sacute" horiz-adv-x="705" unicode="ś"/><glyph d="M101 246h204q-9 -35 22 -47t101 -14q95 -2 142.5 7t55.5 38q3 13 -17.5 20t-57 10t-83 6.5t-95 9.5t-92 19.5t-75 35.5t-44.5 58.5t1 87.5q18 66 60.5 113.5t103 73t125.5 36.5t140 10q161 -2 239.5 -59t44.5 -182h-198q8 33 -22.5 42t-113.5 9q-158 0 -169 -41 q-3 -12 18 -19t57.5 -9.5t83 -6t94.5 -9t92 -18.5t75.5 -34.5t44.5 -56.5t0 -85q-12 -44 -40 -84t-79 -78t-138 -61t-199 -23q-81 0 -139 13t-89.5 36.5t-48.5 55t-15 68.5t11 78zM345 781l178 192h272l75 -192h-203l-31 106l-89 -106h-202z" glyph-name="Scircumflex" horiz-adv-x="809" unicode="Ŝ"/><glyph d="M70 168l213 17q-7 -27 23.5 -41.5t86.5 -14.5q49 0 83.5 12t37.5 25q2 8 -11.5 12.5t-38.5 6t-57 3.5t-67.5 4.5t-70 8.5t-64.5 16t-51 27t-29 41t1 59q14 50 61 85.5t109.5 50.5t110.5 21t89 6q119 0 200.5 -49t57.5 -127l-187 -13q7 25 -23 38.5t-91 13.5 q-110 0 -119 -36q-3 -10 28.5 -14.5t79.5 -5t102.5 -8t99.5 -20.5t68.5 -45.5t10.5 -80.5q-14 -53 -61.5 -89.5t-112 -51.5t-111 -20t-91.5 -5q-37 0 -82.5 7.5t-98.5 24.5t-81.5 54t-14.5 88zM455 581h-203l179 192h271l76 -192h-203l-31 106z" glyph-name="scircumflex" horiz-adv-x="705" unicode="ŝ"/><glyph d="M101 246h204q-9 -35 22 -47t101 -14q95 -2 142.5 7t55.5 38q3 13 -17.5 20t-57 10t-83 6.5t-95 9.5t-92 19.5t-75 35.5t-44.5 58.5t1 87.5q18 66 60.5 113.5t103 73t125.5 36.5t140 10q161 -2 239.5 -59t44.5 -182h-198q8 33 -22.5 42t-113.5 9q-158 0 -169 -41 q-3 -12 18 -19t57.5 -9.5t83 -6t94.5 -9t92 -18.5t75.5 -34.5t44.5 -56.5t0 -85q-10 -40 -34 -76t-65.5 -72t-112 -61t-160.5 -33l-38 -48q79 0 50 -104q-18 -69 -75 -103t-126 -34q-51 0 -91 17.5t-52 47.5l76 69q15 -41 76 -41q29 0 53 13t30 37q4 16 -5 25.5t-31.5 13 t-36.5 4t-39 0.5h-11l26 40l38 62q-270 24 -209 248z" glyph-name="Scedilla" horiz-adv-x="809" unicode="Ş"/><glyph d="M70 168l213 17q-7 -27 23.5 -41.5t86.5 -14.5q49 0 83.5 12t37.5 25q2 8 -11.5 12.5t-38.5 6t-57 3.5t-67.5 4.5t-70 8.5t-64.5 16t-51 27t-29 41t1 59q14 50 61 85.5t109.5 50.5t110.5 21t89 6q119 0 200.5 -49t57.5 -127l-187 -13q7 25 -23 38.5t-91 13.5 q-110 0 -119 -36q-3 -10 28.5 -14.5t79.5 -5t102.5 -8t99.5 -20.5t68.5 -45.5t10.5 -80.5q-37 -138 -293 -162l-38 -47q78 0 51 -104q-18 -69 -75.5 -103t-126.5 -34q-51 0 -91 18t-52 47l77 69q6 -19 27.5 -30t47.5 -11q29 0 53 13t30 37q5 16 -4 25.5t-32 13t-37 4 t-39 0.5h-11l66 103q-42 6 -79.5 16.5t-72 30t-50 51t-4.5 71.5z" glyph-name="scedilla" horiz-adv-x="705" unicode="ş"/><glyph d="M105 246h204q-8 -35 23 -47t101 -14q95 -2 142 7t55 38q3 13 -17.5 20t-57 10t-83 6.5t-94.5 9.5t-92 19.5t-75 35.5t-44.5 58.5t0.5 87.5q18 66 61 113.5t103 73t125.5 36.5t140.5 10q161 -2 239 -59t45 -182h-199q8 33 -22.5 42t-113.5 9q-158 0 -168 -41 q-3 -12 17.5 -19t57 -9t83 -6.5t95 -9t92 -18.5t75.5 -34.5t45 -57t0 -84.5q-12 -44 -40 -84t-79 -78t-138 -61t-200 -23q-81 0 -139 13t-89.5 36.5t-48.5 55t-15 68.5t11 78zM468 781l-76 192h203l32 -106l88 106h203l-178 -192h-272z" glyph-name="Scaron" horiz-adv-x="817" unicode="Š"/><glyph d="M70 168l213 17q-7 -27 23.5 -41.5t86.5 -14.5q49 0 83.5 12t37.5 25q2 8 -11.5 12.5t-38.5 6t-57 3.5t-67.5 4.5t-70 8.5t-64.5 16t-51 27t-29 41t1 59q14 50 61 85.5t109.5 50.5t110.5 21t89 6q119 0 200.5 -49t57.5 -127l-187 -13q7 25 -23 38.5t-91 13.5 q-110 0 -119 -36q-3 -10 28.5 -14.5t79.5 -5t102.5 -8t99.5 -20.5t68.5 -45.5t10.5 -80.5q-14 -53 -61.5 -89.5t-112 -51.5t-111 -20t-91.5 -5q-37 0 -82.5 7.5t-98.5 24.5t-81.5 54t-14.5 88zM366 581l-76 192h203l32 -106l88 106h203l-179 -192h-271z" glyph-name="scaron" horiz-adv-x="705" unicode="š"/><glyph d="M417 510h-260l51 190h730l-51 -190h-226q-33 0 -51 25l-2 -2q18 -23 10 -57l-128 -476h-209zM386 973h203l32 -106l88 106h203l-178 -192h-272z" glyph-name="Tcaron" horiz-adv-x="771" unicode="Ť"/><glyph d="M93 310l51 190h46q45 0 92 63t67 137h209q-38 -133 -170 -190q-17 -6 -70 -14l-1 -2q44 6 70 6h247l-51 -190h-184l-18 -66q-8 -31 3 -42.5t37 -11.5h154l-50 -190h-215q-205 0 -135 257l14 53h-96zM684 539h-146l72 269l23 47h218z" glyph-name="tcaron" horiz-adv-x="632" unicode="ť"/><glyph d="M417 510h-260l51 190h730l-51 -190h-226q-33 0 -51 25l-2 -2q18 -23 10 -57l-17 -62h120l-37 -137h-120l-74 -277h-209l74 277h-124l37 137h124z" glyph-name="Tbar" horiz-adv-x="771" unicode="Ŧ"/><glyph d="M157 155h-107l37 138h97l5 17h-96l51 190h46q45 0 92 63t67 137h209q-38 -133 -170 -190q-17 -6 -70 -14l-1 -2q44 6 70 6h247l-51 -190h-184l-5 -17h145l-27 -103h63l-50 -190h-215q-159 0 -153 155z" glyph-name="tbar" horiz-adv-x="535" unicode="ŧ"/><glyph d="M119 331l99 369h210l-99 -370q-19 -68 19.5 -108t108.5 -40q74 0 128 36.5t74 111.5l99 370h210l-99 -369q-23 -84 -72.5 -151t-113.5 -107t-135 -60.5t-142 -20.5q-81 0 -142 18.5t-104 59t-53 105t12 156.5zM476 745l-126 1q53 194 242 194q39 0 64 -14t41 -28.5 t32 -15.5q22 -1 37 18t20 40h152q-53 -198 -232 -198q-41 0 -67.5 14t-44 28t-36.5 15q-31 2 -53.5 -13.5t-28.5 -40.5z" glyph-name="Utilde" horiz-adv-x="810" unicode="Ũ"/><glyph d="M268 0q-120 0 -158 75t6 245l50 188h210l-50 -188q-15 -55 10.5 -82.5t71.5 -27.5q57 0 101.5 27.5t59.5 83.5l50 187h210l-134 -500h-210l39 143q7 31 24 68h-2q-24 -53 -32 -66q-47 -74 -117.5 -113.5t-128.5 -39.5zM248 545q53 194 242 194q39 0 64 -14t41 -28.5 t32 -15.5q22 -1 37 18t20 40h152q-53 -198 -232 -198q-41 0 -67.5 14t-44 28t-36.5 15q-31 2 -53.5 -13.5t-28.5 -40.5z" glyph-name="utilde" horiz-adv-x="723" unicode="ũ"/><glyph d="M119 331l99 369h210l-99 -370q-19 -68 19.5 -108t108.5 -40q74 0 128 36.5t74 111.5l99 370h210l-99 -369q-23 -84 -72.5 -151t-113.5 -107t-135 -60.5t-142 -20.5q-81 0 -142 18.5t-104 59t-53 105t12 156.5zM868 800h-501l32 119h501z" glyph-name="Umacron" horiz-adv-x="810" unicode="Ū"/><glyph d="M268 0q-120 0 -158 75t6 245l50 188h210l-50 -188q-15 -55 10.5 -82.5t71.5 -27.5q57 0 101.5 27.5t59.5 83.5l50 187h210l-134 -500h-210l39 143q7 31 24 68h-2q-24 -53 -32 -66q-47 -74 -117.5 -113.5t-128.5 -39.5zM270 600l32 119h500l-32 -119h-500z" glyph-name="umacron" horiz-adv-x="723" unicode="ū"/><glyph d="M119 331l99 369h210l-99 -370q-19 -68 19.5 -108t108.5 -40q74 0 128 36.5t74 111.5l99 370h210l-99 -369q-23 -84 -72.5 -151t-113.5 -107t-135 -60.5t-142 -20.5q-81 0 -142 18.5t-104 59t-53 105t12 156.5zM434 962h156q-23 -83 36 -83t79 83h157q-10 -37 -28.5 -70 t-49.5 -64.5t-80 -50t-111 -18.5q-50 0 -85 13t-53 33t-25 47.5t-5.5 54t9.5 55.5z" glyph-name="Ubreve" horiz-adv-x="810" unicode="Ŭ"/><glyph d="M268 0q-120 0 -158 75t6 245l50 188h210l-50 -188q-15 -55 10.5 -82.5t71.5 -27.5q57 0 101.5 27.5t59.5 83.5l50 187h210l-134 -500h-210l39 143q7 31 24 68h-2q-24 -53 -32 -66q-47 -74 -117.5 -113.5t-128.5 -39.5zM493 559q-50 0 -85 13t-53 33t-25 47.5t-5.5 54 t9.5 55.5h156q-23 -83 35 -83q57 0 80 83h156q-10 -37 -28.5 -70t-49 -64.5t-79.5 -50t-111 -18.5z" glyph-name="ubreve" horiz-adv-x="723" unicode="ŭ"/><glyph d="M119 331l99 369h210l-99 -370q-19 -68 19.5 -108t108.5 -40q74 0 128 36.5t74 111.5l99 370h210l-99 -369q-23 -84 -72.5 -151t-113.5 -107t-135 -60.5t-142 -20.5q-81 0 -142 18.5t-104 59t-53 105t12 156.5zM438 862q13 49 75.5 83t139.5 34q76 0 120 -34t31 -83 t-75.5 -83.5t-138.5 -34.5q-77 0 -121 34.5t-31 83.5zM611 824q23 0 43.5 11t24.5 27q4 15 -10.5 25.5t-37.5 10.5q-24 0 -44 -10.5t-24 -25.5q-4 -16 10 -27t38 -11z" glyph-name="Uring" horiz-adv-x="810" unicode="Ů"/><glyph d="M268 0q-120 0 -158 75t6 245l50 188h210l-50 -188q-15 -55 10.5 -82.5t71.5 -27.5q57 0 101.5 27.5t59.5 83.5l50 187h210l-134 -500h-210l39 143q7 31 24 68h-2q-24 -53 -32 -66q-47 -74 -117.5 -113.5t-128.5 -39.5zM497 544q-77 0 -121 34.5t-31 83.5t75.5 83 t139.5 34q76 0 120 -34t31 -83t-75.5 -83.5t-138.5 -34.5zM470 662q-4 -16 10 -27t39 -11q23 0 43 11t24 27q4 15 -10.5 25.5t-37.5 10.5q-24 0 -44 -10.5t-24 -25.5z" glyph-name="uring" horiz-adv-x="723" unicode="ů"/><glyph d="M119 331l99 369h210l-99 -370q-19 -68 19.5 -108t108.5 -40q74 0 128 36.5t74 111.5l99 370h210l-99 -369q-23 -84 -72.5 -151t-113.5 -107t-135 -60.5t-142 -20.5q-81 0 -142 18.5t-104 59t-53 105t12 156.5zM355 758l96 142h237l-160 -142h-173zM600 758l97 142h236 l-160 -142h-173z" glyph-name="Uhungarumlaut" horiz-adv-x="810" unicode="Ű"/><glyph d="M268 0q-120 0 -158 75t6 245l50 188h210l-50 -188q-15 -55 10.5 -82.5t71.5 -27.5q57 0 101.5 27.5t59.5 83.5l50 187h210l-134 -500h-210l39 143q7 31 24 68h-2q-24 -53 -32 -66q-47 -74 -117.5 -113.5t-128.5 -39.5zM431 563h-173l96 142h237zM677 563h-173l96 142h236 z" glyph-name="uhungarumlaut" horiz-adv-x="723" unicode="ű"/><glyph d="M331 -3q-133 17 -193 99t-19 235l99 369h210l-99 -370q-19 -68 19.5 -108t108.5 -40q74 0 128 36.5t74 111.5l99 370h210l-99 -369q-29 -107 -100 -184t-156.5 -113t-179.5 -41q-65 -58 -66 -107q-1 -31 27 -31q24 0 56 25l58 -52q-32 -39 -83 -60.5t-101 -21.5 q-35 0 -62 10t-41 31t-10.5 50t33.5 71t87 89z" glyph-name="Uogonek" horiz-adv-x="810" unicode="Ų"/><glyph d="M268 0q-120 0 -158 75t6 245l50 188h210l-50 -188q-15 -55 10.5 -82.5t71.5 -27.5q57 0 101.5 27.5t59.5 83.5l50 187h210l-134 -500h-55q-68 -59 -71 -110q0 -32 27 -33q22 0 56 25l58 -51q-32 -39 -83 -60.5t-102 -21.5q-35 0 -62 10t-40.5 31t-10.5 50t33.5 71 t87.5 89h-48l39 143q7 31 24 68h-2q-24 -53 -32 -66q-47 -74 -117.5 -113.5t-128.5 -39.5z" glyph-name="uogonek" horiz-adv-x="723" unicode="ų"/><glyph d="M277 0l-67 700h223l36 -398q0 -20 -4 -35h2q7 24 12 35l201 398h173l-11 -398q0 -11 -7 -34h2q5 16 15 33l256 399h224l-443 -700h-241l6 263q0 3 2 11h-2q-3 -10 -3 -11l-135 -263h-239zM625 781h-203l178 192h272l76 -192h-203l-31 106z" glyph-name="Wcircumflex" horiz-adv-x="1166" unicode="Ŵ"/><glyph d="M139 500h224l29 -302q3 -24 -5 -63h2q6 30 22 64l158 301h345l-3 -304q-2 -30 -12 -63l2 -1q10 34 28 63l193 305h222l-316 -500h-331l3 301q0 29 12 75h-2q-11 -42 -29 -75l-158 -301h-336zM496 581l178 192h272l75 -192h-202l-32 106l-88 -106h-203z" glyph-name="wcircumflex" horiz-adv-x="1215" unicode="ŵ"/><glyph d="M399 290l-194 409h257l80 -194q13 -28 2 -69h2q11 41 39 69l183 194h256l-416 -409l-77 -290h-210zM375 781l179 192h271l76 -192h-203l-31 106l-89 -106h-203z" glyph-name="Ycircumflex" horiz-adv-x="855" unicode="Ŷ"/><glyph d="M-32 -200l39 145h111q117 0 131 20l17 25l-108 510h233l47 -230q7 -30 -4 -73h2q11 41 35 73l168 230h231l-419 -571q-88 -129 -240 -129h-243zM278 581l178 192h272l75 -192h-203l-31 106l-89 -106h-202z" glyph-name="ycircumflex" horiz-adv-x="758" unicode="ŷ"/><glyph d="M399 290l-194 409h257l80 -194q13 -28 2 -69h2q11 41 39 69l183 194h256l-416 -409l-77 -290h-210zM606 740h-210l43 160h210zM847 740h-210l43 160h210z" glyph-name="Ydieresis" horiz-adv-x="855" unicode="Ÿ"/><glyph d="M786 0h-764l24 89l484 394q30 26 72 42v1q-38 -15 -77 -15h-358l51 189h747l-24 -89l-472 -393q-30 -26 -72 -42v-2q41 16 77 16h363zM507 758l96 142h237l-160 -142h-173z" glyph-name="Zacute" horiz-adv-x="808" unicode="Ź"/><glyph d="M703 0h-678l39 145l267 145q33 17 77 30v2q-41 -12 -77 -12h-211l51 190h662l-39 -145l-267 -145q-36 -20 -76 -30v-2q39 12 77 12h226zM416 561l96 142h237l-160 -142h-173z" glyph-name="zacute" horiz-adv-x="728" unicode="ź"/><glyph d="M786 0h-764l24 89l484 394q30 26 72 42v1q-38 -15 -77 -15h-358l51 189h747l-24 -89l-472 -393q-30 -26 -72 -42v-2q41 16 77 16h363zM487 740l43 160h210l-43 -160h-210z" glyph-name="Zdotaccent" horiz-adv-x="808" unicode="Ż"/><glyph d="M25 0l39 145l267 145q33 17 77 30v2q-41 -12 -77 -12h-211l51 190h662l-39 -145l-267 -145q-36 -20 -76 -30v-2q39 12 77 12h226l-51 -190h-678zM406 540l43 160h210l-43 -160h-210z" glyph-name="zdotaccent" horiz-adv-x="728" unicode="ż"/><glyph d="M786 0h-764l24 89l484 394q30 26 72 42v1q-38 -15 -77 -15h-358l51 189h747l-24 -89l-472 -393q-30 -26 -72 -42v-2q41 16 77 16h363zM398 973h202l32 -106l88 106h203l-178 -192h-272z" glyph-name="Zcaron" horiz-adv-x="808" unicode="Ž"/><glyph d="M703 0h-678l39 145l267 145q33 17 77 30v2q-41 -12 -77 -12h-211l51 190h662l-39 -145l-267 -145q-36 -20 -76 -30v-2q39 12 77 12h226zM327 773h202l32 -106l88 106h203l-178 -192h-272z" glyph-name="zcaron" horiz-adv-x="728" unicode="ž"/><glyph d="M96 246h204q-9 -35 22 -47t101 -14q95 -2 142.5 7t55.5 38q3 13 -17.5 20t-57 10t-83 6.5t-95 9.5t-92 19.5t-75 35.5t-44.5 58.5t1 87.5q18 66 60.5 113.5t103 73t125.5 36.5t140 10q161 -2 239.5 -59t44.5 -182h-198q8 33 -22.5 42t-113.5 9q-158 0 -169 -41 q-3 -12 18 -19t57.5 -9.5t83 -6t94.5 -9t92 -18.5t75.5 -34.5t44.5 -56.5t0 -85q-12 -44 -40 -84t-79 -78t-138 -61t-199 -23q-81 0 -139 13t-89.5 36.5t-48.5 55t-15 68.5t11 78zM202 -192l96 142h151l-115 -142h-132z" glyph-name="uni0218" horiz-adv-x="799" unicode="Ș"/><glyph d="M70 168l213 17q-7 -27 23.5 -41.5t86.5 -14.5q49 0 83.5 12t37.5 25q2 8 -11.5 12.5t-38.5 6t-57 3.5t-67.5 4.5t-70 8.5t-64.5 16t-51 27t-29 41t1 59q14 50 61 85.5t109.5 50.5t110.5 21t89 6q119 0 200.5 -49t57.5 -127l-187 -13q7 25 -23 38.5t-91 13.5 q-110 0 -119 -36q-3 -10 28.5 -14.5t79.5 -5t102.5 -8t99.5 -20.5t68.5 -45.5t10.5 -80.5q-14 -53 -61.5 -89.5t-112 -51.5t-111 -20t-91.5 -5q-37 0 -82.5 7.5t-98.5 24.5t-81.5 54t-14.5 88zM165 -192l96 142h151l-115 -142h-132z" glyph-name="uni0219" horiz-adv-x="702" unicode="ș"/><glyph d="M157 510l51 190h730l-51 -190h-226q-33 0 -51 25l-2 -2q18 -23 10 -57l-128 -476h-209l136 510h-260zM207 -192l96 142h151l-115 -142h-132z" glyph-name="uni021A" horiz-adv-x="771" unicode="Ț"/><glyph d="M108 310l51 190h46q45 0 92 63t67 137h209q-38 -133 -170 -190q-17 -6 -70 -14l-1 -2q44 6 70 6h247l-51 -190h-184l-18 -66q-8 -31 3 -42.5t37 -11.5h154l-50 -190h-215q-205 0 -135 257l14 53h-96zM172 -192l96 142h151l-115 -142h-132z" glyph-name="uni021B" horiz-adv-x="565" unicode="ț"/><glyph d="M306 456h-179l248 244h112l117 -244h-179l-37 81z" glyph-name="circumflex" horiz-adv-x="487" unicode="ˆ"/><glyph d="M309 456l-116 244h179l38 -81l81 81h178l-247 -244h-113z" glyph-name="caron" horiz-adv-x="487" unicode="ˇ"/><glyph d="M163 495l39 149h316l-40 -149h-315z" glyph-name="uni02C9" horiz-adv-x="377" unicode="ˉ"/><glyph d="M373 540q-62 0 -101.5 19.5t-52 49.5t-15 66t9.5 69h156q-23 -83 35 -83q57 0 80 83h156q-10 -37 -28.5 -70t-49 -65t-79.5 -50.5t-111 -18.5z" glyph-name="breve" horiz-adv-x="456" unicode="˘"/><glyph d="M365 540h-210l43 160h210z" glyph-name="dotaccent" horiz-adv-x="230" unicode="˙"/><glyph d="M339 544q-77 0 -121 34.5t-31 83.5t75.5 83t139.5 34q76 0 120 -34t31 -83t-75.5 -83.5t-138.5 -34.5zM312 662q-4 -16 10 -27t38 -11q23 0 43 11t24 27q4 15 -10 25.5t-37 10.5q-24 0 -44 -10.5t-24 -25.5z" glyph-name="ring" horiz-adv-x="384" unicode="˚"/><glyph d="M69 4h107q-68 -58 -72 -109q1 -32 28 -34q22 0 56 25l57 -51q-32 -40 -82.5 -61t-101.5 -21q-35 0 -62 10t-40.5 31t-10.5 50t33.5 71t87.5 89z" glyph-name="ogonek" horiz-adv-x="235" unicode="˛"/><glyph d="M292 575l-126 1q53 194 243 194q38 0 63 -14t41 -28.5t32 -15.5q22 -1 37 18t20 40h152q-53 -198 -231 -198q-42 0 -68.5 14t-44 28t-36.5 15q-31 2 -53 -13.5t-29 -40.5z" glyph-name="tilde" horiz-adv-x="560" unicode="˜"/><glyph d="M384 558l96 142h237l-160 -142h-173zM301 558h-173l96 142h236z" glyph-name="hungarumlaut" horiz-adv-x="487" unicode="˝"/><glyph d="M190 700l20 -142h-173l-84 142h237z" glyph-name="gravecomb" horiz-adv-x="0" unicode="̀"/><glyph d="M135 558h-173l96 142h237z" glyph-name="acutecomb" horiz-adv-x="0" unicode="́"/><glyph d="M-102 581h-203l179 192h271l76 -192h-203l-31 106z" glyph-name="uni0302" horiz-adv-x="0" unicode="̂"/><glyph d="M-186 575l-126 1q53 194 243 194q30 0 52.5 -9t33.5 -19.5t24 -19.5t26 -10q23 -1 37.5 17.5t19.5 40.5h152q-53 -198 -231 -198q-42 0 -68.5 14t-44 28t-36.5 15q-31 2 -53 -13.5t-29 -40.5z" glyph-name="tildecomb" horiz-adv-x="0" unicode="̃"/><glyph d="M-251 600l32 119h500l-32 -119h-500z" glyph-name="uni0304" horiz-adv-x="0" unicode="̄"/><glyph d="M-23 558q-50 0 -85 13t-53 33t-25.5 48t-6 54.5t9.5 55.5h156q-4 -18 -5.5 -27t-0.5 -25t11.5 -23.5t30.5 -7.5q58 0 80 83h156q-10 -37 -28.5 -70t-49 -65t-79.5 -50.5t-111 -18.5z" glyph-name="uni0306" horiz-adv-x="0" unicode="̆"/><glyph d="M191 540h-210l43 160h210z" glyph-name="uni0307" horiz-adv-x="0" unicode="̇"/><glyph d="M3 540h-211l43 160h211zM244 540h-210l43 160h210z" glyph-name="uni0308" horiz-adv-x="0" unicode="̈"/><glyph d="M34 544q-77 0 -121.5 34t-31.5 84q14 49 76.5 83t139.5 34q76 0 120 -34t31 -83t-75.5 -83.5t-138.5 -34.5zM7 662q-4 -16 10 -27t38 -11q23 0 43 11t24 27q4 15 -10 25.5t-37 10.5q-24 0 -44 -10.5t-24 -25.5z" glyph-name="uni030A" horiz-adv-x="0" unicode="̊"/><glyph d="M-34 558l96 142h237l-160 -142h-173zM-107 558h-172l96 142h236z" glyph-name="uni030B" horiz-adv-x="0" unicode="̋"/><glyph d="M-253 773h203l31 -106l89 106h202l-178 -192h-272z" glyph-name="uni030C" horiz-adv-x="0" unicode="̌"/><glyph d="M-198 -192h-132l96 142h151z" glyph-name="uni0326" horiz-adv-x="0" unicode="̦"/><glyph d="M-408 -235l76 69q15 -41 76 -41q29 0 53 13t30 37q4 16 -5 25.5t-31.5 13t-36.5 4t-39 0.5h-11l26 40l48 78h159l-51 -63q79 0 50 -104q-18 -69 -75 -103t-126 -34q-51 0 -91 17.5t-52 47.5z" glyph-name="uni0327" horiz-adv-x="0" unicode="̧"/><glyph d="M-201 4h107q-68 -58 -72 -109q1 -32 28 -34q22 0 56 25l57 -51q-32 -40 -82.5 -61t-101.5 -21q-35 0 -62 10t-40.5 31t-10.5 50t33.5 71t87.5 89z" glyph-name="uni0328" horiz-adv-x="0" unicode="̨"/><glyph d="M-5 -132q50 179 93 350l76 282h211l-27 -101q-25 -89 -10.5 -130.5t71.5 -41.5q31 0 87.5 43t75.5 113l31 117h212l-134 -500h-212l21 78q4 17 24 64h-2q-67 -150 -179 -150q-68 0 -76 67l-51 -191h-211z" glyph-name="uni03BC" horiz-adv-x="711" unicode="μ"/><glyph d="M277 0l-67 700h223l36 -398q0 -20 -4 -35h2q7 24 12 35l201 398h173l-11 -398q0 -11 -7 -34h2q5 16 15 33l256 399h224l-443 -700h-241l6 263q0 3 2 11h-2q-3 -10 -3 -11l-135 -263h-239zM623 900h236l20 -142h-173z" glyph-name="Wgrave" horiz-adv-x="1166" unicode="Ẁ"/><glyph d="M177 0l-48 500h224l29 -302q3 -24 -5 -63h2q6 30 22 64l158 301h345l-3 -304q-2 -30 -12 -63l2 -1q10 34 28 63l193 305h222l-316 -500h-331l3 301q0 29 12 75h-2q-11 -42 -29 -75l-158 -301h-336zM698 558l-83 142h236l20 -142h-173z" glyph-name="wgrave" horiz-adv-x="1205" unicode="ẁ"/><glyph d="M277 0l-67 700h223l36 -398q0 -20 -4 -35h2q7 24 12 35l201 398h173l-11 -398q0 -11 -7 -34h2q5 16 15 33l256 399h224l-443 -700h-241l6 263q0 3 2 11h-2q-3 -10 -3 -11l-135 -263h-239zM668 758l96 142h236l-159 -142h-173z" glyph-name="Wacute" horiz-adv-x="1166" unicode="Ẃ"/><glyph d="M129 500h224l29 -302q3 -24 -5 -63h2q6 30 22 64l158 301h345l-3 -304q-2 -30 -12 -63l2 -1q10 34 28 63l193 305h222l-316 -500h-331l3 301q0 29 12 75h-2q-11 -42 -29 -75l-158 -301h-336zM631 558l96 142h237l-160 -142h-173z" glyph-name="wacute" horiz-adv-x="1205" unicode="ẃ"/><glyph d="M277 0l-67 700h223l36 -398q0 -20 -4 -35h2q7 24 12 35l201 398h173l-11 -398q0 -11 -7 -34h2q5 16 15 33l256 399h224l-443 -700h-241l6 263q0 3 2 11h-2q-3 -10 -3 -11l-135 -263h-239zM770 740h-211l43 160h210zM1011 740h-210l42 160h211z" glyph-name="Wdieresis" horiz-adv-x="1166" unicode="Ẅ"/><glyph d="M129 500h224l29 -302q3 -24 -5 -63h2q6 30 22 64l158 301h345l-3 -304q-2 -30 -12 -63l2 -1q10 34 28 63l193 305h222l-316 -500h-331l3 301q0 29 12 75h-2q-11 -42 -29 -75l-158 -301h-336zM731 540h-210l43 160h210zM972 540h-210l43 160h210z" glyph-name="wdieresis" horiz-adv-x="1195" unicode="ẅ"/><glyph d="M74 164l56 210h615l-56 -210h-615z" glyph-name="endash" horiz-adv-x="675" unicode="–"/><glyph d="M82 192l56 211h927l-56 -211h-927z" glyph-name="emdash" horiz-adv-x="987" unicode="—"/><glyph d="M123 384l72 269l23 47h217l-166 -316h-146z" glyph-name="quoteleft" horiz-adv-x="268" unicode="‘"/><glyph d="M123 384l72 269l23 47h217l-166 -316h-146z" glyph-name="quoteright" horiz-adv-x="268" unicode="’"/><glyph d="M26 -150h-31l21 79h31q105 0 122 63h-136l51 190h217l-51 -190q-20 -73 -70.5 -107.5t-153.5 -34.5z" glyph-name="quotesinglbase" horiz-adv-x="289" unicode="‚"/><glyph d="M369 368l51 190q19 73 70.5 107.5t153.5 34.5h31l-21 -79h-31q-105 0 -121 -63h135l-51 -190h-217zM351 368h-217l51 190q19 73 70.5 107.5t153.5 34.5h31l-21 -79h-31q-105 0 -121 -63h135z" glyph-name="quotedblleft" horiz-adv-x="524" unicode="“"/><glyph d="M369 368l21 78h31q104 0 122 63h-136l51 191h217l-51 -191q-19 -73 -70.5 -107t-153.5 -34h-31zM134 368l21 78h31q104 0 122 63h-136l51 191h217l-51 -191q-19 -73 -70.5 -107t-153.5 -34h-31z" glyph-name="quotedblright" horiz-adv-x="518" unicode="”"/><glyph d="M261 -150h-31l21 79h31q105 0 122 63h-136l51 190h218l-52 -190q-20 -73 -70.5 -107.5t-153.5 -34.5zM-5 -150l21 79h31q105 0 122 63h-136l51 190h217l-51 -190q-20 -73 -70.5 -107.5t-153.5 -34.5h-31z" glyph-name="quotedblbase" horiz-adv-x="524" unicode="„"/><glyph d="M210 456h-72l48 179h72l16 65h211l-17 -65h66l-48 -179h-66l-31 -112h-210z" glyph-name="dagger" horiz-adv-x="380" unicode="†"/><glyph d="M114 314l40 150h100l8 31h-99l40 150h99l15 55h210l-15 -55h99l-40 -150h-99l-8 -31h99l-40 -150h-100l-17 -66h-210l17 66h-99z" glyph-name="daggerdbl" horiz-adv-x="469" unicode="‡"/><glyph d="M248 38q-90 0 -137 64t-22 155q24 90 105 154t171 64q91 0 137.5 -64t22.5 -154q-24 -91 -105 -155t-172 -64z" glyph-name="bullet" horiz-adv-x="476" unicode="•"/><glyph d="M339 53l51 190h205l-51 -190h-205zM647 53l51 190h205l-51 -190h-205zM239 53h-205l51 190h205z" glyph-name="ellipsis" horiz-adv-x="858" unicode="…"/><glyph d="M16 0l824 700h284l-824 -700h-284zM431 700q120 0 155 -69q29 -56 -14 -121q-51 -74 -156 -94q-30 -6 -63 -6q-119 0 -154 69q-29 56 14 120q50 75 155 95q30 6 63 6zM795 290q120 0 155 -69q28 -56 -14 -120q-49 -75 -154 -95q-31 -6 -64 -6q-120 0 -155 69 q-28 56 14 120q49 75 154 95q31 6 64 6zM1216 290q120 0 155 -69q28 -56 -14 -120q-49 -75 -154 -95q-31 -6 -64 -6q-120 0 -155 69q-28 56 14 120q49 75 154 95q31 6 64 6zM382 518q41 0 57 30q13 25 -10 38q-10 6 -27 6q-41 0 -57 -30q-13 -25 10 -38q10 -6 27 -6z M747 108q41 0 56 30q12 25 -10 38q-10 6 -27 6q-41 0 -56 -30q-12 -25 10 -38q10 -6 27 -6zM1168 108q41 0 56 30q12 25 -10 38q-10 6 -27 6q-41 0 -56 -30q-12 -25 10 -38q10 -6 27 -6z" glyph-name="perthousand" horiz-adv-x="1355" unicode="‰"/><glyph d="M104 333l392 182l-55 -207l-71 -32l53 -32l-55 -206l-294 182z" glyph-name="guilsinglleft" horiz-adv-x="373" unicode="‹"/><glyph d="M417 220l-392 -182l55 206l70 32l-53 32l55 207l295 -182z" glyph-name="guilsinglright" horiz-adv-x="373" unicode="›"/><glyph d="M15 0l651 700h251l-650 -700h-252z" glyph-name="fraction" horiz-adv-x="745" unicode="⁄"/><glyph d="M487 -7q-209 -1 -313.5 90.5t-57.5 266.5q32 118 116 200t197.5 120t248.5 37q142 -2 240 -45t132 -126l-218 -84q-38 78 -203 78q-168 0 -209 -42h253l-53 -105h-277q-12 -17 -14 -50h286l-44 -103h-217q38 -51 181 -51q94 0 146 16.5t96 53.5l173 -85 q-79 -84 -200 -127t-263 -44z" glyph-name="Euro" horiz-adv-x="928" unicode="€"/><glyph d="M464 521h-71l48 179h74l43 -97l94 97h74l-48 -178l-70 -1l19 74l-71 -74h-41l-32 74zM198 627l20 73h204l-20 -73h-68l-28 -105h-68l28 105h-68z" glyph-name="trademark" horiz-adv-x="575" unicode="™"/><glyph d="M143 365l449 355l89 -122l-165 -129h355l-56 -209h-355l95 -131l-152 -119z" glyph-name="arrowleft" horiz-adv-x="790" unicode="←"/><glyph d="M592 715l260 -354l-154 -121l-95 129l-95 -354h-209l95 354l-165 -129l-88 120z" glyph-name="arrowup" horiz-adv-x="800" unicode="↑"/><glyph d="M843 364l-450 -354l-88 121l164 130h-354l56 209h355l-95 130l152 120z" glyph-name="arrowright" horiz-adv-x="790" unicode="→"/><glyph d="M404 15l-260 354l154 121l94 -129l95 354h210l-95 -354l165 129l87 -120z" glyph-name="arrowdown" horiz-adv-x="800" unicode="↓"/><glyph d="M738 582l149 117l257 -350l-443 -349l-87 120l162 127h-339l93 -128l-150 -118l-256 350l443 349l87 -120l-162 -127h339z" glyph-name="arrowboth" horiz-adv-x="1080" unicode="↔"/><glyph d="M238 330l-86 118l444 350l256 -349l-152 -119l-93 128l-86 -318l162 128l86 -118l-444 -350l-255 349l151 119l93 -128l87 318z" glyph-name="arrowupdn" horiz-adv-x="761" unicode="↕"/><glyph d="M210 617h502l-47 -171l-182 1l183 -251l-188 -148l-183 250l-50 -183h-169z" glyph-name="uni2196" horiz-adv-x="659" unicode="↖"/><glyph d="M779 612l-134 -501h-171l49 183l-318 -250l-109 148l318 251h-183l45 169h503z" glyph-name="uni2197" horiz-adv-x="660" unicode="↗"/><glyph d="M633 71h-502l47 172l183 -1l-184 251l188 148l184 -250l49 183h170z" glyph-name="uni2198" horiz-adv-x="659" unicode="↘"/><glyph d="M66 78l134 501l171 -1l-49 -182l318 250l108 -148l-317 -251h183l-45 -169h-503z" glyph-name="uni2199" horiz-adv-x="660" unicode="↙"/><glyph d="M288 4q-119 13 -177 79.5t-9 180.5q46 105 148 160t215 55q83 0 146 -28.5t88 -82t-11 -129.5q29 58 34.5 106.5t-10 81.5t-44.5 59.5t-69 40t-82.5 23.5t-85.5 10t-79 -1l102 141q95 0 167.5 -12t129 -42t81 -77.5t15 -123t-60.5 -173.5q-71 -138 -183 -205t-248 -67 q-36 0 -67 4zM335 277q-28 -54 6 -93.5t115 -48.5q59 -7 132.5 23t99.5 81t-14.5 92t-98.5 50q-70 11 -141 -19.5t-99 -84.5z" glyph-name="partialdiff" horiz-adv-x="758" unicode="∂"/><glyph d="M479 0q-182 0 -283 102t-62 247q38 144 194 246.5t338 102.5q181 0 282.5 -102.5t62.5 -246.5q-25 -95 -105.5 -175.5t-194 -127t-232.5 -46.5zM338 349q-4 -23 -4.5 -30.5t2.5 -14.5l4 -6l341 224q-23 10 -62 10q-96 1 -178.5 -53t-102.5 -130zM466 169q12 -5 54 -5 q97 0 182 54t100 131q8 40 6 44z" glyph-name="emptyset" horiz-adv-x="958" unicode="∅"/><glyph d="M343 510h-191l51 190h902l-51 -190h-186l-137 -510h-209l136 510h-107l-136 -510h-209z" glyph-name="product" horiz-adv-x="933" unicode="∏"/><glyph d="M865 716l-46 -172h-342l42 -187l-142 -187h342l-45 -170h-644l273 358l-81 358h643z" glyph-name="summation" horiz-adv-x="704" unicode="∑"/><glyph d="M82 193l51 190h541l-51 -190h-541z" glyph-name="minus" horiz-adv-x="601" unicode="−"/><glyph d="M1080 701l123 -266h-252l-29 63l-508 -618h-196l-148 322h240l41 -93l487 592h242z" glyph-name="radical" horiz-adv-x="1116" unicode="√"/><glyph d="M263 105q-89 0 -135 54.5t-22 143.5q24 90 98.5 144t164.5 54q37 0 69.5 -9t64 -30.5t47 -34.5t46.5 -42q51 31 70.5 42.5t64 33.5t81.5 31t74 9q89 0 135 -54.5t22 -143.5q-24 -90 -98.5 -144t-164.5 -54q-49 0 -94.5 18.5t-71.5 38t-63 54.5q-55 -35 -91.5 -55 t-91.5 -38t-105 -18zM819 357q-15 0 -33 -6t-27 -10t-36 -20t-32 -19q3 -3 13.5 -11.5t14 -11.5t12 -9t14 -8.5t13.5 -6t15.5 -4.5t16.5 -1q60 0 74 53q14 54 -45 54zM286 303q-7 -25 5.5 -38.5t37.5 -13.5q10 0 20.5 2t18.5 4.5t20.5 9t18.5 10t22 12.5t22 13 q-7 5 -22.5 18.5t-23 19t-21 11t-27.5 5.5q-58 0 -71 -53z" glyph-name="infinity" horiz-adv-x="991" unicode="∞"/><glyph d="M211 -125h-215l49 180h56q28 0 40 14t31 58l223 535q18 43 31.5 67.5t36 48.5t53 34t73.5 10h214l-48 -180h-79q-20 0 -36 -8t-29 -26.5t-19.5 -30.5t-17.5 -38q-3 -6 -4 -9l-207 -495q-32 -86 -62.5 -123t-89.5 -37z" glyph-name="integral" horiz-adv-x="613" unicode="∫"/><glyph d="M344 305l-234 -11q10 91 101 183.5t192 100.5q47 3 84 -6t56 -21.5t44.5 -22t53.5 -7.5q29 1 53.5 21.5t30.5 48.5l252 11q-22 -110 -114 -190.5t-217 -89.5q-48 -3 -88.5 15t-72.5 33t-65 8q-29 -6 -50.5 -27.5t-25.5 -45.5zM263 0l-235 -11q10 91 101.5 183.5 t192.5 100.5q47 3 83.5 -6t55.5 -21.5t45 -22t54 -7.5q29 2 53.5 22t30.5 48l251 11q-22 -110 -114 -190.5t-217 -89.5q-48 -3 -88 15t-72.5 33t-65.5 8q-29 -6 -50 -27.5t-25 -45.5z" glyph-name="approxequal" horiz-adv-x="835" unicode="≈"/><glyph d="M150 99h-94l51 189h193l26 27h-212l51 190h325l110 114h174l-110 -114h109l-51 -190h-211l-25 -27h229l-51 -189h-340l-86 -91h-174z" glyph-name="notequal" horiz-adv-x="668" unicode="≠"/><glyph d="M132 430l392 182l-55 -207l-70 -32l52 -32l-55 -205l-294 182zM342 -73h-347l52 190h345z" glyph-name="lessequal" horiz-adv-x="376" unicode="≤"/><glyph d="M475 430l-30 -112l-393 -182l56 205l69 32l-52 32l55 207zM-5 -73l52 190h345l-50 -190h-347z" glyph-name="greaterequal" horiz-adv-x="376" unicode="≥"/><glyph d="M354 547h115l128 -220l-246 -220h-115l-128 220zM289 327l44 -75l84 75l-44 75z" glyph-name="lozenge" horiz-adv-x="530" unicode="◊"/><glyph d="M82 0l83 310h-72l51 190h183q-11 0 -27 2.5t-39 9.5t-35 23.5t-6 40.5q7 26 22.5 46t33 33t48 22t53.5 13.5t63.5 6.5t63.5 2.5t68 0.5l-41 -152q-159 0 -164 -22q-3 -14 17.5 -20t52.5 -6h204q-6 0 -15.5 2.5t-25 9.5t-25 20t-15 35t4.5 53q16 63 94.5 98.5t207.5 40.5 l-45 -169q-66 0 -91 -12t-33 -39q-6 -17 7 -28t35 -11h58l-51 -190h-73l-83 -310h-210l83 310h-89l-83 -310h-210z" glyph-name="uniFB00" horiz-adv-x="674" unicode="ﬀ"/><glyph d="M93 310l51 190h108q-15 0 -27.5 22.5t-4.5 53.5q19 69 119.5 109.5t222.5 40.5q85 0 151.5 -19.5t104 -64t20.5 -106.5h-208q7 30 -19 48t-65 18q-31 0 -55.5 -12t-30.5 -34q-8 -32 4 -44t42 -12h58l-51 -190h-106l-83 -310h-210l83 310h-104zM694 0h-210l134 500h210z " glyph-name="uniFB01" horiz-adv-x="704" unicode="ﬁ"/><glyph d="M436 310l51 190h108q-15 0 -27.5 22.5t-4.5 53.5q19 69 119.5 109.5t222.5 40.5q85 0 151.5 -19.5t104 -64t20.5 -106.5h-208q7 30 -19 48t-65 18q-31 0 -55.5 -12t-30.5 -34q-8 -32 4 -44t42 -12h58l-51 -190h-106l-83 -310h-210l83 310h-104zM292 0h-210l83 310h-72 l51 190h183q-11 0 -27 2.5t-39 9.5t-35 23.5t-6 40.5q7 26 22.5 46t33 33t48 22t53.5 13.5t63.5 6.5t63.5 2.5t68 0.5l-41 -152q-159 0 -164 -22q-3 -14 17.5 -20t52.5 -6h50l-51 -190h-61zM1037 0h-210l134 500h210z" glyph-name="uniFB03" horiz-adv-x="1047" unicode="ﬃ"/><glyph d="M269 384h-146l72 269l23 47h217zM518 384h-146l73 269l22 47h218z" glyph-name="glyph390" horiz-adv-x="517"/><glyph d="M455 384l2 316h218l-3 -47l-72 -269h-145zM351 384h-146l3 316h217l-2 -47z" glyph-name="glyph391" horiz-adv-x="517"/></font>
</defs>
</svg>
