<?xml version="1.0" encoding="UTF-8" standalone="no"?><!DOCTYPE svg PUBLIC "-//W3C//DTD SVG 1.1//EN" "http://www.w3.org/Graphics/SVG/1.1/DTD/svg11.dtd"><svg width="100%" height="100%" viewBox="0 0 1887 384" version="1.1" xmlns="http://www.w3.org/2000/svg" xmlns:xlink="http://www.w3.org/1999/xlink" xml:space="preserve" xmlns:serif="http://www.serif.com/" style="fill-rule:evenodd;clip-rule:evenodd;stroke-linecap:square;stroke-linejoin:round;stroke-miterlimit:1.5;"><g><path d="M1884.14,18.406l0,346.739c0,9.113 -7.398,16.511 -16.511,16.511l-1849.23,0c-9.112,0 -16.511,-7.398 -16.511,-16.511l0,-346.739c0,-9.112 7.399,-16.511 16.511,-16.511l1849.23,0c9.113,0 16.511,7.399 16.511,16.511Z" style="fill:none;stroke:#000;stroke-width:3.79px;"/><g><path d="M725.888,268.634c-237.089,0.061 -358.504,0.102 -363.373,0.027c-72.889,-1.114 -145.074,-30.845 -209.184,-79.574c-0.241,-0.183 -0.493,-0.354 -0.724,-0.551c-11.078,-9.484 -19.387,-19.746 -15.892,-26.937c2.929,-6.025 10.498,-0.683 26.072,2.581c1.395,0.293 55.998,13.299 117.186,9.841c49.988,-2.825 83.912,-15.858 88.314,-34.654c1.649,-7.041 -0.81,-11.609 -1.286,-12.493c-9.296,-17.273 -52.871,-23.012 -60.369,-24.041c-55.95,-7.681 -130.4,-3.002 -179.659,-3.002c-2.631,-0 -3.689,0.439 -4.535,1.866c-2.534,4.273 -1.975,13.732 -1.975,13.737l-0,265.841l-26.25,0c-0,-57.169 -0.016,-100.627 -0.034,-135.859c-0.067,-127.991 -0.175,-130.684 0.263,-136.773c0.398,-5.524 1.96,-25.64 19.085,-32.782c6.414,-2.675 11.755,-2.259 17.702,-2.302c68.576,-0.505 184.367,-8.438 235.655,19.168c6.626,3.566 30.901,17.128 27.961,46.598c-3.164,31.719 -35.754,44.736 -46.208,48.615c-24.667,9.152 -56.802,12.889 -89.479,12.908c-15.167,0.009 -27.161,-0.659 -39.984,-1.811c-0.564,-0.05 -11.999,-4.673 -12.557,-4.725c0.494,0.283 9.568,5.024 10.067,5.307c37.033,20.997 89.609,42.826 150.074,42.824l11.648,-0.002c1.45,-0.398 2.286,-0.21 4.888,-0.421c7.604,-0.615 19.094,-2.72 27.627,-7.721c9.147,-5.36 11.081,-11.727 11.082,-17.764c-0,-0.128 -0,-0.255 -0,-0.382c0.001,-12.676 -0.056,-15.584 -0.005,-17.471c-0.002,-2.286 -0.002,-2.474 0.005,-2.836c0.364,-18.931 1.381,-39.696 1.55,-43.146c0.144,-2.926 1.18,-24.074 2.313,-36.542c0.915,-10.079 3.174,-24.153 3.509,-26.245c0.856,-5.331 2.78,-18.313 3.634,-19.167c0.854,-0.854 0.911,-0.881 2.119,-0.881c1.208,-0 1.264,0.027 2.118,0.881c0.539,0.538 2.778,13.838 3.634,19.171c0.336,2.092 2.594,16.169 3.51,26.257c1.132,12.475 2.169,33.635 2.312,36.562c0.057,1.158 0.209,4.265 0.4,8.599c4.439,-2.639 9.631,-5.143 15.695,-7.436c8.285,-3.131 18.39,-6.009 50.173,-6.286c22.503,-0.196 44.793,0.726 68.048,1.122c7.191,0.122 40.409,1.21 65.412,-0.063c11.376,-0.58 15.034,-4.898 16.605,-10.2c0.401,-7.962 0.883,-16.467 1.361,-22.314c0.849,-10.387 3.163,-24.568 3.51,-26.693c0.846,-5.184 2.78,-17.865 3.634,-18.719c0.854,-0.854 0.91,-0.881 2.118,-0.881c1.208,-0 1.265,0.027 2.119,0.881c0.538,0.538 2.787,13.537 3.633,18.722c0.347,2.127 2.661,16.31 3.51,26.706c1.079,13.204 2.18,39.958 2.323,43.435c0.159,3.862 1.122,27.256 1.54,48.29c0.205,10.297 -0.243,13.783 -0.395,14.972c-0.778,6.066 -2.657,11.522 -5.464,16.373c-0.624,1.078 -4.452,5.859 -5.166,6.877l7.112,-3.734l41.26,-0.008c0.332,6.211 0.869,14.879 1.73,25.905c0.01,0.116 0.019,0.233 0.028,0.35Zm39.349,-26.262l9.7,-0.002c15.022,-1.593 19.46,-10.509 20.493,-12.16c26.284,-42.027 79.214,-62.021 149.22,-74.924c5.583,-1.03 31.49,-5.799 53.585,-12.73c47.413,-14.875 57.24,-32.13 60.107,-44.096c-27.226,-0.472 -54.456,-0.745 -81.681,-1.288c-33.701,-0.673 -91.815,-2.8 -99.797,-3.092c-19.562,-0.716 -39.118,-1.567 -58.679,-2.293c-1.035,-0.038 -2.071,0 -3.106,0c-0.301,0 -2.034,0 -3.482,-1.448c-0.446,-0.446 -0.817,-0.986 -1.06,-1.568c-0.117,-0.283 -0.798,-1.915 0,-3.829c0.774,-1.854 2.353,-2.513 2.628,-2.628c0.598,-0.249 1.258,-0.339 1.904,-0.389c1.036,-0.08 2.078,0.039 3.116,0c19.561,-0.726 39.117,-1.576 58.679,-2.292c7.982,-0.293 59.547,-2.18 99.797,-3.092c17.054,-0.387 34.11,-0.652 51.166,-0.927c0.707,-0.011 43.701,-0.603 43.724,-0.602c0.62,0.033 1.243,0.049 1.856,0.146c5.97,0.946 8.317,5.568 8.707,6.336c0.851,1.675 1.096,3.238 1.142,3.531c0.196,1.253 0.523,10.144 -1.551,19.274c-7.771,34.201 -42.237,55.573 -102.484,70.537c-12.007,2.983 -27.416,5.823 -29.813,6.265c-63.135,11.637 -105.219,28.139 -127.09,56.389c-1.229,1.586 -5.624,8.287 -6.725,9.949l6.861,-5.077l343.275,-0.062l18.402,4.139c-1.934,-0.723 -15.683,-5.629 -17.611,-6.438c-5.481,-2.302 -10.919,-4.965 -16.214,-8.043c-41.798,-24.299 -47.637,-59.149 -39.9,-83.825c8.014,-25.557 31.762,-49.209 69.407,-64.091c49.577,-19.598 112.892,-19.139 161.847,1.59c23.846,10.098 38.105,23.475 38.389,23.725c37.96,33.529 39.419,79.671 5.244,114.079c-6.16,6.203 -13.35,11.905 -21.404,17.015c-0.966,0.613 -9.802,3.802 -10.793,4.398l12.093,-2.585l49.815,-0.009c20.262,-0.002 28.465,-8.816 33.03,-23.89c8.882,-29.33 0.249,-77.942 8.249,-109.31c1.899,-7.446 9.365,-35.077 42.231,-35.073c26.51,0.002 45.734,25.894 60.302,50.732c21.631,36.88 41.83,88.246 60.216,102.623c5.162,4.036 7.635,3.165 9.967,1.801c12.218,-7.15 26.338,-38.946 36.766,-61.589c20.704,-44.951 44.255,-95.571 86.269,-91.129c28.86,3.051 36.062,30.473 38.122,39.096c4.486,18.776 3.798,40.553 3.718,54.739l-0.841,210.575l-19.812,0.004c-0.009,-35.047 -0.071,-38.846 -0.351,-73.894l-1.171,-150.655c-0.342,-28.196 -4.487,-50.272 -16.463,-55.44c-0.779,-0.336 -8.043,-3.383 -16.769,0.373c-24.618,10.596 -44.133,63.869 -61.501,100.459c-13.124,27.65 -27.467,52.113 -49.463,53.729c-22.163,1.628 -38.459,-20.887 -51.349,-43.035c-21.204,-36.434 -42.391,-89.604 -65.652,-107.272c-6.966,-5.291 -11.682,-5.148 -15.434,-4.658c-6.007,0.784 -11.739,3.604 -14.585,21.182c-5.242,32.38 4.923,85.889 -13.307,118.804c-14.008,25.292 -38.674,28.077 -52.126,28.078c-53.28,0.006 -104.547,0.012 -153.798,0.019c-1.377,0.024 -2.758,0.036 -4.143,0.036c-4.379,0.001 -8.759,-0 -13.139,0l0,-0.033c-184.959,0.027 -340.932,0.062 -467.809,0.094c-2.534,0.204 -4.372,0.197 -4.955,0.199c-0.301,0.001 -1.138,0.004 -2.27,-0.197c-1.823,0 -3.64,0.001 -5.451,0.001c0.655,-8.317 1.284,-17.346 1.752,-26.252Zm-328.877,3.997l6.775,-3.939l173.964,-0.032c1.353,-0.342 2.222,-0.175 4.726,-0.378c7.604,-0.615 19.094,-2.721 27.626,-7.721c9.149,-5.361 11.081,-11.729 11.082,-17.764c0.001,-2.902 -0.057,-5.804 0,-8.705c0.418,-21.019 1.381,-44.4 1.54,-48.26c0.009,-0.212 0.021,-0.511 0.037,-0.888c-6.49,3.77 -13.569,4.539 -16.24,4.922c-26.599,3.811 -50.092,4.909 -63.027,5.5c-10.392,0.474 -50.497,1.272 -62.641,1.718c-37.545,1.378 -43.975,4.482 -50.326,7.303c-11.929,5.299 -19.006,11.5 -21.081,17.856c-0.449,1.377 -0.526,2.648 -0.539,3.203c0,5.089 -0.002,14.555 -0.003,16.969c-0,0.205 -0,0.359 -0,0.456c-0.003,8.603 -2.113,16.293 -6.053,22.955c-0.579,0.978 -3.093,4.656 -5.84,6.805Zm822.538,-4.086c1.531,-0.009 2.727,-0.02 3.278,-0.033c82.53,-1.948 143.027,-51.119 113.951,-97.665c-13.647,-21.846 -43.667,-37.752 -76.192,-44.95c-47.2,-10.447 -101.647,-3.564 -137.572,19.135c-27.783,17.555 -32.465,36.12 -33.821,42.479c-4.989,23.401 9.379,44.117 31.5,58.811c4.102,2.724 22.306,14.785 54.397,22.231l44.459,-0.008Z"/><path d="M754.649,66.507c0.837,0 1.64,0.333 2.232,0.925c0.592,0.592 0.924,1.394 0.924,2.231c0,21.311 0,143.327 0,143.327c-0.063,6.068 -0.191,12.136 -0.409,18.201c-1.088,30.168 -4.828,66.06 -5.425,71.789c-0.312,2.987 -2.496,23.953 -4.174,37.305c-0.161,1.278 -0.176,1.322 -1.08,2.244c-0.828,0.844 -0.857,0.934 -2.037,0.934c-1.18,-0 -1.209,-0.09 -2.036,-0.934c-1.075,-1.096 -0.959,-1.208 -1.142,-2.733c-0.689,-5.762 -4.889,-40.883 -7.334,-72.162c-1.651,-21.132 -2.098,-33.524 -2.203,-36.443c-0.219,-6.065 -0.346,-12.133 -0.41,-18.201c-0.073,-6.93 0,-13.861 0,-20.791c0,0 0,-103.056 0,-122.536c0,-0.837 0.333,-1.639 0.925,-2.231c0.591,-0.592 1.394,-0.925 2.231,-0.925c5.05,0 14.889,0 19.938,0Z"/><path d="M754.649,66.507c0.837,0 1.64,0.333 2.232,0.925c0.592,0.592 0.924,1.394 0.924,2.231c0,21.311 0,143.327 0,143.327c-0.063,6.068 -0.191,12.136 -0.409,18.201c-1.088,30.168 -4.828,66.06 -5.425,71.789c-0.312,2.987 -2.496,23.953 -4.174,37.305c-0.161,1.278 -0.176,1.322 -1.08,2.244c-0.828,0.844 -0.857,0.934 -2.037,0.934c-1.18,-0 -1.209,-0.09 -2.036,-0.934c-1.075,-1.096 -0.959,-1.208 -1.142,-2.733c-0.689,-5.762 -4.889,-40.883 -7.334,-72.162c-1.651,-21.132 -2.098,-33.524 -2.203,-36.443c-0.219,-6.065 -0.346,-12.133 -0.41,-18.201c-0.073,-6.93 0,-13.861 0,-20.791c0,0 0,-103.056 0,-122.536c0,-0.837 0.333,-1.639 0.925,-2.231c0.591,-0.592 1.394,-0.925 2.231,-0.925c5.05,0 14.889,0 19.938,0Z" style="fill:none;"/></g></g></svg>