<svg xmlns="http://www.w3.org/2000/svg">
<defs>
<font horiz-adv-x="180" id="ywftsvg"><font-face ascent="800" bbox="-357 -283 1345 948" cap-height="700" descent="-200" font-family="" font-stretch="normal" font-weight="500" panose-1="0 0 0 0 0 0 0 0 0 0" underline-position="0" underline-thickness="0" unicode-range="U+000D-FB03" units-per-em="1000" x-height="500"/><missing-glyph d="M348 23l50 188h64q-1 -14 -5 -43.5t-6 -44.5l35 88h63l-50 -188h-43l34 127l-51 -127h-30l15 124l-33 -124h-43zM237 101l9 32q6 21 10 32t12.5 24.5t22 19.5t33.5 6q38 0 43 -24.5t-8 -57.5l-9 -32q-7 -27 -13 -42t-22.5 -27.5t-42.5 -12.5q-38 0 -43 24.5t8 57.5z M102 90l15 55q9 35 26 52.5t52 17.5q37 0 42.5 -22.5t-7.5 -57.5l-1 -6h-49l7 26q4 16 5 25l-6 3l-9 -4l-7 -19l-23 -87l-3 -18l6 -4l8 4q8 18 13 43h49l-2 -7q-9 -36 -26 -54t-52 -18q-34 0 -41.5 19t3.5 52zM405 242h-49l51 189h49q31 0 44 -13q4 -18 -4 -49 q-8 -24 -13 -34q-17 -17 -57 -17zM402 498h-42l20 129h32l-17 -88q14 40 33 88h35q-4 -25 -17 -92q13 41 33 92h33l-49 -129h-42q4 44 8 68zM561 242h-85l50 189h82l-10 -38h-33l-9 -36h30l-9 -36h-31l-11 -41h36zM198 242h-49l40 151h-29l10 38h107l-10 -38h-29zM276 268 q19 69 7 163h45q-5 -58 -8 -75q10 25 34 75h44q-80 -121 -86 -189h-45q6 14 9 26zM276 551l6 22q7 29 17.5 42.5t36.5 13.5t29.5 -16.5t-5.5 -39.5l-6 -22q-7 -28 -17.5 -41.5t-36.5 -13.5t-29.5 16t5.5 39zM169 453l6 23h449l-6 -23h-449zM589 498h-34l35 129h34 q22 0 29.5 -7t1.5 -27q-3 -11 -9 -22q-10 -5 -17 -6q7 -1 12 -6l2 -8l-4 -19l-9 -34h-31l9 32q4 16 4 24l-8 2zM182 498l34 129h34q20 0 29 -9q4 -11 -2 -33q-2 -11 -9 -23q-11 -12 -39 -12l-14 -52h-33zM544 498h-60l35 129h59l-8 -30h-26l-6 -20h27l-8 -29h-26l-5 -19h26z M275 55l5 -4l8 4l7 21l23 87l3 17l-5 3l-7 -3q-5 -14 -6 -17l-24 -88zM72 23h-36l10 38h36zM302 520l4 -3l5 3l5 15l16 59l2 11l-4 3l-4 -2q-4 -8 -5 -12zM447 398l-13 -48h4l10 4q6 11 6 13l5 16v12zM235 572h2l7 2q0 1 2 4.5t2 5.5l3 10q1 2 1 5v4l-9 2zM609 576l9 2 q0 2 2 5t3 5l2 7v8l-8 2z" horiz-adv-x="526"/><glyph d="M348 23l50 188h64q-1 -14 -5 -43.5t-6 -44.5l35 88h63l-50 -188h-43l34 127l-51 -127h-30l15 124l-33 -124h-43zM237 101l9 32q6 21 10 32t12.5 24.5t22 19.5t33.5 6q38 0 43 -24.5t-8 -57.5l-9 -32q-7 -27 -13 -42t-22.5 -27.5t-42.5 -12.5q-38 0 -43 24.5t8 57.5z M102 90l15 55q9 35 26 52.5t52 17.5q37 0 42.5 -22.5t-7.5 -57.5l-1 -6h-49l7 26q4 16 5 25l-6 3l-9 -4l-7 -19l-23 -87l-3 -18l6 -4l8 4q8 18 13 43h49l-2 -7q-9 -36 -26 -54t-52 -18q-34 0 -41.5 19t3.5 52zM405 242h-49l51 189h49q31 0 44 -13q4 -18 -4 -49 q-8 -24 -13 -34q-17 -17 -57 -17zM402 498h-42l20 129h32l-17 -88q14 40 33 88h35q-4 -25 -17 -92q13 41 33 92h33l-49 -129h-42q4 44 8 68zM561 242h-85l50 189h82l-10 -38h-33l-9 -36h30l-9 -36h-31l-11 -41h36zM198 242h-49l40 151h-29l10 38h107l-10 -38h-29zM276 268 q19 69 7 163h45q-5 -58 -8 -75q10 25 34 75h44q-80 -121 -86 -189h-45q6 14 9 26zM276 551l6 22q7 29 17.5 42.5t36.5 13.5t29.5 -16.5t-5.5 -39.5l-6 -22q-7 -28 -17.5 -41.5t-36.5 -13.5t-29.5 16t5.5 39zM169 453l6 23h449l-6 -23h-449zM589 498h-34l35 129h34 q22 0 29.5 -7t1.5 -27q-3 -11 -9 -22q-10 -5 -17 -6q7 -1 12 -6l2 -8l-4 -19l-9 -34h-31l9 32q4 16 4 24l-8 2zM182 498l34 129h34q20 0 29 -9q4 -11 -2 -33q-2 -11 -9 -23q-11 -12 -39 -12l-14 -52h-33zM544 498h-60l35 129h59l-8 -30h-26l-6 -20h27l-8 -29h-26l-5 -19h26z M275 55l5 -4l8 4l7 21l23 87l3 17l-5 3l-7 -3q-5 -14 -6 -17l-24 -88zM72 23h-36l10 38h36zM302 520l4 -3l5 3l5 15l16 59l2 11l-4 3l-4 -2q-4 -8 -5 -12zM447 398l-13 -48h4l10 4q6 11 6 13l5 16v12zM235 572h2l7 2q0 1 2 4.5t2 5.5l3 10q1 2 1 5v4l-9 2zM609 576l9 2 q0 2 2 5t3 5l2 7v8l-8 2z" glyph-name=".notdef" horiz-adv-x="526"/><glyph glyph-name="glyph1" horiz-adv-x="0"/><glyph glyph-name="glyph1" horiz-adv-x="0"/><glyph glyph-name="space" horiz-adv-x="200" unicode=" "/><glyph d="M155 185l8 206l82 309h120l-82 -309l-103 -206h-25zM46 -8h141l32 119h-141z" glyph-name="exclam" horiz-adv-x="236" unicode="!"/><glyph d="M409 455h-33l1 185l16 60h131l-16 -60zM223 455h-32v185l16 60h131l-16 -60z" glyph-name="quotedbl" horiz-adv-x="357" unicode="&quot;"/><glyph d="M181 177h-128l71 112h125l71 128h-128l72 112h124l97 171h128l-97 -171h138l97 171h128l-98 -171h177l-72 -112h-172l-72 -128h176l-71 -112h-172l-100 -177h-128l100 177h-138l-99 -177h-128zM377 289h137l72 128h-138z" glyph-name="numbersign" horiz-adv-x="831" unicode="#"/><glyph d="M98 211l116 8q-21 -98 102 -107l57 211q-32 4 -52 7.5t-45.5 11t-40.5 16t-30 22.5t-20.5 32t-5.5 44t9 58q25 94 107.5 142.5t181.5 52.5l9 35h117l-10 -36q99 -4 144.5 -55t28.5 -138l-114 -10q16 87 -88 96l-50 -189q114 -12 173.5 -56t35.5 -136q-13 -47 -34.5 -83.5 t-58 -68t-94 -50t-134.5 -22.5l-11 -42h-117l11 42q-230 16 -187 215zM487 312l-54 -201q66 3 108 31t54 75q12 44 -15.5 63.5t-92.5 31.5zM401 427l47 174q-54 -4 -92.5 -29.5t-49.5 -67.5q-9 -34 14.5 -51.5t80.5 -25.5z" glyph-name="dollar" horiz-adv-x="707" unicode="$"/><glyph d="M384 700q100 0 127 -68q24 -58 -18 -124q-48 -76 -141 -94q-23 -4 -46 -4q-100 0 -127 68q-24 58 18 124q48 76 141 94q23 4 46 4zM660 290q100 0 127 -68q24 -58 -18 -124q-47 -76 -140 -94q-23 -4 -46 -4q-100 0 -128 68q-23 58 18 124q48 76 141 94q23 4 46 4zM199 0 h-158l725 700h158zM326 485q55 0 83 48q25 41 5 71q-15 22 -50 22q-55 0 -83 -48q-25 -41 -4 -71q15 -22 49 -22zM603 75q55 0 83 46q24 41 5 71q-15 23 -51 23q-55 0 -83 -46q-24 -41 -5 -71q15 -23 51 -23z" glyph-name="percent" horiz-adv-x="775" unicode="%"/><glyph d="M292 0q-117 0 -173 55t-32 145q11 41 34.5 72t56.5 50.5t68 31.5t80 20q-80 13 -109.5 58t-15.5 101q21 74 105.5 120.5t205.5 46.5q99 0 153 -18t98 -61l-85 -68q-64 59 -189 59q-59 0 -105.5 -26.5t-57.5 -69.5q-12 -44 18 -74t89 -30l203 -1l25 91l114 -21l-19 -69 l102 1l-21 -84h-103l-88 -330h-120l43 161q-78 -160 -277 -160zM205 200q-12 -47 17 -78.5t93 -31.5q114 0 190 55.5t99 144.5l10 39h-149q-110 -3 -176 -32.5t-84 -96.5z" glyph-name="ampersand" horiz-adv-x="762" unicode="&amp;"/><glyph d="M190 455l1 185l16 60h131l-16 -60l-100 -185h-32z" glyph-name="quotesingle" horiz-adv-x="169" unicode="'"/><glyph d="M147 -84q-4 6 -11.5 17.5t-22.5 50t-23.5 81t-6.5 108.5t20 135t51 134.5t67 110t65 79.5t51 52l20 16h116q-7 -6 -20 -17.5t-48.5 -50t-66 -81t-64 -108.5t-51.5 -135q-28 -123 -19 -210.5t34 -134.5l25 -47h-116z" glyph-name="parenleft" horiz-adv-x="316" unicode="("/><glyph d="M114 -84h-117q8 6 20.5 17.5t48 50t66 81t64.5 108.5t52 135t20.5 134.5t-6.5 110t-21 79.5t-23 52l-10 16h116q4 -6 11.5 -17.5t22.5 -50t23.5 -81t6.5 -108.5t-20 -135t-51 -134.5t-67 -110t-65 -79.5t-51 -52z" glyph-name="parenright" horiz-adv-x="316" unicode=")"/><glyph d="M532 669l41 -83l-154 -47l129 -50l-81 -77l-83 88l-8 -138l-1 -1h-118v1l71 138l-137 -84l-40 73l163 50l-137 47l87 83l85 -90l1 129h118l-63 -129z" glyph-name="asterisk" horiz-adv-x="437" unicode="*"/><glyph d="M284 232h-196l30 112h196l46 172h120l-46 -172h195l-30 -112h-195l-48 -179h-120z" glyph-name="plus" horiz-adv-x="563" unicode="+"/><glyph d="M24 -114h-19l13 48h19q64 0 80 58h-84l33 122h133l-33 -122q-15 -58 -46.5 -82t-95.5 -24z" glyph-name="comma" horiz-adv-x="204" unicode=","/><glyph d="M85 207l33 120h397l-32 -120h-398z" glyph-name="hyphen" horiz-adv-x="457" unicode="-"/><glyph d="M174 -8h-141l32 119h141z" glyph-name="period" horiz-adv-x="213" unicode="."/><glyph d="M-11 -95l610 795h134l-609 -795h-135z" glyph-name="slash" horiz-adv-x="561" unicode="/"/><glyph d="M295 -10q-54 0 -93.5 13.5t-62.5 34.5t-35 53t-15 62t1.5 69t10 66t14.5 60q13 49 26.5 87.5t44 92.5t67.5 90t98 62t135 26q54 0 93.5 -13.5t62.5 -34.5t35 -53t15 -62t-1.5 -69t-10 -66t-14.5 -60q-13 -49 -26.5 -87.5t-44 -92.5t-67.5 -90t-98 -62t-135 -26zM236 348 q-14 -53 -18 -92t3 -72t34 -50.5t73 -17.5q155 0 217 232q63 232 -92 233q-85 0 -136 -60t-81 -173z" glyph-name="zero" horiz-adv-x="594" unicode="0"/><glyph d="M140 467l30 111q154 0 187 122h120l-188 -700h-120l136 509q12 38 30 75h-2q-29 -57 -42 -70q-45 -47 -151 -47z" glyph-name="one" horiz-adv-x="309" unicode="1"/><glyph d="M22 0l5 20q19 70 57.5 126.5t85 92.5t99 64.5t102.5 49t92 39t71.5 41.5t36.5 50q30 115 -111 115q-65 0 -113.5 -33t-67.5 -96l-118 6q72 231 335 231q123 0 178 -52t28 -154q-16 -59 -53 -100.5t-87.5 -67.5t-103 -48.5t-111.5 -59t-101 -84.5q-27 -29 -64 -45l1 -2 q38 19 75 19h344l-30 -112h-550z" glyph-name="two" horiz-adv-x="590" unicode="2"/><glyph d="M312 -6q-129 0 -190.5 55.5t-36.5 167.5l121 5q-13 -51 24.5 -83.5t102.5 -32.5q67 0 120 33t67 87q14 51 -18.5 74.5t-110.5 24.5h-50l18 77h53q139 0 167 102q13 50 -19.5 78.5t-91.5 28.5t-109 -34.5t-67 -83.5l-117 6q31 104 117 155.5t209 50.5q112 -1 163 -46.5 t27 -136.5q-15 -59 -68 -96t-116 -40v-2q48 2 71 -8q46 -19 59 -55t-4 -110q-29 -105 -114 -161t-207 -56z" glyph-name="three" horiz-adv-x="603" unicode="3"/><glyph d="M412 182h-348l19 72l438 446h151l-110 -412h123l-15 -106h-98q-36 0 -57 28l-2 -2q20 -26 10 -64l-38 -144h-122zM520 586l-263 -292h185z" glyph-name="four" horiz-adv-x="645" unicode="4"/><glyph d="M311 -4q-132 0 -192.5 56t-32.5 175l119 4q-17 -75 21 -109.5t110 -34.5q170 0 207 141q19 71 -16 107.5t-99 36.5q-48 0 -95 -21t-72 -57h-156l136 406h518l-26 -100h-421l-47 -165q-11 -34 -36 -64l1 -1q29 35 55 48q89 44 184 44q107 0 166 -61t29 -173 q-33 -120 -127.5 -176t-225.5 -56z" glyph-name="five" horiz-adv-x="626" unicode="5"/><glyph d="M317 -4q-137 0 -195 79.5t-16 237.5q46 173 157 282.5t266 109.5q54 0 96 -13t65.5 -34t39 -47.5t16 -54.5t-3.5 -55l-130 -9q-2 25 -9.5 46t-32.5 40.5t-66 19.5q-34 0 -68.5 -13t-70.5 -40.5t-68.5 -77.5t-55.5 -116q-14 -38 -30 -69l2 -1q23 46 40 64q41 43 103 67 t126 24q101 0 159 -55.5t31 -158.5q-30 -114 -129.5 -170t-225.5 -56zM211 222q-16 -62 19.5 -97t112.5 -35q174 0 209 132q16 59 -15.5 95.5t-113.5 37.5q-66 1 -131 -37t-81 -96z" glyph-name="six" horiz-adv-x="635" unicode="6"/><glyph d="M232 -3h-139l472 562q23 28 59 44v2q-40 -17 -72 -17h-378l30 112h569l-23 -86z" glyph-name="seven" horiz-adv-x="605" unicode="7"/><glyph d="M317 -6q-131 0 -200 53t-42 153q28 108 146 157q26 13 73 9v2q-48 4 -69 24q-54 44 -31 126q24 91 110 139.5t203 47.5q118 -1 178 -49t36 -138q-24 -85 -109 -132q-26 -15 -72 -15v-2q47 0 72 -16q85 -48 57 -153q-27 -99 -124.5 -152.5t-227.5 -53.5zM200 215 q-15 -59 24.5 -90t119.5 -31q77 0 135 29.5t74 91.5q16 60 -24.5 83.5t-123.5 25.5q-175 2 -205 -109zM307 507q-15 -54 18 -79.5t101 -25.5q148 0 176 105q16 59 -16.5 84.5t-101.5 25.5q-149 0 -177 -110z" glyph-name="eight" horiz-adv-x="636" unicode="8"/><glyph d="M294 -4q-129 0 -182.5 55t-38.5 138l132 11q-2 -55 27.5 -78t99.5 -22q66 1 139 67.5t113 174.5q14 38 30 69l-2 1q-23 -46 -39 -65q-85 -101 -220 -101q-103 0 -167 64t-36 169q16 61 52.5 105.5t86 70.5t106.5 38t121 12q145 0 197 -76t7 -241q-44 -164 -157.5 -278 t-268.5 -114zM281 478q-13 -48 6.5 -79.5t54.5 -42.5t82 -12q58 -1 118.5 39.5t74.5 94.5q13 49 -19 93.5t-101 44.5q-75 0 -136 -33t-80 -105z" glyph-name="nine" horiz-adv-x="646" unicode="9"/><glyph d="M246 312h-127l32 118h127zM168 18h-128l32 118h128z" glyph-name="colon" horiz-adv-x="198" unicode=":"/><glyph d="M21 -89l12 48h19q66 0 80 58h-83l33 122h133l-33 -122q-15 -58 -46.5 -82t-95.5 -24h-19zM261 313h-133l32 117h133z" glyph-name="semicolon" horiz-adv-x="202" unicode=";"/><glyph d="M100 326l374 160l-32 -119l-218 -91l169 -91l-32 -118l-288 160z" glyph-name="less" horiz-adv-x="352" unicode="&lt;"/><glyph d="M120 336l30 112h512l-30 -112h-512zM62 121l30 111h512l-30 -111h-512z" glyph-name="equal" horiz-adv-x="577" unicode="="/><glyph d="M434 326l-27 -99l-374 -160l32 118l218 91l-169 91l32 119z" glyph-name="greater" horiz-adv-x="362" unicode=">"/><glyph d="M149 500q25 95 110.5 150.5t199.5 55.5q116 0 168.5 -51.5t24.5 -154.5q-12 -46 -43 -77.5t-67.5 -49.5l-73 -36t-68 -51.5t-44.5 -82.5l-5 -17h-120l5 17q17 64 51 110t71.5 69.5t73.5 41.5t63 38t34 47q14 51 -10.5 79.5t-83.5 28.5q-63 0 -106.5 -32.5t-59.5 -84.5 h-120zM172 3l32 119h141l-32 -119h-141z" glyph-name="question" horiz-adv-x="566" unicode="?"/><glyph d="M789 -47q-199 -56 -351 -56q-211 0 -298 109t-32 314q47 176 202.5 286.5t362.5 110.5q215 0 294.5 -106.5t30.5 -290.5q-33 -122 -103.5 -182t-145.5 -60q-43 0 -75 20t-40 54q-8 25 13 71l-2 1q-16 -42 -41 -60q-65 -50 -141 -50q-81 0 -125.5 50.5t-22.5 132.5 q22 85 95.5 138.5t152.5 53.5q76 0 112 -31q18 -16 25 -62l2 1q-5 36 2 66l4 13h108l-53 -200q-10 -38 -3 -60.5t26 -22.5q25 0 54 40.5t50 119.5q30 113 -27.5 184t-199.5 71q-163 0 -281 -77.5t-154 -210.5q-42 -157 32 -239t244 -82q136 0 311 50zM428 298 q-14 -53 11.5 -83t84.5 -30q46 0 84 30.5t54 92.5q30 110 -76 110q-53 0 -98 -32t-60 -88z" glyph-name="at" horiz-adv-x="930" unicode="@"/><glyph d="M21 0l452 700h166l77 -700h-130l-20 155h-313l-101 -155h-131zM522 580l-207 -322q138 0 170 -5q60 -11 81 -83z" glyph-name="A" horiz-adv-x="737" unicode="A"/><glyph d="M27 0l187 700h311q118 0 169 -44t27 -134q-6 -26 -38.5 -60.5t-79.5 -53.5q-18 -7 -55 -9l1 -2q34 2 54 -4q116 -34 77 -182q-57 -211 -312 -211h-341zM177 111h230q56 0 101 28t59 79q12 43 -12 65.5t-77 22.5h-249zM305 591l-50 -190h232q101 0 126 95q13 49 -18 72 t-89 23h-201z" glyph-name="B" horiz-adv-x="645" unicode="B"/><glyph d="M116 350q47 176 168.5 267.5t276.5 89.5q129 -2 203.5 -64t71.5 -182l-125 -30q1 69 -46.5 112t-136.5 43q-109 1 -185.5 -62.5t-106.5 -173.5q-29 -110 16 -173.5t150 -62.5q91 0 160.5 43t104.5 112l109 -30q-61 -120 -169 -182t-237 -64q-156 -2 -228.5 89.5 t-25.5 267.5z" glyph-name="C" horiz-adv-x="734" unicode="C"/><glyph d="M333 0h-303l188 700h302q100 0 168.5 -38t97 -115.5t-3.5 -196.5q-30 -115 -101 -195.5t-159.5 -117.5t-188.5 -37zM300 557q-10 -37 -119 -445h190q56 0 111 22t106.5 78t73.5 138q31 117 -21.5 177.5t-142.5 60.5h-266q76 0 68 -31z" glyph-name="D" horiz-adv-x="714" unicode="D"/><glyph d="M779 700l-30 -112h-441l-53 -199h418l-26 -96h-418l-49 -181h441l-30 -112h-561l188 700h561z" glyph-name="E" horiz-adv-x="618" unicode="E"/><glyph d="M30 0l188 700h545l-30 -112h-397q-26 0 -45 23l-1 -1q18 -23 11 -49l-46 -172h405l-26 -96h-375q-29 0 -48 24l-2 -1q20 -24 12 -53l-71 -263h-120z" glyph-name="F" horiz-adv-x="602" unicode="F"/><glyph d="M353 -7q-155 0 -219.5 90t-17.5 267q47 176 169 267.5t279 89.5q130 -2 205 -64t72 -182l-120 -32q-4 76 -59 121t-128 45q-96 1 -181.5 -64.5t-116.5 -180.5q-31 -114 15 -179.5t144 -65.5q68 0 124.5 55t79.5 115h-101l25 92h232q70 0 52 -69q-6 -22 -80 -298h-118 l73 275h-17q-84 -282 -312 -282z" glyph-name="G" horiz-adv-x="749" unicode="G"/><glyph d="M30 0l188 700h120l-78 -289h383l78 289h120l-188 -700h-120l78 290h-383l-78 -290h-120z" glyph-name="H" horiz-adv-x="683" unicode="H"/><glyph d="M30 0l188 700h120l-188 -700h-120z" glyph-name="I" unicode="I"/><glyph d="M305 -7q-52 0 -95.5 12t-78.5 39t-46.5 70.5t0.5 106.5l122 32q-12 -62 19.5 -105t108.5 -43q72 0 133 51.5t85 141.5l108 402h120l-109 -407q-28 -104 -85.5 -173t-127.5 -98t-154 -29z" glyph-name="J" horiz-adv-x="623" unicode="J"/><glyph d="M30 0l188 700h120l-89 -333q-12 -41 -36 -76l2 -1q23 37 57 67l393 343h158l-361 -317l193 -383h-157l-168 336l-134 -165l-46 -171h-120z" glyph-name="K" horiz-adv-x="681" unicode="K"/><glyph d="M550 0h-520l188 700h120l-148 -551q-10 -36 -44 -63l1 -2q35 28 71 28h362z" glyph-name="L" horiz-adv-x="571" unicode="L"/><glyph d="M30 0l188 700h128l90 -526q3 -13 -1 -35l2 -1q3 19 13 33l376 529h128l-188 -700h-120l104 389q18 65 48 126l-2 1q-27 -58 -67 -116l-279 -400h-103l-63 388q-11 65 -8 134h-2q-4 -73 -19 -133l-105 -389h-120z" glyph-name="M" horiz-adv-x="796" unicode="M"/><glyph d="M30 0l188 700h124l239 -483q16 -33 20 -79l2 1q-3 43 8 87l127 474h120l-187 -700h-125l-240 478q-16 33 -20 79l-2 -1q3 -43 -8 -87l-126 -469h-120z" glyph-name="N" horiz-adv-x="701" unicode="N"/><glyph d="M377 -7q-101 0 -169.5 39t-96.5 118t5 200q47 175 172 267t280 90q156 -2 231.5 -93t29.5 -264q-47 -174 -171.5 -265.5t-280.5 -91.5zM237 350q-30 -111 22 -178t147 -67q99 0 185.5 66.5t116.5 178.5q29 112 -22.5 178t-147.5 67q-94 2 -183 -66t-118 -179z" glyph-name="O" horiz-adv-x="757" unicode="O"/><glyph d="M30 0l188 700h330q122 0 174 -58t22 -168q-25 -91 -114.5 -160.5t-203.5 -69.5h-210l-66 -244h-120zM311 598l-69 -257h195q59 0 115 39t70 91q16 62 -18 94.5t-98 32.5h-195z" glyph-name="P" horiz-adv-x="642" unicode="P"/><glyph d="M376 -7q-101 0 -169 39t-96 118t5 200q31 117 102 200t160 120.5t189 36.5q101 -1 169 -39.5t96 -117.5t-5 -200q-28 -105 -98.5 -177.5t-173.5 -102.5v-2q52 14 73 17l158 24l-31 -116h-379zM236 350q-30 -111 20.5 -173.5t151.5 -62.5q111 0 190.5 65t108.5 171 q30 112 -22 174t-150 63q-99 1 -184 -62.5t-115 -174.5z" glyph-name="Q" horiz-adv-x="777" unicode="Q"/><glyph d="M30 0l188 700h353q123 0 176.5 -49t26.5 -149q-22 -79 -95 -121q-39 -31 -123 -44v-2q44 7 64 7q38 0 54 -15q51 -33 23 -138l-50 -189h-121l49 183q16 62 -60 62l-298 -1l-66 -244h-121zM312 598l-67 -250h202q74 0 135 35t76 90q18 68 -15 96.5t-111 28.5h-220z" glyph-name="R" horiz-adv-x="673" unicode="R"/><glyph d="M84 211l118 9q-10 -55 29.5 -83.5t121.5 -29.5q94 -1 153 27.5t74 85.5q8 29 -14 47t-62.5 27t-90.5 15.5t-99 17.5t-87 28.5t-55.5 53t-3.5 87.5q29 107 127 161.5t228 52.5q121 -2 184 -52.5t44 -147.5l-117 -9q9 49 -25 73.5t-116 24.5q-84 0 -137.5 -26.5 t-66.5 -75.5q-6 -23 10.5 -38.5t49 -22.5t74.5 -13.5t86 -12t84.5 -18.5t69 -32.5t40.5 -53.5t-1 -82q-11 -41 -35 -78t-66.5 -72.5t-113.5 -57t-162 -21.5q-67 0 -116.5 12t-75.5 33t-41 48.5t-14 58.5t6 64z" glyph-name="S" horiz-adv-x="667" unicode="S"/><glyph d="M178 588l30 112h627l-30 -112h-219q-31 0 -51 25l-2 -1q18 -25 10 -58l-149 -554h-120l158 588h-254z" glyph-name="T" horiz-adv-x="668" unicode="T"/><glyph d="M113 310l105 390h120l-105 -391q-25 -95 16 -150t132 -55q92 0 160.5 53.5t94.5 151.5l105 391h121l-105 -390q-28 -104 -93.5 -178t-145.5 -107t-167 -33q-92 0 -154 33t-88.5 103.5t4.5 181.5z" glyph-name="U" horiz-adv-x="701" unicode="U"/><glyph d="M275 0l-65 700h127l55 -593q1 -12 -3 -33l2 -1q4 20 12 32l374 595h129l-440 -700h-191z" glyph-name="V" horiz-adv-x="741" unicode="V"/><glyph d="M257 0l-47 700h127l33 -548q0 -13 -4 -35h2q4 20 11 35l278 548h134l-17 -549q0 -10 -7 -33h2q6 19 14 33l330 549h128l-423 -700h-159l15 504q0 3 2 11h-2q-3 -10 -3 -11l-256 -504h-158z" glyph-name="W" horiz-adv-x="1075" unicode="W"/><glyph d="M22 -1l359 354l-166 346h154l112 -230q6 -15 3 -32h2q4 19 15 29l243 233h156l-362 -345l183 -355h-156l-122 238q-7 13 -4 32h-2q-4 -19 -14 -29l-247 -241h-154z" glyph-name="X" horiz-adv-x="736" unicode="X"/><glyph d="M385 321l-181 378h148l109 -237q14 -29 3 -69h2q10 39 40 69l235 237h148l-384 -378l-86 -321h-120z" glyph-name="Y" horiz-adv-x="716" unicode="Y"/><glyph d="M22 0l24 89l571 472q30 26 72 42v1q-38 -15 -77 -15h-424l30 111h635l-24 -89l-565 -472q-30 -24 -73 -42l1 -1q41 16 76 16h436l-30 -112h-652z" glyph-name="Z" horiz-adv-x="696" unicode="Z"/><glyph d="M-5 -132l223 832h308l-30 -112h-150q-36 0 -60 31l-2 -1q24 -30 14 -66l-143 -536q-9 -34 -41 -59l1 -1q31 24 68 24h150l-30 -112h-308z" glyph-name="bracketleft" horiz-adv-x="368" unicode="["/><glyph d="M520 -95h-134l-183 795h134z" glyph-name="backslash" horiz-adv-x="583" unicode="\"/><glyph d="M303 -132h-308l30 112h149q37 0 61 -31l1 1q-24 30 -14 66l144 536q8 34 40 59l-1 1q-31 -24 -68 -24h-149l30 112h308z" glyph-name="bracketright" horiz-adv-x="368" unicode="]"/><glyph d="M291 500h-132l224 300h240l63 -300h-131l-55 246q-5 21 0 48h-2q-6 -26 -18 -43z" glyph-name="asciicircum" horiz-adv-x="577" unicode="^"/><glyph d="M17 -123l30 111h424l-30 -111h-424z" glyph-name="underscore" horiz-adv-x="524" unicode="_"/><glyph d="M303 700l20 -142h-99l-58 142h137z" glyph-name="grave" horiz-adv-x="172" unicode="`"/><glyph d="M458 125q-36 -60 -101.5 -92t-135.5 -32q-79 0 -127.5 38t-31.5 103q16 61 66.5 94.5t111.5 40.5t120.5 8t102 7t47.5 27q10 48 -18.5 70t-96.5 22q-134 0 -167 -88l-102 10q30 85 114 128t179 42q51 0 91 -10t73.5 -32.5t42 -60t-3.5 -93.5l-44 -162q-5 -19 0.5 -26 t22.5 -7h25l-30 -112h-81q-39 0 -58.5 24.5t-9.5 58.5zM182 145q-9 -34 18.5 -51.5t74.5 -17.5q64 0 124.5 28t72.5 73l16 61q-23 -12 -62 -16.5t-76 -5.5t-72.5 -4.5t-61.5 -19.5t-34 -47z" glyph-name="a" horiz-adv-x="623" unicode="a"/><glyph d="M30 0l188 700h120l-72 -267q-10 -35 -29 -68l1 -1q29 46 45 60q43 37 104.5 60t112.5 22q120 -1 167 -64.5t12 -191.5q-34 -128 -115 -192t-201 -64q-49 0 -96.5 19.5t-72.5 51.5q-14 18 -21 72l-1 -1q4 -42 -5 -74l-17 -62h-120zM217 250q-18 -69 23.5 -112.5 t113.5 -43.5q87 0 135.5 38.5t70.5 117.5q43 161 -120 162q-72 1 -138 -45.5t-85 -116.5z" glyph-name="b" horiz-adv-x="638" unicode="b"/><glyph d="M89 250q33 124 133.5 190.5t223.5 65.5q97 -1 160.5 -49.5t55.5 -138.5l-114 -11q-3 48 -35.5 75t-92.5 27q-74 1 -132.5 -42t-78.5 -117t15.5 -117t110.5 -41q120 2 181 99l109 -11q-40 -89 -129.5 -137t-186.5 -49q-124 -1 -188.5 65.5t-31.5 190.5z" glyph-name="c" horiz-adv-x="599" unicode="c"/><glyph d="M272 -6q-120 0 -167 64t-13 192q69 254 317 256q50 1 98 -21t73 -58q11 -16 16 -66h2q-3 35 7 74l71 265h120l-188 -700h-120l16 61q12 39 33 73l-2 1q-31 -50 -51 -66q-43 -34 -102.5 -54.5t-109.5 -20.5zM212 250q-21 -79 7 -118t114 -39q73 0 138 43.5t84 113.5 t-22.5 116.5t-113.5 45.5q-87 -1 -136.5 -42t-70.5 -120z" glyph-name="d" horiz-adv-x="638" unicode="d"/><glyph d="M309 -6q-124 -1 -188.5 65.5t-31.5 190.5t133.5 190.5t224.5 65.5q123 -1 183 -66.5t27 -189.5q-2 -8 -10 -28h-441q-8 -65 28 -100t104 -34q63 1 107 20.5t75 69.5l108 -10q-95 -172 -319 -174zM206 222q21 38 44 51t60 13h245q9 66 -26 98t-103 33q-70 1 -135.5 -49.5 t-84.5 -145.5z" glyph-name="e" horiz-adv-x="622" unicode="e"/><glyph d="M115 392l30 111h104q31 0 67 -9v2q-2 1 -15 4t-19 4.5t-14.5 6t-13.5 10.5q-26 26 -17 60q10 36 37.5 60.5t94.5 41.5t171 17l-26 -99q-155 0 -167 -48q-6 -22 13.5 -36t49.5 -14h77l-30 -111h-115l-105 -392h-121l105 392h-106z" glyph-name="f" horiz-adv-x="369" unicode="f"/><glyph d="M-13 -49q14 52 50.5 79.5t96.5 46.5q-73 17 -58 74q15 54 97 77q0 1 -3 6.5t-7.5 14.5t-8 22t-4 27.5t3.5 31.5q15 56 64.5 96t107.5 56.5t118 16.5q41 0 106 -18q-6 27 8 46t44 28t66.5 12.5t81.5 2.5l-22 -83h-65q-11 0 -21 -1t-23.5 -4t-16 -9.5t2.5 -16.5l3 -3 q2 -3 5 -6t6.5 -8.5t7 -12t7 -14t5.5 -16.5t3 -18.5t0 -21t-4 -23.5q-22 -81 -107.5 -124.5t-179.5 -43.5q-45 0 -77 11q-4 1 -8.5 2.5l-7.5 2.5t-4 1q-15 1 -31.5 -7t-18.5 -18q-5 -19 26 -28.5t80.5 -11.5t106 -10.5t103 -22t71 -47.5t10.5 -86q-11 -41 -46.5 -71.5 t-85.5 -47t-102 -24.5t-106 -8q-51 0 -100.5 8t-94.5 24.5t-67.5 47.5t-11.5 71zM284 -119q65 0 126 18.5t71 58.5q6 21 -8.5 36t-45.5 23.5t-56.5 13t-61.5 7.5q-33 3 -41 3q-44 0 -96 -23t-62 -60q-5 -20 10 -36t43.5 -24.5t59.5 -12.5t61 -4zM374 249q49 0 90 19.5 t53 63.5q12 43 -18.5 62.5t-79.5 19.5q-50 0 -91 -19.5t-53 -63.5q-12 -43 19 -62.5t80 -19.5z" glyph-name="g" horiz-adv-x="627" unicode="g"/><glyph d="M31 0l187 700h120l-77 -287q-9 -36 -30 -74l2 -1q28 50 45 70q91 100 228 100q96 0 133 -70.5t7 -184.5l-68 -253h-120l68 253q18 67 -5.5 107.5t-85.5 40.5q-25 0 -55 -10.5t-65.5 -32.5t-66.5 -67t-47 -104l-50 -187h-120z" glyph-name="h" horiz-adv-x="606" unicode="h"/><glyph d="M191 599h122l27 101h-122zM32 0l134 500h118l-134 -500h-118z" glyph-name="i" horiz-adv-x="182" unicode="i"/><glyph d="M-79 -177h-22l24 92h22q52 0 82 23.5t45 80.5l128 481h121l-129 -481q-28 -104 -90 -150t-181 -46zM347 599h-120l27 101h120z" glyph-name="j" horiz-adv-x="218" unicode="j"/><glyph d="M151 0h-121l188 700h121l-104 -376q-9 -33 -37 -71l2 -1q27 36 60 58l275 190h171l-287 -198l168 -301h-43v-1l-1 1h-108l-126 229l-117 -79z" glyph-name="k" horiz-adv-x="609" unicode="k"/><glyph d="M35 0l193 721h121l-194 -721h-120z" glyph-name="l" horiz-adv-x="190" unicode="l"/><glyph d="M150 0h-120l134 500h120l-26 -98q-9 -36 -27 -71l2 -1q23 47 36 66q80 112 187 112q118 0 124 -113q1 -27 -14 -73l2 -1q24 74 88 130.5t137 56.5q168 0 106 -230l-74 -278h-121l66 246q18 69 3 105t-60 36q-46 0 -96 -46t-78 -149l-51 -192h-121l66 246q38 141 -52 141 q-19 0 -41.5 -9.5t-49 -30t-50.5 -61t-38 -94.5z" glyph-name="m" horiz-adv-x="878" unicode="m"/><glyph d="M150 0h-120l134 500h120l-30 -111q-6 -24 -25 -67l2 -1q20 44 36 65q45 60 104.5 91t113.5 31q64 0 96.5 -35.5t32.5 -94.5t-19 -136l-64 -242h-121l65 242q19 68 1.5 106.5t-67.5 38.5q-24 0 -50 -8.5t-57 -29t-58.5 -62.5t-43.5 -100z" glyph-name="n" horiz-adv-x="562" unicode="n"/><glyph d="M312 -6q-125 0 -190.5 66t-32.5 190t134.5 190.5t225.5 65.5q125 -1 190.5 -66.5t32.5 -189.5t-134 -190t-226 -66zM210 250q-20 -75 17 -116t112 -41q73 0 133 41.5t80 115.5q19 73 -19.5 115t-109.5 43q-70 1 -132 -42t-81 -116z" glyph-name="o" horiz-adv-x="627" unicode="o"/><glyph d="M-22 -200l186 700h121l-17 -65q-9 -35 -30 -69l2 -1q23 41 45 61q43 36 103.5 58.5t112.5 21.5q120 -1 166.5 -64.5t12.5 -191.5q-70 -256 -317 -256q-49 0 -95.5 20t-71.5 53q-14 18 -21 72l-2 -1q5 -37 -5 -74l-70 -264h-120zM218 250q-18 -70 22.5 -116t113.5 -46 q87 1 135.5 41.5t70.5 120.5q21 80 -6.5 118t-114.5 39q-73 0 -137.5 -43.5t-83.5 -113.5z" glyph-name="p" horiz-adv-x="638" unicode="p"/><glyph d="M268 -6q-120 0 -166.5 64t-12.5 192q68 254 316 256q49 1 96.5 -19.5t72.5 -54.5q14 -18 21 -71h2q-5 40 4 74l18 65h120l-188 -700h-120l71 264q9 35 30 69l-2 1q-26 -43 -45 -60q-42 -36 -103.5 -58t-113.5 -22zM208 250q-21 -80 6.5 -121t113.5 -41q73 -1 139 45.5 t84 116.5q19 70 -22.5 113.5t-114.5 43.5q-164 -1 -206 -157z" glyph-name="q" horiz-adv-x="631" unicode="q"/><glyph d="M150 0h-120l94 351q20 76 66 112.5t123 36.5h216l-30 -112h-178q-42 0 -58 -13.5t-29 -64.5z" glyph-name="r" horiz-adv-x="420" unicode="r"/><glyph d="M63 149l122 17q-7 -44 24.5 -64t97.5 -20q139 0 161 81q5 19 -21 30t-69 13.5t-91.5 10t-89.5 19t-62 40.5t-9 74q13 50 51 84.5t88 48.5t86.5 19t70.5 5q53 0 100 -11.5t81.5 -45.5t25.5 -86l-111 -13q4 36 -26 51.5t-96 15.5q-68 0 -104 -16t-47 -56q-5 -20 21 -31 t69 -14t92 -10.5t89.5 -18.5t62 -39.5t9.5 -72.5q-14 -53 -54 -89.5t-92 -51.5t-89 -20t-73 -5q-23 0 -49.5 3t-61.5 13t-60 25.5t-39.5 45t-6.5 68.5z" glyph-name="s" horiz-adv-x="567" unicode="s"/><glyph d="M115 392l30 111h24q37 0 85 53t63 109l121 1q-14 -48 -46.5 -88.5t-76.5 -61.5q-13 -7 -70 -18v-2q37 7 69 7h191l-30 -111h-138l-60 -227q-8 -30 2.5 -41.5t37.5 -11.5h108l-30 -112h-116q-97 0 -122 45t4 138l56 209h-102z" glyph-name="t" horiz-adv-x="398" unicode="t"/><glyph d="M224 -5q-195 0 -124 267l65 241h120l-65 -241q-39 -146 82 -146q21 0 44.5 8.5t51.5 29t53 62.5t41 100l51 187h120l-134 -500h-120l28 106q6 26 25 67l-2 1q-20 -44 -35 -65q-84 -117 -201 -117z" glyph-name="u" horiz-adv-x="588" unicode="u"/><glyph d="M207 0l-53 500h130l37 -360q3 -35 -6 -75l2 -1q9 42 27 70l229 366h129l-321 -500h-174z" glyph-name="v" horiz-adv-x="588" unicode="v"/><glyph d="M177 0l-34 500h129l23 -376q2 -30 -7 -63h2q10 38 24 63l207 376h194l12 -377q0 -31 -10 -63h2q11 36 27 63l225 377h129l-302 -500h-193l-11 367q0 33 11 75h-2q-11 -42 -29 -75l-202 -367h-195z" glyph-name="w" horiz-adv-x="974" unicode="w"/><glyph d="M18 0l263 252l-129 248h153l73 -140q8 -15 4 -35h2q3 18 16 31l151 144h153l-261 -248l127 -252h-152l-73 144q-8 15 -4 35h-2q-4 -20 -16 -32l-153 -147h-152z" glyph-name="x" horiz-adv-x="588" unicode="x"/><glyph d="M78 -209h-119l24 93h63q30 0 70.5 14t61.5 45l41 70l-73 487h131l42 -309q5 -32 -6 -73h2q10 39 33 73l209 309h130l-389 -571q-48 -76 -107.5 -107t-112.5 -31z" glyph-name="y" horiz-adv-x="575" unicode="y"/><glyph d="M25 0l29 107l355 257q35 24 75 36v2q-42 -14 -77 -14h-268l30 112h509l-29 -107l-353 -257q-36 -25 -75 -36v-2q48 14 77 14h279l-30 -112h-522z" glyph-name="z" horiz-adv-x="574" unicode="z"/><glyph d="M271 -121q-37 0 -59.5 1.5t-47.5 6.5t-37 16t-21 29.5t-7.5 47t12.5 67.5l38 142q6 22 -4.5 33.5t-21 12.5t-27.5 1h-4l30 112q48 0 66 19q11 11 16 28l38 141q12 45 31 76t39 48t52 26.5t58.5 11.5t68.5 2l-30 -111q-85 0 -105 -77l-38 -140q-12 -45 -41 -65 q-21 -16 -72 -12v-2q55 -5 67 -27q12 -21 2 -59l-38 -140q-10 -38 4.5 -57t60.5 -19z" glyph-name="braceleft" horiz-adv-x="351" unicode="{"/><glyph d="M-24 -200l242 900h120l-241 -900h-121z" glyph-name="bar" unicode="|"/><glyph d="M247 47q-13 -47 -31.5 -78.5t-38 -49.5t-51 -27t-58 -11t-71.5 -2l30 112q85 0 105 76l38 140q12 44 41 66q25 18 72 12v2q-57 7 -68 27q-12 20 -1 58l37 140q20 77 -64 77l30 111q35 0 57 -1.5t46.5 -6.5t37.5 -16t22.5 -29t8.5 -45.5t-11 -65.5l-38 -141 q-3 -10 -2.5 -17.5t3.5 -12.5t7.5 -8.5t10.5 -5t12 -2.5t11.5 -1h9.5h4l-29 -112q-48 0 -66 -19q-11 -11 -16 -28z" glyph-name="braceright" horiz-adv-x="337" unicode="}"/><glyph d="M293 398q44 2 77.5 -14.5t59.5 -33t52 -15.5t50.5 22.5t29.5 47.5l145 4q-15 -81 -80.5 -133.5t-153.5 -57.5q-32 -1 -60 9.5t-44 23.5t-36 22t-38 7q-66 -4 -84 -78l-133 -5q10 73 74.5 135.5t140.5 65.5z" glyph-name="asciitilde" horiz-adv-x="621" unicode="~"/><glyph d="M313 500h-140l-31 -116h140zM204 307l-7 -206l-83 -309h-120l83 309l102 206h25z" glyph-name="exclamdown" horiz-adv-x="218" unicode="¡"/><glyph d="M267 96q-86 4 -134 71.5t-17 181.5q30 114 115 182.5t169 70.5l26 98h112l-26 -99q67 -1 113 -39.5t47 -108.5l-111 -41q-4 86 -131 86q-161 0 -201 -149q-20 -75 16.5 -112t105.5 -36q59 0 106 23.5t73 63.5l87 -43q-40 -67 -105.5 -105.5t-132.5 -42.5l-26 -97h-112z " glyph-name="cent" horiz-adv-x="573" unicode="¢"/><glyph d="M15 0l28 103q94 0 148.5 37.5t68.5 88.5q14 44 4 79h-124l50 80h63q-31 61 -12 130q24 90 112 138t210 49q119 1 178.5 -49t35.5 -155l-111 -7q9 59 -28 83.5t-99 24.5q-152 0 -179 -100q-16 -55 17 -114h179l-37 -80h-122q9 -39 -2 -78q-14 -50 -51 -85.5t-89 -52.5v-2 q41 13 74 13h360l-15 -103h-659z" glyph-name="sterling" horiz-adv-x="694" unicode="£"/><glyph d="M67 167l86 62q-20 34 -4 96q16 60 57 95l-54 62l81 57l53 -62q50 33 119 33q67 0 97 -31l85 62l53 -61l-87 -62q24 -34 7 -93q-7 -27 -24 -55t-37 -43l54 -62l-81 -57l-52 62q-18 -13 -53 -23.5t-62 -10.5q-66 0 -99 32l-87 -62zM257 325q-10 -38 11.5 -65.5t61.5 -27.5 t76.5 27.5t46.5 65.5t-11.5 65.5t-61.5 27.5t-76.5 -27.5t-46.5 -65.5z" glyph-name="currency" horiz-adv-x="533" unicode="¤"/><glyph d="M213 94l21 80h126l13 47h-126l22 84h126l11 40l-161 354h148l88 -215q14 -34 6 -72h2q9 40 33 64l217 223h150l-363 -354l-11 -40h126l-23 -84h-125l-13 -47h126l-22 -80h-125l-25 -94h-121l26 94h-126z" glyph-name="yen" horiz-adv-x="743" unicode="¥"/><glyph d="M116 319l101 379h120l-101 -379h-120zM-24 -200l102 379h120l-101 -379h-121z" glyph-name="brokenbar" unicode="¦"/><glyph d="M289 -102q-113 0 -181.5 41t-60.5 131l122 7q-3 -96 142 -96q164 0 186 83q6 23 -23 38t-76.5 21t-102.5 16t-101 22.5t-71 42t-14 73.5q9 32 34.5 56t61 36t70 18t68.5 6v2q-47 0 -75 9q-53 14 -84.5 42t-19.5 71q14 53 57.5 89.5t101.5 51.5t99.5 20t81.5 5 q66 0 120.5 -15t92.5 -55t32 -101l-118 -9q4 55 -38.5 77t-109.5 22q-141 0 -163 -81q-7 -26 32 -41.5t98.5 -25.5t118 -23.5t93.5 -44.5t22 -79t-46.5 -69.5t-88.5 -34.5q-33 -9 -74 -9v-2q50 0 74 -8q104 -29 80 -120q-14 -53 -57.5 -89.5t-101.5 -51.5t-99.5 -20 t-81.5 -5zM236 296q-9 -36 28.5 -54t101.5 -28q32 -4 46 -4q59 0 100 23t50 58q5 20 -5 35t-33.5 24t-44 14t-48.5 9q-21 4 -46 4q-57 0 -98 -22.5t-51 -58.5z" glyph-name="section" horiz-adv-x="637" unicode="§"/><glyph d="M279 528h-121l46 172h121zM345 528l46 172h120l-46 -172h-120z" glyph-name="dieresis" horiz-adv-x="340" unicode="¨"/><glyph d="M436 -50q-177 0 -272.5 110t-54.5 265q42 155 196.5 265t331.5 110t272.5 -110t53.5 -265q-41 -155 -195.5 -265t-331.5 -110zM199 325q-33 -124 42.5 -212t214.5 -88t261.5 88t156.5 212q33 124 -42.5 212t-214.5 88t-262 -88t-156 -212zM485 111q-103 -1 -156.5 55 t-26.5 159t111 158.5t186 54.5q81 -1 134.5 -42t46.5 -115l-101 -12q-3 82 -103 82q-134 2 -168 -126q-16 -60 12 -93.5t89 -32.5q42 0 81.5 21t62.5 56l96 -10q-33 -74 -108 -114t-156 -41z" glyph-name="copyright" horiz-adv-x="893" unicode="©"/><glyph d="M416 470q-26 -35 -69 -53.5t-88 -18.5q-54 0 -85.5 25.5t-19.5 70.5q11 41 45 63.5t74.5 27t80.5 5t68.5 5t31.5 18.5q7 32 -11.5 47t-63.5 15q-89 0 -111 -59l-72 6q20 57 77 86t122 29q48 -1 81.5 -12t51.5 -41.5t5 -78.5l-30 -109q-3 -13 0.5 -17.5t15.5 -4.5h17 l-20 -76h-58q-26 0 -39.5 16.5t-6.5 39.5zM238 496q-6 -23 12 -34.5t49 -11.5q42 0 81.5 19t47.5 49l11 40q-21 -12 -69.5 -12.5t-85.5 -9t-46 -40.5z" glyph-name="ordfeminine" horiz-adv-x="429" unicode="ª"/><glyph d="M418 486l-33 -124l-159 -86l112 -87l-32 -122l-230 160l26 99zM685 486l-33 -124l-159 -86l113 -87l-33 -122l-230 160l26 99z" glyph-name="guillemotleft" horiz-adv-x="570" unicode="«"/><glyph d="M135 410h532l-86 -320h-120l56 209h-412z" glyph-name="logicalnot" horiz-adv-x="585" unicode="¬"/><glyph d="M306 423q-72 0 -110.5 47.5t-20.5 114.5t82 114.5t135 47.5q72 0 110.5 -47.5t20.5 -114.5t-82 -114.5t-135 -47.5zM223 585q-13 -49 14.5 -84t79.5 -35t98 35t60 84q13 49 -14.5 84t-79.5 35t-98 -35t-60 -84zM265 508l42 156h76q57 0 45 -47q-2 -9 -6.5 -15t-7 -8 t-10 -6.5t-8.5 -4.5l7 -1q16 -2 9 -28l-12 -46h-31l10 39q3 12 -11 12h-58l-13 -51h-32zM332 639l-14 -53h38q35 0 41 26q8 27 -23 27h-42z" glyph-name="registered" horiz-adv-x="384" unicode="®"/><glyph d="M177 587l24 89h351l-24 -89h-351z" glyph-name="macron" horiz-adv-x="391" unicode="¯"/><glyph d="M322 433q-76 0 -117.5 46t-24.5 110q17 65 83.5 110.5t142.5 45.5t117.5 -46t24.5 -110q-17 -65 -83.5 -110.5t-142.5 -45.5zM271 589q-9 -34 12 -58.5t59 -24.5t72 24.5t43 58.5q9 35 -11.5 59t-59.5 24q-38 0 -71.5 -24t-43.5 -59z" glyph-name="degree" horiz-adv-x="412" unicode="°"/><glyph d="M486 531l54 -93l93 -81l-87 -30l-131 -60l-115 -96l-14 60l-53 96l-98 81l87 30l135 57l114 93zM288 -11l-243 82l255 30l242 -81z" glyph-name="plusminus" horiz-adv-x="563" unicode="±"/><glyph d="M413 400h-284l3 10q13 49 45 85.5t69 56t72.5 34t62 29.5t31.5 34q16 59 -57 59q-34 0 -59 -17.5t-35 -49.5l-60 3q37 119 172 119q64 0 92.5 -27t14.5 -79q-10 -36 -36.5 -60.5t-55.5 -36t-68 -32t-64 -45.5q-29 -27 -60 -39l1 -2q39 15 72 15h159z" glyph-name="uni00B2" horiz-adv-x="328" unicode="²"/><glyph d="M275 405q-63 0 -93 27t-18 82l59 2q-6 -25 12 -40.5t50 -15.5q33 0 59 16t33 42q7 25 -9 36.5t-54 12.5h-25l9 37h26q68 0 81 50q7 24 -9 38t-45 14t-53 -17t-32 -41l-57 3q15 51 56.5 76.5t101.5 24.5q55 0 80 -22t13 -67q-16 -65 -109 -65v-2q54 0 71 -17 q22 -18 10 -68q-14 -52 -55.5 -79t-101.5 -27z" glyph-name="uni00B3" horiz-adv-x="321" unicode="³"/><glyph d="M251 556h-100l96 142h138z" glyph-name="acute" horiz-adv-x="190" unicode="´"/><glyph d="M381 287q-130 0 -187.5 53.5t-30.5 156.5q27 100 114.5 154.5t215.5 54.5h120l-213 -794h-120zM611 -88h-120l213 794h120z" glyph-name="paragraph" horiz-adv-x="665" unicode="¶"/><glyph d="M236 332h-127l32 118h127z" glyph-name="periodcentered" horiz-adv-x="167" unicode="·"/><glyph d="M-66 -211l59 49q18 -41 71 -41q30 0 54.5 14.5t31.5 38.5q3 11 -2 20t-18 13.5t-25 7.5t-32 4.5t-28.5 1.5h-25.5l29 38l57 79h101l-55 -69q45 0 67 -24.5t9 -73.5q-15 -59 -64 -89.5t-107 -30.5q-43 0 -76.5 16.5t-45.5 45.5z" glyph-name="cedilla" horiz-adv-x="282" unicode="¸"/><glyph d="M189 625l15 54q73 0 89 58h58l-90 -335h-58l61 225q9 32 29 69l-1 1q-1 -2 -8.5 -15t-11.5 -19t-11 -13.5t-14 -11.5q-20 -13 -58 -13z" glyph-name="uni00B9" horiz-adv-x="175" unicode="¹"/><glyph d="M289 377q-84 0 -111.5 50.5t-6.5 129.5t76 130t138 50q84 0 111.5 -50.5t6.5 -129.5t-75.5 -129.5t-138.5 -50.5zM232 557q-14 -53 7 -84.5t67 -31.5q47 0 84.5 31.5t51.5 84.5q15 53 -6.5 84.5t-67.5 32.5q-45 0 -83 -31.5t-53 -85.5z" glyph-name="ordmasculine" horiz-adv-x="379" unicode="º"/><glyph d="M412 486l230 -160l-26 -99l-316 -160l33 122l158 87l-112 86zM145 486l230 -160l-26 -99l-316 -160l33 122l158 87l-112 86z" glyph-name="guillemotright" horiz-adv-x="586" unicode="»"/><glyph d="M200 0l537 700h118l-536 -700h-119zM567 108l12 42l259 264h89l-65 -243h72l-8 -63h-59q-21 0 -33 16l-1 -1q12 -16 6 -38l-23 -85h-72l29 108h-206zM178 552l19 71q98 0 118 77h77l-119 -444h-77l87 323q6 21 19 47l-2 1q-19 -37 -27 -45q-28 -30 -95 -30zM682 174h109 l46 173z" glyph-name="onequarter" horiz-adv-x="928" unicode="¼"/><glyph d="M118 0l537 700h118l-536 -700h-119zM784 -4h-323l3 12q15 56 51.5 97.5t78.5 63.5t82.5 38t70.5 33.5t36 38.5q17 68 -65 68q-38 0 -66.5 -19.5t-39.5 -56.5l-70 3q42 136 197 136q72 0 104 -30.5t17 -90.5q-12 -42 -44 -70.5t-67.5 -42t-81 -39t-74.5 -59.5 q-16 -16 -38 -26v-1q23 10 44 10h202zM182 566l17 64q88 0 107 70h69l-108 -401h-69l79 292q4 17 16 43h-1q-15 -33 -24 -41q-26 -27 -86 -27z" glyph-name="onehalf" horiz-adv-x="815" unicode="½"/><glyph d="M235 0l537 700h118l-536 -700h-119zM269 286q-76 0 -112.5 33t-21.5 99l71 3q-7 -30 15 -49t60 -19q40 0 71 19t39 51q9 30 -10 44t-65 14h-30l11 45h31q82 0 98 61q8 30 -11 46.5t-54 16.5t-64.5 -20.5t-39.5 -49.5l-69 4q18 61 68.5 91.5t123.5 29.5q67 -1 97 -27.5 t15 -80.5q-13 -46 -63 -69q-16 -9 -45 -11l-1 -1q28 2 43 -5q26 -11 34 -32t-2 -65q-17 -62 -67 -95t-122 -33zM537 96l10 38l235 240h81l-59 -221h65l-7 -57h-53q-19 0 -31 15l-1 -1q11 -14 6 -34l-21 -78h-65l26 98h-186zM781 312l-141 -156h99z" glyph-name="threequarters" horiz-adv-x="859" unicode="¾"/><glyph d="M209 -202q-116 0 -168.5 52t-24.5 154q12 46 43 77.5t67.5 50t73 36.5t68 51.5t44.5 82.5l5 17h120l-5 -17q-17 -64 -51 -110t-71.5 -70t-73.5 -42t-63 -38t-34 -47q-14 -51 10.5 -79t83.5 -28q63 0 107 32t59 84h120q-25 -95 -110.5 -150.5t-199.5 -55.5zM324 382 l31 119h141l-32 -119h-140z" glyph-name="questiondown" horiz-adv-x="533" unicode="¿"/><glyph d="M46 0l452 700h166l77 -700h-130l-20 155h-314l-100 -155h-131zM547 579l-207 -321q138 0 170 -5q59 -11 81 -83zM560 758l-58 142h143l20 -142h-105z" glyph-name="Agrave" horiz-adv-x="762" unicode="À"/><glyph d="M43 0l452 700h166l77 -700h-130l-20 155h-314l-100 -155h-131zM544 579l-207 -321q138 0 170 -5q59 -11 81 -83zM522 758l96 142h137l-135 -142h-98z" glyph-name="Aacute" horiz-adv-x="756" unicode="Á"/><glyph d="M43 0l452 700h166l77 -700h-130l-20 155h-314l-100 -155h-131zM544 579l-207 -321q138 0 170 -5q59 -11 81 -83zM386 779l167 151h163l87 -151h-133l-50 94l-102 -94h-132z" glyph-name="Acircumflex" horiz-adv-x="756" unicode="Â"/><glyph d="M43 0l452 700h166l77 -700h-130l-20 155h-314l-100 -155h-131zM371 771q57 126 187 126q33 0 56 -14t38.5 -28.5t31.5 -15.5q43 -2 74 58l88 -13q-21 -58 -67.5 -96.5t-113.5 -37.5q-33 1 -54 14.5t-36 27.5t-35 15q-30 1 -56 -15t-39 -40zM544 579l-207 -321 q138 0 170 -5q59 -11 81 -83z" glyph-name="Atilde" horiz-adv-x="756" unicode="Ã"/><glyph d="M43 0l452 700h166l77 -700h-130l-20 155h-314l-100 -155h-131zM544 579l-207 -321q138 0 170 -5q59 -11 81 -83zM749 797h-120l27 103h120zM446 797l27 103h121l-28 -103h-120z" glyph-name="Adieresis" horiz-adv-x="756" unicode="Ä"/><glyph d="M43 0l452 700h166l77 -700h-130l-20 155h-314l-100 -155h-131zM588 743q-55 0 -85 30t-18 73q11 42 57 71.5t101 29.5q54 0 83.5 -29.5t18.5 -71.5q-12 -43 -57.5 -73t-99.5 -30zM544 579l-207 -321q138 0 170 -5q59 -11 81 -83zM557 846q-6 -21 7.5 -35.5t37.5 -14.5 q23 0 44 14.5t27 35.5q5 19 -8.5 33.5t-36.5 14.5q-24 0 -45 -14t-26 -34z" glyph-name="Aring" horiz-adv-x="756" unicode="Å"/><glyph d="M27 0l451 700h663l-29 -112h-384l-49 -181h329l-26 -97h-329l-53 -198h384l-30 -112h-504l47 174h-229l-112 -174h-129zM572 647l-230 -356h186l96 356h-52z" glyph-name="AE" horiz-adv-x="985" unicode="Æ"/><glyph d="M116 350q47 176 168.5 267.5t276.5 89.5q129 -2 203.5 -64t71.5 -182l-125 -30q1 69 -46.5 112t-136.5 43q-109 1 -185.5 -62.5t-106.5 -173.5q-29 -110 16 -173.5t150 -62.5q91 0 160.5 43t104.5 112l109 -30q-55 -108 -149 -169.5t-208 -73.5l-39 -52q44 0 66 -24 t9 -73q-15 -59 -64 -89.5t-107 -30.5q-43 0 -77 16.5t-45 45.5l59 50q7 -20 29 -32t48 -12q27 0 49.5 14t30.5 41q4 16 -5.5 26.5t-33 14t-38 4.5t-38.5 1h-5l63 99q-133 13 -190.5 104t-14.5 251z" glyph-name="Ccedilla" horiz-adv-x="734" unicode="Ç"/><glyph d="M779 700l-30 -112h-441l-53 -199h418l-26 -96h-418l-49 -181h441l-30 -112h-561l188 700h561zM567 900l20 -142h-105l-58 142h143z" glyph-name="Egrave" horiz-adv-x="618" unicode="È"/><glyph d="M779 700l-30 -112h-441l-53 -199h418l-26 -96h-418l-49 -181h441l-30 -112h-561l188 700h561zM540 758h-98l96 142h137z" glyph-name="Eacute" horiz-adv-x="618" unicode="É"/><glyph d="M591 0h-561l188 700h561l-30 -112h-441l-53 -199h418l-26 -96h-418l-49 -181h441zM449 772h-132l167 150h163l87 -150h-132l-51 94z" glyph-name="Ecircumflex" horiz-adv-x="618" unicode="Ê"/><glyph d="M591 0h-561l188 700h561l-30 -112h-441l-53 -199h418l-26 -96h-418l-49 -181h441zM564 797l27 103h121l-28 -103h-120zM381 797l27 103h121l-28 -103h-120z" glyph-name="Edieresis" horiz-adv-x="618" unicode="Ë"/><glyph d="M30 0l188 700h120l-188 -700h-120zM348 900l19 -142h-105l-58 142h144z" glyph-name="Igrave" unicode="Ì"/><glyph d="M30 0l188 700h120l-188 -700h-120zM340 758h-99l96 142h137z" glyph-name="Iacute" unicode="Í"/><glyph d="M150 0h-120l188 700h120zM98 770l168 150h162l87 -150h-132l-51 94l-102 -94h-132z" glyph-name="Icircumflex" unicode="Î"/><glyph d="M150 0h-120l188 700h120zM470 797h-121l28 103h120zM287 797h-120l27 103h120z" glyph-name="Idieresis" unicode="Ï"/><glyph d="M72 288l32 120h77l79 292h302q100 0 168.5 -38t97 -115.5t-3.5 -196.5q-30 -115 -101 -195.5t-159.5 -117.5t-188.5 -37h-303l77 288h-77zM469 288h-199q-9 -33 -25 -93t-22 -83h190q56 0 111 22t106.5 78t73.5 138q31 117 -21 177.5t-142 60.5h-267q76 0 68 -31 q-7 -28 -40 -149h200z" glyph-name="Eth" horiz-adv-x="750" unicode="Ð"/><glyph d="M30 0l188 700h124l239 -483q16 -33 20 -79l2 1q-3 43 8 87l127 474h120l-187 -700h-125l-240 478q-16 33 -20 79l-2 -1q3 -43 -8 -87l-126 -469h-120zM408 750l-73 19q57 126 186 126q33 0 56 -14t39 -28.5t32 -15.5q42 -2 73 58l89 -13q-21 -58 -68 -96.5t-114 -37.5 q-33 1 -53.5 14.5t-36 27.5t-35.5 15q-30 1 -56 -15t-39 -40z" glyph-name="Ntilde" horiz-adv-x="701" unicode="Ñ"/><glyph d="M377 -7q-101 0 -169.5 39t-96.5 118t5 200q47 175 172 267t280 90q156 -2 231.5 -93t29.5 -264q-47 -174 -171.5 -265.5t-280.5 -91.5zM237 350q-30 -111 22 -178t147 -67q99 0 185.5 66.5t116.5 178.5q29 112 -22.5 178t-147.5 67q-94 2 -183 -66t-118 -179zM473 900 h143l20 -142h-105z" glyph-name="Ograve" horiz-adv-x="757" unicode="Ò"/><glyph d="M377 -7q-101 0 -169.5 39t-96.5 118t5 200q47 175 172 267t280 90q156 -2 231.5 -93t29.5 -264q-47 -174 -171.5 -265.5t-280.5 -91.5zM237 350q-30 -111 22 -178t147 -67q99 0 185.5 66.5t116.5 178.5q29 112 -22.5 178t-147.5 67q-94 2 -183 -66t-118 -179zM496 758 l96 142h136l-134 -142h-98z" glyph-name="Oacute" horiz-adv-x="757" unicode="Ó"/><glyph d="M377 -7q-101 0 -169.5 39t-96.5 118t5 200q47 175 172 267t280 90q156 -2 231.5 -93t29.5 -264q-47 -174 -171.5 -265.5t-280.5 -91.5zM237 350q-30 -111 22 -178t147 -67q99 0 185.5 66.5t116.5 178.5q29 112 -22.5 178t-147.5 67q-94 2 -183 -66t-118 -179zM379 781 l167 150h163l87 -150h-132l-51 94l-102 -94h-132z" glyph-name="Ocircumflex" horiz-adv-x="757" unicode="Ô"/><glyph d="M377 -7q-101 0 -169.5 39t-96.5 118t5 200q47 175 172 267t280 90q156 -2 231.5 -93t29.5 -264q-47 -174 -171.5 -265.5t-280.5 -91.5zM237 350q-30 -111 22 -178t147 -67q99 0 185.5 66.5t116.5 178.5q29 112 -22.5 178t-147.5 67q-94 2 -183 -66t-118 -179zM356 771 q57 126 187 126q33 0 55.5 -14t38.5 -28.5t32 -15.5q43 -3 74 58l88 -13q-21 -58 -67.5 -96.5t-113.5 -37.5q-34 1 -54.5 14.5t-36 27.5t-34.5 15q-31 1 -56.5 -14.5t-39.5 -40.5z" glyph-name="Otilde" horiz-adv-x="757" unicode="Õ"/><glyph d="M377 -7q-101 0 -169.5 39t-96.5 118t5 200q47 175 172 267t280 90q156 -2 231.5 -93t29.5 -264q-47 -174 -171.5 -265.5t-280.5 -91.5zM237 350q-30 -111 22 -178t147 -67q99 0 185.5 66.5t116.5 178.5q29 112 -22.5 178t-147.5 67q-94 2 -183 -66t-118 -179zM565 797 h-120l27 103h121zM628 797l27 103h121l-28 -103h-120z" glyph-name="Odieresis" horiz-adv-x="757" unicode="Ö"/><glyph d="M407 341h201l-30 -112h-201l-47 -176h-120l47 176h-191l30 112h191l47 175h120z" glyph-name="multiply" horiz-adv-x="521" unicode="×"/><glyph d="M180 50q-120 94 -64 300q47 175 172 267t280 90q55 0 105 -14l37 49h135l-75 -98q112 -94 59 -294q-47 -174 -171.5 -265.5t-280.5 -91.5q-51 0 -98 11l-43 -57h-135zM266 163l326 425q-24 7 -54 7q-94 2 -183 -66t-118 -179q-32 -116 29 -187zM360 109q20 -4 46 -4 q99 0 185.5 66.5t116.5 178.5q30 111 -25 181z" glyph-name="Oslash" horiz-adv-x="757" unicode="Ø"/><glyph d="M113 310l105 390h120l-105 -391q-25 -95 16 -150t132 -55q92 0 160.5 53.5t94.5 151.5l105 391h121l-105 -390q-28 -104 -93.5 -178t-145.5 -107t-167 -33q-92 0 -154 33t-88.5 103.5t4.5 181.5zM453 900h144l20 -142h-105z" glyph-name="Ugrave" horiz-adv-x="704" unicode="Ù"/><glyph d="M113 310l105 390h120l-105 -391q-25 -95 16 -150t132 -55q92 0 160.5 53.5t94.5 151.5l105 391h121l-105 -390q-28 -104 -93.5 -178t-145.5 -107t-167 -33q-92 0 -154 33t-88.5 103.5t4.5 181.5zM489 758l96 142h137l-135 -142h-98z" glyph-name="Uacute" horiz-adv-x="704" unicode="Ú"/><glyph d="M113 310l105 390h120l-105 -391q-25 -95 16 -150t132 -55q92 0 160.5 53.5t94.5 151.5l105 391h121l-105 -390q-28 -104 -93.5 -178t-145.5 -107t-167 -33q-92 0 -154 33t-88.5 103.5t4.5 181.5zM353 779l168 150h162l87 -150h-132l-51 93l-102 -93h-132z" glyph-name="Ucircumflex" horiz-adv-x="704" unicode="Û"/><glyph d="M113 310l105 390h120l-105 -391q-25 -95 16 -150t132 -55q92 0 160.5 53.5t94.5 151.5l105 391h121l-105 -390q-28 -104 -93.5 -178t-145.5 -107t-167 -33q-92 0 -154 33t-88.5 103.5t4.5 181.5zM723 797h-120l27 103h121zM540 797h-120l27 103h121z" glyph-name="Udieresis" horiz-adv-x="704" unicode="Ü"/><glyph d="M385 321l-181 378h148l109 -237q14 -29 3 -69h2q10 39 40 69l235 237h148l-384 -378l-86 -321h-120zM596 758h-98l96 142h136z" glyph-name="Yacute" horiz-adv-x="718" unicode="Ý"/><glyph d="M30 0l188 700h120l-29 -110h192q129 0 183.5 -59.5t23.5 -172.5q-30 -112 -116.5 -172t-215.5 -60h-192l-33 -126h-121zM282 491l-71 -266h157q107 0 155 36t64 97q9 39 6 68.5t-41 47t-113 17.5h-157z" glyph-name="Thorn" horiz-adv-x="637" unicode="Þ"/><glyph d="M150 0h-120l141 527q21 79 107 127.5t189 48.5q134 0 193 -40.5t33 -135.5q-26 -97 -183 -139q173 -27 133 -176q-57 -212 -381 -212l27 100q100 -3 160.5 32.5t75.5 93.5q15 56 -23 88t-147 34l20 71q64 0 116 25.5t64 70.5q29 109 -109 109q-53 0 -100 -34.5t-62 -88.5 z" glyph-name="germandbls" horiz-adv-x="611" unicode="ß"/><glyph d="M471 125q-36 -60 -101.5 -92t-135.5 -32q-79 0 -127 38t-31 103q16 61 66.5 94.5t111.5 40.5t120 8t101.5 7t47.5 27q11 48 -18 70t-97 22q-132 0 -167 -88l-102 10q30 85 114 128t179 42q51 0 91 -10t73.5 -32.5t42 -60t-3.5 -93.5l-44 -162q-5 -19 0.5 -26t23.5 -7h24 l-30 -112h-81q-38 0 -57.5 24.5t-10.5 58.5zM195 145q-9 -34 18.5 -51.5t74.5 -17.5q64 0 124.5 28t72.5 73l16 61q-23 -12 -62 -16.5t-76 -5.5t-72.5 -4.5t-61.5 -19.5t-34 -47zM413 558l-58 142h143l20 -142h-105z" glyph-name="agrave" horiz-adv-x="635" unicode="à"/><glyph d="M471 125q-36 -60 -101.5 -92t-135.5 -32q-79 0 -127 38t-31 103q16 61 66.5 94.5t111.5 40.5t120 8t101.5 7t47.5 27q11 48 -18 70t-97 22q-132 0 -167 -88l-102 10q30 85 114 128t179 42q51 0 91 -10t73.5 -32.5t42 -60t-3.5 -93.5l-44 -162q-5 -19 0.5 -26t23.5 -7h24 l-30 -112h-81q-38 0 -57.5 24.5t-10.5 58.5zM195 145q-9 -34 18.5 -51.5t74.5 -17.5q64 0 124.5 28t72.5 73l16 61q-23 -12 -62 -16.5t-76 -5.5t-72.5 -4.5t-61.5 -19.5t-34 -47zM401 558l96 142h136l-134 -142h-98z" glyph-name="aacute" horiz-adv-x="640" unicode="á"/><glyph d="M471 125q-36 -60 -101.5 -92t-135.5 -32q-79 0 -127 38t-31 103q16 61 66.5 94.5t111.5 40.5t120 8t101.5 7t47.5 27q11 48 -18 70t-97 22q-132 0 -167 -88l-102 10q30 85 114 128t179 42q51 0 91 -10t73.5 -32.5t42 -60t-3.5 -93.5l-44 -162q-5 -19 0.5 -26t23.5 -7h24 l-30 -112h-81q-38 0 -57.5 24.5t-10.5 58.5zM195 145q-9 -34 18.5 -51.5t74.5 -17.5q64 0 124.5 28t72.5 73l16 61q-23 -12 -62 -16.5t-76 -5.5t-72.5 -4.5t-61.5 -19.5t-34 -47zM252 574l167 150h163l87 -150h-132l-51 93l-102 -93h-132z" glyph-name="acircumflex" horiz-adv-x="640" unicode="â"/><glyph d="M471 125q-36 -60 -101.5 -92t-135.5 -32q-79 0 -127 38t-31 103q16 61 66.5 94.5t111.5 40.5t120 8t101.5 7t47.5 27q11 48 -18 70t-97 22q-132 0 -167 -88l-102 10q30 85 114 128t179 42q51 0 91 -10t73.5 -32.5t42 -60t-3.5 -93.5l-44 -162q-5 -19 0.5 -26t23.5 -7h24 l-30 -112h-81q-38 0 -57.5 24.5t-10.5 58.5zM195 145q-9 -34 18.5 -51.5t74.5 -17.5q64 0 124.5 28t72.5 73l16 61q-23 -12 -62 -16.5t-76 -5.5t-72.5 -4.5t-61.5 -19.5t-34 -47zM238 571q59 126 187 126q33 0 56 -14t38.5 -28.5t31.5 -15.5q43 -2 74 58l89 -13 q-21 -59 -68 -97t-114 -37q-33 1 -54 14.5t-36 27.5t-35 15q-30 1 -56 -15t-39 -40z" glyph-name="atilde" horiz-adv-x="640" unicode="ã"/><glyph d="M471 125q-36 -60 -101.5 -92t-135.5 -32q-79 0 -127 38t-31 103q16 61 66.5 94.5t111.5 40.5t120 8t101.5 7t47.5 27q11 48 -18 70t-97 22q-132 0 -167 -88l-102 10q30 85 114 128t179 42q51 0 91 -10t73.5 -32.5t42 -60t-3.5 -93.5l-44 -162q-5 -19 0.5 -26t23.5 -7h24 l-30 -112h-81q-38 0 -57.5 24.5t-10.5 58.5zM195 145q-9 -34 18.5 -51.5t74.5 -17.5q64 0 124.5 28t72.5 73l16 61q-23 -12 -62 -16.5t-76 -5.5t-72.5 -4.5t-61.5 -19.5t-34 -47zM629 597h-120l27 103h121zM446 597h-120l28 103h120z" glyph-name="adieresis" horiz-adv-x="640" unicode="ä"/><glyph d="M471 125q-36 -60 -101.5 -92t-135.5 -32q-79 0 -127 38t-31 103q16 61 66.5 94.5t111.5 40.5t120 8t101.5 7t47.5 27q11 48 -18 70t-97 22q-132 0 -167 -88l-102 10q30 85 114 128t179 42q51 0 91 -10t73.5 -32.5t42 -60t-3.5 -93.5l-44 -162q-5 -19 0.5 -26t23.5 -7h24 l-30 -112h-81q-38 0 -57.5 24.5t-10.5 58.5zM453 544q-55 0 -84.5 30t-18.5 73q11 42 57 71.5t101 29.5q54 0 83.5 -29.5t18.5 -71.5q-11 -43 -57 -73t-100 -30zM195 145q-9 -34 18.5 -51.5t74.5 -17.5q64 0 124.5 28t72.5 73l16 61q-23 -12 -62 -16.5t-76 -5.5t-72.5 -4.5 t-61.5 -19.5t-34 -47zM422 647q-5 -21 8 -35.5t38 -14.5q23 0 44 14.5t26 35.5q5 20 -8 34t-36 14q-25 0 -46 -14t-26 -34z" glyph-name="aring" horiz-adv-x="640" unicode="å"/><glyph d="M491 154q-39 -75 -116.5 -115.5t-158.5 -40.5t-127.5 38.5t-28.5 105.5q15 54 51.5 87.5t81.5 44.5t95 16t91.5 4.5t72 9t36.5 31.5q9 36 -19.5 60t-74.5 28q-41 5 -88.5 -16t-66.5 -70l-114 6q29 82 112.5 121.5t178.5 38.5q72 -1 113.5 -35.5t44.5 -94.5 q33 55 110 94.5t160 38.5q117 -1 169.5 -66t19.5 -190q-3 -11 -10 -26h-442q-18 -66 23 -100t96 -33q45 1 100 23.5t83 61.5l118 -12q-38 -82 -126.5 -125.5t-187.5 -44.5q-91 -1 -144.5 43t-51.5 117zM179 151q-8 -30 15 -47t64 -17q63 0 124 41.5t82 121.5l7 26 q-17 -19 -64 -31.5t-92.5 -18.5t-86.5 -24.5t-49 -50.5zM798 417q-68 0 -129 -51t-88 -142q29 36 57.5 44.5t82.5 8.5h193q28 140 -116 140z" glyph-name="ae" horiz-adv-x="987" unicode="æ"/><glyph d="M89 250q33 124 133.5 190.5t223.5 65.5q97 -1 160.5 -49.5t55.5 -138.5l-114 -11q-3 48 -35.5 75t-92.5 27q-74 1 -132.5 -42t-78.5 -117t15.5 -117t110.5 -41q120 2 181 99l109 -11q-34 -77 -106.5 -123.5t-158.5 -58.5l-41 -54q45 0 66.5 -24t8.5 -73 q-15 -59 -64 -89.5t-107 -30.5q-43 0 -76.5 16.5t-45.5 45.5l59 50q7 -20 29 -32t48 -12q28 0 50 14t30 41q4 16 -5.5 26.5t-33 14t-38 4.5t-38.5 1h-5l27 40l37 60q-103 13 -152.5 78t-19.5 176z" glyph-name="ccedilla" horiz-adv-x="599" unicode="ç"/><glyph d="M309 -6q-124 -1 -188.5 65.5t-31.5 190.5t133.5 190.5t224.5 65.5q123 -1 183 -66.5t27 -189.5q-2 -8 -10 -28h-441q-8 -65 28 -100t104 -34q63 1 107 20.5t75 69.5l108 -10q-95 -172 -319 -174zM426 417q-70 1 -135.5 -49.5t-84.5 -145.5q21 38 44 51t60 13h245 q9 66 -26 98t-103 33zM377 700h144l19 -142h-105z" glyph-name="egrave" horiz-adv-x="615" unicode="è"/><glyph d="M309 -6q-124 -1 -188.5 65.5t-31.5 190.5t133.5 190.5t224.5 65.5q123 -1 183 -66.5t27 -189.5q-2 -8 -10 -28h-441q-8 -65 28 -100t104 -34q63 1 107 20.5t75 69.5l108 -10q-95 -172 -319 -174zM426 417q-70 1 -135.5 -49.5t-84.5 -145.5q21 38 44 51t60 13h245 q9 66 -26 98t-103 33zM402 558l96 142h136l-134 -142h-98z" glyph-name="eacute" horiz-adv-x="612" unicode="é"/><glyph d="M309 -6q-124 -1 -188.5 65.5t-31.5 190.5t133.5 190.5t224.5 65.5q123 -1 183 -66.5t27 -189.5q-2 -8 -10 -28h-441q-8 -65 28 -100t104 -34q63 1 107 20.5t75 69.5l108 -10q-95 -172 -319 -174zM426 417q-70 1 -135.5 -49.5t-84.5 -145.5q21 38 44 51t60 13h245 q9 66 -26 98t-103 33zM261 581l168 150h162l87 -150h-132l-51 94l-102 -94h-132z" glyph-name="ecircumflex" horiz-adv-x="612" unicode="ê"/><glyph d="M309 -6q-124 -1 -188.5 65.5t-31.5 190.5t133.5 190.5t224.5 65.5q123 -1 183 -66.5t27 -189.5q-2 -8 -10 -28h-441q-8 -65 28 -100t104 -34q63 1 107 20.5t75 69.5l108 -10q-95 -172 -319 -174zM426 417q-70 1 -135.5 -49.5t-84.5 -145.5q21 38 44 51t60 13h245 q9 66 -26 98t-103 33zM444 597h-120l28 103h120zM627 597h-120l27 103h121z" glyph-name="edieresis" horiz-adv-x="612" unicode="ë"/><glyph d="M30 0l134 500h120l-134 -500h-120zM284 700l20 -142h-105l-58 142h143z" glyph-name="igrave" unicode="ì"/><glyph d="M30 0l134 500h120l-134 -500h-120zM274 558h-98l96 142h137z" glyph-name="iacute" unicode="í"/><glyph d="M150 0h-120l134 500h120zM38 581l167 150h163l86 -150h-132l-50 94l-102 -94h-132z" glyph-name="icircumflex" unicode="î"/><glyph d="M150 0h-120l134 500h120zM403 597h-121l28 103h120zM220 597h-120l27 103h120z" glyph-name="idieresis" unicode="ï"/><glyph d="M312 -4q-58 0 -105 12.5t-82 39.5t-46 70t3 104q18 71 71 123.5t118 77t131 24.5q77 0 129 -34.5t56 -97.5q17 103 -10 200l-130 -25l-13 68l104 21q-6 13 -14.5 21t-20.5 12.5t-20.5 6t-24.5 3.5q-52 5 -94 -20l-52 69q75 34 159 34q83 0 132 -23.5t75 -77.5l48 8 l12 -69l-45 -7q26 -116 -4 -223q-42 -158 -141.5 -237.5t-235.5 -79.5zM205 223q-10 -36 0.5 -62.5t35.5 -40.5t56 -19.5t65 -2.5q56 6 113 44.5t75 91.5q27 66 -20.5 102t-113.5 32q-77 -4 -134.5 -40.5t-76.5 -104.5z" glyph-name="eth" horiz-adv-x="628" unicode="ð"/><glyph d="M30 0l134 500h120l-30 -111q-6 -24 -25 -67l2 -1q20 44 36 65q45 60 104.5 91t113.5 31q64 0 96.5 -35.5t32.5 -94.5t-19 -136l-64 -242h-121l65 242q19 68 1.5 106.5t-67.5 38.5q-24 0 -50 -8.5t-57 -29t-58.5 -62.5t-43.5 -100l-50 -187h-120zM226 571q59 126 187 126 q33 0 56 -14t38.5 -28.5t31.5 -15.5q43 -2 74 58l89 -13q-21 -59 -68 -97t-114 -37q-33 1 -54 14.5t-36 27.5t-35 15q-30 1 -56 -15t-39 -40z" glyph-name="ntilde" horiz-adv-x="561" unicode="ñ"/><glyph d="M312 -6q-125 0 -190.5 66t-32.5 190t134.5 190.5t225.5 65.5q125 -1 190.5 -66.5t32.5 -189.5t-134 -190t-226 -66zM210 250q-20 -75 17 -116t112 -41q73 0 133 41.5t80 115.5q19 73 -19.5 115t-109.5 43q-70 1 -132 -42t-81 -116zM367 700h144l20 -142h-105z" glyph-name="ograve" horiz-adv-x="627" unicode="ò"/><glyph d="M312 -6q-125 0 -190.5 66t-32.5 190t134.5 190.5t225.5 65.5q125 -1 190.5 -66.5t32.5 -189.5t-134 -190t-226 -66zM210 250q-20 -75 17 -116t112 -41q73 0 133 41.5t80 115.5q19 73 -19.5 115t-109.5 43q-70 1 -132 -42t-81 -116zM404 558l96 142h137l-135 -142h-98z " glyph-name="oacute" horiz-adv-x="627" unicode="ó"/><glyph d="M312 -6q-125 0 -190.5 66t-32.5 190t134.5 190.5t225.5 65.5q125 -1 190.5 -66.5t32.5 -189.5t-134 -190t-226 -66zM210 250q-20 -75 17 -116t112 -41q73 0 133 41.5t80 115.5q19 73 -19.5 115t-109.5 43q-70 1 -132 -42t-81 -116zM261 581l167 150h162l87 -150h-132 l-51 94l-101 -94h-132z" glyph-name="ocircumflex" horiz-adv-x="627" unicode="ô"/><glyph d="M312 -6q-125 0 -190.5 66t-32.5 190t134.5 190.5t225.5 65.5q125 -1 190.5 -66.5t32.5 -189.5t-134 -190t-226 -66zM210 250q-20 -75 17 -116t112 -41q73 0 133 41.5t80 115.5q19 73 -19.5 115t-109.5 43q-70 1 -132 -42t-81 -116zM326 552l-74 19q59 126 187 126 q33 0 56 -14t38.5 -28.5t31.5 -15.5q43 -2 74 58l89 -13q-21 -59 -68 -97t-114 -37q-33 1 -54 14.5t-36 27.5t-35 15q-30 1 -56 -15t-39 -40z" glyph-name="otilde" horiz-adv-x="627" unicode="õ"/><glyph d="M312 -6q-125 0 -190.5 66t-32.5 190t134.5 190.5t225.5 65.5q125 -1 190.5 -66.5t32.5 -189.5t-134 -190t-226 -66zM210 250q-20 -75 17 -116t112 -41q73 0 133 41.5t80 115.5q19 73 -19.5 115t-109.5 43q-70 1 -132 -42t-81 -116zM507 597l28 103h120l-27 -103h-121z M445 597h-121l28 103h120z" glyph-name="odieresis" horiz-adv-x="627" unicode="ö"/><glyph d="M424 438l63 18l91 -36l-50 -14l-51 -68l-119 19l-66 -19l-91 36l52 15l52 68zM332 68h-61l12 45h60z" glyph-name="divide" horiz-adv-x="580" unicode="÷"/><glyph d="M550 492l35 36h134l-82 -86q68 -68 35 -192t-134 -190t-226 -66q-54 0 -97 12l-44 -45h-134l90 93q-72 71 -38 196q33 124 134.5 190.5t225.5 65.5q54 0 101 -14zM217 147l247 256q-13 3 -41 5q-70 1 -132 -42t-81 -116q-17 -61 7 -103zM545 347l-243 -251q16 -3 37 -3 q73 0 133 41.5t80 115.5q15 58 -7 97z" glyph-name="oslash" horiz-adv-x="627" unicode="ø"/><glyph d="M224 -5q-195 0 -124 267l65 241h120l-65 -241q-39 -146 82 -146q21 0 44.5 8.5t51.5 29t53 62.5t41 100l51 187h120l-134 -500h-120l28 106q6 26 25 67l-2 1q-20 -44 -35 -65q-84 -117 -201 -117zM400 558l-58 142h143l20 -142h-105z" glyph-name="ugrave" horiz-adv-x="585" unicode="ù"/><glyph d="M224 -5q-195 0 -124 267l65 241h120l-65 -241q-39 -146 82 -146q21 0 44.5 8.5t51.5 29t53 62.5t41 100l51 187h120l-134 -500h-120l28 106q6 26 25 67l-2 1q-20 -44 -35 -65q-84 -117 -201 -117zM379 558l96 142h136l-134 -142h-98z" glyph-name="uacute" horiz-adv-x="585" unicode="ú"/><glyph d="M224 -5q-195 0 -124 267l65 241h120l-65 -241q-39 -146 82 -146q21 0 44.5 8.5t51.5 29t53 62.5t41 100l51 187h120l-134 -500h-120l28 106q6 26 25 67l-2 1q-20 -44 -35 -65q-84 -117 -201 -117zM246 581l167 150h163l87 -150h-132l-51 94l-102 -94h-132z" glyph-name="ucircumflex" horiz-adv-x="585" unicode="û"/><glyph d="M224 -5q-195 0 -124 267l65 241h120l-65 -241q-39 -146 82 -146q21 0 44.5 8.5t51.5 29t53 62.5t41 100l51 187h120l-134 -500h-120l28 106q6 26 25 67l-2 1q-20 -44 -35 -65q-84 -117 -201 -117zM315 597l28 103h120l-28 -103h-120zM618 597h-120l28 103h120z" glyph-name="udieresis" horiz-adv-x="585" unicode="ü"/><glyph d="M119 -209h-119l25 93h63q29 0 70 14t61 45l41 70l-72 487h130l43 -309q5 -32 -6 -73h2q11 42 33 73l208 309h130l-389 -571q-48 -76 -107.5 -107t-112.5 -31zM487 558h-98l96 142h136z" glyph-name="yacute" horiz-adv-x="616" unicode="ý"/><glyph d="M-21 -200l239 900h121l-67 -249q-9 -33 -31 -68l2 -1q25 40 49 56q93 70 231 68q96 -1 145.5 -71t19.5 -185q-32 -118 -118.5 -187t-183.5 -69q-123 0 -187 63q-23 22 -31 66h-2q8 -42 -1 -74l-67 -249h-119zM219 250q-22 -83 16 -128t113 -45q76 0 136.5 46t82.5 127 q22 83 -15.5 128t-110.5 46q-74 1 -137 -45t-85 -129z" glyph-name="thorn" horiz-adv-x="646" unicode="þ"/><glyph d="M119 -209h-119l25 93h63q29 0 70 14t61 45l41 70l-72 487h130l43 -309q5 -32 -6 -73h2q11 42 33 73l208 309h130l-389 -571q-48 -76 -107.5 -107t-112.5 -31zM502 597l27 103h121l-28 -103h-120zM319 597l27 103h121l-28 -103h-120z" glyph-name="ydieresis" horiz-adv-x="616" unicode="ÿ"/><glyph d="M46 0l452 700h166l77 -700h-130l-20 155h-314l-100 -155h-131zM547 579l-207 -321q138 0 170 -5q59 -11 81 -83zM792 793h-371l22 81h371z" glyph-name="Amacron" horiz-adv-x="762" unicode="Ā"/><glyph d="M454 125q-35 -61 -100.5 -92.5t-136.5 -31.5q-79 0 -127 38t-31 103q16 61 66.5 94.5t111.5 40.5t120 8t101.5 7t47.5 27q11 48 -18 70t-97 22q-132 0 -167 -88l-102 10q30 85 114.5 128t179.5 42q51 0 91 -10t73 -32.5t41.5 -60t-3.5 -93.5l-43 -162q-5 -19 0 -26t23 -7 h24l-30 -112h-81q-38 0 -57.5 24.5t-10.5 58.5zM179 145q-9 -33 18 -51t74 -18q64 0 124.5 28t72.5 73l16 61q-23 -12 -61.5 -16.5t-75.5 -5.5t-72.5 -4.5t-61.5 -19.5t-34 -47zM270 593l22 81h372l-22 -81h-372z" glyph-name="amacron" horiz-adv-x="620" unicode="ā"/><glyph d="M46 0l452 700h166l77 -700h-130l-20 155h-314l-100 -155h-131zM593 750q-88 0 -120 52t-12 125h97q-10 -39 2.5 -67t54.5 -28t69.5 28t37.5 67h97q-20 -74 -79 -125.5t-147 -51.5zM340 258q138 0 170 -5q59 -11 81 -83l-44 409z" glyph-name="Abreve" horiz-adv-x="762" unicode="Ă"/><glyph d="M454 125q-35 -61 -100.5 -92.5t-136.5 -31.5q-79 0 -127 38t-31 103q16 61 66.5 94.5t111.5 40.5t120 8t101.5 7t47.5 27q11 48 -18 70t-97 22q-132 0 -167 -88l-102 10q30 85 114.5 128t179.5 42q51 0 91 -10t73 -32.5t41.5 -60t-3.5 -93.5l-43 -162q-5 -19 0 -26t23 -7 h24l-30 -112h-81q-38 0 -57.5 24.5t-10.5 58.5zM179 145q-9 -33 18 -51t74 -18q64 0 124.5 28t72.5 73l16 61q-23 -12 -61.5 -16.5t-75.5 -5.5t-72.5 -4.5t-61.5 -19.5t-34 -47zM435 550q-88 0 -120 51.5t-12 124.5h97q-10 -39 2.5 -66.5t54.5 -27.5t69.5 27.5t37.5 66.5h97 q-20 -73 -79 -124.5t-147 -51.5z" glyph-name="abreve" horiz-adv-x="620" unicode="ă"/><glyph d="M46 0l452 700h166l77 -700h-20q-74 -63 -88 -122q-5 -48 34 -52q20 0 54 14l37 -44q-49 -47 -128 -47q-31 0 -55 9t-37 29t-9.5 48.5t32.5 71t84 93.5h-34l-20 155h-314l-100 -155h-131zM547 579l-207 -321q138 0 170 -5q59 -11 81 -83z" glyph-name="Aogonek" horiz-adv-x="762" unicode="Ą"/><glyph d="M454 125q-35 -61 -100.5 -92.5t-136.5 -31.5q-79 0 -127 38t-31 103q16 61 66.5 94.5t111.5 40.5t120 8t101.5 7t47.5 27q11 48 -18 70t-97 22q-132 0 -167 -88l-102 10q30 85 114.5 128t179.5 42q51 0 91 -10t73 -32.5t41.5 -60t-3.5 -93.5l-43 -162q-5 -19 0 -26t23 -7 h24l-29 -109l-1 -3h-2q-72 -62 -85 -121q-5 -47 34 -50q23 0 54 14l38 -44q-49 -47 -129 -47q-31 0 -54.5 9t-36.5 28.5t-10 47.5t31.5 70.5t81.5 92.5h-3q-38 0 -57.5 24.5t-10.5 58.5zM179 145q-9 -33 18 -51t74 -18q64 0 124.5 28t72.5 73l16 61q-23 -12 -61.5 -16.5 t-75.5 -5.5t-72.5 -4.5t-61.5 -19.5t-34 -47z" glyph-name="aogonek" horiz-adv-x="620" unicode="ą"/><glyph d="M116 350q47 176 168.5 267.5t276.5 89.5q129 -2 203.5 -64t71.5 -182l-125 -30q1 69 -46.5 112t-136.5 43q-109 1 -185.5 -62.5t-106.5 -173.5q-29 -110 16 -173.5t150 -62.5q91 0 160.5 43t104.5 112l109 -30q-61 -120 -169 -182t-237 -64q-156 -2 -228.5 89.5 t-25.5 267.5zM511 758l96 142h136l-134 -142h-98z" glyph-name="Cacute" horiz-adv-x="734" unicode="Ć"/><glyph d="M89 250q33 124 133.5 190.5t223.5 65.5q97 -1 160.5 -49.5t55.5 -138.5l-114 -11q-3 48 -35.5 75t-92.5 27q-74 1 -132.5 -42t-78.5 -117t15.5 -117t110.5 -41q120 2 181 99l109 -11q-40 -89 -129.5 -137t-186.5 -49q-124 -1 -188.5 65.5t-31.5 190.5zM493 558h-98 l96 142h137z" glyph-name="cacute" horiz-adv-x="599" unicode="ć"/><glyph d="M116 350q47 176 168.5 267.5t276.5 89.5q129 -2 203.5 -64t71.5 -182l-125 -30q1 69 -46.5 112t-136.5 43q-109 1 -185.5 -62.5t-106.5 -173.5q-29 -110 16 -173.5t150 -62.5q91 0 160.5 43t104.5 112l109 -30q-61 -120 -169 -182t-237 -64q-156 -2 -228.5 89.5 t-25.5 267.5zM505 781h-133l168 150h162l87 -150h-132l-51 94z" glyph-name="Ccircumflex" horiz-adv-x="734" unicode="Ĉ"/><glyph d="M89 250q33 124 133.5 190.5t223.5 65.5q97 -1 160.5 -49.5t55.5 -138.5l-114 -11q-3 48 -35.5 75t-92.5 27q-74 1 -132.5 -42t-78.5 -117t15.5 -117t110.5 -41q120 2 181 99l109 -11q-40 -89 -129.5 -137t-186.5 -49q-124 -1 -188.5 65.5t-31.5 190.5zM391 581h-132 l167 150h163l87 -150h-132l-51 94z" glyph-name="ccircumflex" horiz-adv-x="599" unicode="ĉ"/><glyph d="M116 350q47 176 168.5 267.5t276.5 89.5q129 -2 203.5 -64t71.5 -182l-125 -30q1 69 -46.5 112t-136.5 43q-109 1 -185.5 -62.5t-106.5 -173.5q-29 -110 16 -173.5t150 -62.5q91 0 160.5 43t104.5 112l109 -30q-61 -120 -169 -182t-237 -64q-156 -2 -228.5 89.5 t-25.5 267.5zM520 794l28 106h130l-28 -106h-130z" glyph-name="Cdotaccent" horiz-adv-x="734" unicode="Ċ"/><glyph d="M89 250q33 124 133.5 190.5t223.5 65.5q97 -1 160.5 -49.5t55.5 -138.5l-114 -11q-3 48 -35.5 75t-92.5 27q-74 1 -132.5 -42t-78.5 -117t15.5 -117t110.5 -41q120 2 181 99l109 -11q-40 -89 -129.5 -137t-186.5 -49q-124 -1 -188.5 65.5t-31.5 190.5zM535 594h-130 l28 106h130z" glyph-name="cdotaccent" horiz-adv-x="599" unicode="ċ"/><glyph d="M116 350q47 176 168.5 267.5t276.5 89.5q129 -2 203.5 -64t71.5 -182l-125 -30q1 69 -46.5 112t-136.5 43q-109 1 -185.5 -62.5t-106.5 -173.5q-29 -110 16 -173.5t150 -62.5q91 0 160.5 43t104.5 112l109 -30q-61 -120 -169 -182t-237 -64q-156 -2 -228.5 89.5 t-25.5 267.5zM414 931h132l51 -94l101 94h132l-167 -150h-163z" glyph-name="Ccaron" horiz-adv-x="734" unicode="Č"/><glyph d="M89 250q33 124 133.5 190.5t223.5 65.5q97 -1 160.5 -49.5t55.5 -138.5l-114 -11q-3 48 -35.5 75t-92.5 27q-74 1 -132.5 -42t-78.5 -117t15.5 -117t110.5 -41q120 2 181 99l109 -11q-40 -89 -129.5 -137t-186.5 -49q-124 -1 -188.5 65.5t-31.5 190.5zM299 731h132 l51 -94l101 94h132l-167 -150h-163z" glyph-name="ccaron" horiz-adv-x="599" unicode="č"/><glyph d="M331 0h-302l188 700h302q100 0 168.5 -38t97 -115.5t-3.5 -196.5q-31 -115 -101.5 -195.5t-159.5 -117.5t-189 -37zM299 557q-10 -37 -119 -445h190q41 0 83 13.5t83 40.5t74.5 74.5t50.5 109.5q31 117 -21.5 177.5t-142.5 60.5h-266q76 0 68 -31zM348 931h132l51 -94 l101 94h132l-167 -150h-163z" glyph-name="Dcaron" horiz-adv-x="712" unicode="Ď"/><glyph d="M272 -6q-120 0 -167 64t-13 192q69 254 317 256q50 1 98 -21t73 -58q11 -16 16 -66h2q-3 35 7 74l71 265h120l-10 -38l18 38h56l-102 -193h-14l-136 -507h-120l16 61q12 39 33 73l-2 1q-31 -50 -51 -66q-43 -34 -102.5 -54.5t-109.5 -20.5zM212 250q-21 -79 7 -118 t114 -39q73 0 138 43.5t84 113.5t-22.5 116.5t-113.5 45.5q-87 -1 -136.5 -42t-70.5 -120z" glyph-name="dcaron" horiz-adv-x="704" unicode="ď"/><glyph d="M75 288l32 120h77l79 292h302q100 0 168.5 -38t97 -115.5t-3.5 -196.5q-30 -115 -101 -195.5t-159.5 -117.5t-188.5 -37h-303l77 288h-77zM472 288h-199q-9 -33 -25 -93t-22 -83h190q56 0 111 22t106.5 78t73.5 138q31 117 -21 177.5t-142 60.5h-267q76 0 68 -31 q-7 -28 -40 -149h200z" glyph-name="Dcroat" horiz-adv-x="756" unicode="Đ"/><glyph d="M272 -6q-120 0 -167 64t-13 192q69 254 317 256q50 1 98 -21t73 -58q11 -16 16 -66h2q-3 35 7 74l30 112h-133l24 90h133l17 63h120l-17 -63h98l-23 -90h-99l-147 -547h-120l16 61q12 39 33 73l-2 1q-31 -50 -51 -66q-43 -34 -102.5 -54.5t-109.5 -20.5zM212 250 q-21 -79 7 -118t114 -39q73 0 138 43.5t84 113.5t-22.5 116.5t-113.5 45.5q-87 -1 -136.5 -42t-70.5 -120z" glyph-name="dcroat" horiz-adv-x="635" unicode="đ"/><glyph d="M779 700l-30 -112h-441l-53 -199h418l-26 -96h-418l-49 -181h441l-30 -112h-561l188 700h561zM335 793l21 81h372l-22 -81h-371z" glyph-name="Emacron" horiz-adv-x="618" unicode="Ē"/><glyph d="M309 -6q-124 -1 -188.5 65.5t-31.5 190.5t133.5 190.5t224.5 65.5q123 -1 183 -66.5t27 -189.5q-2 -8 -10 -28h-441q-8 -65 28 -100t104 -34q63 1 107 20.5t75 69.5l108 -10q-95 -172 -319 -174zM426 417q-70 1 -135.5 -49.5t-84.5 -145.5q21 38 44 51t60 13h245 q9 66 -26 98t-103 33zM659 593h-371l21 81h372z" glyph-name="emacron" horiz-adv-x="612" unicode="ē"/><glyph d="M591 0h-561l188 700h561l-30 -112h-441l-53 -199h418l-26 -96h-418l-49 -181h441zM515 750q-88 0 -120 51.5t-12 124.5h97q-10 -39 2.5 -66.5t54.5 -27.5t69.5 27.5t37.5 66.5h97q-20 -73 -79 -124.5t-147 -51.5z" glyph-name="Ebreve" horiz-adv-x="618" unicode="Ĕ"/><glyph d="M309 -6q-124 -1 -188.5 65.5t-31.5 190.5t133.5 190.5t224.5 65.5q123 -1 183 -66.5t27 -189.5q-2 -8 -10 -28h-441q-8 -65 28 -100t104 -34q63 1 107 20.5t75 69.5l108 -10q-95 -172 -319 -174zM460 550q-88 0 -120 51.5t-12 124.5h97q-10 -39 2 -67t54 -28t69.5 27.5 t38.5 67.5h97q-20 -73 -79 -124.5t-147 -51.5zM206 222q21 38 44 51t60 13h245q9 66 -26 98t-103 33q-70 1 -135.5 -49.5t-84.5 -145.5z" glyph-name="ebreve" horiz-adv-x="612" unicode="ĕ"/><glyph d="M779 700l-30 -112h-441l-53 -199h418l-26 -96h-418l-49 -181h441l-30 -112h-561l188 700h561zM590 794h-130l29 106h130z" glyph-name="Edotaccent" horiz-adv-x="618" unicode="Ė"/><glyph d="M309 -6q-124 -1 -188.5 65.5t-31.5 190.5t133.5 190.5t224.5 65.5q123 -1 183 -66.5t27 -189.5q-2 -8 -10 -28h-441q-8 -65 28 -100t104 -34q63 1 107 20.5t75 69.5l108 -10q-95 -172 -319 -174zM426 417q-70 1 -135.5 -49.5t-84.5 -145.5q21 38 44 51t60 13h245 q9 66 -26 98t-103 33zM407 594l28 106h130l-28 -106h-130z" glyph-name="edotaccent" horiz-adv-x="612" unicode="ė"/><glyph d="M412 0h-382l188 700h561l-30 -112h-441l-53 -199h418l-26 -96h-418l-49 -181h441l-30 -112h-103q-74 -63 -88 -122q-5 -48 34 -52q20 0 54 14l37 -44q-49 -47 -128 -47q-31 0 -55 9t-37 29t-9.5 48.5t32.5 71t84 93.5z" glyph-name="Eogonek" horiz-adv-x="618" unicode="Ę"/><glyph d="M394 -174q-49 -47 -128 -47q-36 0 -62 13t-37 38.5t9 69.5t72 98q-97 16 -142.5 80.5t-16.5 171.5q33 124 133.5 190.5t224.5 65.5q123 -1 183 -66.5t27 -189.5q-2 -8 -10 -28h-441q-8 -65 28 -100t104 -34q63 1 107 20.5t75 69.5l108 -10q-93 -169 -308 -174 q-58 -64 -53 -108q3 -29 35 -29q23 0 54 14zM426 417q-70 1 -135.5 -49.5t-84.5 -145.5q21 38 44 51t60 13h245q9 66 -26 98t-103 33z" glyph-name="eogonek" horiz-adv-x="612" unicode="ę"/><glyph d="M591 0h-561l188 700h561l-30 -112h-441l-53 -199h418l-26 -96h-418l-49 -181h441zM447 781l-87 150h132l52 -94l101 94h132l-167 -150h-163z" glyph-name="Ecaron" horiz-adv-x="618" unicode="Ě"/><glyph d="M309 -6q-124 -1 -188.5 65.5t-31.5 190.5t133.5 190.5t224.5 65.5q123 -1 183 -66.5t27 -189.5q-2 -8 -10 -28h-441q-8 -65 28 -100t104 -34q63 1 107 20.5t75 69.5l108 -10q-95 -172 -319 -174zM206 222q21 38 44 51t60 13h245q9 66 -26 98t-103 33q-70 1 -135.5 -49.5 t-84.5 -145.5zM388 581l-87 150h132l51 -94l102 94h132l-168 -150h-162z" glyph-name="ecaron" horiz-adv-x="612" unicode="ě"/><glyph d="M353 -7q-155 0 -219.5 90t-17.5 267q47 176 169 267.5t279 89.5q130 -2 205 -64t72 -182l-120 -32q-4 76 -59 121t-128 45q-96 1 -181.5 -64.5t-116.5 -180.5q-31 -114 15 -179.5t144 -65.5q68 0 124.5 55t79.5 115h-101l25 92h232q70 0 52 -69q-6 -22 -80 -298h-118 l73 275h-17q-84 -282 -312 -282zM499 781h-132l167 150h163l87 -150h-132l-51 94z" glyph-name="Gcircumflex" horiz-adv-x="749" unicode="Ĝ"/><glyph d="M-13 -49q14 52 50.5 79.5t96.5 46.5q-73 17 -58 74q15 54 97 77q0 1 -3 6.5t-7.5 14.5t-8 22t-4 27.5t3.5 31.5q15 56 64.5 96t107.5 56.5t118 16.5q41 0 106 -18q-6 27 8 46t44 28t66.5 12.5t81.5 2.5l-22 -83h-65q-11 0 -21 -1t-23.5 -4t-16 -9.5t2.5 -16.5l3 -3 q2 -3 5 -6t6.5 -8.5t7 -12t7 -14t5.5 -16.5t3 -18.5t0 -21t-4 -23.5q-22 -81 -107.5 -124.5t-179.5 -43.5q-45 0 -77 11q-4 1 -8.5 2.5l-7.5 2.5t-4 1q-15 1 -31.5 -7t-18.5 -18q-5 -19 26 -28.5t80.5 -11.5t106 -10.5t103 -22t71 -47.5t10.5 -86q-11 -41 -46.5 -71.5 t-85.5 -47t-102 -24.5t-106 -8q-51 0 -100.5 8t-94.5 24.5t-67.5 47.5t-11.5 71zM284 -119q65 0 126 18.5t71 58.5q6 21 -8.5 36t-45.5 23.5t-56.5 13t-61.5 7.5q-33 3 -41 3q-44 0 -96 -23t-62 -60q-5 -20 10 -36t43.5 -24.5t59.5 -12.5t61 -4zM374 249q49 0 90 19.5 t53 63.5q12 43 -18.5 62.5t-79.5 19.5q-50 0 -91 -19.5t-53 -63.5q-12 -43 19 -62.5t80 -19.5zM405 607h-132l167 150h163l87 -150h-132l-51 94z" glyph-name="gcircumflex" horiz-adv-x="633" unicode="ĝ"/><glyph d="M353 -7q-155 0 -219.5 90t-17.5 267q47 176 169 267.5t279 89.5q130 -2 205 -64t72 -182l-120 -32q-4 76 -59 121t-128 45q-96 1 -181.5 -64.5t-116.5 -180.5q-31 -114 15 -179.5t144 -65.5q68 0 124.5 55t79.5 115h-101l25 92h232q70 0 52 -69q-6 -22 -80 -298h-118 l73 275h-17q-84 -282 -312 -282zM582 750q-88 0 -120 51.5t-12 124.5h97q-10 -39 2.5 -66.5t54.5 -27.5t69.5 27.5t37.5 66.5h97q-20 -73 -79 -124.5t-147 -51.5z" glyph-name="Gbreve" horiz-adv-x="749" unicode="Ğ"/><glyph d="M-13 -49q14 52 50.5 79.5t96.5 46.5q-73 17 -58 74q15 54 97 77q0 1 -3 6.5t-7.5 14.5t-8 22t-4 27.5t3.5 31.5q15 56 64.5 96t107.5 56.5t118 16.5q41 0 106 -18q-6 27 8 46t44 28t66.5 12.5t81.5 2.5l-22 -83h-65q-11 0 -21 -1t-23.5 -4t-16 -9.5t2.5 -16.5l3 -3 q2 -3 5 -6t6.5 -8.5t7 -12t7 -14t5.5 -16.5t3 -18.5t0 -21t-4 -23.5q-22 -81 -107.5 -124.5t-179.5 -43.5q-45 0 -77 11q-4 1 -8.5 2.5l-7.5 2.5t-4 1q-15 1 -31.5 -7t-18.5 -18q-5 -19 26 -28.5t80.5 -11.5t106 -10.5t103 -22t71 -47.5t10.5 -86q-11 -41 -46.5 -71.5 t-85.5 -47t-102 -24.5t-106 -8q-51 0 -100.5 8t-94.5 24.5t-67.5 47.5t-11.5 71zM284 -119q65 0 126 18.5t71 58.5q6 21 -8.5 36t-45.5 23.5t-56.5 13t-61.5 7.5q-33 3 -41 3q-44 0 -96 -23t-62 -60q-5 -20 10 -36t43.5 -24.5t59.5 -12.5t61 -4zM330 746h97q-10 -39 2.5 -67 t54.5 -28t69.5 28t37.5 67h97q-20 -74 -79 -125.5t-147 -51.5t-120 52t-12 125zM374 249q49 0 90 19.5t53 63.5q12 43 -18.5 62.5t-79.5 19.5q-50 0 -91 -19.5t-53 -63.5q-12 -43 19 -62.5t80 -19.5z" glyph-name="gbreve" horiz-adv-x="633" unicode="ğ"/><glyph d="M353 -7q-155 0 -219.5 90t-17.5 267q47 176 169 267.5t279 89.5q130 -2 205 -64t72 -182l-120 -32q-4 76 -59 121t-128 45q-96 1 -181.5 -64.5t-116.5 -180.5q-31 -114 15 -179.5t144 -65.5q68 0 124.5 55t79.5 115h-101l25 92h232q70 0 52 -69q-6 -22 -80 -298h-118 l73 275h-17q-84 -282 -312 -282zM521 794l28 106h130l-28 -106h-130z" glyph-name="Gdotaccent" horiz-adv-x="749" unicode="Ġ"/><glyph d="M-13 -49q14 52 50.5 79.5t96.5 46.5q-73 17 -58 74q15 54 97 77q0 1 -3 6.5t-7.5 14.5t-8 22t-4 27.5t3.5 31.5q15 56 64.5 96t107.5 56.5t118 16.5q41 0 106 -18q-6 27 8 46t44 28t66.5 12.5t81.5 2.5l-22 -83h-65q-11 0 -21 -1t-23.5 -4t-16 -9.5t2.5 -16.5l3 -3 q2 -3 5 -6t6.5 -8.5t7 -12t7 -14t5.5 -16.5t3 -18.5t0 -21t-4 -23.5q-22 -81 -107.5 -124.5t-179.5 -43.5q-45 0 -77 11q-4 1 -8.5 2.5l-7.5 2.5t-4 1q-15 1 -31.5 -7t-18.5 -18q-5 -19 26 -28.5t80.5 -11.5t106 -10.5t103 -22t71 -47.5t10.5 -86q-11 -41 -46.5 -71.5 t-85.5 -47t-102 -24.5t-106 -8q-51 0 -100.5 8t-94.5 24.5t-67.5 47.5t-11.5 71zM284 -119q65 0 126 18.5t71 58.5q6 21 -8.5 36t-45.5 23.5t-56.5 13t-61.5 7.5q-33 3 -41 3q-44 0 -96 -23t-62 -60q-5 -20 10 -36t43.5 -24.5t59.5 -12.5t61 -4zM374 249q49 0 90 19.5 t53 63.5q12 43 -18.5 62.5t-79.5 19.5q-50 0 -91 -19.5t-53 -63.5q-12 -43 19 -62.5t80 -19.5zM420 634l29 106h130l-29 -106h-130z" glyph-name="gdotaccent" horiz-adv-x="633" unicode="ġ"/><glyph d="M353 -7q-155 0 -219.5 90t-17.5 267q47 176 169 267.5t279 89.5q130 -2 205 -64t72 -182l-120 -32q-4 76 -59 121t-128 45q-96 1 -181.5 -64.5t-116.5 -180.5q-31 -114 15 -179.5t144 -65.5q68 0 124.5 55t79.5 115h-101l25 92h232q70 0 52 -69q-6 -22 -80 -298h-118 l73 275h-17q-84 -282 -312 -282zM223 -192l96 142h100l-115 -142h-81z" glyph-name="uni0122" horiz-adv-x="749" unicode="Ģ"/><glyph d="M-13 -49q14 52 50.5 79.5t96.5 46.5q-73 17 -58 74q15 54 97 77q0 1 -3 6.5t-7.5 14.5t-8 22t-4 27.5t3.5 31.5q15 56 64.5 96t107.5 56.5t118 16.5q41 0 106 -18q-6 27 8 46t44 28t66.5 12.5t81.5 2.5l-22 -83h-65q-11 0 -21 -1t-23.5 -4t-16 -9.5t2.5 -16.5l3 -3 q2 -3 5 -6t6.5 -8.5t7 -12t7 -14t5.5 -16.5t3 -18.5t0 -21t-4 -23.5q-22 -81 -107.5 -124.5t-179.5 -43.5q-45 0 -77 11q-4 1 -8.5 2.5l-7.5 2.5t-4 1q-15 1 -31.5 -7t-18.5 -18q-5 -19 26 -28.5t80.5 -11.5t106 -10.5t103 -22t71 -47.5t10.5 -86q-11 -41 -46.5 -71.5 t-85.5 -47t-102 -24.5t-106 -8q-51 0 -100.5 8t-94.5 24.5t-67.5 47.5t-11.5 71zM284 -119q65 0 126 18.5t71 58.5q6 21 -8.5 36t-45.5 23.5t-56.5 13t-61.5 7.5q-33 3 -41 3q-44 0 -96 -23t-62 -60q-5 -20 10 -36t43.5 -24.5t59.5 -12.5t61 -4zM374 249q49 0 90 19.5 t53 63.5q12 43 -18.5 62.5t-79.5 19.5q-50 0 -91 -19.5t-53 -63.5q-12 -43 19 -62.5t80 -19.5zM468 571h-71l53 198l22 47h126z" glyph-name="uni0123" horiz-adv-x="633" unicode="ģ"/><glyph d="M30 0l188 700h120l-78 -289h383l78 289h120l-188 -700h-120l78 290h-383l-78 -290h-120zM345 781l168 150h162l87 -150h-132l-51 94l-102 -94h-132z" glyph-name="Hcircumflex" horiz-adv-x="683" unicode="Ĥ"/><glyph d="M31 0l188 700h120l-77 -287q-8 -29 -30 -74l2 -1q24 48 45 70q91 100 228 100q95 0 132.5 -70.5t7.5 -184.5l-68 -253h-120l67 253q18 67 -5.5 107.5t-85.5 40.5q-19 0 -42 -6t-52 -21t-54.5 -38t-49 -62t-36.5 -87l-50 -187h-120zM87 761l167 150h163l87 -150h-132 l-51 94l-102 -94h-132z" glyph-name="hcircumflex" horiz-adv-x="606" unicode="ĥ"/><glyph d="M185 578l33 122h120l-33 -122h383l33 122h120l-33 -122h98l-24 -89h-97l-132 -489h-120l78 290h-383l-78 -290h-120l131 489h-76l24 89h76zM664 489h-383l-21 -78h383z" glyph-name="Hbar" horiz-adv-x="683" unicode="Ħ"/><glyph d="M201 633l18 67h120l-18 -67h130l-24 -89h-130l-35 -131q-8 -29 -30 -74l2 -1q24 48 45 70q91 100 228 100q95 0 132.5 -70.5t7.5 -184.5l-68 -253h-120l67 253q18 67 -5.5 107.5t-85.5 40.5q-19 0 -42 -6t-52 -21t-54.5 -38t-49 -62t-36.5 -87l-50 -187h-120l146 544 h-101l24 89h101z" glyph-name="hbar" horiz-adv-x="606" unicode="ħ"/><glyph d="M30 0l188 700h120l-188 -700h-120zM166 752l-74 19q59 126 187 126q33 0 56 -14t38.5 -28.5t31.5 -15.5q43 -2 74 58l89 -13q-21 -59 -68 -97t-114 -37q-33 1 -54 14.5t-36 27.5t-35 15q-30 1 -56 -15t-39 -40z" glyph-name="Itilde" unicode="Ĩ"/><glyph d="M150 0h-120l134 500h120zM213 698q33 0 55.5 -14t38.5 -28.5t32 -15.5q42 -1 74 58l88 -13q-21 -59 -67.5 -97t-114.5 -37q-33 1 -53.5 14.5t-35.5 27.5t-35 15q-30 2 -56 -14t-40 -40l-73 19q57 125 187 125z" glyph-name="itilde" unicode="ĩ"/><glyph d="M30 0l188 700h120l-188 -700h-120zM130 787l24 89h351l-24 -89h-351z" glyph-name="Imacron" unicode="Ī"/><glyph d="M30 0l134 500h120l-134 -500h-120zM66 593l22 81h371l-22 -81h-371z" glyph-name="imacron" horiz-adv-x="113" unicode="ī"/><glyph d="M50 0h-20l188 700h120l-188 -700h-24q-72 -62 -86 -121q-4 -47 34 -51q20 0 54 14l38 -44q-49 -47 -128 -47q-31 0 -55 9t-37 28.5t-10 48t31.5 71t82.5 92.5z" glyph-name="Iogonek" unicode="Į"/><glyph d="M56 0h-24l134 500h118l-134 -500h-18q-73 -63 -88 -122q-6 -48 34 -51q23 0 54 14l38 -45q-48 -46 -128 -46q-31 0 -55 9t-37 28.5t-9.5 48t32.5 71t83 93.5zM313 599h-122l27 101h122z" glyph-name="iogonek" horiz-adv-x="209" unicode="į"/><glyph d="M30 0l188 700h120l-188 -700h-120zM367 794h-130l29 106h130z" glyph-name="Idotaccent" unicode="İ"/><glyph d="M30 0l134 500h120l-134 -500h-120z" glyph-name="dotlessi" unicode="ı"/><glyph d="M134 -230h-166l27 99h98q79 0 133 38t72 106l184 687h121l-188 -700q-29 -110 -107.5 -170t-173.5 -60zM151 0h-121l188 700h120z" glyph-name="IJ" horiz-adv-x="602" unicode="Ĳ"/><glyph d="M107 -177h-22l24 92h22q51 0 81 23.5t45 80.5l129 481h121l-129 -481q-28 -104 -90 -150t-181 -46zM150 0h-118l134 500h118zM340 700l-27 -101h-122l27 101h122zM413 599l27 101h120l-27 -101h-120z" glyph-name="ij" horiz-adv-x="404" unicode="ĳ"/><glyph d="M305 -7q-52 0 -95.5 12t-78.5 39t-46.5 70.5t0.5 106.5l122 32q-12 -62 19.5 -105t108.5 -43q72 0 133 51.5t85 141.5l108 402h120l-109 -407q-28 -104 -85.5 -173t-127.5 -98t-154 -29zM667 781h-133l168 150h162l87 -150h-132l-51 94z" glyph-name="Jcircumflex" horiz-adv-x="623" unicode="Ĵ"/><glyph d="M-57 -177h-22l25 92h22q51 0 81 23.5t45 80.5l129 481h121l-129 -481q-28 -104 -90 -150t-182 -46zM93 562l168 150h162l87 -150h-132l-20 37h-91l-42 -37h-132z" glyph-name="jcircumflex" horiz-adv-x="241" unicode="ĵ"/><glyph d="M150 0h-120l188 700h120l-89 -333q-12 -41 -36 -76l2 -1q23 37 57 67l393 343h158l-361 -317l193 -383h-157l-168 336l-134 -165zM178 -192l96 142h100l-115 -142h-81z" glyph-name="uni0136" horiz-adv-x="681" unicode="Ķ"/><glyph d="M30 0l188 700h121l-104 -376q-9 -33 -37 -71l2 -1q27 36 60 58l275 190h171l-287 -198l168 -301h-43v-1l-1 1h-108l-126 229l-117 -79l-41 -151h-121zM215 -188h-81l96 142h100z" glyph-name="uni0137" horiz-adv-x="612" unicode="ķ"/><glyph d="M513 501h124l-275 -223l149 -277h-124l-117 211l-110 -80l-35 -132h-95l134 500h95l-69 -249z" glyph-name="kgreenlandic" horiz-adv-x="536" unicode="ĸ"/><glyph d="M30 0l188 700h120l-148 -551q-10 -36 -44 -63l1 -2q35 28 71 28h362l-30 -112h-520zM344 758h-98l96 142h136z" glyph-name="Lacute" horiz-adv-x="571" unicode="Ĺ"/><glyph d="M35 0l193 721h121l-194 -721h-120zM348 769h-98l96 142h136z" glyph-name="lacute" horiz-adv-x="190" unicode="ĺ"/><glyph d="M30 0l188 700h120l-148 -551q-10 -36 -44 -63l1 -2q35 28 71 28h362l-30 -112h-520zM149 -191l96 142h100l-115 -142h-81z" glyph-name="uni013B" horiz-adv-x="571" unicode="Ļ"/><glyph d="M35 0l193 721h121l-194 -721h-120zM35 -193h-81l96 142h100z" glyph-name="uni013C" horiz-adv-x="190" unicode="ļ"/><glyph d="M550 0h-520l188 700h120l-148 -551q-10 -36 -44 -63l1 -2q35 28 71 28h362zM412 549l1 20l115 83l-58 -108h-31z" glyph-name="Lcaron" horiz-adv-x="571" unicode="Ľ"/><glyph d="M35 0l193 721h121l-194 -721h-120zM391 498l-27 5l1 20l115 83l-58 -108h-31z" glyph-name="lcaron" horiz-adv-x="367" unicode="ľ"/><glyph d="M30 0l188 700h120l-148 -551q-10 -36 -44 -63l1 -2q35 28 71 28h362l-30 -112h-520zM496 324h-127l32 118h127z" glyph-name="Ldot" horiz-adv-x="571" unicode="Ŀ"/><glyph d="M35 0l193 721h121l-194 -721h-120zM417 324h-127l31 118h127z" glyph-name="ldot" horiz-adv-x="356" unicode="ŀ"/><glyph d="M9 196l-12 112l224 77l84 315h121l-72 -269l187 64l12 -113l-234 -80l-41 -153q-10 -36 -44 -63l1 -2q35 28 71 28h362l-30 -112h-520l69 257z" glyph-name="Lslash" horiz-adv-x="656" unicode="Ł"/><glyph d="M-3 307l225 70l92 344h121l-82 -303l189 58l8 -114l-231 -71l-78 -291h-120l67 250l-183 -57z" glyph-name="lslash" horiz-adv-x="367" unicode="ł"/><glyph d="M30 0l188 700h124l239 -483q16 -33 20 -79l2 1q-3 43 8 87l127 474h120l-187 -700h-125l-240 478q-16 33 -20 79l-2 -1q3 -43 -8 -87l-126 -469h-120zM489 758l96 142h137l-135 -142h-98z" glyph-name="Nacute" horiz-adv-x="701" unicode="Ń"/><glyph d="M30 0l134 500h120l-30 -111q-6 -24 -25 -67l2 -1q20 44 36 65q45 60 104.5 91t113.5 31q64 0 96.5 -35.5t32.5 -94.5t-19 -136l-64 -242h-121l65 242q19 68 1.5 106.5t-67.5 38.5q-24 0 -50 -8.5t-57 -29t-58.5 -62.5t-43.5 -100l-50 -187h-120zM426 558h-98l96 142h136z " glyph-name="nacute" horiz-adv-x="561" unicode="ń"/><glyph d="M150 0h-120l188 700h124l239 -483q16 -33 20 -79l2 1q-3 43 8 87l127 474h120l-187 -700h-125l-240 478q-16 33 -20 79l-2 -1q3 -43 -8 -87zM292 -191h-81l96 142h100z" glyph-name="uni0145" horiz-adv-x="701" unicode="Ņ"/><glyph d="M30 0l134 500h120l-30 -111q-6 -24 -25 -67l2 -1q20 44 36 65q45 60 104.5 91t113.5 31q64 0 96.5 -35.5t32.5 -94.5t-19 -136l-64 -242h-121l65 242q19 68 1.5 106.5t-67.5 38.5q-24 0 -50 -8.5t-57 -29t-58.5 -62.5t-43.5 -100l-50 -187h-120zM135 -192l96 142h100 l-115 -142h-81z" glyph-name="uni0146" horiz-adv-x="561" unicode="ņ"/><glyph d="M150 0h-120l188 700h124l239 -483q16 -33 20 -79l2 1q-3 43 8 87l127 474h120l-187 -700h-125l-240 478q-16 33 -20 79l-2 -1q3 -43 -8 -87zM396 931h132l52 -94l101 94h132l-167 -150h-163z" glyph-name="Ncaron" horiz-adv-x="701" unicode="Ň"/><glyph d="M30 0l134 500h120l-30 -111q-6 -24 -25 -67l2 -1q20 44 36 65q45 60 104.5 91t113.5 31q64 0 96.5 -35.5t32.5 -94.5t-19 -136l-64 -242h-121l65 242q19 68 1.5 106.5t-67.5 38.5q-24 0 -50 -8.5t-57 -29t-58.5 -62.5t-43.5 -100l-50 -187h-120zM279 731h132l52 -94 l101 94h132l-167 -150h-163z" glyph-name="ncaron" horiz-adv-x="561" unicode="ň"/><glyph d="M150 0h-120l134 500h120l-30 -111q-6 -24 -25 -67l2 -1q20 44 36 65q45 60 104.5 91t113.5 31q64 0 96.5 -35.5t32.5 -94.5t-19 -136l-64 -242h-121l65 242q19 68 1.5 106.5t-67.5 38.5q-24 0 -50 -8.5t-57 -29t-58.5 -62.5t-43.5 -100zM440 669l1 20l115 84l-58 -109 h-31z" glyph-name="napostrophe" horiz-adv-x="561" unicode="ŉ"/><glyph d="M377 -7q-101 0 -169.5 39t-96.5 118t5 200q47 175 172 267t280 90q156 -2 231.5 -93t29.5 -264q-47 -174 -171.5 -265.5t-280.5 -91.5zM237 350q-30 -111 22 -178t147 -67q99 0 185.5 66.5t116.5 178.5q29 112 -22.5 178t-147.5 67q-94 2 -183 -66t-118 -179zM784 793 h-372l22 81h371z" glyph-name="Omacron" horiz-adv-x="757" unicode="Ō"/><glyph d="M312 -6q-125 0 -190.5 66t-32.5 190t134.5 190.5t225.5 65.5q125 -1 190.5 -66.5t32.5 -189.5t-134 -190t-226 -66zM210 250q-20 -75 17 -116t112 -41q73 0 133 41.5t80 115.5q19 73 -19.5 115t-109.5 43q-70 1 -132 -42t-81 -116zM660 593h-372l22 81h371z" glyph-name="omacron" horiz-adv-x="627" unicode="ō"/><glyph d="M377 -7q-101 0 -169.5 39t-96.5 118t5 200q47 175 172 267t280 90q156 -2 231.5 -93t29.5 -264q-47 -174 -171.5 -265.5t-280.5 -91.5zM237 350q-30 -111 22 -178t147 -67q99 0 185.5 66.5t116.5 178.5q29 112 -22.5 178t-147.5 67q-94 2 -183 -66t-118 -179zM579 750 q-88 0 -119.5 51.5t-11.5 124.5h97q-11 -39 1.5 -66.5t54.5 -27.5t69.5 27.5t37.5 66.5h98q-20 -73 -79.5 -124.5t-147.5 -51.5z" glyph-name="Obreve" horiz-adv-x="757" unicode="Ŏ"/><glyph d="M312 -6q-125 0 -190.5 66t-32.5 190t134.5 190.5t225.5 65.5q125 -1 190.5 -66.5t32.5 -189.5t-134 -190t-226 -66zM210 250q-20 -75 17 -116t112 -41q73 0 133 41.5t80 115.5q19 73 -19.5 115t-109.5 43q-70 1 -132 -42t-81 -116zM461 550q-88 0 -120 51.5t-12 124.5h97 q-10 -39 2.5 -66.5t54.5 -27.5t69.5 27.5t37.5 66.5h97q-20 -73 -79 -124.5t-147 -51.5z" glyph-name="obreve" horiz-adv-x="627" unicode="ŏ"/><glyph d="M377 -7q-101 0 -169.5 39t-96.5 118t5 200q47 175 172 267t280 90q156 -2 231.5 -93t29.5 -264q-47 -174 -171.5 -265.5t-280.5 -91.5zM237 350q-30 -111 22 -178t147 -67q99 0 185.5 66.5t116.5 178.5q29 112 -22.5 178t-147.5 67q-94 2 -183 -66t-118 -179zM612 758 l96 142h140l-146 -142h-90zM523 758h-91l96 142h141z" glyph-name="Ohungarumlaut" horiz-adv-x="757" unicode="Ő"/><glyph d="M312 -6q-125 0 -190.5 66t-32.5 190t134.5 190.5t225.5 65.5q125 -1 190.5 -66.5t32.5 -189.5t-134 -190t-226 -66zM210 250q-20 -75 17 -116t112 -41q73 0 133 41.5t80 115.5q19 73 -19.5 115t-109.5 43q-70 1 -132 -42t-81 -116zM403 558h-90l96 142h140zM492 558 l96 142h140l-145 -142h-91z" glyph-name="ohungarumlaut" horiz-adv-x="627" unicode="ő"/><glyph d="M389 -7q-104 0 -175.5 39t-101 118t3.5 200q47 175 175.5 267t288.5 90q84 -1 150 -42t89 -117l41 152h485l-30 -112h-373l-50 -192h311l-26 -97h-311l-51 -187h373l-30 -112h-486l38 141q-58 -66 -148.5 -107t-172.5 -41zM264 350q-33 -123 22 -195t170 -72 q95 0 187.5 73.5t124.5 193.5t-20.5 193.5t-148.5 74.5q-117 2 -209.5 -71t-125.5 -197z" glyph-name="OE" horiz-adv-x="1184" unicode="Œ"/><glyph d="M296 -6q-118 0 -179 66t-28 190t130 190.5t215 65.5q71 -1 127.5 -35t69.5 -86q35 51 115.5 86.5t152.5 34.5q115 -1 165 -65.5t17 -190.5q-1 -4 -10 -23h-439q-14 -57 22.5 -98.5t110.5 -40.5q118 2 176 90l104 -17q-43 -75 -121 -120.5t-162 -46.5q-72 -1 -129 28.5 t-77 81.5q-49 -51 -118.5 -80.5t-141.5 -29.5zM209 250q-23 -84 16.5 -125t118.5 -41q166 0 211 166q19 74 -16 120t-106 46q-75 1 -139.5 -45.5t-84.5 -120.5zM632 227q62 67 169 65h177q14 52 -17.5 88t-103.5 37q-73 0 -137.5 -52t-87.5 -138z" glyph-name="oe" horiz-adv-x="1032" unicode="œ"/><glyph d="M30 0l188 700h353q123 0 176.5 -49t26.5 -149q-22 -79 -95 -121q-39 -31 -123 -44v-2q44 7 64 7q38 0 54 -15q51 -33 23 -138l-50 -189h-121l49 183q16 62 -60 62l-298 -1l-66 -244h-121zM312 598l-67 -250h202q74 0 135 35t76 90q18 68 -15 96.5t-111 28.5h-220z M554 758h-98l96 142h136z" glyph-name="Racute" horiz-adv-x="673" unicode="Ŕ"/><glyph d="M30 0l94 351q20 76 66 112.5t123 36.5h216l-30 -112h-178q-42 0 -58 -13.5t-29 -64.5l-84 -310h-120zM293 558l96 142h136l-134 -142h-98z" glyph-name="racute" horiz-adv-x="420" unicode="ŕ"/><glyph d="M30 0l188 700h353q123 0 176.5 -49t26.5 -149q-22 -79 -95 -121q-39 -31 -123 -44v-2q44 7 64 7q38 0 54 -15q51 -33 23 -138l-50 -189h-121l49 183q16 62 -60 62l-298 -1l-66 -244h-121zM245 348h202q74 0 135 35t76 90q18 68 -15 96.5t-111 28.5h-220zM193 -191l96 142 h100l-115 -142h-81z" glyph-name="uni0156" horiz-adv-x="673" unicode="Ŗ"/><glyph d="M150 0h-120l94 351q20 76 66 112.5t123 36.5h216l-30 -112h-178q-42 0 -58 -13.5t-29 -64.5zM92 -192h-81l96 142h100z" glyph-name="uni0157" horiz-adv-x="420" unicode="ŗ"/><glyph d="M151 0h-121l188 700h353q123 0 176.5 -49t26.5 -149q-22 -79 -95 -121q-39 -31 -123 -44v-2q44 7 64 7q38 0 54 -15q51 -33 23 -138l-50 -189h-121l49 183q16 62 -60 62l-298 -1zM245 348h202q74 0 135 35t76 90q18 68 -15 96.5t-111 28.5h-220zM365 931h132l52 -94 l101 94h132l-167 -150h-163z" glyph-name="Rcaron" horiz-adv-x="673" unicode="Ř"/><glyph d="M150 0h-120l94 351q20 76 66 112.5t123 36.5h216l-30 -112h-178q-42 0 -58 -13.5t-29 -64.5zM288 581l-86 150h132l51 -94l101 94h132l-167 -150h-163z" glyph-name="rcaron" horiz-adv-x="420" unicode="ř"/><glyph d="M86 211l119 9q-11 -54 29 -83t121 -30q95 -1 153.5 27.5t74.5 85.5q8 29 -14 47t-62.5 27t-90.5 15.5t-99 17.5t-87 28.5t-55.5 53t-3.5 87.5q29 107 127 161.5t227 52.5q122 -2 185 -52.5t43 -147.5l-116 -9q8 49 -26 73.5t-116 24.5q-83 0 -137 -26.5t-67 -75.5 q-6 -23 11 -38.5t49 -22.5t74 -13.5t86.5 -12t84.5 -18.5t69 -32.5t41 -53.5t-1 -82q-11 -41 -35.5 -78t-67 -72.5t-113.5 -57t-162 -21.5q-67 0 -116.5 12t-75.5 33t-41 48.5t-14 58.5t6 64zM475 758l96 142h136l-134 -142h-98z" glyph-name="Sacute" horiz-adv-x="674" unicode="Ś"/><glyph d="M63 149l122 17q-7 -44 24.5 -64t97.5 -20q139 0 161 81q5 19 -21 30t-69 13.5t-91.5 10t-89.5 19t-62 40.5t-9 74q13 50 51 84.5t88 48.5t86.5 19t70.5 5q53 0 100 -11.5t81.5 -45.5t25.5 -86l-111 -13q4 36 -26 51.5t-96 15.5q-68 0 -104 -16t-47 -56q-5 -20 21 -31 t69 -14t92 -10.5t89.5 -18.5t62 -39.5t9.5 -72.5q-14 -53 -54 -89.5t-92 -51.5t-89 -20t-73 -5q-23 0 -49.5 3t-61.5 13t-60 25.5t-39.5 45t-6.5 68.5zM372 558l96 142h136l-134 -142h-98z" glyph-name="sacute" horiz-adv-x="568" unicode="ś"/><glyph d="M84 211l119 9q-11 -54 29 -83t121 -30q95 -1 154 27.5t74 85.5q8 29 -14 47t-62.5 27t-90.5 15.5t-99 17.5t-87 28.5t-55.5 53t-3.5 87.5q29 107 127 161.5t227 52.5q122 -2 185 -52.5t44 -147.5l-117 -9q9 49 -25.5 73.5t-116.5 24.5q-83 0 -136.5 -26.5t-66.5 -75.5 q-6 -23 10.5 -38.5t49 -22.5t74.5 -13.5t86 -12t84 -18.5t69 -32.5t41 -53.5t-1 -82q-11 -41 -35.5 -78t-67 -72.5t-113.5 -57t-162 -21.5q-67 0 -116.5 12t-75.5 33t-41 48.5t-14 58.5t6 64zM332 781l167 150h163l87 -150h-133l-50 94l-102 -94h-132z" glyph-name="Scircumflex" horiz-adv-x="670" unicode="Ŝ"/><glyph d="M63 149l122 17q-7 -44 24.5 -64t97.5 -20q139 0 161 81q5 19 -21 30t-69 13.5t-91.5 10t-89.5 19t-62 40.5t-9 74q13 50 51 84.5t88 48.5t86.5 19t70.5 5q53 0 100 -11.5t81.5 -45.5t25.5 -86l-111 -13q4 36 -26 51.5t-96 15.5q-68 0 -104 -16t-47 -56q-5 -20 21 -31 t69 -14t92 -10.5t89.5 -18.5t62 -39.5t9.5 -72.5q-14 -53 -54 -89.5t-92 -51.5t-89 -20t-73 -5q-23 0 -49.5 3t-61.5 13t-60 25.5t-39.5 45t-6.5 68.5zM233 581l167 150h163l87 -150h-132l-51 94l-102 -94h-132z" glyph-name="scircumflex" horiz-adv-x="568" unicode="ŝ"/><glyph d="M84 211l119 9q-11 -54 29 -83t121 -30q95 -1 154 27.5t74 85.5q8 29 -14 47t-62.5 27t-90.5 15.5t-99 17.5t-87 28.5t-55.5 53t-3.5 87.5q29 107 127 161.5t227 52.5q122 -2 185 -52.5t44 -147.5l-117 -9q9 49 -25.5 73.5t-116.5 24.5q-83 0 -136.5 -26.5t-66.5 -75.5 q-6 -23 10.5 -38.5t49 -22.5t74.5 -13.5t86 -12t84 -18.5t69 -32.5t41 -53.5t-1 -82q-10 -37 -31.5 -71.5t-57.5 -68t-95.5 -57t-135.5 -30.5l-41 -53q44 0 66 -24t9 -73q-15 -59 -64 -89.5t-107 -30.5q-43 0 -76.5 16.5t-45.5 45.5l59 50q7 -20 29 -32t48 -12q28 0 50 14 t30 41q4 16 -5.5 26.5t-33 14t-38 4.5t-38.5 1h-5l64 100q-243 16 -200 215z" glyph-name="Scedilla" horiz-adv-x="670" unicode="Ş"/><glyph d="M63 149l122 17q-7 -44 24.5 -64t97.5 -20q139 0 161 81q5 19 -21 30t-69 13.5t-91.5 10t-89.5 19t-62 40.5t-9 74q13 50 51 84.5t88 48.5t86.5 19t70.5 5q53 0 100 -11.5t81.5 -45.5t25.5 -86l-111 -13q4 36 -26 51.5t-96 15.5q-68 0 -104 -16t-47 -56q-5 -20 21 -31 t69 -14t92 -10.5t89.5 -18.5t62 -39.5t9.5 -72.5q-12 -43 -40 -75t-66 -49.5t-73 -26.5t-72 -12l-41 -53q45 0 67 -24t9 -73q-16 -59 -64.5 -89.5t-106.5 -30.5q-43 0 -77 16.5t-46 45.5l59 50q7 -20 29.5 -32t48.5 -12q27 0 49 14t30 41q5 16 -5 26.5t-33 14t-37.5 4.5 t-38.5 1h-5l63 100q-34 4 -64 12.5t-60.5 25t-44.5 46t-6 69.5z" glyph-name="scedilla" horiz-adv-x="568" unicode="ş"/><glyph d="M86 211l119 9q-11 -54 29 -83t121 -30q95 -1 153.5 27.5t74.5 85.5q8 29 -14 47t-62.5 27t-90.5 15.5t-99 17.5t-87 28.5t-55.5 53t-3.5 87.5q29 107 127 161.5t227 52.5q122 -2 185 -52.5t43 -147.5l-116 -9q8 49 -26 73.5t-116 24.5q-83 0 -137 -26.5t-67 -75.5 q-6 -23 11 -38.5t49 -22.5t74 -13.5t86.5 -12t84.5 -18.5t69 -32.5t41 -53.5t-1 -82q-11 -41 -35.5 -78t-67 -72.5t-113.5 -57t-162 -21.5q-67 0 -116.5 12t-75.5 33t-41 48.5t-14 58.5t6 64zM457 781l-86 150h132l51 -94l101 94h132l-167 -150h-163z" glyph-name="Scaron" horiz-adv-x="674" unicode="Š"/><glyph d="M63 149l122 17q-7 -44 24.5 -64t97.5 -20q139 0 161 81q5 19 -21 30t-69 13.5t-91.5 10t-89.5 19t-62 40.5t-9 74q13 50 51 84.5t88 48.5t86.5 19t70.5 5q53 0 100 -11.5t81.5 -45.5t25.5 -86l-111 -13q4 36 -26 51.5t-96 15.5q-68 0 -104 -16t-47 -56q-5 -20 21 -31 t69 -14t92 -10.5t89.5 -18.5t62 -39.5t9.5 -72.5q-14 -53 -54 -89.5t-92 -51.5t-89 -20t-73 -5q-23 0 -49.5 3t-61.5 13t-60 25.5t-39.5 45t-6.5 68.5zM268 731h132l51 -94l101 94h132l-167 -150h-163z" glyph-name="scaron" horiz-adv-x="568" unicode="š"/><glyph d="M178 588l30 112h627l-30 -112h-219q-31 0 -51 25l-2 -1q18 -25 10 -58l-149 -554h-120l158 588h-254zM376 931h132l52 -94l101 94h132l-168 -150h-162z" glyph-name="Tcaron" horiz-adv-x="667" unicode="Ť"/><glyph d="M217 392h-102l30 111h24q37 0 85 53t63 109l121 1q-14 -48 -46.5 -88.5t-76.5 -61.5q-13 -7 -70 -18v-2q37 7 69 7h191l-30 -111h-138l-60 -227q-8 -30 2.5 -41.5t37.5 -11.5h108l-30 -112h-116q-97 0 -122 45t4 138zM528 636l1 20l116 83l-59 -108h-30z" glyph-name="tcaron" horiz-adv-x="500" unicode="ť"/><glyph d="M178 588l30 112h627l-30 -112h-219q-31 0 -51 25l-2 -1q18 -25 10 -58l-37 -137h114l-24 -89h-114l-88 -328h-120l88 328h-117l24 89h117l46 171h-254z" glyph-name="Tbar" horiz-adv-x="667" unicode="Ŧ"/><glyph d="M170 215h-103l24 89h103l23 88h-102l30 111h24q37 0 85 53t63 109l121 1q-14 -48 -46.5 -88.5t-76.5 -61.5q-13 -7 -70 -18v-2q37 7 69 7h191l-30 -111h-138l-23 -88h128l-24 -89h-128l-13 -50q-8 -30 2.5 -41.5t37.5 -11.5h108l-30 -112h-116q-97 0 -122 45t4 138z" glyph-name="tbar" horiz-adv-x="398" unicode="ŧ"/><glyph d="M113 310l105 390h120l-105 -391q-25 -95 16 -150t132 -55q92 0 160.5 53.5t94.5 151.5l105 391h121l-105 -390q-28 -104 -93.5 -178t-145.5 -107t-167 -33q-92 0 -154 33t-88.5 103.5t4.5 181.5zM413 753l-73 19q57 126 186 126q33 0 56 -14t39 -28.5t32 -15.5 q41 -2 74 58l88 -13q-21 -59 -68 -97.5t-114 -36.5q-33 1 -53.5 14.5t-35.5 27.5t-35 15q-31 1 -56.5 -14.5t-39.5 -40.5z" glyph-name="Utilde" horiz-adv-x="704" unicode="Ũ"/><glyph d="M224 -5q-195 0 -124 267l65 241h120l-65 -241q-39 -146 82 -146q21 0 44.5 8.5t51.5 29t53 62.5t41 100l51 187h120l-134 -500h-120l28 106q6 26 25 67l-2 1q-20 -44 -35 -65q-84 -117 -201 -117zM224 571q59 126 187 126q33 0 56 -14t38.5 -28.5t31.5 -15.5q43 -2 74 58 l89 -13q-21 -59 -68 -97t-114 -37q-33 1 -54 14.5t-36 27.5t-35 15q-30 1 -56 -15t-39 -40z" glyph-name="utilde" horiz-adv-x="585" unicode="ũ"/><glyph d="M113 310l105 390h120l-105 -391q-25 -95 16 -150t132 -55q92 0 160.5 53.5t94.5 151.5l105 391h121l-105 -390q-28 -104 -93.5 -178t-145.5 -107t-167 -33q-92 0 -154 33t-88.5 103.5t4.5 181.5zM750 793h-371l21 81h372z" glyph-name="Umacron" horiz-adv-x="704" unicode="Ū"/><glyph d="M224 -5q-195 0 -124 267l65 241h120l-65 -241q-39 -146 82 -146q21 0 44.5 8.5t51.5 29t53 62.5t41 100l51 187h120l-134 -500h-120l28 106q6 26 25 67l-2 1q-20 -44 -35 -65q-84 -117 -201 -117zM637 593h-372l22 81h371z" glyph-name="umacron" horiz-adv-x="585" unicode="ū"/><glyph d="M113 310l105 390h120l-105 -391q-25 -95 16 -150t132 -55q92 0 160.5 53.5t94.5 151.5l105 391h121l-105 -390q-28 -104 -93.5 -178t-145.5 -107t-167 -33q-92 0 -154 33t-88.5 103.5t4.5 181.5zM415 926h97q-11 -39 1.5 -66.5t54.5 -27.5t69.5 27.5t38.5 66.5h97 q-20 -73 -79.5 -124.5t-147.5 -51.5t-119.5 51.5t-11.5 124.5z" glyph-name="Ubreve" horiz-adv-x="704" unicode="Ŭ"/><glyph d="M224 -5q-195 0 -124 267l65 241h120l-65 -241q-39 -146 82 -146q21 0 44.5 8.5t51.5 29t53 62.5t41 100l51 187h120l-134 -500h-120l28 106q6 26 25 67l-2 1q-20 -44 -35 -65q-84 -117 -201 -117zM432 550q-88 0 -120 51.5t-12 124.5h97q-10 -39 2 -66.5t54 -27.5 t69.5 27.5t38.5 66.5h97q-20 -73 -79 -124.5t-147 -51.5z" glyph-name="ubreve" horiz-adv-x="585" unicode="ŭ"/><glyph d="M113 310l105 390h120l-105 -391q-25 -95 16 -150t132 -55q92 0 160.5 53.5t94.5 151.5l105 391h121l-105 -390q-28 -104 -93.5 -178t-145.5 -107t-167 -33q-92 0 -154 33t-88.5 103.5t4.5 181.5zM442 847q11 42 57 71.5t101 29.5q54 0 83.5 -29.5t18.5 -71.5 q-11 -43 -57 -73t-100 -30q-55 0 -85 30t-18 73zM559 797q24 0 45 14.5t26 35.5q5 20 -8 34t-36 14q-25 0 -46 -14t-26 -34q-5 -21 8 -35.5t37 -14.5z" glyph-name="Uring" horiz-adv-x="704" unicode="Ů"/><glyph d="M224 -5q-195 0 -124 267l65 241h120l-65 -241q-39 -146 82 -146q21 0 44.5 8.5t51.5 29t53 62.5t41 100l51 187h120l-134 -500h-120l28 106q6 26 25 67l-2 1q-20 -44 -35 -65q-84 -117 -201 -117zM434 544q-55 0 -85 29.5t-19 73.5q11 42 57 71.5t101 29.5q54 0 84 -29.5 t19 -71.5q-12 -43 -57.5 -73t-99.5 -30zM402 647q-5 -21 8 -35.5t38 -14.5q23 0 44 14.5t26 35.5q5 20 -8 34t-36 14q-24 0 -45.5 -14.5t-26.5 -33.5z" glyph-name="uring" horiz-adv-x="585" unicode="ů"/><glyph d="M113 310l105 390h120l-105 -391q-25 -95 16 -150t132 -55q92 0 160.5 53.5t94.5 151.5l105 391h121l-105 -390q-28 -104 -93.5 -178t-145.5 -107t-167 -33q-92 0 -154 33t-88.5 103.5t4.5 181.5zM484 758h-91l96 142h141zM573 758l96 142h140l-145 -142h-91z" glyph-name="Uhungarumlaut" horiz-adv-x="704" unicode="Ű"/><glyph d="M224 -5q-195 0 -124 267l65 241h120l-65 -241q-39 -146 82 -146q21 0 44.5 8.5t51.5 29t53 62.5t41 100l51 187h120l-134 -500h-120l28 106q6 26 25 67l-2 1q-20 -44 -35 -65q-84 -117 -201 -117zM280 560l96 142h140l-145 -142h-91zM550 560h-90l96 142h140z" glyph-name="uhungarumlaut" horiz-adv-x="585" unicode="ű"/><glyph d="M113 310l105 390h120l-105 -391q-25 -95 16 -150t132 -55q92 0 160.5 53.5t94.5 151.5l105 391h121l-105 -390q-33 -122 -112 -198.5t-183 -104.5q-55 -65 -46 -106q4 -25 34 -25q23 0 54 14l38 -45q-49 -47 -128 -47q-27 0 -49 7t-36 22.5t-16.5 38t12.5 55.5t48 72 q-7 -1 -22 -1q-92 0 -154 33t-88.5 103.5t4.5 181.5z" glyph-name="Uogonek" horiz-adv-x="704" unicode="Ų"/><glyph d="M224 -5q-195 0 -124 267l65 241h120l-65 -241q-39 -146 82 -146q21 0 44.5 8.5t51.5 29t53 62.5t41 100l51 187h120l-134 -500h-24q-73 -63 -87 -122q-5 -47 34 -50q23 0 54 14l37 -45q-49 -47 -128 -47q-31 0 -54.5 9t-36.5 29t-9.5 48t32 71t82.5 93h-20l28 106 q6 26 25 67l-2 1q-20 -44 -35 -65q-84 -117 -201 -117z" glyph-name="uogonek" horiz-adv-x="585" unicode="ų"/><glyph d="M257 0l-47 700h127l33 -548q0 -13 -4 -35h2q4 20 11 35l278 548h134l-17 -549q0 -10 -7 -33h2q6 19 14 33l330 549h128l-423 -700h-159l15 504q0 3 2 11h-2q-3 -10 -3 -11l-256 -504h-158zM609 781h-133l168 150h162l87 -150h-132l-51 94z" glyph-name="Wcircumflex" horiz-adv-x="1075" unicode="Ŵ"/><glyph d="M148 500h129l22 -376q2 -30 -7 -63h2q10 38 24 63l207 376h195l11 -377q0 -31 -10 -63h2q11 36 27 63l226 377h128l-301 -500h-194l-10 367q-1 31 10 75h-2q-11 -42 -29 -75l-202 -367h-195zM542 581h-132l167 150h163l87 -150h-132l-51 94z" glyph-name="wcircumflex" horiz-adv-x="929" unicode="ŵ"/><glyph d="M385 321l-181 378h148l109 -237q14 -29 3 -69h2q10 39 40 69l235 237h148l-384 -378l-86 -321h-120zM361 781l167 150h163l87 -150h-132l-51 94l-102 -94h-132z" glyph-name="Ycircumflex" horiz-adv-x="718" unicode="Ŷ"/><glyph d="M-4 -209l25 93h63q29 0 70 14t61 45l42 70l-73 487h131l42 -309q5 -32 -6 -73h2q10 39 33 73l208 309h131l-389 -571q-48 -76 -107.5 -107t-112.5 -31h-120zM254 581l167 150h163l86 -150h-132l-50 94l-102 -94h-132z" glyph-name="ycircumflex" horiz-adv-x="609" unicode="ŷ"/><glyph d="M385 321l-181 378h148l109 -237q14 -29 3 -69h2q10 39 40 69l235 237h148l-384 -378l-86 -321h-120zM421 797l28 103h120l-27 -103h-121zM604 797l28 103h120l-27 -103h-121z" glyph-name="Ydieresis" horiz-adv-x="718" unicode="Ÿ"/><glyph d="M674 0h-652l24 89l571 472q30 26 72 42v1q-38 -15 -77 -15h-424l30 111h635l-24 -89l-565 -472q-30 -24 -73 -42l1 -1q41 16 76 16h436zM486 758l96 142h136l-134 -142h-98z" glyph-name="Zacute" horiz-adv-x="696" unicode="Ź"/><glyph d="M547 0h-522l29 107l355 257q35 24 75 36v2q-42 -14 -77 -14h-268l30 112h509l-29 -107l-353 -257q-36 -25 -75 -36v-2q48 14 77 14h279zM372 559l97 142h136l-134 -142h-99z" glyph-name="zacute" horiz-adv-x="572" unicode="ź"/><glyph d="M674 0h-652l24 89l571 472q30 26 72 42v1q-38 -15 -77 -15h-424l30 111h635l-24 -89l-565 -472q-30 -24 -73 -42l1 -1q41 16 76 16h436zM491 794l29 106h130l-29 -106h-130z" glyph-name="Zdotaccent" horiz-adv-x="696" unicode="Ż"/><glyph d="M547 0h-522l29 107l355 257q35 24 75 36v2q-42 -14 -77 -14h-268l30 112h509l-29 -107l-353 -257q-36 -25 -75 -36v-2q48 14 77 14h279zM382 594l28 106h130l-28 -106h-130z" glyph-name="zdotaccent" horiz-adv-x="572" unicode="ż"/><glyph d="M674 0h-652l24 89l571 472q30 26 72 42v1q-38 -15 -77 -15h-424l30 111h635l-24 -89l-565 -472q-30 -24 -73 -42l1 -1q41 16 76 16h436zM386 931h133l51 -94l101 94h132l-167 -150h-163z" glyph-name="Zcaron" horiz-adv-x="696" unicode="Ž"/><glyph d="M547 0h-522l29 107l355 257q35 24 75 36v2q-42 -14 -77 -14h-268l30 112h509l-29 -107l-353 -257q-36 -25 -75 -36v-2q48 14 77 14h279zM281 731h133l51 -94l101 94h132l-167 -150h-163z" glyph-name="zcaron" horiz-adv-x="572" unicode="ž"/><glyph d="M82 211l119 9q-11 -54 29 -83t121 -30q95 -1 153.5 27.5t74.5 85.5q8 29 -14 47t-62.5 27t-90.5 15.5t-99 17.5t-87 28.5t-55.5 53t-3.5 87.5q29 107 127 161.5t227 52.5q122 -2 185 -52.5t43 -147.5l-116 -9q8 49 -26 73.5t-116 24.5q-83 0 -137 -26.5t-67 -75.5 q-6 -23 11 -38.5t49 -22.5t74 -13.5t86.5 -12t84.5 -18.5t69 -32.5t41 -53.5t-1 -82q-11 -41 -35.5 -78t-67 -72.5t-113.5 -57t-162 -21.5q-67 0 -116.5 12t-75.5 33t-41 48.5t-14 58.5t6 64zM185 -192l96 142h100l-115 -142h-81z" glyph-name="uni0218" horiz-adv-x="666" unicode="Ș"/><glyph d="M63 149l122 17q-7 -44 24.5 -64t97.5 -20q139 0 161 81q5 19 -21 30t-69 13.5t-91.5 10t-89.5 19t-62 40.5t-9 74q13 50 51 84.5t88 48.5t86.5 19t70.5 5q53 0 100 -11.5t81.5 -45.5t25.5 -86l-111 -13q4 36 -26 51.5t-96 15.5q-68 0 -104 -16t-47 -56q-5 -20 21 -31 t69 -14t92 -10.5t89.5 -18.5t62 -39.5t9.5 -72.5q-14 -53 -54 -89.5t-92 -51.5t-89 -20t-73 -5q-23 0 -49.5 3t-61.5 13t-60 25.5t-39.5 45t-6.5 68.5zM140 -192l96 142h100l-115 -142h-81z" glyph-name="uni0219" horiz-adv-x="567" unicode="ș"/><glyph d="M178 588l30 112h627l-30 -112h-219q-31 0 -51 25l-2 -1q18 -25 10 -58l-149 -554h-120l158 588h-254zM193 -192l97 142h100l-115 -142h-82z" glyph-name="uni021A" horiz-adv-x="667" unicode="Ț"/><glyph d="M121 392l30 111h24q37 0 85 53t63 109l121 1q-31 -105 -122 -150q-13 -7 -70 -18v-2q37 7 69 7h191l-30 -111h-138l-61 -227q-15 -53 40 -53h108l-30 -112h-116q-97 0 -122 45t4 138l56 209h-102zM176 -192h-82l97 142h100z" glyph-name="uni021B" horiz-adv-x="411" unicode="ț"/><glyph d="M282 527h-121l196 173h95l104 -173h-120l-55 84z" glyph-name="circumflex" horiz-adv-x="434" unicode="ˆ"/><glyph d="M359 527l-102 68l-7 105l117 -49l80 14l79 35l-14 -68z" glyph-name="caron" horiz-adv-x="414" unicode="ˇ"/><glyph d="M177 549l25 95h316l-25 -95h-316z" glyph-name="uni02C9" horiz-adv-x="377" unicode="ˉ"/><glyph d="M342 542q-88 0 -120 51.5t-12 124.5h97q-11 -37 1.5 -65.5t55.5 -28.5q42 0 69.5 28.5t37.5 65.5h97q-20 -73 -79 -124.5t-147 -51.5z" glyph-name="breve" horiz-adv-x="393" unicode="˘"/><glyph d="M299 594h-130l29 106h130z" glyph-name="dotaccent" horiz-adv-x="150" unicode="˙"/><glyph d="M292 544q-55 0 -85 30t-18 73q11 42 57 71.5t101 29.5q54 0 83.5 -29.5t18.5 -71.5q-11 -43 -57 -73t-100 -30zM273 647q-5 -16 6 -27t30 -11t35 11t21 27q4 14 -6.5 25t-29.5 11t-35.5 -11t-20.5 -25z" glyph-name="ring" horiz-adv-x="291" unicode="˚"/><glyph d="M80 4h76q-46 -39 -75 -96q-32 -72 18 -76q23 0 53 11l41 -43q-49 -47 -128 -47q-31 0 -55 9t-37 29t-9.5 48.5t32.5 71t84 93.5z" glyph-name="ogonek" horiz-adv-x="235" unicode="˛"/><glyph d="M245 583l-73 19q60 133 190 130q33 -1 54 -15t35.5 -28t30.5 -15q39 -2 68 54l94 -8q-22 -59 -70.5 -98t-116.5 -37q-33 1 -53.5 14.5t-36 27.5t-35.5 15q-55 3 -87 -59z" glyph-name="tilde" horiz-adv-x="467" unicode="˜"/><glyph d="M427 558h-91l96 142h140zM242 558h-90l96 142h140z" glyph-name="hungarumlaut" horiz-adv-x="378" unicode="˝"/><glyph d="M138 700l20 -142h-105l-58 142h143z" glyph-name="gravecomb" horiz-adv-x="0" unicode="̀"/><glyph d="M94 558h-98l96 142h136z" glyph-name="acutecomb" horiz-adv-x="0" unicode="́"/><glyph d="M-118 581h-132l167 150h163l87 -150h-132l-51 94z" glyph-name="uni0302" horiz-adv-x="0" unicode="̂"/><glyph d="M-186 583l-73 19q57 126 186 126q33 0 56 -14t38.5 -28.5t31.5 -15.5q43 -2 74 58l89 -13q-21 -58 -68 -96.5t-114 -37.5q-33 1 -53.5 14.5t-36 27.5t-35.5 15q-30 1 -56 -15t-39 -40z" glyph-name="tildecomb" horiz-adv-x="0" unicode="̃"/><glyph d="M-186 593l21 81h372l-22 -81h-371z" glyph-name="uni0304" horiz-adv-x="0" unicode="̄"/><glyph d="M-26 550q-88 0 -119.5 51.5t-12.5 124.5h97q-10 -39 2.5 -67t54.5 -28t69.5 28t37.5 67h98q-20 -73 -79.5 -124.5t-147.5 -51.5z" glyph-name="uni0306" horiz-adv-x="0" unicode="̆"/><glyph d="M165 594h-130l28 106h130z" glyph-name="uni0307" horiz-adv-x="0" unicode="̇"/><glyph d="M2 597h-120l27 103h121zM65 597l27 103h121l-28 -103h-120z" glyph-name="uni0308" horiz-adv-x="0" unicode="̈"/><glyph d="M35 544q-55 0 -85 30t-18 73q11 42 57 71.5t101 29.5q54 0 83.5 -29.5t18.5 -71.5q-11 -43 -57 -73t-100 -30zM4 647q-6 -21 7.5 -35.5t37.5 -14.5q23 0 44 14.5t27 35.5q5 20 -8 34t-36 14q-25 0 -46 -14t-26 -34z" glyph-name="uni030A" horiz-adv-x="0" unicode="̊"/><glyph d="M-115 558h-91l96 142h141zM64 558h-90l96 142h140z" glyph-name="uni030B" horiz-adv-x="0" unicode="̋"/><glyph d="M-210 731h132l52 -94l101 94h132l-168 -150h-162z" glyph-name="uni030C" horiz-adv-x="0" unicode="̌"/><glyph d="M-198 -192h-82l96 142h101z" glyph-name="uni0326" horiz-adv-x="0" unicode="̦"/><glyph d="M-357 -221l59 50q7 -20 29.5 -32t48.5 -12q27 0 49 14t30 41q5 16 -5 26.5t-33 14t-37.5 4.5t-38.5 1h-5l26 40l48 78h101l-54 -70q45 0 66.5 -24t8.5 -73q-15 -59 -64 -89.5t-107 -30.5q-43 0 -76.5 16.5t-45.5 45.5z" glyph-name="uni0327" horiz-adv-x="0" unicode="̧"/><glyph d="M-170 4h76q-74 -63 -88 -122q-5 -48 34 -52q20 0 54 14l37 -44q-49 -47 -128 -47q-31 0 -55 9t-37 29t-9.5 48.5t32.5 71t84 93.5z" glyph-name="uni0328" horiz-adv-x="0" unicode="̨"/><glyph d="M-5 -132q6 25 29.5 112t43.5 162t20 76l76 282h121l-55 -205q-25 -88 -8 -130t80 -42q14 0 37 10.5t52 32.5t57.5 68.5t45.5 108.5l42 157h121l-134 -500h-121l21 78q7 30 24 63l-2 1q-74 -150 -193 -150q-75 0 -86 67l-51 -191h-120z" glyph-name="uni03BC" horiz-adv-x="553" unicode="μ"/><glyph d="M257 0l-47 700h127l33 -548q0 -13 -4 -35h2q4 20 11 35l278 548h134l-17 -549q0 -10 -7 -33h2q6 19 14 33l330 549h128l-423 -700h-159l15 504q0 3 2 11h-2q-3 -10 -3 -11l-256 -504h-158zM682 758l-58 142h143l20 -142h-105z" glyph-name="Wgrave" horiz-adv-x="1075" unicode="Ẁ"/><glyph d="M177 0l-34 500h129l23 -376q2 -30 -7 -63h2q10 38 24 63l207 376h194l12 -377q0 -31 -10 -63h2q11 36 27 63l225 377h129l-302 -500h-193l-11 367q0 33 11 75h-2q-11 -42 -29 -75l-202 -367h-195zM522 700h143l20 -142h-105z" glyph-name="wgrave" horiz-adv-x="925" unicode="ẁ"/><glyph d="M257 0l-47 700h127l33 -548q0 -13 -4 -35h2q4 20 11 35l278 548h134l-17 -549q0 -10 -7 -33h2q6 19 14 33l330 549h128l-423 -700h-159l15 504q0 3 2 11h-2q-3 -10 -3 -11l-256 -504h-158zM653 758l96 142h136l-134 -142h-98z" glyph-name="Wacute" horiz-adv-x="1075" unicode="Ẃ"/><glyph d="M177 0l-34 500h129l23 -376q2 -30 -7 -63h2q10 38 24 63l207 376h194l12 -377q0 -31 -10 -63h2q11 36 27 63l225 377h129l-302 -500h-193l-11 367q0 33 11 75h-2q-11 -42 -29 -75l-202 -367h-195zM539 558l96 142h136l-134 -142h-98z" glyph-name="wacute" horiz-adv-x="925" unicode="ẃ"/><glyph d="M257 0l-47 700h127l33 -548q0 -13 -4 -35h2q4 20 11 35l278 548h134l-17 -549q0 -10 -7 -33h2q6 19 14 33l330 549h128l-423 -700h-159l15 504q0 3 2 11h-2q-3 -10 -3 -11l-256 -504h-158zM770 797l27 103h121l-28 -103h-120zM587 797l27 103h121l-28 -103h-120z" glyph-name="Wdieresis" horiz-adv-x="1075" unicode="Ẅ"/><glyph d="M177 0l-34 500h129l23 -376q2 -30 -7 -63h2q10 38 24 63l207 376h194l12 -377q0 -31 -10 -63h2q11 36 27 63l225 377h129l-302 -500h-193l-11 367q0 33 11 75h-2q-11 -42 -29 -75l-202 -367h-195zM776 597h-121l28 103h120zM593 597h-121l28 103h120z" glyph-name="wdieresis" horiz-adv-x="920" unicode="ẅ"/><glyph d="M91 228l32 120h528l-32 -120h-528z" glyph-name="endash" horiz-adv-x="588" unicode="–"/><glyph d="M94 240l33 121h824l-32 -121h-825z" glyph-name="emdash" horiz-adv-x="884" unicode="—"/><glyph d="M142 454l53 199l23 47h125l-130 -246h-71z" glyph-name="quoteleft" horiz-adv-x="175" unicode="‘"/><glyph d="M209 565l-27 5v20l116 83l-59 -108h-30z" glyph-name="quoteright" horiz-adv-x="175" unicode="’"/><glyph d="M2 -114l13 48h19q64 0 79 58h-83l33 122h133l-33 -122q-15 -58 -46.5 -82t-95.5 -24h-19z" glyph-name="quotesinglbase" horiz-adv-x="198" unicode="‚"/><glyph d="M292 471h-133l32 122q16 59 47.5 82.5t95.5 23.5h19l-13 -48h-19q-64 0 -80 -58h83zM313 471l32 122q16 59 47.5 82.5t95.5 23.5h19l-13 -48h-19q-64 0 -80 -58h83l-32 -122h-133z" glyph-name="quotedblleft" horiz-adv-x="352" unicode="“"/><glyph d="M313 471l13 49h19q65 0 79 58h-83l33 121h133l-33 -121q-15 -58 -46.5 -82.5t-95.5 -24.5h-19zM159 471l13 49h19q65 0 79 58h-83l33 121h133l-33 -121q-15 -58 -46.5 -82.5t-95.5 -24.5h-19z" glyph-name="quotedblright" horiz-adv-x="349" unicode="”"/><glyph d="M28 -111l13 48h19q66 0 80 58h-83l32 122h134l-33 -122q-16 -59 -47.5 -82.5t-95.5 -23.5h-19zM201 -111h-19l13 48h19q64 0 80 58h-83l32 122h133l-32 -122q-16 -59 -47.5 -82.5t-95.5 -23.5z" glyph-name="quotedblbase" horiz-adv-x="399" unicode="„"/><glyph d="M240 517h-86l29 107h86l20 76h120l-20 -76h82l-29 -107h-81l-47 -173h-121z" glyph-name="dagger" horiz-adv-x="319" unicode="†"/><glyph d="M223 389h-97l25 95h97l13 50h-97l26 94h97l19 72h120l-19 -72h97l-26 -94h-96l-14 -50h97l-25 -95h-97l-23 -86h-121z" glyph-name="daggerdbl" horiz-adv-x="357" unicode="‡"/><glyph d="M222 104q-72 0 -109 51t-18 123t83.5 123t136.5 51t109.5 -51t18.5 -123q-20 -72 -84.5 -123t-136.5 -51z" glyph-name="bullet" horiz-adv-x="388" unicode="•"/><glyph d="M507 18l32 119h128l-32 -119h-128zM153 18h-128l32 119h128zM265 18l32 119h128l-32 -119h-128z" glyph-name="ellipsis" horiz-adv-x="671" unicode="…"/><glyph d="M384 700q100 0 127 -68q24 -58 -18 -124q-48 -76 -141 -94q-23 -4 -46 -4q-100 0 -127 68q-24 58 18 124q48 76 141 94q23 4 46 4zM660 290q100 0 127 -68q24 -58 -18 -124q-47 -76 -140 -94q-23 -4 -46 -4q-100 0 -128 68q-23 58 18 124q48 76 141 94q23 4 46 4z M1046 290q100 0 127 -68q24 -58 -18 -124q-48 -76 -141 -94q-23 -4 -46 -4q-100 0 -127 68q-24 58 18 124q48 76 141 94q23 4 46 4zM199 0h-158l725 700h158zM326 485q55 0 83 48q25 41 5 71q-15 22 -50 22q-55 0 -83 -48q-25 -41 -4 -71q15 -22 49 -22zM603 75q55 0 83 46 q24 41 5 71q-15 23 -51 23q-55 0 -83 -46q-24 -41 -5 -71q15 -23 51 -23zM988 75q55 0 83 46q25 41 5 71q-14 23 -50 23q-56 0 -84 -48q-24 -41 -3 -71q15 -21 49 -21z" glyph-name="perthousand" horiz-adv-x="1163" unicode="‰"/><glyph d="M102 326l316 160l-33 -124l-159 -86l113 -86l-33 -123l-230 160z" glyph-name="guilsinglleft" horiz-adv-x="303" unicode="‹"/><glyph d="M349 227l-316 -160l33 124l159 85l-113 86l33 124l230 -160z" glyph-name="guilsinglright" horiz-adv-x="303" unicode="›"/><glyph d="M15 0l651 700h144l-651 -700h-144z" glyph-name="fraction" horiz-adv-x="637" unicode="⁄"/><glyph d="M405 -7q-172 -1 -254 90.5t-35 266.5q32 118 105 200t168.5 120t207.5 37q117 -2 195.5 -45t102.5 -126l-123 -51q-16 57 -72.5 86t-132.5 30q-86 1 -158 -31.5t-110 -100.5h236l-36 -75h-247q-15 -32 -18 -66h256l-33 -74h-218q-1 -71 51 -111.5t144 -39.5 q170 2 265 113l97 -52q-70 -84 -171.5 -127t-219.5 -44z" glyph-name="Euro" horiz-adv-x="774" unicode="€"/><glyph d="M316 572l35 128h47l24 -78l66 78h47l-34 -128h-45l14 52l-46 -52h-31l-18 53l-14 -53h-45zM194 654l12 46h132l-12 -46h-44l-22 -82h-44l22 82h-44z" glyph-name="trademark" horiz-adv-x="369" unicode="™"/><glyph d="M126 355l409 322l52 -74l-239 -188h495l-33 -121h-494l138 -191l-91 -71z" glyph-name="arrowleft" horiz-adv-x="762" unicode="←"/><glyph d="M543 706l236 -322l-94 -72l-138 189l-132 -495h-120l132 495l-242 -190l-51 73z" glyph-name="arrowup" horiz-adv-x="706" unicode="↑"/><glyph d="M825 354l-408 -322l-52 74l239 188h-495l33 121h494l-138 191l91 71z" glyph-name="arrowright" horiz-adv-x="762" unicode="→"/><glyph d="M355 6l-236 323l94 72l137 -189l132 494h121l-133 -494l243 189l51 -72z" glyph-name="arrowdown" horiz-adv-x="706" unicode="↓"/><glyph d="M731 589l90 71l234 -320l-405 -320l-53 72l239 189h-533l138 -188l-91 -73l-234 321l405 320l52 -72l-238 -190h533z" glyph-name="arrowboth" horiz-adv-x="989" unicode="↔"/><glyph d="M201 390l-52 71l406 320l235 -320l-92 -73l-138 189l-141 -523l238 188l54 -72l-406 -320l-234 320l90 71l140 -187l141 524z" glyph-name="arrowupdn" horiz-adv-x="693" unicode="↕"/><glyph d="M200 616h456l-29 -104l-267 1l256 -350l-108 -85l-255 350l-74 -270l-101 2z" glyph-name="uni2196" horiz-adv-x="607" unicode="↖"/><glyph d="M735 604l-122 -456l-104 2l72 266l-443 -350l-62 85l443 350l-269 2l29 101h456z" glyph-name="uni2197" horiz-adv-x="608" unicode="↗"/><glyph d="M584 47h-456l30 104l266 -1l-256 350l108 85l256 -350l74 270l100 -2z" glyph-name="uni2198" horiz-adv-x="607" unicode="↘"/><glyph d="M45 50l123 455l103 -1l-72 -266l443 349l62 -85l-443 -349l269 -2l-28 -101h-457z" glyph-name="uni2199" horiz-adv-x="608" unicode="↙"/><glyph d="M239 4q-63 8 -105.5 38.5t-58 86t20.5 135.5q42 96 129 146.5t181 50.5q97 0 156 -50t39 -134q34 73 37.5 132.5t-16 96.5t-54.5 63t-71.5 36.5t-73.5 11.5l58 85q112 -9 174.5 -59.5t68.5 -143.5t-58 -227q-65 -138 -161.5 -205t-209.5 -67q-31 0 -56 4zM222 260 q-31 -66 0.5 -113.5t110.5 -58.5q58 -8 132 28t103 99q29 61 -8.5 111.5t-94.5 60.5q-16 3 -34 3q-63 0 -122.5 -36t-86.5 -94z" glyph-name="partialdiff" horiz-adv-x="627" unicode="∂"/><glyph d="M384 34q-143 0 -220 89.5t-43 217.5q34 126 159 216t268 90t220.5 -90t43.5 -216q-34 -127 -159.5 -217t-268.5 -90zM238 340q-13 -50 8 -99l372 274q-41 31 -98 31q-94 0 -176.5 -60.5t-105.5 -145.5zM315 164q38 -30 95 -30q94 0 177.5 60t104.5 146q13 54 -4 98z" glyph-name="emptyset" horiz-adv-x="750" unicode="∅"/><glyph d="M935 700l-30 -111h-176l-158 -589h-119l157 589h-137l-158 -589h-119l158 589h-180l30 111h732z" glyph-name="product" horiz-adv-x="763" unicode="∏"/><glyph d="M779 716l-27 -104h-380l57 -254l-193 -255h379l-27 -103h-558l273 358l-81 358h557z" glyph-name="summation" horiz-adv-x="609" unicode="∑"/><glyph d="M94 240l30 112h497l-30 -112h-497z" glyph-name="minus" horiz-adv-x="556" unicode="−"/><glyph d="M869 627l70 -207h-142l-18 63l-476 -603h-136l-97 322h136l47 -210l500 635h116z" glyph-name="radical" horiz-adv-x="847" unicode="√"/><glyph d="M240 139q-76 0 -115.5 46.5t-19.5 122.5q21 77 85 123t140 46q42 0 80 -17.5t60.5 -37t51.5 -51.5q51 34 81 52t78 36t90 18q76 0 115 -46.5t19 -122.5q-20 -77 -84 -123t-141 -46q-61 0 -105.5 26.5t-87.5 74.5q-142 -101 -247 -101zM733 384q-27 0 -61 -14.5t-49 -24 t-59 -39.5q22 -26 36.5 -39t39 -24.5t53.5 -11.5q84 0 105 77q20 76 -65 76zM213 308q-10 -37 8 -57t55 -20q28 0 58.5 12t50.5 24.5t56 38.5q-2 2 -14 15.5t-16 17t-15 13.5t-17.5 13.5t-17 9t-21.5 7.5t-23 2q-84 0 -104 -76z" glyph-name="infinity" horiz-adv-x="848" unicode="∞"/><glyph d="M92 -125h-104l29 108h37q28 0 40 14.5t30 57.5l243 607q32 84 72 122t122 38h104l-29 -107h-59q-22 0 -38.5 -9t-30 -30t-20 -33.5t-17.5 -40.5l-227 -567q-31 -85 -62 -122.5t-90 -37.5z" glyph-name="integral" horiz-adv-x="466" unicode="∫"/><glyph d="M261 294q36 3 65 -9.5t45 -29.5t36.5 -30t42.5 -11q35 1 59.5 24.5t29.5 50.5l138 10q-15 -80 -77.5 -136.5t-150.5 -63.5q-29 -2 -52.5 7.5t-39 23t-30.5 26.5t-34 19.5t-41 0.5q-23 -6 -45.5 -29t-26.5 -45l-130 -10q9 71 71 133t140 69zM239 324l-129 -10q9 71 71 133 t140 69q36 3 65 -9.5t44.5 -29.5t36.5 -30t43 -11q35 1 59 24.5t29 50.5l138 10q-14 -80 -77 -136.5t-150 -63.5q-29 -2 -52.5 7.5t-39.5 23t-31 26.5t-33.5 19.5t-40.5 0.5q-23 -5 -45.5 -28t-27.5 -46z" glyph-name="approxequal" horiz-adv-x="617" unicode="≈"/><glyph d="M201 151h-131l30 111h185l55 79h-219l30 111h279l92 116h107l-92 -116h139l-30 -111h-195l-54 -79h228l-30 -111h-287l-81 -103h-107z" glyph-name="notequal" horiz-adv-x="586" unicode="≠"/><glyph d="M119 385l374 160l-33 -121l-216 -89l169 -89l-32 -120l-289 160zM339 -31h-332l30 112h332z" glyph-name="lessequal" horiz-adv-x="362" unicode="≤"/><glyph d="M450 385l-27 -99l-374 -160l32 120l217 89l-169 89l33 121zM7 -31l30 112h332l-30 -112h-332z" glyph-name="greaterequal" horiz-adv-x="362" unicode="≥"/><glyph d="M329 547h101l103 -220l-221 -220h-101l-103 220zM222 327l61 -141l136 141l-60 141z" glyph-name="lozenge" horiz-adv-x="465" unicode="◊"/><glyph d="M100 0l105 392h-90l30 111h140q-22 0 -48.5 18.5t-16.5 54.5q33 124 288 124l-25 -96q-156 0 -169 -49q-7 -24 17.5 -38t56.5 -14h178q-7 0 -20 6t-27.5 20t-20 36.5t2.5 54.5q38 129 289 139l-28 -104q-147 8 -174 -69q-15 -41 13 -62t62 -21h58l-30 -111h-91l-105 -392 h-121l105 392h-153l-105 -392h-121z" glyph-name="uniFB00" horiz-adv-x="597" unicode="ﬀ"/><glyph d="M234 0h-120l105 392h-104l30 111h108q-15 0 -28 21t-5 52q13 50 85 84.5t156 34.5q68 0 124 -26t85 -81l-97 -30q-53 61 -126 61q-35 0 -61.5 -14.5t-31.5 -36.5q-9 -32 11 -48.5t52 -16.5h58l-30 -111h-106zM515 0h-121l134 500h121z" glyph-name="uniFB01" horiz-adv-x="564" unicode="ﬁ"/><glyph d="M530 0h-120l105 392h-103l30 111h106q-14 0 -26 25t-4 56q14 51 94 88t169 37q152 0 191 -104l-97 -31q-44 61 -116 61q-38 0 -70 -17.5t-38 -41.5q-8 -32 12 -52.5t50 -20.5h58l-30 -111h-106zM221 0h-121l105 392h-90l30 111h140q-20 0 -46.5 22.5t-16.5 58.5 q14 51 68 84t133 33q57 0 120 -19l-39 -88q-51 17 -93 17q-40 0 -65 -14.5t-30 -33.5q-6 -24 17.5 -42t54.5 -18h54l-30 -111h-86zM810 0h-120l134 500h120z" glyph-name="uniFB03" horiz-adv-x="845" unicode="ﬃ"/><glyph d="M393 454h-72l54 199l22 47h125zM213 454h-71l53 199l23 47h125z" glyph-name="glyph390" horiz-adv-x="378"/><glyph d="M301 454h-72l2 246h125l-2 -47zM408 454l3 246h125l-3 -47l-53 -199h-72z" glyph-name="glyph391" horiz-adv-x="378"/></font>
</defs>
</svg>
